<svg xmlns="http://www.w3.org/2000/svg" xmlns:xlink="http://www.w3.org/1999/xlink" viewBox="0 0 1188 300"><defs><style>.cls-1,.cls-11,.cls-14,.cls-16,.cls-5{fill:none;}.cls-2{clip-path:url(#clip-path);}.cls-3{clip-path:url(#clip-path-2);}.cls-13,.cls-17,.cls-4,.cls-6{fill:#fff;}.cls-12,.cls-13,.cls-14,.cls-15,.cls-4,.cls-5{stroke:#00112c;}.cls-11,.cls-12,.cls-13,.cls-14,.cls-15,.cls-16,.cls-17,.cls-4,.cls-5,.cls-6{stroke-linecap:round;stroke-linejoin:round;}.cls-4,.cls-5,.cls-6{stroke-width:1.06px;}.cls-17,.cls-6{stroke:#09152c;}.cls-7{clip-path:url(#clip-path-3);}.cls-8{clip-path:url(#clip-path-4);}.cls-9{fill:#f3f6f9;}.cls-10{fill:#0abf53;}.cls-11{stroke:#fff;}.cls-11,.cls-12,.cls-13,.cls-14,.cls-15,.cls-16,.cls-17{stroke-width:0.63px;}.cls-12{fill:#00a3ff;}.cls-15{fill:#00112c;}.cls-16{stroke:#f3f6f9;}</style><clipPath id="clip-path"><rect class="cls-1" x="114" y="-1427.53" width="1920" height="1080"/></clipPath><clipPath id="clip-path-2"><rect class="cls-1" x="-9.93" y="-1432.93" width="2043.93" height="1149.71"/></clipPath><clipPath id="clip-path-3"><rect class="cls-1" x="-0.08" width="1188.08" height="300"/></clipPath><clipPath id="clip-path-4"><rect class="cls-1" x="-9.93" y="-280.62" width="1211.78" height="681.63"/></clipPath></defs><g id="Layer_1" data-name="Layer 1"><g class="cls-2"><g class="cls-3"><polyline class="cls-4" points="-13.1 -858.07 668.21 -858.07 668.21 78.73 -13.1 78.73"/><line class="cls-5" x1="284.97" y1="-858.07" x2="284.97" y2="78.73"/><path class="cls-6" d="M1244.18-62,1003.68-385.6,983.13-507.86l.12,0-25-82.07h0a20.87,20.87,0,0,0-19.73,24.46l9,51.4-.1,0L840.11-653a12.18,12.18,0,0,0-17.73-2.23,9.18,9.18,0,0,0-3.18,12.55c3.56,5.87,62.52,97,69.14,107.47l-68.59-106-7.36,6a14.19,14.19,0,0,0-3.59,17.74C823.49-590.1,863.71-517,864.05-516.32l-56.91-104-3.54,4.6a29.69,29.69,0,0,0-3.54,30.36l40.65,85.45c-3.76-8-39.63-82.54-40.15-83s-1.68.08-3.12,1.15c-7.29,5.42-10,15.07-7.38,23.76,7.79,25.4,32.49,95.44,31.35,94.25-1.48-1.55,99,130.47,99,130.47L1149.17,4.89"/></g></g><g class="cls-7"><g class="cls-8"><rect class="cls-9" x="-9.93" y="-280.62" width="1211.78" height="681.63"/><path class="cls-10" d="M978.51,152.34a39.13,39.13,0,1,0,39.13,39.13A39.13,39.13,0,0,0,978.51,152.34Zm0,74.47a35.34,35.34,0,1,1,35.34-35.34A35.34,35.34,0,0,1,978.51,226.81Z"/><circle class="cls-10" cx="978.51" cy="191.47" r="31.56"/><path class="cls-11" d="M977.3,186.64a4.83,4.83,0,0,1,4.83-4.83h.4a4.36,4.36,0,0,1,3.12,6.79l-8.35,12.53H987"/><path class="cls-11" d="M991.8,196.3a4.83,4.83,0,1,0,4.83-4.83H991.8v-9.66h9.66"/><path class="cls-11" d="M967.64,196.3h0a4.84,4.84,0,0,1-4.84,4.84h0A4.84,4.84,0,0,1,958,196.3v-9.66a4.83,4.83,0,0,1,4.83-4.83h0a4.84,4.84,0,0,1,4.84,4.83h0"/><line class="cls-11" x1="955.56" y1="193.89" x2="965.22" y2="193.89"/><line class="cls-11" x1="955.56" y1="189.06" x2="965.22" y2="189.06"/><path class="cls-10" d="M527.55,84.18a39.13,39.13,0,1,0,39.13,39.13A39.13,39.13,0,0,0,527.55,84.18Zm0,74.47a35.34,35.34,0,1,1,35.34-35.34A35.34,35.34,0,0,1,527.55,158.65Z"/><circle class="cls-10" cx="527.55" cy="123.31" r="31.56"/><path class="cls-11" d="M540.84,128.14a4.83,4.83,0,1,0,4.83-4.83h-4.83v-9.66h9.66"/><path class="cls-11" d="M516.68,128.14h0a4.83,4.83,0,0,1-4.83,4.83h0a4.84,4.84,0,0,1-4.84-4.83v-9.66a4.84,4.84,0,0,1,4.84-4.83h0a4.83,4.83,0,0,1,4.83,4.83h0"/><line class="cls-11" x1="504.6" y1="125.73" x2="514.26" y2="125.73"/><line class="cls-11" x1="504.6" y1="120.89" x2="514.26" y2="120.89"/><polyline class="cls-11" points="526.34 113.64 531.17 113.64 531.17 132.97"/><line class="cls-11" x1="526.34" y1="132.97" x2="536.01" y2="132.97"/><path class="cls-10" d="M780.63,85.06a39.13,39.13,0,1,0,39.13,39.13A39.13,39.13,0,0,0,780.63,85.06Zm0,74.48A35.35,35.35,0,1,1,816,124.19,35.35,35.35,0,0,1,780.63,159.54Z"/><circle class="cls-10" cx="780.63" cy="124.19" r="31.56"/><path class="cls-11" d="M786.67,129a4.83,4.83,0,1,0,4.83-4.84h-4.83v-9.66h9.66"/><path class="cls-11" d="M777,129h0a4.84,4.84,0,0,1-4.84,4.83h0a4.84,4.84,0,0,1-4.83-4.83v-9.67a4.83,4.83,0,0,1,4.83-4.83h0a4.84,4.84,0,0,1,4.84,4.83h0"/><line class="cls-11" x1="764.93" y1="126.61" x2="774.59" y2="126.61"/><line class="cls-11" x1="764.93" y1="121.78" x2="774.59" y2="121.78"/><path class="cls-10" d="M100.79,242.65a39.13,39.13,0,1,0,39.13,39.13A39.13,39.13,0,0,0,100.79,242.65Zm0,74.47a35.34,35.34,0,1,1,35.34-35.34A35.34,35.34,0,0,1,100.79,317.12Z"/><circle class="cls-10" cx="100.79" cy="281.78" r="31.56"/><path class="cls-11" d="M89.92,286.61h0a4.84,4.84,0,0,1-4.84,4.83h0a4.83,4.83,0,0,1-4.83-4.83V277a4.83,4.83,0,0,1,4.83-4.83h0A4.84,4.84,0,0,1,89.92,277h0"/><line class="cls-11" x1="77.84" y1="284.2" x2="87.5" y2="284.2"/><line class="cls-11" x1="77.84" y1="279.36" x2="87.5" y2="279.36"/><polyline class="cls-11" points="99.58 272.12 104.41 272.12 104.41 291.44"/><line class="cls-11" x1="99.58" y1="291.44" x2="109.25" y2="291.44"/><path class="cls-11" d="M114.08,277a4.83,4.83,0,0,1,4.83-4.83h.4a4.37,4.37,0,0,1,3.12,6.79l-8.35,12.52h9.66"/><path class="cls-12" d="M424.29,162.55H440.8a0,0,0,0,1,0,0v66.1a0,0,0,0,1,0,0H424.29a16.54,16.54,0,0,1-16.54-16.54v-33A16.54,16.54,0,0,1,424.29,162.55Z"/><rect class="cls-13" x="440.8" y="154.29" width="16.52" height="82.62"/><line class="cls-14" x1="424.27" y1="146.03" x2="424.27" y2="162.55"/><path class="cls-12" d="M630.84,162.55h16.51a0,0,0,0,1,0,0v66.1a0,0,0,0,1,0,0H630.84a16.54,16.54,0,0,1-16.54-16.54v-33a16.54,16.54,0,0,1,16.54-16.54Z" transform="translate(1261.66 391.2) rotate(-180)"/><rect class="cls-13" x="597.78" y="154.29" width="16.52" height="82.62" transform="translate(1212.08 391.2) rotate(180)"/><circle class="cls-11" cx="626.7" cy="208" r="4.13"/><line class="cls-14" x1="626.7" y1="187.34" x2="626.7" y2="195.6"/><line class="cls-14" x1="622.57" y1="191.47" x2="630.83" y2="191.47"/><line class="cls-11" x1="622.57" y1="220.39" x2="630.83" y2="220.39"/><line class="cls-14" x1="630.83" y1="162.55" x2="630.83" y2="146.03"/><path class="cls-15" d="M630.83,113A18.16,18.16,0,0,1,613,97.85a86.77,86.77,0,0,0-170.88,0A18.16,18.16,0,0,1,424.27,113a103.28,103.28,0,1,1,206.56,0Z"/><line class="cls-14" x1="630.83" y1="129.51" x2="630.83" y2="112.98"/><line class="cls-14" x1="424.27" y1="129.51" x2="424.27" y2="112.98"/><circle class="cls-13" cx="630.83" cy="137.77" r="8.26"/><line class="cls-14" x1="639.09" y1="137.77" x2="639.09" y2="121.24"/><circle class="cls-13" cx="424.27" cy="137.77" r="8.26"/><line class="cls-14" x1="416.01" y1="137.77" x2="416.01" y2="121.24"/><line class="cls-16" x1="416.01" y1="162.55" x2="416.01" y2="228.65"/><line class="cls-16" x1="639.09" y1="162.55" x2="639.09" y2="228.65"/><rect class="cls-15" x="1039.94" y="32.42" width="106.36" height="227.21"/><rect class="cls-13" x="1039.94" y="45.05" width="106.36" height="201.96"/><rect class="cls-13" x="-123.34" y="-60.06" width="454.42" height="282.68" rx="25.25"/><rect class="cls-15" x="287.6" y="-23.39" width="33" height="126.91"/><line class="cls-14" x1="-69.39" y1="11.12" x2="277.12" y2="11.12"/><rect class="cls-14" x="-23.19" y="-11.98" width="23.1" height="23.1"/><rect class="cls-14" x="-0.08" y="-11.98" width="23.1" height="23.1"/><rect class="cls-14" x="23.02" y="-11.98" width="23.1" height="23.1"/><rect class="cls-14" x="46.12" y="-11.98" width="23.1" height="23.1"/><rect class="cls-14" x="69.22" y="-11.98" width="23.1" height="23.1"/><rect class="cls-14" x="92.32" y="-11.98" width="23.1" height="23.1"/><rect class="cls-14" x="115.42" y="-11.98" width="23.1" height="23.1"/><rect class="cls-14" x="138.52" y="-11.98" width="23.1" height="23.1"/><rect class="cls-14" x="161.62" y="-11.98" width="23.1" height="23.1"/><rect class="cls-14" x="184.72" y="-11.98" width="23.1" height="23.1"/><rect class="cls-14" x="207.82" y="-11.98" width="23.1" height="23.1"/><polygon class="cls-14" points="254.02 -11.98 230.92 -11.98 230.92 11.12 254.02 11.12 277.12 11.12 277.12 -11.98 254.02 -11.98"/><path class="cls-14" d="M69.15,216.85h69.44a5.71,5.71,0,0,1,5.71,5.71v.07a0,0,0,0,1,0,0H63.44a0,0,0,0,1,0,0v-.07A5.71,5.71,0,0,1,69.15,216.85Z"/><line class="cls-14" x1="-69.39" y1="10.97" x2="277.12" y2="10.97"/><rect class="cls-14" x="-23.19" y="10.97" width="23.1" height="23.1"/><rect class="cls-14" x="-0.08" y="10.97" width="23.1" height="23.1"/><rect class="cls-14" x="23.02" y="10.97" width="23.1" height="23.1"/><rect class="cls-14" x="46.12" y="10.97" width="23.1" height="23.1"/><rect class="cls-14" x="69.22" y="10.97" width="23.1" height="23.1"/><rect class="cls-14" x="92.32" y="10.97" width="23.1" height="23.1"/><rect class="cls-14" x="115.42" y="10.97" width="23.1" height="23.1"/><rect class="cls-14" x="138.52" y="10.97" width="23.1" height="23.1"/><rect class="cls-14" x="161.62" y="10.97" width="23.1" height="23.1"/><rect class="cls-14" x="184.72" y="10.97" width="23.1" height="23.1"/><rect class="cls-14" x="207.82" y="10.97" width="23.1" height="23.1"/><rect class="cls-14" x="-23.19" y="33.93" width="23.1" height="23.1"/><rect class="cls-14" x="-0.08" y="33.93" width="23.1" height="23.1"/><rect class="cls-14" x="23.02" y="33.93" width="23.1" height="23.1"/><rect class="cls-14" x="46.12" y="33.93" width="23.1" height="23.1"/><rect class="cls-14" x="69.22" y="33.93" width="23.1" height="23.1"/><rect class="cls-14" x="92.32" y="33.93" width="23.1" height="23.1"/><rect class="cls-14" x="115.42" y="33.93" width="23.1" height="23.1"/><rect class="cls-14" x="138.52" y="33.93" width="23.1" height="23.1"/><rect class="cls-14" x="161.62" y="33.93" width="23.1" height="23.1"/><rect class="cls-14" x="184.72" y="33.93" width="23.1" height="23.1"/><rect class="cls-14" x="207.82" y="33.93" width="23.1" height="23.1"/><rect class="cls-14" x="230.92" y="33.93" width="23.1" height="23.1"/><polygon class="cls-14" points="254.02 10.97 230.92 10.97 230.92 34.08 254.02 34.08 254.02 57.03 277.12 57.03 277.12 34.08 277.12 33.93 277.12 10.97 254.02 10.97"/><line class="cls-14" x1="-69.39" y1="56.89" x2="277.12" y2="56.89"/><polygon class="cls-14" points="-23.18 56.89 -46.29 56.89 -69.39 56.89 -69.39 79.99 -46.29 79.99 -23.18 79.99 -0.09 79.99 -0.09 56.89 -23.18 56.89"/><rect class="cls-14" x="-0.08" y="56.89" width="23.1" height="23.1"/><rect class="cls-14" x="23.02" y="56.89" width="23.1" height="23.1"/><rect class="cls-14" x="46.12" y="56.89" width="23.1" height="23.1"/><rect class="cls-14" x="69.22" y="56.89" width="23.1" height="23.1"/><rect class="cls-14" x="92.32" y="56.89" width="23.1" height="23.1"/><rect class="cls-14" x="115.42" y="56.89" width="23.1" height="23.1"/><rect class="cls-14" x="138.52" y="56.89" width="23.1" height="23.1"/><rect class="cls-14" x="161.62" y="56.89" width="23.1" height="23.1"/><rect class="cls-14" x="184.72" y="56.89" width="23.1" height="23.1"/><polygon class="cls-14" points="254.02 56.89 230.92 56.89 207.82 56.89 207.82 79.99 230.92 79.99 230.92 79.99 254.02 79.99 277.12 79.99 277.12 56.89 254.02 56.89"/><line class="cls-14" x1="-69.39" y1="79.85" x2="277.12" y2="79.85"/><rect class="cls-14" x="-23.19" y="79.85" width="23.1" height="23.1"/><rect class="cls-14" x="-0.08" y="79.85" width="23.1" height="23.1"/><polygon class="cls-14" points="161.62 79.85 138.52 79.85 115.42 79.85 92.32 79.85 69.22 79.85 46.12 79.85 23.02 79.85 23.02 102.95 46.12 102.95 69.22 102.95 92.32 102.95 115.42 102.95 138.52 102.95 161.62 102.95 184.72 102.95 184.72 79.85 161.62 79.85"/><path class="cls-14" d="M161.62,126.05H28.49A5.47,5.47,0,0,0,23,131.53V194a5.47,5.47,0,0,0,5.47,5.48H179.24a5.48,5.48,0,0,0,5.48-5.48V131.53a5.48,5.48,0,0,0-5.48-5.48Z"/><rect class="cls-14" x="184.72" y="79.85" width="23.1" height="23.1"/><rect class="cls-14" x="207.82" y="79.85" width="23.1" height="23.1"/><rect class="cls-14" x="230.92" y="79.85" width="23.1" height="23.1"/><rect class="cls-14" x="254.02" y="79.85" width="23.1" height="23.1"/><path class="cls-17" d="M640.56,532.14,498,340.31l-12.19-72.48h.08L471,219.19h0a12.37,12.37,0,0,0-11.7,14.49l5.33,30.48h-.06L401,181.78a7.23,7.23,0,0,0-10.52-1.32,5.44,5.44,0,0,0-1.88,7.44c2.11,3.48,37.07,57.5,41,63.72l-40.66-62.84-4.37,3.53a8.42,8.42,0,0,0-2.13,10.52c8.71,16.24,32.56,59.59,32.76,60l-33.74-61.65-2.1,2.73a17.59,17.59,0,0,0-2.1,18l24.1,50.66c-2.23-4.74-23.49-48.93-23.8-49.21s-1,0-1.85.68a12.86,12.86,0,0,0-4.38,14.09c4.62,15.06,19.27,56.58,18.59,55.88-.88-.92,58.7,77.35,58.7,77.35L584.23,571.82"/><rect class="cls-15" x="683.58" y="176.64" width="194.1" height="274.97" rx="16.17"/><rect class="cls-13" x="699.76" y="192.82" width="161.75" height="226.45"/><rect class="cls-14" x="748.28" y="208.99" width="97.05" height="8.09"/><rect class="cls-14" x="748.28" y="225.17" width="97.05" height="8.09"/><rect class="cls-14" x="715.93" y="241.34" width="129.4" height="8.09"/><rect class="cls-14" x="715.93" y="257.52" width="129.4" height="8.09"/><rect class="cls-14" x="715.93" y="273.69" width="129.4" height="8.09"/><rect class="cls-14" x="715.93" y="289.87" width="129.4" height="8.09"/><path class="cls-14" d="M715.93,209h12.13a12.13,12.13,0,0,1,12.13,12.13v0a12.13,12.13,0,0,1-12.13,12.13H715.93a0,0,0,0,1,0,0V209A0,0,0,0,1,715.93,209Z"/></g></g></g></svg>