<svg xmlns="http://www.w3.org/2000/svg" xmlns:xlink="http://www.w3.org/1999/xlink" viewBox="0 0 1500 300"><defs><style>.cls-1,.cls-11,.cls-6,.cls-9{fill:none;}.cls-2{clip-path:url(#clip-path);}.cls-3{clip-path:url(#clip-path-2);}.cls-4{fill:#f3f6f9;}.cls-5{fill:#0abf53;}.cls-6{stroke:#fff;}.cls-10,.cls-11,.cls-12,.cls-6,.cls-7,.cls-8,.cls-9{stroke-linecap:round;stroke-linejoin:round;stroke-width:0.79px;}.cls-7{fill:#00a3ff;}.cls-10,.cls-7,.cls-8,.cls-9{stroke:#00112c;}.cls-12,.cls-8{fill:#fff;}.cls-10{fill:#00112c;}.cls-11{stroke:#f3f6f9;}.cls-12{stroke:#09152c;}</style><clipPath id="clip-path"><rect class="cls-1" width="1500" height="300"/></clipPath><clipPath id="clip-path-2"><rect class="cls-1" x="-10.04" y="-428.17" width="1522.37" height="856.33"/></clipPath></defs><g id="Layer_1" data-name="Layer 1"><g class="cls-2"><g class="cls-3"><rect class="cls-4" x="-10.04" y="-428.17" width="1522.37" height="856.33"/><path class="cls-5" d="M1231.75,115.76a49.16,49.16,0,1,0,49.16,49.16A49.16,49.16,0,0,0,1231.75,115.76Zm0,93.57a44.41,44.41,0,1,1,44.41-44.41A44.4,44.4,0,0,1,1231.75,209.33Z"/><circle class="cls-5" cx="1231.75" cy="164.92" r="39.65"/><path class="cls-6" d="M1230.24,158.85a6.07,6.07,0,0,1,6.07-6.07l.49,0a5.48,5.48,0,0,1,3.92,8.53l-10.48,15.73h12.14"/><path class="cls-6" d="M1248.45,171a6.07,6.07,0,1,0,6.07-6.07h-6.07V152.78h12.14"/><path class="cls-6" d="M1218.09,171h0a6.06,6.06,0,0,1-6.07,6.07h0A6.07,6.07,0,0,1,1206,171V158.85a6.07,6.07,0,0,1,6.07-6.07h0a6.07,6.07,0,0,1,6.07,6.07h0"/><line class="cls-6" x1="1202.92" y1="167.96" x2="1215.06" y2="167.96"/><line class="cls-6" x1="1202.92" y1="161.89" x2="1215.06" y2="161.89"/><path class="cls-5" d="M665.21,30.13a49.16,49.16,0,1,0,49.16,49.16A49.16,49.16,0,0,0,665.21,30.13Zm0,93.56a44.4,44.4,0,1,1,44.4-44.4A44.4,44.4,0,0,1,665.21,123.69Z"/><circle class="cls-5" cx="665.21" cy="79.29" r="39.65"/><path class="cls-6" d="M681.9,85.36A6.07,6.07,0,1,0,688,79.29H681.9V67.15H694"/><path class="cls-6" d="M651.55,85.36h0a6.07,6.07,0,0,1-6.07,6.07h0a6.07,6.07,0,0,1-6.07-6.07V73.22a6.07,6.07,0,0,1,6.07-6.07h0a6.07,6.07,0,0,1,6.07,6.07h0"/><line class="cls-6" x1="636.37" y1="82.33" x2="648.51" y2="82.33"/><line class="cls-6" x1="636.37" y1="76.25" x2="648.51" y2="76.25"/><polyline class="cls-6" points="663.69 67.15 669.76 67.15 669.76 91.43"/><line class="cls-6" x1="663.69" y1="91.43" x2="675.83" y2="91.43"/><path class="cls-5" d="M983.16,31.24a49.16,49.16,0,1,0,49.16,49.16A49.16,49.16,0,0,0,983.16,31.24Zm0,93.56a44.4,44.4,0,1,1,44.4-44.4A44.4,44.4,0,0,1,983.16,124.8Z"/><circle class="cls-5" cx="983.16" cy="80.4" r="39.65"/><path class="cls-6" d="M990.74,86.47a6.08,6.08,0,1,0,6.07-6.07h-6.07V68.26h12.15"/><path class="cls-6" d="M978.6,86.47h0a6.07,6.07,0,0,1-6.07,6.07h0a6.07,6.07,0,0,1-6.07-6.07V74.33a6.07,6.07,0,0,1,6.07-6.07h0a6.07,6.07,0,0,1,6.07,6.07h0"/><line class="cls-6" x1="963.43" y1="83.44" x2="975.57" y2="83.44"/><line class="cls-6" x1="963.43" y1="77.37" x2="975.57" y2="77.37"/><path class="cls-5" d="M129.06,229.22a49.16,49.16,0,1,0,49.16,49.16A49.16,49.16,0,0,0,129.06,229.22Zm0,93.56a44.4,44.4,0,1,1,44.41-44.4A44.4,44.4,0,0,1,129.06,322.78Z"/><circle class="cls-5" cx="129.06" cy="278.38" r="39.65"/><path class="cls-6" d="M115.4,284.45h0a6.07,6.07,0,0,1-6.07,6.07h0a6.07,6.07,0,0,1-6.07-6.07V272.31a6.07,6.07,0,0,1,6.07-6.07h0a6.06,6.06,0,0,1,6.07,6.07h0"/><line class="cls-6" x1="100.23" y1="281.41" x2="112.37" y2="281.41"/><line class="cls-6" x1="100.23" y1="275.34" x2="112.37" y2="275.34"/><polyline class="cls-6" points="127.55 266.24 133.62 266.24 133.62 290.52"/><line class="cls-6" x1="127.55" y1="290.52" x2="139.69" y2="290.52"/><path class="cls-6" d="M145.76,272.31a6.07,6.07,0,0,1,6.07-6.07,4.18,4.18,0,0,1,.5,0,5.48,5.48,0,0,1,3.92,8.53l-10.49,15.73H157.9"/><path class="cls-7" d="M535.48,128.59h20.74a0,0,0,0,1,0,0v83a0,0,0,0,1,0,0H535.48a20.78,20.78,0,0,1-20.78-20.78V149.37A20.78,20.78,0,0,1,535.48,128.59Z"/><rect class="cls-8" x="556.22" y="118.21" width="20.76" height="103.8"/><line class="cls-9" x1="535.46" y1="107.83" x2="535.46" y2="128.59"/><path class="cls-7" d="M795,128.59h20.74a0,0,0,0,1,0,0v83a0,0,0,0,1,0,0H795a20.78,20.78,0,0,1-20.78-20.78V149.37A20.78,20.78,0,0,1,795,128.59Z" transform="translate(1589.92 340.23) rotate(-180)"/><rect class="cls-8" x="753.44" y="118.21" width="20.76" height="103.8" transform="translate(1527.64 340.23) rotate(180)"/><circle class="cls-6" cx="789.77" cy="185.68" r="5.19"/><line class="cls-9" x1="789.77" y1="159.73" x2="789.77" y2="170.11"/><line class="cls-9" x1="784.58" y1="164.92" x2="794.96" y2="164.92"/><line class="cls-6" x1="784.58" y1="201.25" x2="794.96" y2="201.25"/><line class="cls-9" x1="794.96" y1="128.59" x2="794.96" y2="107.83"/><path class="cls-10" d="M795,66.32a22.82,22.82,0,0,1-22.41-19,109,109,0,0,0-214.68,0,22.83,22.83,0,0,1-22.41,19,129.75,129.75,0,1,1,259.5,0Z"/><line class="cls-9" x1="794.96" y1="87.08" x2="794.96" y2="66.32"/><line class="cls-9" x1="535.46" y1="87.08" x2="535.46" y2="66.32"/><circle class="cls-8" cx="794.96" cy="97.45" r="10.38"/><line class="cls-9" x1="805.34" y1="97.45" x2="805.34" y2="76.69"/><circle class="cls-8" cx="535.46" cy="97.45" r="10.38"/><line class="cls-9" x1="525.08" y1="97.45" x2="525.08" y2="76.69"/><line class="cls-11" x1="525.08" y1="128.59" x2="525.08" y2="211.63"/><line class="cls-11" x1="805.34" y1="128.59" x2="805.34" y2="211.63"/><rect class="cls-10" x="1308.93" y="-60.4" width="133.63" height="285.44"/><rect class="cls-8" x="1308.93" y="-44.54" width="133.63" height="253.73"/><rect class="cls-8" x="-152.51" y="-151.08" width="570.89" height="355.14" rx="31.72"/><rect class="cls-10" x="363.75" y="-105.01" width="41.46" height="159.44"/><path class="cls-9" d="M89.31,196.8h87.24a7.17,7.17,0,0,1,7.17,7.17v.09a0,0,0,0,1,0,0H82.14a0,0,0,0,1,0,0V204A7.17,7.17,0,0,1,89.31,196.8Z"/><polygon class="cls-9" points="-26.69 -4.15 -55.71 -4.15 -84.73 -4.15 -84.73 24.87 -55.71 24.87 -26.69 24.87 2.33 24.87 2.33 -4.15 -26.69 -4.15"/><rect class="cls-9" x="2.33" y="-4.15" width="29.02" height="29.02"/><rect class="cls-9" x="31.36" y="-4.15" width="29.02" height="29.02"/><rect class="cls-9" x="60.38" y="-4.15" width="29.02" height="29.02"/><rect class="cls-9" x="89.4" y="-4.15" width="29.02" height="29.02"/><rect class="cls-9" x="118.42" y="-4.15" width="29.02" height="29.02"/><rect class="cls-9" x="147.44" y="-4.15" width="29.02" height="29.02"/><rect class="cls-9" x="176.46" y="-4.15" width="29.02" height="29.02"/><rect class="cls-9" x="205.48" y="-4.15" width="29.02" height="29.02"/><rect class="cls-9" x="234.51" y="-4.15" width="29.02" height="29.02"/><polygon class="cls-9" points="321.57 -4.15 292.55 -4.15 263.53 -4.15 263.53 24.87 292.55 24.87 292.55 24.87 321.57 24.87 350.59 24.87 350.59 -4.15 321.57 -4.15"/><line class="cls-9" x1="-84.73" y1="24.69" x2="350.59" y2="24.69"/><rect class="cls-9" x="-26.69" y="24.69" width="29.02" height="29.02"/><rect class="cls-9" x="2.33" y="24.69" width="29.02" height="29.02"/><polygon class="cls-9" points="205.49 24.69 176.46 24.69 147.44 24.69 118.42 24.69 89.4 24.69 60.38 24.69 31.36 24.69 31.36 53.71 60.38 53.71 89.4 53.71 118.42 53.71 147.44 53.71 176.46 53.71 205.49 53.71 234.51 53.71 234.51 24.69 205.49 24.69"/><path class="cls-9" d="M205.48,82.73H38.24a6.89,6.89,0,0,0-6.88,6.89v78.53A6.88,6.88,0,0,0,38.24,175H227.62a6.88,6.88,0,0,0,6.89-6.88V89.62a6.89,6.89,0,0,0-6.89-6.89Z"/><rect class="cls-9" x="234.51" y="24.69" width="29.02" height="29.02"/><rect class="cls-9" x="263.53" y="24.69" width="29.02" height="29.02"/><rect class="cls-9" x="292.55" y="24.69" width="29.02" height="29.02"/><rect class="cls-9" x="321.57" y="24.69" width="29.02" height="29.02"/><path class="cls-12" d="M807.18,592.91l-179.13-241-15.31-91.06.09,0-18.65-61.13h0A15.55,15.55,0,0,0,579.47,218l6.7,38.28h-.07L506.22,152.75A9.08,9.08,0,0,0,493,151.09a6.84,6.84,0,0,0-2.37,9.35c2.65,4.37,46.57,72.24,51.5,80l-51.08-78.94L485.57,166a10.56,10.56,0,0,0-2.67,13.21c10.94,20.4,40.89,74.87,41.15,75.36l-42.39-77.46L479,180.52a22.12,22.12,0,0,0-2.63,22.61l30.28,63.65c-2.81-6-29.52-61.48-29.91-61.83s-1.25.05-2.33.86a16.11,16.11,0,0,0-5.49,17.69c5.8,18.92,24.2,71.09,23.35,70.2-1.11-1.15,73.75,97.18,73.75,97.18L736.41,642.76"/><rect class="cls-10" x="861.23" y="146.29" width="243.85" height="345.45" rx="20.32"/><rect class="cls-8" x="881.55" y="166.61" width="203.21" height="284.49"/><rect class="cls-9" x="942.51" y="186.94" width="121.92" height="10.16"/><rect class="cls-9" x="942.51" y="207.26" width="121.92" height="10.16"/><rect class="cls-9" x="901.87" y="227.58" width="162.56" height="10.16"/><rect class="cls-9" x="901.87" y="247.9" width="162.56" height="10.16"/><rect class="cls-9" x="901.87" y="268.22" width="162.56" height="10.16"/><rect class="cls-9" x="901.87" y="288.54" width="162.56" height="10.16"/><path class="cls-9" d="M901.87,186.94h15.24a15.24,15.24,0,0,1,15.24,15.24v0a15.24,15.24,0,0,1-15.24,15.24H901.87a0,0,0,0,1,0,0V186.94a0,0,0,0,1,0,0Z"/></g></g></g></svg>