<svg xmlns="http://www.w3.org/2000/svg" xmlns:xlink="http://www.w3.org/1999/xlink" viewBox="0 0 1920 1080"><defs><style>.cls-1,.cls-11,.cls-13,.cls-6,.cls-9{fill:none;}.cls-2{clip-path:url(#clip-path);}.cls-3{clip-path:url(#clip-path-2);}.cls-4{fill:#f3f6f9;}.cls-5{fill:#0abf53;}.cls-13,.cls-6{stroke:#fff;}.cls-10,.cls-11,.cls-12,.cls-6,.cls-7,.cls-8,.cls-9{stroke-linecap:round;stroke-linejoin:round;}.cls-10,.cls-11,.cls-12,.cls-13,.cls-6,.cls-7,.cls-8,.cls-9{stroke-width:1.06px;}.cls-7{fill:#00a3ff;}.cls-10,.cls-7,.cls-8,.cls-9{stroke:#00112c;}.cls-12,.cls-8{fill:#fff;}.cls-10{fill:#00112c;}.cls-11{stroke:#f3f6f9;}.cls-12{stroke:#09152c;}.cls-13{stroke-miterlimit:10;}</style><clipPath id="clip-path"><rect class="cls-1" width="1920" height="1080"/></clipPath><clipPath id="clip-path-2"><rect class="cls-1" x="-123.93" y="-5.4" width="2043.93" height="1149.71"/></clipPath></defs><g id="Layer_1" data-name="Layer 1"><g class="cls-2"><g class="cls-3"><rect class="cls-4" x="-123.93" y="-5.4" width="2043.93" height="1149.71"/><path class="cls-5" d="M1537.18,221.72a66,66,0,1,0,66,66A66,66,0,0,0,1537.18,221.72Zm0,125.62a59.62,59.62,0,1,1,59.61-59.62A59.62,59.62,0,0,1,1537.18,347.34Z"/><circle class="cls-5" cx="1537.18" cy="287.72" r="53.23"/><path class="cls-6" d="M1535.14,279.57a8.15,8.15,0,0,1,8.15-8.15c.23,0,.45,0,.67,0,5.49.44,8.32,6.87,5.26,11.45L1535.14,304h16.3"/><path class="cls-6" d="M1559.59,295.87a8.15,8.15,0,1,0,8.15-8.15h-8.15v-16.3h16.3"/><path class="cls-6" d="M1518.84,295.87h0a8.15,8.15,0,0,1-8.15,8.15h0a8.15,8.15,0,0,1-8.15-8.15v-16.3a8.15,8.15,0,0,1,8.15-8.15h0a8.15,8.15,0,0,1,8.15,8.15h0"/><line class="cls-6" x1="1498.46" y1="291.8" x2="1514.77" y2="291.8"/><line class="cls-6" x1="1498.46" y1="283.65" x2="1514.77" y2="283.65"/><path class="cls-5" d="M939.57,609.91a66,66,0,1,0,66,66A66,66,0,0,0,939.57,609.91Zm0,125.62a59.62,59.62,0,1,1,59.62-59.62A59.62,59.62,0,0,1,939.57,735.53Z"/><circle class="cls-5" cx="939.57" cy="675.91" r="53.23"/><path class="cls-6" d="M962,684.06a8.15,8.15,0,1,0,8.15-8.15H962v-16.3h16.3"/><path class="cls-6" d="M921.23,684.06h0a8.15,8.15,0,0,1-8.15,8.15h0a8.15,8.15,0,0,1-8.15-8.15v-16.3a8.15,8.15,0,0,1,8.15-8.15h0a8.15,8.15,0,0,1,8.15,8.15h0"/><line class="cls-6" x1="900.86" y1="679.99" x2="917.16" y2="679.99"/><line class="cls-6" x1="900.86" y1="671.84" x2="917.16" y2="671.84"/><polyline class="cls-6" points="937.53 659.61 945.68 659.61 945.68 692.21"/><line class="cls-6" x1="937.53" y1="692.21" x2="953.84" y2="692.21"/><path class="cls-5" d="M1482.35,611.4a66,66,0,1,0,66,66A66,66,0,0,0,1482.35,611.4Zm0,125.62A59.62,59.62,0,1,1,1542,677.4,59.62,59.62,0,0,1,1482.35,737Z"/><circle class="cls-5" cx="1482.35" cy="677.4" r="53.23"/><path class="cls-6" d="M1492.54,685.55a8.15,8.15,0,1,0,8.15-8.15h-8.15V661.1h16.3"/><path class="cls-6" d="M1476.24,685.55h0a8.15,8.15,0,0,1-8.15,8.15h0a8.15,8.15,0,0,1-8.16-8.15v-16.3a8.15,8.15,0,0,1,8.16-8.15h0a8.15,8.15,0,0,1,8.15,8.15h0"/><line class="cls-6" x1="1455.86" y1="681.48" x2="1472.16" y2="681.48"/><line class="cls-6" x1="1455.86" y1="673.33" x2="1472.16" y2="673.33"/><path class="cls-5" d="M699.33,315.23a66,66,0,1,0,66,66A66,66,0,0,0,699.33,315.23Zm0,125.62a59.62,59.62,0,1,1,59.61-59.62A59.62,59.62,0,0,1,699.33,440.85Z"/><circle class="cls-5" cx="699.33" cy="381.23" r="53.23"/><path class="cls-6" d="M681,389.39h0a8.15,8.15,0,0,1-8.15,8.15h0a8.15,8.15,0,0,1-8.15-8.15V373.08a8.15,8.15,0,0,1,8.15-8.15h0a8.15,8.15,0,0,1,8.15,8.15h0"/><line class="cls-6" x1="660.61" y1="385.31" x2="676.91" y2="385.31"/><line class="cls-6" x1="660.61" y1="377.16" x2="676.91" y2="377.16"/><polyline class="cls-6" points="697.29 364.93 705.44 364.93 705.44 397.54"/><line class="cls-6" x1="697.29" y1="397.54" x2="713.59" y2="397.54"/><path class="cls-6" d="M721.74,373.08a8.15,8.15,0,0,1,8.15-8.15c.23,0,.45,0,.67,0,5.49.45,8.32,6.87,5.26,11.45l-14.08,21.13H738"/><path class="cls-7" d="M765.4,742.1h27.85a0,0,0,0,1,0,0V853.59a0,0,0,0,1,0,0H765.4a27.9,27.9,0,0,1-27.9-27.9V770A27.9,27.9,0,0,1,765.4,742.1Z"/><rect class="cls-8" x="793.24" y="728.17" width="27.87" height="139.36"/><line class="cls-9" x1="765.37" y1="714.23" x2="765.37" y2="742.1"/><path class="cls-7" d="M1113.8,742.1h27.85a0,0,0,0,1,0,0V853.59a0,0,0,0,1,0,0H1113.8a27.9,27.9,0,0,1-27.9-27.9V770A27.9,27.9,0,0,1,1113.8,742.1Z" transform="translate(2227.55 1595.7) rotate(-180)"/><rect class="cls-8" x="1058.03" y="728.17" width="27.87" height="139.36" transform="translate(2143.93 1595.7) rotate(180)"/><circle class="cls-6" cx="1106.81" cy="818.75" r="6.97"/><line class="cls-9" x1="1106.81" y1="783.91" x2="1106.81" y2="797.85"/><line class="cls-9" x1="1099.84" y1="790.88" x2="1113.77" y2="790.88"/><line class="cls-6" x1="1099.84" y1="839.66" x2="1113.77" y2="839.66"/><line class="cls-9" x1="1113.77" y1="742.1" x2="1113.77" y2="714.23"/><path class="cls-10" d="M1113.77,658.49A30.63,30.63,0,0,1,1083.68,633a146.36,146.36,0,0,0-288.22,0,30.63,30.63,0,0,1-30.09,25.53,174.2,174.2,0,1,1,348.4,0Z"/><line class="cls-9" x1="1113.77" y1="686.37" x2="1113.77" y2="658.49"/><line class="cls-9" x1="765.37" y1="686.37" x2="765.37" y2="658.49"/><circle class="cls-8" cx="1113.77" cy="700.3" r="13.94"/><line class="cls-9" x1="1127.71" y1="700.3" x2="1127.71" y2="672.42"/><circle class="cls-8" cx="765.37" cy="700.3" r="13.94"/><line class="cls-9" x1="751.43" y1="700.3" x2="751.43" y2="672.42"/><line class="cls-11" x1="751.43" y1="742.1" x2="751.43" y2="853.59"/><line class="cls-11" x1="1127.71" y1="742.1" x2="1127.71" y2="853.59"/><polyline class="cls-8" points="-127.1 569.46 554.21 569.46 554.21 1506.26 -127.1 1506.26"/><line class="cls-9" x1="170.97" y1="569.46" x2="170.97" y2="1506.26"/><rect class="cls-10" x="1620.12" y="96.64" width="179.41" height="383.24"/><rect class="cls-8" x="1620.12" y="117.93" width="179.41" height="340.66"/><rect class="cls-8" x="321.28" y="-178.81" width="766.47" height="476.81" rx="42.58"/><rect class="cls-10" x="1014.42" y="-116.96" width="55.66" height="214.06"/><rect class="cls-10" x="338.96" y="-116.96" width="55.66" height="214.06"/><path class="cls-9" d="M646,288.26H763.08a9.63,9.63,0,0,1,9.63,9.63V298a0,0,0,0,1,0,0H636.33a0,0,0,0,1,0,0v-.12A9.63,9.63,0,0,1,646,288.26Z"/><polygon class="cls-9" points="451.25 -20.27 412.29 -20.27 412.29 18.7 451.25 18.7 490.22 18.7 490.22 -20.27 451.25 -20.27"/><rect class="cls-9" x="490.22" y="-20.27" width="38.96" height="38.96"/><rect class="cls-9" x="529.18" y="-20.27" width="38.96" height="38.96"/><rect class="cls-9" x="568.15" y="-20.27" width="38.96" height="38.96"/><rect class="cls-9" x="607.11" y="-20.27" width="38.96" height="38.96"/><rect class="cls-9" x="646.07" y="-20.27" width="38.96" height="38.96"/><rect class="cls-9" x="685.04" y="-20.27" width="38.96" height="38.96"/><rect class="cls-9" x="724" y="-20.27" width="38.96" height="38.96"/><rect class="cls-9" x="762.97" y="-20.27" width="38.96" height="38.96"/><rect class="cls-9" x="801.93" y="-20.27" width="38.96" height="38.96"/><rect class="cls-9" x="840.89" y="-20.27" width="38.96" height="38.96"/><rect class="cls-9" x="879.86" y="-20.27" width="38.96" height="38.96"/><rect class="cls-9" x="918.82" y="-20.27" width="38.96" height="38.96"/><polygon class="cls-9" points="957.79 -58.99 918.82 -58.99 918.82 -20.03 957.79 -20.03 957.79 18.7 996.75 18.7 996.75 -20.03 996.75 -20.27 996.75 -58.99 957.79 -58.99"/><line class="cls-9" x1="412.29" y1="18.46" x2="996.75" y2="18.46"/><polygon class="cls-9" points="490.22 18.46 451.25 18.46 412.29 18.46 412.29 57.42 451.25 57.42 490.22 57.42 529.18 57.42 529.18 18.46 490.22 18.46"/><rect class="cls-9" x="529.18" y="18.46" width="38.96" height="38.96"/><rect class="cls-9" x="568.15" y="18.46" width="38.96" height="38.96"/><rect class="cls-9" x="607.11" y="18.46" width="38.96" height="38.96"/><rect class="cls-9" x="646.07" y="18.46" width="38.96" height="38.96"/><rect class="cls-9" x="685.04" y="18.46" width="38.96" height="38.96"/><rect class="cls-9" x="724" y="18.46" width="38.96" height="38.96"/><rect class="cls-9" x="762.97" y="18.46" width="38.96" height="38.96"/><rect class="cls-9" x="801.93" y="18.46" width="38.96" height="38.96"/><rect class="cls-9" x="840.89" y="18.46" width="38.96" height="38.96"/><polygon class="cls-9" points="957.79 18.46 918.82 18.46 879.86 18.46 879.86 57.42 918.82 57.42 918.82 57.42 957.79 57.42 996.75 57.42 996.75 18.46 957.79 18.46"/><line class="cls-9" x1="412.29" y1="57.18" x2="996.75" y2="57.18"/><rect class="cls-9" x="412.29" y="57.18" width="38.96" height="38.96"/><rect class="cls-9" x="451.25" y="57.18" width="38.96" height="38.96"/><rect class="cls-9" x="490.22" y="57.18" width="38.96" height="38.96"/><rect class="cls-9" x="529.18" y="57.18" width="38.96" height="38.96"/><polygon class="cls-9" points="801.93 57.18 762.97 57.18 724 57.18 685.04 57.18 646.07 57.18 607.11 57.18 568.15 57.18 568.15 96.15 607.11 96.15 646.07 96.15 685.04 96.15 724 96.15 762.97 96.15 801.93 96.15 840.89 96.15 840.89 57.18 801.93 57.18"/><path class="cls-9" d="M801.93,135.11H577.39a9.24,9.24,0,0,0-9.24,9.24V249.79a9.23,9.23,0,0,0,9.24,9.24H831.66a9.24,9.24,0,0,0,9.24-9.24V144.35a9.24,9.24,0,0,0-9.24-9.24Z"/><rect class="cls-9" x="840.89" y="57.18" width="38.96" height="38.96"/><rect class="cls-9" x="879.86" y="57.18" width="38.96" height="38.96"/><rect class="cls-9" x="918.82" y="57.18" width="38.96" height="38.96"/><rect class="cls-9" x="957.79" y="57.18" width="38.96" height="38.96"/><path class="cls-5" d="M171,418.29a66,66,0,1,0,66,66A66,66,0,0,0,171,418.29Zm0,125.62a59.62,59.62,0,1,1,59.61-59.62A59.62,59.62,0,0,1,171,543.91Z"/><circle class="cls-5" cx="170.97" cy="484.29" r="53.23"/><path class="cls-6" d="M152.63,492.44h0a8.15,8.15,0,0,1-8.15,8.15h0a8.15,8.15,0,0,1-8.15-8.15v-16.3a8.15,8.15,0,0,1,8.15-8.15h0a8.15,8.15,0,0,1,8.15,8.15h0"/><line class="cls-6" x1="132.25" y1="488.37" x2="148.56" y2="488.37"/><line class="cls-6" x1="132.25" y1="480.22" x2="148.56" y2="480.22"/><polyline class="cls-6" points="168.93 467.99 177.08 467.99 177.08 500.59"/><line class="cls-6" x1="168.93" y1="500.59" x2="185.23" y2="500.59"/><rect class="cls-6" x="193.38" y="467.99" width="16.3" height="32.6" rx="8.15"/><line class="cls-6" x1="195.02" y1="497.32" x2="208.05" y2="471.26"/><rect class="cls-10" x="111.2" y="845.29" width="119.54" height="119.54"/><path class="cls-12" d="M1130.18,1365.49l-240.5-323.56L869.13,919.67l.12,0-25-82.06h0a20.87,20.87,0,0,0-19.73,24.45l9,51.41-.1,0L726.11,774.53a12.18,12.18,0,0,0-17.73-2.22,9.18,9.18,0,0,0-3.18,12.55c3.56,5.87,62.52,97,69.14,107.47l-68.59-106-7.36,6A14.18,14.18,0,0,0,694.8,810c14.69,27.39,54.91,100.52,55.25,101.18l-56.91-104-3.54,4.6a29.69,29.69,0,0,0-3.54,30.36l40.65,85.45c-3.76-8-39.63-82.54-40.15-83s-1.68.07-3.12,1.15c-7.29,5.42-10,15.07-7.38,23.75,7.79,25.41,32.49,95.45,31.35,94.26-1.48-1.55,99,130.47,99,130.47l228.74,338.17"/><rect class="cls-10" x="1318.65" y="765.87" width="327.39" height="463.8" rx="27.28"/><rect class="cls-8" x="1345.94" y="793.15" width="272.82" height="381.95"/><rect class="cls-9" x="1427.78" y="820.43" width="163.69" height="13.64"/><rect class="cls-9" x="1427.78" y="847.72" width="163.69" height="13.64"/><rect class="cls-9" x="1373.22" y="875" width="218.26" height="13.64"/><rect class="cls-9" x="1373.22" y="902.28" width="218.26" height="13.64"/><rect class="cls-9" x="1373.22" y="929.56" width="218.26" height="13.64"/><rect class="cls-9" x="1373.22" y="956.85" width="218.26" height="13.64"/><rect class="cls-9" x="1373.22" y="984.13" width="218.26" height="13.64"/><rect class="cls-9" x="1373.22" y="1011.41" width="218.26" height="13.64"/><rect class="cls-9" x="1373.22" y="1038.69" width="218.26" height="13.64"/><rect class="cls-9" x="1373.22" y="1065.97" width="218.26" height="13.64"/><path class="cls-9" d="M1373.22,820.43h20.46a20.46,20.46,0,0,1,20.46,20.46v0a20.46,20.46,0,0,1-20.46,20.46h-20.46a0,0,0,0,1,0,0V820.43A0,0,0,0,1,1373.22,820.43Z"/><path class="cls-13" d="M178.25,909.91h6.47a0,0,0,0,1,0,0v24.27a1.62,1.62,0,0,1-1.62,1.62h-3.24a1.62,1.62,0,0,1-1.62-1.62V909.91A0,0,0,0,1,178.25,909.91Z"/><rect class="cls-13" x="155.6" y="906.67" width="6.47" height="29.12" rx="1.62"/><ellipse class="cls-13" cx="158.83" cy="885.64" rx="8.09" ry="11.33"/><line class="cls-13" x1="158.83" y1="896.97" x2="158.83" y2="906.67"/><path class="cls-13" d="M178.25,874.31h0a12.94,12.94,0,0,1,12.94,12.94v22.65a0,0,0,0,1,0,0H178.25a0,0,0,0,1,0,0v-35.6A0,0,0,0,1,178.25,874.31Z"/></g></g></g></svg>