<svg id="Layer_1" data-name="Layer 1" xmlns="http://www.w3.org/2000/svg" xmlns:xlink="http://www.w3.org/1999/xlink" viewBox="0 0 581 600"><defs><style>.cls-1,.cls-11,.cls-6,.cls-9{fill:none;}.cls-2{clip-path:url(#clip-path);}.cls-3{clip-path:url(#clip-path-2);}.cls-4{fill:#f3f6f9;}.cls-5{fill:#0abf53;}.cls-6{stroke:#fff;}.cls-10,.cls-11,.cls-12,.cls-6,.cls-7,.cls-8,.cls-9{stroke-linecap:round;stroke-linejoin:round;stroke-width:1.02px;}.cls-7{fill:#00a3ff;}.cls-10,.cls-7,.cls-8,.cls-9{stroke:#00112c;}.cls-12,.cls-8{fill:#fff;}.cls-10{fill:#00112c;}.cls-11{stroke:#f3f6f9;}.cls-12{stroke:#09152c;}</style><clipPath id="clip-path"><rect class="cls-1" width="581" height="600"/></clipPath><clipPath id="clip-path-2"><rect class="cls-1" x="-470.43" y="-341.36" width="1743.47" height="980.7"/></clipPath></defs><g class="cls-2"><g class="cls-3"><rect class="cls-4" x="-382" y="-261.36" width="1566.6" height="881.21"/><path class="cls-5" d="M292.18,171.92a63.2,63.2,0,1,0,63.2,63.2A63.2,63.2,0,0,0,292.18,171.92Zm0,120.29a57.09,57.09,0,1,1,57.08-57.09A57.09,57.09,0,0,1,292.18,292.21Z"/><circle class="cls-5" cx="292.18" cy="235.12" r="50.97"/><path class="cls-6" d="M313.64,242.93a7.81,7.81,0,1,0,7.8-7.81h-7.8V219.51h15.61"/><path class="cls-6" d="M274.62,242.93h0a7.81,7.81,0,0,1-7.81,7.8h0a7.8,7.8,0,0,1-7.8-7.8V227.32a7.81,7.81,0,0,1,7.8-7.81h0a7.81,7.81,0,0,1,7.81,7.81h0"/><line class="cls-6" x1="255.11" y1="239.03" x2="270.71" y2="239.03"/><line class="cls-6" x1="255.11" y1="231.22" x2="270.71" y2="231.22"/><polyline class="cls-6" points="290.23 219.51 298.03 219.51 298.03 250.73"/><line class="cls-6" x1="290.23" y1="250.73" x2="305.83" y2="250.73"/><path class="cls-7" d="M125.4,298.51h26.66a0,0,0,0,1,0,0V405.26a0,0,0,0,1,0,0H125.4a26.71,26.71,0,0,1-26.71-26.71V325.22A26.71,26.71,0,0,1,125.4,298.51Z"/><rect class="cls-8" x="152.06" y="285.16" width="26.69" height="133.44"/><line class="cls-9" x1="125.37" y1="271.82" x2="125.37" y2="298.51"/><path class="cls-7" d="M459,298.51h26.66a0,0,0,0,1,0,0V405.26a0,0,0,0,1,0,0H459a26.71,26.71,0,0,1-26.71-26.71V325.22A26.71,26.71,0,0,1,459,298.51Z" transform="translate(917.97 703.77) rotate(-180)"/><rect class="cls-8" x="405.6" y="285.16" width="26.69" height="133.44" transform="translate(837.9 703.77) rotate(180)"/><circle class="cls-6" cx="452.31" cy="371.9" r="6.67"/><line class="cls-9" x1="452.31" y1="338.54" x2="452.31" y2="351.88"/><line class="cls-9" x1="445.64" y1="345.21" x2="458.98" y2="345.21"/><line class="cls-6" x1="445.64" y1="391.92" x2="458.98" y2="391.92"/><line class="cls-9" x1="458.98" y1="298.51" x2="458.98" y2="271.82"/><path class="cls-10" d="M459,218.45A29.34,29.34,0,0,1,430.17,194a140.15,140.15,0,0,0-276,0,29.34,29.34,0,0,1-28.81,24.45,166.81,166.81,0,1,1,333.61,0Z"/><line class="cls-9" x1="458.98" y1="245.14" x2="458.98" y2="218.45"/><line class="cls-9" x1="125.37" y1="245.14" x2="125.37" y2="218.45"/><circle class="cls-8" cx="458.98" cy="258.47" r="13.34"/><line class="cls-9" x1="472.33" y1="258.47" x2="472.33" y2="231.78"/><circle class="cls-8" cx="125.37" cy="258.47" r="13.34"/><line class="cls-9" x1="112.03" y1="258.47" x2="112.03" y2="231.78"/><line class="cls-11" x1="112.03" y1="298.51" x2="112.03" y2="405.26"/><line class="cls-11" x1="472.33" y1="298.51" x2="472.33" y2="405.26"/><path class="cls-12" d="M474.69,895.43,244.41,585.6,224.72,468.54l.12,0-24-78.59h0A20,20,0,0,0,182,413.39l8.61,49.22h-.1l-102.69-133a11.66,11.66,0,0,0-17-2.13,8.8,8.8,0,0,0-3,12c3.41,5.62,59.87,92.87,66.21,102.9L68.29,340.86l-7.06,5.71a13.58,13.58,0,0,0-3.43,17c14.06,26.23,52.58,96.25,52.9,96.88L56.21,360.86l-3.4,4.41a28.44,28.44,0,0,0-3.38,29.06l38.93,81.82c-3.61-7.66-38-79-38.45-79.48s-1.61.07-3,1.1a20.74,20.74,0,0,0-7.07,22.75c7.46,24.32,31.12,91.39,30,90.25-1.42-1.49,94.81,124.93,94.81,124.93l219,323.82"/></g></g></svg>