<svg xmlns="http://www.w3.org/2000/svg" xmlns:xlink="http://www.w3.org/1999/xlink" viewBox="0 0 503 300"><defs><style>.cls-1,.cls-11,.cls-6,.cls-9{fill:none;}.cls-2{clip-path:url(#clip-path);}.cls-3{clip-path:url(#clip-path-2);}.cls-4{fill:#f3f6f9;}.cls-5{fill:#0abf53;}.cls-6{stroke:#fff;}.cls-10,.cls-11,.cls-12,.cls-6,.cls-7,.cls-8,.cls-9{stroke-linecap:round;stroke-linejoin:round;stroke-width:0.51px;}.cls-7{fill:#00a3ff;}.cls-10,.cls-7,.cls-8,.cls-9{stroke:#00112c;}.cls-12,.cls-8{fill:#fff;}.cls-10{fill:#00112c;}.cls-11{stroke:#f3f6f9;}.cls-12{stroke:#09152c;}</style><clipPath id="clip-path"><rect class="cls-1" width="503" height="300"/></clipPath><clipPath id="clip-path-2"><rect class="cls-1" x="-132" y="-159.77" width="871.73" height="490.35"/></clipPath></defs><g id="Layer_1" data-name="Layer 1"><g class="cls-2"><g class="cls-3"><rect class="cls-4" x="-87.79" y="-129.77" width="783.3" height="440.61"/><path class="cls-5" d="M249.3,96.88a31.6,31.6,0,1,0,31.6,31.6A31.6,31.6,0,0,0,249.3,96.88Zm0,60.14a28.55,28.55,0,1,1,28.54-28.54A28.54,28.54,0,0,1,249.3,157Z"/><circle class="cls-5" cx="249.3" cy="128.48" r="25.48"/><path class="cls-6" d="M260,132.38a3.91,3.91,0,1,0,3.91-3.9H260v-7.81h7.81"/><path class="cls-6" d="M240.52,132.38h0a3.9,3.9,0,0,1-3.9,3.9h0a3.91,3.91,0,0,1-3.9-3.9v-7.81a3.91,3.91,0,0,1,3.9-3.9h0a3.9,3.9,0,0,1,3.9,3.9h0"/><line class="cls-6" x1="230.77" y1="130.43" x2="238.57" y2="130.43"/><line class="cls-6" x1="230.77" y1="126.53" x2="238.57" y2="126.53"/><polyline class="cls-6" points="248.33 120.67 252.23 120.67 252.23 136.28"/><line class="cls-6" x1="248.33" y1="136.28" x2="256.13" y2="136.28"/><path class="cls-7" d="M165.91,160.17h13.33a0,0,0,0,1,0,0v53.38a0,0,0,0,1,0,0H165.91a13.36,13.36,0,0,1-13.36-13.36V173.53A13.36,13.36,0,0,1,165.91,160.17Z"/><rect class="cls-8" x="179.24" y="153.5" width="13.34" height="66.72"/><line class="cls-9" x1="165.9" y1="146.82" x2="165.9" y2="160.17"/><path class="cls-7" d="M332.72,160.17H346a0,0,0,0,1,0,0v53.38a0,0,0,0,1,0,0H332.72a13.36,13.36,0,0,1-13.36-13.36V173.53A13.36,13.36,0,0,1,332.72,160.17Z" transform="translate(665.41 373.71) rotate(-180)"/><rect class="cls-8" x="306.02" y="153.5" width="13.34" height="66.72" transform="translate(625.38 373.71) rotate(180)"/><circle class="cls-6" cx="329.37" cy="196.87" r="3.34"/><line class="cls-9" x1="329.37" y1="180.19" x2="329.37" y2="186.86"/><line class="cls-9" x1="326.03" y1="183.52" x2="332.71" y2="183.52"/><line class="cls-6" x1="326.03" y1="206.87" x2="332.71" y2="206.87"/><line class="cls-9" x1="332.71" y1="160.17" x2="332.71" y2="146.82"/><path class="cls-10" d="M332.7,120.14a14.67,14.67,0,0,1-14.4-12.23,70.08,70.08,0,0,0-138,0,14.67,14.67,0,0,1-14.4,12.23,83.4,83.4,0,1,1,166.8,0Z"/><line class="cls-9" x1="332.7" y1="133.48" x2="332.7" y2="120.14"/><line class="cls-9" x1="165.9" y1="133.48" x2="165.9" y2="120.14"/><circle class="cls-8" cx="332.71" cy="140.15" r="6.67"/><line class="cls-9" x1="339.38" y1="140.15" x2="339.38" y2="126.81"/><circle class="cls-8" cx="165.9" cy="140.15" r="6.67"/><line class="cls-9" x1="159.23" y1="140.15" x2="159.23" y2="126.81"/><line class="cls-11" x1="159.23" y1="160.17" x2="159.23" y2="213.55"/><line class="cls-11" x1="339.38" y1="160.17" x2="339.38" y2="213.55"/><path class="cls-12" d="M340.56,458.63,225.42,303.72l-9.85-58.54h.06l-12-39.29h0a10,10,0,0,0-9.45,11.71l4.31,24.61h-.05L147.1,175.69a5.84,5.84,0,0,0-8.49-1.06,4.4,4.4,0,0,0-1.52,6c1.71,2.81,29.93,46.43,33.11,51.45l-32.84-50.74-3.53,2.85a6.79,6.79,0,0,0-1.72,8.49c7,13.12,26.29,48.13,26.46,48.44l-27.25-49.79-1.7,2.21a14.23,14.23,0,0,0-1.69,14.53L147.39,249c-1.8-3.83-19-39.52-19.22-39.74s-.81,0-1.5.55a10.36,10.36,0,0,0-3.53,11.37c3.73,12.17,15.56,45.7,15,45.13-.71-.74,47.41,62.47,47.41,62.47l109.51,161.9"/></g></g></g></svg>