<svg xmlns="http://www.w3.org/2000/svg" xmlns:xlink="http://www.w3.org/1999/xlink" viewBox="0 0 743 300"><defs><style>.cls-1,.cls-11,.cls-13,.cls-6,.cls-9{fill:none;}.cls-2{clip-path:url(#clip-path);}.cls-3{clip-path:url(#clip-path-2);}.cls-4{fill:#f3f6f9;}.cls-5{fill:#0abf53;}.cls-13,.cls-6{stroke:#fff;}.cls-10,.cls-11,.cls-12,.cls-6,.cls-7,.cls-8,.cls-9{stroke-linecap:round;stroke-linejoin:round;}.cls-10,.cls-11,.cls-12,.cls-13,.cls-6,.cls-7,.cls-8,.cls-9{stroke-width:0.39px;}.cls-7{fill:#00a3ff;}.cls-10,.cls-7,.cls-8,.cls-9{stroke:#00112c;}.cls-12,.cls-8{fill:#fff;}.cls-10{fill:#00112c;}.cls-11{stroke:#f3f6f9;}.cls-12{stroke:#09152c;}.cls-13{stroke-miterlimit:10;}</style><clipPath id="clip-path"><rect class="cls-1" width="743" height="300"/></clipPath><clipPath id="clip-path-2"><rect class="cls-1" y="-84.59" width="755.5" height="424.97"/></clipPath></defs><g id="Layer_1" data-name="Layer 1"><g class="cls-2"><g class="cls-3"><rect class="cls-4" x="-2" y="-84.59" width="755.5" height="424.97"/><path class="cls-5" d="M614-.63a24.4,24.4,0,1,0,24.39,24.39A24.39,24.39,0,0,0,614-.63Zm0,46.43a22,22,0,1,1,22-22A22,22,0,0,1,614,45.8Z"/><circle class="cls-5" cx="614" cy="23.76" r="19.67"/><path class="cls-6" d="M613.24,20.75a3,3,0,0,1,3-3h.24a2.72,2.72,0,0,1,2,4.23l-5.21,7.81h6"/><path class="cls-6" d="M622.28,26.77a3,3,0,1,0,3-3h-3v-6h6"/><path class="cls-6" d="M607.22,26.77h0a3,3,0,0,1-3,3h0a3,3,0,0,1-3-3v-6a3,3,0,0,1,3-3h0a3,3,0,0,1,3,3h0"/><line class="cls-6" x1="599.69" y1="25.27" x2="605.71" y2="25.27"/><line class="cls-6" x1="599.69" y1="22.26" x2="605.71" y2="22.26"/><path class="cls-5" d="M393.1,142.85a24.4,24.4,0,1,0,24.4,24.4A24.39,24.39,0,0,0,393.1,142.85Zm0,46.43a22,22,0,1,1,22-22A22,22,0,0,1,393.1,189.28Z"/><circle class="cls-5" cx="393.1" cy="167.25" r="19.67"/><path class="cls-6" d="M401.39,170.26a3,3,0,1,0,3-3h-3v-6h6"/><path class="cls-6" d="M386.32,170.26h0a3,3,0,0,1-3,3h0a3,3,0,0,1-3-3v-6a3,3,0,0,1,3-3h0a3,3,0,0,1,3,3h0"/><line class="cls-6" x1="378.79" y1="168.75" x2="384.82" y2="168.75"/><line class="cls-6" x1="378.79" y1="165.74" x2="384.82" y2="165.74"/><polyline class="cls-6" points="392.35 161.22 395.36 161.22 395.36 173.27"/><line class="cls-6" x1="392.35" y1="173.27" x2="398.38" y2="173.27"/><path class="cls-5" d="M593.73,143.4a24.4,24.4,0,1,0,24.4,24.4A24.4,24.4,0,0,0,593.73,143.4Zm0,46.43a22,22,0,1,1,22-22A22,22,0,0,1,593.73,189.83Z"/><circle class="cls-5" cx="593.73" cy="167.8" r="19.67"/><path class="cls-6" d="M597.5,170.81a3,3,0,1,0,3-3h-3v-6h6"/><path class="cls-6" d="M591.47,170.81h0a3,3,0,0,1-3,3h0a3,3,0,0,1-3-3v-6a3,3,0,0,1,3-3h0a3,3,0,0,1,3,3h0"/><line class="cls-6" x1="583.94" y1="169.3" x2="589.96" y2="169.3"/><line class="cls-6" x1="583.94" y1="166.29" x2="589.96" y2="166.29"/><path class="cls-5" d="M304.3,33.93a24.4,24.4,0,1,0,24.4,24.4A24.39,24.39,0,0,0,304.3,33.93Zm0,46.43a22,22,0,1,1,22-22A22,22,0,0,1,304.3,80.36Z"/><circle class="cls-5" cx="304.3" cy="58.33" r="19.67"/><path class="cls-6" d="M297.52,61.34h0a3,3,0,0,1-3,3h0a3,3,0,0,1-3-3v-6a3,3,0,0,1,3-3h0a3,3,0,0,1,3,3h0"/><line class="cls-6" x1="289.99" y1="59.83" x2="296.02" y2="59.83"/><line class="cls-6" x1="289.99" y1="56.82" x2="296.02" y2="56.82"/><polyline class="cls-6" points="303.55 52.3 306.56 52.3 306.56 64.35"/><line class="cls-6" x1="303.55" y1="64.35" x2="309.57" y2="64.35"/><path class="cls-6" d="M312.59,55.31a3,3,0,0,1,3-3h.25a2.72,2.72,0,0,1,1.94,4.23l-5.2,7.81h6"/><path class="cls-7" d="M328.72,191.71H339a0,0,0,0,1,0,0v41.21a0,0,0,0,1,0,0H328.72a10.31,10.31,0,0,1-10.31-10.31V202A10.31,10.31,0,0,1,328.72,191.71Z"/><rect class="cls-8" x="339.02" y="186.56" width="10.3" height="51.51"/><line class="cls-9" x1="328.71" y1="181.41" x2="328.71" y2="191.71"/><path class="cls-7" d="M457.5,191.71H467.8a0,0,0,0,1,0,0v41.21a0,0,0,0,1,0,0H457.5a10.31,10.31,0,0,1-10.31-10.31V202A10.31,10.31,0,0,1,457.5,191.71Z" transform="translate(914.99 424.64) rotate(-180)"/><rect class="cls-8" x="436.89" y="186.56" width="10.3" height="51.51" transform="translate(884.08 424.64) rotate(180)"/><circle class="cls-6" cx="454.92" cy="220.05" r="2.58"/><line class="cls-9" x1="454.92" y1="207.17" x2="454.92" y2="212.32"/><line class="cls-9" x1="452.34" y1="209.74" x2="457.49" y2="209.74"/><line class="cls-6" x1="452.34" y1="227.77" x2="457.49" y2="227.77"/><line class="cls-9" x1="457.49" y1="191.71" x2="457.49" y2="181.41"/><path class="cls-10" d="M457.49,160.81a11.32,11.32,0,0,1-11.12-9.44,54.1,54.1,0,0,0-106.54,0,11.31,11.31,0,0,1-11.12,9.44,64.39,64.39,0,0,1,128.78,0Z"/><line class="cls-9" x1="457.49" y1="171.11" x2="457.49" y2="160.81"/><line class="cls-9" x1="328.71" y1="171.11" x2="328.71" y2="160.81"/><circle class="cls-8" cx="457.49" cy="176.26" r="5.15"/><line class="cls-9" x1="462.64" y1="176.26" x2="462.64" y2="165.96"/><circle class="cls-8" cx="328.71" cy="176.26" r="5.15"/><line class="cls-9" x1="323.56" y1="176.26" x2="323.56" y2="165.96"/><line class="cls-11" x1="323.56" y1="191.71" x2="323.56" y2="232.92"/><line class="cls-11" x1="462.64" y1="191.71" x2="462.64" y2="232.92"/><polyline class="cls-8" points="-1.17 127.9 250.66 127.9 250.66 474.17 -1.17 474.17"/><line class="cls-9" x1="109" y1="127.9" x2="109" y2="474.17"/><rect class="cls-10" x="644.65" y="-46.87" width="66.31" height="141.66"/><rect class="cls-8" x="644.65" y="-39" width="66.31" height="125.92"/><rect class="cls-8" x="164.57" y="-148.68" width="283.31" height="176.24" rx="15.74"/><path class="cls-9" d="M284.58,24h43.29a3.56,3.56,0,0,1,3.56,3.56v0a0,0,0,0,1,0,0H281a0,0,0,0,1,0,0v0A3.56,3.56,0,0,1,284.58,24Z"/><path class="cls-9" d="M342.23-32.65h-83a3.42,3.42,0,0,0-3.42,3.42v39a3.42,3.42,0,0,0,3.42,3.42h94a3.42,3.42,0,0,0,3.42-3.42v-39a3.42,3.42,0,0,0-3.42-3.42Z"/><path class="cls-5" d="M109,72a24.4,24.4,0,1,0,24.4,24.4A24.4,24.4,0,0,0,109,72Zm0,46.43a22,22,0,1,1,22-22A22,22,0,0,1,109,118.45Z"/><circle class="cls-5" cx="109" cy="96.42" r="19.67"/><path class="cls-6" d="M102.23,99.43h0a3,3,0,0,1-3,3h0a3,3,0,0,1-3-3v-6a3,3,0,0,1,3-3h0a3,3,0,0,1,3,3h0"/><line class="cls-6" x1="94.69" y1="97.93" x2="100.72" y2="97.93"/><line class="cls-6" x1="94.69" y1="94.91" x2="100.72" y2="94.91"/><polyline class="cls-6" points="108.25 90.39 111.26 90.39 111.26 102.44"/><line class="cls-6" x1="108.25" y1="102.44" x2="114.28" y2="102.44"/><rect class="cls-6" x="117.29" y="90.39" width="6.03" height="12.05" rx="3.01"/><line class="cls-6" x1="117.89" y1="101.24" x2="122.71" y2="91.6"/><rect class="cls-10" x="86.91" y="229.85" width="44.19" height="44.19"/><path class="cls-12" d="M463.56,422.14l-88.9-119.6-7.6-45.19h.05L357.85,227h0a7.72,7.72,0,0,0-7.29,9l3.32,19h0L314.2,203.7a4.5,4.5,0,0,0-6.55-.82,3.4,3.4,0,0,0-1.18,4.64c1.32,2.17,23.11,35.85,25.56,39.72l-25.35-39.18L304,210.27a5.24,5.24,0,0,0-1.33,6.55c5.43,10.13,20.29,37.16,20.42,37.4l-21-38.44-1.32,1.7a11,11,0,0,0-1.3,11.22l15,31.59c-1.39-3-14.65-30.51-14.84-30.68s-.62,0-1.15.42a8,8,0,0,0-2.73,8.78c2.88,9.39,12,35.28,11.59,34.84s36.6,48.23,36.6,48.23l84.55,125"/><rect class="cls-10" x="533.22" y="200.5" width="121.01" height="171.43" rx="10.08"/><rect class="cls-8" x="543.31" y="210.58" width="100.84" height="141.18"/><rect class="cls-9" x="573.56" y="220.67" width="60.51" height="5.04"/><rect class="cls-9" x="573.56" y="230.75" width="60.51" height="5.04"/><rect class="cls-9" x="553.39" y="240.84" width="80.67" height="5.04"/><rect class="cls-9" x="553.39" y="250.92" width="80.67" height="5.04"/><rect class="cls-9" x="553.39" y="261.01" width="80.67" height="5.04"/><rect class="cls-9" x="553.39" y="271.09" width="80.67" height="5.04"/><rect class="cls-9" x="553.39" y="281.17" width="80.67" height="5.04"/><rect class="cls-9" x="553.39" y="291.26" width="80.67" height="5.04"/><path class="cls-9" d="M553.39,220.67H561a7.56,7.56,0,0,1,7.56,7.56v0a7.56,7.56,0,0,1-7.56,7.56h-7.56a0,0,0,0,1,0,0V220.67A0,0,0,0,1,553.39,220.67Z"/><path class="cls-13" d="M111.7,253.74h2.39a0,0,0,0,1,0,0v9a.6.6,0,0,1-.6.6h-1.2a.6.6,0,0,1-.6-.6v-9A0,0,0,0,1,111.7,253.74Z"/><rect class="cls-13" x="103.32" y="252.54" width="2.39" height="10.77" rx="0.6"/><ellipse class="cls-13" cx="104.52" cy="244.77" rx="2.99" ry="4.19"/><line class="cls-13" x1="104.52" y1="248.96" x2="104.52" y2="252.54"/><path class="cls-13" d="M111.7,240.58h0a4.78,4.78,0,0,1,4.78,4.78v8.37a0,0,0,0,1,0,0H111.7a0,0,0,0,1,0,0V240.58A0,0,0,0,1,111.7,240.58Z"/></g></g></g></svg>