<svg xmlns="http://www.w3.org/2000/svg" xmlns:xlink="http://www.w3.org/1999/xlink" viewBox="0 0 983 300"><defs><style>.cls-1,.cls-11,.cls-13,.cls-8{fill:none;}.cls-2{clip-path:url(#clip-path);}.cls-3{clip-path:url(#clip-path-2);}.cls-4{clip-path:url(#clip-path-3);}.cls-5{clip-path:url(#clip-path-4);}.cls-6{fill:#f3f6f9;}.cls-7{fill:#0abf53;}.cls-8{stroke:#fff;}.cls-10,.cls-11,.cls-12,.cls-13,.cls-14,.cls-8,.cls-9{stroke-linecap:round;stroke-linejoin:round;stroke-width:0.52px;}.cls-9{fill:#00a3ff;}.cls-10,.cls-11,.cls-12,.cls-9{stroke:#00112c;}.cls-10,.cls-14{fill:#fff;}.cls-12{fill:#00112c;}.cls-13{stroke:#f3f6f9;}.cls-14{stroke:#09152c;}</style><clipPath id="clip-path"><rect class="cls-1" x="-1237.52" y="-1427.53" width="1920" height="1080"/></clipPath><clipPath id="clip-path-2"><rect class="cls-1" x="-1361.46" y="-1432.93" width="2043.93" height="1149.71"/></clipPath><clipPath id="clip-path-3"><rect class="cls-1" width="983" height="300"/></clipPath><clipPath id="clip-path-4"><rect class="cls-1" x="-7.28" y="-219.99" width="996.22" height="560.37"/></clipPath></defs><g id="Layer_1" data-name="Layer 1"><g class="cls-4"><g class="cls-5"><rect class="cls-6" x="-7.28" y="-219.99" width="996.22" height="560.37"/><path class="cls-7" d="M805.33,136a32.17,32.17,0,1,0,32.17,32.17A32.17,32.17,0,0,0,805.33,136Zm0,61.23a29.06,29.06,0,1,1,29.06-29.06A29.06,29.06,0,0,1,805.33,197.18Z"/><circle class="cls-7" cx="805.33" cy="168.12" r="25.94"/><path class="cls-8" d="M804.34,164.15a4,4,0,0,1,4-4l.33,0a3.58,3.58,0,0,1,2.56,5.58l-6.86,10.29h7.95"/><path class="cls-8" d="M816.26,172.09a4,4,0,1,0,4-4h-4v-8h7.94"/><path class="cls-8" d="M796.4,172.09h0a4,4,0,0,1-4,4h0a4,4,0,0,1-4-4v-7.94a4,4,0,0,1,4-4h0a4,4,0,0,1,4,4h0"/><line class="cls-8" x1="786.46" y1="170.11" x2="794.41" y2="170.11"/><line class="cls-8" x1="786.46" y1="166.13" x2="794.41" y2="166.13"/><path class="cls-7" d="M434.6,79.91a32.17,32.17,0,1,0,32.17,32.17A32.17,32.17,0,0,0,434.6,79.91Zm0,61.23a29.06,29.06,0,1,1,29-29.06A29.06,29.06,0,0,1,434.6,141.14Z"/><circle class="cls-7" cx="434.6" cy="112.08" r="25.94"/><path class="cls-8" d="M445.52,116.05a4,4,0,1,0,4-4h-4v-7.94h8"/><path class="cls-8" d="M425.66,116.05h0a4,4,0,0,1-4,4h0a4,4,0,0,1-4-4v-7.94a4,4,0,0,1,4-4h0a4,4,0,0,1,4,4h0"/><line class="cls-8" x1="415.73" y1="114.07" x2="423.67" y2="114.07"/><line class="cls-8" x1="415.73" y1="110.1" x2="423.67" y2="110.1"/><polyline class="cls-8" points="433.6 104.14 437.57 104.14 437.57 120.03"/><line class="cls-8" x1="433.6" y1="120.03" x2="441.55" y2="120.03"/><path class="cls-7" d="M642.66,80.64a32.17,32.17,0,1,0,32.17,32.17A32.17,32.17,0,0,0,642.66,80.64Zm0,61.23a29.06,29.06,0,1,1,29.05-29.06A29.06,29.06,0,0,1,642.66,141.87Z"/><circle class="cls-7" cx="642.66" cy="112.81" r="25.94"/><path class="cls-8" d="M647.62,116.78a4,4,0,1,0,4-4h-4v-8h8"/><path class="cls-8" d="M639.68,116.78h0a4,4,0,0,1-4,4h0a4,4,0,0,1-4-4v-7.94a4,4,0,0,1,4-4h0a4,4,0,0,1,4,4h0"/><line class="cls-8" x1="629.75" y1="114.8" x2="637.69" y2="114.8"/><line class="cls-8" x1="629.75" y1="110.82" x2="637.69" y2="110.82"/><path class="cls-7" d="M83.75,210.19a32.17,32.17,0,1,0,32.17,32.17A32.17,32.17,0,0,0,83.75,210.19Zm0,61.23a29.06,29.06,0,1,1,29.06-29.06A29.06,29.06,0,0,1,83.75,271.42Z"/><circle class="cls-7" cx="83.75" cy="242.36" r="25.94"/><path class="cls-8" d="M74.81,246.33h0a4,4,0,0,1-4,4h0a4,4,0,0,1-4-4v-7.94a4,4,0,0,1,4-4h0a4,4,0,0,1,4,4h0"/><line class="cls-8" x1="64.88" y1="244.35" x2="72.83" y2="244.35"/><line class="cls-8" x1="64.88" y1="240.38" x2="72.83" y2="240.38"/><polyline class="cls-8" points="82.76 234.42 86.73 234.42 86.73 250.31"/><line class="cls-8" x1="82.76" y1="250.31" x2="90.7" y2="250.31"/><path class="cls-8" d="M94.67,238.39a4,4,0,0,1,4-4H99a3.59,3.59,0,0,1,2.57,5.58l-6.87,10.3h8"/><path class="cls-9" d="M349.7,144.35h13.57a0,0,0,0,1,0,0v54.34a0,0,0,0,1,0,0H349.7a13.6,13.6,0,0,1-13.6-13.6V157.94A13.6,13.6,0,0,1,349.7,144.35Z"/><rect class="cls-10" x="363.27" y="137.55" width="13.59" height="67.93"/><line class="cls-11" x1="349.69" y1="130.76" x2="349.69" y2="144.35"/><path class="cls-9" d="M519.52,144.35h13.57a0,0,0,0,1,0,0v54.34a0,0,0,0,1,0,0H519.52a13.6,13.6,0,0,1-13.6-13.6V157.94a13.6,13.6,0,0,1,13.6-13.6Z" transform="translate(1039 343.03) rotate(-180)"/><rect class="cls-10" x="492.33" y="137.55" width="13.59" height="67.93" transform="translate(998.25 343.03) rotate(180)"/><circle class="cls-8" cx="516.11" cy="181.7" r="3.4"/><line class="cls-11" x1="516.11" y1="164.72" x2="516.11" y2="171.52"/><line class="cls-11" x1="512.71" y1="168.12" x2="519.5" y2="168.12"/><line class="cls-8" x1="512.71" y1="191.89" x2="519.5" y2="191.89"/><line class="cls-11" x1="519.5" y1="144.35" x2="519.5" y2="130.76"/><path class="cls-12" d="M519.5,103.59a14.92,14.92,0,0,1-14.66-12.44,71.34,71.34,0,0,0-140.49,0,14.92,14.92,0,0,1-14.66,12.44,84.91,84.91,0,1,1,169.81,0Z"/><line class="cls-11" x1="519.5" y1="117.18" x2="519.5" y2="103.59"/><line class="cls-11" x1="349.69" y1="117.18" x2="349.69" y2="103.59"/><circle class="cls-10" cx="519.5" cy="123.97" r="6.79"/><line class="cls-11" x1="526.29" y1="123.97" x2="526.29" y2="110.38"/><circle class="cls-10" cx="349.69" cy="123.97" r="6.79"/><line class="cls-11" x1="342.9" y1="123.97" x2="342.9" y2="110.38"/><line class="cls-13" x1="342.9" y1="144.35" x2="342.9" y2="198.69"/><line class="cls-13" x1="526.29" y1="144.35" x2="526.29" y2="198.69"/><rect class="cls-12" x="855.84" y="37.36" width="87.44" height="186.79"/><rect class="cls-10" x="855.84" y="47.74" width="87.44" height="166.04"/><rect class="cls-10" x="-102.51" y="-40.67" width="373.58" height="232.4" rx="20.75"/><rect class="cls-12" x="235.33" y="-10.52" width="27.13" height="104.33"/><line class="cls-11" x1="-58.15" y1="17.85" x2="226.71" y2="17.85"/><rect class="cls-11" x="-1.18" y="-1.14" width="18.99" height="18.99"/><rect class="cls-11" x="17.81" y="-1.14" width="18.99" height="18.99"/><rect class="cls-11" x="36.8" y="-1.14" width="18.99" height="18.99"/><rect class="cls-11" x="55.79" y="-1.14" width="18.99" height="18.99"/><rect class="cls-11" x="74.79" y="-1.14" width="18.99" height="18.99"/><rect class="cls-11" x="93.78" y="-1.14" width="18.99" height="18.99"/><rect class="cls-11" x="112.77" y="-1.14" width="18.99" height="18.99"/><rect class="cls-11" x="131.76" y="-1.14" width="18.99" height="18.99"/><rect class="cls-11" x="150.75" y="-1.14" width="18.99" height="18.99"/><rect class="cls-11" x="169.74" y="-1.14" width="18.99" height="18.99"/><polygon class="cls-11" points="207.72 -1.14 188.73 -1.14 188.73 17.85 207.72 17.85 226.72 17.85 226.72 -1.14 207.72 -1.14"/><path class="cls-11" d="M55.74,187h57.09a4.69,4.69,0,0,1,4.69,4.69v.06a0,0,0,0,1,0,0H51a0,0,0,0,1,0,0v-.06A4.69,4.69,0,0,1,55.74,187Z"/><line class="cls-11" x1="-58.15" y1="17.73" x2="226.71" y2="17.73"/><rect class="cls-11" x="-1.18" y="17.73" width="18.99" height="18.99"/><rect class="cls-11" x="17.81" y="17.73" width="18.99" height="18.99"/><rect class="cls-11" x="36.8" y="17.73" width="18.99" height="18.99"/><rect class="cls-11" x="55.79" y="17.73" width="18.99" height="18.99"/><rect class="cls-11" x="74.79" y="17.73" width="18.99" height="18.99"/><rect class="cls-11" x="93.78" y="17.73" width="18.99" height="18.99"/><rect class="cls-11" x="112.77" y="17.73" width="18.99" height="18.99"/><rect class="cls-11" x="131.76" y="17.73" width="18.99" height="18.99"/><rect class="cls-11" x="150.75" y="17.73" width="18.99" height="18.99"/><rect class="cls-11" x="169.74" y="17.73" width="18.99" height="18.99"/><rect class="cls-11" x="-1.18" y="36.61" width="18.99" height="18.99"/><rect class="cls-11" x="17.81" y="36.61" width="18.99" height="18.99"/><rect class="cls-11" x="36.8" y="36.61" width="18.99" height="18.99"/><rect class="cls-11" x="55.79" y="36.61" width="18.99" height="18.99"/><rect class="cls-11" x="74.79" y="36.61" width="18.99" height="18.99"/><rect class="cls-11" x="93.78" y="36.61" width="18.99" height="18.99"/><rect class="cls-11" x="112.77" y="36.61" width="18.99" height="18.99"/><rect class="cls-11" x="131.76" y="36.61" width="18.99" height="18.99"/><rect class="cls-11" x="150.75" y="36.61" width="18.99" height="18.99"/><rect class="cls-11" x="169.74" y="36.61" width="18.99" height="18.99"/><rect class="cls-11" x="188.73" y="36.61" width="18.99" height="18.99"/><polygon class="cls-11" points="207.72 17.73 188.73 17.73 188.73 36.72 207.72 36.72 207.72 55.6 226.72 55.6 226.72 36.72 226.72 36.6 226.72 17.73 207.72 17.73"/><line class="cls-11" x1="-58.15" y1="55.48" x2="226.71" y2="55.48"/><rect class="cls-11" x="-1.18" y="55.48" width="18.99" height="18.99"/><rect class="cls-11" x="17.81" y="55.48" width="18.99" height="18.99"/><rect class="cls-11" x="36.8" y="55.48" width="18.99" height="18.99"/><rect class="cls-11" x="55.79" y="55.48" width="18.99" height="18.99"/><rect class="cls-11" x="74.79" y="55.48" width="18.99" height="18.99"/><rect class="cls-11" x="93.78" y="55.48" width="18.99" height="18.99"/><rect class="cls-11" x="112.77" y="55.48" width="18.99" height="18.99"/><rect class="cls-11" x="131.76" y="55.48" width="18.99" height="18.99"/><rect class="cls-11" x="150.75" y="55.48" width="18.99" height="18.99"/><polygon class="cls-11" points="207.72 55.48 188.73 55.48 169.74 55.48 169.74 74.47 188.73 74.47 188.73 74.47 207.72 74.47 226.72 74.47 226.72 55.48 207.72 55.48"/><line class="cls-11" x1="-58.15" y1="74.35" x2="226.71" y2="74.35"/><rect class="cls-11" x="-1.18" y="74.35" width="18.99" height="18.99"/><polygon class="cls-11" points="131.76 74.35 112.77 74.35 93.78 74.35 74.78 74.35 55.79 74.35 36.8 74.35 17.81 74.35 17.81 93.34 36.8 93.34 55.79 93.34 74.78 93.34 93.78 93.34 112.77 93.34 131.76 93.34 150.75 93.34 150.75 74.35 131.76 74.35"/><path class="cls-11" d="M131.76,112.34H22.31a4.5,4.5,0,0,0-4.5,4.5v51.39a4.51,4.51,0,0,0,4.5,4.51H146.25a4.51,4.51,0,0,0,4.5-4.51V116.84a4.5,4.5,0,0,0-4.5-4.5Z"/><rect class="cls-11" x="150.75" y="74.35" width="18.99" height="18.99"/><rect class="cls-11" x="169.74" y="74.35" width="18.99" height="18.99"/><rect class="cls-11" x="188.73" y="74.35" width="18.99" height="18.99"/><rect class="cls-11" x="207.72" y="74.35" width="18.99" height="18.99"/><path class="cls-14" d="M527.5,448.19,410.28,290.48l-10-59.59h.06l-12.21-40h0a10.18,10.18,0,0,0-9.62,11.92l4.38,25.06h0l-52.27-67.72a6,6,0,0,0-8.65-1.08,4.48,4.48,0,0,0-1.55,6.12c1.74,2.86,30.47,47.27,33.7,52.37l-33.43-51.65-3.59,2.9a6.91,6.91,0,0,0-1.75,8.64c7.16,13.35,26.77,49,26.93,49.32l-27.73-50.69-1.73,2.25A14.45,14.45,0,0,0,311,193.12l19.82,41.65c-1.84-3.9-19.32-40.23-19.57-40.46s-.82,0-1.53.56a10.56,10.56,0,0,0-3.59,11.58C310,218.83,322,253,321.44,252.39c-.72-.76,48.26,63.59,48.26,63.59L481.19,480.81"/><rect class="cls-12" x="562.87" y="155.93" width="159.57" height="226.06" rx="13.3"/><rect class="cls-10" x="576.17" y="169.23" width="132.97" height="186.16"/><rect class="cls-11" x="616.06" y="182.52" width="79.78" height="6.65"/><rect class="cls-11" x="616.06" y="195.82" width="79.78" height="6.65"/><rect class="cls-11" x="589.47" y="209.12" width="106.38" height="6.65"/><rect class="cls-11" x="589.47" y="222.42" width="106.38" height="6.65"/><rect class="cls-11" x="589.47" y="235.71" width="106.38" height="6.65"/><rect class="cls-11" x="589.47" y="249.01" width="106.38" height="6.65"/><rect class="cls-11" x="589.47" y="262.31" width="106.38" height="6.65"/><rect class="cls-11" x="589.47" y="275.61" width="106.38" height="6.65"/><rect class="cls-11" x="589.47" y="288.9" width="106.38" height="6.65"/><path class="cls-11" d="M589.47,182.52h10a10,10,0,0,1,10,10v0a10,10,0,0,1-10,10h-10a0,0,0,0,1,0,0V182.52A0,0,0,0,1,589.47,182.52Z"/></g></g></g></svg>