<svg xmlns="http://www.w3.org/2000/svg" xmlns:xlink="http://www.w3.org/1999/xlink" viewBox="0 0 1188 300"><defs><style>.cls-1,.cls-13,.cls-18,.cls-24,.cls-30{fill:none;}.cls-2{clip-path:url(#clip-path);}.cls-26,.cls-27,.cls-3{fill:#ffc52f;}.cls-4{fill:url(#linear-gradient);}.cls-5{fill:url(#linear-gradient-2);}.cls-14,.cls-17,.cls-6{fill:#fff;}.cls-20,.cls-22,.cls-25,.cls-29,.cls-7{fill:#fbc877;}.cls-12,.cls-13,.cls-14,.cls-17,.cls-18,.cls-19,.cls-20,.cls-21,.cls-22,.cls-23,.cls-24,.cls-26,.cls-27,.cls-28,.cls-29,.cls-30,.cls-7,.cls-9{stroke:#001c59;stroke-linecap:round;stroke-linejoin:round;}.cls-12,.cls-13,.cls-14,.cls-7,.cls-9{stroke-width:0.79px;}.cls-19,.cls-23,.cls-28,.cls-8,.cls-9{fill:#001c59;}.cls-10{fill:#d84876;}.cls-11,.cls-12,.cls-21{fill:#f25a84;}.cls-15{fill:#fbafd2;}.cls-16{fill:#f1b86a;}.cls-17,.cls-18,.cls-19,.cls-20,.cls-21,.cls-26{stroke-width:1px;}.cls-22,.cls-23,.cls-24{stroke-width:0.73px;}.cls-27,.cls-28,.cls-29,.cls-30{stroke-width:0.68px;}.cls-31{clip-path:url(#clip-path-2);}.cls-32{fill:url(#linear-gradient-3);}</style><clipPath id="clip-path"><rect class="cls-1" width="1188" height="300"/></clipPath><linearGradient id="linear-gradient" x1="1008.28" y1="280.66" x2="1008.28" y2="40.53" gradientUnits="userSpaceOnUse"><stop offset="0" stop-color="#ffc52f"/><stop offset="1" stop-color="#d69a1a"/></linearGradient><linearGradient id="linear-gradient-2" x1="194.17" y1="280.66" x2="194.17" y2="40.53" xlink:href="#linear-gradient"/><clipPath id="clip-path-2"><rect class="cls-1" x="1351.5" width="983.02" height="300"/></clipPath><linearGradient id="linear-gradient-3" x1="1431.11" y1="280.66" x2="1431.11" y2="40.53" xlink:href="#linear-gradient"/></defs><g id="Layer_1" data-name="Layer 1"><g class="cls-2"><rect class="cls-3" x="-176.63" y="-98.13" width="1529.83" height="542"/><path class="cls-4" d="M574.75,342.35V172.19h16.53v-6.8l4.18-.67v-15l3.14-5.35c.49.18,1,.2,1.1.42.79,1.76,1.5,3.55,2.45,5.83l-1.21,1.8,1.93,2.65h8c-.57-4.38,1.31-8.29,3.53-12.32l1.39,2.82c8.2-7.18,16.37-14.31,24.42-21.35-.38-7,1.55-13.2,5.19-19.51.79,3.85,1.48,7.28,2.28,11.22l2,.67v7.68q6.48,5.49,13,11c4.14,3.53,7.07,8.42,12.46,11v10.23h17.36c1.37,1.45,2.83,3.23,4.54,4.72s2.49,4,5.82,3.76V122.62c0-4.18-.22-8.37.06-12.53.26-3.75,1.06-7.46,1.67-11.55h9.37c5-3.08,2-6.56,1.21-9.86,1.13-1.65,2.23-3.24,4-5.76,3.92-2.85,9.55-.85,15-1.49l5.06,5.6V98.18h10.73v6.39l2.87,1v24.68c7.34,0,14.46.25,21.56-.07,6.72-.31,13.66,1.52,20.36-1.26V118l2.55-.53c.12-1.54.26-3.27.41-5.24h7.63c.37-1,.67-1.81,1.21-3.3.43,1.15.67,1.79,1.13,3h7.78c.1,2,.18,3.6.27,5.44l4,.63v12.21H844a3.18,3.18,0,0,1,.49.48,1.11,1.11,0,0,1,.23.59c0,7.85,0,15.7,0,24.06L850,157.2V133.09l-4.22-8.66,7-9.17-9.37-12.39c4.86-.2,9.21,2.12,12.64,7,.71-1.26,1.27-2.28,1.73-3.11h3.52v2.06L858.4,110c1,2,1.87,3.88,2.82,5.87l-3.73,3.73c2.93,4-.44,9.2,2.43,13.44a3.64,3.64,0,0,1-1.18,4.84c2.45,2.8,1,6.15,1.26,9.22s.06,6,.06,9.15l2.46.73c.68-8.68.11-17.15.36-25.45,1.23-1.92,2.32-3.81,3.61-5.57s2.6-3.14,4.64-5.56c0,.12.08-1,.19-2.37h3.82c.13,1.19.26,2.29.42,3.63H889l1.67-7.92c.55-2.58-1.25-5.57,1.35-7.79l-2.22-2.69,3.75-1.16c-.17-.15.66.55,1.52,1.29l-1,2.18,2.54,16H910c.12-1.1.23-2.2.38-3.58h3.72l.43,3.19c5.08.8,4.23,7,8.11,9.59V156.4h3.82c-.15.13.17,0,.17-.17q0-9.28,0-18.59l5.87-3.38,3.57,2.19c.31-1.76.52-3,.78-4.41l2.33-.82c.13-1.05.25-2.15.39-3.33L942,127c.11-1.07.23-2.16.38-3.5h3.55c.26-1.47.48-2.75.73-4.19h5v3.32l2.83,1v3.28l2.89,1,.25,3.48h4.13c-.5-6.25.08-12.27,3.49-17.83,3.31,10.19,1.61,20.51,2,30.7.14,3.93,0,7.87,0,12.15h6.61c1.32-4.75-1-10,1.4-14.49-.47-2.59-1-5.18-1.34-7.34,1.48-2,2.63-3.61,3.76-5.15,1,1.36,2.23,3,3.05,4.14-.35,3.08-1.5,5.95-.78,8.22,1.55,4.86,1,9.78,1.25,14.75l2.49.16V105.68l4-.76c.61-2.76.69-5.8,2-8.21,1.4-2.64,1.18-5.2,1.24-7.85.06-2.92,0-5.84,0-9.66l4.31,2.88c-.54,1.51-1.81,3.16-1.43,4.24,2.13,6.17.94,13.17,4.71,18.73l2.2.51V127c2.5,1.16,3.1,0,2.63-2.25h43V110.29l2.33-2.31,1.49,3.12,7.33-4.73V99.15l2.42-2.42,3.48,4.55v4.9l6.26,4.29,3-1.71c.71,5,.06,9.61.53,14.88a12.08,12.08,0,0,0,2.57-1.6c1.75-2,3.37-4.08,5.47-6.66,4.07,4.92,9.22,7.73,12.56,13v20.33l4.35,2.92c-1.94,3.41-2,3.42.58,6.43H1114a2.58,2.58,0,0,0,.47-.42,1.08,1.08,0,0,0,.26-.58c0-8.32,0-16.64,0-25.66l16.45,2.79v-3.43l43.16,6.8v3.56l10.09,2.37q-.85,6.76-1.82,14.38h4.17V123.67l5.8-5.88h8.76l9.21-7v42.77h5.65V111.14c1.92-.34,2.18,1.44,3.19,2a25.76,25.76,0,0,1,2.74,1.79c1.08.8,2.12,1.68,3.39,2.7H1235c1.17,2.37,2,5.25,6.37,3.87v16.12c0,5.1-.57,10.29.15,15.29s-4.38,9.94.74,15.33c.27-2.16.47-3.76.73-5.86h9.35c.09-1.36.15-2.25.2-3.08-1.93-2.5-3.81-5-5.6-7.29v-7l4.82-5h7.89l3.54,1.75a6,6,0,0,0,.45.9c2.33,3.28,1.06,7,1.43,10.5l-4.09,4.09V162h12.08v-4.4L1267.6,150c.78-2.61,1.39-4.68,2.07-7,3.31-3.74,7.95-3.06,13-3l4.36,5.78c1.31,5.8-1.41,9.72-5.24,12.85V162h13.74c.06-1,.1-1.92.16-3l-5.4-4.78v-9.59L1295,140c3.6.17,7.65-.84,11.64,2,2.29,3.18,1.59,7.29,1.52,11.29l-5.46,5.45v2.78c2.91,2.26,5.31-.22,8.16-1V148.62h24.37l2.39-2.89h15V129.92l10.81,8.49h4.76l13.2-5.57c.27.73.49,1.33.78,2.08L1366.37,143c3.45,2.83,6.07-.29,8.89-.36a58.77,58.77,0,0,0,8.48-1.31,27.65,27.65,0,0,1,9.57-.49l-2.84.81v6.46H1407v-61c5.88-.37,11.63.87,16.7-2.39,0-.35,0-.8-.1-1.74h-12.2c-.08-1.11-.12-1.74-.19-2.65h20.58c-.1,2.77.94,5.28,4.4,5.94v74.19l5.61.59V342.35Z"/><path class="cls-5" d="M-239.36,342.35V172.19h16.54v-6.8l4.18-.67v-15l3.13-5.35c.49.18,1,.2,1.1.42.79,1.76,1.51,3.55,2.45,5.83l-1.2,1.8,1.93,2.65h7.94c-.56-4.38,1.32-8.29,3.54-12.32l1.38,2.82,24.42-21.35c-.37-7,1.56-13.2,5.2-19.51.78,3.85,1.48,7.28,2.28,11.22l2,.67v7.68c4.31,3.66,8.64,7.32,12.95,11,4.14,3.53,7.08,8.42,12.47,11v10.23h17.36a63.66,63.66,0,0,0,4.54,4.72c1.61,1.39,2.49,4,5.81,3.76V122.62c0-4.18-.21-8.37.07-12.53.25-3.75,1-7.46,1.67-11.55h9.36c5-3.08,2-6.56,1.21-9.86l4-5.76c3.92-2.85,9.56-.85,15-1.49L-75,87V98.18h10.73v6.39l2.86,1v24.68c7.34,0,14.47.25,21.57-.07,6.71-.31,13.65,1.52,20.36-1.26V118l2.55-.53c.12-1.54.25-3.27.4-5.24h7.63c.38-1,.67-1.81,1.22-3.3l1.12,3H1.26c.1,2,.17,3.6.27,5.44l4,.63v12.21H29.91a3.25,3.25,0,0,1,.5.48,1.19,1.19,0,0,1,.22.59c0,7.85,0,15.7,0,24.06l5.29,1.84V133.09l-4.21-8.66,7-9.17-9.37-12.39c4.86-.2,9.2,2.12,12.64,7l1.73-3.11h3.52v2.06L44.3,110c1,2,1.86,3.88,2.82,5.87l-3.73,3.73c2.93,4-.44,9.2,2.43,13.44a3.65,3.65,0,0,1-1.18,4.84c2.45,2.8,1,6.15,1.26,9.22s.05,6,.05,9.15l2.47.73c.67-8.68.1-17.15.36-25.45,1.23-1.92,2.32-3.81,3.6-5.57S55,122.79,57,120.37c0,.12.08-1,.2-2.37H61c.14,1.19.27,2.29.42,3.63H74.9l1.67-7.92c.54-2.58-1.26-5.57,1.35-7.79l-2.23-2.69,3.76-1.16L81,103.36l-1,2.18,2.54,16H95.85c.11-1.1.23-2.2.37-3.58h3.72l.43,3.19c5.09.8,4.24,7,8.12,9.59V156.4h3.81c-.14.13.18,0,.18-.17q0-9.28,0-18.59l5.87-3.38,3.58,2.19c.31-1.76.52-3,.77-4.41l2.34-.82c.12-1.05.25-2.15.39-3.33l2.44-.92c.12-1.07.24-2.16.38-3.5h3.56c.25-1.47.47-2.75.72-4.19h5v3.32l2.84,1v3.28l2.88,1,.25,3.48h4.13c-.49-6.25.08-12.27,3.49-17.83,3.32,10.19,1.62,20.51,2,30.7.14,3.93,0,7.87,0,12.15h6.6c1.33-4.75-1-10,1.4-14.49l-1.33-7.34c1.48-2,2.63-3.61,3.76-5.15l3,4.14c-.36,3.08-1.51,5.95-.78,8.22,1.55,4.86,1,9.78,1.25,14.75l2.49.16V105.68l4-.76c.61-2.76.69-5.8,2-8.21,1.39-2.64,1.17-5.2,1.23-7.85.07-2.92,0-5.84.05-9.66l4.31,2.88c-.55,1.51-1.81,3.16-1.44,4.24,2.13,6.17.95,13.17,4.71,18.73l2.2.51V127c2.5,1.16,3.11,0,2.63-2.25h43V110.29l2.33-2.31L236,111.1l7.32-4.73V99.15l2.42-2.42,3.49,4.55v4.9l6.25,4.29,3-1.71c.71,5,.06,9.61.54,14.88a12.23,12.23,0,0,0,2.56-1.6c1.75-2,3.38-4.08,5.48-6.66,4.06,4.92,9.22,7.73,12.55,13v20.33l4.36,2.92c-1.95,3.41-2,3.42.58,6.43H299.9a3,3,0,0,0,.48-.42,1.15,1.15,0,0,0,.25-.58c0-8.32,0-16.64,0-25.66l16.46,2.79v-3.43l43.15,6.8v3.56l10.1,2.37q-.86,6.76-1.83,14.38h4.18V123.67l5.79-5.88h8.77l9.21-7v42.77h5.65V111.14c1.91-.34,2.17,1.44,3.19,2a24.66,24.66,0,0,1,2.73,1.79c1.09.8,2.12,1.68,3.4,2.7h9.49c1.16,2.37,2,5.25,6.36,3.87v16.12c0,5.1-.56,10.29.16,15.29s-4.38,9.94.74,15.33c.26-2.16.46-3.76.72-5.86h9.36c.09-1.36.14-2.25.2-3.08L432.86,152v-7l4.83-5h7.89l3.54,1.75a4.52,4.52,0,0,0,.45.9c2.33,3.28,1.05,7,1.43,10.5l-4.09,4.09V162H459v-4.4L453.5,150c.77-2.61,1.39-4.68,2.07-7,3.3-3.74,7.95-3.06,13-3L473,145.8c1.3,5.8-1.42,9.72-5.24,12.85V162h13.74c.05-1,.1-1.92.15-3l-5.39-4.78v-9.59l4.64-4.64c3.6.17,7.65-.84,11.65,2,2.28,3.18,1.58,7.29,1.51,11.29l-5.45,5.45v2.78c2.9,2.26,5.31-.22,8.16-1V148.62H521.1l2.39-2.89h15V129.92l10.8,8.49h4.77l13.19-5.57c.27.73.5,1.33.78,2.08L552.26,143c3.45,2.83,6.07-.29,8.9-.36a58.85,58.85,0,0,0,8.47-1.31,27.71,27.71,0,0,1,9.58-.49c-1.35.38-2.7.76-2.84.81v6.46h16.54v-61c5.87-.37,11.62.87,16.7-2.39,0-.35-.05-.8-.1-1.74h-12.2c-.08-1.11-.13-1.74-.19-2.65H617.7c-.11,2.77.94,5.28,4.4,5.94v74.19l5.6.59V342.35Z"/><path class="cls-6" d="M259.77,51a154.87,154.87,0,0,0,25.78-8.46c14.63-6.16,34.64.38,41.18,3.46s14,1,17.89.58,17.12-.2,25.59,4.42Z"/><path class="cls-6" d="M1028.75,71.14s7.72-2.54,14.37-5.3c7.68-3.18,11.45,2,18.85,2.17s11-1.92,16.83-1.4c8.65.77,9.53,3.6,13.54,4.89Z"/><path class="cls-6" d="M127.45,36.27s11.55-13.42,28.3-7.1,16,2.11,24.43,1.44c7.22-.58,10.08,4.87,16.26,5.66Z"/><path class="cls-6" d="M614.74,57.18s5.57-1,17.8-7S658.18,52.86,667,51s16.94-2.42,24.2,1,12.43,2.24,19,1.35c6.78-.92,10.19,2.4,21.54,3.87Z"/><path class="cls-6" d="M954.72,30.34a113.92,113.92,0,0,0,33-9c16.64-7.46,27.24-2,35.62,2.66,11.56,6.38,21.66,3.12,32.77,3.54a107.22,107.22,0,0,1,20.73,2.84Z"/><path class="cls-6" d="M491.41,31a80.58,80.58,0,0,0,12.85-4.67c11.35-5.12,19-.31,24.62,1.08,9.28,2.29,14.24-2.93,32.62-.45a162.91,162.91,0,0,1,18.66,4Z"/><path class="cls-6" d="M35.3,52.58s17.25-3.13,30.78-9,22.12,2.54,34.12,4.5,15.87-1.11,25.79,0c6.65.75,19.52,4.47,19.52,4.47Z"/><path class="cls-6" d="M811.47,78.87c-.28-1.49.59-3-.07-4.46s-2.12-1.47-3.42-1.77a46.84,46.84,0,0,1-5-1.19,3.8,3.8,0,0,1-3-4c0-2.35.49-5.62-2.5-6.39a14.1,14.1,0,0,0-4,.07,14.73,14.73,0,0,1-5.5-.88A8.07,8.07,0,0,1,785.39,59c-1-.88-.79-2-.3-3.1.64-1.4,1.6-2.59,1.93-4.12a4.28,4.28,0,0,0-3.53-5.34,15.62,15.62,0,0,0-4.21,0c-1.76.09-4.66-.05-5.12-2.27-.3-1.39,1.07-2.48,1.08-3.86a3.22,3.22,0,0,0-1.79-2.68c-1.4-.79-3-.62-4.52-1A5.22,5.22,0,0,1,765.42,33a7.1,7.1,0,0,1,.29-4.7c.64-1.66,2.3-4.53,4.48-3.52,1.25.58,2.2,1.92,3.31,2.73a11.27,11.27,0,0,0,4.27,1.94c3.23.66,6.33-.49,9.32-1.58A25.09,25.09,0,0,1,796.65,26a14.87,14.87,0,0,1,4.33.76c1.46.5,4.43,1.72,4.4,3.58a13,13,0,0,1-.56,2.35,14.64,14.64,0,0,0-.31,2.47c-.06,1.37-.06,3.1.8,4.26a5.41,5.41,0,0,0,3.19,1.68c1.69.44,3.42.77,5.08,1.33,3.6,1.22,7.09,4.2,5.71,8.39-.57,1.72-1.65,3.23-2.35,4.89a9.84,9.84,0,0,0-.78,4.82,11.11,11.11,0,0,0,2,5.11c1.09,1.68,2.66,3.89,1.35,5.89-.88,1.35-2.5,2-3.44,3.33a3.4,3.4,0,0,0-.43,3.74.6.6,0,0,0,1-.61c-1-1.72,1.07-3.21,2.22-4.16a5.35,5.35,0,0,0,2.27-3.43,6.82,6.82,0,0,0-1.23-4.22c-1.11-1.83-2.3-3.44-2.53-5.65-.39-3.8,2.24-6.34,3.2-9.77A7,7,0,0,0,818,43.46c-2.61-2.16-6-2.68-9.18-3.5a6.81,6.81,0,0,1-1.91-.68,3.09,3.09,0,0,1-1.19-2.71,12.89,12.89,0,0,1,.17-3.1c.16-.92.52-1.79.65-2.72.39-2.9-3.32-4.53-5.59-5.24a18.89,18.89,0,0,0-9.12-.29c-3.46.65-6.61,2.4-10.07,3a9.48,9.48,0,0,1-5.59-.6,18.67,18.67,0,0,1-4.31-3.19c-2.21-1.85-4.52-1.05-6.09,1.2a8.73,8.73,0,0,0-1.17,8.44,6.55,6.55,0,0,0,2.5,2.91c1.53.93,3.26.72,4.9,1.21.91.27,2,.9,2.06,2,0,.78-.6,1.49-.87,2.19a3.26,3.26,0,0,0,.58,3.4c2.3,2.72,5.87,1.28,8.88,1.64,1.69.2,3.3,1.12,3.34,3s-1.37,3.46-2.08,5.18c-1.55,3.67,2,5.38,5,6.18a16.41,16.41,0,0,0,5.8.42,5.36,5.36,0,0,1,3,.19,3,3,0,0,1,1.21,2.71c0,1.67-.43,3.42.39,5a5.52,5.52,0,0,0,3.35,2.48c1.91.64,4,1,5.9,1.4.57.13,1.27.19,1.65.72a2.84,2.84,0,0,1,.16,2,7.61,7.61,0,0,0-.07,2.52c.14.75,1.29.44,1.15-.32Z"/><path class="cls-6" d="M767.44,24.67a8.18,8.18,0,0,0-2.37,9,8.36,8.36,0,0,0,6.08,3.73c4.43.66,3.07,4.15,2.87,4.57s-1.68,5,3.45,4.93,9.46-.06,9.1,3.32-4.56,7.6-1.15,9.44a14.68,14.68,0,0,0,8.49,2c2.42-.18,5.35-.27,5.57,2.71s-.7,6.4,2.62,7.33,7.61,1.35,8.21,2.19.38,4,.38,4,.14,2,1.53,2.12a36.7,36.7,0,0,0,3.78,0s-.82-2.64,0-3.94,3.47-3.56,3.8-4a8.07,8.07,0,0,0-.71-6c-1.4-2.26-3.25-6.85-2-10s5-6.58,2.3-10-9.33-5.3-11.2-5.62-3.37-3-3.07-6.08,2.14-6.53-5.18-8.48-16.5,2.58-16.5,2.58-5.3.93-7.28-.13a31.92,31.92,0,0,1-4.4-3.1l-2.37-1.28Z"/><rect class="cls-7" x="809.99" y="79.7" width="4.5" height="12.73"/><polygon class="cls-8" points="810.12 80.4 814.66 81.65 814.66 79.83 810.12 79.83 810.12 80.4"/><rect class="cls-9" x="814.49" y="79.7" width="2.42" height="12.73"/><rect class="cls-10" x="810.34" y="77.37" width="8.65" height="3.19" rx="0.54"/><rect class="cls-11" x="807.92" y="77.37" width="8.65" height="3.19" rx="0.54"/><polygon class="cls-9" points="821.91 113.94 821.91 91.41 803.88 91.41 803.88 68.88 785.85 68.88 785.85 91.41 767.81 91.41 767.81 113.94 749.78 113.94 749.78 150.37 767.81 150.37 785.85 150.37 803.88 150.37 821.91 150.37 839.94 150.37 839.94 113.94 821.91 113.94"/><rect class="cls-9" x="769.67" y="153.08" width="118.64" height="52.59"/><rect class="cls-9" x="769.67" y="205.67" width="118.64" height="104.92"/><rect class="cls-9" x="854.3" y="98.08" width="18.92" height="50.91"/><rect class="cls-9" x="768.25" y="153.08" width="122.67" height="4.24"/><rect class="cls-9" x="768.25" y="205.67" width="122.67" height="4.24"/><rect class="cls-9" x="852.88" y="96.59" width="21.76" height="2.98"/><path class="cls-12" d="M844.37,96.59l13.72-32.14a.94.94,0,0,1,1.81,0l13.32,32.14Z"/><polygon class="cls-7" points="816.74 113.94 816.74 91.41 798.71 91.41 798.71 68.88 780.68 68.88 780.68 91.41 762.65 91.41 762.65 113.94 744.62 113.94 744.62 150.37 762.65 150.37 780.68 150.37 798.71 150.37 816.74 150.37 834.77 150.37 834.77 113.94 816.74 113.94"/><line class="cls-13" x1="779.43" y1="68.88" x2="799.96" y2="68.88"/><line class="cls-13" x1="798.71" y1="91.41" x2="817.99" y2="91.41"/><line class="cls-13" x1="816.74" y1="113.94" x2="836.02" y2="113.94"/><line class="cls-13" x1="780.68" y1="91.41" x2="761.4" y2="91.41"/><line class="cls-13" x1="762.65" y1="113.94" x2="743.37" y2="113.94"/><circle class="cls-14" cx="789.7" cy="82.55" r="4.6"/><circle class="cls-14" cx="772.28" cy="103.4" r="4.6"/><circle class="cls-14" cx="754.65" cy="124.05" r="4.6"/><circle class="cls-14" cx="824.95" cy="124.05" r="4.6"/><circle class="cls-14" cx="806.17" cy="103.4" r="4.6"/><rect class="cls-15" x="777.51" y="116.47" width="24.38" height="24.38"/><line class="cls-13" x1="789.7" y1="115.5" x2="789.7" y2="141.8"/><line class="cls-13" x1="802.85" y1="128.65" x2="776.55" y2="128.65"/><rect class="cls-7" x="744.64" y="153.08" width="118.64" height="52.59"/><rect class="cls-7" x="744.64" y="205.67" width="118.64" height="104.92"/><rect class="cls-6" x="757.82" y="169.91" width="23.21" height="23.21"/><line class="cls-13" x1="769.42" y1="168.99" x2="769.42" y2="194.03"/><line class="cls-13" x1="781.95" y1="181.51" x2="756.9" y2="181.51"/><rect class="cls-15" x="793.63" y="169.91" width="23.21" height="23.21"/><line class="cls-13" x1="805.24" y1="168.99" x2="805.24" y2="194.03"/><line class="cls-13" x1="817.76" y1="181.51" x2="792.71" y2="181.51"/><rect class="cls-6" x="829.44" y="169.91" width="23.21" height="23.21"/><line class="cls-13" x1="841.05" y1="168.99" x2="841.05" y2="194.03"/><line class="cls-13" x1="853.57" y1="181.51" x2="828.52" y2="181.51"/><rect class="cls-13" x="753.43" y="288.91" width="30.58" height="3.89"/><rect class="cls-13" x="758.01" y="285.02" width="26" height="3.89"/><rect class="cls-13" x="762.21" y="281.12" width="21.8" height="3.89"/><rect class="cls-9" x="773.59" y="288.91" width="13.74" height="3.89"/><rect class="cls-13" x="749.25" y="292.8" width="34.35" height="3.89"/><rect class="cls-9" x="769.18" y="292.8" width="18.15" height="3.89"/><rect class="cls-13" x="744.64" y="296.7" width="38.5" height="13.89"/><rect class="cls-9" x="765.03" y="296.7" width="22.3" height="13.89"/><rect class="cls-9" x="778.17" y="285.02" width="9.16" height="3.89"/><rect class="cls-9" x="782.37" y="281.12" width="4.96" height="3.89"/><path class="cls-14" d="M775.18,245h0a11,11,0,0,1,11,11v25.09a0,0,0,0,1,0,0h-22a0,0,0,0,1,0,0V256a11,11,0,0,1,11-11Z"/><path class="cls-11" d="M775.18,249.29h0a7.19,7.19,0,0,1,7.19,7.19V277a0,0,0,0,1,0,0H768a0,0,0,0,1,0,0V256.48A7.19,7.19,0,0,1,775.18,249.29Z"/><line class="cls-14" x1="775.18" y1="249.29" x2="775.18" y2="277.01"/><line class="cls-14" x1="767.99" y1="260.15" x2="782.37" y2="260.15"/><line class="cls-14" x1="767.99" y1="268.89" x2="782.37" y2="268.89"/><circle class="cls-8" cx="784.01" cy="265.18" r="0.84"/><rect class="cls-15" x="792.54" y="242.81" width="15.13" height="20.97"/><line class="cls-13" x1="791.56" y1="249.88" x2="808.66" y2="249.88"/><rect class="cls-6" x="816.77" y="242.81" width="15.13" height="20.97"/><line class="cls-13" x1="815.79" y1="249.88" x2="832.89" y2="249.88"/><rect class="cls-6" x="840.21" y="242.81" width="15.13" height="20.97"/><line class="cls-13" x1="839.22" y1="249.88" x2="856.33" y2="249.88"/><rect class="cls-6" x="792.54" y="215.6" width="15.13" height="20.97"/><line class="cls-13" x1="791.56" y1="222.67" x2="808.66" y2="222.67"/><rect class="cls-6" x="816.77" y="215.6" width="15.13" height="20.97"/><line class="cls-13" x1="815.79" y1="222.67" x2="832.89" y2="222.67"/><rect class="cls-6" x="767.62" y="215.6" width="15.13" height="20.97"/><line class="cls-13" x1="766.63" y1="222.67" x2="783.73" y2="222.67"/><rect class="cls-15" x="840.21" y="215.6" width="15.13" height="20.97"/><line class="cls-13" x1="839.22" y1="222.67" x2="856.33" y2="222.67"/><path class="cls-7" d="M849.35,310.59V294.05a21.44,21.44,0,1,0-42.87,0v16.54Z"/><path class="cls-9" d="M811.45,297.12a21.45,21.45,0,0,1,30.12-19.6,21.44,21.44,0,0,0-35.09,16.53v16.54h5Z"/><rect class="cls-7" x="844.37" y="98.08" width="18.92" height="50.91"/><rect class="cls-7" x="742.03" y="153.08" width="123.87" height="4.24"/><rect class="cls-9" x="766.31" y="148.84" width="127.56" height="4.24"/><rect class="cls-7" x="740.28" y="148.84" width="127.56" height="4.24"/><rect class="cls-7" x="742.03" y="205.67" width="123.87" height="4.24"/><polygon class="cls-8" points="863.29 209.91 744.64 209.91 744.64 212.61 863.29 209.91"/><polygon class="cls-8" points="863.29 157.32 744.64 157.32 744.64 159.62 863.29 157.32"/><polygon class="cls-8" points="865.9 153.08 742.03 153.08 742.03 155.37 865.9 153.08"/><polygon class="cls-8" points="865.9 205.67 742.03 205.67 742.03 207.97 865.9 205.67"/><polygon class="cls-8" points="867.84 148.84 740.28 148.84 740.28 151.13 867.84 148.84"/><polygon class="cls-8" points="744.62 113.94 762.65 113.94 744.64 115.96 744.62 113.94"/><polygon class="cls-8" points="762.83 91.41 780.86 91.41 762.85 93.43 762.83 91.41"/><polygon class="cls-8" points="780.68 68.88 798.71 68.88 780.71 70.91 780.68 68.88"/><rect class="cls-7" x="842.95" y="96.59" width="21.76" height="2.98"/><rect class="cls-7" x="856.73" y="63.26" width="4.52" height="1.72"/><line class="cls-7" x1="858.99" y1="63.26" x2="858.99" y2="60.25"/><circle class="cls-7" cx="858.99" cy="60.25" r="1.2"/><line class="cls-7" x1="846.25" y1="99.57" x2="846.25" y2="101.16"/><line class="cls-7" x1="849.33" y1="99.57" x2="849.33" y2="101.16"/><line class="cls-7" x1="852.41" y1="99.57" x2="852.41" y2="101.16"/><line class="cls-7" x1="855.49" y1="99.57" x2="855.49" y2="101.16"/><line class="cls-7" x1="858.57" y1="99.57" x2="858.57" y2="101.16"/><line class="cls-7" x1="861.64" y1="99.57" x2="861.64" y2="101.16"/><path class="cls-6" d="M853.83,105.68h0a1.59,1.59,0,0,1,1.59,1.59v12.19a0,0,0,0,1,0,0h-3.18a0,0,0,0,1,0,0V107.27a1.59,1.59,0,0,1,1.59-1.59Z"/><line class="cls-7" x1="851.44" y1="119.45" x2="856.21" y2="119.45"/><rect class="cls-16" x="747.52" y="161.44" width="6.58" height="2.93"/><rect class="cls-16" x="751.24" y="165.38" width="6.58" height="2.93"/><rect class="cls-16" x="751.84" y="198.77" width="6.58" height="2.93"/><rect class="cls-16" x="782.74" y="189.32" width="6.58" height="2.93"/><rect class="cls-16" x="786.68" y="193.99" width="6.58" height="2.93"/><rect class="cls-16" x="813.77" y="161.59" width="6.58" height="2.93"/><rect class="cls-16" x="825.7" y="198.77" width="6.58" height="2.93"/><rect class="cls-16" x="752.67" y="219.74" width="6.58" height="2.93"/><rect class="cls-16" x="750.14" y="224.95" width="6.58" height="2.93"/><rect class="cls-16" x="781.56" y="241.37" width="6.58" height="2.93"/><rect class="cls-16" x="751.24" y="271.15" width="6.58" height="2.93"/><rect class="cls-16" x="792.54" y="266.02" width="6.58" height="2.93"/><rect class="cls-16" x="795.83" y="271.15" width="6.58" height="2.93"/><rect class="cls-16" x="829.6" y="285.5" width="6.58" height="2.93"/><rect class="cls-16" x="823.83" y="289.39" width="6.58" height="2.93"/><rect class="cls-16" x="846.99" y="275.55" width="6.58" height="2.93"/><rect class="cls-16" x="852.05" y="268.22" width="6.58" height="2.93"/><rect class="cls-16" x="830.2" y="211.78" width="6.58" height="2.93"/><rect class="cls-16" x="852.92" y="160.87" width="6.58" height="2.93"/><rect class="cls-16" x="756.9" y="141.8" width="6.58" height="2.93"/><rect class="cls-16" x="751.36" y="137.34" width="6.58" height="2.93"/><rect class="cls-16" x="764.96" y="125.22" width="6.58" height="2.93"/><rect class="cls-16" x="785.1" y="105.68" width="6.58" height="2.93"/><rect class="cls-16" x="807.48" y="130.71" width="6.58" height="2.93"/><rect class="cls-16" x="810.16" y="125.22" width="6.58" height="2.93"/><rect class="cls-16" x="804.38" y="113.48" width="6.58" height="2.93"/><rect class="cls-16" x="783.12" y="99.69" width="6.58" height="2.93"/><rect class="cls-16" x="823.83" y="143.24" width="6.58" height="2.93"/><rect class="cls-16" x="851.01" y="141.77" width="6.58" height="2.93"/><rect class="cls-16" x="847.72" y="136.61" width="6.58" height="2.93"/><rect class="cls-16" x="853.83" y="122.07" width="6.58" height="2.93"/><circle class="cls-8" cx="710.93" cy="223.99" r="3.18"/><rect class="cls-11" x="716.63" y="223.99" width="23.89" height="28.02"/><line class="cls-13" x1="750.14" y1="223.99" x2="710.93" y2="223.99"/><path class="cls-6" d="M734.13,231.08l.38,1.66-1.21,1.11c-.15-.46-.22-1-.37-1.55Z"/><path class="cls-6" d="M729.49,231.8c-.29.48-.49,1-.82,1.46l-.81-1.48.81-1.49C729,230.81,729.24,231.29,729.49,231.8Z"/><path class="cls-6" d="M724.09,233.89l-1.2-1.15c.11-.54.22-1.07.36-1.59l1.18,1.15C724.35,232.82,724.21,233.35,724.09,233.89Z"/><path class="cls-6" d="M720.26,234.47c0,.48.06.94,0,1.41-.5-.73-1-1.47-1.47-2.21C719.33,233.9,719.78,234.19,720.26,234.47Z"/><path class="cls-6" d="M738.69,233.6c-.23.44-.56.8-.81,1.22s-.35.57-.53.85a.44.44,0,0,1-.13.15l.07-1.45a12.77,12.77,0,0,1,1.4-.76Z"/><polygon class="cls-6" points="738.69 233.6 738.69 233.61 738.7 233.6 738.69 233.6"/><path class="cls-6" d="M732.07,243.53a7,7,0,0,1-1.27.43,9.51,9.51,0,0,1-3.72.09,4.26,4.26,0,0,1-2.5-1.08,4.62,4.62,0,0,0-1.29.93c-.15.09-.06.18,0,.27a.11.11,0,0,0,.05.1h0a.31.31,0,0,0,.1.15l0,.05a.07.07,0,0,0,0,.07.21.21,0,0,0,.1.11h0l0,0h0l.05,0h0a.07.07,0,0,0,.06,0h0a.67.67,0,0,0,.27.23s0,0,0,0,0,0,.07,0a.13.13,0,0,0,.1.06.05.05,0,0,0,.06,0,.37.37,0,0,0,.19.11.08.08,0,0,0,.07,0h0a.1.1,0,0,0,.1.05h0a.1.1,0,0,0,.1,0h0a.1.1,0,0,0,.11.05v0h0a.08.08,0,0,0,.08,0h0a2.53,2.53,0,0,0,.79.3.12.12,0,0,0,.11,0,7.52,7.52,0,0,0,2.21.36h.16a4,4,0,0,0,.77,0,.88.88,0,0,0,.36,0,4.7,4.7,0,0,0,.92-.08.14.14,0,0,0,.11,0,1.25,1.25,0,0,0,.5-.11h0a4.12,4.12,0,0,0,1.16-.36,3.44,3.44,0,0,0,2.09-1.68,4.67,4.67,0,0,0-1.42-1A2.3,2.3,0,0,1,732.07,243.53Z"/><path class="cls-6" d="M723.7,237.11c-.06,0-.09.07-.13.12h0a.78.78,0,0,0,0,1h0a.35.35,0,0,0,.21.2h0c.25.2.5.11.76,0h0c.08,0,.15,0,.25,0l.41,1.05c-.08.19-.23.3-.3.47l0,0s0,0,.06,0a5.18,5.18,0,0,1,1.22-.29c-.19-.15-.4-.17-.57-.29-.05-.39-.13-.78-.16-1.17L726,238a.58.58,0,0,0,.36-.31.82.82,0,0,0-.26-1,.85.85,0,0,0-.36-.17c.12-.4.06-.61-.21-.81a.37.37,0,0,0-.34-.12c-.11,0-.18.1-.29.09h0a.56.56,0,0,0-.15-.37.05.05,0,0,0,0-.06.1.1,0,0,0-.06-.05h0c-.26-.19-.4-.17-.58.06h0c-.19.2-.08.44-.06.67-.16.05-.35,0-.44.21l.19,0-.19,0s0,0,0,0a.51.51,0,0,0,0,.6h0a.17.17,0,0,0,.09.16h0c0,.09.14.1.12.2Zm.35-1.2h0Zm0,0h0Zm0-.05h0Zm0-.05Zm.06.25h0Zm0-.06h0Zm1.45-.24Zm-.57,0,.06,0-.06,0,0,0ZM725,238a.55.55,0,0,0,.19-.18s0,0,.06,0a.06.06,0,0,0,0-.05.17.17,0,0,0,.11-.09h0a.1.1,0,0,0,.07-.07h0a.7.7,0,0,0,.22-.2h0c.07.07-.05.12,0,.19h0a1,1,0,0,0-.16.35h0l-.15.3a3,3,0,0,1-.57.15l-.23-.13h0s0,0-.05,0h0a.11.11,0,0,0-.09-.07.45.45,0,0,0-.21-.15.07.07,0,0,0-.06,0s-.11,0,0-.11a3.39,3.39,0,0,0,.62.12h0C724.83,238,724.93,237.94,725,238Zm-.27-2.52s0-.1,0-.15S724.73,235.4,724.74,235.45Zm0-.15Zm0-.05Zm0,.21v0Zm0,0v0Zm0,0h0Zm0,0v0Zm0,0h0Zm0,0h0Zm0,0h0Zm0,0h0Zm.05,0Zm0,0h0Zm-.19-.44h0a2.59,2.59,0,0,0-.56.05A2.59,2.59,0,0,1,724.63,235.2Z"/><path class="cls-6" d="M725.62,242.26a12.15,12.15,0,0,1,5.4-.19,6.19,6.19,0,0,1,3,1.4.25.25,0,0,0,.17.09,1.12,1.12,0,0,0-.32-.57,4,4,0,0,0-1.47-.88,10.39,10.39,0,0,0-4.13-.63,9.73,9.73,0,0,0-3.53.73,3.48,3.48,0,0,0-1.24.8.81.81,0,0,0-.28.53c.11,0,.16-.09.22-.14A5.81,5.81,0,0,1,725.62,242.26Z"/><path class="cls-6" d="M736,237.69a.56.56,0,0,0-.7-.06c-.24.17-.21.42-.18.67-.29,0-.53,0-.65.27a.66.66,0,0,0,0,.55.1.1,0,0,0,.05.1.07.07,0,0,0,0,.07h0l0,.05h0l.05.05h0a79286910987.4,79286910987.4,0,0,0,.12.08.06.06,0,0,0,.06.05h0a.35.35,0,0,0,.19.12h0c0,.09.17.1.23.22-.11.31-.16.65-.29,1a1.93,1.93,0,0,0-.53.11,1.93,1.93,0,0,1,.53.34c.15-.48.31-.93.49-1.42-.15,0-.15-.13-.19-.24a2.27,2.27,0,0,0-.22-.54s0,0,0,0v-.12a6.42,6.42,0,0,1,.55.6c.31-.78.67-1.51,1-2.26C736.2,237.22,736.07,237.45,736,237.69Z"/><path class="cls-6" d="M722.43,239.65a.13.13,0,0,0,.09-.07.76.76,0,0,0,.51-.78.5.5,0,0,0-.55-.51c-.05,0-.12.05-.16,0a.59.59,0,0,0-.17-.63.57.57,0,0,0-.7,0c-.22-.37-.32-.44-.59-.38.35.74.7,1.47,1,2.24a4.15,4.15,0,0,1,.53-.57v.12a.79.79,0,0,0-.14.34h0c-.11.14,0,.38-.26.46.18.47.33.93.49,1.42a1.52,1.52,0,0,1,.51-.37,4.52,4.52,0,0,0-.53-.11,9.1,9.1,0,0,1-.27-1C722.27,239.75,722.37,239.73,722.43,239.65Z"/><path class="cls-6" d="M731.32,238h0c.19.12.42.13.64.24l-.17,1.14c-.18.13-.39.14-.56.3a4.31,4.31,0,0,1,1.3.34l-.38-.53.43-1.09a4.47,4.47,0,0,1,.45.09.64.64,0,0,0,.69-.16h0a.28.28,0,0,0,.13-.17s0-.06,0-.11,0,0,0,0a.69.69,0,0,0-.16-.85.06.06,0,0,0-.06,0c0-.12.16-.14.17-.25a.05.05,0,0,0,0-.06h0a.5.5,0,0,0,0-.54s0,0,0,0a.1.1,0,0,0,0-.1h0a.06.06,0,0,0-.05-.06c-.09-.15-.28-.09-.41-.17a.93.93,0,0,0,.06-.37.45.45,0,0,0-.26-.44.38.38,0,0,0-.43.1s0,0,0,.05a.06.06,0,0,0-.05.06c-.11.1-.11.26-.18.38-.2-.08-.4-.18-.59,0a.22.22,0,0,0-.16.16h0a.67.67,0,0,0-.05.67.55.55,0,0,0-.36.15.06.06,0,0,0-.06.05s0,0,0,0a.51.51,0,0,0-.19.32A.71.71,0,0,0,731.32,238Zm1.92-2.07,0,0,0,0Zm.07.1,0,0Zm.09,0h0Zm0,0Zm0,0h0Zm0,0Zm.18,1.74h0s0,0,0,0S733.67,237.78,733.66,237.77Zm.14-1.69Zm-1.22-.42h0Zm-.41,0h0Zm.3.09h0Zm0,0h0Zm0,0h0Zm0,0h0Zm0,0h0Zm0,0h0Zm0,0h0Zm0,0h0Zm-.08,0h0Zm-.24,0h0l.08,0-.08,0Zm.2,0h0Zm0,0h0Zm0,0h0Zm-.28.19Zm-.08,1.49v0l.42.37.28.25c.34,0,.64-.16,1-.18l-.1.1a.07.07,0,0,0-.06,0s0,0-.06.05a.1.1,0,0,0-.09.06.06.06,0,0,0-.06.05h0l-.36.22a2.93,2.93,0,0,1-.57-.13l-.19-.34a.37.37,0,0,0-.09-.21s0-.08,0-.11,0,0,0,0,0-.07,0-.08Z"/><path class="cls-6" d="M727.46,237.78a.41.41,0,0,0,.34.13c.18,0,.36,0,.56,0l.13,1.17-.45.38a5.66,5.66,0,0,1,1.3,0c-.14-.19-.35-.26-.47-.43,0-.39.07-.77.15-1.15l.52,0a.61.61,0,0,0,.5-.26.83.83,0,0,0,0-1.06h0s0-.05,0-.05a.19.19,0,0,0-.16-.1v0s-.06-.06,0-.11l0,0,0,0a.55.55,0,0,0,0-.72c-.11-.3-.37-.29-.62-.26,0-.17,0-.33-.1-.46a.16.16,0,0,0-.1-.15h0c-.22-.19-.25-.19-.47-.06h0c-.28.15-.27.41-.26.67a.34.34,0,0,1-.1,0c-.5-.12-.75.44-.61.79a1.33,1.33,0,0,0,.11.24.79.79,0,0,0-.46.68.19.19,0,0,0,0,.15A.69.69,0,0,0,727.46,237.78Zm2.34-1.27h0Zm.09,0h0Zm-.07,0h0Zm0,0h0Zm0,0h0Zm0,0h0Zm-.13,0v0Zm-.1-.2h0Zm.09-.26h0Zm0,0h0Zm0,0h0Zm0,0v0Zm0,0v0Zm0,.05h0Zm.06-.25Zm0-.39Zm-.24-.16Zm0,0Zm0,0h0Zm-.11,0h0Zm-.28,0h0Zm0,0h0Zm0,0v0Zm0,0v0Zm0,0v0Zm0,0v0Zm0,0c0-.11,0-.23,0-.34h0C729.07,235,729.05,235.12,729.06,235.23Zm-.1-.49Zm0,0h0Zm0,0h0Zm-.16-.08a1.06,1.06,0,0,0-.31,0A1.06,1.06,0,0,1,728.8,234.72Zm-.43.24a3,3,0,0,0-.14.39h0A3,3,0,0,1,728.37,235Zm-.29,2.3h0a.09.09,0,0,0,.1.05h0a.12.12,0,0,0,.1.06,1.65,1.65,0,0,0,.42.21,1.3,1.3,0,0,0,.31-.16h0a.12.12,0,0,0,.1,0,.72.72,0,0,0,.27-.15h0a.17.17,0,0,0,.11-.06h0s.05,0,0,0a.89.89,0,0,0-.21.26h0c-.14.11-.22.28-.36.41h-.58l-.17-.15h0a.05.05,0,0,0,0-.06.07.07,0,0,0,0-.06h0s0-.07-.08-.08a.05.05,0,0,0,0-.06s0-.05,0-.06a.11.11,0,0,0-.07-.08h0s0,0,0-.06l0,0C727.93,237.15,728,237.27,728.08,237.26Z"/><path class="cls-17" d="M878.09,247.79c0-16.8,9.71-18.2,10.67-33.59.89-14.2,0-26.76,15.85-26.76s15,12.56,15.85,26.76c1,15.39,10.67,16.79,10.67,33.59C931.13,283.86,878.09,283.86,878.09,247.79Z"/><line class="cls-18" x1="904.61" y1="208.78" x2="904.61" y2="301.96"/><line class="cls-18" x1="904.61" y1="263.55" x2="921.02" y2="247.14"/><line class="cls-18" x1="904.61" y1="244.87" x2="894.03" y2="234.29"/><line class="cls-18" x1="904.61" y1="258.23" x2="908.86" y2="253.98"/><line class="cls-18" x1="904.61" y1="217.39" x2="902.03" y2="214.81"/><path class="cls-19" d="M1103.81,301.16c-5.35-6.59-14.89-13-25-13a37.09,37.09,0,0,0-12.74,2.3c-5.16-7.16-15.15-12-25.82-12-14.59,0-28.8,11.11-30.34,22.74Z"/><line class="cls-20" x1="1012.27" y1="121.14" x2="1016.51" y2="128.98"/><line class="cls-20" x1="997.41" y1="121.14" x2="993.17" y2="128.98"/><path class="cls-21" d="M994.88,102.58h19.9a0,0,0,0,1,0,0v12a9.95,9.95,0,0,1-9.95,9.95h0a9.95,9.95,0,0,1-9.95-9.95v-12A0,0,0,0,1,994.88,102.58Z"/><polygon class="cls-17" points="993.65 102.58 1016.01 102.58 1004.78 93.31 993.65 102.58"/><line class="cls-20" x1="993.65" y1="106.86" x2="1016.01" y2="106.86"/><line class="cls-20" x1="995.16" y1="120.05" x2="1014.51" y2="120.05"/><rect class="cls-20" x="919.35" y="139.04" width="102.06" height="162.12"/><rect class="cls-20" x="917.39" y="133.73" width="105.98" height="5.31"/><rect class="cls-19" x="1021.41" y="139.04" width="24.29" height="162.12"/><rect class="cls-19" x="1023.37" y="133.73" width="24.29" height="5.31"/><rect class="cls-19" x="1026.15" y="128.43" width="24.29" height="5.31"/><rect class="cls-20" x="914.62" y="128.43" width="111.53" height="5.31"/><rect class="cls-15" x="933.44" y="156.4" width="29.32" height="29.32"/><line class="cls-18" x1="948.1" y1="155.25" x2="948.1" y2="186.89"/><line class="cls-18" x1="963.92" y1="171.07" x2="932.28" y2="171.07"/><rect class="cls-6" x="978.68" y="156.4" width="29.32" height="29.32"/><line class="cls-18" x1="993.34" y1="155.25" x2="993.34" y2="186.89"/><line class="cls-18" x1="1009.16" y1="171.07" x2="977.52" y2="171.07"/><rect class="cls-6" x="933.44" y="199.71" width="29.32" height="29.32"/><line class="cls-18" x1="948.1" y1="198.56" x2="948.1" y2="230.2"/><line class="cls-18" x1="963.92" y1="214.38" x2="932.28" y2="214.38"/><rect class="cls-6" x="928.42" y="255.5" width="44.38" height="29.32"/><line class="cls-18" x1="950.61" y1="254.34" x2="950.61" y2="285.98"/><line class="cls-18" x1="973.95" y1="270.16" x2="927.26" y2="270.16"/><rect class="cls-15" x="978.68" y="199.71" width="29.32" height="29.32"/><line class="cls-18" x1="993.34" y1="198.56" x2="993.34" y2="230.2"/><line class="cls-18" x1="1009.16" y1="214.38" x2="977.52" y2="214.38"/><line class="cls-18" x1="933.44" y1="139.04" x2="933.44" y2="142.8"/><line class="cls-18" x1="951.57" y1="139.04" x2="951.57" y2="142.8"/><line class="cls-18" x1="969.71" y1="139.04" x2="969.71" y2="142.8"/><line class="cls-18" x1="987.84" y1="139.04" x2="987.84" y2="142.8"/><line class="cls-18" x1="1005.97" y1="139.04" x2="1005.97" y2="142.8"/><rect class="cls-18" x="973.59" y="294.25" width="38.63" height="6.92"/><rect class="cls-18" x="979.38" y="289.33" width="32.84" height="4.92"/><rect class="cls-18" x="984.69" y="284.41" width="27.53" height="4.92"/><rect class="cls-19" x="999.05" y="294.25" width="17.36" height="6.92"/><rect class="cls-19" x="1004.84" y="289.33" width="11.58" height="4.92"/><rect class="cls-19" x="1010.15" y="284.41" width="6.26" height="4.92"/><path class="cls-17" d="M1001.07,238.83h0a13.88,13.88,0,0,1,13.88,13.88v31.7a0,0,0,0,1,0,0H987.19a0,0,0,0,1,0,0v-31.7A13.88,13.88,0,0,1,1001.07,238.83Z"/><path class="cls-15" d="M1001.07,244.19h0a9.08,9.08,0,0,1,9.08,9.08v25.94a0,0,0,0,1,0,0H992a0,0,0,0,1,0,0V253.28A9.08,9.08,0,0,1,1001.07,244.19Z"/><polygon class="cls-21" points="912.93 265.86 912.93 258.99 927.67 247.94 979.38 247.94 979.38 265.86 912.93 265.86"/><polyline class="cls-18" points="968.71 247.94 953.97 258.99 953.97 265.86"/><polyline class="cls-18" points="958.04 247.94 943.3 258.99 943.3 265.86"/><polyline class="cls-18" points="947.37 247.94 932.63 258.99 932.63 265.86"/><polyline class="cls-18" points="936.7 247.94 921.96 258.99 921.96 265.86"/><polygon class="cls-19" points="979.38 247.94 964.64 258.99 964.64 265.86 979.38 265.86 979.38 247.94"/><polygon class="cls-8" points="917.39 133.73 1023.37 133.73 917.39 135.54 917.39 133.73"/><polygon class="cls-8" points="919.35 139.04 1021.41 139.04 919.35 140.85 919.35 139.04"/><polygon class="cls-8" points="914.62 128.43 1026.15 128.43 914.62 130.24 914.62 128.43"/><line class="cls-17" x1="1001.07" y1="244.19" x2="1001.07" y2="279.22"/><line class="cls-17" x1="991.98" y1="257.91" x2="1010.15" y2="257.91"/><line class="cls-17" x1="991.98" y1="268.95" x2="1010.15" y2="268.95"/><circle class="cls-8" cx="1012.22" cy="264.27" r="1.06"/><rect class="cls-16" x="925.68" y="149.52" width="3.15" height="3.15"/><rect class="cls-16" x="921.96" y="156.4" width="3.15" height="3.15"/><rect class="cls-16" x="925.68" y="162.47" width="3.15" height="3.15"/><rect class="cls-16" x="925.68" y="185.31" width="3.15" height="3.15"/><rect class="cls-16" x="964.64" y="192.25" width="3.15" height="3.15"/><rect class="cls-16" x="1009.58" y="178.48" width="3.15" height="3.15"/><rect class="cls-16" x="1013.28" y="194.23" width="3.15" height="3.15"/><rect class="cls-16" x="1012.22" y="201.23" width="3.15" height="3.15"/><rect class="cls-16" x="959.76" y="290.21" width="3.15" height="3.15"/><rect class="cls-16" x="964.64" y="287.75" width="3.15" height="3.15"/><rect class="cls-16" x="922.53" y="279.81" width="3.15" height="3.15"/><rect class="cls-16" x="967.13" y="183.73" width="3.15" height="3.15"/><rect class="cls-16" x="938.42" y="237.25" width="3.15" height="3.15"/><rect class="cls-16" x="943.3" y="232.49" width="3.15" height="3.15"/><rect class="cls-16" x="954.88" y="240.55" width="3.15" height="3.15"/><line class="cls-18" x1="1060.85" y1="301.16" x2="1060.85" y2="245.97"/><polygon class="cls-17" points="1062.65 245.97 1059.05 245.97 1053.87 232.25 1067.82 232.25 1062.65 245.97"/><line class="cls-18" x1="1053.01" y1="232.25" x2="1068.69" y2="232.25"/><line class="cls-18" x1="1058.19" y1="245.97" x2="1063.51" y2="245.97"/><polygon class="cls-21" points="1067.82 232.25 1053.87 232.25 1058.19 226.6 1063.51 226.6 1067.82 232.25"/><line class="cls-18" x1="1057.32" y1="226.6" x2="1064.37" y2="226.6"/><path class="cls-20" d="M1060.85,224.17h0a1.67,1.67,0,0,1,1.67,1.67v.77a0,0,0,0,1,0,0h-3.34a0,0,0,0,1,0,0v-.77a1.67,1.67,0,0,1,1.67-1.67Z"/><line class="cls-18" x1="1060.85" y1="231.39" x2="1060.85" y2="245.97"/><line class="cls-18" x1="1055.21" y1="238.38" x2="1066.49" y2="238.38"/><rect class="cls-22" x="414.5" y="65.57" width="4.14" height="11.71"/><polygon class="cls-8" points="414.62 66.22 418.8 67.37 418.8 65.7 414.62 65.7 414.62 66.22"/><rect class="cls-23" x="418.64" y="65.57" width="2.23" height="11.71"/><rect class="cls-10" x="414.82" y="63.43" width="7.96" height="2.93" rx="0.5"/><rect class="cls-11" x="412.59" y="63.43" width="7.96" height="2.93" rx="0.5"/><rect class="cls-23" x="386.21" y="79.89" width="113.22" height="230.01"/><rect class="cls-24" x="386.21" y="79.89" width="113.22" height="230.01"/><line class="cls-22" x1="385.08" y1="115.52" x2="500.57" y2="115.52"/><rect class="cls-23" x="385.08" y="76.67" width="115.49" height="3.22"/><line class="cls-22" x1="385.08" y1="151.14" x2="500.57" y2="151.14"/><line class="cls-22" x1="385.08" y1="186.76" x2="500.57" y2="186.76"/><line class="cls-22" x1="385.08" y1="222.38" x2="500.57" y2="222.38"/><line class="cls-22" x1="385.08" y1="258" x2="500.57" y2="258"/><rect class="cls-25" x="407.83" y="79.89" width="131.5" height="230.01"/><rect class="cls-24" x="407.83" y="79.89" width="131.5" height="230.01"/><path class="cls-6" d="M423.94,87.66h0a5.74,5.74,0,0,1,5.74,5.74v12.05a0,0,0,0,1,0,0H418.2a0,0,0,0,1,0,0V93.4A5.74,5.74,0,0,1,423.94,87.66Z"/><line class="cls-24" x1="417.69" y1="105.45" x2="430.19" y2="105.45"/><line class="cls-24" x1="417.69" y1="92.43" x2="430.19" y2="92.43"/><path class="cls-6" d="M448.76,87.66h0a5.74,5.74,0,0,1,5.74,5.74v12.05a0,0,0,0,1,0,0H443a0,0,0,0,1,0,0V93.4A5.74,5.74,0,0,1,448.76,87.66Z"/><line class="cls-24" x1="442.51" y1="105.45" x2="455.01" y2="105.45"/><line class="cls-24" x1="442.51" y1="92.43" x2="455.01" y2="92.43"/><path class="cls-6" d="M473.58,87.66h0a5.74,5.74,0,0,1,5.74,5.74v12.05a0,0,0,0,1,0,0H467.84a0,0,0,0,1,0,0V93.4a5.74,5.74,0,0,1,5.74-5.74Z"/><line class="cls-24" x1="467.33" y1="105.45" x2="479.83" y2="105.45"/><line class="cls-24" x1="467.33" y1="92.43" x2="479.83" y2="92.43"/><path class="cls-6" d="M498.4,87.66h0a5.74,5.74,0,0,1,5.74,5.74v12.05a0,0,0,0,1,0,0H492.67a0,0,0,0,1,0,0V93.4A5.74,5.74,0,0,1,498.4,87.66Z"/><line class="cls-24" x1="492.15" y1="105.45" x2="504.66" y2="105.45"/><line class="cls-24" x1="492.15" y1="92.43" x2="504.66" y2="92.43"/><line class="cls-22" x1="406.69" y1="115.52" x2="540.47" y2="115.52"/><rect class="cls-22" x="406.69" y="76.67" width="133.78" height="3.22"/><path class="cls-6" d="M423.94,123.28h0a5.74,5.74,0,0,1,5.74,5.74v12.05a0,0,0,0,1,0,0H418.2a0,0,0,0,1,0,0V129A5.74,5.74,0,0,1,423.94,123.28Z"/><line class="cls-24" x1="417.69" y1="141.08" x2="430.19" y2="141.08"/><line class="cls-24" x1="417.69" y1="128.05" x2="430.19" y2="128.05"/><path class="cls-6" d="M448.76,123.28h0A5.74,5.74,0,0,1,454.5,129v12.05a0,0,0,0,1,0,0H443a0,0,0,0,1,0,0V129A5.74,5.74,0,0,1,448.76,123.28Z"/><line class="cls-24" x1="442.51" y1="141.08" x2="455.01" y2="141.08"/><line class="cls-24" x1="442.51" y1="128.05" x2="455.01" y2="128.05"/><path class="cls-6" d="M473.58,123.28h0a5.74,5.74,0,0,1,5.74,5.74v12.05a0,0,0,0,1,0,0H467.84a0,0,0,0,1,0,0V129A5.74,5.74,0,0,1,473.58,123.28Z"/><line class="cls-24" x1="467.33" y1="141.08" x2="479.83" y2="141.08"/><line class="cls-24" x1="467.33" y1="128.05" x2="479.83" y2="128.05"/><path class="cls-6" d="M498.4,123.28h0a5.74,5.74,0,0,1,5.74,5.74v12.05a0,0,0,0,1,0,0H492.67a0,0,0,0,1,0,0V129A5.74,5.74,0,0,1,498.4,123.28Z"/><line class="cls-24" x1="492.15" y1="141.08" x2="504.66" y2="141.08"/><line class="cls-24" x1="492.15" y1="128.05" x2="504.66" y2="128.05"/><line class="cls-22" x1="406.69" y1="151.14" x2="540.47" y2="151.14"/><path class="cls-6" d="M423.94,158.91h0a5.74,5.74,0,0,1,5.74,5.74V176.7a0,0,0,0,1,0,0H418.2a0,0,0,0,1,0,0V164.64A5.74,5.74,0,0,1,423.94,158.91Z"/><line class="cls-24" x1="417.69" y1="176.7" x2="430.19" y2="176.7"/><line class="cls-24" x1="417.69" y1="163.68" x2="430.19" y2="163.68"/><path class="cls-6" d="M448.76,158.91h0a5.74,5.74,0,0,1,5.74,5.74V176.7a0,0,0,0,1,0,0H443a0,0,0,0,1,0,0V164.64A5.74,5.74,0,0,1,448.76,158.91Z"/><line class="cls-24" x1="442.51" y1="176.7" x2="455.01" y2="176.7"/><line class="cls-24" x1="442.51" y1="163.68" x2="455.01" y2="163.68"/><path class="cls-6" d="M473.58,158.91h0a5.74,5.74,0,0,1,5.74,5.74V176.7a0,0,0,0,1,0,0H467.84a0,0,0,0,1,0,0V164.64A5.74,5.74,0,0,1,473.58,158.91Z"/><line class="cls-24" x1="467.33" y1="176.7" x2="479.83" y2="176.7"/><line class="cls-24" x1="467.33" y1="163.68" x2="479.83" y2="163.68"/><path class="cls-6" d="M498.4,158.91h0a5.74,5.74,0,0,1,5.74,5.74V176.7a0,0,0,0,1,0,0H492.67a0,0,0,0,1,0,0V164.64A5.74,5.74,0,0,1,498.4,158.91Z"/><line class="cls-24" x1="492.15" y1="176.7" x2="504.66" y2="176.7"/><line class="cls-24" x1="492.15" y1="163.68" x2="504.66" y2="163.68"/><line class="cls-22" x1="406.69" y1="186.76" x2="540.47" y2="186.76"/><path class="cls-6" d="M423.94,194.53h0a5.74,5.74,0,0,1,5.74,5.74v12.05a0,0,0,0,1,0,0H418.2a0,0,0,0,1,0,0V200.26A5.74,5.74,0,0,1,423.94,194.53Z"/><line class="cls-24" x1="417.69" y1="212.32" x2="430.19" y2="212.32"/><line class="cls-24" x1="417.69" y1="199.3" x2="430.19" y2="199.3"/><path class="cls-6" d="M448.76,194.53h0a5.74,5.74,0,0,1,5.74,5.74v12.05a0,0,0,0,1,0,0H443a0,0,0,0,1,0,0V200.26A5.74,5.74,0,0,1,448.76,194.53Z"/><line class="cls-24" x1="442.51" y1="212.32" x2="455.01" y2="212.32"/><line class="cls-24" x1="442.51" y1="199.3" x2="455.01" y2="199.3"/><path class="cls-6" d="M473.58,194.53h0a5.74,5.74,0,0,1,5.74,5.74v12.05a0,0,0,0,1,0,0H467.84a0,0,0,0,1,0,0V200.26A5.74,5.74,0,0,1,473.58,194.53Z"/><line class="cls-24" x1="467.33" y1="212.32" x2="479.83" y2="212.32"/><line class="cls-24" x1="467.33" y1="199.3" x2="479.83" y2="199.3"/><path class="cls-6" d="M498.4,194.53h0a5.74,5.74,0,0,1,5.74,5.74v12.05a0,0,0,0,1,0,0H492.67a0,0,0,0,1,0,0V200.26a5.74,5.74,0,0,1,5.74-5.74Z"/><line class="cls-24" x1="492.15" y1="212.32" x2="504.66" y2="212.32"/><line class="cls-24" x1="492.15" y1="199.3" x2="504.66" y2="199.3"/><line class="cls-22" x1="406.69" y1="222.38" x2="540.47" y2="222.38"/><path class="cls-6" d="M423.94,230.15h0a5.74,5.74,0,0,1,5.74,5.74v12.05a0,0,0,0,1,0,0H418.2a0,0,0,0,1,0,0V235.89A5.74,5.74,0,0,1,423.94,230.15Z"/><line class="cls-24" x1="417.69" y1="247.94" x2="430.19" y2="247.94"/><line class="cls-24" x1="417.69" y1="234.92" x2="430.19" y2="234.92"/><path class="cls-6" d="M448.76,230.15h0a5.74,5.74,0,0,1,5.74,5.74v12.05a0,0,0,0,1,0,0H443a0,0,0,0,1,0,0V235.89A5.74,5.74,0,0,1,448.76,230.15Z"/><line class="cls-24" x1="442.51" y1="247.94" x2="455.01" y2="247.94"/><line class="cls-24" x1="442.51" y1="234.92" x2="455.01" y2="234.92"/><path class="cls-6" d="M473.58,230.15h0a5.74,5.74,0,0,1,5.74,5.74v12.05a0,0,0,0,1,0,0H467.84a0,0,0,0,1,0,0V235.89A5.74,5.74,0,0,1,473.58,230.15Z"/><line class="cls-24" x1="467.33" y1="247.94" x2="479.83" y2="247.94"/><line class="cls-24" x1="467.33" y1="234.92" x2="479.83" y2="234.92"/><path class="cls-6" d="M498.4,230.15h0a5.74,5.74,0,0,1,5.74,5.74v12.05a0,0,0,0,1,0,0H492.67a0,0,0,0,1,0,0V235.89A5.74,5.74,0,0,1,498.4,230.15Z"/><line class="cls-24" x1="492.15" y1="247.94" x2="504.66" y2="247.94"/><line class="cls-24" x1="492.15" y1="234.92" x2="504.66" y2="234.92"/><path class="cls-6" d="M423.94,265.86h0a5.74,5.74,0,0,1,5.74,5.74v12.05a0,0,0,0,1,0,0H418.2a0,0,0,0,1,0,0V271.6A5.74,5.74,0,0,1,423.94,265.86Z"/><line class="cls-24" x1="417.69" y1="283.65" x2="430.19" y2="283.65"/><line class="cls-24" x1="417.69" y1="270.63" x2="430.19" y2="270.63"/><path class="cls-6" d="M448.76,265.86h0a5.74,5.74,0,0,1,5.74,5.74v12.05a0,0,0,0,1,0,0H443a0,0,0,0,1,0,0V271.6A5.74,5.74,0,0,1,448.76,265.86Z"/><line class="cls-24" x1="442.51" y1="283.65" x2="455.01" y2="283.65"/><line class="cls-24" x1="442.51" y1="270.63" x2="455.01" y2="270.63"/><path class="cls-6" d="M473.58,265.86h0a5.74,5.74,0,0,1,5.74,5.74v12.05a0,0,0,0,1,0,0H467.84a0,0,0,0,1,0,0V271.6A5.74,5.74,0,0,1,473.58,265.86Z"/><line class="cls-24" x1="467.33" y1="283.65" x2="479.83" y2="283.65"/><line class="cls-24" x1="467.33" y1="270.63" x2="479.83" y2="270.63"/><path class="cls-6" d="M498.4,265.86h0a5.74,5.74,0,0,1,5.74,5.74v12.05a0,0,0,0,1,0,0H492.67a0,0,0,0,1,0,0V271.6A5.74,5.74,0,0,1,498.4,265.86Z"/><line class="cls-24" x1="492.15" y1="283.65" x2="504.66" y2="283.65"/><line class="cls-24" x1="492.15" y1="270.63" x2="504.66" y2="270.63"/><path class="cls-6" d="M523.22,87.66h0A5.74,5.74,0,0,1,529,93.4v12.05a0,0,0,0,1,0,0H517.49a0,0,0,0,1,0,0V93.4a5.74,5.74,0,0,1,5.74-5.74Z"/><line class="cls-24" x1="516.97" y1="105.45" x2="529.48" y2="105.45"/><line class="cls-24" x1="516.97" y1="92.43" x2="529.48" y2="92.43"/><path class="cls-6" d="M523.22,123.28h0A5.74,5.74,0,0,1,529,129v12.05a0,0,0,0,1,0,0H517.49a0,0,0,0,1,0,0V129a5.74,5.74,0,0,1,5.74-5.74Z"/><line class="cls-24" x1="516.97" y1="141.08" x2="529.48" y2="141.08"/><line class="cls-24" x1="516.97" y1="128.05" x2="529.48" y2="128.05"/><path class="cls-6" d="M523.22,158.91h0a5.74,5.74,0,0,1,5.74,5.74V176.7a0,0,0,0,1,0,0H517.49a0,0,0,0,1,0,0V164.64A5.74,5.74,0,0,1,523.22,158.91Z"/><line class="cls-24" x1="516.97" y1="176.7" x2="529.48" y2="176.7"/><line class="cls-24" x1="516.97" y1="163.68" x2="529.48" y2="163.68"/><path class="cls-6" d="M523.22,194.53h0a5.74,5.74,0,0,1,5.74,5.74v12.05a0,0,0,0,1,0,0H517.49a0,0,0,0,1,0,0V200.26A5.74,5.74,0,0,1,523.22,194.53Z"/><line class="cls-24" x1="516.97" y1="212.32" x2="529.48" y2="212.32"/><line class="cls-24" x1="516.97" y1="199.3" x2="529.48" y2="199.3"/><path class="cls-6" d="M523.22,230.15h0a5.74,5.74,0,0,1,5.74,5.74v12.05a0,0,0,0,1,0,0H517.49a0,0,0,0,1,0,0V235.89A5.74,5.74,0,0,1,523.22,230.15Z"/><line class="cls-24" x1="516.97" y1="247.94" x2="529.48" y2="247.94"/><line class="cls-24" x1="516.97" y1="234.92" x2="529.48" y2="234.92"/><path class="cls-6" d="M523.22,265.86h0A5.74,5.74,0,0,1,529,271.6v12.05a0,0,0,0,1,0,0H517.49a0,0,0,0,1,0,0V271.6A5.74,5.74,0,0,1,523.22,265.86Z"/><line class="cls-24" x1="516.97" y1="283.65" x2="529.48" y2="283.65"/><line class="cls-24" x1="516.97" y1="270.63" x2="529.48" y2="270.63"/><line class="cls-22" x1="406.69" y1="258" x2="540.47" y2="258"/><polygon class="cls-8" points="539.33 79.89 407.83 81.69 407.83 79.89 539.33 79.89"/><polygon class="cls-8" points="406.69 76.67 406.69 78.28 539.87 76.67 406.69 76.67"/><path class="cls-11" d="M294.94,109.19c12.83,6.23,25.66-6.24,38.49,0v-26c-12.83-6.24-25.66,6.24-38.49,0Z"/><path class="cls-6" d="M321.2,86c.18.72.33,1.36.49,2-.51.54-1,1.08-1.53,1.64-.19-.56-.27-1.22-.47-1.88Z"/><path class="cls-6" d="M315.34,88.12c-.36.7-.62,1.39-1,2.1-.35-.57-.68-1.09-1-1.62l1-2.13C314.68,87,315,87.55,315.34,88.12Z"/><path class="cls-6" d="M308.52,92.3c-.52-.4-1-.79-1.52-1.2.15-.7.29-1.39.47-2.08l1.48,1.2C308.85,90.89,308.68,91.6,308.52,92.3Z"/><path class="cls-6" d="M303.68,93.57c0,.62.07,1.19.05,1.78-.63-.9-1.22-1.85-1.85-2.8C302.51,92.86,303.08,93.23,303.68,93.57Z"/><path class="cls-6" d="M327,89c-.29.52-.71,1-1,1.48-.21.36-.44.71-.66,1.07a.48.48,0,0,1-.17.18c0-.62.06-1.21.09-1.83A10.92,10.92,0,0,1,327,89Z"/><polygon class="cls-6" points="326.97 88.95 326.97 88.95 326.98 88.94 326.97 88.95"/><path class="cls-6" d="M318.6,102.21a11.82,11.82,0,0,1-1.59.88,13.31,13.31,0,0,1-4.71,1.25,4.24,4.24,0,0,1-3.16-.68,8.77,8.77,0,0,0-1.63,1.46c-.19.14-.07.24,0,.34a.11.11,0,0,0,.07.11h0a.27.27,0,0,0,.13.18l0,.06a.08.08,0,0,0,.07.07.23.23,0,0,0,.12.12l0,0,0,0,.06,0h0l.06,0h0a.08.08,0,0,0,.07,0h0a.77.77,0,0,0,.35.23,0,0,0,0,0,0,0,.09.09,0,0,0,.09,0s.07,0,.12,0a.07.07,0,0,0,.08,0,.37.37,0,0,0,.25.09s0,0,.08,0h0a.12.12,0,0,0,.13,0h0a.12.12,0,0,0,.13,0h0a.12.12,0,0,0,.13,0h0s.06,0,.1,0h0a2.76,2.76,0,0,0,1,.16.15.15,0,0,0,.13,0,9,9,0,0,0,2.8-.21l.2,0a5.72,5.72,0,0,0,1-.24,1.07,1.07,0,0,0,.45-.14,6.48,6.48,0,0,0,1.18-.38.19.19,0,0,0,.13-.06,1.85,1.85,0,0,0,.63-.28h0a6.63,6.63,0,0,0,1.46-.78,5.74,5.74,0,0,0,2.63-2.57,4.43,4.43,0,0,0-1.78-1A3.85,3.85,0,0,1,318.6,102.21Z"/><path class="cls-6" d="M308,96.46a.33.33,0,0,0-.16.17v0a1,1,0,0,0,0,1.21h0a.35.35,0,0,0,.26.21h0c.32.19.64,0,1-.16h0c.1,0,.19-.09.31-.07l.53,1.23c-.11.26-.3.44-.39.67l0,.05s.05,0,.07,0a8.38,8.38,0,0,1,1.55-.69c-.25-.14-.52-.11-.72-.22-.07-.47-.18-.94-.21-1.42l.67-.37a1,1,0,0,0,.12-1.73c-.11-.12-.29-.08-.45-.12.16-.53.09-.78-.26-1a.39.39,0,0,0-.43-.06c-.14,0-.23.17-.37.18h0a.56.56,0,0,0-.18-.42s0-.06-.06-.07a.07.07,0,0,0-.07-.05h0c-.33-.17-.51-.12-.73.21h0c-.24.3-.11.58-.08.86-.2.11-.45.1-.56.36a1.22,1.22,0,0,0,.24-.1,1.22,1.22,0,0,1-.24.1s0,0,0,0a.69.69,0,0,0-.06.77h0a.23.23,0,0,0,.12.19h0c0,.1.18.09.15.22Zm.45-1.59s0,0,0,0S308.47,94.86,308.48,94.87Zm0-.06v0Zm0-.07h0Zm0-.06Zm.07.3h0Zm0-.07v0A0,0,0,0,1,308.49,94.91Zm1.83-.66Zm-.73.21.08,0-.08,0h0Zm.1,2.77a1,1,0,0,0,.24-.27.11.11,0,0,0,.07-.08.11.11,0,0,0,.07-.08.38.38,0,0,0,.14-.14h0a.27.27,0,0,0,.1-.11h0a1.14,1.14,0,0,0,.27-.31h0c.09.07-.06.17,0,.24h0a1.61,1.61,0,0,0-.21.49h0l-.2.42a4.13,4.13,0,0,1-.71.33l-.29-.1h0a.06.06,0,0,0-.08,0h0s-.06-.06-.12-.06a.39.39,0,0,0-.26-.14.05.05,0,0,0-.07,0c0-.07-.15,0-.07-.13a5.08,5.08,0,0,0,.78,0h0C309.46,97.26,309.59,97.22,309.69,97.23Zm-.35-3.1v0Zm0-.19Zm-.06-.06Zm.06.25s0,0,0,0S309.34,94.14,309.34,94.13Zm0,0v0Zm0,0v0Zm0,0v0Zm0,0h0Zm0,0v0S309.39,94.28,309.39,94.27Zm0,0h0Zm0,0h0Zm.05,0h0Zm0,0h0Zm-.24-.51h0a6.44,6.44,0,0,0-.72.2A6.44,6.44,0,0,1,309.21,93.82Z"/><path class="cls-6" d="M310.45,102.49a17.43,17.43,0,0,1,6.82-1.84,5.9,5.9,0,0,1,3.81,1,.29.29,0,0,0,.21.08,1.16,1.16,0,0,0-.4-.66,3.74,3.74,0,0,0-1.85-.78,11.61,11.61,0,0,0-5.23.39,17.26,17.26,0,0,0-4.45,1.93,6.33,6.33,0,0,0-1.57,1.3,1.2,1.2,0,0,0-.35.73.63.63,0,0,0,.28-.22A10.55,10.55,0,0,1,310.45,102.49Z"/><path class="cls-6" d="M323.5,94.11a.69.69,0,0,0-.88,0,.84.84,0,0,0-.23.87.76.76,0,0,0-.82.44.79.79,0,0,0,0,.69.11.11,0,0,0,.06.13.06.06,0,0,0,.05.07h0l.06.06h0l.06,0h0a.09.09,0,0,0,.08,0,.07.07,0,0,0,.07,0s0,0,.08,0h0a.41.41,0,0,0,.24.13h0c.06.1.22.1.29.25-.14.4-.21.84-.37,1.25a2.8,2.8,0,0,0-.67.23,1.72,1.72,0,0,1,.67.35c.19-.63.39-1.23.62-1.86-.19,0-.19-.15-.23-.28a2.12,2.12,0,0,0-.29-.65s0,0,0,0,0-.1,0-.15a5.52,5.52,0,0,1,.69.68c.4-1,.85-2,1.3-2.94C323.82,93.5,323.65,93.8,323.5,94.11Z"/><path class="cls-6" d="M306.42,99.9c.05,0,.1,0,.12-.1a1.13,1.13,0,0,0,.65-1.07.55.55,0,0,0-.7-.55c-.07,0-.15.08-.21,0,.06-.3.06-.59-.21-.76a.72.72,0,0,0-.88.14c-.28-.45-.41-.53-.75-.43.45.9.88,1.79,1.28,2.72a7.35,7.35,0,0,1,.67-.79v.15a1.25,1.25,0,0,0-.18.45h0c-.14.2-.06.49-.33.63.23.56.42,1.12.62,1.72a2.28,2.28,0,0,1,.65-.56,4.91,4.91,0,0,0-.67,0c-.13-.4-.26-.8-.35-1.21C306.23,100.06,306.36,100,306.42,99.9Z"/><path class="cls-6" d="M317.66,95.4h0a6,6,0,0,0,.8.14L318.25,97c-.22.21-.5.28-.7.53a4.76,4.76,0,0,1,1.64.08l-.49-.56.55-1.49a3.53,3.53,0,0,1,.57,0,.94.94,0,0,0,.87-.36h0a.53.53,0,0,0,.17-.25.16.16,0,0,0,.06-.14s0,0,0,0a.8.8,0,0,0-.21-1,.05.05,0,0,0-.07,0c0-.15.21-.2.21-.35a.08.08,0,0,0,.05-.09h0a.6.6,0,0,0,0-.68s0,0,0,0,0-.1-.07-.12h0s0,0,0,0,0,0,0,0a.05.05,0,0,0-.06-.06c-.12-.18-.35-.06-.52-.13a1.23,1.23,0,0,0,.08-.49.47.47,0,0,0-.32-.49.53.53,0,0,0-.55.22.11.11,0,0,0-.07.08.1.1,0,0,0-.06.09c-.14.15-.13.35-.22.52a.64.64,0,0,0-.76.18.4.4,0,0,0-.19.25h0a.87.87,0,0,0-.07.86.86.86,0,0,0-.45.29.1.1,0,0,0-.07.07.13.13,0,0,0-.07.09.92.92,0,0,0-.25.45C317.13,94.89,317.27,95.28,317.66,95.4Zm2.43-3.09a.11.11,0,0,1,0-.07.11.11,0,0,0,0,.07Zm.08.11-.05,0Zm.12,0h0Zm0,0h0Zm0,0h0Zm0,0h0Zm.23,2.16h0l0,0Zm.18-2.17Zm-1.54-.25v0Zm-.52.12h0Zm.39,0h0Zm-.05,0h0Zm-.05,0h0Zm0,0h0Zm-.05,0h0Zm0,0h0Zm-.05,0h0Zm-.05,0h0Zm-.1,0h0Zm-.31.11h0l.1,0-.1,0Zm.26-.1h0Zm-.05,0-.05,0Zm-.05,0,0,0Zm-.35.31h0Zm-.1,1.91v0l.54.36.36.24c.42-.11.8-.35,1.21-.44l-.12.14a.08.08,0,0,0-.07.07.12.12,0,0,0-.08.06c-.05,0-.09,0-.11.11a.1.1,0,0,0-.08.07h0l-.45.37a3.55,3.55,0,0,1-.73,0l-.23-.39a.39.39,0,0,0-.12-.24s0-.1-.06-.12a.05.05,0,0,0,0,0s0-.08,0-.09A0,0,0,0,1,318.08,94.53Z"/><path class="cls-6" d="M312.78,96.3c.11.12.28.09.44.06s.45-.08.7-.13c.05.49.11,1,.17,1.44l-.58.62a6.79,6.79,0,0,1,1.64-.36c-.17-.2-.44-.23-.58-.4.06-.51.08-1,.18-1.51l.66-.19a1.08,1.08,0,0,0,.64-.48A1,1,0,0,0,316,94h0s0,0-.07,0a.19.19,0,0,0-.2-.09.07.07,0,0,0,0,0,.43.43,0,0,1,0,0s-.07,0-.07-.11l0,0,0,0c.23-.34.3-.66.07-.93s-.46-.26-.79-.14c0-.2,0-.42-.12-.55a.14.14,0,0,0-.13-.16h0c-.27-.16-.31-.16-.59.07h0a1,1,0,0,0-.32.93l-.13,0a.92.92,0,0,0-.78,1.19c0,.09.1.18.14.27a1.32,1.32,0,0,0-.58,1,.67.67,0,0,0,0,.2A.65.65,0,0,0,312.78,96.3Zm3-2.32h0Zm.12,0h0Zm-.1,0h0Zm0,0h0Zm0,0h0Zm.07,0h0Zm-.16,0v0S315.72,94,315.73,94Zm-.13-.22v0Zm.11-.36v0Zm0,0v0Zm0,.06v0Zm0,0s0,0,0,0S315.68,93.56,315.68,93.55Zm0,0a0,0,0,0,1,0,0A0,0,0,0,0,315.66,93.6Zm0,.08h0Zm.07-.33Zm0-.5Zm-.3-.12Zm0,0Zm0,0h0Zm-.14,0-.08,0Zm-.35.1h0Zm0,0a0,0,0,0,0,0,0Zm0,0a0,0,0,0,0,0,0Zm0,0v0A0,0,0,0,0,314.83,92.71Zm0,0v0A0,0,0,0,0,314.82,92.67Zm0,0a0,0,0,0,1,0,0S314.81,92.62,314.81,92.63Zm0,0c0-.14,0-.29,0-.43h0C314.82,92.3,314.79,92.45,314.8,92.59Zm-.13-.59Zm0,0v0Zm0,0h0Zm-.2,0a1.29,1.29,0,0,0-.39,0A1.33,1.33,0,0,1,314.47,92Zm-.54.44a4.68,4.68,0,0,0-.17.53h0A3.27,3.27,0,0,1,313.93,92.47Zm-.37,3h0a.11.11,0,0,0,.13,0h0a.13.13,0,0,0,.13,0,1.54,1.54,0,0,0,.52.14,1.68,1.68,0,0,0,.39-.3h0a.2.2,0,0,0,.13-.1,1.15,1.15,0,0,0,.33-.26h0a.21.21,0,0,0,.14-.1.05.05,0,0,0,.05,0s.05,0,.05.05a1.17,1.17,0,0,0-.26.38h0c-.19.19-.29.43-.47.64l-.73.17-.21-.14h0s0,0-.06-.06,0,0,0-.06h0s0-.08-.09-.08,0-.06-.06,0,0-.06-.06-.07a.11.11,0,0,0-.09-.08h0s0,0-.06,0l-.05-.06C313.37,95.37,313.45,95.49,313.56,95.46Z"/><polygon class="cls-19" points="288.82 133.03 166.19 193.95 166.19 193.95 166.19 234.06 166.19 238.36 166.19 309.52 411.44 309.52 411.44 238.36 411.44 234.06 411.44 193.95 288.82 133.03"/><polygon class="cls-19" points="267.91 189.52 167.85 189.52 163.19 189.52 163.19 184.83 288.23 124.12 289.13 124.12 333.33 124.07 333.33 162.96 267.91 189.52"/><polyline class="cls-19" points="288.54 133.53 165.92 194.45 161.18 194.45 161.18 189.68 288.22 128.05 289.14 128.05 416.18 189.68 416.18 194.45 411.44 194.45 288.82 133.53"/><polygon class="cls-25" points="333.43 133.03 210.8 193.95 210.8 193.95 210.8 234.06 210.8 238.36 210.8 309.52 456.05 309.52 456.05 238.36 456.05 234.06 456.05 193.95 333.43 133.03"/><rect class="cls-16" x="377.7" y="284.77" width="8.63" height="3.84"/><rect class="cls-16" x="258.94" y="217.02" width="8.63" height="3.84"/><rect class="cls-16" x="410.6" y="203.03" width="8.63" height="3.84"/><rect class="cls-16" x="402.79" y="209.69" width="8.63" height="3.84"/><rect class="cls-16" x="419.23" y="281.37" width="8.63" height="3.84"/><rect class="cls-16" x="288.68" y="183.45" width="8.63" height="3.84"/><rect class="cls-16" x="234.73" y="280.6" width="8.63" height="3.84"/><rect class="cls-16" x="239.4" y="195.82" width="8.63" height="3.84"/><rect class="cls-16" x="328.18" y="152.8" width="8.63" height="3.84"/><rect class="cls-16" x="251.45" y="190.47" width="8.63" height="3.84"/><rect class="cls-16" x="406.29" y="185.79" width="8.63" height="3.84"/><rect class="cls-16" x="294.94" y="190.35" width="8.63" height="3.84"/><rect class="cls-16" x="370.85" y="203.81" width="8.63" height="3.84"/><rect class="cls-16" x="363.12" y="194.32" width="8.63" height="3.84"/><rect class="cls-16" x="369.19" y="187.54" width="8.63" height="3.84"/><rect class="cls-16" x="228.53" y="242.84" width="8.63" height="3.84"/><rect class="cls-16" x="298.85" y="269.49" width="8.63" height="3.84"/><rect class="cls-16" x="377.91" y="228.62" width="8.63" height="3.84"/><rect class="cls-16" x="263.83" y="292.45" width="8.63" height="3.84"/><rect class="cls-16" x="274.83" y="289.03" width="8.63" height="3.84"/><rect class="cls-16" x="384.82" y="278.68" width="8.63" height="3.84"/><rect class="cls-6" x="313.11" y="239.46" width="40.08" height="70.07"/><line class="cls-18" x1="311.71" y1="249.17" x2="354.59" y2="249.17"/><line class="cls-18" x1="311.71" y1="239.46" x2="354.59" y2="239.46"/><line class="cls-18" x1="333.15" y1="249.17" x2="333.15" y2="309.52"/><rect class="cls-25" x="318.02" y="255.92" width="8.54" height="27.37"/><rect class="cls-25" x="339.78" y="255.92" width="8.54" height="27.37"/><line class="cls-18" x1="321.13" y1="249.17" x2="321.13" y2="239.46"/><line class="cls-18" x1="329.14" y1="249.17" x2="329.14" y2="239.46"/><line class="cls-18" x1="337.16" y1="249.17" x2="337.16" y2="239.46"/><line class="cls-18" x1="345.17" y1="249.17" x2="345.17" y2="239.46"/><path class="cls-17" d="M243.72,225.28h0a10.87,10.87,0,0,1,10.87,10.87v34.27a0,0,0,0,1,0,0H232.85a0,0,0,0,1,0,0V236.15A10.87,10.87,0,0,1,243.72,225.28Z"/><path class="cls-15" d="M243.72,229.48h0a7.12,7.12,0,0,1,7.12,7.12v29.58a0,0,0,0,1,0,0H236.6a0,0,0,0,1,0,0V236.6A7.12,7.12,0,0,1,243.72,229.48Z"/><line class="cls-17" x1="243.72" y1="229.48" x2="243.72" y2="266.18"/><line class="cls-17" x1="236.6" y1="240.23" x2="250.83" y2="240.23"/><line class="cls-17" x1="236.6" y1="248.88" x2="250.83" y2="248.88"/><line class="cls-17" x1="236.6" y1="257.53" x2="250.83" y2="257.53"/><line class="cls-17" x1="236.6" y1="266.18" x2="250.83" y2="266.18"/><line class="cls-17" x1="231.67" y1="270.42" x2="255.77" y2="270.42"/><path class="cls-17" d="M271.8,225.28h0a10.87,10.87,0,0,1,10.87,10.87v34.27a0,0,0,0,1,0,0H260.93a0,0,0,0,1,0,0V236.15a10.87,10.87,0,0,1,10.87-10.87Z"/><path class="cls-15" d="M271.8,229.48h0a7.12,7.12,0,0,1,7.12,7.12v29.58a0,0,0,0,1,0,0H264.69a0,0,0,0,1,0,0V236.6A7.12,7.12,0,0,1,271.8,229.48Z"/><line class="cls-17" x1="271.8" y1="229.48" x2="271.8" y2="266.18"/><line class="cls-17" x1="264.69" y1="240.23" x2="278.92" y2="240.23"/><line class="cls-17" x1="264.69" y1="248.88" x2="278.92" y2="248.88"/><line class="cls-17" x1="264.69" y1="257.53" x2="278.92" y2="257.53"/><line class="cls-17" x1="264.69" y1="266.18" x2="278.92" y2="266.18"/><line class="cls-17" x1="259.75" y1="270.42" x2="283.85" y2="270.42"/><path class="cls-17" d="M393.1,225.28h0A10.87,10.87,0,0,1,404,236.15v34.27a0,0,0,0,1,0,0H382.23a0,0,0,0,1,0,0V236.15a10.87,10.87,0,0,1,10.87-10.87Z"/><path class="cls-15" d="M393.1,229.48h0a7.12,7.12,0,0,1,7.12,7.12v29.58a0,0,0,0,1,0,0H386a0,0,0,0,1,0,0V236.6A7.12,7.12,0,0,1,393.1,229.48Z"/><line class="cls-17" x1="393.1" y1="229.48" x2="393.1" y2="266.18"/><line class="cls-17" x1="385.98" y1="240.23" x2="400.22" y2="240.23"/><line class="cls-17" x1="385.98" y1="248.88" x2="400.22" y2="248.88"/><line class="cls-17" x1="385.98" y1="257.53" x2="400.22" y2="257.53"/><line class="cls-17" x1="385.98" y1="266.18" x2="400.22" y2="266.18"/><line class="cls-17" x1="381.05" y1="270.42" x2="405.15" y2="270.42"/><path class="cls-17" d="M421.19,225.28h0a10.87,10.87,0,0,1,10.87,10.87v34.27a0,0,0,0,1,0,0H410.31a0,0,0,0,1,0,0V236.15a10.87,10.87,0,0,1,10.87-10.87Z"/><path class="cls-15" d="M421.19,229.48h0a7.12,7.12,0,0,1,7.12,7.12v29.58a0,0,0,0,1,0,0H414.07a0,0,0,0,1,0,0V236.6a7.12,7.12,0,0,1,7.12-7.12Z"/><line class="cls-17" x1="421.19" y1="229.48" x2="421.19" y2="266.18"/><line class="cls-17" x1="414.07" y1="240.23" x2="428.3" y2="240.23"/><line class="cls-17" x1="414.07" y1="248.88" x2="428.3" y2="248.88"/><line class="cls-17" x1="414.07" y1="257.53" x2="428.3" y2="257.53"/><line class="cls-17" x1="414.07" y1="266.18" x2="428.3" y2="266.18"/><line class="cls-17" x1="409.13" y1="270.42" x2="433.24" y2="270.42"/><rect class="cls-6" x="310.91" y="163.8" width="19.49" height="50.85"/><line class="cls-26" x1="310.31" y1="198.35" x2="330.99" y2="198.35"/><line class="cls-26" x1="310.31" y1="180.55" x2="330.99" y2="180.55"/><line class="cls-26" x1="320.65" y1="179.95" x2="320.65" y2="215.24"/><line class="cls-26" x1="320.65" y1="163.8" x2="320.65" y2="214.65"/><rect class="cls-6" x="336" y="163.8" width="19.49" height="50.85"/><line class="cls-26" x1="335.4" y1="198.35" x2="356.09" y2="198.35"/><line class="cls-26" x1="335.4" y1="180.55" x2="356.09" y2="180.55"/><line class="cls-26" x1="345.74" y1="179.95" x2="345.74" y2="215.24"/><line class="cls-26" x1="345.74" y1="163.8" x2="345.74" y2="214.65"/><polygon class="cls-18" points="333.43 133.03 210.8 193.95 210.8 193.95 210.8 234.06 210.8 238.36 210.8 309.52 456.05 309.52 456.05 238.36 456.05 234.06 456.05 193.95 333.43 133.03"/><rect class="cls-11" x="303.16" y="221.68" width="58.66" height="10.79"/><rect class="cls-17" x="296.12" y="219.68" width="7.04" height="76.62"/><rect class="cls-21" x="294.14" y="234.65" width="11.01" height="3.13"/><rect class="cls-21" x="294.14" y="216.55" width="11.01" height="3.13"/><rect class="cls-21" x="294.14" y="296.39" width="11.01" height="13.13"/><rect class="cls-17" x="361.82" y="219.68" width="7.04" height="76.62"/><rect class="cls-21" x="359.83" y="234.65" width="11.01" height="3.13"/><rect class="cls-21" x="359.83" y="216.55" width="11.01" height="3.13"/><rect class="cls-21" x="359.83" y="296.39" width="11.01" height="13.13"/><rect class="cls-16" x="212.75" y="193.15" width="6.03" height="3.84" transform="translate(293.59 -85.2) rotate(63.4)"/><rect class="cls-16" x="224.36" y="187.34" width="6.03" height="3.84" transform="translate(294.8 -98.79) rotate(63.4)"/><rect class="cls-16" x="235.97" y="181.53" width="6.03" height="3.84" transform="translate(296.01 -112.38) rotate(63.4)"/><rect class="cls-16" x="247.57" y="175.72" width="6.03" height="3.84" transform="translate(297.22 -125.96) rotate(63.4)"/><rect class="cls-16" x="259.22" y="170" width="6.03" height="3.84" transform="translate(298.55 -139.54) rotate(63.4)"/><rect class="cls-16" x="270.83" y="164.19" width="6.03" height="3.84" transform="translate(299.76 -153.13) rotate(63.4)"/><rect class="cls-16" x="282.44" y="158.38" width="6.03" height="3.84" transform="translate(300.97 -166.71) rotate(63.4)"/><rect class="cls-16" x="294.08" y="152.65" width="6.03" height="3.84" transform="translate(302.28 -180.29) rotate(63.4)"/><rect class="cls-16" x="305.69" y="146.84" width="6.03" height="3.84" transform="translate(303.49 -193.88) rotate(63.4)"/><rect class="cls-16" x="317.29" y="141.02" width="6.03" height="3.84" transform="translate(304.71 -207.47) rotate(63.4)"/><rect class="cls-16" x="447.28" y="193.15" width="6.03" height="3.84" transform="translate(826.35 -120.22) rotate(116.6)"/><rect class="cls-16" x="435.68" y="187.34" width="6.03" height="3.84" transform="translate(804.36 -118.25) rotate(116.6)"/><rect class="cls-16" x="424.07" y="181.53" width="6.03" height="3.84" transform="translate(782.36 -116.29) rotate(116.6)"/><rect class="cls-16" x="412.47" y="175.72" width="6.03" height="3.84" transform="translate(760.36 -114.32) rotate(116.6)"/><rect class="cls-16" x="400.81" y="170" width="6.03" height="3.84" transform="translate(738.37 -112.18) rotate(116.6)"/><rect class="cls-16" x="389.21" y="164.19" width="6.03" height="3.84" transform="translate(716.37 -110.22) rotate(116.6)"/><rect class="cls-16" x="377.6" y="158.38" width="6.03" height="3.84" transform="translate(694.38 -108.26) rotate(116.6)"/><rect class="cls-16" x="365.95" y="152.65" width="6.03" height="3.84" transform="translate(672.39 -106.14) rotate(116.6)"/><rect class="cls-16" x="354.35" y="146.84" width="6.03" height="3.84" transform="translate(650.39 -104.17) rotate(116.6)"/><rect class="cls-16" x="342.74" y="141.02" width="6.03" height="3.84" transform="translate(628.39 -102.21) rotate(116.6)"/><line class="cls-26" x1="333.38" y1="124.88" x2="333.38" y2="80.31"/><path class="cls-6" d="M228.14,153.53c-.39-1.87.7-3.72-.06-5.57s-2.84-2-4.55-2.35c-3.62-.81-9.71-1.12-9.86-6-.09-3,.88-7.45-3-8.56-1.82-.52-3.79,0-5.65.06a18.68,18.68,0,0,1-6.74-1.2c-2.08-.78-4.58-1.93-3.76-4.59.59-1.92,2-3.48,2.59-5.41,1.08-3.42-.51-6.55-4-7.4a20.84,20.84,0,0,0-5.85-.08c-2.13.11-4.86-.1-5.95-2.3-1-2,1.14-3.52,1.15-5.45a4.15,4.15,0,0,0-2.52-3.53c-1.87-.94-4-.64-6-1.33a6.65,6.65,0,0,1-3.9-4.25,9.08,9.08,0,0,1,.51-6.38c.74-1.7,2.22-4.32,4.35-4.34,2,0,3.54,2.36,5,3.45A14.81,14.81,0,0,0,185,90.91c4.31,1.12,8.5-.45,12.51-1.91a31.81,31.81,0,0,1,11.64-2.27,19.06,19.06,0,0,1,5.75,1c1.73.59,4,1.6,5.1,3.08.88,1.14.22,2.49-.09,3.71a18.54,18.54,0,0,0-.53,3.39c-.12,1.86-.16,4.23,1,5.81,1,1.38,2.8,1.8,4.37,2.2a67.34,67.34,0,0,1,6.55,1.77c3.68,1.33,7.68,4.41,7.12,8.8-.5,4-3.71,7-4.27,11a12.59,12.59,0,0,0,.58,5.84,32.64,32.64,0,0,0,3,5.34c1.24,2.13,1.68,4.52-.19,6.41-1.29,1.3-2.92,2.18-3.91,3.77a4.11,4.11,0,0,0-.27,4.32.75.75,0,0,0,1.3-.76c-1.21-2.07,1.24-4,2.65-5.14s2.72-2.41,3-4.28a8.67,8.67,0,0,0-1.72-5.81c-1.23-1.94-2.48-3.74-2.89-6.06a11.34,11.34,0,0,1,1-6.81c.84-1.8,1.92-3.48,2.63-5.34a8.68,8.68,0,0,0-2.45-9.8c-3.23-3-7.62-3.7-11.71-4.74a10.15,10.15,0,0,1-2.69-.9c-1.22-.72-1.47-2-1.56-3.34a16.67,16.67,0,0,1,.13-3.6c.18-1.25.64-2.43.86-3.67.65-3.81-4.13-5.94-7.12-6.86a24.06,24.06,0,0,0-11.41-.34c-4.39.82-8.37,3-12.75,3.83a11.9,11.9,0,0,1-7.14-.79A21.19,21.19,0,0,1,178.29,85c-1.28-1.12-2.82-1.94-4.56-1.42a7.39,7.39,0,0,0-3.88,3.63c-1.88,3.21-2.46,7.31-.51,10.63a7.86,7.86,0,0,0,3.81,3.37c2,.79,4.38.37,6.25,1.47a2.35,2.35,0,0,1,1.33,2.76c-.29,1-1,1.76-1.19,2.75a4.35,4.35,0,0,0,1.63,4.27c3.43,2.9,7.89.53,11.78,1.65a3.87,3.87,0,0,1,2.77,5.07c-.53,2-2,3.64-2.65,5.62-1.42,4.22,2.89,6.15,6.23,7.11a19.65,19.65,0,0,0,6.56.73c1.9-.11,4.72-.92,5.91,1.12,1,1.75.35,4,.4,5.91a5.72,5.72,0,0,0,2.15,4.62,12,12,0,0,0,4.59,1.87c1.16.27,2.33.52,3.49.78s2.71.34,3.7,1,.79,2.1.63,3.15a7.91,7.91,0,0,0,0,2.91c.2.95,1.65.55,1.45-.4Z"/><path class="cls-6" d="M172.52,85.05a10.34,10.34,0,0,0-3,11.44,10.59,10.59,0,0,0,7.69,4.71c5.59.83,3.88,5.24,3.62,5.77s-2.12,6.36,4.35,6.23,12-.07,11.5,4.19-5.75,9.6-1.44,11.92A18.55,18.55,0,0,0,206,131.85c3.07-.23,6.77-.35,7.05,3.42s-.89,8.08,3.31,9.26,9.61,1.71,10.37,2.76.47,5.07.47,5.07.18,2.52,1.94,2.67a43.81,43.81,0,0,0,4.77,0s-1-3.33,0-5,4.39-4.49,4.8-5.1.87-4.78-.89-7.63-4.11-8.64-2.47-12.66,6.37-8.31,2.9-12.62-11.79-6.69-14.15-7.1-4.26-3.73-3.88-7.69,2.7-8.24-6.55-10.71-20.84,3.27-20.84,3.27-6.7,1.16-9.2-.17A39.16,39.16,0,0,1,178,85.73l-3-1.61Z"/><rect class="cls-20" x="229.76" y="154.6" width="7.49" height="21.18" transform="translate(467.01 330.38) rotate(-180)"/><polygon class="cls-8" points="237.04 155.78 229.48 157.86 229.48 154.83 237.04 154.83 237.04 155.78"/><rect class="cls-19" x="225.74" y="154.6" width="4.03" height="21.18" transform="translate(455.5 330.38) rotate(-180)"/><rect class="cls-10" x="222.28" y="150.73" width="14.4" height="5.3" rx="0.9" transform="translate(458.96 306.77) rotate(-180)"/><rect class="cls-11" x="226.31" y="150.73" width="14.4" height="5.3" rx="0.9" transform="translate(467.01 306.77) rotate(-180)"/><rect class="cls-20" x="431.17" y="154.6" width="7.49" height="21.18" transform="translate(869.83 330.38) rotate(-180)"/><polygon class="cls-8" points="438.44 155.78 430.89 157.86 430.89 154.83 438.44 154.83 438.44 155.78"/><rect class="cls-19" x="427.14" y="154.6" width="4.03" height="21.18" transform="translate(858.31 330.38) rotate(-180)"/><rect class="cls-10" x="423.69" y="150.73" width="14.4" height="5.3" rx="0.9" transform="translate(861.78 306.77) rotate(-180)"/><rect class="cls-11" x="427.72" y="150.73" width="14.4" height="5.3" rx="0.9" transform="translate(869.83 306.77) rotate(-180)"/><polyline class="cls-20" points="333.15 129.51 212.46 189.52 207.79 189.52 207.79 184.83 332.84 124.12 333.74 124.12 458.78 184.83 458.78 189.52 454.12 189.52 333.43 129.51"/><polyline class="cls-20" points="333.15 133.53 210.53 194.45 205.79 194.45 205.79 189.68 332.83 128.05 333.75 128.05 460.79 189.68 460.79 194.45 456.05 194.45 333.43 133.53"/><line class="cls-18" x1="216.44" y1="192.02" x2="217.97" y2="195.08"/><line class="cls-18" x1="228.02" y1="186.21" x2="229.55" y2="189.26"/><line class="cls-18" x1="239.61" y1="180.4" x2="241.14" y2="183.45"/><line class="cls-18" x1="251.19" y1="174.59" x2="252.72" y2="177.64"/><line class="cls-18" x1="262.78" y1="168.78" x2="264.3" y2="171.83"/><line class="cls-18" x1="274.36" y1="162.96" x2="275.89" y2="166.02"/><line class="cls-18" x1="285.94" y1="157.15" x2="287.47" y2="160.21"/><line class="cls-18" x1="297.53" y1="151.34" x2="299.06" y2="154.39"/><line class="cls-18" x1="309.11" y1="145.53" x2="310.64" y2="148.58"/><line class="cls-18" x1="320.7" y1="139.72" x2="322.23" y2="142.77"/><line class="cls-18" x1="449.48" y1="192.02" x2="447.95" y2="195.08"/><line class="cls-18" x1="437.9" y1="186.21" x2="436.37" y2="189.26"/><line class="cls-18" x1="426.31" y1="180.4" x2="424.79" y2="183.45"/><line class="cls-18" x1="414.73" y1="174.59" x2="413.2" y2="177.64"/><line class="cls-18" x1="403.15" y1="168.78" x2="401.62" y2="171.83"/><line class="cls-18" x1="391.56" y1="162.96" x2="390.03" y2="166.02"/><line class="cls-18" x1="379.98" y1="157.15" x2="378.45" y2="160.21"/><line class="cls-18" x1="368.39" y1="151.34" x2="366.86" y2="154.39"/><line class="cls-18" x1="356.81" y1="145.53" x2="355.28" y2="148.58"/><line class="cls-18" x1="345.22" y1="139.72" x2="343.69" y2="142.77"/><polygon class="cls-8" points="207.79 184.83 333.29 126.13 333.33 124.07 207.79 184.83"/><polygon class="cls-8" points="458.78 184.83 333.29 126.13 333.33 124.07 458.78 184.83"/><polygon class="cls-8" points="207.79 188.81 333.29 130.11 333.33 128.05 207.79 188.81"/><polygon class="cls-8" points="458.78 188.81 333.29 130.11 333.33 128.05 458.78 188.81"/><polygon class="cls-8" points="210.53 194.45 333.29 135.76 333.33 133.69 210.53 194.45"/><polygon class="cls-8" points="456.05 194.45 333.29 135.76 333.33 133.69 456.05 194.45"/><path class="cls-19" d="M187.64,300.52c-1.37-8.07-12.13-14.36-23.9-14.36-9,0-16.69,3.64-20.43,8.93a23.86,23.86,0,0,0-9.55-2c-6.84,0-12.84,3-16.15,7.42Z"/><path class="cls-17" d="M186.61,233.68c0-21.53-12.44-23.33-13.67-43.05-1.14-18.2,0-34.29-20.31-34.29s-19.17,16.09-20.31,34.29c-1.24,19.72-13.68,21.52-13.68,43.05C118.64,279.91,186.61,279.91,186.61,233.68Z"/><line class="cls-17" x1="152.63" y1="183.69" x2="152.63" y2="299.52"/><line class="cls-17" x1="152.63" y1="253.87" x2="131.6" y2="232.84"/><line class="cls-17" x1="152.63" y1="229.94" x2="166.19" y2="216.38"/><line class="cls-17" x1="152.63" y1="247.06" x2="147.18" y2="241.62"/><line class="cls-17" x1="152.63" y1="194.72" x2="155.94" y2="191.41"/><polygon class="cls-11" points="603.85 21.72 628.79 21.72 628.79 30.41 603.85 30.41 610.11 26.07 603.85 21.72"/><line class="cls-27" x1="628.79" y1="42.33" x2="628.79" y2="16.82"/><rect class="cls-28" x="517.71" y="240.88" width="134.34" height="55.72"/><rect class="cls-28" x="517.71" y="143.63" width="134.34" height="93.72"/><rect class="cls-28" x="511.26" y="296.6" width="147.23" height="13.53"/><rect class="cls-28" x="511.26" y="237.35" width="147.23" height="3.53"/><rect class="cls-28" x="511.26" y="140.1" width="147.23" height="3.53"/><polygon class="cls-28" points="514.57 140.1 584.88 40.08 628.9 40.08 655.19 140.1 514.57 140.1"/><rect class="cls-28" x="557.64" y="69.78" width="45.65" height="4.28"/><polygon class="cls-29" points="621 43.67 575.35 43.67 557.64 69.78 603.29 69.78 621 43.67"/><polygon class="cls-11" points="587.97 45.24 577.08 45.24 569.7 55.93 580.59 55.93 587.97 45.24"/><polygon class="cls-11" points="602.14 45.24 591.25 45.24 583.87 55.93 594.76 55.93 602.14 45.24"/><polygon class="cls-11" points="616.32 45.24 605.43 45.24 598.05 55.93 608.94 55.93 616.32 45.24"/><polygon class="cls-11" points="579.5 57.51 568.6 57.51 561.22 68.2 572.12 68.2 579.5 57.51"/><polygon class="cls-11" points="593.67 57.51 582.78 57.51 575.4 68.2 586.29 68.2 593.67 57.51"/><polygon class="cls-11" points="607.84 57.51 596.95 57.51 589.57 68.2 600.46 68.2 607.84 57.51"/><polygon class="cls-28" points="621 47.93 603.29 74.05 603.29 69.78 621 43.67 621 47.93"/><rect class="cls-28" x="535.4" y="99.26" width="45.65" height="4.28"/><polygon class="cls-29" points="598.77 73.15 553.12 73.15 535.4 99.26 581.06 99.26 598.77 73.15"/><polygon class="cls-11" points="565.74 74.73 554.85 74.73 547.47 85.42 558.36 85.42 565.74 74.73"/><polygon class="cls-11" points="579.91 74.73 569.02 74.73 561.64 85.42 572.53 85.42 579.91 74.73"/><polygon class="cls-11" points="594.09 74.73 583.2 74.73 575.82 85.42 586.71 85.42 594.09 74.73"/><polygon class="cls-11" points="557.26 86.99 546.37 86.99 538.99 97.68 549.88 97.68 557.26 86.99"/><polygon class="cls-11" points="571.44 86.99 560.54 86.99 553.17 97.68 564.06 97.68 571.44 86.99"/><polygon class="cls-11" points="585.61 86.99 574.72 86.99 567.34 97.68 578.23 97.68 585.61 86.99"/><polygon class="cls-28" points="598.77 77.41 581.06 103.53 581.06 99.26 598.77 73.15 598.77 77.41"/><rect class="cls-28" x="514.15" y="129.2" width="45.65" height="4.28"/><polygon class="cls-29" points="577.52 103.09 531.86 103.09 514.15 129.2 559.8 129.2 577.52 103.09"/><polygon class="cls-11" points="544.49 104.66 533.59 104.66 526.21 115.35 537.11 115.35 544.49 104.66"/><polygon class="cls-11" points="558.66 104.66 547.77 104.66 540.39 115.35 551.28 115.35 558.66 104.66"/><polygon class="cls-11" points="572.83 104.66 561.94 104.66 554.56 115.35 565.45 115.35 572.83 104.66"/><polygon class="cls-11" points="536.01 116.93 525.12 116.93 517.74 127.62 528.63 127.62 536.01 116.93"/><polygon class="cls-11" points="550.18 116.93 539.29 116.93 531.91 127.62 542.8 127.62 550.18 116.93"/><polygon class="cls-11" points="564.36 116.93 553.47 116.93 546.09 127.62 556.98 127.62 564.36 116.93"/><polygon class="cls-28" points="577.52 107.35 559.8 133.47 559.8 129.2 577.52 103.09 577.52 107.35"/><rect class="cls-29" x="671.79" y="90.4" width="7.25" height="20.52" transform="translate(1350.83 201.31) rotate(-180)"/><polygon class="cls-8" points="678.84 91.53 671.52 93.55 671.52 90.62 678.84 90.62 678.84 91.53"/><rect class="cls-28" x="667.89" y="90.4" width="3.9" height="20.52" transform="translate(1339.68 201.31) rotate(-180)"/><rect class="cls-10" x="664.54" y="86.64" width="13.95" height="5.14" rx="0.88" transform="translate(1343.03 178.43) rotate(-180)"/><rect class="cls-11" x="668.44" y="86.64" width="13.95" height="5.14" rx="0.88" transform="translate(1350.83 178.43) rotate(-180)"/><rect class="cls-29" x="561.73" y="240.88" width="134.34" height="55.72"/><polygon class="cls-8" points="561.73 240.65 696.07 240.65 561.73 243.15 561.73 240.65"/><rect class="cls-29" x="561.73" y="143.63" width="134.34" height="93.72"/><polygon class="cls-8" points="561.73 143.63 696.07 143.63 561.73 146.47 561.73 143.63"/><rect class="cls-29" x="555.28" y="237.35" width="147.23" height="3.53"/><polygon class="cls-8" points="555.28 237.35 702.52 237.35 555.28 239.16 555.28 237.35"/><rect class="cls-29" x="555.28" y="140.1" width="147.23" height="3.53"/><polygon class="cls-29" points="558.59 140.1 628.9 40.08 699.21 140.1 558.59 140.1"/><line class="cls-27" x1="660.29" y1="211.76" x2="678.29" y2="211.76"/><rect class="cls-6" x="619.9" y="158.97" width="18" height="21.86"/><line class="cls-27" x1="619.35" y1="169.89" x2="638.45" y2="169.89"/><line class="cls-27" x1="628.9" y1="158.41" x2="628.9" y2="181.37"/><rect class="cls-6" x="660.29" y="158.97" width="18" height="21.86"/><line class="cls-27" x1="659.74" y1="169.89" x2="678.84" y2="169.89"/><line class="cls-27" x1="669.29" y1="158.41" x2="669.29" y2="181.37"/><rect class="cls-6" x="579.51" y="195.32" width="18" height="32.88"/><line class="cls-27" x1="578.96" y1="211.76" x2="598.06" y2="211.76"/><line class="cls-27" x1="588.51" y1="194.76" x2="588.51" y2="228.75"/><rect class="cls-6" x="619.9" y="195.32" width="18" height="32.88"/><line class="cls-27" x1="619.35" y1="211.76" x2="638.45" y2="211.76"/><line class="cls-27" x1="628.9" y1="194.76" x2="628.9" y2="228.75"/><line class="cls-27" x1="579.51" y1="271.11" x2="597.51" y2="271.11"/><line class="cls-27" x1="660.29" y1="271.11" x2="678.29" y2="271.11"/><line class="cls-27" x1="660.29" y1="271.11" x2="678.29" y2="271.11"/><rect class="cls-6" x="579.51" y="254.66" width="18" height="32.88"/><line class="cls-27" x1="578.96" y1="271.11" x2="598.06" y2="271.11"/><line class="cls-27" x1="588.51" y1="254.11" x2="588.51" y2="288.1"/><rect class="cls-6" x="660.29" y="254.66" width="18" height="32.88"/><line class="cls-27" x1="659.74" y1="271.11" x2="678.84" y2="271.11"/><line class="cls-27" x1="669.29" y1="254.11" x2="669.29" y2="288.1"/><circle class="cls-6" cx="628.9" cy="75.62" r="7.42"/><line class="cls-30" x1="628.9" y1="68.2" x2="628.9" y2="83.04"/><line class="cls-30" x1="636.32" y1="75.62" x2="621.48" y2="75.62"/><rect class="cls-16" x="641.84" y="289.08" width="8.36" height="3.72"/><rect class="cls-16" x="593.33" y="175.78" width="8.36" height="3.72"/><rect class="cls-16" x="650.13" y="150.65" width="8.36" height="3.72"/><rect class="cls-16" x="642.56" y="157.1" width="8.36" height="3.72"/><rect class="cls-16" x="600.36" y="157.1" width="8.36" height="3.72"/><rect class="cls-16" x="584.33" y="128.52" width="8.36" height="3.72"/><rect class="cls-16" x="589.7" y="133.94" width="8.36" height="3.72"/><rect class="cls-16" x="625.66" y="111.63" width="8.36" height="3.72"/><rect class="cls-16" x="594.59" y="99.53" width="8.36" height="3.72"/><rect class="cls-16" x="644.64" y="86.48" width="8.36" height="3.72"/><rect class="cls-16" x="639.31" y="78.21" width="8.36" height="3.72"/><rect class="cls-16" x="671.55" y="132.9" width="8.36" height="3.72"/><rect class="cls-16" x="665.11" y="128.01" width="8.36" height="3.72"/><rect class="cls-16" x="645.95" y="133.94" width="8.36" height="3.72"/><rect class="cls-16" x="606.42" y="163.79" width="8.36" height="3.72"/><rect class="cls-16" x="682.15" y="231.32" width="8.36" height="3.72"/><rect class="cls-16" x="674.66" y="222.13" width="8.36" height="3.72"/><rect class="cls-16" x="680.55" y="215.56" width="8.36" height="3.72"/><rect class="cls-16" x="566.73" y="198" width="8.36" height="3.72"/><rect class="cls-16" x="598.06" y="248.85" width="8.36" height="3.72"/><rect class="cls-16" x="608.72" y="245.54" width="8.36" height="3.72"/><rect class="cls-16" x="648.74" y="283.18" width="8.36" height="3.72"/><rect class="cls-15" x="660.29" y="195.32" width="18" height="32.88"/><line class="cls-27" x1="659.74" y1="211.76" x2="678.84" y2="211.76"/><line class="cls-27" x1="669.29" y1="194.76" x2="669.29" y2="228.75"/><line class="cls-27" x1="599.71" y1="111.63" x2="617.7" y2="111.63"/><line class="cls-27" x1="640.1" y1="111.63" x2="658.1" y2="111.63"/><line class="cls-27" x1="599.71" y1="111.63" x2="617.7" y2="111.63"/><line class="cls-27" x1="640.1" y1="111.63" x2="658.1" y2="111.63"/><rect class="cls-6" x="599.71" y="95.19" width="18" height="32.88"/><line class="cls-27" x1="599.15" y1="111.63" x2="618.26" y2="111.63"/><line class="cls-27" x1="608.7" y1="94.64" x2="608.7" y2="128.62"/><line class="cls-27" x1="608.7" y1="95.19" x2="608.7" y2="128.07"/><rect class="cls-15" x="640.1" y="95.19" width="18" height="32.88"/><line class="cls-27" x1="639.54" y1="111.63" x2="658.65" y2="111.63"/><line class="cls-27" x1="649.1" y1="94.64" x2="649.1" y2="128.62"/><rect class="cls-6" x="612.9" y="254.39" width="32" height="42.21"/><line class="cls-30" x1="611.78" y1="254.39" x2="646.02" y2="254.39"/><line class="cls-30" x1="628.9" y1="254.39" x2="628.9" y2="296.6"/><rect class="cls-25" x="616.82" y="260.18" width="6.82" height="21.85"/><rect class="cls-25" x="634.19" y="260.18" width="6.82" height="21.85"/><rect class="cls-29" x="555.28" y="296.6" width="147.23" height="13.53"/><rect class="cls-15" x="579.51" y="158.97" width="18" height="21.86"/><line class="cls-27" x1="578.96" y1="169.89" x2="598.06" y2="169.89"/><line class="cls-27" x1="588.51" y1="158.41" x2="588.51" y2="181.37"/><polygon class="cls-8" points="555.28 140.1 702.52 140.1 555.28 141.91 555.28 140.1"/><path class="cls-17" d="M649.85,302.58c1.86-13.7,16.32-26.36,32.14-26.36,12,0,22.44,6.17,27.47,15.15A26.54,26.54,0,0,1,722.29,288c9.2,0,17.27,7,21.72,14.6Z"/><line class="cls-18" x1="669.72" y1="297.31" x2="669.72" y2="246.39"/><polygon class="cls-17" points="671.51 246.39 667.92 246.39 662.74 232.67 676.69 232.67 671.51 246.39"/><rect class="cls-20" x="666.12" y="297.57" width="7.19" height="4.01"/><line class="cls-18" x1="661.88" y1="232.67" x2="677.56" y2="232.67"/><line class="cls-18" x1="667.06" y1="246.39" x2="672.38" y2="246.39"/><polygon class="cls-21" points="676.69 232.67 662.74 232.67 667.06 227.02 672.38 227.02 676.69 232.67"/><line class="cls-18" x1="666.19" y1="227.02" x2="673.24" y2="227.02"/><path class="cls-20" d="M669.72,224.58h0a1.67,1.67,0,0,1,1.67,1.67V227a0,0,0,0,1,0,0H668a0,0,0,0,1,0,0v-.77a1.67,1.67,0,0,1,1.67-1.67Z"/><line class="cls-18" x1="669.72" y1="231.81" x2="669.72" y2="246.39"/><line class="cls-18" x1="664.08" y1="238.8" x2="675.36" y2="238.8"/><line class="cls-18" x1="91.5" y1="294.78" x2="91.5" y2="243.86"/><polygon class="cls-17" points="93.3 243.86 89.7 243.86 84.52 230.14 98.47 230.14 93.3 243.86"/><rect class="cls-20" x="87.9" y="295.04" width="7.19" height="4.01"/><line class="cls-18" x1="83.66" y1="230.14" x2="99.34" y2="230.14"/><line class="cls-18" x1="88.84" y1="243.86" x2="94.16" y2="243.86"/><polygon class="cls-21" points="98.47 230.14 84.52 230.14 88.84 224.49 94.16 224.49 98.47 230.14"/><line class="cls-18" x1="87.97" y1="224.49" x2="95.02" y2="224.49"/><path class="cls-20" d="M91.5,222.06h0a1.67,1.67,0,0,1,1.67,1.67v.77a0,0,0,0,1,0,0H89.83a0,0,0,0,1,0,0v-.77A1.67,1.67,0,0,1,91.5,222.06Z"/><line class="cls-18" x1="91.5" y1="229.28" x2="91.5" y2="243.86"/><line class="cls-18" x1="85.86" y1="236.27" x2="97.14" y2="236.27"/></g><g class="cls-31"><rect class="cls-3" x="1060.31" y="-98.13" width="1529.83" height="542"/><path class="cls-32" d="M997.58,342.35V172.19h16.54v-6.8l4.18-.67v-15l3.13-5.35c.49.18,1,.2,1.1.42.8,1.76,1.51,3.55,2.45,5.83l-1.2,1.8,1.93,2.65h7.94c-.56-4.38,1.32-8.29,3.54-12.32l1.38,2.82L1063,124.22c-.37-7,1.56-13.2,5.2-19.51.78,3.85,1.48,7.28,2.28,11.22l2,.67v7.68c4.31,3.66,8.64,7.32,13,11,4.14,3.53,7.08,8.42,12.47,11v10.23h17.36a63.66,63.66,0,0,0,4.54,4.72c1.61,1.39,2.49,4,5.81,3.76V122.62c0-4.18-.21-8.37.07-12.53.25-3.75,1-7.46,1.67-11.55h9.36c5-3.08,2-6.56,1.22-9.86,1.13-1.65,2.23-3.24,4-5.76,3.92-2.85,9.55-.85,15-1.49L1162,87V98.18h10.73v6.39l2.87,1v24.68c7.34,0,14.46.25,21.56-.07,6.71-.31,13.65,1.52,20.36-1.26V118l2.55-.53c.12-1.54.25-3.27.4-5.24h7.64l1.21-3.3,1.12,3h7.79c.1,2,.18,3.6.27,5.44l4,.63v12.21h24.39a3.7,3.7,0,0,1,.49.48,1.1,1.1,0,0,1,.22.59c0,7.85,0,15.7,0,24.06l5.29,1.84V133.09l-4.21-8.66,7-9.17-9.37-12.39c4.86-.2,9.21,2.12,12.64,7,.71-1.26,1.27-2.28,1.73-3.11h3.52v2.06l-2.92,1.12c1,2,1.86,3.88,2.82,5.87l-3.73,3.73c2.93,4-.44,9.2,2.43,13.44a3.65,3.65,0,0,1-1.18,4.84c2.45,2.8,1,6.15,1.26,9.22s.05,6,.05,9.15l2.47.73c.67-8.68.11-17.15.36-25.45,1.23-1.92,2.32-3.81,3.61-5.57s2.6-3.14,4.64-5.56c0,.12.08-1,.19-2.37H1298c.14,1.19.27,2.29.42,3.63h13.45l1.67-7.92c.54-2.58-1.25-5.57,1.35-7.79l-2.23-2.69,3.76-1.16,1.52,1.29-1,2.18c.79,5,1.64,10.35,2.53,16h13.34c.12-1.1.23-2.2.37-3.58h3.72l.43,3.19c5.09.8,4.24,7,8.12,9.59V156.4h3.81c-.14.13.18,0,.18-.17,0-6.19,0-12.39,0-18.59l5.87-3.38,3.58,2.19c.31-1.76.52-3,.77-4.41l2.34-.82c.12-1.05.25-2.15.39-3.33l2.44-.92c.12-1.07.24-2.16.38-3.5h3.56c.25-1.47.47-2.75.72-4.19h5v3.32l2.83,1v3.28l2.88,1,.25,3.48h4.13c-.49-6.25.08-12.27,3.49-17.83,3.32,10.19,1.62,20.51,2,30.7.15,3.93,0,7.87,0,12.15h6.6c1.33-4.75-1-10,1.4-14.49l-1.33-7.34c1.48-2,2.63-3.61,3.76-5.15l3,4.14c-.36,3.08-1.51,5.95-.78,8.22,1.55,4.86,1,9.78,1.25,14.75l2.49.16V105.68l4-.76c.61-2.76.69-5.8,2-8.21,1.4-2.64,1.18-5.2,1.23-7.85.07-2.92,0-5.84,0-9.66l4.31,2.88c-.55,1.51-1.81,3.16-1.43,4.24,2.13,6.17.94,13.17,4.7,18.73l2.2.51V127c2.5,1.16,3.11,0,2.63-2.25h43V110.29l2.33-2.31,1.49,3.12,7.33-4.73V99.15l2.41-2.42,3.49,4.55v4.9l6.26,4.29,3-1.71c.71,5,.06,9.61.54,14.88a12.23,12.23,0,0,0,2.56-1.6c1.76-2,3.38-4.08,5.48-6.66,4.06,4.92,9.22,7.73,12.55,13v20.33l4.36,2.92c-1.94,3.41-2,3.42.58,6.43h15.29a2.63,2.63,0,0,0,.48-.42,1.15,1.15,0,0,0,.25-.58c0-8.32,0-16.64,0-25.66l16.46,2.79v-3.43l43.15,6.8v3.56l10.1,2.37q-.86,6.76-1.83,14.38h4.18V123.67l5.79-5.88h8.77l9.21-7v42.77h5.65V111.14c1.91-.34,2.17,1.44,3.19,2a24.66,24.66,0,0,1,2.73,1.79c1.09.8,2.12,1.68,3.4,2.7h9.49c1.17,2.37,2,5.25,6.36,3.87v16.12c0,5.1-.56,10.29.16,15.29s-4.38,9.94.74,15.33c.27-2.16.46-3.76.72-5.86h9.36c.09-1.36.14-2.25.2-3.08L1669.8,152v-7l4.83-5h7.89l3.54,1.75a4.52,4.52,0,0,0,.45.9c2.33,3.28,1,7,1.43,10.5l-4.09,4.09V162h12.07v-4.4l-5.48-7.66c.77-2.61,1.39-4.68,2.07-7,3.3-3.74,8-3.06,13-3l4.37,5.78c1.3,5.8-1.42,9.72-5.24,12.85V162h13.74c0-1,.1-1.92.16-3l-5.4-4.78v-9.59l4.64-4.64c3.6.17,7.65-.84,11.65,2,2.29,3.18,1.59,7.29,1.52,11.29l-5.46,5.45v2.78c2.9,2.26,5.31-.22,8.16-1V148.62H1758l2.39-2.89h15V129.92l10.81,8.49H1791l13.19-5.57c.28.73.5,1.33.78,2.08L1789.21,143c3.44,2.83,6.06-.29,8.89-.36a58.85,58.85,0,0,0,8.47-1.31,27.71,27.71,0,0,1,9.58-.49l-2.84.81v6.46h16.54v-61c5.87-.37,11.62.87,16.7-2.39,0-.35,0-.8-.1-1.74h-12.2c-.08-1.11-.13-1.74-.19-2.65h20.58c-.11,2.77.94,5.28,4.4,5.94v74.19l5.61.59V342.35Z"/></g></g></svg>