<svg xmlns="http://www.w3.org/2000/svg" xmlns:xlink="http://www.w3.org/1999/xlink" viewBox="0 0 1500 300"><defs><style>.cls-1,.cls-13,.cls-18,.cls-24,.cls-30{fill:none;}.cls-2{clip-path:url(#clip-path);}.cls-26,.cls-27,.cls-3{fill:#ffc52f;}.cls-4{fill:url(#linear-gradient);}.cls-5{fill:url(#linear-gradient-2);}.cls-14,.cls-17,.cls-6{fill:#fff;}.cls-20,.cls-22,.cls-25,.cls-29,.cls-7{fill:#fbc877;}.cls-12,.cls-13,.cls-14,.cls-17,.cls-18,.cls-19,.cls-20,.cls-21,.cls-22,.cls-23,.cls-24,.cls-26,.cls-27,.cls-28,.cls-29,.cls-30,.cls-7,.cls-9{stroke:#001c59;stroke-linecap:round;stroke-linejoin:round;}.cls-12,.cls-13,.cls-14,.cls-7,.cls-9{stroke-width:0.79px;}.cls-19,.cls-23,.cls-28,.cls-8,.cls-9{fill:#001c59;}.cls-10{fill:#d84876;}.cls-11,.cls-12,.cls-21{fill:#f25a84;}.cls-15{fill:#fbafd2;}.cls-16{fill:#f1b86a;}.cls-17,.cls-18,.cls-19,.cls-20,.cls-21,.cls-26{stroke-width:1px;}.cls-22,.cls-23,.cls-24{stroke-width:0.73px;}.cls-27,.cls-28,.cls-29,.cls-30{stroke-width:0.68px;}</style><clipPath id="clip-path"><rect class="cls-1" width="1500" height="300"/></clipPath><linearGradient id="linear-gradient" x1="1170" y1="280.66" x2="1170" y2="40.53" gradientUnits="userSpaceOnUse"><stop offset="0" stop-color="#ffc52f"/><stop offset="1" stop-color="#d69a1a"/></linearGradient><linearGradient id="linear-gradient-2" x1="355.89" y1="280.66" x2="355.89" y2="40.53" xlink:href="#linear-gradient"/></defs><g id="Layer_1" data-name="Layer 1"><g class="cls-2"><rect class="cls-3" x="-14.91" y="-98.13" width="1529.83" height="542"/><path class="cls-4" d="M736.47,342.35V172.19H753v-6.8l4.18-.67v-15l3.14-5.35c.49.18,1,.2,1.1.42.79,1.76,1.5,3.55,2.45,5.83l-1.21,1.8,1.93,2.65h7.95c-.57-4.38,1.31-8.29,3.53-12.32l1.39,2.82c8.2-7.18,16.37-14.31,24.42-21.35-.38-7,1.55-13.2,5.19-19.51.79,3.85,1.48,7.28,2.28,11.22l2,.67v7.68q6.48,5.49,13,11c4.13,3.53,7.07,8.42,12.46,11v10.23h17.36c1.37,1.45,2.83,3.23,4.54,4.72s2.49,4,5.82,3.76V122.62c0-4.18-.22-8.37.06-12.53.26-3.75,1.06-7.46,1.67-11.55h9.37c5-3.08,2-6.56,1.21-9.86,1.13-1.65,2.23-3.24,4-5.76,3.92-2.85,9.55-.85,15-1.49l5.06,5.6V98.18h10.73v6.39l2.87,1v24.68c7.34,0,14.46.25,21.56-.07,6.72-.31,13.66,1.52,20.36-1.26V118l2.55-.53c.12-1.54.26-3.27.41-5.24H967l1.21-3.3c.43,1.15.67,1.79,1.13,3h7.78c.1,2,.18,3.6.27,5.44l4,.63v12.21h24.39a3.18,3.18,0,0,1,.49.48,1.11,1.11,0,0,1,.23.59c0,7.85,0,15.7,0,24.06l5.29,1.84V133.09l-4.22-8.66,7-9.17-9.37-12.39c4.86-.2,9.21,2.12,12.64,7,.71-1.26,1.27-2.28,1.73-3.11H1023v2.06l-2.92,1.12c1,2,1.87,3.88,2.82,5.87l-3.73,3.73c2.93,4-.44,9.2,2.43,13.44a3.64,3.64,0,0,1-1.18,4.84c2.45,2.8,1,6.15,1.26,9.22s0,6,0,9.15l2.47.73c.68-8.68.11-17.15.36-25.45,1.23-1.92,2.32-3.81,3.61-5.57s2.6-3.14,4.64-5.56c0,.12.08-1,.19-2.37h3.82c.13,1.19.26,2.29.42,3.63h13.44l1.67-7.92c.55-2.58-1.25-5.57,1.35-7.79l-2.23-2.69,3.76-1.16c-.17-.15.66.55,1.52,1.29l-1,2.18,2.54,16h13.33c.12-1.1.23-2.2.38-3.58h3.72l.43,3.19c5.08.8,4.23,7,8.11,9.59V156.4h3.82c-.15.13.17,0,.17-.17,0-6.19,0-12.39,0-18.59l5.88-3.38,3.57,2.19c.31-1.76.52-3,.78-4.41l2.33-.82c.12-1.05.25-2.15.39-3.33l2.45-.92c.11-1.07.23-2.16.38-3.5h3.55c.26-1.47.48-2.75.73-4.19h5v3.32l2.83,1v3.28l2.89,1,.25,3.48h4.13c-.5-6.25.08-12.27,3.49-17.83,3.31,10.19,1.61,20.51,2,30.7.14,3.93,0,7.87,0,12.15h6.61c1.32-4.75-1-10,1.4-14.49-.47-2.59-1-5.18-1.34-7.34,1.48-2,2.63-3.61,3.76-5.15,1,1.36,2.23,3,3.05,4.14-.35,3.08-1.5,5.95-.78,8.22,1.55,4.86,1,9.78,1.25,14.75l2.49.16V105.68l4-.76c.61-2.76.69-5.8,2-8.21,1.4-2.64,1.18-5.2,1.24-7.85.06-2.92,0-5.84,0-9.66l4.31,2.88c-.54,1.51-1.81,3.16-1.43,4.24,2.13,6.17.94,13.17,4.71,18.73l2.2.51V127c2.49,1.16,3.1,0,2.63-2.25h43V110.29l2.33-2.31,1.49,3.12,7.33-4.73V99.15l2.42-2.42,3.48,4.55v4.9l6.26,4.29,3-1.71c.71,5,.06,9.61.53,14.88a12.35,12.35,0,0,0,2.57-1.6c1.75-2,3.37-4.08,5.47-6.66,4.07,4.92,9.22,7.73,12.56,13v20.33l4.35,2.92c-1.94,3.41-2,3.42.58,6.43h15.3a2.58,2.58,0,0,0,.47-.42,1.16,1.16,0,0,0,.26-.58c0-8.32,0-16.64,0-25.66l16.45,2.79v-3.43l43.16,6.8v3.56l10.09,2.37q-.86,6.76-1.82,14.38h4.17V123.67l5.8-5.88h8.76l9.21-7v42.77h5.65V111.14c1.92-.34,2.17,1.44,3.19,2a25.76,25.76,0,0,1,2.74,1.79c1.08.8,2.12,1.68,3.39,2.7h9.49c1.17,2.37,2,5.25,6.37,3.87v16.12c0,5.1-.57,10.29.15,15.29s-4.38,9.94.74,15.33c.27-2.16.47-3.76.73-5.86h9.35c.09-1.36.15-2.25.2-3.08l-5.61-7.29v-7l4.83-5h7.89l3.54,1.75a6,6,0,0,0,.45.9c2.33,3.28,1.06,7,1.43,10.5l-4.09,4.09V162h12.08v-4.4l-5.49-7.66c.77-2.61,1.39-4.68,2.07-7,3.31-3.74,7.95-3.06,13-3l4.36,5.78c1.31,5.8-1.42,9.72-5.24,12.85V162h13.74c.06-1,.1-1.92.16-3l-5.4-4.78v-9.59l4.65-4.64c3.6.17,7.65-.84,11.64,2,2.29,3.18,1.59,7.29,1.52,11.29l-5.46,5.45v2.78c2.91,2.26,5.31-.22,8.16-1V148.62h24.37l2.39-2.89h15V129.92l10.81,8.49h4.76l13.2-5.57c.27.73.49,1.33.78,2.08L1528.09,143c3.45,2.83,6.07-.29,8.89-.36a58.43,58.43,0,0,0,8.47-1.31,27.72,27.72,0,0,1,9.58-.49l-2.84.81v6.46h16.54v-61c5.88-.37,11.63.87,16.7-2.39,0-.35,0-.8-.1-1.74h-12.2c-.08-1.11-.12-1.74-.19-2.65h20.58c-.1,2.77.94,5.28,4.4,5.94v74.19l5.61.59V342.35Z"/><path class="cls-5" d="M-77.64,342.35V172.19H-61.1v-6.8l4.18-.67v-15l3.13-5.35c.49.18,1,.2,1.1.42.79,1.76,1.51,3.55,2.45,5.83l-1.2,1.8,1.92,2.65h8c-.56-4.38,1.32-8.29,3.54-12.32l1.38,2.82,24.42-21.35c-.37-7,1.56-13.2,5.2-19.51.78,3.85,1.48,7.28,2.28,11.22l2,.67v7.68c4.31,3.66,8.64,7.32,13,11,4.14,3.53,7.08,8.42,12.47,11v10.23H40.05a63.66,63.66,0,0,0,4.54,4.72c1.61,1.39,2.49,4,5.81,3.76V122.62c0-4.18-.22-8.37.07-12.53.25-3.75,1.05-7.46,1.67-11.55H61.5c5-3.08,2-6.56,1.21-9.86l4-5.76c3.92-2.85,9.56-.85,15-1.49L86.75,87V98.18H97.48v6.39l2.86,1v24.68c7.34,0,14.47.25,21.56-.07,6.72-.31,13.66,1.52,20.36-1.26V118l2.56-.53c.12-1.54.25-3.27.4-5.24h7.63c.38-1,.67-1.81,1.21-3.3.44,1.15.68,1.79,1.13,3H163c.1,2,.17,3.6.26,5.44l4,.63v12.21h24.38a3.25,3.25,0,0,1,.5.48,1.19,1.19,0,0,1,.22.59c0,7.85,0,15.7,0,24.06l5.29,1.84V133.09l-4.21-8.66,7-9.17-9.37-12.39c4.86-.2,9.2,2.12,12.64,7l1.73-3.11h3.52v2.06L206,110c.95,2,1.86,3.88,2.82,5.87l-3.73,3.73c2.93,4-.44,9.2,2.43,13.44a3.65,3.65,0,0,1-1.18,4.84c2.45,2.8,1,6.15,1.26,9.22s0,6,0,9.15l2.46.73c.68-8.68.11-17.15.37-25.45,1.23-1.92,2.32-3.81,3.6-5.57s2.61-3.14,4.64-5.56c0,.12.08-1,.2-2.37h3.81c.14,1.19.27,2.29.42,3.63h13.45c.5-2.41,1.09-5.16,1.67-7.92.54-2.58-1.26-5.57,1.35-7.79l-2.23-2.69,3.76-1.16,1.52,1.29-1,2.18,2.54,16h13.34c.11-1.1.23-2.2.37-3.58h3.72l.43,3.19c5.09.8,4.24,7,8.12,9.59V156.4H274c-.14.13.18,0,.18-.17q0-9.28,0-18.59l5.87-3.38,3.58,2.19c.31-1.76.52-3,.77-4.41l2.34-.82c.12-1.05.25-2.15.39-3.33l2.44-.92c.12-1.07.24-2.16.38-3.5h3.56c.25-1.47.47-2.75.72-4.19h5v3.32l2.84,1v3.28l2.88,1,.25,3.48h4.13c-.49-6.25.08-12.27,3.49-17.83,3.32,10.19,1.62,20.51,2,30.7.14,3.93,0,7.87,0,12.15h6.6c1.33-4.75-1-10,1.4-14.49l-1.33-7.34c1.48-2,2.63-3.61,3.76-5.15l3.05,4.14c-.36,3.08-1.51,5.95-.78,8.22,1.55,4.86,1,9.78,1.25,14.75l2.49.16V105.68l4-.76c.62-2.76.7-5.8,2-8.21,1.39-2.64,1.17-5.2,1.23-7.85.07-2.92,0-5.84,0-9.66l4.31,2.88c-.55,1.51-1.81,3.16-1.44,4.24,2.13,6.17,1,13.17,4.71,18.73l2.2.51V127c2.5,1.16,3.1,0,2.63-2.25h43V110.29l2.33-2.31,1.49,3.12,7.32-4.73V99.15c.91-.9,1.56-1.56,2.42-2.42l3.49,4.55v4.9l6.25,4.29,3-1.71c.71,5,.06,9.61.54,14.88a12.23,12.23,0,0,0,2.56-1.6c1.75-2,3.38-4.08,5.48-6.66,4.06,4.92,9.22,7.73,12.55,13v20.33l4.36,2.92c-1.95,3.41-2,3.42.58,6.43h15.29a3,3,0,0,0,.48-.42,1.15,1.15,0,0,0,.25-.58c0-8.32,0-16.64,0-25.66l16.45,2.79v-3.43l43.16,6.8v3.56l10.1,2.37c-.58,4.51-1.18,9.3-1.83,14.38h4.17V123.67l5.8-5.88H549l9.2-7v42.77h5.66V111.14c1.91-.34,2.17,1.44,3.18,2a23.88,23.88,0,0,1,2.74,1.79c1.09.8,2.12,1.68,3.4,2.7h9.49c1.16,2.37,2,5.25,6.36,3.87v16.12c0,5.1-.56,10.29.16,15.29s-4.38,9.94.74,15.33c.26-2.16.46-3.76.72-5.86H600c.08-1.36.14-2.25.2-3.08L594.58,152v-7l4.83-5h7.89l3.54,1.75a4.52,4.52,0,0,0,.45.9c2.33,3.28,1.05,7,1.43,10.5l-4.09,4.09V162H620.7v-4.4L615.22,150c.77-2.61,1.38-4.68,2.06-7,3.31-3.74,8-3.06,13-3l4.37,5.78c1.3,5.8-1.42,9.72-5.24,12.85V162h13.74c.05-1,.1-1.92.15-3l-5.39-4.78v-9.59c1.32-1.33,2.8-2.8,4.64-4.64,3.6.17,7.65-.84,11.65,2,2.28,3.18,1.58,7.29,1.51,11.29l-5.45,5.45v2.78c2.9,2.26,5.31-.22,8.16-1V148.62h24.36l2.4-2.89h15V129.92l10.8,8.49h4.77L729,132.84c.27.73.5,1.33.78,2.08L714,143c3.45,2.83,6.07-.29,8.9-.36a58.85,58.85,0,0,0,8.47-1.31,27.71,27.71,0,0,1,9.58-.49c-1.35.38-2.7.76-2.84.81v6.46h16.54v-61c5.87-.37,11.62.87,16.7-2.39,0-.35-.05-.8-.1-1.74H759c-.08-1.11-.13-1.74-.19-2.65h20.58c-.11,2.77.94,5.28,4.4,5.94v74.19l5.6.59V342.35Z"/><path class="cls-6" d="M421.49,51a154.87,154.87,0,0,0,25.78-8.46c14.63-6.16,34.64.38,41.18,3.46s14,1,17.89.58,17.12-.2,25.59,4.42Z"/><path class="cls-6" d="M1190.47,71.14s7.72-2.54,14.37-5.3c7.68-3.18,11.45,2,18.85,2.17s11-1.92,16.83-1.4c8.65.77,9.53,3.6,13.54,4.89Z"/><path class="cls-6" d="M289.17,36.27s11.55-13.42,28.3-7.1,16,2.11,24.43,1.44c7.22-.58,10.08,4.87,16.26,5.66Z"/><path class="cls-6" d="M776.46,57.18s5.57-1,17.79-7,25.65,2.72,34.46.87,16.94-2.42,24.2,1,12.43,2.24,19,1.35c6.78-.92,10.19,2.4,21.54,3.87Z"/><path class="cls-6" d="M1116.44,30.34a113.92,113.92,0,0,0,33-9c16.64-7.46,27.24-2,35.62,2.66,11.56,6.38,21.66,3.12,32.77,3.54a107.22,107.22,0,0,1,20.73,2.84Z"/><path class="cls-6" d="M653.13,31A80.58,80.58,0,0,0,666,26.29c11.35-5.12,19-.31,24.62,1.08,9.28,2.29,14.24-2.93,32.61-.45a163.32,163.32,0,0,1,18.67,4Z"/><path class="cls-6" d="M197,52.58s17.25-3.13,30.78-9,22.12,2.54,34.12,4.5,15.87-1.11,25.79,0c6.65.75,19.52,4.47,19.52,4.47Z"/><path class="cls-6" d="M973.19,78.87c-.28-1.49.58-3-.07-4.46s-2.12-1.47-3.42-1.77a46.84,46.84,0,0,1-5-1.19,3.8,3.8,0,0,1-3-4c0-2.35.49-5.62-2.5-6.39a14.1,14.1,0,0,0-4,.07,14.73,14.73,0,0,1-5.5-.88A8.07,8.07,0,0,1,947.11,59c-1-.88-.79-2-.3-3.1.64-1.4,1.59-2.59,1.93-4.12a4.28,4.28,0,0,0-3.53-5.34,15.69,15.69,0,0,0-4.22,0c-1.75.09-4.65-.05-5.12-2.27-.29-1.39,1.08-2.48,1.09-3.86a3.22,3.22,0,0,0-1.79-2.68c-1.4-.79-3-.62-4.52-1A5.22,5.22,0,0,1,927.14,33a7.1,7.1,0,0,1,.29-4.7c.64-1.66,2.3-4.53,4.48-3.52,1.25.58,2.19,1.92,3.31,2.73a11.27,11.27,0,0,0,4.27,1.94c3.23.66,6.33-.49,9.32-1.58A25.09,25.09,0,0,1,958.37,26a14.87,14.87,0,0,1,4.33.76c1.46.5,4.43,1.72,4.4,3.58a13,13,0,0,1-.56,2.35,14.64,14.64,0,0,0-.31,2.47c-.06,1.37-.06,3.1.8,4.26a5.41,5.41,0,0,0,3.19,1.68c1.69.44,3.42.77,5.08,1.33,3.6,1.22,7.09,4.2,5.71,8.39-.57,1.72-1.65,3.23-2.35,4.89a9.84,9.84,0,0,0-.78,4.82,11.11,11.11,0,0,0,2,5.11c1.09,1.68,2.66,3.89,1.35,5.89-.88,1.35-2.5,2-3.44,3.33a3.4,3.4,0,0,0-.43,3.74.6.6,0,0,0,1-.61c-1-1.72,1.07-3.21,2.22-4.16a5.35,5.35,0,0,0,2.27-3.43,6.82,6.82,0,0,0-1.23-4.22c-1.11-1.83-2.3-3.44-2.53-5.65-.39-3.8,2.24-6.34,3.2-9.77a7,7,0,0,0-2.56-7.31c-2.61-2.16-6-2.68-9.18-3.5a6.81,6.81,0,0,1-1.91-.68,3.09,3.09,0,0,1-1.19-2.71,12.89,12.89,0,0,1,.17-3.1c.16-.92.52-1.79.65-2.72.39-2.9-3.32-4.53-5.59-5.24a18.89,18.89,0,0,0-9.12-.29c-3.46.65-6.61,2.4-10.07,3a9.48,9.48,0,0,1-5.59-.6,18.67,18.67,0,0,1-4.31-3.19c-2.21-1.85-4.52-1.05-6.09,1.2a8.7,8.7,0,0,0-1.17,8.44,6.55,6.55,0,0,0,2.5,2.91c1.53.93,3.25.72,4.9,1.21.91.27,2,.9,2.06,2,0,.78-.6,1.49-.87,2.19a3.26,3.26,0,0,0,.58,3.4c2.3,2.72,5.87,1.28,8.88,1.64,1.69.2,3.3,1.12,3.34,3s-1.37,3.46-2.08,5.18c-1.55,3.67,2,5.38,5,6.18a16.48,16.48,0,0,0,5.81.42,5.36,5.36,0,0,1,3,.19,3,3,0,0,1,1.21,2.71c0,1.67-.43,3.42.39,5a5.52,5.52,0,0,0,3.35,2.48c1.91.64,4,1,5.9,1.4.57.13,1.27.19,1.65.72a2.84,2.84,0,0,1,.16,2,7.61,7.61,0,0,0-.07,2.52c.14.75,1.29.44,1.15-.32Z"/><path class="cls-6" d="M929.16,24.67a8.18,8.18,0,0,0-2.37,9,8.36,8.36,0,0,0,6.08,3.73c4.43.66,3.07,4.15,2.87,4.57s-1.68,5,3.45,4.93,9.46-.06,9.09,3.32-4.55,7.6-1.14,9.44a14.68,14.68,0,0,0,8.49,2c2.42-.18,5.35-.27,5.57,2.71s-.7,6.4,2.62,7.33,7.61,1.35,8.21,2.19.38,4,.38,4,.14,2,1.53,2.12a36.7,36.7,0,0,0,3.78,0s-.82-2.64,0-3.94,3.47-3.56,3.79-4a8,8,0,0,0-.7-6c-1.4-2.26-3.25-6.85-2-10s5-6.58,2.3-10-9.33-5.3-11.2-5.62-3.37-3-3.07-6.08,2.14-6.53-5.18-8.48-16.5,2.58-16.5,2.58-5.3.93-7.28-.13a31.92,31.92,0,0,1-4.4-3.1l-2.38-1.28Z"/><rect class="cls-7" x="971.71" y="79.7" width="4.5" height="12.73"/><polygon class="cls-8" points="971.84 80.4 976.38 81.65 976.38 79.83 971.84 79.83 971.84 80.4"/><rect class="cls-9" x="976.21" y="79.7" width="2.42" height="12.73"/><rect class="cls-10" x="972.06" y="77.37" width="8.65" height="3.19" rx="0.54"/><rect class="cls-11" x="969.64" y="77.37" width="8.65" height="3.19" rx="0.54"/><polygon class="cls-9" points="983.63 113.94 983.63 91.41 965.6 91.41 965.6 68.88 947.56 68.88 947.56 91.41 929.53 91.41 929.53 113.94 911.5 113.94 911.5 150.37 929.53 150.37 947.56 150.37 965.6 150.37 983.63 150.37 1001.66 150.37 1001.66 113.94 983.63 113.94"/><rect class="cls-9" x="931.39" y="153.08" width="118.64" height="52.59"/><rect class="cls-9" x="931.39" y="205.67" width="118.64" height="104.92"/><rect class="cls-9" x="1016.02" y="98.08" width="18.92" height="50.91"/><rect class="cls-9" x="929.97" y="153.08" width="122.67" height="4.24"/><rect class="cls-9" x="929.97" y="205.67" width="122.67" height="4.24"/><rect class="cls-9" x="1014.6" y="96.59" width="21.76" height="2.98"/><path class="cls-12" d="M1006.09,96.59l13.71-32.14a.94.94,0,0,1,1.82,0l13.32,32.14Z"/><polygon class="cls-7" points="978.46 113.94 978.46 91.41 960.43 91.41 960.43 68.88 942.4 68.88 942.4 91.41 924.37 91.41 924.37 113.94 906.34 113.94 906.34 150.37 924.37 150.37 942.4 150.37 960.43 150.37 978.46 150.37 996.49 150.37 996.49 113.94 978.46 113.94"/><line class="cls-13" x1="941.15" y1="68.88" x2="961.68" y2="68.88"/><line class="cls-13" x1="960.43" y1="91.41" x2="979.71" y2="91.41"/><line class="cls-13" x1="978.46" y1="113.94" x2="997.74" y2="113.94"/><line class="cls-13" x1="942.4" y1="91.41" x2="923.12" y2="91.41"/><line class="cls-13" x1="924.37" y1="113.94" x2="905.09" y2="113.94"/><circle class="cls-14" cx="951.42" cy="82.55" r="4.6"/><circle class="cls-14" cx="934" cy="103.4" r="4.6"/><circle class="cls-14" cx="916.37" cy="124.05" r="4.6"/><circle class="cls-14" cx="986.67" cy="124.05" r="4.6"/><circle class="cls-14" cx="967.89" cy="103.4" r="4.6"/><rect class="cls-15" x="939.23" y="116.47" width="24.38" height="24.38"/><line class="cls-13" x1="951.42" y1="115.5" x2="951.42" y2="141.8"/><line class="cls-13" x1="964.57" y1="128.65" x2="938.27" y2="128.65"/><rect class="cls-7" x="906.36" y="153.08" width="118.64" height="52.59"/><rect class="cls-7" x="906.36" y="205.67" width="118.64" height="104.92"/><rect class="cls-6" x="919.54" y="169.91" width="23.21" height="23.21"/><line class="cls-13" x1="931.14" y1="168.99" x2="931.14" y2="194.03"/><line class="cls-13" x1="943.67" y1="181.51" x2="918.62" y2="181.51"/><rect class="cls-15" x="955.35" y="169.91" width="23.21" height="23.21"/><line class="cls-13" x1="966.95" y1="168.99" x2="966.95" y2="194.03"/><line class="cls-13" x1="979.48" y1="181.51" x2="954.43" y2="181.51"/><rect class="cls-6" x="991.16" y="169.91" width="23.21" height="23.21"/><line class="cls-13" x1="1002.77" y1="168.99" x2="1002.77" y2="194.03"/><line class="cls-13" x1="1015.29" y1="181.51" x2="990.24" y2="181.51"/><rect class="cls-13" x="915.15" y="288.91" width="30.58" height="3.89"/><rect class="cls-13" x="919.73" y="285.02" width="26" height="3.89"/><rect class="cls-13" x="923.93" y="281.12" width="21.8" height="3.89"/><rect class="cls-9" x="935.31" y="288.91" width="13.74" height="3.89"/><rect class="cls-13" x="910.97" y="292.8" width="34.35" height="3.89"/><rect class="cls-9" x="930.9" y="292.8" width="18.15" height="3.89"/><rect class="cls-13" x="906.36" y="296.7" width="38.5" height="13.89"/><rect class="cls-9" x="926.75" y="296.7" width="22.3" height="13.89"/><rect class="cls-9" x="939.89" y="285.02" width="9.16" height="3.89"/><rect class="cls-9" x="944.09" y="281.12" width="4.96" height="3.89"/><path class="cls-14" d="M936.9,245h0a11,11,0,0,1,11,11v25.09a0,0,0,0,1,0,0h-22a0,0,0,0,1,0,0V256A11,11,0,0,1,936.9,245Z"/><path class="cls-11" d="M936.9,249.29h0a7.19,7.19,0,0,1,7.19,7.19V277a0,0,0,0,1,0,0H929.71a0,0,0,0,1,0,0V256.48a7.19,7.19,0,0,1,7.19-7.19Z"/><line class="cls-14" x1="936.9" y1="249.29" x2="936.9" y2="277.01"/><line class="cls-14" x1="929.71" y1="260.15" x2="944.09" y2="260.15"/><line class="cls-14" x1="929.71" y1="268.89" x2="944.09" y2="268.89"/><circle class="cls-8" cx="945.73" cy="265.18" r="0.84"/><rect class="cls-15" x="954.26" y="242.81" width="15.13" height="20.97"/><line class="cls-13" x1="953.27" y1="249.88" x2="970.38" y2="249.88"/><rect class="cls-6" x="978.49" y="242.81" width="15.13" height="20.97"/><line class="cls-13" x1="977.51" y1="249.88" x2="994.61" y2="249.88"/><rect class="cls-6" x="1001.93" y="242.81" width="15.13" height="20.97"/><line class="cls-13" x1="1000.94" y1="249.88" x2="1018.05" y2="249.88"/><rect class="cls-6" x="954.26" y="215.6" width="15.13" height="20.97"/><line class="cls-13" x1="953.27" y1="222.67" x2="970.38" y2="222.67"/><rect class="cls-6" x="978.49" y="215.6" width="15.13" height="20.97"/><line class="cls-13" x1="977.51" y1="222.67" x2="994.61" y2="222.67"/><rect class="cls-6" x="929.34" y="215.6" width="15.13" height="20.97"/><line class="cls-13" x1="928.35" y1="222.67" x2="945.45" y2="222.67"/><rect class="cls-15" x="1001.93" y="215.6" width="15.13" height="20.97"/><line class="cls-13" x1="1000.94" y1="222.67" x2="1018.05" y2="222.67"/><path class="cls-7" d="M1011.07,310.59V294.05a21.44,21.44,0,1,0-42.87,0v16.54Z"/><path class="cls-9" d="M973.17,297.12a21.45,21.45,0,0,1,30.12-19.6,21.44,21.44,0,0,0-35.09,16.53v16.54h5Z"/><rect class="cls-7" x="1006.09" y="98.08" width="18.92" height="50.91"/><rect class="cls-7" x="903.75" y="153.08" width="123.87" height="4.24"/><rect class="cls-9" x="928.03" y="148.84" width="127.56" height="4.24"/><rect class="cls-7" x="902" y="148.84" width="127.56" height="4.24"/><rect class="cls-7" x="903.75" y="205.67" width="123.87" height="4.24"/><polygon class="cls-8" points="1025.01 209.91 906.36 209.91 906.36 212.61 1025.01 209.91"/><polygon class="cls-8" points="1025.01 157.32 906.36 157.32 906.36 159.62 1025.01 157.32"/><polygon class="cls-8" points="1027.62 153.08 903.75 153.08 903.75 155.37 1027.62 153.08"/><polygon class="cls-8" points="1027.62 205.67 903.75 205.67 903.75 207.97 1027.62 205.67"/><polygon class="cls-8" points="1029.56 148.84 902 148.84 902 151.13 1029.56 148.84"/><polygon class="cls-8" points="906.34 113.94 924.37 113.94 906.36 115.96 906.34 113.94"/><polygon class="cls-8" points="924.55 91.41 942.58 91.41 924.57 93.43 924.55 91.41"/><polygon class="cls-8" points="942.4 68.88 960.43 68.88 942.42 70.91 942.4 68.88"/><rect class="cls-7" x="1004.67" y="96.59" width="21.76" height="2.98"/><rect class="cls-7" x="1018.45" y="63.26" width="4.52" height="1.72"/><line class="cls-7" x1="1020.71" y1="63.26" x2="1020.71" y2="60.25"/><circle class="cls-7" cx="1020.71" cy="60.25" r="1.2"/><line class="cls-7" x1="1007.97" y1="99.57" x2="1007.97" y2="101.16"/><line class="cls-7" x1="1011.05" y1="99.57" x2="1011.05" y2="101.16"/><line class="cls-7" x1="1014.13" y1="99.57" x2="1014.13" y2="101.16"/><line class="cls-7" x1="1017.21" y1="99.57" x2="1017.21" y2="101.16"/><line class="cls-7" x1="1020.29" y1="99.57" x2="1020.29" y2="101.16"/><line class="cls-7" x1="1023.36" y1="99.57" x2="1023.36" y2="101.16"/><path class="cls-6" d="M1015.55,105.68h0a1.59,1.59,0,0,1,1.59,1.59v12.19a0,0,0,0,1,0,0H1014a0,0,0,0,1,0,0V107.27a1.59,1.59,0,0,1,1.59-1.59Z"/><line class="cls-7" x1="1013.16" y1="119.45" x2="1017.93" y2="119.45"/><rect class="cls-16" x="909.24" y="161.44" width="6.58" height="2.93"/><rect class="cls-16" x="912.96" y="165.38" width="6.58" height="2.93"/><rect class="cls-16" x="913.56" y="198.77" width="6.58" height="2.93"/><rect class="cls-16" x="944.46" y="189.32" width="6.58" height="2.93"/><rect class="cls-16" x="948.4" y="193.99" width="6.58" height="2.93"/><rect class="cls-16" x="975.49" y="161.59" width="6.58" height="2.93"/><rect class="cls-16" x="987.42" y="198.77" width="6.58" height="2.93"/><rect class="cls-16" x="914.39" y="219.74" width="6.58" height="2.93"/><rect class="cls-16" x="911.86" y="224.95" width="6.58" height="2.93"/><rect class="cls-16" x="943.28" y="241.37" width="6.58" height="2.93"/><rect class="cls-16" x="912.96" y="271.15" width="6.58" height="2.93"/><rect class="cls-16" x="954.26" y="266.02" width="6.58" height="2.93"/><rect class="cls-16" x="957.55" y="271.15" width="6.58" height="2.93"/><rect class="cls-16" x="991.32" y="285.5" width="6.58" height="2.93"/><rect class="cls-16" x="985.55" y="289.39" width="6.58" height="2.93"/><rect class="cls-16" x="1008.71" y="275.55" width="6.58" height="2.93"/><rect class="cls-16" x="1013.77" y="268.22" width="6.58" height="2.93"/><rect class="cls-16" x="991.92" y="211.78" width="6.58" height="2.93"/><rect class="cls-16" x="1014.64" y="160.87" width="6.58" height="2.93"/><rect class="cls-16" x="918.62" y="141.8" width="6.58" height="2.93"/><rect class="cls-16" x="913.08" y="137.34" width="6.58" height="2.93"/><rect class="cls-16" x="926.68" y="125.22" width="6.58" height="2.93"/><rect class="cls-16" x="946.82" y="105.68" width="6.58" height="2.93"/><rect class="cls-16" x="969.2" y="130.71" width="6.58" height="2.93"/><rect class="cls-16" x="971.88" y="125.22" width="6.58" height="2.93"/><rect class="cls-16" x="966.1" y="113.48" width="6.58" height="2.93"/><rect class="cls-16" x="944.84" y="99.69" width="6.58" height="2.93"/><rect class="cls-16" x="985.55" y="143.24" width="6.58" height="2.93"/><rect class="cls-16" x="1012.73" y="141.77" width="6.58" height="2.93"/><rect class="cls-16" x="1009.44" y="136.61" width="6.58" height="2.93"/><rect class="cls-16" x="1015.55" y="122.07" width="6.58" height="2.93"/><circle class="cls-8" cx="872.65" cy="223.99" r="3.18"/><rect class="cls-11" x="878.35" y="223.99" width="23.89" height="28.02"/><line class="cls-13" x1="911.86" y1="223.99" x2="872.65" y2="223.99"/><path class="cls-6" d="M895.84,231.08l.39,1.66L895,233.85c-.15-.46-.22-1-.37-1.55Z"/><path class="cls-6" d="M891.21,231.8c-.29.48-.5,1-.82,1.46l-.81-1.48.81-1.49C890.69,230.81,891,231.29,891.21,231.8Z"/><path class="cls-6" d="M885.81,233.89l-1.21-1.15c.12-.54.23-1.07.37-1.59l1.17,1.15C886.07,232.82,885.93,233.35,885.81,233.89Z"/><path class="cls-6" d="M882,234.47c0,.48,0,.94,0,1.41-.49-.73-1-1.47-1.46-2.21C881.05,233.9,881.5,234.19,882,234.47Z"/><path class="cls-6" d="M900.41,233.6c-.23.44-.56.8-.81,1.22s-.35.57-.53.85a.44.44,0,0,1-.13.15l.07-1.45a12.77,12.77,0,0,1,1.4-.76Z"/><polygon class="cls-6" points="900.41 233.6 900.41 233.61 900.42 233.6 900.41 233.6"/><path class="cls-6" d="M893.78,243.53a6.68,6.68,0,0,1-1.26.43,9.51,9.51,0,0,1-3.72.09,4.26,4.26,0,0,1-2.5-1.08,4.62,4.62,0,0,0-1.29.93c-.15.09-.06.18,0,.27s0,.07,0,.1h0a.31.31,0,0,0,.1.15l0,.05a.07.07,0,0,0,0,.07.21.21,0,0,0,.1.11h0l0,0h0l.05,0h0a.07.07,0,0,0,.06,0h0a.67.67,0,0,0,.27.23s0,0,0,0,0,0,.07,0a.11.11,0,0,0,.09.06.08.08,0,0,0,.07,0,.37.37,0,0,0,.19.11.07.07,0,0,0,.07,0h0s.05.05.1.05h0a.1.1,0,0,0,.1,0h0a.1.1,0,0,0,.11.05v0h0a.08.08,0,0,0,.08,0h0a2.53,2.53,0,0,0,.79.3.11.11,0,0,0,.11,0,7.52,7.52,0,0,0,2.21.36H890a4,4,0,0,0,.77,0,.88.88,0,0,0,.36,0,4.7,4.7,0,0,0,.92-.08.14.14,0,0,0,.11,0,1.25,1.25,0,0,0,.5-.11h0a4.12,4.12,0,0,0,1.16-.36,3.4,3.4,0,0,0,2.08-1.68,4.52,4.52,0,0,0-1.41-1A2.23,2.23,0,0,1,893.78,243.53Z"/><path class="cls-6" d="M885.42,237.11c-.06,0-.09.07-.13.12h0a.78.78,0,0,0,0,1h0a.35.35,0,0,0,.21.2h0c.25.2.5.11.76,0h0c.08,0,.15,0,.25,0l.41,1.05c-.08.19-.24.3-.3.47l0,0s0,0,.06,0a5.18,5.18,0,0,1,1.22-.29c-.19-.15-.41-.17-.57-.29-.05-.39-.13-.78-.16-1.17l.53-.17a.58.58,0,0,0,.36-.31.81.81,0,0,0-.27-1c-.09-.11-.23-.12-.35-.17.12-.4.06-.61-.21-.81a.37.37,0,0,0-.34-.12c-.11,0-.18.1-.29.09h0a.56.56,0,0,0-.15-.37.05.05,0,0,0,0-.06.1.1,0,0,0-.06-.05h0c-.26-.19-.4-.17-.58.06h0c-.19.2-.08.44-.06.67-.16.05-.35,0-.44.21l.19,0-.19,0s0,0,0,0a.51.51,0,0,0,0,.6h0a.17.17,0,0,0,.09.16h0c0,.09.14.1.12.2Zm.35-1.2h0Zm0,0h0Zm0-.05h0Zm0-.05Zm.06.25h0Zm0-.06h0Zm1.45-.24Zm-.57,0,.06,0-.06,0,0,0Zm.07,2.21a.55.55,0,0,0,.19-.18s.05,0,.06,0a.06.06,0,0,0,0-.05.17.17,0,0,0,.11-.09h0a.1.1,0,0,0,.07-.07h0a.7.7,0,0,0,.22-.2h0c.07.07-.05.12,0,.19h0a1,1,0,0,0-.16.35h0l-.15.3a3,3,0,0,1-.57.15l-.23-.13h0s0,0-.06,0h0a.11.11,0,0,0-.09-.07.45.45,0,0,0-.21-.15.07.07,0,0,0-.06,0s-.11,0,0-.11a3.39,3.39,0,0,0,.62.12h0C886.55,238,886.65,237.94,886.73,238Zm-.27-2.52s0-.1,0-.15S886.45,235.4,886.46,235.45Zm0-.15Zm0-.05Zm.05.21v0Zm0,0v0Zm0,0h0Zm0,0v0Zm0,0h0Zm0,0h0Zm0,0h0Zm0,0h0Zm.05,0Zm0,0h0Zm-.19-.44h0a2.59,2.59,0,0,0-.56.05A2.59,2.59,0,0,1,886.35,235.2Z"/><path class="cls-6" d="M887.34,242.26a12.15,12.15,0,0,1,5.4-.19,6.19,6.19,0,0,1,3,1.4.25.25,0,0,0,.17.09,1.12,1.12,0,0,0-.32-.57,4,4,0,0,0-1.47-.88,10.39,10.39,0,0,0-4.13-.63,9.73,9.73,0,0,0-3.53.73,3.4,3.4,0,0,0-1.24.8.81.81,0,0,0-.28.53c.11,0,.16-.09.22-.14A5.81,5.81,0,0,1,887.34,242.26Z"/><path class="cls-6" d="M897.66,237.69a.55.55,0,0,0-.69-.06c-.24.17-.21.42-.18.67-.29,0-.53,0-.65.27a.66.66,0,0,0,0,.55.1.1,0,0,0,0,.1.07.07,0,0,0,0,.07h0l0,.05h0l.05.05h0a79286910976.29,79286910976.29,0,0,0,.12.08.06.06,0,0,0,.06.05h0a.35.35,0,0,0,.19.12h0c0,.09.17.1.23.22-.11.31-.16.65-.29,1a1.93,1.93,0,0,0-.53.11,1.93,1.93,0,0,1,.53.34c.15-.48.3-.93.49-1.42-.15,0-.15-.13-.19-.24a2.27,2.27,0,0,0-.22-.54s0,0,0,0v-.12a6.42,6.42,0,0,1,.55.6c.31-.78.67-1.51,1-2.26C897.91,237.22,897.79,237.45,897.66,237.69Z"/><path class="cls-6" d="M884.15,239.65a.13.13,0,0,0,.09-.07.76.76,0,0,0,.51-.78.5.5,0,0,0-.55-.51c-.05,0-.12.05-.17,0a.53.53,0,0,0-.86-.59c-.22-.37-.32-.44-.59-.38.35.74.7,1.47,1,2.24a4.15,4.15,0,0,1,.53-.57v.12a.79.79,0,0,0-.14.34h0c-.11.14-.05.38-.26.46.18.47.33.93.49,1.42a1.52,1.52,0,0,1,.51-.37,4.52,4.52,0,0,0-.53-.11,9.1,9.1,0,0,1-.27-1C884,239.75,884.09,239.73,884.15,239.65Z"/><path class="cls-6" d="M893,238h0c.19.12.42.13.64.24l-.17,1.14c-.18.13-.4.14-.56.3a4.31,4.31,0,0,1,1.3.34l-.38-.53.43-1.09a4.47,4.47,0,0,1,.45.09.64.64,0,0,0,.69-.16h0a.28.28,0,0,0,.13-.17s0-.06,0-.11,0,0,0,0a.69.69,0,0,0-.16-.85.06.06,0,0,0-.06,0c0-.12.16-.14.17-.25a.07.07,0,0,0,0-.06h0a.5.5,0,0,0,0-.54v0a.1.1,0,0,0,0-.1h0a.06.06,0,0,0-.05-.06c-.09-.15-.28-.09-.41-.17a.93.93,0,0,0,.06-.37.45.45,0,0,0-.26-.44.38.38,0,0,0-.43.1s-.05,0-.05.05a.06.06,0,0,0,0,.06c-.11.1-.11.26-.18.38-.2-.08-.41-.18-.59,0a.22.22,0,0,0-.16.16h0a.67.67,0,0,0-.05.67.53.53,0,0,0-.36.15.06.06,0,0,0-.06.05s0,0-.05,0a.51.51,0,0,0-.19.32A.71.71,0,0,0,893,238Zm1.92-2.07s0,0,0,0,0,0,0,0Zm.06.1,0,0Zm.1,0h0Zm0,0Zm0,0h0Zm0,0Zm.18,1.74h0l0,0Zm.14-1.69Zm-1.22-.42h0Zm-.41,0h0Zm.3.09h0Zm0,0h0Zm0,0h0Zm0,0h0Zm0,0h0Zm0,0h0Zm0,0h0Zm0,0h0Zm-.08,0h0Zm-.24,0h0l.08,0-.08,0Zm.2,0h0Zm0,0h0Zm0,0h0Zm-.28.19Zm-.08,1.49v0l.42.37.28.25c.34,0,.64-.16,1-.18l-.1.1a.07.07,0,0,0-.06,0s0,0-.06.05a.1.1,0,0,0-.09.06.06.06,0,0,0-.06.05h0l-.36.22a2.93,2.93,0,0,1-.57-.13l-.19-.34a.32.32,0,0,0-.1-.21.12.12,0,0,0,0-.11.05.05,0,0,0,0,0s0-.07,0-.08Z"/><path class="cls-6" d="M889.18,237.78a.41.41,0,0,0,.34.13c.18,0,.36,0,.56,0l.13,1.17-.46.38a5.73,5.73,0,0,1,1.31,0c-.14-.19-.35-.26-.47-.43,0-.39.07-.77.14-1.15l.53,0a.61.61,0,0,0,.5-.26.84.84,0,0,0,0-1.06h0s0-.05-.05-.05a.19.19,0,0,0-.16-.1v0s-.06-.06,0-.11l0,0,0,0a.55.55,0,0,0,0-.72c-.11-.3-.37-.29-.62-.26,0-.17,0-.33-.1-.46a.18.18,0,0,0-.1-.15h0c-.22-.19-.26-.19-.47-.06h0c-.28.15-.27.41-.26.67a.34.34,0,0,1-.1,0c-.5-.12-.75.44-.61.79a1.33,1.33,0,0,0,.11.24.77.77,0,0,0-.46.68.19.19,0,0,0,0,.15A.69.69,0,0,0,889.18,237.78Zm2.34-1.27h0Zm.09,0h0Zm-.07,0h0Zm0,0h0Zm0,0h0Zm0,0h0Zm-.13,0v0Zm-.1-.2h0Zm.09-.26h0Zm0,0h0Zm0,0h0Zm0,0v0Zm0,0v0Zm0,.05h0Zm.06-.25Zm0-.39Zm-.24-.16Zm0,0Zm0,0h0Zm-.11,0h0Zm-.28,0h0Zm0,0h0Zm0,0v0Zm0,0v0Zm0,0v0Zm0,0v0Zm0,0c0-.11,0-.23,0-.34h0C890.79,235,890.77,235.12,890.78,235.23Zm-.1-.49Zm0,0h0Zm0,0h0Zm-.16-.08a1.1,1.1,0,0,0-.31,0A1.1,1.1,0,0,1,890.52,234.72Zm-.43.24a3,3,0,0,0-.14.39h0A3,3,0,0,1,890.09,235Zm-.29,2.3h0a.09.09,0,0,0,.1.05h0a.12.12,0,0,0,.1.06,1.65,1.65,0,0,0,.42.21,1.3,1.3,0,0,0,.31-.16h0a.14.14,0,0,0,.1,0,.72.72,0,0,0,.27-.15h0a.17.17,0,0,0,.11-.06h0s0,0,0,0a.89.89,0,0,0-.21.26h0c-.14.11-.22.28-.36.41h-.58l-.17-.15h0a.05.05,0,0,0,0-.06.09.09,0,0,0,0-.06h0a.1.1,0,0,0-.07-.08.05.05,0,0,0,0-.06s0-.05,0-.06a.11.11,0,0,0-.07-.08h0s0,0,0-.06l0,0C889.65,237.15,889.71,237.27,889.8,237.26Z"/><path class="cls-17" d="M1039.81,247.79c0-16.8,9.71-18.2,10.67-33.59.89-14.2,0-26.76,15.85-26.76s15,12.56,15.85,26.76c1,15.39,10.67,16.79,10.67,33.59C1092.85,283.86,1039.81,283.86,1039.81,247.79Z"/><line class="cls-18" x1="1066.33" y1="208.78" x2="1066.33" y2="301.96"/><line class="cls-18" x1="1066.33" y1="263.55" x2="1082.74" y2="247.14"/><line class="cls-18" x1="1066.33" y1="244.87" x2="1055.75" y2="234.29"/><line class="cls-18" x1="1066.33" y1="258.23" x2="1070.58" y2="253.98"/><line class="cls-18" x1="1066.33" y1="217.39" x2="1063.74" y2="214.81"/><path class="cls-19" d="M1265.53,301.16c-5.36-6.59-14.89-13-25-13a37.09,37.09,0,0,0-12.74,2.3c-5.17-7.16-15.15-12-25.82-12-14.59,0-28.8,11.11-30.34,22.74Z"/><line class="cls-20" x1="1173.99" y1="121.14" x2="1178.23" y2="128.98"/><line class="cls-20" x1="1159.13" y1="121.14" x2="1154.89" y2="128.98"/><path class="cls-21" d="M1156.6,102.58h19.9a0,0,0,0,1,0,0v12a9.95,9.95,0,0,1-9.95,9.95h0a9.95,9.95,0,0,1-9.95-9.95v-12A0,0,0,0,1,1156.6,102.58Z"/><polygon class="cls-17" points="1155.37 102.58 1177.73 102.58 1166.51 93.31 1155.37 102.58"/><line class="cls-20" x1="1155.37" y1="106.86" x2="1177.73" y2="106.86"/><line class="cls-20" x1="1156.88" y1="120.05" x2="1176.23" y2="120.05"/><rect class="cls-20" x="1081.07" y="139.04" width="102.06" height="162.12"/><rect class="cls-20" x="1079.11" y="133.73" width="105.98" height="5.31"/><rect class="cls-19" x="1183.13" y="139.04" width="24.29" height="162.12"/><rect class="cls-19" x="1185.09" y="133.73" width="24.29" height="5.31"/><rect class="cls-19" x="1187.87" y="128.43" width="24.29" height="5.31"/><rect class="cls-20" x="1076.33" y="128.43" width="111.53" height="5.31"/><rect class="cls-15" x="1095.16" y="156.4" width="29.32" height="29.32"/><line class="cls-18" x1="1109.82" y1="155.25" x2="1109.82" y2="186.89"/><line class="cls-18" x1="1125.64" y1="171.07" x2="1094" y2="171.07"/><rect class="cls-6" x="1140.4" y="156.4" width="29.32" height="29.32"/><line class="cls-18" x1="1155.06" y1="155.25" x2="1155.06" y2="186.89"/><line class="cls-18" x1="1170.88" y1="171.07" x2="1139.24" y2="171.07"/><rect class="cls-6" x="1095.16" y="199.71" width="29.32" height="29.32"/><line class="cls-18" x1="1109.82" y1="198.56" x2="1109.82" y2="230.2"/><line class="cls-18" x1="1125.64" y1="214.38" x2="1094" y2="214.38"/><rect class="cls-6" x="1090.14" y="255.5" width="44.38" height="29.32"/><line class="cls-18" x1="1112.33" y1="254.34" x2="1112.33" y2="285.98"/><line class="cls-18" x1="1135.67" y1="270.16" x2="1088.98" y2="270.16"/><rect class="cls-15" x="1140.4" y="199.71" width="29.32" height="29.32"/><line class="cls-18" x1="1155.06" y1="198.56" x2="1155.06" y2="230.2"/><line class="cls-18" x1="1170.88" y1="214.38" x2="1139.24" y2="214.38"/><line class="cls-18" x1="1095.16" y1="139.04" x2="1095.16" y2="142.8"/><line class="cls-18" x1="1113.29" y1="139.04" x2="1113.29" y2="142.8"/><line class="cls-18" x1="1131.42" y1="139.04" x2="1131.42" y2="142.8"/><line class="cls-18" x1="1149.56" y1="139.04" x2="1149.56" y2="142.8"/><line class="cls-18" x1="1167.69" y1="139.04" x2="1167.69" y2="142.8"/><rect class="cls-18" x="1135.31" y="294.25" width="38.63" height="6.92"/><rect class="cls-18" x="1141.09" y="289.33" width="32.84" height="4.92"/><rect class="cls-18" x="1146.41" y="284.41" width="27.53" height="4.92"/><rect class="cls-19" x="1160.77" y="294.25" width="17.36" height="6.92"/><rect class="cls-19" x="1166.56" y="289.33" width="11.58" height="4.92"/><rect class="cls-19" x="1171.87" y="284.41" width="6.26" height="4.92"/><path class="cls-17" d="M1162.79,238.83h0a13.88,13.88,0,0,1,13.88,13.88v31.7a0,0,0,0,1,0,0h-27.76a0,0,0,0,1,0,0v-31.7A13.88,13.88,0,0,1,1162.79,238.83Z"/><path class="cls-15" d="M1162.79,244.19h0a9.08,9.08,0,0,1,9.08,9.08v25.94a0,0,0,0,1,0,0H1153.7a0,0,0,0,1,0,0V253.28A9.08,9.08,0,0,1,1162.79,244.19Z"/><polygon class="cls-21" points="1074.65 265.86 1074.65 258.99 1089.39 247.94 1141.1 247.94 1141.1 265.86 1074.65 265.86"/><polyline class="cls-18" points="1130.42 247.94 1115.69 258.99 1115.69 265.86"/><polyline class="cls-18" points="1119.76 247.94 1105.02 258.99 1105.02 265.86"/><polyline class="cls-18" points="1109.09 247.94 1094.35 258.99 1094.35 265.86"/><polyline class="cls-18" points="1098.42 247.94 1083.68 258.99 1083.68 265.86"/><polygon class="cls-19" points="1141.1 247.94 1126.36 258.99 1126.36 265.86 1141.1 265.86 1141.1 247.94"/><polygon class="cls-8" points="1079.11 133.73 1185.09 133.73 1079.11 135.54 1079.11 133.73"/><polygon class="cls-8" points="1081.07 139.04 1183.13 139.04 1081.07 140.85 1081.07 139.04"/><polygon class="cls-8" points="1076.34 128.43 1187.87 128.43 1076.34 130.24 1076.34 128.43"/><line class="cls-17" x1="1162.79" y1="244.19" x2="1162.79" y2="279.22"/><line class="cls-17" x1="1153.7" y1="257.91" x2="1171.87" y2="257.91"/><line class="cls-17" x1="1153.7" y1="268.95" x2="1171.87" y2="268.95"/><circle class="cls-8" cx="1173.94" cy="264.27" r="1.06"/><rect class="cls-16" x="1087.4" y="149.52" width="3.15" height="3.15"/><rect class="cls-16" x="1083.68" y="156.4" width="3.15" height="3.15"/><rect class="cls-16" x="1087.4" y="162.47" width="3.15" height="3.15"/><rect class="cls-16" x="1087.4" y="185.31" width="3.15" height="3.15"/><rect class="cls-16" x="1126.36" y="192.25" width="3.15" height="3.15"/><rect class="cls-16" x="1171.3" y="178.48" width="3.15" height="3.15"/><rect class="cls-16" x="1175" y="194.23" width="3.15" height="3.15"/><rect class="cls-16" x="1173.94" y="201.23" width="3.15" height="3.15"/><rect class="cls-16" x="1121.48" y="290.21" width="3.15" height="3.15"/><rect class="cls-16" x="1126.36" y="287.75" width="3.15" height="3.15"/><rect class="cls-16" x="1084.25" y="279.81" width="3.15" height="3.15"/><rect class="cls-16" x="1128.85" y="183.73" width="3.15" height="3.15"/><rect class="cls-16" x="1100.14" y="237.25" width="3.15" height="3.15"/><rect class="cls-16" x="1105.02" y="232.49" width="3.15" height="3.15"/><rect class="cls-16" x="1116.6" y="240.55" width="3.15" height="3.15"/><line class="cls-18" x1="1222.57" y1="301.16" x2="1222.57" y2="245.97"/><polygon class="cls-17" points="1224.37 245.97 1220.77 245.97 1215.59 232.25 1229.54 232.25 1224.37 245.97"/><line class="cls-18" x1="1214.73" y1="232.25" x2="1230.41" y2="232.25"/><line class="cls-18" x1="1219.91" y1="245.97" x2="1225.23" y2="245.97"/><polygon class="cls-21" points="1229.54 232.25 1215.59 232.25 1219.91 226.6 1225.23 226.6 1229.54 232.25"/><line class="cls-18" x1="1219.04" y1="226.6" x2="1226.09" y2="226.6"/><path class="cls-20" d="M1222.57,224.17h0a1.67,1.67,0,0,1,1.67,1.67v.77a0,0,0,0,1,0,0h-3.34a0,0,0,0,1,0,0v-.77A1.67,1.67,0,0,1,1222.57,224.17Z"/><line class="cls-18" x1="1222.57" y1="231.39" x2="1222.57" y2="245.97"/><line class="cls-18" x1="1216.93" y1="238.38" x2="1228.21" y2="238.38"/><rect class="cls-22" x="576.22" y="65.57" width="4.14" height="11.71"/><polygon class="cls-8" points="576.34 66.22 580.52 67.37 580.52 65.7 576.34 65.7 576.34 66.22"/><rect class="cls-23" x="580.36" y="65.57" width="2.23" height="11.71"/><rect class="cls-10" x="576.54" y="63.43" width="7.96" height="2.93" rx="0.5"/><rect class="cls-11" x="574.31" y="63.43" width="7.96" height="2.93" rx="0.5"/><rect class="cls-23" x="547.93" y="79.89" width="113.22" height="230.01"/><rect class="cls-24" x="547.93" y="79.89" width="113.22" height="230.01"/><line class="cls-22" x1="546.79" y1="115.52" x2="662.29" y2="115.52"/><rect class="cls-23" x="546.79" y="76.67" width="115.49" height="3.22"/><line class="cls-22" x1="546.79" y1="151.14" x2="662.29" y2="151.14"/><line class="cls-22" x1="546.79" y1="186.76" x2="662.29" y2="186.76"/><line class="cls-22" x1="546.79" y1="222.38" x2="662.29" y2="222.38"/><line class="cls-22" x1="546.79" y1="258" x2="662.29" y2="258"/><rect class="cls-25" x="569.55" y="79.89" width="131.5" height="230.01"/><rect class="cls-24" x="569.55" y="79.89" width="131.5" height="230.01"/><path class="cls-6" d="M585.66,87.66h0a5.74,5.74,0,0,1,5.74,5.74v12.05a0,0,0,0,1,0,0H579.92a0,0,0,0,1,0,0V93.4a5.74,5.74,0,0,1,5.74-5.74Z"/><line class="cls-24" x1="579.4" y1="105.45" x2="591.91" y2="105.45"/><line class="cls-24" x1="579.4" y1="92.43" x2="591.91" y2="92.43"/><path class="cls-6" d="M610.48,87.66h0a5.74,5.74,0,0,1,5.74,5.74v12.05a0,0,0,0,1,0,0H604.74a0,0,0,0,1,0,0V93.4A5.74,5.74,0,0,1,610.48,87.66Z"/><line class="cls-24" x1="604.23" y1="105.45" x2="616.73" y2="105.45"/><line class="cls-24" x1="604.23" y1="92.43" x2="616.73" y2="92.43"/><path class="cls-6" d="M635.3,87.66h0A5.74,5.74,0,0,1,641,93.4v12.05a0,0,0,0,1,0,0H629.56a0,0,0,0,1,0,0V93.4A5.74,5.74,0,0,1,635.3,87.66Z"/><line class="cls-24" x1="629.05" y1="105.45" x2="641.55" y2="105.45"/><line class="cls-24" x1="629.05" y1="92.43" x2="641.55" y2="92.43"/><path class="cls-6" d="M660.12,87.66h0a5.74,5.74,0,0,1,5.74,5.74v12.05a0,0,0,0,1,0,0H654.38a0,0,0,0,1,0,0V93.4A5.74,5.74,0,0,1,660.12,87.66Z"/><line class="cls-24" x1="653.87" y1="105.45" x2="666.37" y2="105.45"/><line class="cls-24" x1="653.87" y1="92.43" x2="666.37" y2="92.43"/><line class="cls-22" x1="568.41" y1="115.52" x2="702.19" y2="115.52"/><rect class="cls-22" x="568.41" y="76.67" width="133.78" height="3.22"/><path class="cls-6" d="M585.66,123.28h0a5.74,5.74,0,0,1,5.74,5.74v12.05a0,0,0,0,1,0,0H579.92a0,0,0,0,1,0,0V129A5.74,5.74,0,0,1,585.66,123.28Z"/><line class="cls-24" x1="579.4" y1="141.08" x2="591.91" y2="141.08"/><line class="cls-24" x1="579.4" y1="128.05" x2="591.91" y2="128.05"/><path class="cls-6" d="M610.48,123.28h0a5.74,5.74,0,0,1,5.74,5.74v12.05a0,0,0,0,1,0,0H604.74a0,0,0,0,1,0,0V129A5.74,5.74,0,0,1,610.48,123.28Z"/><line class="cls-24" x1="604.23" y1="141.08" x2="616.73" y2="141.08"/><line class="cls-24" x1="604.23" y1="128.05" x2="616.73" y2="128.05"/><path class="cls-6" d="M635.3,123.28h0A5.74,5.74,0,0,1,641,129v12.05a0,0,0,0,1,0,0H629.56a0,0,0,0,1,0,0V129a5.74,5.74,0,0,1,5.74-5.74Z"/><line class="cls-24" x1="629.05" y1="141.08" x2="641.55" y2="141.08"/><line class="cls-24" x1="629.05" y1="128.05" x2="641.55" y2="128.05"/><path class="cls-6" d="M660.12,123.28h0a5.74,5.74,0,0,1,5.74,5.74v12.05a0,0,0,0,1,0,0H654.38a0,0,0,0,1,0,0V129a5.74,5.74,0,0,1,5.74-5.74Z"/><line class="cls-24" x1="653.87" y1="141.08" x2="666.37" y2="141.08"/><line class="cls-24" x1="653.87" y1="128.05" x2="666.37" y2="128.05"/><line class="cls-22" x1="568.41" y1="151.14" x2="702.19" y2="151.14"/><path class="cls-6" d="M585.66,158.91h0a5.74,5.74,0,0,1,5.74,5.74V176.7a0,0,0,0,1,0,0H579.92a0,0,0,0,1,0,0V164.64a5.74,5.74,0,0,1,5.74-5.74Z"/><line class="cls-24" x1="579.4" y1="176.7" x2="591.91" y2="176.7"/><line class="cls-24" x1="579.4" y1="163.68" x2="591.91" y2="163.68"/><path class="cls-6" d="M610.48,158.91h0a5.74,5.74,0,0,1,5.74,5.74V176.7a0,0,0,0,1,0,0H604.74a0,0,0,0,1,0,0V164.64A5.74,5.74,0,0,1,610.48,158.91Z"/><line class="cls-24" x1="604.23" y1="176.7" x2="616.73" y2="176.7"/><line class="cls-24" x1="604.23" y1="163.68" x2="616.73" y2="163.68"/><path class="cls-6" d="M635.3,158.91h0a5.74,5.74,0,0,1,5.74,5.74V176.7a0,0,0,0,1,0,0H629.56a0,0,0,0,1,0,0V164.64A5.74,5.74,0,0,1,635.3,158.91Z"/><line class="cls-24" x1="629.05" y1="176.7" x2="641.55" y2="176.7"/><line class="cls-24" x1="629.05" y1="163.68" x2="641.55" y2="163.68"/><path class="cls-6" d="M660.12,158.91h0a5.74,5.74,0,0,1,5.74,5.74V176.7a0,0,0,0,1,0,0H654.38a0,0,0,0,1,0,0V164.64A5.74,5.74,0,0,1,660.12,158.91Z"/><line class="cls-24" x1="653.87" y1="176.7" x2="666.37" y2="176.7"/><line class="cls-24" x1="653.87" y1="163.68" x2="666.37" y2="163.68"/><line class="cls-22" x1="568.41" y1="186.76" x2="702.19" y2="186.76"/><path class="cls-6" d="M585.66,194.53h0a5.74,5.74,0,0,1,5.74,5.74v12.05a0,0,0,0,1,0,0H579.92a0,0,0,0,1,0,0V200.26A5.74,5.74,0,0,1,585.66,194.53Z"/><line class="cls-24" x1="579.4" y1="212.32" x2="591.91" y2="212.32"/><line class="cls-24" x1="579.4" y1="199.3" x2="591.91" y2="199.3"/><path class="cls-6" d="M610.48,194.53h0a5.74,5.74,0,0,1,5.74,5.74v12.05a0,0,0,0,1,0,0H604.74a0,0,0,0,1,0,0V200.26A5.74,5.74,0,0,1,610.48,194.53Z"/><line class="cls-24" x1="604.23" y1="212.32" x2="616.73" y2="212.32"/><line class="cls-24" x1="604.23" y1="199.3" x2="616.73" y2="199.3"/><path class="cls-6" d="M635.3,194.53h0a5.74,5.74,0,0,1,5.74,5.74v12.05a0,0,0,0,1,0,0H629.56a0,0,0,0,1,0,0V200.26A5.74,5.74,0,0,1,635.3,194.53Z"/><line class="cls-24" x1="629.05" y1="212.32" x2="641.55" y2="212.32"/><line class="cls-24" x1="629.05" y1="199.3" x2="641.55" y2="199.3"/><path class="cls-6" d="M660.12,194.53h0a5.74,5.74,0,0,1,5.74,5.74v12.05a0,0,0,0,1,0,0H654.38a0,0,0,0,1,0,0V200.26A5.74,5.74,0,0,1,660.12,194.53Z"/><line class="cls-24" x1="653.87" y1="212.32" x2="666.37" y2="212.32"/><line class="cls-24" x1="653.87" y1="199.3" x2="666.37" y2="199.3"/><line class="cls-22" x1="568.41" y1="222.38" x2="702.19" y2="222.38"/><path class="cls-6" d="M585.66,230.15h0a5.74,5.74,0,0,1,5.74,5.74v12.05a0,0,0,0,1,0,0H579.92a0,0,0,0,1,0,0V235.89A5.74,5.74,0,0,1,585.66,230.15Z"/><line class="cls-24" x1="579.4" y1="247.94" x2="591.91" y2="247.94"/><line class="cls-24" x1="579.4" y1="234.92" x2="591.91" y2="234.92"/><path class="cls-6" d="M610.48,230.15h0a5.74,5.74,0,0,1,5.74,5.74v12.05a0,0,0,0,1,0,0H604.74a0,0,0,0,1,0,0V235.89A5.74,5.74,0,0,1,610.48,230.15Z"/><line class="cls-24" x1="604.23" y1="247.94" x2="616.73" y2="247.94"/><line class="cls-24" x1="604.23" y1="234.92" x2="616.73" y2="234.92"/><path class="cls-6" d="M635.3,230.15h0a5.74,5.74,0,0,1,5.74,5.74v12.05a0,0,0,0,1,0,0H629.56a0,0,0,0,1,0,0V235.89A5.74,5.74,0,0,1,635.3,230.15Z"/><line class="cls-24" x1="629.05" y1="247.94" x2="641.55" y2="247.94"/><line class="cls-24" x1="629.05" y1="234.92" x2="641.55" y2="234.92"/><path class="cls-6" d="M660.12,230.15h0a5.74,5.74,0,0,1,5.74,5.74v12.05a0,0,0,0,1,0,0H654.38a0,0,0,0,1,0,0V235.89A5.74,5.74,0,0,1,660.12,230.15Z"/><line class="cls-24" x1="653.87" y1="247.94" x2="666.37" y2="247.94"/><line class="cls-24" x1="653.87" y1="234.92" x2="666.37" y2="234.92"/><path class="cls-6" d="M585.66,265.86h0a5.74,5.74,0,0,1,5.74,5.74v12.05a0,0,0,0,1,0,0H579.92a0,0,0,0,1,0,0V271.6A5.74,5.74,0,0,1,585.66,265.86Z"/><line class="cls-24" x1="579.4" y1="283.65" x2="591.91" y2="283.65"/><line class="cls-24" x1="579.4" y1="270.63" x2="591.91" y2="270.63"/><path class="cls-6" d="M610.48,265.86h0a5.74,5.74,0,0,1,5.74,5.74v12.05a0,0,0,0,1,0,0H604.74a0,0,0,0,1,0,0V271.6A5.74,5.74,0,0,1,610.48,265.86Z"/><line class="cls-24" x1="604.23" y1="283.65" x2="616.73" y2="283.65"/><line class="cls-24" x1="604.23" y1="270.63" x2="616.73" y2="270.63"/><path class="cls-6" d="M635.3,265.86h0A5.74,5.74,0,0,1,641,271.6v12.05a0,0,0,0,1,0,0H629.56a0,0,0,0,1,0,0V271.6a5.74,5.74,0,0,1,5.74-5.74Z"/><line class="cls-24" x1="629.05" y1="283.65" x2="641.55" y2="283.65"/><line class="cls-24" x1="629.05" y1="270.63" x2="641.55" y2="270.63"/><path class="cls-6" d="M660.12,265.86h0a5.74,5.74,0,0,1,5.74,5.74v12.05a0,0,0,0,1,0,0H654.38a0,0,0,0,1,0,0V271.6A5.74,5.74,0,0,1,660.12,265.86Z"/><line class="cls-24" x1="653.87" y1="283.65" x2="666.37" y2="283.65"/><line class="cls-24" x1="653.87" y1="270.63" x2="666.37" y2="270.63"/><path class="cls-6" d="M684.94,87.66h0a5.74,5.74,0,0,1,5.74,5.74v12.05a0,0,0,0,1,0,0H679.21a0,0,0,0,1,0,0V93.4a5.74,5.74,0,0,1,5.74-5.74Z"/><line class="cls-24" x1="678.69" y1="105.45" x2="691.2" y2="105.45"/><line class="cls-24" x1="678.69" y1="92.43" x2="691.2" y2="92.43"/><path class="cls-6" d="M684.94,123.28h0a5.74,5.74,0,0,1,5.74,5.74v12.05a0,0,0,0,1,0,0H679.21a0,0,0,0,1,0,0V129a5.74,5.74,0,0,1,5.74-5.74Z"/><line class="cls-24" x1="678.69" y1="141.08" x2="691.2" y2="141.08"/><line class="cls-24" x1="678.69" y1="128.05" x2="691.2" y2="128.05"/><path class="cls-6" d="M684.94,158.91h0a5.74,5.74,0,0,1,5.74,5.74V176.7a0,0,0,0,1,0,0H679.21a0,0,0,0,1,0,0V164.64a5.74,5.74,0,0,1,5.74-5.74Z"/><line class="cls-24" x1="678.69" y1="176.7" x2="691.2" y2="176.7"/><line class="cls-24" x1="678.69" y1="163.68" x2="691.2" y2="163.68"/><path class="cls-6" d="M684.94,194.53h0a5.74,5.74,0,0,1,5.74,5.74v12.05a0,0,0,0,1,0,0H679.21a0,0,0,0,1,0,0V200.26a5.74,5.74,0,0,1,5.74-5.74Z"/><line class="cls-24" x1="678.69" y1="212.32" x2="691.2" y2="212.32"/><line class="cls-24" x1="678.69" y1="199.3" x2="691.2" y2="199.3"/><path class="cls-6" d="M684.94,230.15h0a5.74,5.74,0,0,1,5.74,5.74v12.05a0,0,0,0,1,0,0H679.21a0,0,0,0,1,0,0V235.89A5.74,5.74,0,0,1,684.94,230.15Z"/><line class="cls-24" x1="678.69" y1="247.94" x2="691.2" y2="247.94"/><line class="cls-24" x1="678.69" y1="234.92" x2="691.2" y2="234.92"/><path class="cls-6" d="M684.94,265.86h0a5.74,5.74,0,0,1,5.74,5.74v12.05a0,0,0,0,1,0,0H679.21a0,0,0,0,1,0,0V271.6A5.74,5.74,0,0,1,684.94,265.86Z"/><line class="cls-24" x1="678.69" y1="283.65" x2="691.2" y2="283.65"/><line class="cls-24" x1="678.69" y1="270.63" x2="691.2" y2="270.63"/><line class="cls-22" x1="568.41" y1="258" x2="702.19" y2="258"/><polygon class="cls-8" points="701.05 79.89 569.55 81.69 569.55 79.89 701.05 79.89"/><polygon class="cls-8" points="568.41 76.67 568.41 78.28 701.58 76.67 568.41 76.67"/><path class="cls-11" d="M456.66,109.19c12.83,6.23,25.66-6.24,38.49,0v-26c-12.83-6.24-25.66,6.24-38.49,0Z"/><path class="cls-6" d="M482.92,86c.17.72.33,1.36.49,2-.51.54-1,1.08-1.53,1.64-.19-.56-.27-1.22-.47-1.88Z"/><path class="cls-6" d="M477.06,88.12c-.36.7-.62,1.39-1,2.1-.35-.57-.68-1.09-1-1.62.34-.7.66-1.38,1-2.13C476.4,87,476.75,87.55,477.06,88.12Z"/><path class="cls-6" d="M470.24,92.3c-.52-.4-1-.79-1.52-1.2.15-.7.29-1.39.47-2.08l1.48,1.2C470.57,90.89,470.4,91.6,470.24,92.3Z"/><path class="cls-6" d="M465.4,93.57c0,.62.07,1.19.05,1.78-.63-.9-1.22-1.85-1.85-2.8C464.23,92.86,464.8,93.23,465.4,93.57Z"/><path class="cls-6" d="M488.69,89c-.29.52-.71,1-1,1.48-.21.36-.44.71-.66,1.07a.48.48,0,0,1-.17.18l.09-1.83a10.92,10.92,0,0,1,1.77-.9Z"/><polygon class="cls-6" points="488.69 88.95 488.69 88.95 488.7 88.94 488.69 88.95"/><path class="cls-6" d="M480.32,102.21a11.82,11.82,0,0,1-1.59.88,13.31,13.31,0,0,1-4.71,1.25,4.24,4.24,0,0,1-3.16-.68,8.46,8.46,0,0,0-1.63,1.46c-.19.14-.07.24,0,.34a.11.11,0,0,0,.07.11h0a.27.27,0,0,0,.13.18l0,.06a.08.08,0,0,0,.07.07.2.2,0,0,0,.12.12s0,0,0,0l0,0,.06,0h0l.06,0h0a.08.08,0,0,0,.07,0h0a.77.77,0,0,0,.35.23,0,0,0,0,0,0,0,.09.09,0,0,0,.09,0s.07,0,.12,0,.05,0,.08,0a.35.35,0,0,0,.25.09s0,0,.08,0h0a.12.12,0,0,0,.13,0h0a.12.12,0,0,0,.13,0h0a.12.12,0,0,0,.13,0h0s.05,0,.1,0h0a2.76,2.76,0,0,0,1,.16.15.15,0,0,0,.13,0,9,9,0,0,0,2.8-.21l.2,0a6,6,0,0,0,1-.24,1.07,1.07,0,0,0,.45-.14,6.48,6.48,0,0,0,1.18-.38.22.22,0,0,0,.13-.06,1.85,1.85,0,0,0,.63-.28h0a6.63,6.63,0,0,0,1.46-.78,5.74,5.74,0,0,0,2.63-2.57,4.43,4.43,0,0,0-1.78-1A3.85,3.85,0,0,1,480.32,102.21Z"/><path class="cls-6" d="M469.75,96.46a.33.33,0,0,0-.16.17v0a1,1,0,0,0,0,1.21h0a.35.35,0,0,0,.26.21h0c.32.19.64,0,1-.16h0c.1,0,.19-.09.31-.07l.53,1.23c-.11.26-.3.44-.39.67l0,.05s.05,0,.07,0a8.09,8.09,0,0,1,1.55-.69c-.25-.14-.52-.11-.72-.22-.07-.47-.18-.94-.21-1.42l.67-.37a1,1,0,0,0,.12-1.73c-.11-.12-.3-.08-.45-.12.15-.53.09-.78-.26-1a.39.39,0,0,0-.43-.06c-.14,0-.23.17-.37.18h0a.56.56,0,0,0-.18-.42s0-.06-.06-.07a.07.07,0,0,0-.07-.05h0c-.33-.17-.51-.12-.73.21h0c-.24.3-.11.58-.08.86-.2.11-.45.1-.56.36a1.22,1.22,0,0,0,.24-.1,1.22,1.22,0,0,1-.24.1s0,0,0,0a.69.69,0,0,0-.06.77h0a.23.23,0,0,0,.12.19h0c0,.1.18.09.15.22Zm.45-1.59s0,0,0,0S470.19,94.86,470.2,94.87Zm0-.06v0Zm0-.07h0Zm0-.06Zm.07.3h0Zm0-.07v0A0,0,0,0,1,470.21,94.91Zm1.83-.66Zm-.73.21.08,0-.08,0h0Zm.1,2.77a1,1,0,0,0,.24-.27,275154268441.55,275154268441.55,0,0,0,.14-.16.38.38,0,0,0,.14-.14h0a.27.27,0,0,0,.1-.11h0a1.14,1.14,0,0,0,.27-.31h0c.09.07-.06.17,0,.24h0a1.61,1.61,0,0,0-.21.49h0l-.2.42a4.13,4.13,0,0,1-.71.33l-.29-.1h0a.06.06,0,0,0-.08,0h0s-.06-.06-.12-.06a.42.42,0,0,0-.26-.14.05.05,0,0,0-.07,0c0-.07-.15,0-.07-.13a5.08,5.08,0,0,0,.78,0h0C471.18,97.26,471.31,97.22,471.41,97.23Zm-.35-3.1v0Zm0-.19Zm-.06-.06Zm.06.25s0,0,0,0S471.06,94.14,471.06,94.13Zm0,0v0Zm0,0v0Zm0,0v0Zm0,0h0Zm0,0v0S471.11,94.28,471.11,94.27Zm0,0h0Zm0,0h0Zm.05,0h0Zm0,0h0Zm-.24-.51h0a6.44,6.44,0,0,0-.72.2A6.44,6.44,0,0,1,470.93,93.82Z"/><path class="cls-6" d="M472.17,102.49a17.43,17.43,0,0,1,6.82-1.84,5.9,5.9,0,0,1,3.81,1,.29.29,0,0,0,.21.08,1.16,1.16,0,0,0-.4-.66,3.74,3.74,0,0,0-1.85-.78,11.61,11.61,0,0,0-5.23.39,17.26,17.26,0,0,0-4.45,1.93,6.33,6.33,0,0,0-1.57,1.3,1.2,1.2,0,0,0-.35.73.63.63,0,0,0,.28-.22A10.55,10.55,0,0,1,472.17,102.49Z"/><path class="cls-6" d="M485.22,94.11a.69.69,0,0,0-.88,0,.84.84,0,0,0-.23.87.76.76,0,0,0-.82.44.79.79,0,0,0,0,.69.1.1,0,0,0,.06.13.07.07,0,0,0,0,.07h0l.06.06h0l.06,0h0a.09.09,0,0,0,.08,0,.07.07,0,0,0,.07,0,.06.06,0,0,0,.07,0h0a.41.41,0,0,0,.24.13h0c.07.1.23.1.3.25-.14.4-.21.84-.37,1.25a2.8,2.8,0,0,0-.67.23,1.72,1.72,0,0,1,.67.35c.19-.63.39-1.23.62-1.86-.19,0-.19-.15-.23-.28A2.12,2.12,0,0,0,484,96s0,0,0,0,0-.1,0-.15a5.52,5.52,0,0,1,.69.68c.4-1,.85-2,1.3-2.94C485.54,93.5,485.37,93.8,485.22,94.11Z"/><path class="cls-6" d="M468.14,99.9c.05,0,.1,0,.12-.1a1.11,1.11,0,0,0,.64-1.07.54.54,0,0,0-.69-.55c-.07,0-.15.08-.21,0,.06-.3.06-.59-.21-.76a.72.72,0,0,0-.88.14c-.28-.45-.41-.53-.75-.43.45.9.88,1.79,1.28,2.72a7.35,7.35,0,0,1,.67-.79v.15a1.25,1.25,0,0,0-.18.45h0c-.14.2-.06.49-.33.63.23.56.42,1.12.62,1.72a2.28,2.28,0,0,1,.65-.56,4.91,4.91,0,0,0-.67,0,10.42,10.42,0,0,1-.35-1.21C468,100.06,468.08,100,468.14,99.9Z"/><path class="cls-6" d="M479.38,95.4h0a6,6,0,0,0,.8.14L480,97c-.23.21-.5.28-.7.53a4.76,4.76,0,0,1,1.64.08l-.49-.56.55-1.49a3.53,3.53,0,0,1,.57,0,.92.92,0,0,0,.86-.36h0a.45.45,0,0,0,.16-.25.15.15,0,0,0,.07-.14s0,0,0,0a.8.8,0,0,0-.21-1,.05.05,0,0,0-.07,0c0-.15.21-.2.21-.35a.08.08,0,0,0,.05-.09h0a.6.6,0,0,0,0-.68s0,0,0,0,0-.1-.07-.12h0s0,0,0,0,0,0,0,0a.05.05,0,0,0-.06-.06c-.12-.18-.35-.06-.52-.13a1.23,1.23,0,0,0,.08-.49.47.47,0,0,0-.32-.49.53.53,0,0,0-.55.22.11.11,0,0,0-.07.08.1.1,0,0,0-.06.09c-.14.15-.13.35-.22.52a.64.64,0,0,0-.76.18.4.4,0,0,0-.19.25h0a.87.87,0,0,0-.07.86.86.86,0,0,0-.45.29.1.1,0,0,0-.07.07.13.13,0,0,0-.07.09.92.92,0,0,0-.25.45C478.85,94.89,479,95.28,479.38,95.4Zm2.43-3.09a.11.11,0,0,1,0-.07.11.11,0,0,0,0,.07Zm.08.11-.05,0Zm.12,0h0Zm0,0h0Zm0,0h0Zm0,0h0Zm.23,2.16h0l0,0Zm.18-2.17ZM481,92.14v0Zm-.52.12h0Zm.38,0h0Zm0,0h0Zm-.05,0h0Zm-.05,0h0Zm-.05,0h0Zm0,0h0Zm-.05,0h0Zm-.05,0h0Zm-.1,0h0Zm-.31.11h0l.1,0-.1,0Zm.26-.1h0Zm-.05,0-.05,0Zm-.05,0-.05,0Zm-.35.31h0Zm-.1,1.91v0l.54.36.36.24c.42-.11.8-.35,1.21-.44l-.12.14a.08.08,0,0,0-.07.07.12.12,0,0,0-.08.06c-.05,0-.09,0-.11.11a.1.1,0,0,0-.08.07h0l-.45.37a3.55,3.55,0,0,1-.73,0c-.08-.14-.16-.26-.23-.39a.36.36,0,0,0-.13-.24s0-.1-.05-.12a.05.05,0,0,0,0,0s0-.08,0-.09A0,0,0,0,1,479.8,94.53Z"/><path class="cls-6" d="M474.5,96.3c.11.12.28.09.44.06s.45-.08.7-.13c.05.49.11,1,.17,1.44l-.58.62a6.79,6.79,0,0,1,1.64-.36c-.17-.2-.44-.23-.58-.4.06-.51.08-1,.18-1.51l.66-.19a1.08,1.08,0,0,0,.64-.48,1,1,0,0,0-.08-1.32h0s0,0-.06,0a.19.19,0,0,0-.2-.09.07.07,0,0,0,0,0,.07.07,0,0,1,0,0s-.07,0-.07-.11l0,0,0,0a.73.73,0,0,0,.07-.93c-.14-.35-.47-.26-.79-.14,0-.2,0-.42-.12-.55a.14.14,0,0,0-.13-.16h0c-.27-.16-.32-.16-.59.07h0a1,1,0,0,0-.32.93l-.13,0a.92.92,0,0,0-.78,1.19c0,.09.1.18.14.27a1.32,1.32,0,0,0-.58,1,.45.45,0,0,0,0,.2A.64.64,0,0,0,474.5,96.3Zm3-2.32h0Zm.12,0h0Zm-.1,0h0Zm0,0h0Zm0,0h0Zm.07,0h0Zm-.16,0v0S477.44,94,477.45,94Zm-.13-.22v0Zm.11-.36v0Zm0,0v0Zm0,.06v0Zm0,0s0,0,0,0S477.4,93.56,477.4,93.55Zm0,0a0,0,0,0,1,0,0A0,0,0,0,0,477.38,93.6Zm0,.08h0Zm.07-.33Zm0-.5Zm-.3-.12Zm0,0Zm0,0h0Zm-.14,0-.08,0Zm-.35.1h0Zm0,0v0Zm0,0a0,0,0,0,0,0,0Zm0,0v0A0,0,0,0,0,476.55,92.71Zm0,0v0Zm0,0a0,0,0,0,1,0,0S476.53,92.62,476.53,92.63Zm0,0c0-.14,0-.29,0-.43h0C476.53,92.3,476.5,92.45,476.52,92.59Zm-.13-.59Zm0,0v0Zm0,0h0Zm-.2,0a1.29,1.29,0,0,0-.39,0A1.33,1.33,0,0,1,476.19,92Zm-.54.44a3.27,3.27,0,0,0-.17.53h0A3.27,3.27,0,0,1,475.65,92.47Zm-.37,3h0a.11.11,0,0,0,.13,0h0a.12.12,0,0,0,.13,0,1.54,1.54,0,0,0,.52.14,1.68,1.68,0,0,0,.39-.3h0a.2.2,0,0,0,.14-.1,1.15,1.15,0,0,0,.33-.26h0a.21.21,0,0,0,.14-.1.05.05,0,0,0,.05,0s.05,0,.05.05a1.39,1.39,0,0,0-.27.38h0c-.18.19-.28.43-.46.64l-.73.17-.21-.14h0s0,0-.06-.06,0,0-.05-.06h0s0-.08-.1-.08,0-.06,0,0,0-.06-.06-.07a.11.11,0,0,0-.09-.08h0s0,0-.06,0,0,0-.06-.06C475.09,95.37,475.17,95.49,475.28,95.46Z"/><polygon class="cls-19" points="450.54 133.03 327.91 193.95 327.91 193.95 327.91 234.06 327.91 238.36 327.91 309.52 573.16 309.52 573.16 238.36 573.16 234.06 573.16 193.95 450.54 133.03"/><polygon class="cls-19" points="429.63 189.52 329.57 189.52 324.9 189.52 324.9 184.83 449.94 124.12 450.85 124.12 495.05 124.07 495.05 162.96 429.63 189.52"/><polyline class="cls-19" points="450.26 133.53 327.63 194.45 322.9 194.45 322.9 189.68 449.94 128.05 450.86 128.05 577.9 189.68 577.9 194.45 573.16 194.45 450.54 133.53"/><polygon class="cls-25" points="495.15 133.03 372.52 193.95 372.52 193.95 372.52 234.06 372.52 238.36 372.52 309.52 617.77 309.52 617.77 238.36 617.77 234.06 617.77 193.95 495.15 133.03"/><rect class="cls-16" x="539.42" y="284.77" width="8.63" height="3.84"/><rect class="cls-16" x="420.66" y="217.02" width="8.63" height="3.84"/><rect class="cls-16" x="572.32" y="203.03" width="8.63" height="3.84"/><rect class="cls-16" x="564.51" y="209.69" width="8.63" height="3.84"/><rect class="cls-16" x="580.95" y="281.37" width="8.63" height="3.84"/><rect class="cls-16" x="450.4" y="183.45" width="8.63" height="3.84"/><rect class="cls-16" x="396.45" y="280.6" width="8.63" height="3.84"/><rect class="cls-16" x="401.12" y="195.82" width="8.63" height="3.84"/><rect class="cls-16" x="489.9" y="152.8" width="8.63" height="3.84"/><rect class="cls-16" x="413.17" y="190.47" width="8.63" height="3.84"/><rect class="cls-16" x="568.01" y="185.79" width="8.63" height="3.84"/><rect class="cls-16" x="456.66" y="190.35" width="8.63" height="3.84"/><rect class="cls-16" x="532.57" y="203.81" width="8.63" height="3.84"/><rect class="cls-16" x="524.84" y="194.32" width="8.63" height="3.84"/><rect class="cls-16" x="530.91" y="187.54" width="8.63" height="3.84"/><rect class="cls-16" x="390.25" y="242.84" width="8.63" height="3.84"/><rect class="cls-16" x="460.57" y="269.49" width="8.63" height="3.84"/><rect class="cls-16" x="539.63" y="228.62" width="8.63" height="3.84"/><rect class="cls-16" x="425.55" y="292.45" width="8.63" height="3.84"/><rect class="cls-16" x="436.55" y="289.03" width="8.63" height="3.84"/><rect class="cls-16" x="546.54" y="278.68" width="8.63" height="3.84"/><rect class="cls-6" x="474.83" y="239.46" width="40.08" height="70.07"/><line class="cls-18" x1="473.43" y1="249.17" x2="516.31" y2="249.17"/><line class="cls-18" x1="473.43" y1="239.46" x2="516.31" y2="239.46"/><line class="cls-18" x1="494.87" y1="249.17" x2="494.87" y2="309.52"/><rect class="cls-25" x="479.74" y="255.92" width="8.54" height="27.37"/><rect class="cls-25" x="501.49" y="255.92" width="8.54" height="27.37"/><line class="cls-18" x1="482.85" y1="249.17" x2="482.85" y2="239.46"/><line class="cls-18" x1="490.86" y1="249.17" x2="490.86" y2="239.46"/><line class="cls-18" x1="498.88" y1="249.17" x2="498.88" y2="239.46"/><line class="cls-18" x1="506.89" y1="249.17" x2="506.89" y2="239.46"/><path class="cls-17" d="M405.44,225.28h0a10.87,10.87,0,0,1,10.87,10.87v34.27a0,0,0,0,1,0,0H394.57a0,0,0,0,1,0,0V236.15A10.87,10.87,0,0,1,405.44,225.28Z"/><path class="cls-15" d="M405.44,229.48h0a7.12,7.12,0,0,1,7.12,7.12v29.58a0,0,0,0,1,0,0H398.32a0,0,0,0,1,0,0V236.6A7.12,7.12,0,0,1,405.44,229.48Z"/><line class="cls-17" x1="405.44" y1="229.48" x2="405.44" y2="266.18"/><line class="cls-17" x1="398.32" y1="240.23" x2="412.55" y2="240.23"/><line class="cls-17" x1="398.32" y1="248.88" x2="412.55" y2="248.88"/><line class="cls-17" x1="398.32" y1="257.53" x2="412.55" y2="257.53"/><line class="cls-17" x1="398.32" y1="266.18" x2="412.55" y2="266.18"/><line class="cls-17" x1="393.39" y1="270.42" x2="417.49" y2="270.42"/><path class="cls-17" d="M433.52,225.28h0a10.87,10.87,0,0,1,10.87,10.87v34.27a0,0,0,0,1,0,0H422.65a0,0,0,0,1,0,0V236.15A10.87,10.87,0,0,1,433.52,225.28Z"/><path class="cls-15" d="M433.52,229.48h0a7.12,7.12,0,0,1,7.12,7.12v29.58a0,0,0,0,1,0,0H426.41a0,0,0,0,1,0,0V236.6A7.12,7.12,0,0,1,433.52,229.48Z"/><line class="cls-17" x1="433.52" y1="229.48" x2="433.52" y2="266.18"/><line class="cls-17" x1="426.41" y1="240.23" x2="440.64" y2="240.23"/><line class="cls-17" x1="426.41" y1="248.88" x2="440.64" y2="248.88"/><line class="cls-17" x1="426.41" y1="257.53" x2="440.64" y2="257.53"/><line class="cls-17" x1="426.41" y1="266.18" x2="440.64" y2="266.18"/><line class="cls-17" x1="421.47" y1="270.42" x2="445.57" y2="270.42"/><path class="cls-17" d="M554.82,225.28h0a10.87,10.87,0,0,1,10.87,10.87v34.27a0,0,0,0,1,0,0H543.95a0,0,0,0,1,0,0V236.15A10.87,10.87,0,0,1,554.82,225.28Z"/><path class="cls-15" d="M554.82,229.48h0a7.12,7.12,0,0,1,7.12,7.12v29.58a0,0,0,0,1,0,0H547.7a0,0,0,0,1,0,0V236.6A7.12,7.12,0,0,1,554.82,229.48Z"/><line class="cls-17" x1="554.82" y1="229.48" x2="554.82" y2="266.18"/><line class="cls-17" x1="547.7" y1="240.23" x2="561.94" y2="240.23"/><line class="cls-17" x1="547.7" y1="248.88" x2="561.94" y2="248.88"/><line class="cls-17" x1="547.7" y1="257.53" x2="561.94" y2="257.53"/><line class="cls-17" x1="547.7" y1="266.18" x2="561.94" y2="266.18"/><line class="cls-17" x1="542.77" y1="270.42" x2="566.87" y2="270.42"/><path class="cls-17" d="M582.91,225.28h0a10.87,10.87,0,0,1,10.87,10.87v34.27a0,0,0,0,1,0,0H572a0,0,0,0,1,0,0V236.15A10.87,10.87,0,0,1,582.91,225.28Z"/><path class="cls-15" d="M582.91,229.48h0A7.12,7.12,0,0,1,590,236.6v29.58a0,0,0,0,1,0,0H575.79a0,0,0,0,1,0,0V236.6A7.12,7.12,0,0,1,582.91,229.48Z"/><line class="cls-17" x1="582.91" y1="229.48" x2="582.91" y2="266.18"/><line class="cls-17" x1="575.79" y1="240.23" x2="590.02" y2="240.23"/><line class="cls-17" x1="575.79" y1="248.88" x2="590.02" y2="248.88"/><line class="cls-17" x1="575.79" y1="257.53" x2="590.02" y2="257.53"/><line class="cls-17" x1="575.79" y1="266.18" x2="590.02" y2="266.18"/><line class="cls-17" x1="570.85" y1="270.42" x2="594.96" y2="270.42"/><rect class="cls-6" x="472.63" y="163.8" width="19.49" height="50.85"/><line class="cls-26" x1="472.03" y1="198.35" x2="492.71" y2="198.35"/><line class="cls-26" x1="472.03" y1="180.55" x2="492.71" y2="180.55"/><line class="cls-26" x1="482.37" y1="179.95" x2="482.37" y2="215.24"/><line class="cls-26" x1="482.37" y1="163.8" x2="482.37" y2="214.65"/><rect class="cls-6" x="497.72" y="163.8" width="19.49" height="50.85"/><line class="cls-26" x1="497.12" y1="198.35" x2="517.81" y2="198.35"/><line class="cls-26" x1="497.12" y1="180.55" x2="517.81" y2="180.55"/><line class="cls-26" x1="507.46" y1="179.95" x2="507.46" y2="215.24"/><line class="cls-26" x1="507.46" y1="163.8" x2="507.46" y2="214.65"/><polygon class="cls-18" points="495.15 133.03 372.52 193.95 372.52 193.95 372.52 234.06 372.52 238.36 372.52 309.52 617.77 309.52 617.77 238.36 617.77 234.06 617.77 193.95 495.15 133.03"/><rect class="cls-11" x="464.88" y="221.68" width="58.66" height="10.79"/><rect class="cls-17" x="457.84" y="219.68" width="7.04" height="76.62"/><rect class="cls-21" x="455.86" y="234.65" width="11.01" height="3.13"/><rect class="cls-21" x="455.86" y="216.55" width="11.01" height="3.13"/><rect class="cls-21" x="455.86" y="296.39" width="11.01" height="13.13"/><rect class="cls-17" x="523.54" y="219.68" width="7.04" height="76.62"/><rect class="cls-21" x="521.55" y="234.65" width="11.01" height="3.13"/><rect class="cls-21" x="521.55" y="216.55" width="11.01" height="3.13"/><rect class="cls-21" x="521.55" y="296.39" width="11.01" height="13.13"/><rect class="cls-16" x="374.47" y="193.15" width="6.03" height="3.84" transform="translate(382.9 -229.8) rotate(63.4)"/><rect class="cls-16" x="386.08" y="187.34" width="6.03" height="3.84" transform="translate(384.11 -243.39) rotate(63.4)"/><rect class="cls-16" x="397.68" y="181.53" width="6.03" height="3.84" transform="translate(385.32 -256.98) rotate(63.4)"/><rect class="cls-16" x="409.29" y="175.72" width="6.03" height="3.84" transform="translate(386.53 -270.57) rotate(63.4)"/><rect class="cls-16" x="420.94" y="170" width="6.03" height="3.84" transform="translate(387.86 -284.14) rotate(63.4)"/><rect class="cls-16" x="432.55" y="164.19" width="6.03" height="3.84" transform="translate(389.07 -297.73) rotate(63.4)"/><rect class="cls-16" x="444.16" y="158.38" width="6.03" height="3.84" transform="translate(390.28 -311.32) rotate(63.4)"/><rect class="cls-16" x="455.8" y="152.65" width="6.03" height="3.84" transform="translate(391.59 -324.9) rotate(63.4)"/><rect class="cls-16" x="467.41" y="146.84" width="6.03" height="3.84" transform="translate(392.8 -338.48) rotate(63.4)"/><rect class="cls-16" x="479.01" y="141.02" width="6.03" height="3.84" transform="translate(394.01 -352.07) rotate(63.4)"/><rect class="cls-16" x="609" y="193.15" width="6.03" height="3.84" transform="translate(1060.49 -264.82) rotate(116.6)"/><rect class="cls-16" x="597.4" y="187.34" width="6.03" height="3.84" transform="translate(1038.49 -262.85) rotate(116.6)"/><rect class="cls-16" x="585.79" y="181.53" width="6.03" height="3.84" transform="translate(1016.49 -260.89) rotate(116.6)"/><rect class="cls-16" x="574.19" y="175.72" width="6.03" height="3.84" transform="translate(994.49 -258.93) rotate(116.6)"/><rect class="cls-16" x="562.53" y="170" width="6.03" height="3.84" transform="translate(972.5 -256.79) rotate(116.6)"/><rect class="cls-16" x="550.93" y="164.19" width="6.03" height="3.84" transform="translate(950.51 -254.82) rotate(116.6)"/><rect class="cls-16" x="539.32" y="158.38" width="6.03" height="3.84" transform="translate(928.51 -252.86) rotate(116.6)"/><rect class="cls-16" x="527.67" y="152.65" width="6.03" height="3.84" transform="translate(906.52 -250.74) rotate(116.6)"/><rect class="cls-16" x="516.07" y="146.84" width="6.03" height="3.84" transform="translate(884.52 -248.78) rotate(116.6)"/><rect class="cls-16" x="504.46" y="141.02" width="6.03" height="3.84" transform="translate(862.52 -246.81) rotate(116.6)"/><line class="cls-26" x1="495.1" y1="124.88" x2="495.1" y2="80.31"/><path class="cls-6" d="M389.86,153.53c-.39-1.87.7-3.72-.06-5.57s-2.84-2-4.55-2.35c-3.62-.81-9.71-1.12-9.86-6-.09-3,.88-7.45-3.05-8.56-1.83-.52-3.79,0-5.65.06a18.68,18.68,0,0,1-6.74-1.2c-2.08-.78-4.58-1.93-3.76-4.59.59-1.92,2-3.48,2.59-5.41,1.08-3.42-.51-6.55-4-7.4a20.84,20.84,0,0,0-5.85-.08c-2.13.11-4.86-.1-5.95-2.3-1-2,1.14-3.52,1.15-5.45a4.15,4.15,0,0,0-2.52-3.53c-1.87-.94-4-.64-6-1.33a6.65,6.65,0,0,1-3.9-4.25,9.08,9.08,0,0,1,.51-6.38c.74-1.7,2.22-4.32,4.35-4.34,2,0,3.54,2.36,5,3.45a14.72,14.72,0,0,0,5.19,2.59c4.31,1.12,8.5-.45,12.51-1.91a31.81,31.81,0,0,1,11.64-2.27,19.12,19.12,0,0,1,5.75,1c1.73.59,3.95,1.6,5.1,3.08.88,1.14.22,2.49-.09,3.71a18.54,18.54,0,0,0-.53,3.39c-.12,1.86-.16,4.23,1,5.81,1,1.38,2.8,1.8,4.37,2.2a67.34,67.34,0,0,1,6.55,1.77c3.68,1.33,7.68,4.41,7.12,8.8-.5,4-3.71,7-4.27,11a12.46,12.46,0,0,0,.58,5.84,32.64,32.64,0,0,0,3,5.34c1.24,2.13,1.68,4.52-.19,6.41-1.29,1.3-2.92,2.18-3.91,3.77a4.09,4.09,0,0,0-.27,4.32.75.75,0,0,0,1.3-.76c-1.21-2.07,1.24-4,2.65-5.14s2.72-2.41,3-4.28a8.67,8.67,0,0,0-1.72-5.81c-1.23-1.94-2.48-3.74-2.89-6.06a11.34,11.34,0,0,1,1-6.81c.84-1.8,1.92-3.48,2.63-5.34a8.66,8.66,0,0,0-2.46-9.8c-3.22-3-7.61-3.7-11.7-4.74a10.15,10.15,0,0,1-2.69-.9c-1.22-.72-1.47-2-1.57-3.34a17.34,17.34,0,0,1,.14-3.6c.18-1.25.64-2.43.85-3.67.66-3.81-4.12-5.94-7.11-6.86a24.06,24.06,0,0,0-11.41-.34c-4.39.82-8.37,3-12.75,3.83a11.9,11.9,0,0,1-7.14-.79A21.19,21.19,0,0,1,340,85c-1.28-1.12-2.82-1.94-4.56-1.42a7.41,7.41,0,0,0-3.89,3.63c-1.87,3.21-2.45,7.31-.5,10.63a7.86,7.86,0,0,0,3.81,3.37c2,.79,4.38.37,6.25,1.47a2.35,2.35,0,0,1,1.33,2.76c-.3,1-1,1.76-1.19,2.75a4.35,4.35,0,0,0,1.63,4.27c3.43,2.9,7.89.53,11.78,1.65a3.87,3.87,0,0,1,2.77,5.07c-.53,2-2,3.64-2.65,5.62-1.42,4.22,2.89,6.15,6.23,7.11a19.65,19.65,0,0,0,6.56.73c1.9-.11,4.72-.92,5.91,1.12,1,1.75.35,4,.4,5.91a5.72,5.72,0,0,0,2.15,4.62,12,12,0,0,0,4.59,1.87c1.16.27,2.33.52,3.49.78s2.71.34,3.7,1,.79,2.1.63,3.15a7.91,7.91,0,0,0,0,2.91c.2.95,1.65.55,1.45-.4Z"/><path class="cls-6" d="M334.24,85.05a10.34,10.34,0,0,0-3,11.44,10.59,10.59,0,0,0,7.69,4.71c5.58.83,3.88,5.24,3.62,5.77s-2.12,6.36,4.35,6.23,12-.07,11.5,4.19-5.75,9.6-1.44,11.92a18.55,18.55,0,0,0,10.71,2.54c3.07-.23,6.77-.35,7.05,3.42s-.89,8.08,3.31,9.26,9.61,1.71,10.37,2.76.47,5.07.47,5.07.18,2.52,1.94,2.67a43.81,43.81,0,0,0,4.77,0s-1-3.33,0-5,4.39-4.49,4.8-5.1.87-4.78-.9-7.63-4.1-8.64-2.46-12.66,6.37-8.31,2.9-12.62-11.79-6.69-14.15-7.1-4.26-3.73-3.88-7.69,2.7-8.24-6.55-10.71-20.84,3.27-20.84,3.27-6.7,1.16-9.2-.17a39.16,39.16,0,0,1-5.55-3.92l-3-1.61Z"/><rect class="cls-20" x="391.48" y="154.6" width="7.49" height="21.18" transform="translate(790.45 330.38) rotate(-180)"/><polygon class="cls-8" points="398.76 155.78 391.2 157.86 391.2 154.83 398.76 154.83 398.76 155.78"/><rect class="cls-19" x="387.46" y="154.6" width="4.03" height="21.18" transform="translate(778.94 330.38) rotate(-180)"/><rect class="cls-10" x="384" y="150.73" width="14.4" height="5.3" rx="0.9" transform="translate(782.4 306.77) rotate(-180)"/><rect class="cls-11" x="388.03" y="150.73" width="14.4" height="5.3" rx="0.9" transform="translate(790.45 306.77) rotate(-180)"/><rect class="cls-20" x="592.89" y="154.6" width="7.49" height="21.18" transform="translate(1193.27 330.38) rotate(-180)"/><polygon class="cls-8" points="600.16 155.78 592.61 157.86 592.61 154.83 600.16 154.83 600.16 155.78"/><rect class="cls-19" x="588.86" y="154.6" width="4.03" height="21.18" transform="translate(1181.75 330.38) rotate(-180)"/><rect class="cls-10" x="585.41" y="150.73" width="14.4" height="5.3" rx="0.9" transform="translate(1185.22 306.77) rotate(-180)"/><rect class="cls-11" x="589.43" y="150.73" width="14.4" height="5.3" rx="0.9" transform="translate(1193.27 306.77) rotate(-180)"/><polyline class="cls-20" points="494.87 129.51 374.18 189.52 369.51 189.52 369.51 184.83 494.56 124.12 495.46 124.12 620.5 184.83 620.5 189.52 615.84 189.52 495.14 129.51"/><polyline class="cls-20" points="494.87 133.53 372.25 194.45 367.51 194.45 367.51 189.68 494.55 128.05 495.47 128.05 622.51 189.68 622.51 194.45 617.77 194.45 495.15 133.53"/><line class="cls-18" x1="378.16" y1="192.02" x2="379.69" y2="195.08"/><line class="cls-18" x1="389.74" y1="186.21" x2="391.27" y2="189.26"/><line class="cls-18" x1="401.33" y1="180.4" x2="402.86" y2="183.45"/><line class="cls-18" x1="412.91" y1="174.59" x2="414.44" y2="177.64"/><line class="cls-18" x1="424.49" y1="168.78" x2="426.02" y2="171.83"/><line class="cls-18" x1="436.08" y1="162.96" x2="437.61" y2="166.02"/><line class="cls-18" x1="447.66" y1="157.15" x2="449.19" y2="160.21"/><line class="cls-18" x1="459.25" y1="151.34" x2="460.78" y2="154.39"/><line class="cls-18" x1="470.83" y1="145.53" x2="472.36" y2="148.58"/><line class="cls-18" x1="482.42" y1="139.72" x2="483.95" y2="142.77"/><line class="cls-18" x1="611.2" y1="192.02" x2="609.67" y2="195.08"/><line class="cls-18" x1="599.62" y1="186.21" x2="598.09" y2="189.26"/><line class="cls-18" x1="588.03" y1="180.4" x2="586.5" y2="183.45"/><line class="cls-18" x1="576.45" y1="174.59" x2="574.92" y2="177.64"/><line class="cls-18" x1="564.87" y1="168.78" x2="563.34" y2="171.83"/><line class="cls-18" x1="553.28" y1="162.96" x2="551.75" y2="166.02"/><line class="cls-18" x1="541.7" y1="157.15" x2="540.17" y2="160.21"/><line class="cls-18" x1="530.11" y1="151.34" x2="528.58" y2="154.39"/><line class="cls-18" x1="518.53" y1="145.53" x2="517" y2="148.58"/><line class="cls-18" x1="506.94" y1="139.72" x2="505.41" y2="142.77"/><polygon class="cls-8" points="369.51 184.83 495.01 126.13 495.05 124.07 369.51 184.83"/><polygon class="cls-8" points="620.5 184.83 495.01 126.13 495.05 124.07 620.5 184.83"/><polygon class="cls-8" points="369.51 188.81 495.01 130.11 495.05 128.05 369.51 188.81"/><polygon class="cls-8" points="620.5 188.81 495.01 130.11 495.05 128.05 620.5 188.81"/><polygon class="cls-8" points="372.25 194.45 495.01 135.76 495.05 133.69 372.25 194.45"/><polygon class="cls-8" points="617.77 194.45 495.01 135.76 495.05 133.69 617.77 194.45"/><path class="cls-19" d="M349.36,300.52c-1.37-8.07-12.13-14.36-23.9-14.36-8.95,0-16.69,3.64-20.43,8.93a23.86,23.86,0,0,0-9.55-2c-6.84,0-12.84,3-16.15,7.42Z"/><path class="cls-19" d="M118.22,300.52c1.38-8.07,12.13-14.36,23.9-14.36,8.95,0,16.69,3.64,20.44,8.93a23.78,23.78,0,0,1,9.54-2c6.85,0,12.84,3,16.15,7.42Z"/><path class="cls-17" d="M348.33,233.68c0-21.53-12.44-23.33-13.67-43.05-1.14-18.2,0-34.29-20.31-34.29S295.17,172.43,294,190.63c-1.23,19.72-13.67,21.52-13.67,43.05C280.36,279.91,348.33,279.91,348.33,233.68Z"/><line class="cls-17" x1="314.35" y1="183.69" x2="314.35" y2="299.52"/><line class="cls-17" x1="314.35" y1="253.87" x2="293.32" y2="232.84"/><line class="cls-17" x1="314.35" y1="229.94" x2="327.91" y2="216.38"/><line class="cls-17" x1="314.35" y1="247.06" x2="308.9" y2="241.62"/><line class="cls-17" x1="314.35" y1="194.72" x2="317.66" y2="191.41"/><path class="cls-17" d="M181,249.81c0-16.26-9.39-17.62-10.32-32.51-.86-13.74,0-25.89-15.34-25.89S140.82,203.56,140,217.3c-.93,14.89-10.32,16.25-10.32,32.51C129.63,284.71,181,284.71,181,249.81Z"/><line class="cls-17" x1="155.29" y1="212.06" x2="155.29" y2="299.52"/><line class="cls-17" x1="155.29" y1="265.05" x2="139.41" y2="249.18"/><line class="cls-17" x1="155.29" y1="246.98" x2="165.53" y2="236.75"/><line class="cls-17" x1="155.29" y1="259.91" x2="151.18" y2="255.8"/><line class="cls-17" x1="155.29" y1="220.39" x2="157.8" y2="217.89"/><path class="cls-19" d="M1365.44,300.52c1.38-8.07,12.14-14.36,23.91-14.36,9,0,16.69,3.64,20.43,8.93a23.81,23.81,0,0,1,9.54-2c6.85,0,12.85,3,16.16,7.42Z"/><path class="cls-17" d="M1360.63,222.36c0-25.22,14.58-27.33,16-50.45,1.33-21.32,0-40.18,23.8-40.18s22.47,18.86,23.8,40.18c1.45,23.12,16,25.23,16,50.45C1440.29,276.54,1360.63,276.54,1360.63,222.36Z"/><line class="cls-17" x1="1400.46" y1="163.78" x2="1400.46" y2="299.52"/><line class="cls-17" x1="1400.46" y1="246.03" x2="1425.1" y2="221.38"/><line class="cls-17" x1="1400.46" y1="217.98" x2="1384.57" y2="202.09"/><line class="cls-17" x1="1400.46" y1="238.04" x2="1406.84" y2="231.66"/><line class="cls-17" x1="1400.46" y1="176.71" x2="1396.57" y2="172.83"/><polygon class="cls-11" points="765.57 21.72 790.51 21.72 790.51 30.41 765.57 30.41 771.83 26.07 765.57 21.72"/><line class="cls-27" x1="790.51" y1="42.33" x2="790.51" y2="16.82"/><rect class="cls-28" x="679.43" y="240.88" width="134.34" height="55.72"/><rect class="cls-28" x="679.43" y="143.63" width="134.34" height="93.72"/><rect class="cls-28" x="672.98" y="296.6" width="147.23" height="13.53"/><rect class="cls-28" x="672.98" y="237.35" width="147.23" height="3.53"/><rect class="cls-28" x="672.98" y="140.1" width="147.23" height="3.53"/><polygon class="cls-28" points="676.29 140.1 746.6 40.08 790.62 40.08 816.91 140.1 676.29 140.1"/><rect class="cls-28" x="719.36" y="69.78" width="45.65" height="4.28"/><polygon class="cls-29" points="782.72 43.67 737.07 43.67 719.36 69.78 765.01 69.78 782.72 43.67"/><polygon class="cls-11" points="749.69 45.24 738.8 45.24 731.42 55.93 742.31 55.93 749.69 45.24"/><polygon class="cls-11" points="763.86 45.24 752.97 45.24 745.59 55.93 756.49 55.93 763.86 45.24"/><polygon class="cls-11" points="778.04 45.24 767.15 45.24 759.77 55.93 770.66 55.93 778.04 45.24"/><polygon class="cls-11" points="741.21 57.51 730.32 57.51 722.94 68.2 733.83 68.2 741.21 57.51"/><polygon class="cls-11" points="755.39 57.51 744.5 57.51 737.12 68.2 748.01 68.2 755.39 57.51"/><polygon class="cls-11" points="769.56 57.51 758.67 57.51 751.29 68.2 762.18 68.2 769.56 57.51"/><polygon class="cls-28" points="782.72 47.93 765.01 74.05 765.01 69.78 782.72 43.67 782.72 47.93"/><rect class="cls-28" x="697.12" y="99.26" width="45.65" height="4.28"/><polygon class="cls-29" points="760.49 73.15 714.84 73.15 697.12 99.26 742.78 99.26 760.49 73.15"/><polygon class="cls-11" points="727.46 74.73 716.57 74.73 709.19 85.42 720.08 85.42 727.46 74.73"/><polygon class="cls-11" points="741.63 74.73 730.74 74.73 723.36 85.42 734.25 85.42 741.63 74.73"/><polygon class="cls-11" points="755.81 74.73 744.91 74.73 737.53 85.42 748.43 85.42 755.81 74.73"/><polygon class="cls-11" points="718.98 86.99 708.09 86.99 700.71 97.68 711.6 97.68 718.98 86.99"/><polygon class="cls-11" points="733.16 86.99 722.26 86.99 714.88 97.68 725.78 97.68 733.16 86.99"/><polygon class="cls-11" points="747.33 86.99 736.44 86.99 729.06 97.68 739.95 97.68 747.33 86.99"/><polygon class="cls-28" points="760.49 77.41 742.78 103.53 742.78 99.26 760.49 73.15 760.49 77.41"/><rect class="cls-28" x="675.87" y="129.2" width="45.65" height="4.28"/><polygon class="cls-29" points="739.24 103.09 693.58 103.09 675.87 129.2 721.52 129.2 739.24 103.09"/><polygon class="cls-11" points="706.21 104.66 695.31 104.66 687.93 115.35 698.83 115.35 706.21 104.66"/><polygon class="cls-11" points="720.38 104.66 709.49 104.66 702.11 115.35 713 115.35 720.38 104.66"/><polygon class="cls-11" points="734.55 104.66 723.66 104.66 716.28 115.35 727.17 115.35 734.55 104.66"/><polygon class="cls-11" points="697.73 116.93 686.84 116.93 679.46 127.62 690.35 127.62 697.73 116.93"/><polygon class="cls-11" points="711.9 116.93 701.01 116.93 693.63 127.62 704.52 127.62 711.9 116.93"/><polygon class="cls-11" points="726.08 116.93 715.19 116.93 707.81 127.62 718.7 127.62 726.08 116.93"/><polygon class="cls-28" points="739.24 107.35 721.52 133.47 721.52 129.2 739.24 103.09 739.24 107.35"/><rect class="cls-29" x="833.51" y="90.4" width="7.25" height="20.52" transform="translate(1674.27 201.31) rotate(-180)"/><polygon class="cls-8" points="840.56 91.53 833.24 93.55 833.24 90.62 840.56 90.62 840.56 91.53"/><rect class="cls-28" x="829.61" y="90.4" width="3.9" height="20.52" transform="translate(1663.12 201.31) rotate(-180)"/><rect class="cls-10" x="826.26" y="86.64" width="13.95" height="5.14" rx="0.88" transform="translate(1666.47 178.43) rotate(-180)"/><rect class="cls-11" x="830.16" y="86.64" width="13.95" height="5.14" rx="0.88" transform="translate(1674.27 178.43) rotate(-180)"/><rect class="cls-29" x="723.45" y="240.88" width="134.34" height="55.72"/><polygon class="cls-8" points="723.45 240.65 857.79 240.65 723.45 243.15 723.45 240.65"/><rect class="cls-29" x="723.45" y="143.63" width="134.34" height="93.72"/><polygon class="cls-8" points="723.45 143.63 857.79 143.63 723.45 146.47 723.45 143.63"/><rect class="cls-29" x="717" y="237.35" width="147.23" height="3.53"/><polygon class="cls-8" points="717 237.35 864.24 237.35 717 239.16 717 237.35"/><rect class="cls-29" x="717" y="140.1" width="147.23" height="3.53"/><polygon class="cls-29" points="720.31 140.1 790.62 40.08 860.93 140.1 720.31 140.1"/><line class="cls-27" x1="822.01" y1="211.76" x2="840.01" y2="211.76"/><rect class="cls-6" x="781.62" y="158.97" width="18" height="21.86"/><line class="cls-27" x1="781.07" y1="169.89" x2="800.17" y2="169.89"/><line class="cls-27" x1="790.62" y1="158.41" x2="790.62" y2="181.37"/><rect class="cls-6" x="822.01" y="158.97" width="18" height="21.86"/><line class="cls-27" x1="821.46" y1="169.89" x2="840.56" y2="169.89"/><line class="cls-27" x1="831.01" y1="158.41" x2="831.01" y2="181.37"/><rect class="cls-6" x="741.23" y="195.32" width="18" height="32.88"/><line class="cls-27" x1="740.68" y1="211.76" x2="759.78" y2="211.76"/><line class="cls-27" x1="750.23" y1="194.76" x2="750.23" y2="228.75"/><rect class="cls-6" x="781.62" y="195.32" width="18" height="32.88"/><line class="cls-27" x1="781.07" y1="211.76" x2="800.17" y2="211.76"/><line class="cls-27" x1="790.62" y1="194.76" x2="790.62" y2="228.75"/><line class="cls-27" x1="741.23" y1="271.11" x2="759.23" y2="271.11"/><line class="cls-27" x1="822.01" y1="271.11" x2="840.01" y2="271.11"/><line class="cls-27" x1="822.01" y1="271.11" x2="840.01" y2="271.11"/><rect class="cls-6" x="741.23" y="254.66" width="18" height="32.88"/><line class="cls-27" x1="740.68" y1="271.11" x2="759.78" y2="271.11"/><line class="cls-27" x1="750.23" y1="254.11" x2="750.23" y2="288.1"/><rect class="cls-6" x="822.01" y="254.66" width="18" height="32.88"/><line class="cls-27" x1="821.46" y1="271.11" x2="840.56" y2="271.11"/><line class="cls-27" x1="831.01" y1="254.11" x2="831.01" y2="288.1"/><circle class="cls-6" cx="790.62" cy="75.62" r="7.42"/><line class="cls-30" x1="790.62" y1="68.2" x2="790.62" y2="83.04"/><line class="cls-30" x1="798.04" y1="75.62" x2="783.2" y2="75.62"/><rect class="cls-16" x="803.56" y="289.08" width="8.36" height="3.72"/><rect class="cls-16" x="755.05" y="175.78" width="8.36" height="3.72"/><rect class="cls-16" x="811.85" y="150.65" width="8.36" height="3.72"/><rect class="cls-16" x="804.28" y="157.1" width="8.36" height="3.72"/><rect class="cls-16" x="762.08" y="157.1" width="8.36" height="3.72"/><rect class="cls-16" x="746.05" y="128.52" width="8.36" height="3.72"/><rect class="cls-16" x="751.42" y="133.94" width="8.36" height="3.72"/><rect class="cls-16" x="787.38" y="111.63" width="8.36" height="3.72"/><rect class="cls-16" x="756.31" y="99.53" width="8.36" height="3.72"/><rect class="cls-16" x="806.36" y="86.48" width="8.36" height="3.72"/><rect class="cls-16" x="801.03" y="78.21" width="8.36" height="3.72"/><rect class="cls-16" x="833.27" y="132.9" width="8.36" height="3.72"/><rect class="cls-16" x="826.83" y="128.01" width="8.36" height="3.72"/><rect class="cls-16" x="807.67" y="133.94" width="8.36" height="3.72"/><rect class="cls-16" x="768.14" y="163.79" width="8.36" height="3.72"/><rect class="cls-16" x="843.87" y="231.32" width="8.36" height="3.72"/><rect class="cls-16" x="836.38" y="222.13" width="8.36" height="3.72"/><rect class="cls-16" x="842.26" y="215.56" width="8.36" height="3.72"/><rect class="cls-16" x="728.45" y="198" width="8.36" height="3.72"/><rect class="cls-16" x="759.78" y="248.85" width="8.36" height="3.72"/><rect class="cls-16" x="770.44" y="245.54" width="8.36" height="3.72"/><rect class="cls-16" x="810.45" y="283.18" width="8.36" height="3.72"/><rect class="cls-15" x="822.01" y="195.32" width="18" height="32.88"/><line class="cls-27" x1="821.46" y1="211.76" x2="840.56" y2="211.76"/><line class="cls-27" x1="831.01" y1="194.76" x2="831.01" y2="228.75"/><line class="cls-27" x1="761.42" y1="111.63" x2="779.42" y2="111.63"/><line class="cls-27" x1="801.82" y1="111.63" x2="819.81" y2="111.63"/><line class="cls-27" x1="761.42" y1="111.63" x2="779.42" y2="111.63"/><line class="cls-27" x1="801.82" y1="111.63" x2="819.81" y2="111.63"/><rect class="cls-6" x="761.42" y="95.19" width="18" height="32.88"/><line class="cls-27" x1="760.87" y1="111.63" x2="779.98" y2="111.63"/><line class="cls-27" x1="770.42" y1="94.64" x2="770.42" y2="128.62"/><line class="cls-27" x1="770.42" y1="95.19" x2="770.42" y2="128.07"/><rect class="cls-15" x="801.82" y="95.19" width="18" height="32.88"/><line class="cls-27" x1="801.26" y1="111.63" x2="820.37" y2="111.63"/><line class="cls-27" x1="810.82" y1="94.64" x2="810.82" y2="128.62"/><rect class="cls-6" x="774.62" y="254.39" width="32" height="42.21"/><line class="cls-30" x1="773.5" y1="254.39" x2="807.74" y2="254.39"/><line class="cls-30" x1="790.62" y1="254.39" x2="790.62" y2="296.6"/><rect class="cls-25" x="778.54" y="260.18" width="6.82" height="21.85"/><rect class="cls-25" x="795.91" y="260.18" width="6.82" height="21.85"/><rect class="cls-29" x="717" y="296.6" width="147.23" height="13.53"/><rect class="cls-15" x="741.23" y="158.97" width="18" height="21.86"/><line class="cls-27" x1="740.68" y1="169.89" x2="759.78" y2="169.89"/><line class="cls-27" x1="750.23" y1="158.41" x2="750.23" y2="181.37"/><polygon class="cls-8" points="717 140.1 864.24 140.1 717 141.91 717 140.1"/><path class="cls-17" d="M811.57,302.58c1.86-13.7,16.32-26.36,32.14-26.36,12,0,22.44,6.17,27.47,15.15A26.54,26.54,0,0,1,884,288c9.2,0,17.27,7,21.72,14.6Z"/><line class="cls-18" x1="831.44" y1="297.31" x2="831.44" y2="246.39"/><polygon class="cls-17" points="833.23 246.39 829.64 246.39 824.46 232.67 838.41 232.67 833.23 246.39"/><rect class="cls-20" x="827.84" y="297.57" width="7.19" height="4.01"/><line class="cls-18" x1="823.6" y1="232.67" x2="839.28" y2="232.67"/><line class="cls-18" x1="828.78" y1="246.39" x2="834.1" y2="246.39"/><polygon class="cls-21" points="838.41 232.67 824.46 232.67 828.77 227.02 834.1 227.02 838.41 232.67"/><line class="cls-18" x1="827.91" y1="227.02" x2="834.96" y2="227.02"/><path class="cls-20" d="M831.44,224.58h0a1.67,1.67,0,0,1,1.67,1.67V227a0,0,0,0,1,0,0h-3.34a0,0,0,0,1,0,0v-.77a1.67,1.67,0,0,1,1.67-1.67Z"/><line class="cls-18" x1="831.44" y1="231.81" x2="831.44" y2="246.39"/><line class="cls-18" x1="825.8" y1="238.8" x2="837.08" y2="238.8"/><line class="cls-18" x1="114.54" y1="294.78" x2="114.54" y2="243.86"/><polygon class="cls-17" points="116.33 243.86 112.74 243.86 107.56 230.14 121.51 230.14 116.33 243.86"/><rect class="cls-20" x="110.94" y="295.04" width="7.19" height="4.01"/><line class="cls-18" x1="106.7" y1="230.14" x2="122.38" y2="230.14"/><line class="cls-18" x1="111.88" y1="243.86" x2="117.2" y2="243.86"/><polygon class="cls-21" points="121.51 230.14 107.56 230.14 111.88 224.49 117.2 224.49 121.51 230.14"/><line class="cls-18" x1="111.01" y1="224.49" x2="118.06" y2="224.49"/><path class="cls-20" d="M114.54,222.06h0a1.67,1.67,0,0,1,1.67,1.67v.77a0,0,0,0,1,0,0h-3.34a0,0,0,0,1,0,0v-.77a1.67,1.67,0,0,1,1.67-1.67Z"/><line class="cls-18" x1="114.54" y1="229.28" x2="114.54" y2="243.86"/><line class="cls-18" x1="108.9" y1="236.27" x2="120.18" y2="236.27"/><line class="cls-18" x1="253.22" y1="294.78" x2="253.22" y2="243.86"/><polygon class="cls-17" points="255.01 243.86 251.42 243.86 246.24 230.14 260.19 230.14 255.01 243.86"/><rect class="cls-20" x="249.62" y="295.04" width="7.19" height="4.01"/><line class="cls-18" x1="245.38" y1="230.14" x2="261.06" y2="230.14"/><line class="cls-18" x1="250.56" y1="243.86" x2="255.88" y2="243.86"/><polygon class="cls-21" points="260.19 230.14 246.24 230.14 250.56 224.49 255.88 224.49 260.19 230.14"/><line class="cls-18" x1="249.69" y1="224.49" x2="256.74" y2="224.49"/><path class="cls-20" d="M253.22,222.06h0a1.67,1.67,0,0,1,1.67,1.67v.77a0,0,0,0,1,0,0h-3.34a0,0,0,0,1,0,0v-.77A1.67,1.67,0,0,1,253.22,222.06Z"/><line class="cls-18" x1="253.22" y1="229.28" x2="253.22" y2="243.86"/><line class="cls-18" x1="247.58" y1="236.27" x2="258.86" y2="236.27"/><line class="cls-18" x1="1467.79" y1="294.78" x2="1467.79" y2="243.86"/><polygon class="cls-17" points="1469.59 243.86 1465.99 243.86 1460.81 230.14 1474.76 230.14 1469.59 243.86"/><rect class="cls-20" x="1464.19" y="295.04" width="7.19" height="4.01"/><line class="cls-18" x1="1459.95" y1="230.14" x2="1475.63" y2="230.14"/><line class="cls-18" x1="1465.13" y1="243.86" x2="1470.45" y2="243.86"/><polygon class="cls-21" points="1474.76 230.14 1460.81 230.14 1465.13 224.49 1470.45 224.49 1474.76 230.14"/><line class="cls-18" x1="1464.26" y1="224.49" x2="1471.31" y2="224.49"/><path class="cls-20" d="M1467.79,222.06h0a1.67,1.67,0,0,1,1.67,1.67v.77a0,0,0,0,1,0,0h-3.34a0,0,0,0,1,0,0v-.77A1.67,1.67,0,0,1,1467.79,222.06Z"/><line class="cls-18" x1="1467.79" y1="229.28" x2="1467.79" y2="243.86"/><line class="cls-18" x1="1462.15" y1="236.27" x2="1473.43" y2="236.27"/><path class="cls-17" d="M133.82,302.58c-1.85-13.7-16.31-26.36-32.13-26.36-12,0-22.44,6.17-27.47,15.15A26.57,26.57,0,0,0,61.39,288c-9.21,0-17.27,7-21.72,14.6Z"/></g></g></svg>