<svg xmlns="http://www.w3.org/2000/svg" xmlns:xlink="http://www.w3.org/1999/xlink" viewBox="0 0 1920 1080"><defs><style>.cls-1,.cls-15{fill:#ffc52f;}.cls-2{fill:url(#linear-gradient);}.cls-12,.cls-3{fill:#fff;}.cls-10,.cls-4{fill:#fbc877;}.cls-11,.cls-12,.cls-15,.cls-4,.cls-6,.cls-9{stroke:#001c59;stroke-linecap:round;stroke-linejoin:round;stroke-width:2px;}.cls-5,.cls-6{fill:#001c59;}.cls-7{fill:#d84876;}.cls-11,.cls-8{fill:#f25a84;}.cls-9{fill:none;}.cls-13{fill:#fbafd2;}.cls-14{fill:#f1b86a;}</style><linearGradient id="linear-gradient" x1="959.86" y1="788.02" x2="959.86" y2="309.54" gradientUnits="userSpaceOnUse"><stop offset="0" stop-color="#ffc52f"/><stop offset="1" stop-color="#d69a1a"/></linearGradient></defs><g id="Layer_1" data-name="Layer 1"><rect class="cls-1" x="-0.1" y="0.37" width="1920" height="1080"/><path class="cls-2" d="M96,911V571.88h33V558.34l8.32-1.34V527.12c2.26-3.87,4.24-7.23,6.25-10.66,1,.35,2,.4,2.19.82,1.58,3.51,3,7.09,4.88,11.63l-2.39,3.59,3.83,5.27h15.84c-1.13-8.73,2.62-16.52,7-24.55l2.76,5.63,48.66-42.55c-.75-14,3.1-26.3,10.36-38.87,1.56,7.67,2.94,14.5,4.54,22.36l4,1.32v15.3c8.59,7.31,17.22,14.61,25.81,21.95,8.24,7,14.09,16.79,24.84,21.9v20.38h34.58c2.74,2.89,5.64,6.45,9.06,9.4,3.2,2.78,4.95,7.89,11.58,7.5V473.1c0-8.32-.43-16.66.13-25,.51-7.47,2.1-14.87,3.33-23h18.66c10-6.13,4-13.07,2.41-19.65L383.57,394c7.82-5.66,19-1.7,29.9-3l10.09,11.15v22.22h21.37v12.74l5.72,2v49.18c14.62,0,28.82.5,43-.15,13.38-.61,27.21,3,40.57-2.51V464l5.09-1.05c.24-3.07.5-6.53.8-10.45h15.21l2.41-6.57c.86,2.28,1.35,3.56,2.25,6h15.51c.2,4.06.35,7.17.54,10.85l8,1.26v24.32h48.59a6.38,6.38,0,0,1,1,1,2.38,2.38,0,0,1,.45,1.18c0,15.65,0,31.29,0,47.95L644.55,542V494l-8.4-17.26c4.12-5.42,8.64-11.35,13.91-18.26l-18.67-24.69c9.68-.42,18.34,4.22,25.19,14l3.44-6.21h7v4.11l-5.82,2.22,5.63,11.71L659.4,467c5.84,8.06-.88,18.34,4.84,26.78a7.25,7.25,0,0,1-2.35,9.64c4.89,5.58,2,12.27,2.51,18.39.5,5.94.11,12,.11,18.23l4.91,1.44c1.35-17.29.22-34.15.72-50.7,2.45-3.82,4.63-7.6,7.19-11.11,2.39-3.27,5.19-6.25,9.24-11.07,0,.23.16-1.95.39-4.73h7.6c.28,2.38.53,4.56.84,7.24h26.79c1-4.8,2.18-10.29,3.33-15.78,1.08-5.14-2.5-11.09,2.69-15.53l-4.44-5.36,7.49-2.3,3,2.56c-.72,1.58-1.26,2.75-2,4.34,1.59,10.06,3.26,20.63,5.05,31.93h26.58c.23-2.2.46-4.38.74-7.13h7.41c.19,1.41.48,3.5.86,6.36,10.14,1.59,8.44,13.83,16.17,19.09v51.11h7.61c-.29.25.35,0,.35-.34,0-12.35,0-24.69,0-37.05l11.7-6.73,7.13,4.36c.61-3.5,1-5.9,1.54-8.78l4.65-1.65c.25-2.09.5-4.27.78-6.62l4.87-1.85c.23-2.12.47-4.3.76-7h7.08c.51-2.94,1-5.48,1.44-8.36H847v6.63l5.65,1.93v6.52l5.75,2c.14,2,.29,4.15.49,6.95h8.24c-1-12.47.15-24.47,6.95-35.55,6.61,20.32,3.22,40.88,3.94,61.18.29,7.84,0,15.7,0,24.21h13.17c2.63-9.45-2.07-19.85,2.79-28.87-.94-5.16-1.88-10.32-2.67-14.63l7.5-10.26,6.08,8.24c-.71,6.16-3,11.88-1.56,16.4,3.09,9.68,2,19.47,2.5,29.39l4.95.31V439.35l8-1.5c1.22-5.51,1.38-11.57,3.92-16.37,2.79-5.26,2.35-10.35,2.47-15.64.13-5.82.06-11.64.09-19.24l8.59,5.73c-1.09,3-3.61,6.29-2.86,8.46,4.25,12.28,1.88,26.23,9.38,37.32l4.39,1v42.64c5,2.32,6.18,0,5.24-4.48h85.63V448.55l4.64-4.61,3,6.22,14.6-9.43V426.35l4.82-4.82,6.95,9.05v9.77l12.46,8.56,6.06-3.42c1.41,10.05.12,19.16,1.07,29.67,2.25-1.38,4-2,5.11-3.21,3.49-3.95,6.72-8.12,10.91-13.26,8.1,9.79,18.36,15.39,25,25.86v40.51c3,2,5.84,3.92,8.68,5.81-3.87,6.8-3.92,6.82,1.15,12.82h30.48a6,6,0,0,0,1-.84,2.24,2.24,0,0,0,.51-1.16c0-16.57,0-33.15,0-51.12l32.78,5.55V489.3l86,13.55v7.09l20.11,4.73q-1.71,13.47-3.63,28.64h8.31v-68.1l11.55-11.71h17.47l18.35-14v85.23h11.26V450.24c3.82-.68,4.33,2.87,6.35,4a50.19,50.19,0,0,1,5.46,3.57c2.16,1.6,4.22,3.35,6.76,5.38h18.92c2.32,4.73,4,10.47,12.67,7.71V503c0,10.17-1.12,20.5.32,30.46s-8.73,19.81,1.47,30.55c.53-4.29.93-7.48,1.44-11.67h18.64c.18-2.71.29-4.48.4-6.13l-11.17-14.53v-14l9.62-9.91h15.72l7.06,3.49a9.15,9.15,0,0,0,.89,1.79c4.64,6.53,2.1,14,2.86,20.92l-8.16,8.16v9.53h24.06v-8.78l-10.93-15.26c1.54-5.19,2.77-9.32,4.12-13.88,6.59-7.46,15.84-6.1,26-5.92l8.7,11.51c2.6,11.56-2.82,19.37-10.44,25.61v6.6h27.38c.11-2,.2-3.83.31-5.91l-10.76-9.53V517l9.26-9.25c7.17.35,15.24-1.67,23.2,4,4.56,6.34,3.17,14.52,3,22.49l-10.88,10.88v5.53c5.79,4.5,10.59-.44,16.26-2V524.93h48.56l4.77-5.77H1646V487.65l21.54,16.93h9.5l26.28-11.1c.55,1.45,1,2.65,1.56,4.15l-31.42,16.15c6.87,5.64,12.09-.58,17.72-.71s11.27-1.65,16.88-2.61c5.93-1,11.84-2.11,19.09-1l-5.66,1.6V524h33V402.47c11.7-.74,23.16,1.74,33.28-4.76,0-.69-.1-1.59-.2-3.47h-24.32c-.16-2.22-.25-3.47-.37-5.27h41c-.2,5.51,1.88,10.51,8.77,11.82V548.64l11.17,1.17V911Z"/><path class="cls-3" d="M564.09,385.13s15.36-5.06,28.63-10.55c15.3-6.34,22.82,4,37.55,4.33s21.93-3.84,33.53-2.81c17.25,1.54,19,7.18,27,9.76Z"/><path class="cls-3" d="M305.3,297.61s22.23-4.6,51.37-16.87,69,.77,82,6.9,28,1.92,35.66,1.15,34.12-.38,51,8.82Z"/><path class="cls-3" d="M1710.9,544.14s15.36-5.06,28.63-10.55c15.3-6.33,22.81,4,37.55,4.33s21.93-3.84,33.53-2.81c17.25,1.54,19,7.19,27,9.76Z"/><path class="cls-3" d="M324.92,209.33s23-26.75,56.4-14.15,31.88,4.22,48.67,2.88c14.39-1.15,20.09,9.7,32.41,11.27Z"/><path class="cls-3" d="M1002.12,260.8s11.08-1.93,35.45-14,51.1,5.41,68.65,1.73,33.76-4.82,48.22,1.89,24.79,4.46,37.87,2.69c13.5-1.83,20.3,4.78,42.92,7.71Z"/><path class="cls-3" d="M1405.9,148.43a226.71,226.71,0,0,0,65.85-18c33.17-14.86,54.29-3.93,71,5.29,23,12.71,43.15,6.23,65.29,7.06a214.17,214.17,0,0,1,41.3,5.65Z"/><path class="cls-3" d="M885,220.71a160.51,160.51,0,0,0,25.61-9.3c22.61-10.22,37.81-.63,49.07,2.14,18.49,4.56,28.37-5.84,65-.9,16.46,2.22,37.19,8.07,37.19,8.07Z"/><path class="cls-3" d="M141.3,241.83s34.37-6.24,61.34-17.88,44.07,5.06,68,9,31.62-2.22,51.38,0c13.26,1.49,38.91,8.9,38.91,8.9Z"/><path class="cls-3" d="M736.35,270.62c-.53-2.2.21-4.42.42-6.61a9.15,9.15,0,0,0-.8-5.08,6.22,6.22,0,0,0-4.3-3.06c-2.38-.6-4.78-1.08-7.17-1.62-3.8-.85-7.92-1.42-11.48-3.08a10.25,10.25,0,0,1-3.95-2.94,9.33,9.33,0,0,1-1.56-5.73c0-3.78.86-7.67-.51-11.33s-4.45-5.54-8.28-5.7a48.59,48.59,0,0,0-5.9.4,37.42,37.42,0,0,1-6.61-.05,36.24,36.24,0,0,1-12.56-3.55c-1.61-.8-3.41-1.76-4.28-3.43s-.45-3.76.27-5.5c1.61-3.91,4.39-7.15,5.23-11.39.73-3.72,0-7.73-3-10.3-2.67-2.29-6.23-3.13-9.68-3.25-4.57-.15-9.31,1.17-13.81,0-3-.81-6.69-3.63-6-7.18.34-1.84,1.55-3.43,2.23-5.15a7,7,0,0,0,.12-5.07c-1.39-3.53-5.14-5.33-8.66-5.94-4-.69-8.1-.64-11.32-3.41a14.53,14.53,0,0,1-4.89-9.23A20.3,20.3,0,0,1,622.72,140c1.68-2.9,4.73-7.06,8.64-6a11.24,11.24,0,0,1,4.51,3,53.34,53.34,0,0,0,4.31,3.79,28.73,28.73,0,0,0,11,5.25c8.83,2,17.26-1.55,25.42-4.48,7.41-2.67,15.14-4.38,23-4a37.37,37.37,0,0,1,10.93,2.12c3.32,1.21,7.27,3.14,9.55,5.94,1.5,1.84.79,4,.19,6.06a39.63,39.63,0,0,0-1.29,6.47,35.56,35.56,0,0,0-.08,6.92,13.14,13.14,0,0,0,1.47,5.6c2.06,3.49,6.39,4.37,10,5.27a111.22,111.22,0,0,1,12.8,3.53c6.7,2.53,13.86,8.1,13.68,16-.09,3.84-1.94,7.37-3.7,10.69-1.88,3.54-3.85,7.11-4.65,11.08a25.09,25.09,0,0,0,.59,12.32c1.3,4.2,4,7.55,6.15,11.28,2.12,3.57,3.63,8.13.86,11.78-2.25,3-5.8,4.62-8.07,7.59-2.13,2.77-3.37,6.57-1.36,9.75,1,1.63,3.62.13,2.59-1.51-2.15-3.41,1.48-7.15,4-9.16,2.91-2.38,6.15-4.74,7.12-8.6,1.08-4.35-.8-8.7-3.08-12.32s-4.86-7.22-5.8-11.66a22,22,0,0,1,1-12.44c1.46-3.77,3.74-7.15,5.35-10.84a18.93,18.93,0,0,0,1.74-11.12,18.44,18.44,0,0,0-5.42-9.51c-6.2-6.07-14.88-7.74-23-9.74a25.52,25.52,0,0,1-5.93-1.85,5.9,5.9,0,0,1-3.14-4.49,30.45,30.45,0,0,1,.86-13.58c.6-2.15,1.38-4.36.85-6.61a8.61,8.61,0,0,0-3.3-4.57,32.09,32.09,0,0,0-9.91-5.4c-7.39-2.5-15.45-2.46-23.06-1.12A70.89,70.89,0,0,0,676,138.6a112.87,112.87,0,0,1-13.15,4.31,24.67,24.67,0,0,1-12.85-.28,27.79,27.79,0,0,1-10.49-6.31c-2.68-2.5-5.54-5.66-9.55-5.5s-7.09,3.37-9.14,6.55c-4.37,6.79-5.82,15.92-1.17,22.95a15.38,15.38,0,0,0,8.85,6.53c3.85,1,8.49.41,11.77,3.05a4.24,4.24,0,0,1,1.77,4.29c-.44,1.88-1.7,3.47-2.31,5.3-1.22,3.59.48,7.19,3.33,9.44,7.16,5.67,16.29.46,24.15,3.39A7.38,7.38,0,0,1,672,201c-.76,4.3-3.68,7.63-5.26,11.59s-1,7.81,2.32,10.44,7.57,4,11.51,4.93a40.22,40.22,0,0,0,13.26.86c3.46-.35,8.08-1.13,10,2.61,1.81,3.52.6,7.8.68,11.55a11.39,11.39,0,0,0,4.9,9.65c3,2.06,6.68,2.86,10.16,3.64l7.51,1.69c1.12.25,2.25.49,3.36.75a4.17,4.17,0,0,1,2.69,1.36c.94,1.35.75,3.29.52,4.82-.33,2.22-.74,4.35-.21,6.58.46,1.88,3.35,1.08,2.9-.8Z"/><path class="cls-3" d="M625.5,134.17s-11,8.75-6,22.79c0,0,4.18,7.72,15.32,9.38s7.73,10.44,7.22,11.51-4.23,12.67,8.68,12.41,23.82-.15,22.9,8.36-11.46,19.13-2.87,23.75,15.24,5.5,21.35,5,13.48-.69,14,6.82-1.77,16.1,6.6,18.45,19.15,3.4,20.66,5.51.94,10.09.94,10.09.36,5,3.87,5.33a86.9,86.9,0,0,0,9.5,0s-2-6.63,0-9.9,8.75-9,9.56-10.17,1.73-9.52-1.78-15.2-8.18-17.23-4.92-25.23,12.7-16.57,5.79-25.16-23.49-13.32-28.19-14.14-8.5-7.42-7.73-15.31,5.37-16.42-13.06-21.34-41.53,6.5-41.53,6.5-13.35,2.32-18.32-.33a79.83,79.83,0,0,1-11.08-7.81l-6-3.21Z"/><path class="cls-3" d="M1182.08,352.08c-.53-2.2.21-4.42.42-6.62a9.15,9.15,0,0,0-.8-5.08,6.27,6.27,0,0,0-4.3-3.06c-2.38-.6-4.78-1.08-7.17-1.61-3.8-.86-7.92-1.43-11.48-3.09a10.23,10.23,0,0,1-4-2.93,9.29,9.29,0,0,1-1.56-5.74c0-3.78.85-7.67-.51-11.33s-4.46-5.53-8.28-5.7a48.59,48.59,0,0,0-5.9.4,38.39,38.39,0,0,1-6.61,0,36.26,36.26,0,0,1-12.56-3.56c-1.62-.8-3.41-1.76-4.28-3.42s-.45-3.77.27-5.51c1.61-3.9,4.39-7.14,5.23-11.38.73-3.73,0-7.73-3-10.3a15.45,15.45,0,0,0-9.68-3.25c-4.57-.16-9.31,1.16-13.81,0-3-.82-6.69-3.63-6.05-7.18.34-1.84,1.55-3.44,2.23-5.16a7,7,0,0,0,.12-5.07c-1.39-3.53-5.14-5.32-8.66-5.94-4-.69-8.1-.64-11.33-3.41a14.54,14.54,0,0,1-4.88-9.23,20.38,20.38,0,0,1,2.88-12.39c1.68-2.9,4.74-7.06,8.64-6a11.13,11.13,0,0,1,4.52,3.05,55.36,55.36,0,0,0,4.31,3.79,28.5,28.5,0,0,0,11,5.24c8.83,2,17.26-1.54,25.42-4.48,7.41-2.66,15.14-4.38,23-4a37.06,37.06,0,0,1,10.93,2.13c3.32,1.2,7.27,3.14,9.55,5.93,1.49,1.84.79,4,.19,6.06a39.75,39.75,0,0,0-1.29,6.48,35.45,35.45,0,0,0-.08,6.91,13.14,13.14,0,0,0,1.47,5.6c2.06,3.5,6.39,4.37,10,5.27a111.22,111.22,0,0,1,12.8,3.53c6.7,2.54,13.86,8.11,13.68,16-.09,3.84-1.94,7.36-3.7,10.68-1.88,3.54-3.85,7.11-4.65,11.08a25.09,25.09,0,0,0,.59,12.32c1.3,4.2,4,7.55,6.15,11.28,2.12,3.57,3.63,8.13.86,11.78-2.25,3-5.8,4.63-8.08,7.59-2.12,2.77-3.36,6.58-1.35,9.76,1,1.63,3.62.12,2.59-1.52-2.15-3.4,1.48-7.15,4-9.16,2.91-2.38,6.15-4.74,7.11-8.59,1.09-4.35-.79-8.7-3.07-12.32s-4.86-7.23-5.8-11.67a22,22,0,0,1,1-12.44c1.46-3.76,3.74-7.14,5.35-10.84a18.8,18.8,0,0,0,1.73-11.11,18.35,18.35,0,0,0-5.41-9.52c-6.21-6.06-14.88-7.73-23-9.73a26.51,26.51,0,0,1-5.93-1.85,5.92,5.92,0,0,1-3.14-4.5,30.4,30.4,0,0,1,.86-13.57c.6-2.15,1.38-4.37.85-6.62a8.7,8.7,0,0,0-3.3-4.57,32.17,32.17,0,0,0-9.91-5.39c-7.39-2.51-15.45-2.47-23.06-1.13a71.91,71.91,0,0,0-11.6,3.18,110.56,110.56,0,0,1-13.16,4.31,24.53,24.53,0,0,1-12.84-.28,27.69,27.69,0,0,1-10.49-6.3c-2.68-2.51-5.54-5.66-9.55-5.51s-7.09,3.37-9.14,6.56c-4.38,6.78-5.82,15.91-1.17,22.94a15.39,15.39,0,0,0,8.85,6.54c3.85,1,8.49.41,11.76,3.05a4.22,4.22,0,0,1,1.78,4.28c-.45,1.88-1.7,3.48-2.32,5.3-1.21,3.59.49,7.19,3.34,9.45,7.15,5.67,16.29.45,24.15,3.38a7.39,7.39,0,0,1,4.82,8.64c-.76,4.29-3.68,7.62-5.27,11.59-1.52,3.81-1,7.8,2.33,10.43s7.57,4,11.51,4.93a40.23,40.23,0,0,0,13.26.87c3.46-.35,8.08-1.14,10,2.6,1.8,3.52.6,7.8.68,11.55a11.41,11.41,0,0,0,4.9,9.66c3,2,6.68,2.85,10.16,3.64l7.51,1.68c1.12.25,2.24.49,3.36.76a4.07,4.07,0,0,1,2.68,1.35c1,1.35.76,3.29.53,4.83-.33,2.22-.74,4.35-.21,6.57.46,1.88,3.35,1.09,2.9-.79Z"/><path class="cls-3" d="M1071.23,215.62s-11,8.76-6,22.8c0,0,4.18,7.72,15.32,9.37s7.73,10.45,7.21,11.51-4.22,12.67,8.68,12.41,23.82-.14,22.91,8.36-11.46,19.13-2.87,23.76,15.24,5.49,21.35,5,13.48-.68,14,6.82-1.77,16.1,6.59,18.45,19.16,3.4,20.67,5.51.94,10.09.94,10.09.36,5,3.87,5.34a89.7,89.7,0,0,0,9.5,0s-2-6.64,0-9.91,8.75-8.95,9.56-10.17,1.73-9.51-1.78-15.19-8.18-17.23-4.92-25.23,12.7-16.57,5.79-25.16-23.49-13.33-28.2-14.15-8.49-7.42-7.72-15.31,5.37-16.42-13.06-21.34-41.53,6.51-41.53,6.51-13.35,2.32-18.33-.34a80.45,80.45,0,0,1-11.07-7.8l-6-3.22Z"/><rect class="cls-4" x="734.05" y="270.13" width="11.33" height="32.04"/><polygon class="cls-5" points="734.37 271.91 745.8 275.05 745.8 270.48 734.37 270.48 734.37 271.91"/><rect class="cls-6" x="745.37" y="270.13" width="6.09" height="32.04"/><rect class="cls-7" x="734.91" y="264.28" width="21.78" height="8.02" rx="1.37"/><rect class="cls-8" x="728.82" y="264.28" width="21.78" height="8.02" rx="1.37"/><rect class="cls-6" x="656.69" y="309.29" width="309.61" height="601.65"/><rect class="cls-9" x="656.69" y="309.29" width="309.61" height="601.65"/><line class="cls-4" x1="653.58" y1="406.71" x2="969.41" y2="406.71"/><rect class="cls-6" x="653.58" y="300.48" width="315.83" height="8.81"/><line class="cls-4" x1="653.58" y1="504.12" x2="969.41" y2="504.12"/><line class="cls-4" x1="653.58" y1="601.53" x2="969.41" y2="601.53"/><line class="cls-4" x1="653.58" y1="698.95" x2="969.41" y2="698.95"/><line class="cls-4" x1="653.58" y1="796.36" x2="969.41" y2="796.36"/><rect class="cls-10" x="715.8" y="309.29" width="359.61" height="601.65"/><rect class="cls-9" x="715.8" y="309.29" width="359.61" height="601.65"/><path class="cls-3" d="M759.86,330.54h0a15.69,15.69,0,0,1,15.69,15.69v33a0,0,0,0,1,0,0H744.17a0,0,0,0,1,0,0v-33a15.69,15.69,0,0,1,15.69-15.69Z"/><line class="cls-9" x1="742.76" y1="379.19" x2="776.95" y2="379.19"/><line class="cls-9" x1="742.76" y1="343.58" x2="776.95" y2="343.58"/><path class="cls-3" d="M827.73,330.54h0a15.69,15.69,0,0,1,15.69,15.69v33a0,0,0,0,1,0,0H812a0,0,0,0,1,0,0v-33a15.69,15.69,0,0,1,15.69-15.69Z"/><line class="cls-9" x1="810.63" y1="379.19" x2="844.83" y2="379.19"/><line class="cls-9" x1="810.63" y1="343.58" x2="844.83" y2="343.58"/><path class="cls-3" d="M895.61,330.54h0a15.69,15.69,0,0,1,15.69,15.69v33a0,0,0,0,1,0,0H879.92a0,0,0,0,1,0,0v-33A15.69,15.69,0,0,1,895.61,330.54Z"/><line class="cls-9" x1="878.51" y1="379.19" x2="912.71" y2="379.19"/><line class="cls-9" x1="878.51" y1="343.58" x2="912.71" y2="343.58"/><path class="cls-3" d="M963.49,330.54h0a15.69,15.69,0,0,1,15.69,15.69v33a0,0,0,0,1,0,0H947.8a0,0,0,0,1,0,0v-33A15.69,15.69,0,0,1,963.49,330.54Z"/><line class="cls-9" x1="946.39" y1="379.19" x2="980.59" y2="379.19"/><line class="cls-9" x1="946.39" y1="343.58" x2="980.59" y2="343.58"/><line class="cls-4" x1="712.69" y1="406.71" x2="1078.52" y2="406.71"/><rect class="cls-4" x="712.69" y="300.48" width="365.83" height="8.81"/><path class="cls-3" d="M759.86,428h0a15.69,15.69,0,0,1,15.69,15.69v33a0,0,0,0,1,0,0H744.17a0,0,0,0,1,0,0v-33A15.69,15.69,0,0,1,759.86,428Z"/><line class="cls-9" x1="742.76" y1="476.6" x2="776.95" y2="476.6"/><line class="cls-9" x1="742.76" y1="441" x2="776.95" y2="441"/><path class="cls-3" d="M827.73,428h0a15.69,15.69,0,0,1,15.69,15.69v33a0,0,0,0,1,0,0H812a0,0,0,0,1,0,0v-33A15.69,15.69,0,0,1,827.73,428Z"/><line class="cls-9" x1="810.63" y1="476.6" x2="844.83" y2="476.6"/><line class="cls-9" x1="810.63" y1="441" x2="844.83" y2="441"/><path class="cls-3" d="M895.61,428h0a15.69,15.69,0,0,1,15.69,15.69v33a0,0,0,0,1,0,0H879.92a0,0,0,0,1,0,0v-33A15.69,15.69,0,0,1,895.61,428Z"/><line class="cls-9" x1="878.51" y1="476.6" x2="912.71" y2="476.6"/><line class="cls-9" x1="878.51" y1="441" x2="912.71" y2="441"/><path class="cls-3" d="M963.49,428h0a15.69,15.69,0,0,1,15.69,15.69v33a0,0,0,0,1,0,0H947.8a0,0,0,0,1,0,0v-33A15.69,15.69,0,0,1,963.49,428Z"/><line class="cls-9" x1="946.39" y1="476.6" x2="980.59" y2="476.6"/><line class="cls-9" x1="946.39" y1="441" x2="980.59" y2="441"/><line class="cls-4" x1="712.69" y1="504.12" x2="1078.52" y2="504.12"/><path class="cls-3" d="M759.86,525.36h0a15.69,15.69,0,0,1,15.69,15.69v33a0,0,0,0,1,0,0H744.17a0,0,0,0,1,0,0v-33a15.69,15.69,0,0,1,15.69-15.69Z"/><line class="cls-9" x1="742.76" y1="574.02" x2="776.95" y2="574.02"/><line class="cls-9" x1="742.76" y1="538.41" x2="776.95" y2="538.41"/><path class="cls-3" d="M827.73,525.36h0a15.69,15.69,0,0,1,15.69,15.69v33a0,0,0,0,1,0,0H812a0,0,0,0,1,0,0v-33a15.69,15.69,0,0,1,15.69-15.69Z"/><line class="cls-9" x1="810.63" y1="574.02" x2="844.83" y2="574.02"/><line class="cls-9" x1="810.63" y1="538.41" x2="844.83" y2="538.41"/><path class="cls-3" d="M895.61,525.36h0a15.69,15.69,0,0,1,15.69,15.69v33a0,0,0,0,1,0,0H879.92a0,0,0,0,1,0,0v-33A15.69,15.69,0,0,1,895.61,525.36Z"/><line class="cls-9" x1="878.51" y1="574.02" x2="912.71" y2="574.02"/><line class="cls-9" x1="878.51" y1="538.41" x2="912.71" y2="538.41"/><path class="cls-3" d="M963.49,525.36h0a15.69,15.69,0,0,1,15.69,15.69v33a0,0,0,0,1,0,0H947.8a0,0,0,0,1,0,0v-33A15.69,15.69,0,0,1,963.49,525.36Z"/><line class="cls-9" x1="946.39" y1="574.02" x2="980.59" y2="574.02"/><line class="cls-9" x1="946.39" y1="538.41" x2="980.59" y2="538.41"/><line class="cls-4" x1="712.69" y1="601.53" x2="1078.52" y2="601.53"/><path class="cls-3" d="M759.86,622.78h0a15.69,15.69,0,0,1,15.69,15.69v33a0,0,0,0,1,0,0H744.17a0,0,0,0,1,0,0v-33A15.69,15.69,0,0,1,759.86,622.78Z"/><line class="cls-9" x1="742.76" y1="671.43" x2="776.95" y2="671.43"/><line class="cls-9" x1="742.76" y1="635.82" x2="776.95" y2="635.82"/><path class="cls-3" d="M827.73,622.78h0a15.69,15.69,0,0,1,15.69,15.69v33a0,0,0,0,1,0,0H812a0,0,0,0,1,0,0v-33A15.69,15.69,0,0,1,827.73,622.78Z"/><line class="cls-9" x1="810.63" y1="671.43" x2="844.83" y2="671.43"/><line class="cls-9" x1="810.63" y1="635.82" x2="844.83" y2="635.82"/><path class="cls-3" d="M895.61,622.78h0a15.69,15.69,0,0,1,15.69,15.69v33a0,0,0,0,1,0,0H879.92a0,0,0,0,1,0,0v-33A15.69,15.69,0,0,1,895.61,622.78Z"/><line class="cls-9" x1="878.51" y1="671.43" x2="912.71" y2="671.43"/><line class="cls-9" x1="878.51" y1="635.82" x2="912.71" y2="635.82"/><path class="cls-3" d="M963.49,622.78h0a15.69,15.69,0,0,1,15.69,15.69v33a0,0,0,0,1,0,0H947.8a0,0,0,0,1,0,0v-33A15.69,15.69,0,0,1,963.49,622.78Z"/><line class="cls-9" x1="946.39" y1="671.43" x2="980.59" y2="671.43"/><line class="cls-9" x1="946.39" y1="635.82" x2="980.59" y2="635.82"/><line class="cls-4" x1="712.69" y1="698.95" x2="1078.52" y2="698.95"/><path class="cls-3" d="M759.86,720.19h0a15.69,15.69,0,0,1,15.69,15.69v33a0,0,0,0,1,0,0H744.17a0,0,0,0,1,0,0v-33a15.69,15.69,0,0,1,15.69-15.69Z"/><line class="cls-9" x1="742.76" y1="768.84" x2="776.95" y2="768.84"/><line class="cls-9" x1="742.76" y1="733.24" x2="776.95" y2="733.24"/><path class="cls-3" d="M827.73,720.19h0a15.69,15.69,0,0,1,15.69,15.69v33a0,0,0,0,1,0,0H812a0,0,0,0,1,0,0v-33A15.69,15.69,0,0,1,827.73,720.19Z"/><line class="cls-9" x1="810.63" y1="768.84" x2="844.83" y2="768.84"/><line class="cls-9" x1="810.63" y1="733.24" x2="844.83" y2="733.24"/><path class="cls-3" d="M895.61,720.19h0a15.69,15.69,0,0,1,15.69,15.69v33a0,0,0,0,1,0,0H879.92a0,0,0,0,1,0,0v-33A15.69,15.69,0,0,1,895.61,720.19Z"/><line class="cls-9" x1="878.51" y1="768.84" x2="912.71" y2="768.84"/><line class="cls-9" x1="878.51" y1="733.24" x2="912.71" y2="733.24"/><path class="cls-3" d="M963.49,720.19h0a15.69,15.69,0,0,1,15.69,15.69v33a0,0,0,0,1,0,0H947.8a0,0,0,0,1,0,0v-33A15.69,15.69,0,0,1,963.49,720.19Z"/><line class="cls-9" x1="946.39" y1="768.84" x2="980.59" y2="768.84"/><line class="cls-9" x1="946.39" y1="733.24" x2="980.59" y2="733.24"/><path class="cls-3" d="M759.86,817.85h0a15.69,15.69,0,0,1,15.69,15.69v33a0,0,0,0,1,0,0H744.17a0,0,0,0,1,0,0v-33A15.69,15.69,0,0,1,759.86,817.85Z"/><line class="cls-9" x1="742.76" y1="866.51" x2="776.95" y2="866.51"/><line class="cls-9" x1="742.76" y1="830.9" x2="776.95" y2="830.9"/><path class="cls-3" d="M827.73,817.85h0a15.69,15.69,0,0,1,15.69,15.69v33a0,0,0,0,1,0,0H812a0,0,0,0,1,0,0v-33a15.69,15.69,0,0,1,15.69-15.69Z"/><line class="cls-9" x1="810.63" y1="866.51" x2="844.83" y2="866.51"/><line class="cls-9" x1="810.63" y1="830.9" x2="844.83" y2="830.9"/><path class="cls-3" d="M895.61,817.85h0a15.69,15.69,0,0,1,15.69,15.69v33a0,0,0,0,1,0,0H879.92a0,0,0,0,1,0,0v-33a15.69,15.69,0,0,1,15.69-15.69Z"/><line class="cls-9" x1="878.51" y1="866.51" x2="912.71" y2="866.51"/><line class="cls-9" x1="878.51" y1="830.9" x2="912.71" y2="830.9"/><path class="cls-3" d="M963.49,817.85h0a15.69,15.69,0,0,1,15.69,15.69v33a0,0,0,0,1,0,0H947.8a0,0,0,0,1,0,0v-33a15.69,15.69,0,0,1,15.69-15.69Z"/><line class="cls-9" x1="946.39" y1="866.51" x2="980.59" y2="866.51"/><line class="cls-9" x1="946.39" y1="830.9" x2="980.59" y2="830.9"/><path class="cls-3" d="M1031.37,330.54h0a15.69,15.69,0,0,1,15.69,15.69v33a0,0,0,0,1,0,0h-31.38a0,0,0,0,1,0,0v-33A15.69,15.69,0,0,1,1031.37,330.54Z"/><line class="cls-9" x1="1014.27" y1="379.19" x2="1048.47" y2="379.19"/><line class="cls-9" x1="1014.27" y1="343.58" x2="1048.47" y2="343.58"/><path class="cls-3" d="M1031.37,428h0a15.69,15.69,0,0,1,15.69,15.69v33a0,0,0,0,1,0,0h-31.38a0,0,0,0,1,0,0v-33A15.69,15.69,0,0,1,1031.37,428Z"/><line class="cls-9" x1="1014.27" y1="476.6" x2="1048.47" y2="476.6"/><line class="cls-9" x1="1014.27" y1="441" x2="1048.47" y2="441"/><path class="cls-3" d="M1031.37,525.36h0a15.69,15.69,0,0,1,15.69,15.69v33a0,0,0,0,1,0,0h-31.38a0,0,0,0,1,0,0v-33A15.69,15.69,0,0,1,1031.37,525.36Z"/><line class="cls-9" x1="1014.27" y1="574.02" x2="1048.47" y2="574.02"/><line class="cls-9" x1="1014.27" y1="538.41" x2="1048.47" y2="538.41"/><path class="cls-3" d="M1031.37,622.78h0a15.69,15.69,0,0,1,15.69,15.69v33a0,0,0,0,1,0,0h-31.38a0,0,0,0,1,0,0v-33A15.69,15.69,0,0,1,1031.37,622.78Z"/><line class="cls-9" x1="1014.27" y1="671.43" x2="1048.47" y2="671.43"/><line class="cls-9" x1="1014.27" y1="635.82" x2="1048.47" y2="635.82"/><path class="cls-3" d="M1031.37,720.19h0a15.69,15.69,0,0,1,15.69,15.69v33a0,0,0,0,1,0,0h-31.38a0,0,0,0,1,0,0v-33A15.69,15.69,0,0,1,1031.37,720.19Z"/><line class="cls-9" x1="1014.27" y1="768.84" x2="1048.47" y2="768.84"/><line class="cls-9" x1="1014.27" y1="733.24" x2="1048.47" y2="733.24"/><path class="cls-3" d="M1031.37,817.85h0a15.69,15.69,0,0,1,15.69,15.69v33a0,0,0,0,1,0,0h-31.38a0,0,0,0,1,0,0v-33A15.69,15.69,0,0,1,1031.37,817.85Z"/><line class="cls-9" x1="1014.27" y1="866.51" x2="1048.47" y2="866.51"/><line class="cls-9" x1="1014.27" y1="830.9" x2="1048.47" y2="830.9"/><line class="cls-4" x1="712.69" y1="796.36" x2="1078.52" y2="796.36"/><polygon class="cls-5" points="1075.41 309.29 715.8 314.22 715.8 309.29 1075.41 309.29"/><polygon class="cls-5" points="712.69 300.49 712.69 304.89 1076.88 300.49 712.69 300.49"/><rect class="cls-4" x="1178.35" y="354.14" width="11.33" height="32.04"/><polygon class="cls-5" points="1178.68 355.92 1190.11 359.07 1190.11 354.49 1178.68 354.49 1178.68 355.92"/><rect class="cls-6" x="1189.68" y="354.14" width="6.09" height="32.04"/><rect class="cls-7" x="1179.22" y="348.29" width="21.78" height="8.02" rx="1.37"/><rect class="cls-8" x="1173.13" y="348.29" width="21.78" height="8.02" rx="1.37"/><polygon class="cls-6" points="1208.34 440.34 1208.34 383.63 1162.95 383.63 1162.95 326.93 1117.57 326.93 1117.57 383.63 1072.18 383.63 1072.18 440.34 1026.79 440.34 1026.79 532.06 1072.18 532.06 1117.57 532.06 1162.95 532.06 1208.34 532.06 1253.73 532.06 1253.73 440.34 1208.34 440.34"/><rect class="cls-6" x="1076.85" y="538.87" width="298.67" height="132.39"/><rect class="cls-6" x="1076.85" y="671.26" width="298.67" height="238.95"/><rect class="cls-6" x="1289.88" y="400.43" width="47.63" height="128.15"/><rect class="cls-6" x="1073.28" y="538.87" width="308.81" height="10.68"/><rect class="cls-6" x="1073.28" y="671.26" width="308.81" height="10.68"/><rect class="cls-6" x="1286.31" y="396.68" width="54.78" height="7.5"/><path class="cls-11" d="M1264.88,396.68l34.54-80.92a2.36,2.36,0,0,1,4.56,0l33.54,80.92Z"/><polygon class="cls-4" points="1195.34 440.34 1195.34 383.63 1149.95 383.63 1149.95 326.93 1104.57 326.93 1104.57 383.63 1059.18 383.63 1059.18 440.34 1013.79 440.34 1013.79 532.06 1059.18 532.06 1104.57 532.06 1149.95 532.06 1195.34 532.06 1240.73 532.06 1240.73 440.34 1195.34 440.34"/><line class="cls-9" x1="1101.42" y1="326.93" x2="1153.11" y2="326.93"/><line class="cls-9" x1="1149.96" y1="383.64" x2="1198.49" y2="383.64"/><line class="cls-9" x1="1195.34" y1="440.34" x2="1243.88" y2="440.34"/><line class="cls-9" x1="1104.57" y1="383.64" x2="1056.03" y2="383.64"/><line class="cls-9" x1="1059.18" y1="440.34" x2="1010.64" y2="440.34"/><circle class="cls-12" cx="1127.26" cy="361.32" r="11.58"/><circle class="cls-12" cx="1083.42" cy="413.83" r="11.58"/><circle class="cls-12" cx="1039.05" cy="465.81" r="11.58"/><circle class="cls-12" cx="1216" cy="465.81" r="11.58"/><circle class="cls-12" cx="1168.74" cy="413.83" r="11.58"/><rect class="cls-13" x="1096.58" y="446.71" width="61.36" height="61.36"/><line class="cls-9" x1="1127.26" y1="444.28" x2="1127.26" y2="510.49"/><line class="cls-9" x1="1160.36" y1="477.39" x2="1094.16" y2="477.39"/><rect class="cls-4" x="1013.85" y="538.87" width="298.67" height="132.39"/><rect class="cls-4" x="1013.85" y="671.26" width="298.67" height="238.95"/><rect class="cls-3" x="1047.02" y="581.23" width="58.43" height="58.43"/><line class="cls-9" x1="1076.23" y1="578.92" x2="1076.23" y2="641.97"/><line class="cls-9" x1="1107.75" y1="610.45" x2="1044.71" y2="610.45"/><rect class="cls-13" x="1137.16" y="581.23" width="58.43" height="58.43"/><line class="cls-9" x1="1166.38" y1="578.92" x2="1166.38" y2="641.97"/><line class="cls-9" x1="1197.9" y1="610.45" x2="1134.86" y2="610.45"/><rect class="cls-3" x="1227.31" y="581.23" width="58.43" height="58.43"/><line class="cls-9" x1="1256.53" y1="578.92" x2="1256.53" y2="641.97"/><line class="cls-9" x1="1288.05" y1="610.45" x2="1225" y2="610.45"/><rect class="cls-9" x="1035.96" y="880.8" width="76.98" height="9.8"/><rect class="cls-9" x="1047.5" y="871" width="65.45" height="9.8"/><rect class="cls-9" x="1058.08" y="861.2" width="54.87" height="9.8"/><rect class="cls-6" x="1086.71" y="880.8" width="34.6" height="9.8"/><rect class="cls-9" x="1025.43" y="890.61" width="86.48" height="9.8"/><rect class="cls-6" x="1075.63" y="890.61" width="45.68" height="9.8"/><rect class="cls-9" x="1013.85" y="900.41" width="96.93" height="9.8"/><rect class="cls-6" x="1065.16" y="900.41" width="56.15" height="9.8"/><rect class="cls-6" x="1098.24" y="871" width="23.07" height="9.8"/><rect class="cls-6" x="1108.82" y="861.2" width="12.48" height="9.8"/><path class="cls-12" d="M1090.72,770.38h0A27.65,27.65,0,0,1,1118.37,798V861.2a0,0,0,0,1,0,0h-55.31a0,0,0,0,1,0,0V798a27.65,27.65,0,0,1,27.65-27.65Z"/><path class="cls-8" d="M1090.72,781.06h0a18.1,18.1,0,0,1,18.1,18.1v51.69a0,0,0,0,1,0,0h-36.21a0,0,0,0,1,0,0V799.16a18.1,18.1,0,0,1,18.1-18.1Z"/><line class="cls-12" x1="1090.72" y1="781.06" x2="1090.72" y2="850.86"/><line class="cls-12" x1="1072.62" y1="808.4" x2="1108.82" y2="808.4"/><line class="cls-12" x1="1072.62" y1="830.4" x2="1108.82" y2="830.4"/><circle class="cls-5" cx="1112.94" cy="821.07" r="2.12"/><rect class="cls-13" x="1134.42" y="764.76" width="38.08" height="52.78"/><line class="cls-9" x1="1131.94" y1="782.56" x2="1174.99" y2="782.56"/><rect class="cls-3" x="1195.42" y="764.76" width="38.08" height="52.78"/><line class="cls-9" x1="1192.94" y1="782.56" x2="1235.99" y2="782.56"/><rect class="cls-3" x="1254.42" y="764.76" width="38.08" height="52.78"/><line class="cls-9" x1="1251.94" y1="782.56" x2="1294.99" y2="782.56"/><rect class="cls-3" x="1134.42" y="696.26" width="38.08" height="52.78"/><line class="cls-9" x1="1131.94" y1="714.06" x2="1174.99" y2="714.06"/><rect class="cls-3" x="1195.42" y="696.26" width="38.08" height="52.78"/><line class="cls-9" x1="1192.94" y1="714.06" x2="1235.99" y2="714.06"/><rect class="cls-3" x="1071.68" y="696.26" width="38.08" height="52.78"/><line class="cls-9" x1="1069.2" y1="714.06" x2="1112.24" y2="714.06"/><rect class="cls-13" x="1254.42" y="696.26" width="38.08" height="52.78"/><line class="cls-9" x1="1251.94" y1="714.06" x2="1294.99" y2="714.06"/><path class="cls-4" d="M1277.43,910.21V893.74a54,54,0,0,0-107.92,0v16.47Z"/><path class="cls-6" d="M1182,901.48a54,54,0,0,1,75.81-49.34,54,54,0,0,0-88.33,41.6v16.47H1182Z"/><rect class="cls-4" x="1264.88" y="400.43" width="47.63" height="128.15"/><rect class="cls-4" x="1007.28" y="538.87" width="311.81" height="10.68"/><rect class="cls-6" x="1068.4" y="528.19" width="321.11" height="10.68"/><rect class="cls-4" x="1002.87" y="528.19" width="321.11" height="10.68"/><rect class="cls-4" x="1007.28" y="671.26" width="311.81" height="10.68"/><polygon class="cls-5" points="1312.52 681.95 1013.85 681.95 1013.85 688.72 1312.52 681.95"/><polygon class="cls-5" points="1312.52 549.56 1013.85 549.56 1013.85 555.33 1312.52 549.56"/><polygon class="cls-5" points="1319.09 538.87 1007.28 538.87 1007.28 544.65 1319.09 538.87"/><polygon class="cls-5" points="1319.09 671.26 1007.28 671.26 1007.28 677.04 1319.09 671.26"/><polygon class="cls-5" points="1323.97 528.19 1002.87 528.19 1002.87 533.97 1323.97 528.19"/><polygon class="cls-5" points="1013.79 440.34 1059.18 440.34 1013.85 445.43 1013.79 440.34"/><polygon class="cls-5" points="1059.62 383.63 1105.01 383.63 1059.68 388.73 1059.62 383.63"/><polygon class="cls-5" points="1104.57 326.93 1149.95 326.93 1104.63 332.02 1104.57 326.93"/><rect class="cls-4" x="1261.31" y="396.68" width="54.78" height="7.5"/><rect class="cls-4" x="1296.02" y="312.77" width="11.37" height="4.33"/><line class="cls-4" x1="1301.7" y1="312.77" x2="1301.7" y2="305.18"/><circle class="cls-4" cx="1301.7" cy="305.18" r="3.02"/><line class="cls-4" x1="1269.63" y1="404.18" x2="1269.63" y2="408.17"/><line class="cls-4" x1="1277.38" y1="404.18" x2="1277.38" y2="408.17"/><line class="cls-4" x1="1285.13" y1="404.18" x2="1285.13" y2="408.17"/><line class="cls-4" x1="1292.88" y1="404.18" x2="1292.88" y2="408.17"/><line class="cls-4" x1="1300.63" y1="404.18" x2="1300.63" y2="408.17"/><line class="cls-4" x1="1308.38" y1="404.18" x2="1308.38" y2="408.17"/><path class="cls-3" d="M1288.7,419.55h0a4,4,0,0,1,4,4v30.68a0,0,0,0,1,0,0h-8a0,0,0,0,1,0,0V423.55a4,4,0,0,1,4-4Z"/><line class="cls-4" x1="1282.7" y1="454.23" x2="1294.7" y2="454.23"/><rect class="cls-14" x="1021.08" y="559.93" width="16.56" height="7.38"/><rect class="cls-14" x="1030.45" y="569.84" width="16.56" height="7.38"/><rect class="cls-14" x="1031.97" y="653.9" width="16.56" height="7.38"/><rect class="cls-14" x="1109.76" y="630.1" width="16.56" height="7.38"/><rect class="cls-14" x="1119.66" y="641.85" width="16.56" height="7.38"/><rect class="cls-14" x="1187.86" y="560.29" width="16.56" height="7.38"/><rect class="cls-14" x="1217.9" y="653.9" width="16.56" height="7.38"/><rect class="cls-14" x="1034.07" y="706.69" width="16.56" height="7.38"/><rect class="cls-14" x="1027.68" y="719.79" width="16.56" height="7.38"/><rect class="cls-14" x="1106.78" y="761.13" width="16.56" height="7.38"/><rect class="cls-14" x="1030.45" y="836.09" width="16.56" height="7.38"/><rect class="cls-14" x="1134.42" y="823.19" width="16.56" height="7.38"/><rect class="cls-14" x="1142.71" y="836.09" width="16.56" height="7.38"/><rect class="cls-14" x="1227.71" y="872.21" width="16.56" height="7.38"/><rect class="cls-14" x="1213.2" y="882.02" width="16.56" height="7.38"/><rect class="cls-14" x="1271.49" y="847.17" width="16.56" height="7.38"/><rect class="cls-14" x="1284.22" y="828.71" width="16.56" height="7.38"/><rect class="cls-14" x="1229.22" y="686.65" width="16.56" height="7.38"/><rect class="cls-14" x="1286.42" y="558.48" width="16.56" height="7.38"/><rect class="cls-14" x="1044.71" y="510.49" width="16.56" height="7.38"/><rect class="cls-14" x="1030.77" y="499.24" width="16.56" height="7.38"/><rect class="cls-14" x="1065" y="468.74" width="16.56" height="7.38"/><rect class="cls-14" x="1115.68" y="419.55" width="16.56" height="7.38"/><rect class="cls-14" x="1172.04" y="482.57" width="16.56" height="7.38"/><rect class="cls-14" x="1178.78" y="468.74" width="16.56" height="7.38"/><rect class="cls-14" x="1164.22" y="439.2" width="16.56" height="7.38"/><rect class="cls-14" x="1110.7" y="404.48" width="16.56" height="7.38"/><rect class="cls-14" x="1213.2" y="514.09" width="16.56" height="7.38"/><rect class="cls-14" x="1281.6" y="510.41" width="16.56" height="7.38"/><rect class="cls-14" x="1273.32" y="497.41" width="16.56" height="7.38"/><rect class="cls-14" x="1288.7" y="460.82" width="16.56" height="7.38"/><circle class="cls-5" cx="928.98" cy="717.39" r="8"/><rect class="cls-8" x="943.34" y="717.39" width="60.14" height="70.54"/><line class="cls-9" x1="1027.68" y1="717.39" x2="928.98" y2="717.39"/><path class="cls-3" d="M987.37,735.23l1,4.18-3.05,2.8c-.37-1.18-.54-2.52-.93-3.91Z"/><path class="cls-3" d="M975.7,737c-.72,1.22-1.24,2.47-2.06,3.68l-2-3.72,2-3.75C974.38,734.54,975.07,735.75,975.7,737Z"/><path class="cls-3" d="M962.1,742.3l-3-2.89c.28-1.36.56-2.7.93-4l2.94,2.9C962.76,739.6,962.42,741,962.1,742.3Z"/><path class="cls-3" d="M952.46,743.76c0,1.22.15,2.37.1,3.55-1.26-1.84-2.44-3.71-3.68-5.55A34.2,34.2,0,0,1,952.46,743.76Z"/><path class="cls-3" d="M998.87,741.58c-.59,1.09-1.42,2-2,3.06-.43.72-.88,1.43-1.32,2.15a.88.88,0,0,1-.34.36l.19-3.64a35.46,35.46,0,0,1,3.52-1.93Z"/><polygon class="cls-3" points="998.87 741.58 998.87 741.59 998.88 741.57 998.87 741.58"/><path class="cls-3" d="M982.19,766.56a16.33,16.33,0,0,1-3.18,1.08,23.53,23.53,0,0,1-9.38.24c-2.29-.41-4.57-.93-6.29-2.71a12,12,0,0,0-3.26,2.33c-.37.23-.13.45,0,.67a.26.26,0,0,0,.13.25h0a.57.57,0,0,0,.25.39l.1.13a.15.15,0,0,0,.13.16.48.48,0,0,0,.24.28l0,0,0,0,.11.14h0l.12.12h0a.16.16,0,0,0,.13.12h0a1.84,1.84,0,0,0,.7.57s0,.06.07,0a.2.2,0,0,0,.18.12c0,.11.13.14.24.16s.08.09.15.09a.88.88,0,0,0,.5.29c0,.07.08.09.15.09h0a.28.28,0,0,0,.25.13h0a.29.29,0,0,0,.26.13h0a.29.29,0,0,0,.26.13l0,0h0a.21.21,0,0,0,.2.1l0,0h.05a7.1,7.1,0,0,0,2,.75.31.31,0,0,0,.26.1,18.76,18.76,0,0,0,5.57.9h.39a12.57,12.57,0,0,0,1.94,0,2.14,2.14,0,0,0,.91-.07,12.08,12.08,0,0,0,2.33-.19.33.33,0,0,0,.26-.07,3,3,0,0,0,1.26-.27h0a10.57,10.57,0,0,0,2.92-.92c2.21-.85,4.2-2,5.24-4.21a11.66,11.66,0,0,0-3.55-2.56A5.5,5.5,0,0,1,982.19,766.56Z"/><path class="cls-3" d="M961.13,750.4a.59.59,0,0,0-.32.3l0,0a1.94,1.94,0,0,0,.07,2.4h0a.91.91,0,0,0,.53.52h0a1.84,1.84,0,0,0,1.92,0l.06,0c.19,0,.37-.11.61,0l1,2.66c-.22.47-.6.76-.77,1.18l-.09.07c.06.06.11,0,.14,0a13.47,13.47,0,0,1,3.08-.72c-.48-.38-1-.44-1.43-.74-.14-1-.34-1.94-.41-2.92l1.34-.44a1.41,1.41,0,0,0,.9-.77,2.08,2.08,0,0,0-.66-2.63c-.23-.29-.6-.3-.89-.43.29-1,.16-1.53-.54-2a.88.88,0,0,0-.85-.29c-.27,0-.46.24-.73.21v0h0a1.41,1.41,0,0,0-.36-.92.15.15,0,0,0-.12-.15.15.15,0,0,0-.13-.13h0c-.66-.47-1-.44-1.46.14h0c-.48.51-.22,1.11-.16,1.69-.4.14-.89.05-1.11.53a2.06,2.06,0,0,0,.47-.13,2.06,2.06,0,0,1-.47.13s0,0,0,0a1.3,1.3,0,0,0-.13,1.51h0a.48.48,0,0,0,.24.41h0c0,.22.35.24.31.49Zm.88-3v0Zm0-.13v0Zm0-.12v0Zm0-.13h0Zm.16.63,0,0,0,0Zm-.07-.16v0Zm3.64-.6Zm-1.44.12.16,0-.16,0a.09.09,0,0,1-.06,0A.09.09,0,0,0,964.24,747Zm.19,5.56a1.51,1.51,0,0,0,.49-.44.17.17,0,0,0,.13-.13.16.16,0,0,0,.13-.13.42.42,0,0,0,.28-.22h0a.35.35,0,0,0,.19-.19h0a1.76,1.76,0,0,0,.54-.48h0c.18.17-.12.3-.05.46h0a2.67,2.67,0,0,0-.41.89h0l-.38.75a10.41,10.41,0,0,1-1.43.38l-.58-.32h0a.15.15,0,0,0-.15-.12h0a.28.28,0,0,0-.23-.16,1,1,0,0,0-.53-.37.16.16,0,0,0-.14-.12c0-.12-.3-.08-.14-.27a12,12,0,0,0,1.56.31h0A1.89,1.89,0,0,0,964.43,752.56Zm-.69-6.32c0-.13,0-.26,0-.38C963.74,746,963.73,746.11,963.74,746.24Zm0-.38Zm-.12-.15Zm.13.54a.07.07,0,0,1,0,0A.07.07,0,0,0,963.74,746.25Zm0,.06s0,0,0,.05S963.75,746.33,963.75,746.31Zm0,.06a.08.08,0,0,1,0,0A.08.08,0,0,0,963.76,746.37Zm0,.06s0,0,0,0S963.78,746.45,963.78,746.43Zm0,.06s0,0,0,0S963.81,746.5,963.8,746.49Zm0,.06,0,0Zm0,.05,0,0Zm0,0,0,0Zm.11.09h0Zm-.06,0h0Zm-.48-1.11h0a8.54,8.54,0,0,0-1.43.12A8.54,8.54,0,0,1,963.48,745.59Z"/><path class="cls-3" d="M966,763.36a30.72,30.72,0,0,1,13.59-.46,15.45,15.45,0,0,1,7.58,3.51.72.72,0,0,0,.42.24,2.81,2.81,0,0,0-.8-1.45,10.08,10.08,0,0,0-3.69-2.21,26.17,26.17,0,0,0-10.41-1.59,24.51,24.51,0,0,0-8.87,1.84,9,9,0,0,0-3.14,2,2,2,0,0,0-.69,1.35c.27,0,.4-.23.56-.36A14.68,14.68,0,0,1,966,763.36Z"/><path class="cls-3" d="M992,751.87a1.39,1.39,0,0,0-1.75-.15c-.59.41-.53,1-.45,1.69-.72-.08-1.34,0-1.64.68a1.57,1.57,0,0,0,0,1.37.25.25,0,0,0,.12.27.15.15,0,0,0,.09.16h0l.12.14h0l.12.12h0a.15.15,0,0,0,.15.1.16.16,0,0,0,.15.11.14.14,0,0,0,.14.11h0a1,1,0,0,0,.47.32h0c.14.22.44.25.59.57-.27.77-.41,1.63-.74,2.42a5,5,0,0,0-1.33.28,4.49,4.49,0,0,1,1.34.87c.37-1.21.76-2.36,1.23-3.59-.39,0-.38-.33-.47-.6a5.14,5.14,0,0,0-.56-1.35s0-.06,0-.07l0-.31a12.58,12.58,0,0,1,1.39,1.5c.79-2,1.69-3.8,2.58-5.69C992.58,750.69,992.26,751.26,992,751.87Z"/><path class="cls-3" d="M957.92,756.8c.1,0,.2-.06.24-.17a1.92,1.92,0,0,0,1.28-2,1.25,1.25,0,0,0-1.38-1.29c-.14,0-.3.12-.42-.06a1.35,1.35,0,0,0-2.18-1.48c-.54-.93-.81-1.1-1.49-.94.89,1.84,1.76,3.69,2.56,5.62a10.81,10.81,0,0,1,1.33-1.44v.3a2.05,2.05,0,0,0-.36.86h0c-.28.36-.12,1-.65,1.18.46,1.17.83,2.33,1.23,3.57a3.7,3.7,0,0,1,1.3-.94,10.29,10.29,0,0,0-1.34-.28,20.86,20.86,0,0,1-.69-2.48C957.53,757.05,957.79,757,957.92,756.8Z"/><path class="cls-3" d="M980.31,752.61h0c.47.32,1.05.33,1.6.62l-.43,2.87c-.44.33-1,.36-1.39.76a11.34,11.34,0,0,1,3.27.84l-1-1.32,1.1-2.74a7,7,0,0,1,1.13.23,1.63,1.63,0,0,0,1.72-.42h0a.83.83,0,0,0,.32-.44.25.25,0,0,0,.13-.27s0,0,0-.07a1.75,1.75,0,0,0-.41-2.14.15.15,0,0,0-.14-.12c0-.3.41-.34.42-.63a.13.13,0,0,0,.09-.15v0a1.23,1.23,0,0,0,0-1.35s0,0,0-.06a.23.23,0,0,0-.14-.25h0l0,0,0,0a.13.13,0,0,0-.12-.14c-.23-.39-.69-.23-1-.43a2.19,2.19,0,0,0,.15-.94,1.12,1.12,0,0,0-.64-1.1.9.9,0,0,0-1.09.25.16.16,0,0,0-.14.13.14.14,0,0,0-.11.15c-.28.25-.27.64-.45,1-.51-.22-1-.46-1.51.06a.56.56,0,0,0-.39.4h0a1.63,1.63,0,0,0-.13,1.69,1.36,1.36,0,0,0-.91.38.16.16,0,0,0-.14.12.17.17,0,0,0-.13.13,1.33,1.33,0,0,0-.49.8A1.77,1.77,0,0,0,980.31,752.61Zm4.84-5.2a.31.31,0,0,1,.06-.13.31.31,0,0,0-.06.13Zm.16.25-.09-.09Zm.24.09h0Zm.06,0h0Zm.06,0h0Zm.07,0h0Zm.46,4.4h0a.3.3,0,0,0,0,.08A.3.3,0,0,1,986.2,752.08Zm.35-4.28Zm-3.07-1v0Zm-1,0h0Zm.77.22,0,0Zm-.09,0,0,0Zm-.09,0-.06,0Zm-.1,0,0,0Zm-.1,0-.05,0Zm-.09,0h0Zm-.1,0h0Zm-.1,0h0Zm-.2,0h0Zm-.61.09h0l.21,0-.21,0Zm.51-.09h0Zm-.1,0-.1,0Zm-.1,0h0Zm-.69.46Zm-.21,3.76,0-.06,1.07.92.71.64c.84-.07,1.6-.4,2.42-.44l-.24.25a4.09,4.09,0,0,1-.3.21.3.3,0,0,0-.23.16.16.16,0,0,0-.15.12h0l-.9.56a6.75,6.75,0,0,1-1.45-.33l-.46-.86a.91.91,0,0,0-.25-.53c0-.1,0-.2-.11-.26a.14.14,0,0,0,0-.11.2.2,0,0,0-.09-.21S981.14,751.06,981.14,751Z"/><path class="cls-3" d="M970.59,752.09a1.06,1.06,0,0,0,.87.33c.45,0,.9.05,1.39.08l.34,3-1.15.95a13.85,13.85,0,0,1,3.28.08c-.35-.48-.88-.66-1.17-1.09.13-1,.17-1.94.36-2.9l1.32-.06a1.62,1.62,0,0,0,1.27-.67,2.13,2.13,0,0,0-.14-2.66h0a.15.15,0,0,0-.14-.13.46.46,0,0,0-.39-.26s0,.06,0,.09,0-.06,0-.09-.14-.14-.13-.26l0-.05,0,.05a1.41,1.41,0,0,0,.14-1.82c-.29-.77-.94-.74-1.58-.67-.08-.41,0-.82-.24-1.14a.41.41,0,0,0-.26-.39h0c-.55-.46-.63-.47-1.18-.14h0c-.7.38-.68,1-.64,1.69h-.26c-1.26-.31-1.89,1.11-1.55,2,.08.21.19.41.28.61a2,2,0,0,0-1.15,1.69.65.65,0,0,0,0,.39A1.68,1.68,0,0,0,970.59,752.09Zm5.89-3.2,0,0Zm.24.08h0Zm-.19,0,0,0Zm.05,0h0Zm.07,0h0Zm.14,0h0Zm-.32-.1a.08.08,0,0,1,0,0A.08.08,0,0,0,976.47,748.87Zm-.25-.5,0,0,0,0Zm.2-.66v0Zm0,.1v0Zm0,.11v0Zm0,.09a.06.06,0,0,0,0,0A.06.06,0,0,1,976.37,748Zm0,.1s0,0,0,0S976.33,748.13,976.34,748.11Zm-.06.13v0Zm.15-.62Zm0-1h0Zm-.61-.39Zm-.05,0Zm0,0h0Zm-.27-.07h0Zm-.69,0,0,0Zm0-.06s0,0,0-.05S974.73,746.07,974.74,746.09Zm0-.08s0,0,0,0S974.69,746,974.7,746Zm0-.09s0,0,0,0S974.66,745.91,974.67,745.92Zm0-.07a.64.64,0,0,0,0-.07A.64.64,0,0,1,974.65,745.85Zm0-.09s0,0,0-.06S974.63,745.74,974.63,745.76Zm0-.08c0-.29,0-.58,0-.86h0C974.65,745.1,974.59,745.39,974.62,745.68Zm-.26-1.25h0v0Zm0,.07v0Zm0,.08h0Zm-.39-.18a2.65,2.65,0,0,0-.79-.11A2.65,2.65,0,0,1,974,744.4Zm-1.08.61a5.33,5.33,0,0,0-.35,1h0A5.33,5.33,0,0,1,972.89,745Zm-.74,5.78h0a.29.29,0,0,0,.26.13h0a.29.29,0,0,0,.26.13,4.15,4.15,0,0,0,1,.55,3.08,3.08,0,0,0,.78-.42h0a.3.3,0,0,0,.26-.13,1.72,1.72,0,0,0,.67-.35h0a.35.35,0,0,0,.28-.15.07.07,0,0,0,.09,0c.05,0,.1.05.1.12a1.91,1.91,0,0,0-.53.64h0c-.36.28-.56.71-.93,1H973l-.4-.39h0a.19.19,0,0,0-.12-.14.15.15,0,0,0-.1-.14v0c0-.09-.08-.17-.18-.2s0-.12-.11-.13a.19.19,0,0,0-.12-.15.32.32,0,0,0-.17-.22h0a.13.13,0,0,0-.12-.13l-.11-.14C971.77,750.52,971.93,750.8,972.15,750.79Z"/><line class="cls-9" x1="88.9" y1="910.95" x2="1830.9" y2="910.95"/><path class="cls-12" d="M1266.25,808.57c0-33.46,19.34-36.27,21.26-66.93,1.77-28.3,0-53.31,31.58-53.31s29.81,25,31.58,53.31c1.92,30.66,21.26,33.47,21.26,66.93C1371.93,880.45,1266.25,880.45,1266.25,808.57Z"/><line class="cls-9" x1="1319.09" y1="730.85" x2="1319.09" y2="910.95"/><line class="cls-9" x1="1319.09" y1="839.97" x2="1351.79" y2="807.27"/><line class="cls-9" x1="1319.09" y1="802.76" x2="1298.01" y2="781.68"/><line class="cls-9" x1="1319.09" y1="829.38" x2="1327.56" y2="820.91"/><line class="cls-9" x1="1319.09" y1="748.01" x2="1313.93" y2="742.85"/><path class="cls-6" d="M1716,911c-10.66-13.15-29.65-21.93-49.87-21.93a73.91,73.91,0,0,0-25.39,4.59c-10.28-14.28-30.19-24-51.45-24-29.07,0-57.38,18.16-60.46,41.34Z"/><line class="cls-4" x1="1533.61" y1="556.21" x2="1542.06" y2="571.83"/><line class="cls-4" x1="1504.01" y1="556.21" x2="1495.56" y2="571.83"/><path class="cls-11" d="M1499,519.23h39.65a0,0,0,0,1,0,0V543a19.82,19.82,0,0,1-19.82,19.82h0A19.82,19.82,0,0,1,1499,543V519.23A0,0,0,0,1,1499,519.23Z"/><polygon class="cls-12" points="1496.51 519.23 1541.07 519.23 1518.7 500.75 1496.51 519.23"/><line class="cls-4" x1="1496.51" y1="527.75" x2="1541.07" y2="527.75"/><line class="cls-4" x1="1499.51" y1="554.04" x2="1538.07" y2="554.04"/><rect class="cls-4" x="1348.46" y="591.88" width="203.36" height="319.07"/><rect class="cls-4" x="1344.55" y="581.3" width="211.19" height="10.58"/><rect class="cls-6" x="1551.82" y="591.88" width="48.39" height="319.07"/><rect class="cls-6" x="1555.74" y="581.3" width="48.39" height="10.58"/><rect class="cls-6" x="1561.26" y="570.72" width="48.39" height="10.58"/><rect class="cls-4" x="1339.02" y="570.72" width="222.24" height="10.58"/><rect class="cls-13" x="1376.53" y="626.47" width="58.43" height="58.43"/><line class="cls-9" x1="1405.74" y1="624.17" x2="1405.74" y2="687.21"/><line class="cls-9" x1="1437.26" y1="655.69" x2="1374.22" y2="655.69"/><rect class="cls-3" x="1466.67" y="626.47" width="58.43" height="58.43"/><line class="cls-9" x1="1495.89" y1="624.17" x2="1495.89" y2="687.21"/><line class="cls-9" x1="1527.41" y1="655.69" x2="1464.37" y2="655.69"/><rect class="cls-3" x="1376.53" y="712.78" width="58.43" height="58.43"/><line class="cls-9" x1="1405.74" y1="710.47" x2="1405.74" y2="773.52"/><line class="cls-9" x1="1437.26" y1="741.99" x2="1374.22" y2="741.99"/><rect class="cls-3" x="1366.53" y="823.93" width="88.43" height="58.43"/><line class="cls-9" x1="1410.74" y1="821.62" x2="1410.74" y2="884.67"/><line class="cls-9" x1="1457.26" y1="853.15" x2="1364.22" y2="853.15"/><rect class="cls-13" x="1466.67" y="712.78" width="58.43" height="58.43"/><line class="cls-9" x1="1495.89" y1="710.47" x2="1495.89" y2="773.52"/><line class="cls-9" x1="1527.41" y1="741.99" x2="1464.37" y2="741.99"/><line class="cls-9" x1="1376.53" y1="591.88" x2="1376.53" y2="599.37"/><line class="cls-9" x1="1412.66" y1="591.88" x2="1412.66" y2="599.37"/><line class="cls-9" x1="1448.8" y1="591.88" x2="1448.8" y2="599.37"/><line class="cls-9" x1="1484.93" y1="591.88" x2="1484.93" y2="599.37"/><line class="cls-9" x1="1521.07" y1="591.88" x2="1521.07" y2="599.37"/><rect class="cls-9" x="1456.53" y="901.14" width="76.98" height="9.8"/><rect class="cls-9" x="1468.07" y="891.34" width="65.45" height="9.8"/><rect class="cls-9" x="1478.65" y="881.54" width="54.87" height="9.8"/><rect class="cls-6" x="1507.28" y="901.14" width="34.6" height="9.8"/><rect class="cls-6" x="1518.81" y="891.34" width="23.07" height="9.8"/><rect class="cls-6" x="1529.39" y="881.54" width="12.48" height="9.8"/><path class="cls-12" d="M1511.29,790.72h0a27.65,27.65,0,0,1,27.65,27.65v63.17a0,0,0,0,1,0,0h-55.31a0,0,0,0,1,0,0V818.37A27.65,27.65,0,0,1,1511.29,790.72Z"/><path class="cls-13" d="M1511.29,801.4h0a18.1,18.1,0,0,1,18.1,18.1V871.2a0,0,0,0,1,0,0h-36.21a0,0,0,0,1,0,0V819.5A18.1,18.1,0,0,1,1511.29,801.4Z"/><polygon class="cls-11" points="1335.67 844.59 1335.67 830.9 1365.03 808.88 1468.07 808.88 1468.07 844.59 1335.67 844.59"/><polyline class="cls-9" points="1446.81 808.88 1417.44 830.9 1417.44 844.59"/><polyline class="cls-9" points="1425.54 808.88 1396.18 830.9 1396.18 844.59"/><polyline class="cls-9" points="1404.28 808.88 1374.92 830.9 1374.92 844.59"/><polyline class="cls-9" points="1383.02 808.88 1353.66 830.9 1353.66 844.59"/><polygon class="cls-6" points="1468.07 808.88 1438.7 830.9 1438.7 844.59 1468.07 844.59 1468.07 808.88"/><polygon class="cls-5" points="1344.55 581.3 1555.73 581.3 1344.55 584.91 1344.55 581.3"/><polygon class="cls-5" points="1348.46 591.88 1551.82 591.88 1348.46 595.49 1348.46 591.88"/><polygon class="cls-5" points="1339.02 570.72 1561.26 570.72 1339.02 574.33 1339.02 570.72"/><line class="cls-12" x1="1511.29" y1="801.4" x2="1511.29" y2="871.2"/><line class="cls-12" x1="1493.19" y1="828.74" x2="1529.39" y2="828.74"/><line class="cls-12" x1="1493.19" y1="850.74" x2="1529.39" y2="850.74"/><circle class="cls-5" cx="1533.51" cy="841.41" r="2.12"/><rect class="cls-14" x="1361.08" y="612.76" width="6.28" height="6.28"/><rect class="cls-14" x="1353.66" y="626.47" width="6.28" height="6.28"/><rect class="cls-14" x="1361.08" y="638.57" width="6.28" height="6.28"/><rect class="cls-14" x="1361.08" y="684.07" width="6.28" height="6.28"/><rect class="cls-14" x="1438.7" y="697.91" width="6.28" height="6.28"/><rect class="cls-14" x="1528.25" y="670.47" width="6.28" height="6.28"/><rect class="cls-14" x="1535.63" y="701.84" width="6.28" height="6.28"/><rect class="cls-14" x="1533.51" y="715.81" width="6.28" height="6.28"/><rect class="cls-14" x="1428.98" y="893.1" width="6.28" height="6.28"/><rect class="cls-14" x="1438.7" y="888.2" width="6.28" height="6.28"/><rect class="cls-14" x="1354.8" y="872.38" width="6.28" height="6.28"/><rect class="cls-14" x="1443.66" y="680.93" width="6.28" height="6.28"/><rect class="cls-14" x="1386.46" y="787.58" width="6.28" height="6.28"/><rect class="cls-14" x="1396.18" y="778.09" width="6.28" height="6.28"/><rect class="cls-14" x="1419.26" y="794.14" width="6.28" height="6.28"/><path class="cls-12" d="M804.57,911c3.7-27.3,32.51-48.55,64-48.55,24,0,44.72,12.29,54.74,30.19a52.81,52.81,0,0,1,25.56-6.75A50.28,50.28,0,0,1,992.19,911Z"/><line class="cls-9" x1="1630.41" y1="910.95" x2="1630.41" y2="804.95"/><polygon class="cls-12" points="1633.99 804.95 1626.83 804.95 1616.51 777.62 1644.31 777.62 1633.99 804.95"/><line class="cls-9" x1="1614.79" y1="777.62" x2="1646.03" y2="777.62"/><line class="cls-9" x1="1625.11" y1="804.95" x2="1635.71" y2="804.95"/><polygon class="cls-11" points="1644.31 777.62 1616.51 777.62 1625.11 766.36 1635.71 766.36 1644.31 777.62"/><line class="cls-9" x1="1623.39" y1="766.36" x2="1637.43" y2="766.36"/><path class="cls-4" d="M1630.41,761.5h0a3.33,3.33,0,0,1,3.33,3.33v1.53a0,0,0,0,1,0,0h-6.66a0,0,0,0,1,0,0v-1.53a3.33,3.33,0,0,1,3.33-3.33Z"/><line class="cls-9" x1="1630.41" y1="775.9" x2="1630.41" y2="804.95"/><line class="cls-9" x1="1619.17" y1="789.82" x2="1641.65" y2="789.82"/><path class="cls-8" d="M546,531.67c25.56,12.43,51.13-12.43,76.69,0v-51.8c-25.56-12.43-51.13,12.44-76.69,0Z"/><path class="cls-3" d="M598.34,485.51c.35,1.44.65,2.71,1,4.05-1,1.07-2,2.15-3,3.26-.37-1.11-.54-2.42-.92-3.74C596.28,487.94,597.25,486.78,598.34,485.51Z"/><path class="cls-3" d="M586.67,489.7c-.72,1.39-1.24,2.77-2,4.17l-2-3.22c.66-1.39,1.32-2.75,2-4.24C585.35,487.53,586,488.57,586.67,489.7Z"/><path class="cls-3" d="M573.07,498c-1-.8-2-1.58-3-2.39.29-1.4.57-2.79.93-4.15,1,.8,1.93,1.58,2.94,2.39C573.73,495.22,573.39,496.62,573.07,498Z"/><path class="cls-3" d="M563.43,500.56c0,1.22.15,2.37.1,3.55-1.25-1.81-2.44-3.69-3.68-5.6C561.1,499.14,562.23,499.88,563.43,500.56Z"/><path class="cls-3" d="M609.84,491.35c-.59,1-1.42,1.91-2.05,2.95-.43.71-.88,1.41-1.32,2.13a.88.88,0,0,1-.34.36c.06-1.23.12-2.42.19-3.64a20.83,20.83,0,0,1,3.52-1.79Z"/><path class="cls-3" d="M609.84,491.35h0v0Z"/><path class="cls-3" d="M593.16,517.77a24.14,24.14,0,0,1-3.18,1.76A26.48,26.48,0,0,1,580.6,522c-2.29.14-4.57.12-6.29-1.34a16.69,16.69,0,0,0-3.25,2.9c-.38.29-.14.47,0,.67a.22.22,0,0,0,.14.23h0a.49.49,0,0,0,.25.34l.1.12c0,.08,0,.13.13.14a.41.41,0,0,0,.24.24l0,0,0,0,.11.11,0,0,.12.09h0a.13.13,0,0,0,.14.09h0a1.49,1.49,0,0,0,.69.45s0,0,.07,0a.15.15,0,0,0,.18.09c0,.1.14.12.24.12s.08.08.15.06a.7.7,0,0,0,.5.2c0,.06.08.07.16.06h0a.2.2,0,0,0,.25.08h0a.2.2,0,0,0,.25.08h0a.21.21,0,0,0,.25.08l0,0h0a.17.17,0,0,0,.2.06l0,0h0a5.53,5.53,0,0,0,2,.33.29.29,0,0,0,.26.05,17.39,17.39,0,0,0,5.57-.41l.4-.09a12.28,12.28,0,0,0,1.93-.46,2.55,2.55,0,0,0,.91-.29,13.82,13.82,0,0,0,2.34-.75.42.42,0,0,0,.26-.12,3.68,3.68,0,0,0,1.25-.56h0a14.12,14.12,0,0,0,2.92-1.55c2.21-1.3,4.2-2.73,5.24-5.13a8.73,8.73,0,0,0-3.55-2A7.61,7.61,0,0,1,593.16,517.77Z"/><path class="cls-3" d="M572.1,506.31a.73.73,0,0,0-.32.35l0,0a1.93,1.93,0,0,0,.07,2.4h0a.75.75,0,0,0,.53.43h0c.64.37,1.28,0,1.93-.33h.05c.19,0,.37-.19.61-.14l1.05,2.45c-.22.51-.6.88-.77,1.34l-.09.09c.06,0,.11,0,.14-.06a18.35,18.35,0,0,1,3.08-1.38c-.48-.27-1-.21-1.43-.43-.14-.95-.34-1.87-.41-2.83l1.34-.73a1.91,1.91,0,0,0,.9-1,1.81,1.81,0,0,0-.66-2.48c-.23-.23-.59-.16-.89-.23.3-1.07.16-1.56-.53-1.92a.78.78,0,0,0-.86-.11c-.27.07-.46.34-.73.35v0h0a1.15,1.15,0,0,0-.36-.85.11.11,0,0,0-.11-.12.12.12,0,0,0-.14-.1h0c-.66-.35-1-.25-1.46.41h0c-.48.6-.22,1.15-.16,1.72-.4.21-.89.2-1.11.72a2.18,2.18,0,0,0,.47-.21,2.18,2.18,0,0,1-.47.21,0,0,0,0,0,0,.06,1.32,1.32,0,0,0-.12,1.53h0a.4.4,0,0,0,.25.37h0c0,.21.35.18.31.44Zm.89-3.17v0Zm0-.12v0Zm0-.12v0Zm0-.12h0Zm.15.6a0,0,0,0,1,0,0v0Zm-.07-.16a.06.06,0,0,1,0,0A.06.06,0,0,0,573,503.22Zm3.65-1.31h0Zm-1.45.41a.35.35,0,0,0,.16-.08.35.35,0,0,1-.16.08l-.06,0Zm.19,5.53a2.2,2.2,0,0,0,.49-.54.2.2,0,0,0,.13-.16.18.18,0,0,0,.13-.16.55.55,0,0,0,.28-.28h0a.5.5,0,0,0,.2-.23h0a2.58,2.58,0,0,0,.54-.6h0c.18.14-.12.33,0,.48h0a3.58,3.58,0,0,0-.41,1h0c-.12.27-.25.54-.38.84a9.64,9.64,0,0,1-1.43.66l-.58-.2h0a.12.12,0,0,0-.14-.09h0c0-.09-.13-.11-.23-.12a.85.85,0,0,0-.53-.27.12.12,0,0,0-.14-.09c0-.13-.3,0-.13-.25a8.89,8.89,0,0,0,1.55,0l0,0A1.67,1.67,0,0,0,575.4,507.85Zm-.68-6.19c0-.12,0-.25,0-.37C574.71,501.41,574.7,501.54,574.72,501.66Zm0-.37Zm-.12-.12Zm.14.5v0Zm0,.07v0Zm0,.06v0Zm0,.05,0,0Zm0,.06,0,0Zm0,0s0,0,0,0S574.81,502,574.8,502Zm0,0,0,0Zm0,0,0,0Zm.11.07h0Zm-.06,0h0Zm-.48-1h0a10.91,10.91,0,0,0-1.43.4A10.91,10.91,0,0,1,574.45,501.06Z"/><path class="cls-3" d="M576.93,518.33a34.51,34.51,0,0,1,13.59-3.66,11.8,11.8,0,0,1,7.59,2.06.58.58,0,0,0,.41.17,2.24,2.24,0,0,0-.8-1.33A7.61,7.61,0,0,0,594,514a23,23,0,0,0-10.41.79,33.49,33.49,0,0,0-8.87,3.85,12.37,12.37,0,0,0-3.14,2.58,2.4,2.4,0,0,0-.68,1.45c.26-.07.39-.28.55-.44A21,21,0,0,1,576.93,518.33Z"/><path class="cls-3" d="M602.92,501.64a1.35,1.35,0,0,0-1.74,0,1.68,1.68,0,0,0-.46,1.74,1.51,1.51,0,0,0-1.64.88,1.57,1.57,0,0,0,0,1.37.23.23,0,0,0,.12.25c0,.07,0,.13.1.15h0l.11.12v0l.12.1h0a.15.15,0,0,0,.15.08.14.14,0,0,0,.15.09.12.12,0,0,0,.14.09h0a.91.91,0,0,0,.47.26h0c.14.2.44.2.59.5-.27.8-.41,1.68-.74,2.5a5.35,5.35,0,0,0-1.33.45,3.73,3.73,0,0,1,1.34.7c.37-1.25.77-2.45,1.23-3.72-.38,0-.38-.29-.47-.55a4.25,4.25,0,0,0-.56-1.29s0-.06,0-.07l0-.31a10.44,10.44,0,0,1,1.39,1.36c.79-2,1.69-3.93,2.58-5.86C603.55,500.42,603.23,501,602.92,501.64Z"/><path class="cls-3" d="M568.89,513.18a.41.41,0,0,0,.25-.2,2.25,2.25,0,0,0,1.27-2.14,1.08,1.08,0,0,0-1.38-1.1c-.14,0-.29.16-.42,0,.12-.6.13-1.19-.42-1.53a1.48,1.48,0,0,0-1.76.28c-.54-.89-.81-1-1.49-.84.89,1.79,1.76,3.57,2.56,5.42a13.08,13.08,0,0,1,1.34-1.59v.3a2.21,2.21,0,0,0-.37.9h0c-.28.4-.12,1-.65,1.25.46,1.12.83,2.24,1.23,3.43a4.59,4.59,0,0,1,1.3-1.12,11.9,11.9,0,0,0-1.34-.1,18.71,18.71,0,0,1-.69-2.4C568.5,513.48,568.76,513.4,568.89,513.18Z"/><path class="cls-3" d="M591.28,504.21h0a14.13,14.13,0,0,0,1.61.28c-.15,1-.3,2-.44,3-.43.42-1,.57-1.38,1.06a9.65,9.65,0,0,1,3.26.16l-1-1.13,1.09-3a7,7,0,0,1,1.13,0,1.85,1.85,0,0,0,1.72-.71l0,0a.9.9,0,0,0,.32-.49.28.28,0,0,0,.13-.28s0,0,0-.07a1.62,1.62,0,0,0-.41-2.08.12.12,0,0,0-.14-.1c0-.3.41-.4.42-.7a.14.14,0,0,0,.09-.16v0a1.24,1.24,0,0,0,0-1.36s0,0,0-.05a.2.2,0,0,0-.13-.23h0c0-.08,0-.11-.12-.11-.23-.36-.69-.12-1-.27a2.49,2.49,0,0,0,.16-1,.94.94,0,0,0-.65-1,1,1,0,0,0-1.09.45,1.16,1.16,0,0,0-.25.32c-.28.31-.27.7-.45,1.05-.51-.12-1-.25-1.5.36a.74.74,0,0,0-.39.48h0a1.73,1.73,0,0,0-.13,1.72,1.7,1.7,0,0,0-.91.58.2.2,0,0,0-.14.15.23.23,0,0,0-.13.16,1.7,1.7,0,0,0-.49.91C590.22,503.19,590.52,504,591.28,504.21Zm4.84-6.16a.47.47,0,0,1,.06-.15.47.47,0,0,0-.06.15Zm.16.22a.31.31,0,0,1-.09-.07A.31.31,0,0,0,596.28,498.27Zm.24.05v0Zm.06-.05h0Zm.07,0h0Zm.06,0h0Zm.46,4.32h0a.25.25,0,0,1,0,.07Zm.35-4.33Zm-3.06-.5,0,0Zm-1.05.23-.08,0Zm.77.07h0Zm-.09,0-.05,0Zm-.09,0h0Zm-.1,0h0Zm-.09,0h0Zm-.1,0h0Zm-.1,0h0Zm-.1,0h0Zm-.2,0-.08,0Zm-.6.22h0l.2-.09-.2.09Zm.5-.2-.09,0Zm-.1,0-.09,0Zm-.1,0-.09,0Zm-.69.6Zm-.21,3.81,0-.06,1.07.7.71.49c.84-.23,1.61-.7,2.42-.88l-.24.28a.21.21,0,0,0-.15.14.19.19,0,0,0-.14.12.42.42,0,0,0-.24.21.19.19,0,0,0-.15.14h0l-.9.73a6.4,6.4,0,0,1-1.45,0l-.46-.76a.71.71,0,0,0-.25-.48c0-.1,0-.2-.1-.24a.13.13,0,0,0-.06-.1c0-.09,0-.15-.09-.18S592.11,502.48,592.11,502.46Z"/><path class="cls-3" d="M581.56,506c.22.24.55.17.87.12s.9-.17,1.39-.26c.12,1,.23,1.92.35,2.87L583,510a14.85,14.85,0,0,1,3.28-.72c-.35-.39-.88-.45-1.17-.8.13-1,.17-2,.36-3l1.32-.38a2.12,2.12,0,0,0,1.27-1,2.06,2.06,0,0,0-.14-2.63h0c0-.07-.06-.11-.13-.1a.38.38,0,0,0-.4-.17s0,.07,0,.09,0-.05,0-.09-.14-.1-.13-.22l0,0,0,0c.45-.68.58-1.32.14-1.85-.29-.7-.94-.52-1.58-.3-.07-.39,0-.82-.24-1.08a.32.32,0,0,0-.26-.33h0c-.54-.32-.63-.31-1.18.15h0a1.88,1.88,0,0,0-.64,1.85,1.32,1.32,0,0,1-.26.05,1.84,1.84,0,0,0-1.55,2.37c.08.19.19.37.28.54a2.67,2.67,0,0,0-1.15,2,.74.74,0,0,0,0,.39A1.31,1.31,0,0,0,581.56,506Zm5.89-4.63,0,0Zm.24,0h0Zm-.19,0h0Zm0,0h0Zm.07,0h0Zm.14,0h0Zm-.32,0,0-.05Zm-.25-.45,0,0,0,0Zm.2-.7v0Zm0,.1v0Zm0,.11v0Zm0,.1a.07.07,0,0,0,0,.05A.07.07,0,0,1,587.34,500.52Zm0,.11,0,.05Zm-.06.14v0A0,0,0,0,0,587.25,500.77Zm.15-.65Zm0-1h0Zm-.61-.25Zm0,0Zm0,0h0Zm-.27,0-.16,0Zm-.69.2v0Zm0-.05a.05.05,0,0,0,0,0S585.7,499,585.71,499Zm0-.07s0,0,0-.05S585.67,498.9,585.67,498.92Zm0-.08s0,0,0,0S585.63,498.83,585.64,498.84Zm0-.07,0-.06Zm0-.08s0,0,0-.06S585.6,498.67,585.6,498.69Zm0-.08c0-.28,0-.59,0-.86h0C585.62,498,585.56,498.33,585.59,498.61Zm-.26-1.19h0v0Zm0,.08v0Zm0,.08h0Zm-.39-.09a2.39,2.39,0,0,0-.79.08A2.39,2.39,0,0,1,584.94,497.49Zm-1.08.87a6.92,6.92,0,0,0-.35,1.06h0A6.92,6.92,0,0,1,583.86,498.36Zm-.74,6h0a.21.21,0,0,0,.26.06h0a.22.22,0,0,0,.26.07,3,3,0,0,0,1,.3,3.9,3.9,0,0,0,.78-.61h0a.41.41,0,0,0,.26-.19,2.37,2.37,0,0,0,.67-.52h0a.42.42,0,0,0,.28-.21.1.1,0,0,0,.09-.05s.1,0,.1.1a2.67,2.67,0,0,0-.53.76h0c-.36.37-.56.84-.92,1.26l-1.46.35-.41-.28h0a.12.12,0,0,0-.12-.11c0-.07,0-.11-.1-.12h0c0-.08-.08-.16-.18-.16s0-.11-.11-.11a.12.12,0,0,0-.12-.12.21.21,0,0,0-.17-.17h0a.1.1,0,0,0-.11-.11l-.12-.11C582.74,504.14,582.9,504.39,583.12,504.32Z"/><polygon class="cls-6" points="533.81 579.17 289.47 700.57 289.47 700.57 289.47 780.5 289.47 789.08 289.47 910.95 778.16 910.95 778.16 789.08 778.16 780.5 778.16 700.57 533.81 579.17"/><polygon class="cls-6" points="492.16 691.75 292.77 691.75 283.47 691.75 283.47 682.4 532.63 561.42 534.44 561.42 622.51 561.33 622.51 638.83 492.16 691.75"/><polyline class="cls-6" points="533.26 580.17 288.91 701.57 279.47 701.57 279.47 692.07 532.62 569.26 534.45 569.26 787.6 692.07 787.6 701.57 778.16 701.57 533.81 580.17"/><polygon class="cls-10" points="622.7 579.17 378.36 700.57 378.36 700.57 378.36 780.5 378.36 789.08 378.36 910.95 867.05 910.95 867.05 789.08 867.05 780.5 867.05 700.57 622.7 579.17"/><rect class="cls-14" x="710.92" y="881.54" width="17.2" height="7.66"/><rect class="cls-14" x="474.28" y="746.54" width="17.2" height="7.66"/><rect class="cls-14" x="776.49" y="718.67" width="17.2" height="7.66"/><rect class="cls-14" x="760.91" y="731.95" width="17.2" height="7.66"/><rect class="cls-14" x="793.69" y="874.76" width="17.2" height="7.66"/><rect class="cls-14" x="533.54" y="679.66" width="17.2" height="7.66"/><rect class="cls-14" x="426.03" y="873.23" width="17.2" height="7.66"/><rect class="cls-14" x="435.35" y="704.3" width="17.2" height="7.66"/><rect class="cls-14" x="612.24" y="618.58" width="17.2" height="7.66"/><rect class="cls-14" x="459.36" y="693.65" width="17.2" height="7.66"/><rect class="cls-14" x="767.89" y="684.31" width="17.2" height="7.66"/><rect class="cls-14" x="546.01" y="693.41" width="17.2" height="7.66"/><rect class="cls-14" x="697.27" y="720.22" width="17.2" height="7.66"/><rect class="cls-14" x="681.87" y="701.31" width="17.2" height="7.66"/><rect class="cls-14" x="693.97" y="687.81" width="17.2" height="7.66"/><rect class="cls-14" x="413.67" y="797.99" width="17.2" height="7.66"/><rect class="cls-14" x="553.8" y="851.1" width="17.2" height="7.66"/><rect class="cls-14" x="711.35" y="769.66" width="17.2" height="7.66"/><rect class="cls-14" x="484.01" y="896.85" width="17.2" height="7.66"/><rect class="cls-14" x="505.94" y="890.03" width="17.2" height="7.66"/><rect class="cls-14" x="725.11" y="869.4" width="17.2" height="7.66"/><rect class="cls-3" x="582.22" y="791.26" width="79.86" height="119.69"/><line class="cls-9" x1="579.43" y1="810.62" x2="664.88" y2="810.62"/><line class="cls-9" x1="579.43" y1="791.26" x2="664.88" y2="791.26"/><line class="cls-9" x1="622.15" y1="810.62" x2="622.15" y2="910.95"/><rect class="cls-10" x="592.01" y="824.06" width="17.01" height="54.53"/><rect class="cls-10" x="635.35" y="824.06" width="17.01" height="54.53"/><line class="cls-9" x1="598.19" y1="810.62" x2="598.19" y2="791.26"/><line class="cls-9" x1="614.17" y1="810.62" x2="614.17" y2="791.26"/><line class="cls-9" x1="630.14" y1="810.62" x2="630.14" y2="791.26"/><line class="cls-9" x1="646.11" y1="810.62" x2="646.11" y2="791.26"/><path class="cls-12" d="M443.95,763h0a21.66,21.66,0,0,1,21.66,21.66V853a0,0,0,0,1,0,0H422.28a0,0,0,0,1,0,0V784.67A21.66,21.66,0,0,1,443.95,763Z"/><path class="cls-13" d="M443.95,771.38h0a14.18,14.18,0,0,1,14.18,14.18V844.5a0,0,0,0,1,0,0H429.76a0,0,0,0,1,0,0V785.56a14.18,14.18,0,0,1,14.18-14.18Z"/><line class="cls-12" x1="443.95" y1="771.38" x2="443.95" y2="844.5"/><line class="cls-12" x1="429.76" y1="792.79" x2="458.13" y2="792.79"/><line class="cls-12" x1="429.76" y1="810.03" x2="458.13" y2="810.03"/><line class="cls-12" x1="429.76" y1="827.26" x2="458.13" y2="827.26"/><line class="cls-12" x1="429.76" y1="844.5" x2="458.13" y2="844.5"/><line class="cls-12" x1="419.93" y1="852.96" x2="467.96" y2="852.96"/><path class="cls-12" d="M499.91,763h0a21.66,21.66,0,0,1,21.66,21.66V853a0,0,0,0,1,0,0H478.24a0,0,0,0,1,0,0V784.67A21.66,21.66,0,0,1,499.91,763Z"/><path class="cls-13" d="M499.91,771.38h0a14.18,14.18,0,0,1,14.18,14.18V844.5a0,0,0,0,1,0,0H485.73a0,0,0,0,1,0,0V785.56a14.18,14.18,0,0,1,14.18-14.18Z"/><line class="cls-12" x1="499.91" y1="771.38" x2="499.91" y2="844.5"/><line class="cls-12" x1="485.73" y1="792.79" x2="514.09" y2="792.79"/><line class="cls-12" x1="485.73" y1="810.03" x2="514.09" y2="810.03"/><line class="cls-12" x1="485.73" y1="827.26" x2="514.09" y2="827.26"/><line class="cls-12" x1="485.73" y1="844.5" x2="514.09" y2="844.5"/><line class="cls-12" x1="475.89" y1="852.96" x2="523.92" y2="852.96"/><path class="cls-12" d="M741.61,763h0a21.66,21.66,0,0,1,21.66,21.66V853a0,0,0,0,1,0,0H719.95a0,0,0,0,1,0,0V784.67A21.66,21.66,0,0,1,741.61,763Z"/><path class="cls-13" d="M741.61,771.38h0a14.18,14.18,0,0,1,14.18,14.18V844.5a0,0,0,0,1,0,0H727.43a0,0,0,0,1,0,0V785.56A14.18,14.18,0,0,1,741.61,771.38Z"/><line class="cls-12" x1="741.61" y1="771.38" x2="741.61" y2="844.5"/><line class="cls-12" x1="727.43" y1="792.79" x2="755.79" y2="792.79"/><line class="cls-12" x1="727.43" y1="810.03" x2="755.79" y2="810.03"/><line class="cls-12" x1="727.43" y1="827.26" x2="755.79" y2="827.26"/><line class="cls-12" x1="727.43" y1="844.5" x2="755.79" y2="844.5"/><line class="cls-12" x1="717.6" y1="852.96" x2="765.63" y2="852.96"/><path class="cls-12" d="M797.57,763h0a21.66,21.66,0,0,1,21.66,21.66V853a0,0,0,0,1,0,0H775.91a0,0,0,0,1,0,0V784.67A21.66,21.66,0,0,1,797.57,763Z"/><path class="cls-13" d="M797.57,771.38h0a14.18,14.18,0,0,1,14.18,14.18V844.5a0,0,0,0,1,0,0H783.39a0,0,0,0,1,0,0V785.56A14.18,14.18,0,0,1,797.57,771.38Z"/><line class="cls-12" x1="797.57" y1="771.38" x2="797.57" y2="844.5"/><line class="cls-12" x1="783.39" y1="792.79" x2="811.76" y2="792.79"/><line class="cls-12" x1="783.39" y1="810.03" x2="811.76" y2="810.03"/><line class="cls-12" x1="783.39" y1="827.26" x2="811.76" y2="827.26"/><line class="cls-12" x1="783.39" y1="844.5" x2="811.76" y2="844.5"/><line class="cls-12" x1="773.56" y1="852.96" x2="821.59" y2="852.96"/><rect class="cls-3" x="577.83" y="640.49" width="38.83" height="101.32"/><line class="cls-15" x1="576.64" y1="709.34" x2="617.85" y2="709.34"/><line class="cls-15" x1="576.64" y1="673.87" x2="617.85" y2="673.87"/><line class="cls-15" x1="597.25" y1="672.68" x2="597.25" y2="743.01"/><line class="cls-15" x1="597.25" y1="640.49" x2="597.25" y2="741.82"/><rect class="cls-3" x="627.83" y="640.49" width="38.83" height="101.32"/><line class="cls-15" x1="626.64" y1="709.34" x2="667.85" y2="709.34"/><line class="cls-15" x1="626.64" y1="673.87" x2="667.85" y2="673.87"/><line class="cls-15" x1="647.25" y1="672.68" x2="647.25" y2="743.01"/><line class="cls-15" x1="647.25" y1="640.49" x2="647.25" y2="741.82"/><polygon class="cls-9" points="622.7 579.17 378.36 700.57 378.36 700.57 378.36 780.5 378.36 789.08 378.36 910.95 867.05 910.95 867.05 789.08 867.05 780.5 867.05 700.57 622.7 579.17"/><rect class="cls-8" x="562.4" y="755.82" width="116.89" height="21.5"/><rect class="cls-12" x="548.37" y="751.85" width="14.03" height="152.67"/><rect class="cls-11" x="544.41" y="781.68" width="21.94" height="6.24"/><rect class="cls-11" x="544.41" y="745.61" width="21.94" height="6.24"/><rect class="cls-11" x="544.41" y="904.7" width="21.94" height="6.24"/><rect class="cls-12" x="679.28" y="751.85" width="14.03" height="152.67"/><rect class="cls-11" x="675.32" y="781.68" width="21.94" height="6.24"/><rect class="cls-11" x="675.32" y="745.61" width="21.94" height="6.24"/><rect class="cls-11" x="675.32" y="904.7" width="21.94" height="6.24"/><rect class="cls-14" x="382.25" y="698.99" width="12.02" height="7.66" transform="translate(842.84 40.97) rotate(63.4)"/><rect class="cls-14" x="405.37" y="687.41" width="12.02" height="7.66" transform="translate(845.26 13.89) rotate(63.4)"/><rect class="cls-14" x="428.5" y="675.83" width="12.02" height="7.66" transform="translate(847.68 -13.18) rotate(63.4)"/><rect class="cls-14" x="451.62" y="664.25" width="12.02" height="7.66" transform="translate(850.09 -40.25) rotate(63.4)"/><rect class="cls-14" x="474.84" y="652.86" width="12.02" height="7.66" transform="translate(852.73 -67.31) rotate(63.4)"/><rect class="cls-14" x="497.97" y="641.28" width="12.02" height="7.66" transform="translate(855.15 -94.38) rotate(63.4)"/><rect class="cls-14" x="521.1" y="629.7" width="12.02" height="7.66" transform="translate(857.56 -121.46) rotate(63.4)"/><rect class="cls-14" x="544.3" y="618.28" width="12.02" height="7.66" transform="translate(860.17 -148.51) rotate(63.4)"/><rect class="cls-14" x="567.43" y="606.7" width="12.02" height="7.66" transform="translate(862.59 -175.59) rotate(63.4)"/><rect class="cls-14" x="590.56" y="595.12" width="12.02" height="7.66" transform="translate(865 -202.66) rotate(63.4)"/><rect class="cls-14" x="849.58" y="698.99" width="12.02" height="7.66" transform="translate(1867.12 252.48) rotate(116.6)"/><rect class="cls-14" x="826.45" y="687.41" width="12.02" height="7.66" transform="translate(1823.28 256.4) rotate(116.6)"/><rect class="cls-14" x="803.33" y="675.83" width="12.02" height="7.66" transform="translate(1779.45 260.31) rotate(116.6)"/><rect class="cls-14" x="780.2" y="664.25" width="12.02" height="7.66" transform="translate(1735.61 264.22) rotate(116.6)"/><rect class="cls-14" x="756.98" y="652.86" width="12.02" height="7.66" transform="translate(1691.8 268.49) rotate(116.6)"/><rect class="cls-14" x="733.85" y="641.28" width="12.02" height="7.66" transform="translate(1647.97 272.4) rotate(116.6)"/><rect class="cls-14" x="710.73" y="629.7" width="12.02" height="7.66" transform="translate(1604.13 276.31) rotate(116.6)"/><rect class="cls-14" x="687.52" y="618.28" width="12.02" height="7.66" transform="translate(1560.32 280.53) rotate(116.6)"/><rect class="cls-14" x="664.39" y="606.7" width="12.02" height="7.66" transform="translate(1516.49 284.45) rotate(116.6)"/><rect class="cls-14" x="641.27" y="595.12" width="12.02" height="7.66" transform="translate(1472.65 288.36) rotate(116.6)"/><line class="cls-15" x1="622.61" y1="562.95" x2="622.61" y2="474.12"/><path class="cls-3" d="M412.91,620c-.53-2.2.21-4.42.42-6.61a9.19,9.19,0,0,0-.8-5.09,6.24,6.24,0,0,0-4.3-3.05c-2.37-.6-4.78-1.08-7.17-1.62-3.8-.85-7.91-1.43-11.48-3.08a10.25,10.25,0,0,1-3.95-2.94,9.26,9.26,0,0,1-1.55-5.73c0-3.78.85-7.67-.52-11.34s-4.45-5.53-8.28-5.69a48.73,48.73,0,0,0-5.9.4,38.4,38.4,0,0,1-6.61,0,36.14,36.14,0,0,1-12.55-3.56c-1.62-.8-3.42-1.75-4.29-3.42s-.44-3.76.27-5.5c1.61-3.91,4.39-7.15,5.23-11.39.73-3.72,0-7.73-3-10.3-2.66-2.29-6.23-3.13-9.68-3.25-4.56-.15-9.31,1.17-13.81,0-3-.81-6.69-3.63-6-7.18.33-1.84,1.55-3.43,2.22-5.15a6.94,6.94,0,0,0,.12-5.07c-1.39-3.53-5.14-5.33-8.66-5.94-4-.69-8.1-.64-11.32-3.41a14.53,14.53,0,0,1-4.89-9.24,20.27,20.27,0,0,1,2.89-12.38c1.68-2.91,4.73-7.06,8.64-6a11.24,11.24,0,0,1,4.52,3,51.55,51.55,0,0,0,4.3,3.79,28.7,28.7,0,0,0,11,5.25c8.82,2,17.25-1.55,25.41-4.48,7.41-2.67,15.14-4.38,23.05-4a37.31,37.31,0,0,1,10.93,2.12c3.32,1.21,7.27,3.14,9.55,5.93,1.5,1.85.79,4,.2,6.07a37.44,37.44,0,0,0-1.29,6.47,34.7,34.7,0,0,0-.09,6.91,13.33,13.33,0,0,0,1.47,5.61c2.06,3.49,6.39,4.37,10,5.27a108.69,108.69,0,0,1,12.8,3.53c6.7,2.53,13.86,8.1,13.68,16-.09,3.84-1.94,7.37-3.7,10.68-1.88,3.55-3.85,7.12-4.65,11.09A25.09,25.09,0,0,0,425.7,579c1.3,4.2,3.95,7.55,6.16,11.28,2.11,3.57,3.62,8.12.85,11.78-2.25,3-5.8,4.62-8.07,7.58-2.13,2.78-3.36,6.58-1.36,9.76,1,1.63,3.62.13,2.59-1.51-2.15-3.41,1.48-7.15,3.95-9.16,2.91-2.38,6.16-4.74,7.12-8.6,1.08-4.35-.8-8.7-3.07-12.32s-4.87-7.22-5.81-11.66a21.93,21.93,0,0,1,1.05-12.44c1.45-3.77,3.73-7.15,5.35-10.84a19,19,0,0,0,1.73-11.12,18.34,18.34,0,0,0-5.42-9.51c-6.2-6.07-14.88-7.74-23-9.74a26,26,0,0,1-5.93-1.85,5.91,5.91,0,0,1-3.15-4.49,30.44,30.44,0,0,1,.86-13.58c.6-2.15,1.38-4.37.85-6.62a8.65,8.65,0,0,0-3.3-4.57A32.27,32.27,0,0,0,387.2,486c-7.39-2.5-15.45-2.46-23.06-1.12A70.51,70.51,0,0,0,352.55,488a113.65,113.65,0,0,1-13.16,4.31,24.74,24.74,0,0,1-12.84-.28,27.77,27.77,0,0,1-10.49-6.31c-2.69-2.5-5.55-5.66-9.56-5.51s-7.08,3.38-9.14,6.56c-4.37,6.78-5.82,15.92-1.17,22.94a15.35,15.35,0,0,0,8.85,6.54c3.86,1,8.5.41,11.77,3a4.24,4.24,0,0,1,1.78,4.29c-.45,1.88-1.7,3.47-2.32,5.3-1.22,3.59.48,7.19,3.33,9.44,7.16,5.67,16.29.46,24.16,3.39a7.38,7.38,0,0,1,4.81,8.63c-.76,4.3-3.68,7.62-5.26,11.59-1.52,3.81-1,7.81,2.33,10.44s7.57,4,11.51,4.93a40.18,40.18,0,0,0,13.25.86c3.46-.35,8.08-1.13,10,2.61,1.81,3.52.6,7.8.68,11.55A11.42,11.42,0,0,0,386,602c3,2.06,6.68,2.86,10.16,3.64l7.52,1.69c1.12.25,2.24.49,3.36.75a4.12,4.12,0,0,1,2.68,1.36c.95,1.35.75,3.29.52,4.82-.33,2.22-.74,4.35-.2,6.58.45,1.87,3.34,1.08,2.89-.8Z"/><path class="cls-3" d="M302.07,483.58s-11.05,8.75-6,22.79c0,0,4.17,7.72,15.31,9.38s7.74,10.44,7.22,11.51-4.23,12.67,8.68,12.41,23.82-.15,22.9,8.36-11.45,19.12-2.87,23.75,15.25,5.5,21.35,5,13.48-.68,14,6.83-1.77,16.1,6.6,18.44,19.15,3.41,20.66,5.52.94,10.09.94,10.09.36,5,3.87,5.33a89.7,89.7,0,0,0,9.5,0s-2.05-6.63,0-9.9,8.76-9,9.56-10.17,1.73-9.52-1.78-15.2-8.18-17.23-4.92-25.23S439.86,546,433,537.37,409.47,524,404.76,523.23s-8.5-7.43-7.73-15.31S402.4,491.5,384,486.58s-41.53,6.5-41.53,6.5-13.34,2.32-18.32-.34a79.76,79.76,0,0,1-11.07-7.8l-6-3.21Z"/><rect class="cls-4" x="416.14" y="622.17" width="14.92" height="42.2" transform="translate(847.2 1286.55) rotate(-180)"/><polygon class="cls-5" points="430.63 624.51 415.57 628.65 415.57 622.63 430.63 622.63 430.63 624.51"/><rect class="cls-6" x="408.11" y="622.17" width="8.02" height="42.2" transform="translate(824.25 1286.55) rotate(-180)"/><rect class="cls-7" x="401.23" y="614.46" width="28.69" height="10.57" rx="1.8" transform="translate(831.15 1239.48) rotate(-180)"/><rect class="cls-8" x="409.25" y="614.46" width="28.69" height="10.57" rx="1.8" transform="translate(847.2 1239.48) rotate(-180)"/><rect class="cls-4" x="817.47" y="622.17" width="14.92" height="42.2" transform="translate(1649.86 1286.55) rotate(-180)"/><polygon class="cls-5" points="831.97 624.51 816.91 628.65 816.91 622.63 831.97 622.63 831.97 624.51"/><rect class="cls-6" x="809.45" y="622.17" width="8.02" height="42.2" transform="translate(1626.92 1286.55) rotate(-180)"/><rect class="cls-7" x="802.56" y="614.46" width="28.69" height="10.57" rx="1.8" transform="translate(1633.82 1239.48) rotate(-180)"/><rect class="cls-8" x="810.59" y="614.46" width="28.69" height="10.57" rx="1.8" transform="translate(1649.86 1239.48) rotate(-180)"/><polyline class="cls-4" points="622.16 572.17 381.66 691.75 372.36 691.75 372.36 682.4 621.52 561.42 623.33 561.42 872.49 682.4 872.49 691.75 863.2 691.75 622.7 572.17"/><polyline class="cls-4" points="622.15 580.17 377.81 701.57 368.36 701.57 368.36 692.07 621.51 569.26 623.34 569.26 876.49 692.07 876.49 701.57 867.05 701.57 622.7 580.17"/><line class="cls-9" x1="389.59" y1="696.74" x2="392.63" y2="702.82"/><line class="cls-9" x1="412.67" y1="685.16" x2="415.72" y2="691.24"/><line class="cls-9" x1="435.75" y1="673.58" x2="438.8" y2="679.66"/><line class="cls-9" x1="458.84" y1="662" x2="461.88" y2="668.08"/><line class="cls-9" x1="481.92" y1="650.41" x2="484.97" y2="656.5"/><line class="cls-9" x1="505" y1="638.83" x2="508.05" y2="644.92"/><line class="cls-9" x1="528.09" y1="627.25" x2="531.13" y2="633.34"/><line class="cls-9" x1="551.17" y1="615.67" x2="554.22" y2="621.76"/><line class="cls-9" x1="574.25" y1="604.09" x2="577.3" y2="610.18"/><line class="cls-9" x1="597.34" y1="592.51" x2="600.38" y2="598.6"/><line class="cls-9" x1="853.96" y1="696.74" x2="850.91" y2="702.82"/><line class="cls-9" x1="830.88" y1="685.16" x2="827.83" y2="691.24"/><line class="cls-9" x1="807.79" y1="673.58" x2="804.75" y2="679.66"/><line class="cls-9" x1="784.71" y1="662" x2="781.66" y2="668.08"/><line class="cls-9" x1="761.63" y1="650.41" x2="758.58" y2="656.5"/><line class="cls-9" x1="738.54" y1="638.83" x2="735.5" y2="644.92"/><line class="cls-9" x1="715.46" y1="627.25" x2="712.41" y2="633.34"/><line class="cls-9" x1="692.38" y1="615.67" x2="689.33" y2="621.76"/><line class="cls-9" x1="669.29" y1="604.09" x2="666.25" y2="610.18"/><line class="cls-9" x1="646.21" y1="592.51" x2="643.16" y2="598.6"/><polygon class="cls-5" points="372.36 682.4 622.43 565.45 622.51 561.33 372.36 682.4"/><polygon class="cls-5" points="872.49 682.4 622.43 565.45 622.51 561.33 872.49 682.4"/><polygon class="cls-5" points="372.36 690.33 622.43 573.37 622.51 569.26 372.36 690.33"/><polygon class="cls-5" points="872.49 690.33 622.43 573.37 622.51 569.26 872.49 690.33"/><polygon class="cls-5" points="377.81 701.57 622.43 584.62 622.51 580.5 377.81 701.57"/><polygon class="cls-5" points="867.05 701.57 622.43 584.62 622.51 580.5 867.05 701.57"/><path class="cls-6" d="M332.21,911c-2.74-16.1-24.18-28.62-47.63-28.62-17.84,0-33.26,7.25-40.72,17.79a47.62,47.62,0,0,0-19-4c-13.65,0-25.6,5.92-32.2,14.8Z"/><path class="cls-12" d="M308,822.65c0-28.86-16.68-31.28-18.34-57.72-1.53-24.41,0-46-27.24-46s-25.7,21.57-27.23,46c-1.66,26.44-18.34,28.86-18.34,57.72C216.86,884.65,308,884.65,308,822.65Z"/><line class="cls-9" x1="262.43" y1="755.62" x2="262.43" y2="910.95"/><line class="cls-9" x1="262.43" y1="849.73" x2="234.23" y2="821.53"/><line class="cls-9" x1="262.43" y1="817.64" x2="280.62" y2="799.46"/><line class="cls-9" x1="262.43" y1="840.6" x2="255.13" y2="833.3"/><line class="cls-9" x1="262.43" y1="770.42" x2="266.88" y2="765.97"/><line class="cls-9" x1="844.15" y1="906.41" x2="844.15" y2="804.95"/><polygon class="cls-12" points="847.74 804.95 840.57 804.95 830.25 777.62 858.05 777.62 847.74 804.95"/><rect class="cls-4" x="836.99" y="906.93" width="14.33" height="4.01"/><line class="cls-9" x1="828.53" y1="777.62" x2="859.77" y2="777.62"/><line class="cls-9" x1="838.85" y1="804.95" x2="849.46" y2="804.95"/><polygon class="cls-11" points="858.05 777.62 830.25 777.62 838.85 766.36 849.46 766.36 858.05 777.62"/><line class="cls-9" x1="837.13" y1="766.36" x2="851.18" y2="766.36"/><path class="cls-4" d="M844.15,761.5h0a3.33,3.33,0,0,1,3.33,3.33v1.53a0,0,0,0,1,0,0h-6.66a0,0,0,0,1,0,0v-1.53A3.33,3.33,0,0,1,844.15,761.5Z"/><line class="cls-9" x1="844.15" y1="775.9" x2="844.15" y2="804.95"/><line class="cls-9" x1="832.91" y1="789.82" x2="855.39" y2="789.82"/></g></svg>