<svg id="Layer_1" data-name="Layer 1" xmlns="http://www.w3.org/2000/svg" xmlns:xlink="http://www.w3.org/1999/xlink" viewBox="0 0 581 600"><defs><style>.cls-1,.cls-6{fill:none;}.cls-2{clip-path:url(#clip-path);}.cls-3{fill:#ffc52f;}.cls-4{fill:url(#linear-gradient);}.cls-5,.cls-7{fill:#fff;}.cls-10,.cls-6,.cls-7,.cls-8,.cls-9{stroke:#001c59;stroke-linecap:round;stroke-linejoin:round;stroke-width:2.5px;}.cls-12,.cls-8{fill:#001c59;}.cls-9{fill:#fbc877;}.cls-10{fill:#f25a84;}.cls-11{fill:#fbafd2;}.cls-13{fill:#f1b86a;}</style><clipPath id="clip-path"><rect class="cls-1" width="581" height="600"/></clipPath><linearGradient id="linear-gradient" x1="328.58" y1="439.41" x2="328.58" y2="191.25" gradientUnits="userSpaceOnUse"><stop offset="0" stop-color="#ffc52f"/><stop offset="1" stop-color="#d69a1a"/></linearGradient></defs><g class="cls-2"><rect class="cls-3" x="-69.37" y="-44.21" width="740.24" height="694.35"/><path class="cls-4" d="M-119.46,503.16V327.31h17.09v-7l4.32-.69v-15.5l3.24-5.53c.51.18,1,.21,1.14.43.81,1.82,1.55,3.67,2.53,6l-1.24,1.86,2,2.74h8.22c-.58-4.53,1.36-8.57,3.65-12.74l1.43,2.92,25.24-22.07c-.39-7.25,1.61-13.63,5.37-20.15l2.36,11.59,2.09.69v7.93l13.38,11.38c4.28,3.66,7.31,8.71,12.88,11.36v10.58H2.16A66,66,0,0,0,6.86,316c1.66,1.44,2.57,4.09,6,3.89V276.08c0-4.32-.23-8.65.06-12.94.26-3.88,1.09-7.72,1.73-11.94h9.67c5.21-3.19,2.09-6.78,1.26-10.2l4.1-5.95c4.05-2.94,9.87-.88,15.51-1.53l5.23,5.78v11.52H61.51v6.61l3,1V284c7.58,0,15,.26,22.28-.08,6.94-.32,14.11,1.57,21-1.3V271.33l2.64-.55c.12-1.59.26-3.38.42-5.41h7.88c.39-1.05.69-1.88,1.26-3.41.44,1.18.69,1.85,1.16,3.09h8.05c.1,2.11.18,3.72.27,5.63l4.14.65V284h25.2a3.39,3.39,0,0,1,.51.49,1.21,1.21,0,0,1,.23.62c0,8.11,0,16.22,0,24.86l5.47,1.9V286.9L160.68,278l7.22-9.47-9.68-12.8c5-.22,9.51,2.19,13.06,7.26l1.79-3.22h3.63v2.14l-3,1.15c1,2.05,1.93,4,2.91,6.07l-3.85,3.85c3,4.18-.46,9.51,2.51,13.89a3.77,3.77,0,0,1-1.22,5c2.53,2.89,1,6.36,1.3,9.53s.06,6.21.06,9.46l2.54.75c.7-9,.11-17.72.38-26.3,1.27-2,2.4-3.94,3.72-5.76s2.7-3.24,4.8-5.74c0,.12.08-1,.2-2.46H191c.14,1.24.28,2.37.44,3.76h13.89c.52-2.49,1.13-5.34,1.73-8.19.56-2.66-1.3-5.75,1.39-8.05l-2.3-2.78,3.88-1.19,1.58,1.32-1,2.26c.82,5.21,1.69,10.7,2.62,16.56H227l.39-3.7h3.84l.45,3.3c5.25.82,4.37,7.17,8.38,9.9V311H244c-.15.12.18,0,.18-.18,0-6.4,0-12.81,0-19.21l6.07-3.5,3.7,2.26c.32-1.81.53-3.05.79-4.55l2.42-.86c.13-1.08.26-2.21.4-3.43l2.53-1c.12-1.1.24-2.23.39-3.61h3.68c.26-1.52.49-2.84.74-4.33H270v3.43l2.93,1v3.38l3,1c.08,1,.16,2.15.26,3.6h4.27c-.51-6.47.08-12.69,3.61-18.44,3.42,10.54,1.66,21.2,2,31.73.15,4.07,0,8.14,0,12.56H293c1.37-4.9-1.07-10.3,1.45-15-.49-2.68-1-5.36-1.38-7.59l3.89-5.33c1,1.41,2.3,3.12,3.15,4.28-.37,3.19-1.56,6.16-.81,8.51,1.6,5,1.05,10.09,1.3,15.24l2.57.16V258.57l4.13-.78c.63-2.85.72-6,2-8.49,1.45-2.73,1.22-5.36,1.28-8.11.07-3,0-6,.05-10l4.46,3c-.57,1.56-1.87,3.27-1.49,4.39,2.2,6.37,1,13.6,4.87,19.36l2.27.52v22.11c2.58,1.21,3.21,0,2.72-2.32h44.41v-14.9c.94-.92,1.62-1.6,2.41-2.39l1.54,3.23,7.57-4.9v-7.45l2.5-2.5L385.5,254v5.07l6.46,4.44,3.14-1.78c.73,5.22.06,9.94.55,15.39a12.55,12.55,0,0,0,2.65-1.66c1.81-2.05,3.49-4.21,5.66-6.88,4.2,5.08,9.53,8,13,13.41v21l4.5,3c-2,3.53-2,3.53.6,6.65h15.8a2.87,2.87,0,0,0,.49-.44,1.13,1.13,0,0,0,.27-.6c0-8.6,0-17.19,0-26.52l17,2.89v-3.54l44.6,7v3.68l10.43,2.45q-.88,7-1.88,14.86h4.31V277.17l6-6.07h9.06l9.52-7.25v44.21h5.84V264.22c2-.36,2.24,1.49,3.29,2.07a24.14,24.14,0,0,1,2.83,1.85c1.12.83,2.19,1.73,3.51,2.78h9.81c1.2,2.46,2.09,5.43,6.57,4v16.65c0,5.28-.58,10.64.17,15.8s-4.53,10.27.76,15.84c.28-2.22.48-3.87.75-6.05h9.67c.09-1.41.15-2.32.2-3.18l-5.79-7.53v-7.28l5-5.14h8.15l3.66,1.81a5,5,0,0,0,.47.93c2.4,3.39,1.09,7.25,1.48,10.85l-4.23,4.23v4.94h12.48v-4.55l-5.67-7.91,2.13-7.2c3.42-3.87,8.22-3.16,13.47-3.07l4.51,6c1.35,6-1.47,10.05-5.41,13.29v3.42h14.19c.06-1.06.11-2,.16-3.06-1.88-1.68-3.83-3.4-5.57-4.94v-9.91l4.8-4.8c3.72.18,7.9-.87,12,2.06,2.37,3.29,1.64,7.53,1.57,11.66l-5.64,5.64v2.87c3,2.34,5.49-.22,8.43-1.05V303h25.19l2.47-3h15.5V283.62l11.17,8.78h4.92l13.64-5.75.8,2.15-16.29,8.37c3.56,2.93,6.27-.3,9.19-.37a61.48,61.48,0,0,0,8.76-1.35,28.49,28.49,0,0,1,9.89-.5l-2.93.83v6.67h17.09v-63c6.07-.38,12,.91,17.26-2.47,0-.35,0-.82-.1-1.8H745.2c-.08-1.14-.13-1.79-.2-2.73h21.27c-.11,2.86,1,5.45,4.55,6.13v76.68l5.79.61v187.3Z"/><path class="cls-5" d="M471.44,99.94s19.18-6.32,35.74-13.18c19.11-7.9,28.49,4.95,46.89,5.41s27.37-4.79,41.85-3.5c21.54,1.91,23.71,9,33.69,12.18Z"/><path class="cls-5" d="M-59.13,178.12s13.84-2.4,44.26-17.5,63.79,6.76,85.7,2.16,42.14-6,60.19,2.37,30.94,5.56,47.27,3.35c16.86-2.29,25.34,6,53.58,9.62Z"/><path class="cls-5" d="M82.81,70s13.35-3.21,32-11.62C143,45.67,162,57.64,176,61.1c23.09,5.69,35.42-7.29,81.12-1.12,20.55,2.77,46.42,10.07,46.42,10.07Z"/><line class="cls-6" x1="24.41" y1="550.35" x2="551.46" y2="550.35"/><path class="cls-7" d="M67.13,422.56c0-41.78,24.14-45.28,26.54-83.56,2.22-35.32,0-66.55,39.42-66.55S170.3,303.68,172.52,339c2.39,38.28,26.54,41.78,26.54,83.56C199.06,512.29,67.13,512.29,67.13,422.56Z"/><line class="cls-6" x1="133.09" y1="325.53" x2="133.09" y2="550.35"/><line class="cls-6" x1="133.09" y1="461.75" x2="173.91" y2="420.94"/><line class="cls-6" x1="133.09" y1="415.31" x2="106.78" y2="388.99"/><line class="cls-6" x1="133.09" y1="346.95" x2="126.66" y2="340.52"/><path class="cls-8" d="M294.58,550.35C307.89,534,331.6,523,356.83,523a92.12,92.12,0,0,1,31.69,5.72c12.85-17.83,37.7-30,64.23-30,36.29,0,71.63,22.66,75.48,51.59Z"/><line class="cls-9" x1="376.88" y1="107.53" x2="387.43" y2="127.03"/><line class="cls-9" x1="339.93" y1="107.53" x2="329.38" y2="127.03"/><path class="cls-10" d="M333.64,61.36h49.49a0,0,0,0,1,0,0V91.1a24.75,24.75,0,0,1-24.75,24.75h0A24.75,24.75,0,0,1,333.64,91.1V61.36a0,0,0,0,1,0,0Z"/><polygon class="cls-7" points="330.57 61.37 386.19 61.37 358.27 38.3 330.57 61.37"/><line class="cls-9" x1="330.57" y1="72" x2="386.19" y2="72"/><line class="cls-9" x1="334.32" y1="104.82" x2="382.45" y2="104.82"/><rect class="cls-9" x="145.76" y="152.05" width="253.86" height="398.3"/><rect class="cls-9" x="140.87" y="138.85" width="263.63" height="13.2"/><rect class="cls-8" x="399.62" y="152.05" width="60.41" height="398.3"/><rect class="cls-8" x="404.5" y="138.85" width="60.41" height="13.2"/><rect class="cls-8" x="411.4" y="125.65" width="60.41" height="13.2"/><rect class="cls-9" x="133.97" y="125.65" width="277.43" height="13.2"/><rect class="cls-11" x="180.79" y="195.24" width="72.94" height="72.94"/><line class="cls-6" x1="217.26" y1="192.36" x2="217.26" y2="271.06"/><line class="cls-6" x1="256.61" y1="231.71" x2="177.91" y2="231.71"/><rect class="cls-5" x="293.32" y="195.24" width="72.94" height="72.94"/><line class="cls-6" x1="329.79" y1="192.36" x2="329.79" y2="271.06"/><line class="cls-6" x1="369.14" y1="231.71" x2="290.44" y2="231.71"/><rect class="cls-5" x="180.79" y="302.97" width="72.94" height="72.94"/><line class="cls-6" x1="217.26" y1="300.09" x2="217.26" y2="378.8"/><line class="cls-6" x1="256.61" y1="339.44" x2="177.91" y2="339.44"/><rect class="cls-5" x="168.31" y="441.73" width="110.39" height="72.94"/><line class="cls-6" x1="223.5" y1="438.85" x2="223.5" y2="517.55"/><line class="cls-6" x1="281.58" y1="478.2" x2="165.43" y2="478.2"/><rect class="cls-11" x="293.32" y="302.97" width="72.94" height="72.94"/><line class="cls-6" x1="329.79" y1="300.09" x2="329.79" y2="378.8"/><line class="cls-6" x1="369.14" y1="339.44" x2="290.44" y2="339.44"/><line class="cls-6" x1="180.79" y1="152.05" x2="180.79" y2="161.41"/><line class="cls-6" x1="225.9" y1="152.05" x2="225.9" y2="161.41"/><line class="cls-6" x1="271.01" y1="152.05" x2="271.01" y2="161.41"/><line class="cls-6" x1="316.12" y1="152.05" x2="316.12" y2="161.41"/><line class="cls-6" x1="361.23" y1="152.05" x2="361.23" y2="161.41"/><rect class="cls-6" x="280.67" y="538.12" width="96.1" height="12.24"/><rect class="cls-6" x="295.06" y="525.88" width="81.7" height="12.24"/><rect class="cls-6" x="308.27" y="513.64" width="68.49" height="12.24"/><rect class="cls-8" x="344.01" y="538.12" width="43.19" height="12.24"/><rect class="cls-8" x="358.41" y="525.88" width="28.79" height="12.24"/><rect class="cls-8" x="371.62" y="513.64" width="15.58" height="12.24"/><path class="cls-7" d="M349,400.27h0a34.52,34.52,0,0,1,34.52,34.52v78.85a0,0,0,0,1,0,0h-69a0,0,0,0,1,0,0V434.79A34.52,34.52,0,0,1,349,400.27Z"/><path class="cls-11" d="M349,413.61h0a22.6,22.6,0,0,1,22.6,22.6v64.53a0,0,0,0,1,0,0h-45.2a0,0,0,0,1,0,0V436.2A22.6,22.6,0,0,1,349,413.61Z"/><polygon class="cls-10" points="129.79 467.52 129.79 450.43 166.44 422.94 295.06 422.94 295.06 467.52 129.79 467.52"/><polyline class="cls-6" points="268.52 422.94 231.87 450.43 231.87 467.52"/><polyline class="cls-6" points="241.98 422.94 205.33 450.43 205.33 467.52"/><polyline class="cls-6" points="215.44 422.94 178.79 450.43 178.79 467.52"/><polyline class="cls-6" points="188.9 422.94 152.25 450.43 152.25 467.52"/><polygon class="cls-8" points="295.06 422.94 258.41 450.43 258.41 467.52 295.06 467.52 295.06 422.94"/><polygon class="cls-12" points="140.87 138.85 404.5 138.85 140.87 143.35 140.87 138.85"/><polygon class="cls-12" points="145.76 152.05 399.62 152.05 145.76 156.56 145.76 152.05"/><polygon class="cls-12" points="133.97 125.65 411.4 125.65 133.97 130.15 133.97 125.65"/><line class="cls-7" x1="349.02" y1="413.61" x2="349.02" y2="500.73"/><line class="cls-7" x1="326.42" y1="447.74" x2="371.62" y2="447.74"/><line class="cls-7" x1="326.42" y1="475.2" x2="371.62" y2="475.2"/><circle class="cls-12" cx="376.76" cy="463.55" r="2.65"/><rect class="cls-13" x="161.51" y="178.12" width="7.84" height="7.84"/><rect class="cls-13" x="152.25" y="195.24" width="7.84" height="7.84"/><rect class="cls-13" x="161.51" y="210.34" width="7.84" height="7.84"/><rect class="cls-13" x="161.51" y="267.14" width="7.84" height="7.84"/><rect class="cls-13" x="258.41" y="284.41" width="7.84" height="7.84"/><rect class="cls-13" x="370.2" y="250.16" width="7.84" height="7.84"/><rect class="cls-13" x="379.41" y="289.32" width="7.84" height="7.84"/><rect class="cls-13" x="376.76" y="306.75" width="7.84" height="7.84"/><rect class="cls-13" x="246.27" y="528.08" width="7.84" height="7.84"/><rect class="cls-13" x="258.41" y="521.96" width="7.84" height="7.84"/><rect class="cls-13" x="153.67" y="502.21" width="7.84" height="7.84"/><rect class="cls-13" x="264.6" y="263.22" width="7.84" height="7.84"/><rect class="cls-13" x="193.19" y="396.35" width="7.84" height="7.84"/><rect class="cls-13" x="205.33" y="384.51" width="7.84" height="7.84"/><rect class="cls-13" x="234.14" y="404.54" width="7.84" height="7.84"/><path class="cls-7" d="M42.53,550.35c3-22.44,26.72-39.92,52.65-39.92,19.71,0,36.77,10.11,45,24.83a43.4,43.4,0,0,1,21-5.55,41.37,41.37,0,0,1,35.59,20.64Z"/><line class="cls-6" x1="497.72" y1="550.35" x2="497.72" y2="418.04"/><polygon class="cls-7" points="502.19 418.04 493.25 418.04 480.37 383.91 515.07 383.91 502.19 418.04"/><line class="cls-6" x1="478.22" y1="383.91" x2="517.22" y2="383.91"/><line class="cls-6" x1="491.1" y1="418.04" x2="504.34" y2="418.04"/><polygon class="cls-10" points="515.07 383.91 480.37 383.91 491.1 369.86 504.34 369.86 515.07 383.91"/><line class="cls-6" x1="488.96" y1="369.86" x2="506.49" y2="369.86"/><path class="cls-9" d="M497.72,363.79h0a4.16,4.16,0,0,1,4.16,4.16v1.91a0,0,0,0,1,0,0h-8.32a0,0,0,0,1,0,0V368a4.16,4.16,0,0,1,4.16-4.16Z"/><line class="cls-6" x1="497.72" y1="381.77" x2="497.72" y2="418.04"/><line class="cls-6" x1="483.69" y1="399.15" x2="511.75" y2="399.15"/></g></svg>