<svg xmlns="http://www.w3.org/2000/svg" xmlns:xlink="http://www.w3.org/1999/xlink" viewBox="0 0 503 300"><defs><style>.cls-1,.cls-11{fill:none;}.cls-2{clip-path:url(#clip-path);}.cls-17,.cls-3{fill:#ffc52f;}.cls-4{fill:url(#linear-gradient);}.cls-14,.cls-5{fill:#fff;}.cls-12,.cls-6{fill:#fbc877;}.cls-11,.cls-13,.cls-14,.cls-17,.cls-6,.cls-8{stroke:#001c59;stroke-linecap:round;stroke-linejoin:round;stroke-width:0.75px;}.cls-7,.cls-8{fill:#001c59;}.cls-9{fill:#d84876;}.cls-10,.cls-13{fill:#f25a84;}.cls-15{fill:#fbafd2;}.cls-16{fill:#f1b86a;}</style><clipPath id="clip-path"><rect class="cls-1" width="503" height="300"/></clipPath><linearGradient id="linear-gradient" x1="289.8" y1="254.62" x2="289.8" y2="75.35" gradientUnits="userSpaceOnUse"><stop offset="0" stop-color="#ffc52f"/><stop offset="1" stop-color="#d69a1a"/></linearGradient></defs><g id="Layer_1" data-name="Layer 1"><g class="cls-2"><rect class="cls-3" x="-92.01" y="-40.48" width="763.65" height="404.64"/><path class="cls-4" d="M-33.86,300.68v-127h12.35v-5.07l3.12-.5v-11.2l2.34-4c.36.13.75.15.82.31.59,1.31,1.12,2.65,1.83,4.35l-.9,1.35,1.44,2h5.93c-.42-3.27,1-6.19,2.64-9.2l1,2.11L15,137.83c-.28-5.24,1.16-9.85,3.88-14.56.58,2.87,1.1,5.43,1.7,8.38l1.51.49v5.73c3.22,2.74,6.45,5.47,9.67,8.22s5.28,6.3,9.3,8.21v7.64H54c1,1.08,2.11,2.41,3.39,3.52s1.86,3,4.34,2.81V136.63c0-3.11-.16-6.24.05-9.34.19-2.8.79-5.58,1.25-8.63h7c3.76-2.3,1.5-4.9.91-7.36l3-4.31c2.93-2.12,7.13-.63,11.2-1.1l3.78,4.17v8.33h8v4.77l2.14.73v18.43c5.48,0,10.8.19,16.09-.06,5-.23,10.2,1.14,15.2-.94V133.2l1.91-.39c.09-1.15.19-2.44.3-3.91h5.7c.28-.76.5-1.36.9-2.47l.85,2.24h5.81l.2,4.07,3,.47v9.11h18.21a2.49,2.49,0,0,1,.37.35.86.86,0,0,1,.17.45c0,5.86,0,11.72,0,18l3.95,1.37v-18L168.52,138l5.21-6.84-7-9.25c3.63-.16,6.88,1.58,9.44,5.24l1.29-2.32h2.63v1.54l-2.18.83c.71,1.49,1.39,2.9,2.11,4.39l-2.79,2.78c2.19,3-.33,6.87,1.81,10a2.71,2.71,0,0,1-.87,3.61c1.83,2.1.74,4.6.93,6.89s0,4.48,0,6.83l1.84.54c.51-6.47.09-12.79.28-19,.91-1.43,1.73-2.85,2.69-4.16s1.94-2.35,3.46-4.15c0,.09.06-.73.15-1.77h2.84c.11.89.2,1.71.32,2.71h10c.38-1.8.82-3.86,1.25-5.91s-.93-4.16,1-5.82l-1.66-2,2.8-.86,1.14,1-.74,1.62c.59,3.77,1.22,7.73,1.89,12h10l.28-2.67h2.77l.32,2.38c3.8.59,3.17,5.18,6.06,7.15v19.15h2.85c-.11.09.13,0,.13-.13q0-6.93,0-13.88l4.38-2.52,2.67,1.63.58-3.29,1.74-.62c.09-.78.19-1.6.3-2.48l1.82-.69c.09-.79.17-1.61.28-2.61h2.66c.19-1.1.35-2.05.54-3.13h3.71v2.48l2.12.73v2.44l2.15.74c.05.74.11,1.56.19,2.6h3.08c-.37-4.67.06-9.16,2.61-13.31,2.47,7.61,1.2,15.31,1.47,22.92.11,2.94,0,5.88,0,9.07h4.93c1-3.54-.77-7.44,1.05-10.82-.35-1.93-.71-3.86-1-5.48l2.81-3.84,2.28,3.09c-.27,2.3-1.13,4.44-.59,6.14,1.16,3.62.76,7.29.94,11l1.85.12V124l3-.57c.46-2.06.52-4.33,1.47-6.13,1-2,.88-3.88.92-5.86.05-2.18,0-4.36,0-7.21l3.22,2.15c-.41,1.13-1.35,2.36-1.07,3.17,1.59,4.6.7,9.83,3.51,14l1.64.38v16c1.87.86,2.32,0,2-1.68h32.08V127.43l1.74-1.72c.34.7.66,1.38,1.11,2.33l5.47-3.54v-5.38l1.81-1.81,2.6,3.39v3.66l4.67,3.21,2.27-1.28c.53,3.76,0,7.18.4,11.11a8.73,8.73,0,0,0,1.91-1.2c1.31-1.48,2.52-3,4.09-5,3,3.67,6.88,5.77,9.37,9.69V156.1l3.25,2.18c-1.45,2.55-1.46,2.55.44,4.8h11.42a2.43,2.43,0,0,0,.35-.31.86.86,0,0,0,.19-.44c0-6.21,0-12.42,0-19.15l12.28,2.08V142.7l32.22,5.08v2.66l7.54,1.77q-.65,5-1.36,10.73h3.11V137.42c1.64-1.65,2.82-2.86,4.33-4.39H434l6.88-5.23v31.94h4.22V128.07c1.43-.26,1.62,1.07,2.38,1.49a17.06,17.06,0,0,1,2,1.34c.81.6,1.58,1.25,2.53,2h7.09c.87,1.77,1.52,3.92,4.75,2.89v12c0,3.81-.42,7.68.12,11.41s-3.27,7.42.55,11.44c.2-1.6.35-2.8.54-4.37h7c.07-1,.11-1.68.15-2.3L468,158.58v-5.26l3.6-3.71h5.89l2.65,1.31a3.52,3.52,0,0,0,.33.67c1.74,2.45.79,5.24,1.07,7.84l-3.05,3v3.58h9v-3.3l-4.09-5.71c.57-2,1-3.49,1.54-5.2,2.47-2.8,5.93-2.29,9.73-2.22l3.25,4.31c1,4.33-1.05,7.26-3.91,9.6V166h10.26c0-.77.08-1.44.12-2.22-1.37-1.2-2.78-2.45-4-3.56v-7.16l3.46-3.47c2.69.13,5.72-.62,8.7,1.49,1.71,2.38,1.18,5.44,1.13,8.43l-4.07,4.07v2.07c2.17,1.69,4-.16,6.09-.76v-8.85h18.19l1.79-2.16h11.2V142.08l8.06,6.35h3.56l9.85-4.16.58,1.55-11.77,6.05c2.58,2.12,4.53-.21,6.64-.26a46,46,0,0,0,6.33-1,20.82,20.82,0,0,1,7.15-.37l-2.12.6v4.83h12.35V110.17c4.38-.28,8.67.65,12.46-1.78,0-.26,0-.6-.07-1.3h-9.11c-.06-.83-.09-1.3-.14-2H606c-.08,2.06.71,3.94,3.29,4.43v55.39l4.18.44V300.68Z"/><path class="cls-5" d="M141.52,103.67s5.76-1.89,10.73-4c5.73-2.37,8.55,1.48,14.07,1.62s8.21-1.44,12.56-1c6.46.58,7.11,2.69,10.11,3.66Z"/><path class="cls-5" d="M44.56,70.88a115.06,115.06,0,0,0,19.25-6.32c10.92-4.59,25.85.29,30.74,2.59s10.48.72,13.36.43,12.78-.15,19.1,3.3Z"/><path class="cls-5" d="M51.91,37.81s8.63-10,21.13-5.3S85,34.09,91.28,33.58c5.39-.43,7.52,3.64,12.14,4.23Z"/><path class="cls-5" d="M412.64,57.09s4.15-.72,13.28-5.25,19.15,2,25.73.65,12.64-1.81,18.06.71,9.29,1.67,14.19,1C489,53.52,491.5,56,500,57.09Z"/><path class="cls-5" d="M455.78,36a84.84,84.84,0,0,0,24.67-6.74c12.43-5.57,20.34-1.47,26.6,2,8.62,4.76,16.16,2.34,24.46,2.65A80.43,80.43,0,0,1,547,36Z"/><path class="cls-5" d="M261.76,42.07a60,60,0,0,0,9.59-3.48c8.48-3.83,14.17-.24,18.39.8,6.93,1.71,10.63-2.19,24.34-.34a122.48,122.48,0,0,1,13.94,3Z"/><path class="cls-5" d="M-16.88,50s12.88-2.33,23-6.7,16.51,1.9,25.47,3.37,11.85-.83,19.25,0C55.79,47.21,65.4,50,65.4,50Z"/><path class="cls-5" d="M206.06,60.77c-.26-1.36.5-2.74,0-4.08s-1.73-1.45-3-1.72c-2.65-.59-7.59-.81-7.83-4.36-.16-2.26.76-5.48-2-6.52a9.11,9.11,0,0,0-3.75-.07,13.83,13.83,0,0,1-5.49-.77c-1.77-.63-3.79-1.55-3-3.79.51-1.43,1.55-2.59,1.94-4.07a4.07,4.07,0,0,0-3.17-5.24c-2.61-.6-7.06,1.23-8.7-1.67-.83-1.48.8-2.69.81-4.17a3,3,0,0,0-1.4-2.35c-1.22-.82-2.68-.77-4.06-1a4.9,4.9,0,0,1-3.78-3.39,6.75,6.75,0,0,1,.32-4.66c.63-1.51,2.15-4.08,4.16-3.15,1.2.56,2.11,1.86,3.19,2.63a10.6,10.6,0,0,0,3.9,1.76c3.17.68,6.19-.51,9.12-1.57a23.27,23.27,0,0,1,8.72-1.63,14.14,14.14,0,0,1,4.28.78,12,12,0,0,1,1.88.89c1.16.69,2.21,1.36,2,2.88s-.7,2.67-.76,4.09a6.5,6.5,0,0,0,.76,4,5.1,5.1,0,0,0,3,1.59c1.55.4,3.13.71,4.65,1.21,3.49,1.15,6.86,4,5.47,8.05-.56,1.61-1.58,3-2.23,4.61a9.37,9.37,0,0,0-.66,4.68,10.53,10.53,0,0,0,1.81,4.59c1.09,1.68,2.59,3.85,1.11,5.77s-5.12,3.49-3.49,6.45c.35.63,1.33.06,1-.57-1-1.76,1.25-3.19,2.37-4.15a4.69,4.69,0,0,0,1.88-3.09c.31-3.31-3-5.59-3.49-8.73-.63-3.79,1.94-6.25,2.93-9.63a6.51,6.51,0,0,0-2.24-6.85c-2.47-2.13-5.73-2.63-8.78-3.43a4.94,4.94,0,0,1-2.2-.91,3.77,3.77,0,0,1-.77-2.73,12.12,12.12,0,0,1,.22-2.69,23.48,23.48,0,0,0,.6-2.58c.19-2.61-3.28-4.09-5.32-4.73a17.93,17.93,0,0,0-8.43-.3c-3.24.59-6.17,2.18-9.38,2.84a9,9,0,0,1-5.7-.58,18.38,18.38,0,0,1-3.91-2.94c-2.08-1.75-4.27-1-5.74,1.13a8.25,8.25,0,0,0-1.07,8.06,6.18,6.18,0,0,0,2.27,2.61c1.47.91,3.09.7,4.68,1.18.85.26,1.92.84,1.93,1.88a5.41,5.41,0,0,1-.78,2,3.12,3.12,0,0,0,.62,3.41c2.14,2.32,5.26,1.19,8,1.4,1.74.13,3.46,1,3.42,3s-1.36,3.23-2,4.86c-1.39,3.49,2.13,5,4.94,5.76a15.85,15.85,0,0,0,5.36.35,5.07,5.07,0,0,1,2.76.16c1,.55,1.18,1.83,1.17,2.88,0,1.6-.38,3.24.53,4.69a5.43,5.43,0,0,0,3,2.06,54.62,54.62,0,0,0,5.52,1.3c.54.13,1.23.19,1.6.69a2.7,2.7,0,0,1,.15,1.84,7.05,7.05,0,0,0-.06,2.38c.13.71,1.21.41,1.08-.3Z"/><path class="cls-5" d="M164.53,9.65a7.73,7.73,0,0,0-2.24,8.54A7.89,7.89,0,0,0,168,21.7c4.17.62,2.9,3.91,2.71,4.31s-1.59,4.75,3.25,4.65,8.92-.05,8.58,3.13-4.29,7.17-1.08,8.9a13.82,13.82,0,0,0,8,1.89c2.29-.17,5-.25,5.26,2.56s-.66,6,2.47,6.91,7.18,1.28,7.75,2.07.35,3.78.35,3.78.13,1.88,1.45,2a35.5,35.5,0,0,0,3.56,0s-.77-2.49,0-3.71,3.28-3.36,3.58-3.82a7.59,7.59,0,0,0-.67-5.69c-1.31-2.13-3.06-6.45-1.84-9.45s4.76-6.21,2.17-9.43-8.8-5-10.56-5.3-3.19-2.78-2.9-5.73,2-6.16-4.89-8-15.56,2.44-15.56,2.44-5,.87-6.87-.13a29.84,29.84,0,0,1-4.15-2.92L166.4,9Z"/><path class="cls-5" d="M373.06,91.29c-.26-1.36.5-2.74,0-4.08s-1.74-1.45-2.95-1.72c-2.66-.6-7.59-.81-7.84-4.36-.15-2.26.77-5.49-2-6.53a9.06,9.06,0,0,0-3.74-.06,13.88,13.88,0,0,1-5.5-.77c-1.76-.63-3.78-1.55-3-3.8.51-1.42,1.54-2.58,1.93-4.06a4.05,4.05,0,0,0-3.16-5.24c-2.61-.6-7.06,1.23-8.7-1.67-.84-1.48.8-2.69.81-4.17a2.94,2.94,0,0,0-1.41-2.35c-1.22-.83-2.67-.77-4.06-1a4.92,4.92,0,0,1-3.78-3.38,6.75,6.75,0,0,1,.33-4.66c.63-1.51,2.15-4.08,4.15-3.15,1.21.56,2.12,1.85,3.2,2.63a10.6,10.6,0,0,0,3.9,1.76c3.16.67,6.19-.52,9.12-1.58a23.26,23.26,0,0,1,8.72-1.62,14.19,14.19,0,0,1,4.28.78,12,12,0,0,1,1.88.89c1.16.69,2.21,1.35,2,2.88s-.7,2.67-.76,4.09a6.43,6.43,0,0,0,.76,4,5.09,5.09,0,0,0,3,1.58c1.55.41,3.13.71,4.65,1.22,3.49,1.15,6.86,4,5.47,8-.56,1.62-1.58,3-2.23,4.62a9.49,9.49,0,0,0-.67,4.68,10.54,10.54,0,0,0,1.82,4.59c1.09,1.68,2.59,3.85,1.11,5.76s-5.12,3.49-3.49,6.46c.35.63,1.32.06,1-.57-1-1.76,1.25-3.19,2.37-4.16a4.65,4.65,0,0,0,1.88-3.08c.31-3.31-3-5.59-3.49-8.73-.63-3.8,1.94-6.25,2.93-9.63A6.53,6.53,0,0,0,379.36,58c-2.47-2.13-5.73-2.63-8.78-3.43a5.05,5.05,0,0,1-2.2-.91,3.77,3.77,0,0,1-.77-2.73,11.64,11.64,0,0,1,.22-2.7,25.84,25.84,0,0,0,.6-2.57c.19-2.61-3.29-4.1-5.32-4.73a17.93,17.93,0,0,0-8.43-.3c-3.24.59-6.17,2.18-9.39,2.84a9,9,0,0,1-5.69-.59A18,18,0,0,1,335.69,40c-2.08-1.75-4.27-1-5.75,1.13a8.24,8.24,0,0,0-1.06,8.06,6.11,6.11,0,0,0,2.27,2.61c1.46.91,3.09.7,4.67,1.18.86.26,1.93.84,1.94,1.88a5.48,5.48,0,0,1-.78,2,3.12,3.12,0,0,0,.62,3.41c2.14,2.31,5.26,1.19,8,1.39,1.75.14,3.47,1,3.43,3s-1.36,3.23-2,4.86c-1.38,3.49,2.14,5,4.95,5.75a15.54,15.54,0,0,0,5.35.36,5.1,5.1,0,0,1,2.77.16c1,.54,1.18,1.83,1.17,2.87,0,1.61-.38,3.25.53,4.7a5.33,5.33,0,0,0,3,2.05c1.78.6,3.69.89,5.52,1.31a2.51,2.51,0,0,1,1.6.69,2.7,2.7,0,0,1,.15,1.84,7.31,7.31,0,0,0-.07,2.38c.14.71,1.22.41,1.09-.3Z"/><path class="cls-5" d="M331.53,40.16a7.74,7.74,0,0,0-2.24,8.54A7.89,7.89,0,0,0,335,52.22c4.17.62,2.9,3.91,2.7,4.31s-1.58,4.75,3.26,4.65,8.92,0,8.58,3.13-4.3,7.17-1.08,8.9a13.88,13.88,0,0,0,8,1.89c2.29-.17,5.05-.25,5.26,2.56s-.66,6,2.47,6.91,7.18,1.27,7.74,2.06.36,3.78.36,3.78.13,1.89,1.45,2a32.35,32.35,0,0,0,3.55,0s-.76-2.48,0-3.71,3.29-3.35,3.59-3.81a7.59,7.59,0,0,0-.67-5.69c-1.31-2.13-3.06-6.46-1.84-9.45s4.75-6.21,2.17-9.43-8.8-5-10.57-5.3-3.18-2.78-2.89-5.74,2-6.15-4.89-8-15.57,2.44-15.57,2.44-5,.87-6.86-.13a30.79,30.79,0,0,1-4.15-2.92l-2.24-1.21Z"/><rect class="cls-6" x="205.2" y="60.59" width="4.24" height="12"/><polygon class="cls-7" points="205.32 61.25 209.6 62.43 209.6 60.72 205.32 60.72 205.32 61.25"/><rect class="cls-8" x="209.44" y="60.59" width="2.28" height="12"/><rect class="cls-9" x="205.52" y="58.39" width="8.16" height="3.01" rx="0.51"/><rect class="cls-10" x="203.24" y="58.39" width="8.16" height="3.01" rx="0.51"/><rect class="cls-8" x="176.21" y="75.26" width="116" height="225.42"/><rect class="cls-11" x="176.21" y="75.26" width="116" height="225.42"/><line class="cls-6" x1="175.05" y1="111.76" x2="293.38" y2="111.76"/><rect class="cls-8" x="175.05" y="71.96" width="118.33" height="3.3"/><line class="cls-6" x1="175.05" y1="148.25" x2="293.38" y2="148.25"/><line class="cls-6" x1="175.05" y1="184.75" x2="293.38" y2="184.75"/><line class="cls-6" x1="175.05" y1="221.25" x2="293.38" y2="221.25"/><line class="cls-6" x1="175.05" y1="257.75" x2="293.38" y2="257.75"/><rect class="cls-12" x="198.36" y="75.26" width="134.73" height="225.42"/><rect class="cls-11" x="198.36" y="75.26" width="134.73" height="225.42"/><path class="cls-5" d="M214.87,83.22h0a5.88,5.88,0,0,1,5.88,5.88v12.35a0,0,0,0,1,0,0H209a0,0,0,0,1,0,0V89.1A5.88,5.88,0,0,1,214.87,83.22Z"/><line class="cls-11" x1="208.46" y1="101.45" x2="221.27" y2="101.45"/><line class="cls-11" x1="208.46" y1="88.11" x2="221.27" y2="88.11"/><path class="cls-5" d="M240.3,83.22h0a5.88,5.88,0,0,1,5.88,5.88v12.35a0,0,0,0,1,0,0H234.42a0,0,0,0,1,0,0V89.1A5.88,5.88,0,0,1,240.3,83.22Z"/><line class="cls-11" x1="233.89" y1="101.45" x2="246.71" y2="101.45"/><line class="cls-11" x1="233.89" y1="88.11" x2="246.71" y2="88.11"/><path class="cls-5" d="M265.73,83.22h0a5.88,5.88,0,0,1,5.88,5.88v12.35a0,0,0,0,1,0,0H259.85a0,0,0,0,1,0,0V89.1a5.88,5.88,0,0,1,5.88-5.88Z"/><line class="cls-11" x1="259.32" y1="101.45" x2="272.14" y2="101.45"/><line class="cls-11" x1="259.32" y1="88.11" x2="272.14" y2="88.11"/><path class="cls-5" d="M291.16,83.22h0A5.88,5.88,0,0,1,297,89.1v12.35a0,0,0,0,1,0,0H285.28a0,0,0,0,1,0,0V89.1A5.88,5.88,0,0,1,291.16,83.22Z"/><line class="cls-11" x1="284.76" y1="101.45" x2="297.57" y2="101.45"/><line class="cls-11" x1="284.76" y1="88.11" x2="297.57" y2="88.11"/><line class="cls-6" x1="197.2" y1="111.76" x2="334.26" y2="111.76"/><rect class="cls-6" x="197.2" y="71.96" width="137.06" height="3.3"/><path class="cls-5" d="M214.87,119.72h0a5.88,5.88,0,0,1,5.88,5.88v12.35a0,0,0,0,1,0,0H209a0,0,0,0,1,0,0V125.59A5.88,5.88,0,0,1,214.87,119.72Z"/><line class="cls-11" x1="208.46" y1="137.94" x2="221.27" y2="137.94"/><line class="cls-11" x1="208.46" y1="124.6" x2="221.27" y2="124.6"/><path class="cls-5" d="M240.3,119.72h0a5.88,5.88,0,0,1,5.88,5.88v12.35a0,0,0,0,1,0,0H234.42a0,0,0,0,1,0,0V125.59A5.88,5.88,0,0,1,240.3,119.72Z"/><line class="cls-11" x1="233.89" y1="137.94" x2="246.71" y2="137.94"/><line class="cls-11" x1="233.89" y1="124.6" x2="246.71" y2="124.6"/><path class="cls-5" d="M265.73,119.72h0a5.88,5.88,0,0,1,5.88,5.88v12.35a0,0,0,0,1,0,0H259.85a0,0,0,0,1,0,0V125.59A5.88,5.88,0,0,1,265.73,119.72Z"/><line class="cls-11" x1="259.32" y1="137.94" x2="272.14" y2="137.94"/><line class="cls-11" x1="259.32" y1="124.6" x2="272.14" y2="124.6"/><path class="cls-5" d="M291.16,119.72h0a5.88,5.88,0,0,1,5.88,5.88v12.35a0,0,0,0,1,0,0H285.28a0,0,0,0,1,0,0V125.59A5.88,5.88,0,0,1,291.16,119.72Z"/><line class="cls-11" x1="284.76" y1="137.94" x2="297.57" y2="137.94"/><line class="cls-11" x1="284.76" y1="124.6" x2="297.57" y2="124.6"/><line class="cls-6" x1="197.2" y1="148.25" x2="334.26" y2="148.25"/><path class="cls-5" d="M214.87,156.21h0a5.88,5.88,0,0,1,5.88,5.88v12.35a0,0,0,0,1,0,0H209a0,0,0,0,1,0,0V162.09A5.88,5.88,0,0,1,214.87,156.21Z"/><line class="cls-11" x1="208.46" y1="174.44" x2="221.27" y2="174.44"/><line class="cls-11" x1="208.46" y1="161.1" x2="221.27" y2="161.1"/><path class="cls-5" d="M240.3,156.21h0a5.88,5.88,0,0,1,5.88,5.88v12.35a0,0,0,0,1,0,0H234.42a0,0,0,0,1,0,0V162.09A5.88,5.88,0,0,1,240.3,156.21Z"/><line class="cls-11" x1="233.89" y1="174.44" x2="246.71" y2="174.44"/><line class="cls-11" x1="233.89" y1="161.1" x2="246.71" y2="161.1"/><path class="cls-5" d="M265.73,156.21h0a5.88,5.88,0,0,1,5.88,5.88v12.35a0,0,0,0,1,0,0H259.85a0,0,0,0,1,0,0V162.09A5.88,5.88,0,0,1,265.73,156.21Z"/><line class="cls-11" x1="259.32" y1="174.44" x2="272.14" y2="174.44"/><line class="cls-11" x1="259.32" y1="161.1" x2="272.14" y2="161.1"/><path class="cls-5" d="M291.16,156.21h0a5.88,5.88,0,0,1,5.88,5.88v12.35a0,0,0,0,1,0,0H285.28a0,0,0,0,1,0,0V162.09A5.88,5.88,0,0,1,291.16,156.21Z"/><line class="cls-11" x1="284.76" y1="174.44" x2="297.57" y2="174.44"/><line class="cls-11" x1="284.76" y1="161.1" x2="297.57" y2="161.1"/><line class="cls-6" x1="197.2" y1="184.75" x2="334.26" y2="184.75"/><path class="cls-5" d="M214.87,192.71h0a5.88,5.88,0,0,1,5.88,5.88v12.35a0,0,0,0,1,0,0H209a0,0,0,0,1,0,0V198.59A5.88,5.88,0,0,1,214.87,192.71Z"/><line class="cls-11" x1="208.46" y1="210.94" x2="221.27" y2="210.94"/><line class="cls-11" x1="208.46" y1="197.6" x2="221.27" y2="197.6"/><path class="cls-5" d="M240.3,192.71h0a5.88,5.88,0,0,1,5.88,5.88v12.35a0,0,0,0,1,0,0H234.42a0,0,0,0,1,0,0V198.59A5.88,5.88,0,0,1,240.3,192.71Z"/><line class="cls-11" x1="233.89" y1="210.94" x2="246.71" y2="210.94"/><line class="cls-11" x1="233.89" y1="197.6" x2="246.71" y2="197.6"/><path class="cls-5" d="M265.73,192.71h0a5.88,5.88,0,0,1,5.88,5.88v12.35a0,0,0,0,1,0,0H259.85a0,0,0,0,1,0,0V198.59A5.88,5.88,0,0,1,265.73,192.71Z"/><line class="cls-11" x1="259.32" y1="210.94" x2="272.14" y2="210.94"/><line class="cls-11" x1="259.32" y1="197.6" x2="272.14" y2="197.6"/><path class="cls-5" d="M291.16,192.71h0a5.88,5.88,0,0,1,5.88,5.88v12.35a0,0,0,0,1,0,0H285.28a0,0,0,0,1,0,0V198.59a5.88,5.88,0,0,1,5.88-5.88Z"/><line class="cls-11" x1="284.76" y1="210.94" x2="297.57" y2="210.94"/><line class="cls-11" x1="284.76" y1="197.6" x2="297.57" y2="197.6"/><line class="cls-6" x1="197.2" y1="221.25" x2="334.26" y2="221.25"/><path class="cls-5" d="M214.87,229.21h0a5.88,5.88,0,0,1,5.88,5.88v12.35a0,0,0,0,1,0,0H209a0,0,0,0,1,0,0V235.09A5.88,5.88,0,0,1,214.87,229.21Z"/><line class="cls-11" x1="208.46" y1="247.44" x2="221.27" y2="247.44"/><line class="cls-11" x1="208.46" y1="234.1" x2="221.27" y2="234.1"/><path class="cls-5" d="M240.3,229.21h0a5.88,5.88,0,0,1,5.88,5.88v12.35a0,0,0,0,1,0,0H234.42a0,0,0,0,1,0,0V235.09A5.88,5.88,0,0,1,240.3,229.21Z"/><line class="cls-11" x1="233.89" y1="247.44" x2="246.71" y2="247.44"/><line class="cls-11" x1="233.89" y1="234.1" x2="246.71" y2="234.1"/><path class="cls-5" d="M265.73,229.21h0a5.88,5.88,0,0,1,5.88,5.88v12.35a0,0,0,0,1,0,0H259.85a0,0,0,0,1,0,0V235.09A5.88,5.88,0,0,1,265.73,229.21Z"/><line class="cls-11" x1="259.32" y1="247.44" x2="272.14" y2="247.44"/><line class="cls-11" x1="259.32" y1="234.1" x2="272.14" y2="234.1"/><path class="cls-5" d="M291.16,229.21h0a5.88,5.88,0,0,1,5.88,5.88v12.35a0,0,0,0,1,0,0H285.28a0,0,0,0,1,0,0V235.09A5.88,5.88,0,0,1,291.16,229.21Z"/><line class="cls-11" x1="284.76" y1="247.44" x2="297.57" y2="247.44"/><line class="cls-11" x1="284.76" y1="234.1" x2="297.57" y2="234.1"/><path class="cls-5" d="M214.87,265.8h0a5.88,5.88,0,0,1,5.88,5.88V284a0,0,0,0,1,0,0H209a0,0,0,0,1,0,0V271.68a5.88,5.88,0,0,1,5.88-5.88Z"/><line class="cls-11" x1="208.46" y1="284.03" x2="221.27" y2="284.03"/><line class="cls-11" x1="208.46" y1="270.69" x2="221.27" y2="270.69"/><path class="cls-5" d="M240.3,265.8h0a5.88,5.88,0,0,1,5.88,5.88V284a0,0,0,0,1,0,0H234.42a0,0,0,0,1,0,0V271.68A5.88,5.88,0,0,1,240.3,265.8Z"/><line class="cls-11" x1="233.89" y1="284.03" x2="246.71" y2="284.03"/><line class="cls-11" x1="233.89" y1="270.69" x2="246.71" y2="270.69"/><path class="cls-5" d="M265.73,265.8h0a5.88,5.88,0,0,1,5.88,5.88V284a0,0,0,0,1,0,0H259.85a0,0,0,0,1,0,0V271.68a5.88,5.88,0,0,1,5.88-5.88Z"/><line class="cls-11" x1="259.32" y1="284.03" x2="272.14" y2="284.03"/><line class="cls-11" x1="259.32" y1="270.69" x2="272.14" y2="270.69"/><path class="cls-5" d="M291.16,265.8h0a5.88,5.88,0,0,1,5.88,5.88V284a0,0,0,0,1,0,0H285.28a0,0,0,0,1,0,0V271.68A5.88,5.88,0,0,1,291.16,265.8Z"/><line class="cls-11" x1="284.76" y1="284.03" x2="297.57" y2="284.03"/><line class="cls-11" x1="284.76" y1="270.69" x2="297.57" y2="270.69"/><path class="cls-5" d="M316.59,83.22h0a5.88,5.88,0,0,1,5.88,5.88v12.35a0,0,0,0,1,0,0H310.72a0,0,0,0,1,0,0V89.1a5.88,5.88,0,0,1,5.88-5.88Z"/><line class="cls-11" x1="310.19" y1="101.45" x2="323" y2="101.45"/><line class="cls-11" x1="310.19" y1="88.11" x2="323" y2="88.11"/><path class="cls-5" d="M316.59,119.72h0a5.88,5.88,0,0,1,5.88,5.88v12.35a0,0,0,0,1,0,0H310.72a0,0,0,0,1,0,0V125.59a5.88,5.88,0,0,1,5.88-5.88Z"/><line class="cls-11" x1="310.19" y1="137.94" x2="323" y2="137.94"/><line class="cls-11" x1="310.19" y1="124.6" x2="323" y2="124.6"/><path class="cls-5" d="M316.59,156.21h0a5.88,5.88,0,0,1,5.88,5.88v12.35a0,0,0,0,1,0,0H310.72a0,0,0,0,1,0,0V162.09A5.88,5.88,0,0,1,316.59,156.21Z"/><line class="cls-11" x1="310.19" y1="174.44" x2="323" y2="174.44"/><line class="cls-11" x1="310.19" y1="161.1" x2="323" y2="161.1"/><path class="cls-5" d="M316.59,192.71h0a5.88,5.88,0,0,1,5.88,5.88v12.35a0,0,0,0,1,0,0H310.72a0,0,0,0,1,0,0V198.59A5.88,5.88,0,0,1,316.59,192.71Z"/><line class="cls-11" x1="310.19" y1="210.94" x2="323" y2="210.94"/><line class="cls-11" x1="310.19" y1="197.6" x2="323" y2="197.6"/><path class="cls-5" d="M316.59,229.21h0a5.88,5.88,0,0,1,5.88,5.88v12.35a0,0,0,0,1,0,0H310.72a0,0,0,0,1,0,0V235.09A5.88,5.88,0,0,1,316.59,229.21Z"/><line class="cls-11" x1="310.19" y1="247.44" x2="323" y2="247.44"/><line class="cls-11" x1="310.19" y1="234.1" x2="323" y2="234.1"/><path class="cls-5" d="M316.59,265.8h0a5.88,5.88,0,0,1,5.88,5.88V284a0,0,0,0,1,0,0H310.72a0,0,0,0,1,0,0V271.68A5.88,5.88,0,0,1,316.59,265.8Z"/><line class="cls-11" x1="310.19" y1="284.03" x2="323" y2="284.03"/><line class="cls-11" x1="310.19" y1="270.69" x2="323" y2="270.69"/><line class="cls-6" x1="197.2" y1="257.75" x2="334.26" y2="257.75"/><polygon class="cls-7" points="333.09 75.26 198.36 77.1 198.36 75.26 333.09 75.26"/><polygon class="cls-7" points="197.19 71.96 197.19 73.61 333.64 71.96 197.19 71.96"/><rect class="cls-6" x="371.66" y="92.06" width="4.24" height="12"/><polygon class="cls-7" points="371.79 92.73 376.07 93.91 376.07 92.19 371.79 92.19 371.79 92.73"/><rect class="cls-8" x="375.91" y="92.06" width="2.28" height="12"/><rect class="cls-9" x="371.99" y="89.87" width="8.16" height="3.01" rx="0.51"/><rect class="cls-10" x="369.71" y="89.87" width="8.16" height="3.01" rx="0.51"/><polygon class="cls-8" points="382.9 124.36 382.9 103.11 365.89 103.11 365.89 81.87 348.89 81.87 348.89 103.11 331.88 103.11 331.88 124.36 314.88 124.36 314.88 158.72 331.88 158.72 348.89 158.72 365.89 158.72 382.9 158.72 399.9 158.72 399.9 124.36 382.9 124.36"/><rect class="cls-8" x="333.63" y="161.28" width="111.9" height="49.6"/><rect class="cls-8" x="333.63" y="210.88" width="111.9" height="89.52"/><rect class="cls-8" x="413.45" y="109.41" width="17.85" height="48.01"/><rect class="cls-8" x="332.3" y="161.28" width="115.7" height="4"/><rect class="cls-8" x="332.3" y="210.88" width="115.7" height="4"/><rect class="cls-8" x="412.11" y="108" width="20.52" height="2.81"/><path class="cls-13" d="M404.08,108,417,77.68a.89.89,0,0,1,1.71,0L431.3,108Z"/><polygon class="cls-6" points="378.03 124.36 378.03 103.11 361.02 103.11 361.02 81.87 344.02 81.87 344.02 103.11 327.01 103.11 327.01 124.36 310.01 124.36 310.01 158.72 327.01 158.72 344.02 158.72 361.02 158.72 378.03 158.72 395.03 158.72 395.03 124.36 378.03 124.36"/><line class="cls-11" x1="342.84" y1="81.87" x2="362.2" y2="81.87"/><line class="cls-11" x1="361.02" y1="103.11" x2="379.21" y2="103.11"/><line class="cls-11" x1="378.03" y1="124.36" x2="396.21" y2="124.36"/><line class="cls-11" x1="344.02" y1="103.11" x2="325.83" y2="103.11"/><line class="cls-11" x1="327.01" y1="124.36" x2="308.83" y2="124.36"/><circle class="cls-14" cx="352.52" cy="94.75" r="4.34"/><circle class="cls-14" cx="336.09" cy="114.42" r="4.34"/><circle class="cls-14" cx="319.47" cy="133.9" r="4.34"/><circle class="cls-14" cx="385.77" cy="133.9" r="4.34"/><circle class="cls-14" cx="368.06" cy="114.42" r="4.34"/><rect class="cls-15" x="341.03" y="126.74" width="22.99" height="22.99"/><line class="cls-11" x1="352.52" y1="125.84" x2="352.52" y2="150.64"/><line class="cls-11" x1="364.92" y1="138.24" x2="340.12" y2="138.24"/><rect class="cls-6" x="310.03" y="161.28" width="111.9" height="49.6"/><rect class="cls-6" x="310.03" y="210.88" width="111.9" height="89.52"/><rect class="cls-5" x="322.46" y="177.14" width="21.89" height="21.89"/><line class="cls-11" x1="333.4" y1="176.28" x2="333.4" y2="199.9"/><line class="cls-11" x1="345.21" y1="188.09" x2="321.59" y2="188.09"/><rect class="cls-15" x="356.23" y="177.14" width="21.89" height="21.89"/><line class="cls-11" x1="367.18" y1="176.28" x2="367.18" y2="199.9"/><line class="cls-11" x1="378.99" y1="188.09" x2="355.37" y2="188.09"/><rect class="cls-5" x="390" y="177.14" width="21.89" height="21.89"/><line class="cls-11" x1="400.95" y1="176.28" x2="400.95" y2="199.9"/><line class="cls-11" x1="412.76" y1="188.09" x2="389.14" y2="188.09"/><rect class="cls-11" x="318.31" y="289.38" width="28.84" height="3.67"/><rect class="cls-11" x="322.64" y="285.71" width="24.52" height="3.67"/><rect class="cls-11" x="326.6" y="282.04" width="20.56" height="3.67"/><rect class="cls-8" x="337.33" y="289.38" width="12.96" height="3.67"/><rect class="cls-11" x="314.37" y="293.06" width="32.4" height="3.67"/><rect class="cls-8" x="333.18" y="293.06" width="17.11" height="3.67"/><rect class="cls-11" x="310.03" y="296.73" width="36.31" height="3.67"/><rect class="cls-8" x="329.25" y="296.73" width="21.04" height="3.67"/><rect class="cls-8" x="341.65" y="285.71" width="8.64" height="3.67"/><rect class="cls-8" x="345.61" y="282.04" width="4.68" height="3.67"/><path class="cls-14" d="M338.83,248h0a10.36,10.36,0,0,1,10.36,10.36V282a0,0,0,0,1,0,0H328.47a0,0,0,0,1,0,0V258.37A10.36,10.36,0,0,1,338.83,248Z"/><path class="cls-10" d="M338.83,252h0a6.78,6.78,0,0,1,6.78,6.78v19.37a0,0,0,0,1,0,0H332a0,0,0,0,1,0,0V258.8A6.78,6.78,0,0,1,338.83,252Z"/><line class="cls-14" x1="338.83" y1="252.01" x2="338.83" y2="278.16"/><line class="cls-14" x1="332.05" y1="262.26" x2="345.61" y2="262.26"/><line class="cls-14" x1="332.05" y1="270.5" x2="345.61" y2="270.5"/><circle class="cls-7" cx="347.16" cy="267" r="0.79"/><rect class="cls-15" x="355.2" y="245.91" width="14.27" height="19.77"/><line class="cls-11" x1="354.27" y1="252.58" x2="370.4" y2="252.58"/><rect class="cls-5" x="378.06" y="245.91" width="14.27" height="19.77"/><line class="cls-11" x1="377.13" y1="252.58" x2="393.26" y2="252.58"/><rect class="cls-5" x="400.16" y="245.91" width="14.27" height="19.77"/><line class="cls-11" x1="399.23" y1="252.58" x2="415.36" y2="252.58"/><rect class="cls-5" x="355.2" y="220.24" width="14.27" height="19.77"/><line class="cls-11" x1="354.27" y1="226.91" x2="370.4" y2="226.91"/><rect class="cls-5" x="378.06" y="220.24" width="14.27" height="19.77"/><line class="cls-11" x1="377.13" y1="226.91" x2="393.26" y2="226.91"/><rect class="cls-5" x="331.7" y="220.24" width="14.27" height="19.77"/><line class="cls-11" x1="330.77" y1="226.91" x2="346.89" y2="226.91"/><rect class="cls-15" x="400.16" y="220.24" width="14.27" height="19.77"/><line class="cls-11" x1="399.23" y1="226.91" x2="415.36" y2="226.91"/><path class="cls-6" d="M408.78,300.4v-6.17a20.22,20.22,0,1,0-40.43,0v6.17Z"/><path class="cls-8" d="M373,297.13a20.23,20.23,0,0,1,28.41-18.49,20.22,20.22,0,0,0-33.1,15.59v6.17H373Z"/><rect class="cls-6" x="404.08" y="109.41" width="17.85" height="48.01"/><rect class="cls-6" x="307.57" y="161.28" width="116.82" height="4"/><rect class="cls-8" x="330.47" y="157.27" width="120.31" height="4"/><rect class="cls-6" x="305.91" y="157.27" width="120.31" height="4"/><rect class="cls-6" x="307.57" y="210.88" width="116.82" height="4"/><polygon class="cls-7" points="421.93 214.88 310.03 214.88 310.03 217.42 421.93 214.88"/><polygon class="cls-7" points="421.93 165.28 310.03 165.28 310.03 167.44 421.93 165.28"/><polygon class="cls-7" points="424.39 161.28 307.57 161.28 307.57 163.44 424.39 161.28"/><polygon class="cls-7" points="424.39 210.88 307.57 210.88 307.57 213.04 424.39 210.88"/><polygon class="cls-7" points="426.22 157.27 305.91 157.27 305.91 159.44 426.22 157.27"/><polygon class="cls-7" points="310.01 124.36 327.01 124.36 310.03 126.27 310.01 124.36"/><polygon class="cls-7" points="327.18 103.11 344.18 103.11 327.2 105.02 327.18 103.11"/><polygon class="cls-7" points="344.02 81.87 361.02 81.87 344.04 83.77 344.02 81.87"/><rect class="cls-6" x="402.74" y="108" width="20.52" height="2.81"/><rect class="cls-6" x="415.75" y="76.56" width="4.26" height="1.62"/><line class="cls-6" x1="417.88" y1="76.56" x2="417.88" y2="73.72"/><circle class="cls-6" cx="417.88" cy="73.72" r="1.13"/><line class="cls-6" x1="405.86" y1="110.81" x2="405.86" y2="112.31"/><line class="cls-6" x1="408.76" y1="110.81" x2="408.76" y2="112.31"/><line class="cls-6" x1="411.67" y1="110.81" x2="411.67" y2="112.31"/><line class="cls-6" x1="414.57" y1="110.81" x2="414.57" y2="112.31"/><line class="cls-6" x1="417.47" y1="110.81" x2="417.47" y2="112.31"/><line class="cls-6" x1="420.38" y1="110.81" x2="420.38" y2="112.31"/><path class="cls-5" d="M413,116.57h0a1.5,1.5,0,0,1,1.5,1.5v11.5a0,0,0,0,1,0,0h-3a0,0,0,0,1,0,0v-11.5A1.5,1.5,0,0,1,413,116.57Z"/><line class="cls-6" x1="410.76" y1="129.56" x2="415.25" y2="129.56"/><rect class="cls-16" x="312.74" y="169.16" width="6.21" height="2.76"/><rect class="cls-16" x="316.25" y="172.88" width="6.21" height="2.76"/><rect class="cls-16" x="316.82" y="204.37" width="6.21" height="2.76"/><rect class="cls-16" x="345.96" y="195.45" width="6.21" height="2.76"/><rect class="cls-16" x="349.67" y="199.86" width="6.21" height="2.76"/><rect class="cls-16" x="375.22" y="169.3" width="6.21" height="2.76"/><rect class="cls-16" x="386.48" y="204.37" width="6.21" height="2.76"/><rect class="cls-16" x="317.6" y="224.15" width="6.21" height="2.76"/><rect class="cls-16" x="315.21" y="229.06" width="6.21" height="2.76"/><rect class="cls-16" x="344.85" y="244.55" width="6.21" height="2.76"/><rect class="cls-16" x="316.25" y="272.63" width="6.21" height="2.76"/><rect class="cls-16" x="355.2" y="267.8" width="6.21" height="2.76"/><rect class="cls-16" x="358.31" y="272.63" width="6.21" height="2.76"/><rect class="cls-16" x="390.15" y="286.17" width="6.21" height="2.76"/><rect class="cls-16" x="384.72" y="289.84" width="6.21" height="2.76"/><rect class="cls-16" x="406.56" y="276.78" width="6.21" height="2.76"/><rect class="cls-16" x="411.33" y="269.87" width="6.21" height="2.76"/><rect class="cls-16" x="390.72" y="216.64" width="6.21" height="2.76"/><rect class="cls-16" x="412.15" y="168.62" width="6.21" height="2.76"/><rect class="cls-16" x="321.59" y="150.64" width="6.21" height="2.76"/><rect class="cls-16" x="316.37" y="146.43" width="6.21" height="2.76"/><rect class="cls-16" x="329.19" y="135" width="6.21" height="2.76"/><rect class="cls-16" x="348.18" y="116.57" width="6.21" height="2.76"/><rect class="cls-16" x="369.3" y="140.18" width="6.21" height="2.76"/><rect class="cls-16" x="371.82" y="135" width="6.21" height="2.76"/><rect class="cls-16" x="366.37" y="123.93" width="6.21" height="2.76"/><rect class="cls-16" x="346.32" y="110.92" width="6.21" height="2.76"/><rect class="cls-16" x="384.72" y="151.99" width="6.21" height="2.76"/><rect class="cls-16" x="410.35" y="150.61" width="6.21" height="2.76"/><rect class="cls-16" x="407.24" y="145.74" width="6.21" height="2.76"/><rect class="cls-16" x="413.01" y="132.03" width="6.21" height="2.76"/><circle class="cls-7" cx="278.23" cy="228.16" r="3"/><rect class="cls-10" x="283.61" y="228.16" width="22.53" height="26.43"/><line class="cls-11" x1="315.21" y1="228.16" x2="278.23" y2="228.16"/><path class="cls-5" d="M300.11,234.84l.36,1.57-1.14,1.05c-.14-.44-.2-1-.35-1.47Z"/><path class="cls-5" d="M295.74,235.52c-.28.45-.47.92-.77,1.37l-.77-1.39.77-1.4C295.24,234.59,295.5,235,295.74,235.52Z"/><path class="cls-5" d="M290.64,237.49l-1.13-1.08c.11-.51.21-1,.35-1.5L291,236C290.89,236.48,290.76,237,290.64,237.49Z"/><path class="cls-5" d="M287,238c0,.46.05.89,0,1.33-.47-.69-.92-1.39-1.38-2.08A12.66,12.66,0,0,1,287,238Z"/><path class="cls-5" d="M304.42,237.22c-.22.41-.53.75-.77,1.15s-.33.53-.5.8a.31.31,0,0,1-.12.14l.07-1.36a12.21,12.21,0,0,1,1.32-.73Z"/><polygon class="cls-5" points="304.42 237.22 304.42 237.22 304.42 237.22 304.42 237.22"/><path class="cls-5" d="M298.17,246.58A7.28,7.28,0,0,1,297,247a8.88,8.88,0,0,1-3.52.08,4,4,0,0,1-2.35-1,4.66,4.66,0,0,0-1.22.87c-.15.09-.05.17,0,.25a.1.1,0,0,0,.05.1h0a.19.19,0,0,0,.09.14l0,.05a.06.06,0,0,0,.05.06.24.24,0,0,0,.09.11h0l0,.05h0l0,.05h0a0,0,0,0,0,.05,0h0a.62.62,0,0,0,.26.22,0,0,0,0,0,0,0,.08.08,0,0,0,.07,0,.11.11,0,0,0,.09.06.05.05,0,0,0,.06,0,.32.32,0,0,0,.18.1.06.06,0,0,0,.06,0h0a.09.09,0,0,0,.09,0h0a.12.12,0,0,0,.1.05h0a.11.11,0,0,0,.09,0h0a.07.07,0,0,0,.07,0h0a2.52,2.52,0,0,0,.75.28.1.1,0,0,0,.1,0,7,7,0,0,0,2.08.34h.15a4.45,4.45,0,0,0,.73,0,1,1,0,0,0,.34,0,5.1,5.1,0,0,0,.87-.07.12.12,0,0,0,.1,0,1,1,0,0,0,.47-.1h0a3.84,3.84,0,0,0,1.09-.34,3.2,3.2,0,0,0,2-1.58,4.42,4.42,0,0,0-1.33-1A1.93,1.93,0,0,1,298.17,246.58Z"/><path class="cls-5" d="M290.28,240.53c-.06,0-.09.06-.12.11h0a.74.74,0,0,0,0,.9h0a.36.36,0,0,0,.2.2h0a.69.69,0,0,0,.72,0h0c.07,0,.14,0,.23,0l.39,1c-.08.17-.22.28-.29.44l0,0s0,0,0,0a5.18,5.18,0,0,1,1.16-.27c-.18-.14-.39-.16-.54-.28-.05-.36-.13-.72-.15-1.09l.5-.16a.5.5,0,0,0,.33-.29.78.78,0,0,0-.24-1c-.09-.11-.23-.11-.34-.16.11-.37.06-.57-.2-.76a.32.32,0,0,0-.32-.11c-.1,0-.17.09-.27.08h0a.57.57,0,0,0-.14-.35.05.05,0,0,0,0,0s0-.05,0-.05h0c-.25-.18-.38-.16-.55.05h0c-.18.2-.08.42-.06.63-.15.06-.33,0-.42.2a.53.53,0,0,0,.18,0,.53.53,0,0,1-.18,0v0a.48.48,0,0,0,0,.57h0a.16.16,0,0,0,.09.15h0c0,.09.13.09.11.19Zm.33-1.13h0Zm0-.05h0Zm0,0h0Zm0,0h0Zm.05.23h0Zm0-.06h0Zm1.36-.22Zm-.54,0,.06,0-.06,0h0Zm.07,2.09a.64.64,0,0,0,.19-.17.08.08,0,0,0,.05,0s0,0,.05-.05a.16.16,0,0,0,.1-.08h0a.16.16,0,0,0,.08-.08h0a.57.57,0,0,0,.2-.18h0c.07.07,0,.11,0,.18h0a1,1,0,0,0-.15.33h0l-.15.28a3.46,3.46,0,0,1-.53.14l-.22-.12h0a.05.05,0,0,0-.06,0h0a.08.08,0,0,0-.08-.06.39.39,0,0,0-.2-.14s0,0-.06-.05-.11,0,0-.1a5.41,5.41,0,0,0,.58.12h0C291.34,241.32,291.44,241.31,291.51,241.34Zm-.25-2.37a.76.76,0,0,1,0-.15A.76.76,0,0,0,291.26,239Zm0-.15Zm0,0Zm.05.2v0Zm0,0v0Zm0,0h0Zm0,0h0Zm0,0v0Zm0,0h0Zm0,0h0Zm0,0h0Zm0,0h0Zm0,0h0Zm-.18-.42h0a3.29,3.29,0,0,0-.54.05A3.29,3.29,0,0,1,291.16,238.72Z"/><path class="cls-5" d="M292.09,245.38a11.51,11.51,0,0,1,5.09-.17,5.82,5.82,0,0,1,2.84,1.32.24.24,0,0,0,.16.08,1.11,1.11,0,0,0-.3-.54,3.93,3.93,0,0,0-1.39-.83,9.75,9.75,0,0,0-3.9-.59,9,9,0,0,0-3.32.69,3.26,3.26,0,0,0-1.18.75.73.73,0,0,0-.25.5c.1,0,.15-.08.21-.13A5.49,5.49,0,0,1,292.09,245.38Z"/><path class="cls-5" d="M301.83,241.08a.53.53,0,0,0-.66-.06c-.22.16-.2.4-.17.63-.27,0-.5,0-.62.26a.61.61,0,0,0,0,.51.1.1,0,0,0,.05.1.06.06,0,0,0,0,.06h0l0,0h0l0,0h0a.1.1,0,0,0,.05,0,.09.09,0,0,0,.06,0,.07.07,0,0,0,.05,0h0a.35.35,0,0,0,.17.12h0c.06.08.17.09.22.21-.1.28-.15.61-.27.9a2.13,2.13,0,0,0-.5.11,1.64,1.64,0,0,1,.5.32c.14-.45.29-.88.46-1.34-.14,0-.14-.12-.17-.22a1.79,1.79,0,0,0-.22-.51,0,0,0,0,0,0,0l0-.11a4,4,0,0,1,.52.56c.3-.73.64-1.42,1-2.13C302.06,240.64,301.94,240.85,301.83,241.08Z"/><path class="cls-5" d="M289.07,242.92a.13.13,0,0,0,.1-.06.7.7,0,0,0,.47-.73.47.47,0,0,0-.51-.49c-.05,0-.11.05-.16,0a.51.51,0,0,0-.16-.59.53.53,0,0,0-.66,0c-.2-.35-.3-.42-.56-.36.34.69.66,1.38,1,2.11a4.32,4.32,0,0,1,.5-.54v.11a.75.75,0,0,0-.13.32h0c-.11.14-.05.36-.25.44.17.44.31.88.47,1.34a1.48,1.48,0,0,1,.48-.35,4,4,0,0,0-.5-.1,8.08,8.08,0,0,1-.26-.93C288.93,243,289,243,289.07,242.92Z"/><path class="cls-5" d="M297.46,241.35h0c.18.12.4.13.6.24l-.16,1.07c-.16.12-.37.14-.52.29a4.2,4.2,0,0,1,1.23.31l-.37-.49.42-1a2.59,2.59,0,0,1,.42.09.61.61,0,0,0,.64-.16h0a.28.28,0,0,0,.12-.16.1.1,0,0,0,0-.1s0,0,0,0a.66.66,0,0,0-.16-.8s0,0-.05,0,.15-.13.16-.24a0,0,0,0,0,0-.06h0a.47.47,0,0,0,0-.51s0,0,0,0a.1.1,0,0,0,0-.1h0s0,0-.05,0-.26-.08-.39-.16a.7.7,0,0,0,.06-.35.42.42,0,0,0-.24-.41.33.33,0,0,0-.41.09s0,0-.05.05a.05.05,0,0,0,0,0c-.11.1-.1.25-.17.36-.19-.08-.38-.17-.56,0a.19.19,0,0,0-.15.15h0a.62.62,0,0,0-.05.63.54.54,0,0,0-.34.14.08.08,0,0,0,0,.05s0,0-.05,0a.45.45,0,0,0-.18.3A.66.66,0,0,0,297.46,241.35Zm1.82-1.94a.08.08,0,0,1,0,0,.08.08,0,0,0,0,0Zm.06.09,0,0Zm.09,0Zm0,0h0Zm0,0h0Zm0,0Zm.17,1.64h0s0,0,0,0S299.68,241.16,299.67,241.15Zm.13-1.6Zm-1.15-.39h0Zm-.39,0h0Zm.29.09h0Zm0,0h0Zm0,0h0Zm0,0h0Zm0,0h0Zm0,0h0Zm0,0h0Zm0,0h0Zm-.08,0h0Zm-.22,0h0l.07,0-.07,0Zm.19,0h0Zm0,0h0Zm0,0h0Zm-.26.18Zm-.07,1.41v0l.4.35.27.24c.31,0,.6-.15.91-.17l-.09.1a.05.05,0,0,0-.06,0,.07.07,0,0,0-.06,0,.11.11,0,0,0-.08.07.05.05,0,0,0-.06,0h0l-.34.21a3.49,3.49,0,0,1-.54-.12l-.17-.33a.3.3,0,0,0-.1-.19s0-.08,0-.1,0,0,0,0a.06.06,0,0,0,0-.08Z"/><path class="cls-5" d="M293.82,241.16c.08.11.21.11.33.12s.33,0,.52,0l.13,1.11-.43.35a5.53,5.53,0,0,1,1.22,0c-.13-.18-.33-.24-.43-.4,0-.37.06-.73.13-1.09l.5,0a.63.63,0,0,0,.47-.25.8.8,0,0,0-.05-1h0s0,0,0,0a.18.18,0,0,0-.15-.1v0s-.05,0-.05-.09l0,0,0,0a.52.52,0,0,0,.05-.68c-.1-.29-.35-.28-.59-.26,0-.15,0-.3-.09-.43a.15.15,0,0,0-.1-.14h0c-.2-.17-.23-.18-.44,0h0c-.26.14-.25.38-.24.63h-.09c-.48-.12-.71.41-.58.75a2.14,2.14,0,0,0,.1.22.73.73,0,0,0-.43.64.17.17,0,0,0,0,.14A.64.64,0,0,0,293.82,241.16ZM296,240h0Zm.09,0h0Zm-.07,0h0Zm0,0h0Zm0,0h0Zm.05,0h0Zm-.12,0v0Zm-.09-.19h0Zm.08-.24h0Zm0,0v0Zm0,0h0Zm0,0v0Zm0,0v0Zm0,.05h0Zm.06-.23Zm0-.37Zm-.23-.15Zm0,0Zm0,0Zm-.1,0h0Zm-.26,0h0Zm0,0v0Zm0,0v0Zm0,0v0Zm0,0v0Zm0,0v0Zm0,0c0-.11,0-.22,0-.33h0C295.34,238.54,295.32,238.65,295.33,238.76Zm-.1-.47Zm0,0h0Zm0,0h0Zm-.14-.07a.78.78,0,0,0-.3,0A.78.78,0,0,1,295.09,238.28Zm-.41.23a1.91,1.91,0,0,0-.13.36h0A1.91,1.91,0,0,1,294.68,238.51Zm-.27,2.16h0a.09.09,0,0,0,.09.05h0a.14.14,0,0,0,.1.05,1.64,1.64,0,0,0,.39.21,2,2,0,0,0,.29-.16h0a.12.12,0,0,0,.1,0,.67.67,0,0,0,.25-.13h0a.17.17,0,0,0,.11-.06s0,0,0,0,0,0,0,.05a.66.66,0,0,0-.2.24h0c-.14.1-.21.26-.35.38h-.54l-.16-.14h0a.05.05,0,0,0,0,0,.07.07,0,0,0,0-.06h0s0-.07-.07-.08a.07.07,0,0,0,0,0s0-.05-.05-.05a.1.1,0,0,0-.06-.08h0s0,0-.05-.05l0,0C294.26,240.57,294.32,240.68,294.41,240.67Z"/><path class="cls-14" d="M404.59,262.32c0-12.54,7.25-13.59,8-25.08.66-10.6,0-20,11.83-20s11.17,9.37,11.83,20c.72,11.49,8,12.54,8,25.08C444.19,289.25,404.59,289.25,404.59,262.32Z"/><line class="cls-11" x1="424.39" y1="233.2" x2="424.39" y2="300.68"/><line class="cls-11" x1="424.39" y1="274.08" x2="436.64" y2="261.83"/><line class="cls-11" x1="424.39" y1="260.14" x2="416.49" y2="252.25"/><line class="cls-11" x1="424.39" y1="270.12" x2="427.56" y2="266.95"/><line class="cls-11" x1="424.39" y1="239.63" x2="422.46" y2="237.7"/><path class="cls-14" d="M231.62,300.68c1.39-10.23,12.18-18.19,24-18.19,9,0,16.76,4.6,20.51,11.31a19.77,19.77,0,0,1,9.58-2.53,18.83,18.83,0,0,1,16.21,9.41Z"/><path class="cls-10" d="M134.75,158.58c9.57,4.65,19.15-4.66,28.73,0V139.17c-9.58-4.66-19.16,4.66-28.73,0Z"/><path class="cls-5" d="M154.35,141.28l.37,1.52L153.57,144c-.14-.42-.2-.91-.34-1.4C153.58,142.19,154,141.76,154.35,141.28Z"/><path class="cls-5" d="M150,142.85c-.27.52-.46,1-.77,1.56-.27-.41-.51-.81-.76-1.2l.76-1.59C149.49,142,149.74,142.43,150,142.85Z"/><path class="cls-5" d="M144.89,146l-1.14-.89c.11-.53.22-1.05.35-1.56l1.11.9C145.13,144.92,145,145.45,144.89,146Z"/><path class="cls-5" d="M141.27,146.92c0,.46.06.89,0,1.33-.47-.68-.91-1.38-1.38-2.1C140.4,146.39,140.82,146.66,141.27,146.92Z"/><path class="cls-5" d="M158.66,143.47c-.22.39-.53.72-.76,1.11s-.34.52-.5.79a.34.34,0,0,1-.13.14c0-.46,0-.91.07-1.36a7.88,7.88,0,0,1,1.32-.68Z"/><polygon class="cls-5" points="158.66 143.47 158.66 143.47 158.67 143.47 158.66 143.47"/><path class="cls-5" d="M152.41,153.37a9.22,9.22,0,0,1-1.19.66,10.12,10.12,0,0,1-3.51.93,3.19,3.19,0,0,1-2.36-.51,6.7,6.7,0,0,0-1.22,1.09c-.14.11,0,.18,0,.25a.09.09,0,0,0,.05.09h0a.22.22,0,0,0,.1.13l0,0s0,.06.05.06a.14.14,0,0,0,.08.09l0,0v0s0,0,0,0h0l.05,0h0a.05.05,0,0,0,0,0h0a.65.65,0,0,0,.26.17h0s0,0,.07,0,0,0,.09,0,0,0,0,0a.26.26,0,0,0,.19.07s0,0,.06,0h0a.09.09,0,0,0,.1,0h0a.08.08,0,0,0,.09,0h0a.08.08,0,0,0,.1,0h0s0,0,.08,0h0a2.25,2.25,0,0,0,.74.12.12.12,0,0,0,.1,0,6.49,6.49,0,0,0,2.09-.16l.15,0a4.69,4.69,0,0,0,.72-.17.85.85,0,0,0,.34-.11,5.62,5.62,0,0,0,.88-.28.16.16,0,0,0,.1-.05,1.31,1.31,0,0,0,.47-.21h0a5,5,0,0,0,1.1-.58,4.29,4.29,0,0,0,2-1.92,3.36,3.36,0,0,0-1.33-.74A3.09,3.09,0,0,1,152.41,153.37Z"/><path class="cls-5" d="M144.52,149.07a.28.28,0,0,0-.12.14h0a.72.72,0,0,0,0,.9h0a.28.28,0,0,0,.19.16h0c.24.14.48,0,.72-.12h0c.08,0,.14-.07.23,0l.4.92c-.09.19-.23.33-.29.5l0,0s0,0,.06,0a6.7,6.7,0,0,1,1.15-.52c-.18-.1-.38-.08-.53-.16-.06-.35-.13-.7-.16-1.06l.5-.27a.77.77,0,0,0,.34-.37.67.67,0,0,0-.25-.93c-.08-.09-.22-.06-.33-.08.11-.4.06-.59-.2-.72a.3.3,0,0,0-.32-.05c-.1,0-.17.13-.27.14h0a.44.44,0,0,0-.13-.32s0,0-.05,0,0,0,0,0h0c-.24-.13-.38-.1-.54.15h0c-.19.23-.08.43-.06.64-.15.08-.34.08-.42.27a.67.67,0,0,0,.18-.07.67.67,0,0,1-.18.07s0,0,0,0a.5.5,0,0,0-.05.57h0a.16.16,0,0,0,.09.14h0c0,.08.13.07.11.16Zm.33-1.18h0Zm0,0h0Zm0,0h0Zm0-.05Zm.06.23h0Zm0-.06h0Zm1.37-.49Zm-.54.15.06,0-.06,0h0Zm.07,2.07a.81.81,0,0,0,.18-.2.06.06,0,0,0,.05-.06s0,0,0-.06a.23.23,0,0,0,.11-.11h0a.16.16,0,0,0,.07-.09h0a.83.83,0,0,0,.2-.22h0c.07.05,0,.12,0,.18h0a1.73,1.73,0,0,0-.16.37h0c-.05.1-.09.2-.14.31a3.26,3.26,0,0,1-.54.25l-.21-.07h0a.05.05,0,0,0-.06,0h0a.1.1,0,0,0-.09,0,.32.32,0,0,0-.2-.1s0,0,0,0-.11,0-.05-.09a3.72,3.72,0,0,0,.58,0h0C145.59,149.67,145.68,149.64,145.76,149.65Zm-.26-2.32v0Zm0-.14Zm-.05,0Zm.05.19v0Zm0,0v0Zm0,0v0Zm0,0v0Zm0,0v0Zm0,0h0Zm0,0h0Zm0,0h0Zm.05,0Zm0,0h0Zm-.18-.38h0a3.21,3.21,0,0,0-.53.15A3.51,3.51,0,0,1,145.4,147.11Z"/><path class="cls-5" d="M146.33,153.58a12.83,12.83,0,0,1,5.09-1.37,4.4,4.4,0,0,1,2.85.77.19.19,0,0,0,.15.06.86.86,0,0,0-.3-.5,2.94,2.94,0,0,0-1.38-.58,8.71,8.71,0,0,0-3.9.3,12.82,12.82,0,0,0-3.33,1.44,4.73,4.73,0,0,0-1.17,1,1,1,0,0,0-.26.54c.1,0,.15-.1.21-.16A8,8,0,0,1,146.33,153.58Z"/><path class="cls-5" d="M156.07,147.33a.49.49,0,0,0-.65,0c-.23.18-.2.41-.18.65-.27,0-.5.05-.61.33a.61.61,0,0,0,0,.51s0,.08,0,.1,0,.05,0,.05h0l0,.05h0l.05,0h0a.07.07,0,0,0,.06,0,.05.05,0,0,0,0,0,0,0,0,0,0,.06,0h0a.38.38,0,0,0,.18.09h0c0,.08.17.08.22.19-.1.3-.16.63-.28.94a1.65,1.65,0,0,0-.5.17,1.24,1.24,0,0,1,.51.26c.13-.47.28-.92.46-1.4-.15,0-.15-.11-.18-.2a1.77,1.77,0,0,0-.21-.49s0,0,0,0,0-.08,0-.12a4.15,4.15,0,0,1,.52.51c.29-.76.63-1.47,1-2.19C156.31,146.87,156.18,147.09,156.07,147.33Z"/><path class="cls-5" d="M143.32,151.65s.08,0,.09-.08a.84.84,0,0,0,.48-.8.41.41,0,0,0-.52-.41c-.05,0-.11.06-.15,0,0-.23,0-.45-.16-.58a.57.57,0,0,0-.66.11c-.2-.33-.31-.39-.56-.32.33.68.66,1.34,1,2a5.76,5.76,0,0,1,.5-.59v.11a.85.85,0,0,0-.14.34h0c-.1.15,0,.36-.24.47.17.42.31.83.46,1.28a1.77,1.77,0,0,1,.49-.42c-.17,0-.34,0-.5,0a5.65,5.65,0,0,1-.26-.89C143.17,151.76,143.27,151.73,143.32,151.65Z"/><path class="cls-5" d="M151.71,148.29h0a4.68,4.68,0,0,0,.6.1c-.05.37-.11.75-.16,1.11-.17.16-.37.21-.52.4a3.57,3.57,0,0,1,1.22.06l-.36-.42c.14-.38.27-.75.41-1.11a2.94,2.94,0,0,1,.42,0,.71.71,0,0,0,.65-.26h0a.38.38,0,0,0,.13-.18.1.1,0,0,0,0-.11s0,0,0,0a.6.6,0,0,0-.15-.78s0,0-.05,0,.15-.15.15-.26a.07.07,0,0,0,0-.06h0a.45.45,0,0,0,0-.51s0,0,0,0a.08.08,0,0,0,0-.09h0a0,0,0,0,0,0,0c-.09-.13-.26,0-.39-.1a.91.91,0,0,0,.06-.36.35.35,0,0,0-.24-.37.38.38,0,0,0-.41.17s0,0,0,.05a.12.12,0,0,0-.05.07c-.1.11-.09.26-.16.39-.2,0-.39-.09-.57.14a.28.28,0,0,0-.14.18h0a.65.65,0,0,0,0,.64.63.63,0,0,0-.34.22s-.05,0-.05.05,0,0,0,.06a.73.73,0,0,0-.19.34C151.31,147.9,151.42,148.19,151.71,148.29Zm1.81-2.31s0,0,0,0l0,0Zm.06.08,0,0Zm.09,0h0Zm0,0h0Zm0,0Zm0,0h0Zm.18,1.62h0v0A0,0,0,0,1,153.92,147.66Zm.13-1.62Zm-1.15-.19h0Zm-.39.09h0Zm.29,0h0Zm0,0h0Zm0,0h0Zm0,0h0Zm0,0h0Zm0,0h0Zm0,0h0Zm0,0h0Zm-.07,0h0Zm-.23.08h0l.08,0-.08,0Zm.19-.07h0Zm0,0h0Zm0,0h0Zm-.26.23Zm-.08,1.42v0l.4.26a2.48,2.48,0,0,1,.26.19c.32-.09.6-.27.91-.34l-.09.11s0,0,0,0-.05,0-.06.05a.18.18,0,0,0-.09.08s-.05,0-.05.05h0l-.34.27a2,2,0,0,1-.55,0c-.05-.1-.11-.19-.17-.29a.26.26,0,0,0-.09-.18.09.09,0,0,0,0-.09s0,0,0,0,0-.06,0-.07Z"/><path class="cls-5" d="M148.07,149c.08.09.2.06.32,0a5.27,5.27,0,0,0,.52-.1c.05.37.09.73.13,1.08l-.43.46a5.43,5.43,0,0,1,1.23-.27c-.13-.14-.33-.17-.44-.3,0-.37.06-.74.13-1.12l.5-.14a.85.85,0,0,0,.48-.36.77.77,0,0,0-.06-1h0s0,0,0,0a.13.13,0,0,0-.14-.06s0,0,0,0,0,0,0,0-.06,0,0-.08l0,0,0,0a.58.58,0,0,0,0-.7c-.11-.26-.35-.19-.59-.11,0-.14,0-.31-.09-.4a.14.14,0,0,0-.1-.13h0c-.2-.12-.24-.11-.44.06h0a.7.7,0,0,0-.24.69l-.1,0a.69.69,0,0,0-.58.89,1.28,1.28,0,0,0,.11.2,1,1,0,0,0-.44.74.33.33,0,0,0,0,.14A.51.51,0,0,0,148.07,149Zm2.2-1.74h0Zm.09,0h0Zm-.07,0h0Zm0,0h0Zm0,0h0Zm0,0h0Zm-.12,0s0,0,0,0S150.27,147.21,150.27,147.22Zm-.09-.17h0Zm.07-.26h0Zm0,0h0Zm0,0h0Zm0,0v0Zm0,0v0Zm0,.06h0Zm.06-.25Zm0-.37Zm-.23-.09Zm0,0Zm0,0h0Zm-.11,0,0,0Zm-.25.08h0Zm0,0h0Zm0,0v0Zm0,0v0Zm0,0v0Zm0,0v0Zm0,0c0-.1,0-.22,0-.32h0C149.59,146,149.56,146.09,149.58,146.19Zm-.1-.44Zm0,0h0Zm0,0Zm-.15,0a.72.72,0,0,0-.29,0A.72.72,0,0,1,149.33,145.77Zm-.4.32a3.7,3.7,0,0,0-.13.4h0A3.7,3.7,0,0,1,148.93,146.09Zm-.28,2.24h0a.08.08,0,0,0,.1,0h0s.05,0,.1,0a1.19,1.19,0,0,0,.38.11,1.7,1.7,0,0,0,.3-.23h0a.13.13,0,0,0,.09-.07,1.24,1.24,0,0,0,.26-.19h0a.19.19,0,0,0,.11-.08l0,0s0,0,0,0a1,1,0,0,0-.19.29h0c-.13.14-.2.32-.34.47l-.55.14-.15-.11h0s0,0-.05,0a0,0,0,0,0,0-.05h0a.07.07,0,0,0-.07-.06s0,0,0,0,0-.05,0-.05a.09.09,0,0,0-.07-.06h0a0,0,0,0,0,0,0l-.05,0C148.51,148.26,148.57,148.35,148.65,148.33Z"/><polygon class="cls-8" points="130.18 176.37 38.63 221.86 38.63 221.86 38.63 251.81 38.63 255.02 38.63 300.68 221.72 300.68 221.72 255.02 221.72 251.81 221.72 221.86 130.18 176.37"/><polygon class="cls-8" points="114.57 218.55 39.87 218.55 36.38 218.55 36.38 215.05 129.74 169.72 130.41 169.72 163.41 169.69 163.41 198.73 114.57 218.55"/><polyline class="cls-8" points="129.97 176.75 38.42 222.23 34.89 222.23 34.89 218.67 129.73 172.66 130.42 172.66 225.26 218.67 225.26 222.23 221.72 222.23 130.18 176.75"/><polygon class="cls-12" points="163.48 176.37 71.93 221.86 71.93 221.86 71.93 251.81 71.93 255.02 71.93 300.68 255.03 300.68 255.03 255.02 255.03 251.81 255.03 221.86 163.48 176.37"/><rect class="cls-16" x="196.53" y="289.66" width="6.44" height="2.87"/><rect class="cls-16" x="107.87" y="239.08" width="6.44" height="2.87"/><rect class="cls-16" x="221.1" y="228.64" width="6.44" height="2.87"/><rect class="cls-16" x="215.26" y="233.61" width="6.44" height="2.87"/><rect class="cls-16" x="227.54" y="287.12" width="6.44" height="2.87"/><rect class="cls-16" x="130.07" y="214.02" width="6.44" height="2.87"/><rect class="cls-16" x="89.8" y="286.55" width="6.44" height="2.87"/><rect class="cls-16" x="93.29" y="223.25" width="6.44" height="2.87"/><rect class="cls-16" x="159.56" y="191.14" width="6.44" height="2.87"/><rect class="cls-16" x="102.28" y="219.26" width="6.44" height="2.87"/><rect class="cls-16" x="217.88" y="215.76" width="6.44" height="2.87"/><rect class="cls-16" x="134.75" y="219.17" width="6.44" height="2.87"/><rect class="cls-16" x="191.42" y="229.22" width="6.44" height="2.87"/><rect class="cls-16" x="185.65" y="222.13" width="6.44" height="2.87"/><rect class="cls-16" x="190.18" y="217.07" width="6.44" height="2.87"/><rect class="cls-16" x="85.17" y="258.36" width="6.44" height="2.87"/><rect class="cls-16" x="137.67" y="278.26" width="6.44" height="2.87"/><rect class="cls-16" x="196.69" y="247.74" width="6.44" height="2.87"/><rect class="cls-16" x="111.52" y="295.4" width="6.44" height="2.87"/><rect class="cls-16" x="119.73" y="292.84" width="6.44" height="2.87"/><rect class="cls-16" x="201.85" y="285.11" width="6.44" height="2.87"/><rect class="cls-5" x="148.31" y="255.83" width="29.92" height="44.84"/><line class="cls-11" x1="147.27" y1="263.09" x2="179.28" y2="263.09"/><line class="cls-11" x1="147.27" y1="255.83" x2="179.28" y2="255.83"/><line class="cls-11" x1="163.27" y1="263.09" x2="163.27" y2="300.68"/><rect class="cls-12" x="151.98" y="268.13" width="6.37" height="20.43"/><rect class="cls-12" x="168.22" y="268.13" width="6.37" height="20.43"/><line class="cls-11" x1="154.3" y1="263.09" x2="154.3" y2="255.83"/><line class="cls-11" x1="160.28" y1="263.09" x2="160.28" y2="255.83"/><line class="cls-11" x1="166.27" y1="263.09" x2="166.27" y2="255.83"/><line class="cls-11" x1="172.25" y1="263.09" x2="172.25" y2="255.83"/><path class="cls-14" d="M96.51,245.25h0a8.12,8.12,0,0,1,8.12,8.12v25.58a0,0,0,0,1,0,0H88.39a0,0,0,0,1,0,0V253.37a8.12,8.12,0,0,1,8.12-8.12Z"/><path class="cls-15" d="M96.51,248.39h0a5.31,5.31,0,0,1,5.31,5.31v22.08a0,0,0,0,1,0,0H91.19a0,0,0,0,1,0,0V253.7a5.31,5.31,0,0,1,5.31-5.31Z"/><line class="cls-14" x1="96.51" y1="248.39" x2="96.51" y2="275.78"/><line class="cls-14" x1="91.19" y1="256.41" x2="101.82" y2="256.41"/><line class="cls-14" x1="91.19" y1="262.87" x2="101.82" y2="262.87"/><line class="cls-14" x1="91.19" y1="269.32" x2="101.82" y2="269.32"/><line class="cls-14" x1="91.19" y1="275.78" x2="101.82" y2="275.78"/><line class="cls-14" x1="87.51" y1="278.95" x2="105.5" y2="278.95"/><path class="cls-14" d="M117.47,245.25h0a8.12,8.12,0,0,1,8.12,8.12v25.58a0,0,0,0,1,0,0H109.36a0,0,0,0,1,0,0V253.37A8.12,8.12,0,0,1,117.47,245.25Z"/><path class="cls-15" d="M117.47,248.39h0a5.31,5.31,0,0,1,5.31,5.31v22.08a0,0,0,0,1,0,0H112.16a0,0,0,0,1,0,0V253.7a5.31,5.31,0,0,1,5.31-5.31Z"/><line class="cls-14" x1="117.47" y1="248.39" x2="117.47" y2="275.78"/><line class="cls-14" x1="112.16" y1="256.41" x2="122.79" y2="256.41"/><line class="cls-14" x1="112.16" y1="262.87" x2="122.79" y2="262.87"/><line class="cls-14" x1="112.16" y1="269.32" x2="122.79" y2="269.32"/><line class="cls-14" x1="112.16" y1="275.78" x2="122.79" y2="275.78"/><line class="cls-14" x1="108.48" y1="278.95" x2="126.47" y2="278.95"/><path class="cls-14" d="M208,245.25h0a8.12,8.12,0,0,1,8.12,8.12v25.58a0,0,0,0,1,0,0H199.92a0,0,0,0,1,0,0V253.37A8.12,8.12,0,0,1,208,245.25Z"/><path class="cls-15" d="M208,248.39h0a5.31,5.31,0,0,1,5.31,5.31v22.08a0,0,0,0,1,0,0H202.72a0,0,0,0,1,0,0V253.7A5.31,5.31,0,0,1,208,248.39Z"/><line class="cls-14" x1="208.03" y1="248.39" x2="208.03" y2="275.78"/><line class="cls-14" x1="202.72" y1="256.41" x2="213.35" y2="256.41"/><line class="cls-14" x1="202.72" y1="262.87" x2="213.35" y2="262.87"/><line class="cls-14" x1="202.72" y1="269.32" x2="213.35" y2="269.32"/><line class="cls-14" x1="202.72" y1="275.78" x2="213.35" y2="275.78"/><line class="cls-14" x1="199.04" y1="278.95" x2="217.03" y2="278.95"/><path class="cls-14" d="M229,245.25h0a8.12,8.12,0,0,1,8.12,8.12v25.58a0,0,0,0,1,0,0H220.88a0,0,0,0,1,0,0V253.37a8.12,8.12,0,0,1,8.12-8.12Z"/><path class="cls-15" d="M229,248.39h0a5.31,5.31,0,0,1,5.31,5.31v22.08a0,0,0,0,1,0,0H223.69a0,0,0,0,1,0,0V253.7A5.31,5.31,0,0,1,229,248.39Z"/><line class="cls-14" x1="229" y1="248.39" x2="229" y2="275.78"/><line class="cls-14" x1="223.69" y1="256.41" x2="234.31" y2="256.41"/><line class="cls-14" x1="223.69" y1="262.87" x2="234.31" y2="262.87"/><line class="cls-14" x1="223.69" y1="269.32" x2="234.31" y2="269.32"/><line class="cls-14" x1="223.69" y1="275.78" x2="234.31" y2="275.78"/><line class="cls-14" x1="220" y1="278.95" x2="238" y2="278.95"/><rect class="cls-5" x="146.67" y="199.35" width="14.55" height="37.96"/><line class="cls-17" x1="146.22" y1="225.14" x2="161.66" y2="225.14"/><line class="cls-17" x1="146.22" y1="211.85" x2="161.66" y2="211.85"/><line class="cls-17" x1="153.94" y1="211.41" x2="153.94" y2="237.76"/><line class="cls-17" x1="153.94" y1="199.35" x2="153.94" y2="237.31"/><rect class="cls-5" x="165.4" y="199.35" width="14.55" height="37.96"/><line class="cls-17" x1="164.96" y1="225.14" x2="180.4" y2="225.14"/><line class="cls-17" x1="164.96" y1="211.85" x2="180.4" y2="211.85"/><line class="cls-17" x1="172.68" y1="211.41" x2="172.68" y2="237.76"/><line class="cls-17" x1="172.68" y1="199.35" x2="172.68" y2="237.31"/><polygon class="cls-11" points="163.48 176.37 71.93 221.86 71.93 221.86 71.93 251.81 71.93 255.02 71.93 300.68 255.03 300.68 255.03 255.02 255.03 251.81 255.03 221.86 163.48 176.37"/><rect class="cls-10" x="140.89" y="242.56" width="43.79" height="8.06"/><rect class="cls-14" x="135.63" y="241.07" width="5.26" height="57.2"/><rect class="cls-13" x="134.15" y="252.25" width="8.22" height="2.34"/><rect class="cls-13" x="134.15" y="238.73" width="8.22" height="2.34"/><rect class="cls-13" x="134.15" y="298.34" width="8.22" height="2.34"/><rect class="cls-14" x="184.68" y="241.07" width="5.26" height="57.2"/><rect class="cls-13" x="183.2" y="252.25" width="8.22" height="2.34"/><rect class="cls-13" x="183.2" y="238.73" width="8.22" height="2.34"/><rect class="cls-13" x="183.2" y="298.34" width="8.22" height="2.34"/><rect class="cls-16" x="73.39" y="221.27" width="4.5" height="2.87" transform="translate(240.9 55.35) rotate(63.4)"/><rect class="cls-16" x="82.06" y="216.93" width="4.5" height="2.87" transform="translate(241.81 45.21) rotate(63.4)"/><rect class="cls-16" x="90.72" y="212.59" width="4.5" height="2.87" transform="translate(242.71 35.06) rotate(63.4)"/><rect class="cls-16" x="99.38" y="208.25" width="4.5" height="2.87" transform="translate(243.62 24.92) rotate(63.4)"/><rect class="cls-16" x="108.08" y="203.98" width="4.5" height="2.87" transform="translate(244.61 14.78) rotate(63.4)"/><rect class="cls-16" x="116.75" y="199.64" width="4.5" height="2.87" transform="translate(245.51 4.64) rotate(63.4)"/><rect class="cls-16" x="125.41" y="195.3" width="4.5" height="2.87" transform="translate(246.42 -5.51) rotate(63.4)"/><rect class="cls-16" x="134.11" y="191.02" width="4.5" height="2.87" transform="translate(247.39 -15.64) rotate(63.4)"/><rect class="cls-16" x="142.77" y="186.69" width="4.5" height="2.87" transform="translate(248.3 -25.79) rotate(63.4)"/><rect class="cls-16" x="151.44" y="182.35" width="4.5" height="2.87" transform="translate(249.2 -35.93) rotate(63.4)"/><rect class="cls-16" x="248.48" y="221.27" width="4.5" height="2.87" transform="translate(562.13 98.22) rotate(116.6)"/><rect class="cls-16" x="239.82" y="216.93" width="4.5" height="2.87" transform="translate(545.71 99.69) rotate(116.6)"/><rect class="cls-16" x="231.15" y="212.59" width="4.5" height="2.87" transform="translate(529.29 101.15) rotate(116.6)"/><rect class="cls-16" x="222.49" y="208.25" width="4.5" height="2.87" transform="translate(512.86 102.62) rotate(116.6)"/><rect class="cls-16" x="213.79" y="203.98" width="4.5" height="2.87" transform="translate(496.45 104.22) rotate(116.6)"/><rect class="cls-16" x="205.13" y="199.64" width="4.5" height="2.87" transform="translate(480.03 105.68) rotate(116.6)"/><rect class="cls-16" x="196.46" y="195.3" width="4.5" height="2.87" transform="translate(463.6 107.15) rotate(116.6)"/><rect class="cls-16" x="187.77" y="191.02" width="4.5" height="2.87" transform="translate(447.19 108.73) rotate(116.6)"/><rect class="cls-16" x="179.1" y="186.69" width="4.5" height="2.87" transform="translate(430.76 110.19) rotate(116.6)"/><rect class="cls-16" x="170.44" y="182.35" width="4.5" height="2.87" transform="translate(414.34 111.66) rotate(116.6)"/><line class="cls-17" x1="163.45" y1="170.3" x2="163.45" y2="137.02"/><path class="cls-5" d="M84.88,191.68c-.26-1.36.5-2.74,0-4.08s-1.74-1.45-3-1.72c-2.65-.59-7.59-.81-7.83-4.36-.16-2.26.76-5.48-2-6.52a9.11,9.11,0,0,0-3.75-.07,13.81,13.81,0,0,1-5.49-.77c-1.77-.62-3.79-1.55-3-3.79.51-1.43,1.55-2.59,1.93-4.07a4.06,4.06,0,0,0-3.16-5.24c-2.61-.6-7.06,1.23-8.7-1.67-.83-1.48.8-2.69.81-4.17a3,3,0,0,0-1.4-2.35c-1.22-.82-2.68-.77-4.06-1a4.88,4.88,0,0,1-3.78-3.39,6.76,6.76,0,0,1,.32-4.66c.63-1.51,2.15-4.08,4.16-3.15,1.2.56,2.11,1.86,3.19,2.63A10.6,10.6,0,0,0,53,145c3.17.68,6.19-.51,9.12-1.57a23.27,23.27,0,0,1,8.72-1.63,14.14,14.14,0,0,1,4.28.78,12,12,0,0,1,1.88.89c1.16.69,2.21,1.36,2,2.88s-.7,2.67-.76,4.09a6.49,6.49,0,0,0,.76,4,5.1,5.1,0,0,0,3,1.59c1.55.4,3.13.71,4.65,1.21,3.49,1.15,6.86,4,5.47,8.05-.56,1.61-1.58,3-2.23,4.61a9.37,9.37,0,0,0-.66,4.68,10.41,10.41,0,0,0,1.81,4.59c1.09,1.68,2.59,3.85,1.11,5.77s-5.12,3.49-3.49,6.45c.35.63,1.32.06,1-.57-1-1.76,1.25-3.19,2.37-4.15A4.69,4.69,0,0,0,94,183.62c.31-3.31-3-5.59-3.49-8.73-.63-3.79,1.94-6.25,2.93-9.63a6.51,6.51,0,0,0-2.24-6.85c-2.47-2.13-5.73-2.63-8.78-3.43a4.94,4.94,0,0,1-2.2-.91,3.77,3.77,0,0,1-.77-2.73,12.12,12.12,0,0,1,.22-2.69,23.48,23.48,0,0,0,.6-2.58c.19-2.61-3.28-4.09-5.32-4.73a17.93,17.93,0,0,0-8.43-.3c-3.24.59-6.17,2.18-9.38,2.84a9,9,0,0,1-5.7-.58,18.38,18.38,0,0,1-3.91-2.94c-2.08-1.74-4.27-1-5.74,1.13a8.25,8.25,0,0,0-1.07,8.06A6.27,6.27,0,0,0,43,152.17c1.47.9,3.09.69,4.68,1.17.85.26,1.92.84,1.93,1.88a5.41,5.41,0,0,1-.78,2,3.12,3.12,0,0,0,.62,3.41c2.14,2.32,5.26,1.19,8,1.4,1.74.13,3.46,1,3.42,3s-1.36,3.23-2,4.86c-1.39,3.49,2.13,5,4.94,5.76a15.85,15.85,0,0,0,5.36.35,5.07,5.07,0,0,1,2.76.16c1,.55,1.18,1.83,1.17,2.88,0,1.6-.38,3.24.53,4.69a5.43,5.43,0,0,0,3,2.06,54.62,54.62,0,0,0,5.52,1.3c.54.13,1.23.19,1.6.69a2.7,2.7,0,0,1,.15,1.84A7.05,7.05,0,0,0,83.8,192c.13.71,1.21.41,1.08-.3Z"/><path class="cls-5" d="M43.35,140.56a7.73,7.73,0,0,0-2.24,8.54,7.89,7.89,0,0,0,5.74,3.51c4.17.62,2.9,3.91,2.71,4.31s-1.59,4.75,3.25,4.65,8.92,0,8.58,3.13-4.29,7.17-1.08,8.9a13.82,13.82,0,0,0,8,1.89c2.29-.17,5-.25,5.26,2.56s-.66,6,2.47,6.91,7.18,1.28,7.75,2.07.35,3.78.35,3.78.13,1.88,1.45,2a35.5,35.5,0,0,0,3.56,0s-.77-2.49,0-3.71,3.28-3.36,3.58-3.82a7.59,7.59,0,0,0-.67-5.69c-1.31-2.13-3.06-6.45-1.84-9.45s4.76-6.21,2.17-9.43-8.8-5-10.56-5.3-3.19-2.78-2.9-5.73,2-6.16-4.89-8-15.56,2.44-15.56,2.44-5,.87-6.87-.13a29.84,29.84,0,0,1-4.15-2.92l-2.24-1.21Z"/><rect class="cls-6" x="86.09" y="192.48" width="5.59" height="15.81" transform="translate(177.77 400.78) rotate(-180)"/><polygon class="cls-7" points="91.52 193.36 85.88 194.91 85.88 192.65 91.52 192.65 91.52 193.36"/><rect class="cls-8" x="83.08" y="192.48" width="3.01" height="15.81" transform="translate(169.17 400.78) rotate(-180)"/><rect class="cls-9" x="80.5" y="189.59" width="10.75" height="3.96" rx="0.67" transform="translate(171.76 383.15) rotate(-180)"/><rect class="cls-10" x="83.51" y="189.59" width="10.75" height="3.96" rx="0.67" transform="translate(177.77 383.15) rotate(-180)"/><rect class="cls-6" x="236.45" y="192.48" width="5.59" height="15.81" transform="translate(478.5 400.78) rotate(-180)"/><polygon class="cls-7" points="241.88 193.36 236.24 194.91 236.24 192.65 241.88 192.65 241.88 193.36"/><rect class="cls-8" x="233.45" y="192.48" width="3.01" height="15.81" transform="translate(469.9 400.78) rotate(-180)"/><rect class="cls-9" x="230.87" y="189.59" width="10.75" height="3.96" rx="0.67" transform="translate(472.49 383.15) rotate(-180)"/><rect class="cls-10" x="233.87" y="189.59" width="10.75" height="3.96" rx="0.67" transform="translate(478.5 383.15) rotate(-180)"/><polyline class="cls-6" points="163.28 173.75 73.17 218.55 69.69 218.55 69.69 215.05 163.04 169.72 163.72 169.72 257.07 215.05 257.07 218.55 253.59 218.55 163.48 173.75"/><polyline class="cls-6" points="163.28 176.75 71.73 222.23 68.19 222.23 68.19 218.67 163.03 172.66 163.72 172.66 258.57 218.67 258.57 222.23 255.03 222.23 163.48 176.75"/><line class="cls-11" x1="76.14" y1="220.42" x2="77.28" y2="222.7"/><line class="cls-11" x1="84.79" y1="216.08" x2="85.93" y2="218.36"/><line class="cls-11" x1="93.44" y1="211.74" x2="94.58" y2="214.02"/><line class="cls-11" x1="102.09" y1="207.4" x2="103.23" y2="209.68"/><line class="cls-11" x1="110.74" y1="203.07" x2="111.88" y2="205.34"/><line class="cls-11" x1="119.38" y1="198.73" x2="120.53" y2="201.01"/><line class="cls-11" x1="128.03" y1="194.39" x2="129.17" y2="196.67"/><line class="cls-11" x1="136.68" y1="190.05" x2="137.82" y2="192.33"/><line class="cls-11" x1="145.33" y1="185.71" x2="146.47" y2="187.99"/><line class="cls-11" x1="153.98" y1="181.37" x2="155.12" y2="183.65"/><line class="cls-11" x1="250.12" y1="220.42" x2="248.98" y2="222.7"/><line class="cls-11" x1="241.48" y1="216.08" x2="240.33" y2="218.36"/><line class="cls-11" x1="232.83" y1="211.74" x2="231.69" y2="214.02"/><line class="cls-11" x1="224.18" y1="207.4" x2="223.04" y2="209.68"/><line class="cls-11" x1="215.53" y1="203.07" x2="214.39" y2="205.34"/><line class="cls-11" x1="206.88" y1="198.73" x2="205.74" y2="201.01"/><line class="cls-11" x1="198.23" y1="194.39" x2="197.09" y2="196.67"/><line class="cls-11" x1="189.59" y1="190.05" x2="188.44" y2="192.33"/><line class="cls-11" x1="180.94" y1="185.71" x2="179.8" y2="187.99"/><line class="cls-11" x1="172.29" y1="181.37" x2="171.15" y2="183.65"/><polygon class="cls-7" points="69.69 215.05 163.38 171.23 163.41 169.69 69.69 215.05"/><polygon class="cls-7" points="257.07 215.05 163.38 171.23 163.41 169.69 257.07 215.05"/><polygon class="cls-7" points="69.69 218.02 163.38 174.2 163.41 172.66 69.69 218.02"/><polygon class="cls-7" points="257.07 218.02 163.38 174.2 163.41 172.66 257.07 218.02"/><polygon class="cls-7" points="71.73 222.23 163.38 178.41 163.41 176.87 71.73 222.23"/><polygon class="cls-7" points="255.03 222.23 163.38 178.41 163.41 176.87 255.03 222.23"/><path class="cls-8" d="M54.65,300.68c-1-6-9.06-10.73-17.85-10.73-6.68,0-12.46,2.72-15.26,6.67a17.89,17.89,0,0,0-7.12-1.49,15,15,0,0,0-12.06,5.55Z"/><path class="cls-14" d="M45.58,267.6c0-10.82-6.25-11.72-6.87-21.63-.58-9.14,0-17.23-10.21-17.23S18.87,236.83,18.3,246c-.62,9.91-6.87,10.81-6.87,21.63C11.43,290.82,45.58,290.82,45.58,267.6Z"/><line class="cls-11" x1="28.5" y1="242.48" x2="28.5" y2="300.68"/><line class="cls-11" x1="28.5" y1="277.74" x2="17.94" y2="267.18"/><line class="cls-11" x1="28.5" y1="265.72" x2="35.31" y2="258.91"/><line class="cls-11" x1="28.5" y1="274.32" x2="25.77" y2="271.58"/><line class="cls-11" x1="28.5" y1="248.03" x2="30.17" y2="246.36"/><line class="cls-11" x1="246.45" y1="298.98" x2="246.45" y2="260.97"/><polygon class="cls-14" points="247.79 260.96 245.11 260.96 241.24 250.72 251.66 250.72 247.79 260.96"/><rect class="cls-6" x="243.77" y="299.17" width="5.37" height="1.5"/><line class="cls-11" x1="240.6" y1="250.72" x2="252.3" y2="250.72"/><line class="cls-11" x1="244.46" y1="260.97" x2="248.44" y2="260.97"/><polygon class="cls-13" points="251.66 250.72 241.24 250.72 244.46 246.5 248.44 246.5 251.66 250.72"/><line class="cls-11" x1="243.82" y1="246.51" x2="249.08" y2="246.51"/><path class="cls-6" d="M246.45,244.68h0a1.25,1.25,0,0,1,1.25,1.25v.57a0,0,0,0,1,0,0h-2.5a0,0,0,0,1,0,0v-.57A1.25,1.25,0,0,1,246.45,244.68Z"/><line class="cls-11" x1="246.45" y1="250.08" x2="246.45" y2="260.97"/><line class="cls-11" x1="242.24" y1="255.3" x2="250.66" y2="255.3"/><path class="cls-8" d="M501.42,301c-4-4.93-11.11-8.21-18.68-8.21a27.57,27.57,0,0,0-9.51,1.71c-3.86-5.35-11.32-9-19.28-9-10.89,0-21.5,6.81-22.65,15.49Z"/><line class="cls-11" x1="469.35" y1="300.95" x2="469.35" y2="261.24"/><polygon class="cls-14" points="470.69 261.24 468.01 261.24 464.14 250.99 474.56 250.99 470.69 261.24"/><line class="cls-11" x1="463.5" y1="250.99" x2="475.2" y2="250.99"/><line class="cls-11" x1="467.36" y1="261.24" x2="471.34" y2="261.24"/><polygon class="cls-13" points="474.56 250.99 464.14 250.99 467.36 246.78 471.34 246.78 474.56 250.99"/><line class="cls-11" x1="466.72" y1="246.78" x2="471.98" y2="246.78"/><path class="cls-6" d="M469.35,245h0a1.25,1.25,0,0,1,1.25,1.25v.57a0,0,0,0,1,0,0h-2.5a0,0,0,0,1,0,0v-.57A1.25,1.25,0,0,1,469.35,245Z"/><line class="cls-11" x1="469.35" y1="250.35" x2="469.35" y2="261.24"/><line class="cls-11" x1="465.14" y1="255.57" x2="473.56" y2="255.57"/></g></g></svg>