<svg xmlns="http://www.w3.org/2000/svg" xmlns:xlink="http://www.w3.org/1999/xlink" viewBox="0 0 743 300"><defs><style>.cls-1,.cls-11{fill:none;}.cls-2{clip-path:url(#clip-path);}.cls-17,.cls-3{fill:#ffc52f;}.cls-4{fill:url(#linear-gradient);}.cls-14,.cls-5{fill:#fff;}.cls-12,.cls-6{fill:#fbc877;}.cls-11,.cls-13,.cls-14,.cls-17,.cls-6,.cls-8{stroke:#001c59;stroke-linecap:round;stroke-linejoin:round;stroke-width:0.75px;}.cls-7,.cls-8{fill:#001c59;}.cls-9{fill:#d84876;}.cls-10,.cls-13{fill:#f25a84;}.cls-15{fill:#fbafd2;}.cls-16{fill:#f1b86a;}</style><clipPath id="clip-path"><rect class="cls-1" width="743" height="300"/></clipPath><linearGradient id="linear-gradient" x1="371.86" y1="254.62" x2="371.86" y2="75.35" gradientUnits="userSpaceOnUse"><stop offset="0" stop-color="#ffc52f"/><stop offset="1" stop-color="#d69a1a"/></linearGradient></defs><g id="Layer_1" data-name="Layer 1"><g class="cls-2"><rect class="cls-3" x="-9.95" y="-40.48" width="763.65" height="404.64"/><path class="cls-4" d="M48.2,300.68v-127H60.55v-5.07l3.12-.5v-11.2l2.34-4c.37.13.75.15.82.31.59,1.31,1.13,2.65,1.83,4.35l-.9,1.35,1.44,2h5.93c-.42-3.27,1-6.19,2.64-9.2l1,2.11L97,137.83c-.28-5.24,1.16-9.85,3.88-14.56.58,2.87,1.1,5.43,1.7,8.38l1.51.49v5.73c3.22,2.74,6.45,5.47,9.67,8.22s5.28,6.3,9.3,8.21v7.64h13c1,1.08,2.11,2.41,3.39,3.52s1.86,3,4.34,2.81V136.63c0-3.11-.16-6.24.05-9.34.19-2.8.79-5.58,1.25-8.63h7c3.76-2.3,1.51-4.9.91-7.36l3-4.31c2.93-2.12,7.13-.63,11.2-1.1l3.78,4.17v8.33h8v4.77l2.14.73v18.43c5.48,0,10.8.19,16.1-.06,5-.23,10.19,1.14,15.2-.94V133.2l1.9-.39c.09-1.15.19-2.44.3-3.91h5.7l.91-2.47.84,2.24h5.81l.2,4.07,3,.47v9.11h18.2a2.49,2.49,0,0,1,.37.35.86.86,0,0,1,.17.45c0,5.86,0,11.72,0,18l3.95,1.37v-18L250.58,138l5.21-6.84-7-9.25c3.62-.16,6.87,1.58,9.43,5.24l1.29-2.32h2.63v1.54l-2.18.83,2.11,4.39-2.79,2.78c2.19,3-.33,6.87,1.81,10a2.71,2.71,0,0,1-.87,3.61c1.83,2.1.74,4.6.94,6.89s0,4.48,0,6.83l1.84.54c.5-6.47.08-12.79.27-19,.91-1.43,1.73-2.85,2.69-4.16s1.94-2.35,3.46-4.15c0,.09.06-.73.15-1.77h2.84c.11.89.2,1.71.32,2.71h10c.38-1.8.81-3.86,1.24-5.91s-.93-4.16,1-5.82l-1.66-2,2.81-.86,1.13,1-.74,1.62c.59,3.77,1.22,7.73,1.89,12h10l.28-2.67h2.77l.33,2.38c3.79.59,3.16,5.18,6.05,7.15v19.15h2.85c-.11.09.13,0,.13-.13q0-6.93,0-13.88l4.38-2.52,2.67,1.63.58-3.29,1.74-.62c.1-.78.19-1.6.3-2.48l1.82-.69c.09-.79.18-1.61.28-2.61h2.66c.19-1.1.35-2.05.54-3.13h3.71v2.48l2.12.73v2.44l2.15.74c.05.74.11,1.56.19,2.6h3.08c-.37-4.67.06-9.16,2.61-13.31,2.47,7.61,1.2,15.31,1.47,22.92.11,2.94,0,5.88,0,9.07h4.93c1-3.54-.77-7.44,1.05-10.82-.35-1.93-.7-3.86-1-5.48l2.81-3.84,2.28,3.09c-.27,2.3-1.13,4.44-.59,6.14,1.16,3.62.76,7.29.94,11l1.86.12V124l3-.57c.46-2.06.52-4.33,1.47-6.13,1.05-2,.88-3.88.93-5.86,0-2.18,0-4.36,0-7.21l3.22,2.15c-.41,1.13-1.35,2.36-1.07,3.17,1.59,4.6.7,9.83,3.51,14l1.64.38v16c1.87.86,2.32,0,2-1.68h32.08V127.43l1.74-1.72c.34.7.66,1.38,1.11,2.33l5.47-3.54v-5.38l1.81-1.81,2.6,3.39v3.66l4.67,3.21,2.27-1.28c.53,3.76,0,7.18.4,11.11a8.49,8.49,0,0,0,1.91-1.2c1.31-1.48,2.52-3,4.09-5,3,3.67,6.88,5.77,9.38,9.69V156.1l3.25,2.18c-1.45,2.55-1.47,2.55.43,4.8H450.8a2.43,2.43,0,0,0,.35-.31.79.79,0,0,0,.19-.44c0-6.21,0-12.42,0-19.15l12.28,2.08V142.7l32.22,5.08v2.66l7.54,1.77q-.64,5-1.36,10.73h3.11V137.42c1.64-1.65,2.82-2.86,4.33-4.39H516l6.88-5.23v31.94h4.22V128.07c1.43-.26,1.62,1.07,2.38,1.49a17.06,17.06,0,0,1,2,1.34c.81.6,1.58,1.25,2.54,2h7.08c.87,1.77,1.52,3.92,4.75,2.89v12c0,3.81-.42,7.68.12,11.41s-3.27,7.42.55,11.44c.2-1.6.35-2.8.54-4.37h7c.06-1,.11-1.68.15-2.3l-4.19-5.44v-5.26l3.6-3.71h5.89l2.65,1.31a4.29,4.29,0,0,0,.33.67c1.74,2.45.79,5.24,1.07,7.84l-3.05,3v3.58h9v-3.3l-4.09-5.71c.57-2,1-3.49,1.54-5.2,2.47-2.8,5.94-2.29,9.73-2.22l3.25,4.31c1,4.33-1,7.26-3.9,9.6V166h10.25c0-.77.08-1.44.12-2.22-1.37-1.2-2.77-2.45-4-3.56v-7.16l3.47-3.47c2.68.13,5.71-.62,8.69,1.49,1.71,2.38,1.19,5.44,1.13,8.43l-4.07,4.07v2.07c2.17,1.69,4-.16,6.09-.76v-8.85h18.19l1.79-2.16h11.2V142.08l8.07,6.35h3.55l9.85-4.16.59,1.55-11.78,6.05c2.58,2.12,4.53-.21,6.64-.26a46,46,0,0,0,6.33-1,20.82,20.82,0,0,1,7.15-.37l-2.12.6v4.83h12.35V110.17c4.38-.28,8.68.65,12.47-1.78,0-.26,0-.6-.08-1.3h-9.11c-.06-.83-.09-1.3-.14-2h15.36c-.07,2.06.71,3.94,3.29,4.43v55.39l4.18.44V300.68Z"/><path class="cls-5" d="M223.58,103.67s5.76-1.89,10.73-4c5.73-2.37,8.55,1.48,14.07,1.62s8.21-1.44,12.56-1c6.46.58,7.12,2.69,10.11,3.66Z"/><path class="cls-5" d="M126.62,70.88a115.06,115.06,0,0,0,19.25-6.32c10.92-4.59,25.86.29,30.74,2.59s10.48.72,13.36.43,12.78-.15,19.1,3.3Z"/><path class="cls-5" d="M605.21,113.78s5.76-1.89,10.73-4c5.73-2.37,8.55,1.49,14.07,1.62s8.21-1.44,12.56-1c6.46.58,7.11,2.69,10.11,3.66Z"/><path class="cls-5" d="M134,37.81s8.62-10,21.12-5.3,12,1.58,18.24,1.07c5.39-.43,7.53,3.64,12.14,4.23Z"/><path class="cls-5" d="M494.7,57.09s4.16-.72,13.29-5.25,19.14,2,25.72.65,12.64-1.81,18.06.71,9.29,1.67,14.19,1C571,53.52,573.57,56,582,57.09Z"/><path class="cls-5" d="M537.84,36a84.84,84.84,0,0,0,24.67-6.74c12.43-5.57,20.34-1.47,26.6,2,8.63,4.76,16.16,2.34,24.46,2.65A80.43,80.43,0,0,1,629,36Z"/><path class="cls-5" d="M343.82,42.07a59.65,59.65,0,0,0,9.59-3.48c8.48-3.83,14.17-.24,18.39.8,6.93,1.71,10.63-2.19,24.35-.34a122.63,122.63,0,0,1,13.93,3Z"/><path class="cls-5" d="M65.18,50s12.88-2.33,23-6.7,16.51,1.9,25.48,3.37,11.84-.83,19.24,0c5,.56,14.58,3.33,14.58,3.33Z"/><path class="cls-5" d="M288.12,60.77c-.25-1.36.5-2.74,0-4.08s-1.73-1.45-2.95-1.72c-2.65-.59-7.59-.81-7.83-4.36-.16-2.26.76-5.48-2-6.52a9.11,9.11,0,0,0-3.75-.07,13.83,13.83,0,0,1-5.49-.77c-1.77-.63-3.79-1.55-3-3.79.51-1.43,1.55-2.59,1.94-4.07a4.07,4.07,0,0,0-3.17-5.24c-2.61-.6-7.06,1.23-8.7-1.67-.83-1.48.81-2.69.81-4.17a3,3,0,0,0-1.4-2.35c-1.22-.82-2.67-.77-4.06-1a4.9,4.9,0,0,1-3.78-3.39,6.75,6.75,0,0,1,.32-4.66c.63-1.51,2.15-4.08,4.16-3.15,1.2.56,2.11,1.86,3.19,2.63a10.67,10.67,0,0,0,3.9,1.76c3.17.68,6.19-.51,9.12-1.57a23.31,23.31,0,0,1,8.72-1.63,14.14,14.14,0,0,1,4.28.78,12,12,0,0,1,1.88.89c1.16.69,2.22,1.36,2,2.88s-.7,2.67-.76,4.09a6.5,6.5,0,0,0,.76,4,5.13,5.13,0,0,0,3,1.59c1.55.4,3.13.71,4.65,1.21,3.49,1.15,6.86,4,5.47,8.05-.56,1.61-1.57,3-2.23,4.61a9.37,9.37,0,0,0-.66,4.68,10.65,10.65,0,0,0,1.81,4.59c1.09,1.68,2.59,3.85,1.11,5.77s-5.12,3.49-3.48,6.45c.35.63,1.32.06,1-.57-1-1.76,1.24-3.19,2.37-4.15a4.72,4.72,0,0,0,1.87-3.09c.31-3.31-3-5.59-3.49-8.73-.63-3.79,1.94-6.25,2.93-9.63a6.51,6.51,0,0,0-2.24-6.85c-2.47-2.13-5.73-2.63-8.78-3.43a4.94,4.94,0,0,1-2.2-.91,3.77,3.77,0,0,1-.77-2.73,12.75,12.75,0,0,1,.22-2.69,21.4,21.4,0,0,0,.6-2.58c.19-2.61-3.28-4.09-5.32-4.73a17.9,17.9,0,0,0-8.42-.3c-3.25.59-6.18,2.18-9.39,2.84a9,9,0,0,1-5.7-.58,18.63,18.63,0,0,1-3.91-2.94c-2.08-1.75-4.27-1-5.74,1.13a8.25,8.25,0,0,0-1.07,8.06,6.14,6.14,0,0,0,2.28,2.61c1.46.91,3.08.7,4.67,1.18.86.26,1.92.84,1.93,1.88a5.41,5.41,0,0,1-.78,2,3.12,3.12,0,0,0,.62,3.41c2.14,2.32,5.26,1.19,8,1.4,1.74.13,3.46,1,3.42,3s-1.36,3.23-2,4.86c-1.39,3.49,2.13,5,4.94,5.76a15.85,15.85,0,0,0,5.36.35,5.07,5.07,0,0,1,2.76.16c1,.55,1.18,1.83,1.17,2.88,0,1.6-.37,3.24.53,4.69a5.43,5.43,0,0,0,3,2.06,55.26,55.26,0,0,0,5.52,1.3c.54.13,1.24.19,1.6.69a2.7,2.7,0,0,1,.15,1.84,7.05,7.05,0,0,0-.06,2.38c.13.71,1.21.41,1.08-.3Z"/><path class="cls-5" d="M246.59,9.65a7.71,7.71,0,0,0-2.23,8.54,7.86,7.86,0,0,0,5.73,3.51c4.18.62,2.9,3.91,2.71,4.31s-1.59,4.75,3.25,4.65,8.92-.05,8.58,3.13-4.29,7.17-1.08,8.9a13.82,13.82,0,0,0,8,1.89c2.29-.17,5.05-.25,5.27,2.56s-.67,6,2.47,6.91,7.17,1.28,7.74,2.07.35,3.78.35,3.78.14,1.88,1.45,2a35.5,35.5,0,0,0,3.56,0s-.77-2.49,0-3.71,3.28-3.36,3.58-3.82a7.59,7.59,0,0,0-.67-5.69c-1.31-2.13-3.06-6.45-1.84-9.45s4.76-6.21,2.17-9.43-8.8-5-10.56-5.3-3.19-2.78-2.9-5.73,2-6.16-4.89-8-15.56,2.44-15.56,2.44-5,.87-6.87-.13a29.47,29.47,0,0,1-4.14-2.92L248.47,9Z"/><path class="cls-5" d="M455.12,91.29c-.26-1.36.5-2.74,0-4.08s-1.74-1.45-2.95-1.72c-2.65-.6-7.59-.81-7.84-4.36-.15-2.26.77-5.49-2-6.53a9.11,9.11,0,0,0-3.75-.06,13.88,13.88,0,0,1-5.5-.77c-1.76-.63-3.78-1.55-3-3.8.51-1.42,1.55-2.58,1.93-4.06a4.05,4.05,0,0,0-3.16-5.24c-2.61-.6-7.06,1.23-8.7-1.67-.83-1.48.8-2.69.81-4.17a3,3,0,0,0-1.4-2.35c-1.22-.83-2.68-.77-4.06-1a4.92,4.92,0,0,1-3.79-3.38,6.81,6.81,0,0,1,.33-4.66c.63-1.51,2.15-4.08,4.16-3.15,1.2.56,2.11,1.85,3.19,2.63a10.6,10.6,0,0,0,3.9,1.76c3.17.67,6.19-.52,9.12-1.58a23.26,23.26,0,0,1,8.72-1.62,14.14,14.14,0,0,1,4.28.78,12,12,0,0,1,1.88.89c1.16.69,2.21,1.35,2,2.88s-.7,2.67-.76,4.09a6.5,6.5,0,0,0,.76,4,5.09,5.09,0,0,0,3,1.58c1.55.41,3.13.71,4.65,1.22,3.49,1.15,6.86,4,5.47,8-.56,1.62-1.58,3-2.23,4.62a9.37,9.37,0,0,0-.66,4.68,10.41,10.41,0,0,0,1.81,4.59c1.09,1.68,2.59,3.85,1.11,5.76S457.37,88.07,459,91c.35.63,1.32.06,1-.57-1-1.76,1.25-3.19,2.37-4.16a4.65,4.65,0,0,0,1.88-3.08c.31-3.31-3-5.59-3.49-8.73-.63-3.8,1.94-6.25,2.93-9.63A6.51,6.51,0,0,0,461.42,58c-2.47-2.13-5.73-2.63-8.78-3.43a5.05,5.05,0,0,1-2.2-.91,3.77,3.77,0,0,1-.77-2.73,12.21,12.21,0,0,1,.22-2.7,23.32,23.32,0,0,0,.6-2.57c.19-2.61-3.28-4.1-5.32-4.73a17.93,17.93,0,0,0-8.43-.3c-3.24.59-6.17,2.18-9.39,2.84a9,9,0,0,1-5.69-.59A18,18,0,0,1,417.75,40c-2.08-1.75-4.27-1-5.74,1.13a8.25,8.25,0,0,0-1.07,8.06,6.18,6.18,0,0,0,2.27,2.61c1.47.91,3.09.7,4.68,1.18.85.26,1.92.84,1.93,1.88a5.48,5.48,0,0,1-.78,2,3.12,3.12,0,0,0,.62,3.41c2.14,2.31,5.26,1.19,8,1.39,1.74.14,3.46,1,3.42,3s-1.36,3.23-2,4.86c-1.39,3.49,2.13,5,4.94,5.75a15.58,15.58,0,0,0,5.36.36,5.07,5.07,0,0,1,2.76.16c1,.54,1.18,1.83,1.17,2.87,0,1.61-.38,3.25.53,4.7a5.36,5.36,0,0,0,3,2.05c1.78.6,3.69.89,5.52,1.31a2.51,2.51,0,0,1,1.6.69,2.7,2.7,0,0,1,.15,1.84,7,7,0,0,0-.06,2.38c.13.71,1.21.41,1.08-.3Z"/><path class="cls-5" d="M413.59,40.16a7.74,7.74,0,0,0-2.24,8.54,7.89,7.89,0,0,0,5.74,3.52c4.17.62,2.9,3.91,2.71,4.31s-1.59,4.75,3.25,4.65,8.92,0,8.58,3.13-4.29,7.17-1.08,8.9a13.9,13.9,0,0,0,8,1.89c2.29-.17,5.05-.25,5.26,2.56s-.66,6,2.47,6.91,7.18,1.27,7.75,2.06.35,3.78.35,3.78.13,1.89,1.45,2a32.55,32.55,0,0,0,3.56,0s-.77-2.48,0-3.71,3.28-3.35,3.58-3.81a7.59,7.59,0,0,0-.67-5.69c-1.31-2.13-3.06-6.46-1.84-9.45s4.76-6.21,2.17-9.43-8.8-5-10.57-5.3-3.18-2.78-2.89-5.74,2-6.15-4.89-8-15.56,2.44-15.56,2.44-5,.87-6.87-.13a30.79,30.79,0,0,1-4.15-2.92l-2.24-1.21Z"/><rect class="cls-6" x="287.26" y="60.59" width="4.24" height="12"/><polygon class="cls-7" points="287.38 61.25 291.66 62.43 291.66 60.72 287.38 60.72 287.38 61.25"/><rect class="cls-8" x="291.5" y="60.59" width="2.28" height="12"/><rect class="cls-9" x="287.58" y="58.39" width="8.16" height="3.01" rx="0.51"/><rect class="cls-10" x="285.3" y="58.39" width="8.16" height="3.01" rx="0.51"/><rect class="cls-8" x="258.28" y="75.26" width="116" height="225.42"/><rect class="cls-11" x="258.28" y="75.26" width="116" height="225.42"/><line class="cls-6" x1="257.11" y1="111.76" x2="375.44" y2="111.76"/><rect class="cls-8" x="257.11" y="71.96" width="118.33" height="3.3"/><line class="cls-6" x1="257.11" y1="148.25" x2="375.44" y2="148.25"/><line class="cls-6" x1="257.11" y1="184.75" x2="375.44" y2="184.75"/><line class="cls-6" x1="257.11" y1="221.25" x2="375.44" y2="221.25"/><line class="cls-6" x1="257.11" y1="257.75" x2="375.44" y2="257.75"/><rect class="cls-12" x="280.42" y="75.26" width="134.73" height="225.42"/><rect class="cls-11" x="280.42" y="75.26" width="134.73" height="225.42"/><path class="cls-5" d="M296.93,83.22h0a5.88,5.88,0,0,1,5.88,5.88v12.35a0,0,0,0,1,0,0H291.05a0,0,0,0,1,0,0V89.1a5.88,5.88,0,0,1,5.88-5.88Z"/><line class="cls-11" x1="290.52" y1="101.45" x2="303.33" y2="101.45"/><line class="cls-11" x1="290.52" y1="88.11" x2="303.33" y2="88.11"/><path class="cls-5" d="M322.36,83.22h0a5.88,5.88,0,0,1,5.88,5.88v12.35a0,0,0,0,1,0,0H316.48a0,0,0,0,1,0,0V89.1A5.88,5.88,0,0,1,322.36,83.22Z"/><line class="cls-11" x1="315.95" y1="101.45" x2="328.77" y2="101.45"/><line class="cls-11" x1="315.95" y1="88.11" x2="328.77" y2="88.11"/><path class="cls-5" d="M347.79,83.22h0a5.88,5.88,0,0,1,5.88,5.88v12.35a0,0,0,0,1,0,0H341.91a0,0,0,0,1,0,0V89.1A5.88,5.88,0,0,1,347.79,83.22Z"/><line class="cls-11" x1="341.39" y1="101.45" x2="354.2" y2="101.45"/><line class="cls-11" x1="341.39" y1="88.11" x2="354.2" y2="88.11"/><path class="cls-5" d="M373.22,83.22h0a5.88,5.88,0,0,1,5.88,5.88v12.35a0,0,0,0,1,0,0H367.34a0,0,0,0,1,0,0V89.1a5.88,5.88,0,0,1,5.88-5.88Z"/><line class="cls-11" x1="366.82" y1="101.45" x2="379.63" y2="101.45"/><line class="cls-11" x1="366.82" y1="88.11" x2="379.63" y2="88.11"/><line class="cls-6" x1="279.26" y1="111.76" x2="416.32" y2="111.76"/><rect class="cls-6" x="279.26" y="71.96" width="137.06" height="3.3"/><path class="cls-5" d="M296.93,119.72h0a5.88,5.88,0,0,1,5.88,5.88v12.35a0,0,0,0,1,0,0H291.05a0,0,0,0,1,0,0V125.59A5.88,5.88,0,0,1,296.93,119.72Z"/><line class="cls-11" x1="290.52" y1="137.94" x2="303.33" y2="137.94"/><line class="cls-11" x1="290.52" y1="124.6" x2="303.33" y2="124.6"/><path class="cls-5" d="M322.36,119.72h0a5.88,5.88,0,0,1,5.88,5.88v12.35a0,0,0,0,1,0,0H316.48a0,0,0,0,1,0,0V125.59A5.88,5.88,0,0,1,322.36,119.72Z"/><line class="cls-11" x1="315.95" y1="137.94" x2="328.77" y2="137.94"/><line class="cls-11" x1="315.95" y1="124.6" x2="328.77" y2="124.6"/><path class="cls-5" d="M347.79,119.72h0a5.88,5.88,0,0,1,5.88,5.88v12.35a0,0,0,0,1,0,0H341.91a0,0,0,0,1,0,0V125.59A5.88,5.88,0,0,1,347.79,119.72Z"/><line class="cls-11" x1="341.39" y1="137.94" x2="354.2" y2="137.94"/><line class="cls-11" x1="341.39" y1="124.6" x2="354.2" y2="124.6"/><path class="cls-5" d="M373.22,119.72h0a5.88,5.88,0,0,1,5.88,5.88v12.35a0,0,0,0,1,0,0H367.34a0,0,0,0,1,0,0V125.59a5.88,5.88,0,0,1,5.88-5.88Z"/><line class="cls-11" x1="366.82" y1="137.94" x2="379.63" y2="137.94"/><line class="cls-11" x1="366.82" y1="124.6" x2="379.63" y2="124.6"/><line class="cls-6" x1="279.26" y1="148.25" x2="416.32" y2="148.25"/><path class="cls-5" d="M296.93,156.21h0a5.88,5.88,0,0,1,5.88,5.88v12.35a0,0,0,0,1,0,0H291.05a0,0,0,0,1,0,0V162.09A5.88,5.88,0,0,1,296.93,156.21Z"/><line class="cls-11" x1="290.52" y1="174.44" x2="303.33" y2="174.44"/><line class="cls-11" x1="290.52" y1="161.1" x2="303.33" y2="161.1"/><path class="cls-5" d="M322.36,156.21h0a5.88,5.88,0,0,1,5.88,5.88v12.35a0,0,0,0,1,0,0H316.48a0,0,0,0,1,0,0V162.09A5.88,5.88,0,0,1,322.36,156.21Z"/><line class="cls-11" x1="315.95" y1="174.44" x2="328.77" y2="174.44"/><line class="cls-11" x1="315.95" y1="161.1" x2="328.77" y2="161.1"/><path class="cls-5" d="M347.79,156.21h0a5.88,5.88,0,0,1,5.88,5.88v12.35a0,0,0,0,1,0,0H341.91a0,0,0,0,1,0,0V162.09A5.88,5.88,0,0,1,347.79,156.21Z"/><line class="cls-11" x1="341.39" y1="174.44" x2="354.2" y2="174.44"/><line class="cls-11" x1="341.39" y1="161.1" x2="354.2" y2="161.1"/><path class="cls-5" d="M373.22,156.21h0a5.88,5.88,0,0,1,5.88,5.88v12.35a0,0,0,0,1,0,0H367.34a0,0,0,0,1,0,0V162.09A5.88,5.88,0,0,1,373.22,156.21Z"/><line class="cls-11" x1="366.82" y1="174.44" x2="379.63" y2="174.44"/><line class="cls-11" x1="366.82" y1="161.1" x2="379.63" y2="161.1"/><line class="cls-6" x1="279.26" y1="184.75" x2="416.32" y2="184.75"/><path class="cls-5" d="M296.93,192.71h0a5.88,5.88,0,0,1,5.88,5.88v12.35a0,0,0,0,1,0,0H291.05a0,0,0,0,1,0,0V198.59A5.88,5.88,0,0,1,296.93,192.71Z"/><line class="cls-11" x1="290.52" y1="210.94" x2="303.33" y2="210.94"/><line class="cls-11" x1="290.52" y1="197.6" x2="303.33" y2="197.6"/><path class="cls-5" d="M322.36,192.71h0a5.88,5.88,0,0,1,5.88,5.88v12.35a0,0,0,0,1,0,0H316.48a0,0,0,0,1,0,0V198.59a5.88,5.88,0,0,1,5.88-5.88Z"/><line class="cls-11" x1="315.95" y1="210.94" x2="328.77" y2="210.94"/><line class="cls-11" x1="315.95" y1="197.6" x2="328.77" y2="197.6"/><path class="cls-5" d="M347.79,192.71h0a5.88,5.88,0,0,1,5.88,5.88v12.35a0,0,0,0,1,0,0H341.91a0,0,0,0,1,0,0V198.59A5.88,5.88,0,0,1,347.79,192.71Z"/><line class="cls-11" x1="341.39" y1="210.94" x2="354.2" y2="210.94"/><line class="cls-11" x1="341.39" y1="197.6" x2="354.2" y2="197.6"/><path class="cls-5" d="M373.22,192.71h0a5.88,5.88,0,0,1,5.88,5.88v12.35a0,0,0,0,1,0,0H367.34a0,0,0,0,1,0,0V198.59A5.88,5.88,0,0,1,373.22,192.71Z"/><line class="cls-11" x1="366.82" y1="210.94" x2="379.63" y2="210.94"/><line class="cls-11" x1="366.82" y1="197.6" x2="379.63" y2="197.6"/><line class="cls-6" x1="279.26" y1="221.25" x2="416.32" y2="221.25"/><path class="cls-5" d="M296.93,229.21h0a5.88,5.88,0,0,1,5.88,5.88v12.35a0,0,0,0,1,0,0H291.05a0,0,0,0,1,0,0V235.09A5.88,5.88,0,0,1,296.93,229.21Z"/><line class="cls-11" x1="290.52" y1="247.44" x2="303.33" y2="247.44"/><line class="cls-11" x1="290.52" y1="234.1" x2="303.33" y2="234.1"/><path class="cls-5" d="M322.36,229.21h0a5.88,5.88,0,0,1,5.88,5.88v12.35a0,0,0,0,1,0,0H316.48a0,0,0,0,1,0,0V235.09a5.88,5.88,0,0,1,5.88-5.88Z"/><line class="cls-11" x1="315.95" y1="247.44" x2="328.77" y2="247.44"/><line class="cls-11" x1="315.95" y1="234.1" x2="328.77" y2="234.1"/><path class="cls-5" d="M347.79,229.21h0a5.88,5.88,0,0,1,5.88,5.88v12.35a0,0,0,0,1,0,0H341.91a0,0,0,0,1,0,0V235.09a5.88,5.88,0,0,1,5.88-5.88Z"/><line class="cls-11" x1="341.39" y1="247.44" x2="354.2" y2="247.44"/><line class="cls-11" x1="341.39" y1="234.1" x2="354.2" y2="234.1"/><path class="cls-5" d="M373.22,229.21h0a5.88,5.88,0,0,1,5.88,5.88v12.35a0,0,0,0,1,0,0H367.34a0,0,0,0,1,0,0V235.09A5.88,5.88,0,0,1,373.22,229.21Z"/><line class="cls-11" x1="366.82" y1="247.44" x2="379.63" y2="247.44"/><line class="cls-11" x1="366.82" y1="234.1" x2="379.63" y2="234.1"/><path class="cls-5" d="M296.93,265.8h0a5.88,5.88,0,0,1,5.88,5.88V284a0,0,0,0,1,0,0H291.05a0,0,0,0,1,0,0V271.68a5.88,5.88,0,0,1,5.88-5.88Z"/><line class="cls-11" x1="290.52" y1="284.03" x2="303.33" y2="284.03"/><line class="cls-11" x1="290.52" y1="270.69" x2="303.33" y2="270.69"/><path class="cls-5" d="M322.36,265.8h0a5.88,5.88,0,0,1,5.88,5.88V284a0,0,0,0,1,0,0H316.48a0,0,0,0,1,0,0V271.68A5.88,5.88,0,0,1,322.36,265.8Z"/><line class="cls-11" x1="315.95" y1="284.03" x2="328.77" y2="284.03"/><line class="cls-11" x1="315.95" y1="270.69" x2="328.77" y2="270.69"/><path class="cls-5" d="M347.79,265.8h0a5.88,5.88,0,0,1,5.88,5.88V284a0,0,0,0,1,0,0H341.91a0,0,0,0,1,0,0V271.68a5.88,5.88,0,0,1,5.88-5.88Z"/><line class="cls-11" x1="341.39" y1="284.03" x2="354.2" y2="284.03"/><line class="cls-11" x1="341.39" y1="270.69" x2="354.2" y2="270.69"/><path class="cls-5" d="M373.22,265.8h0a5.88,5.88,0,0,1,5.88,5.88V284a0,0,0,0,1,0,0H367.34a0,0,0,0,1,0,0V271.68a5.88,5.88,0,0,1,5.88-5.88Z"/><line class="cls-11" x1="366.82" y1="284.03" x2="379.63" y2="284.03"/><line class="cls-11" x1="366.82" y1="270.69" x2="379.63" y2="270.69"/><path class="cls-5" d="M398.65,83.22h0a5.88,5.88,0,0,1,5.88,5.88v12.35a0,0,0,0,1,0,0H392.78a0,0,0,0,1,0,0V89.1a5.88,5.88,0,0,1,5.88-5.88Z"/><line class="cls-11" x1="392.25" y1="101.45" x2="405.06" y2="101.45"/><line class="cls-11" x1="392.25" y1="88.11" x2="405.06" y2="88.11"/><path class="cls-5" d="M398.65,119.72h0a5.88,5.88,0,0,1,5.88,5.88v12.35a0,0,0,0,1,0,0H392.78a0,0,0,0,1,0,0V125.59a5.88,5.88,0,0,1,5.88-5.88Z"/><line class="cls-11" x1="392.25" y1="137.94" x2="405.06" y2="137.94"/><line class="cls-11" x1="392.25" y1="124.6" x2="405.06" y2="124.6"/><path class="cls-5" d="M398.65,156.21h0a5.88,5.88,0,0,1,5.88,5.88v12.35a0,0,0,0,1,0,0H392.78a0,0,0,0,1,0,0V162.09A5.88,5.88,0,0,1,398.65,156.21Z"/><line class="cls-11" x1="392.25" y1="174.44" x2="405.06" y2="174.44"/><line class="cls-11" x1="392.25" y1="161.1" x2="405.06" y2="161.1"/><path class="cls-5" d="M398.65,192.71h0a5.88,5.88,0,0,1,5.88,5.88v12.35a0,0,0,0,1,0,0H392.78a0,0,0,0,1,0,0V198.59a5.88,5.88,0,0,1,5.88-5.88Z"/><line class="cls-11" x1="392.25" y1="210.94" x2="405.06" y2="210.94"/><line class="cls-11" x1="392.25" y1="197.6" x2="405.06" y2="197.6"/><path class="cls-5" d="M398.65,229.21h0a5.88,5.88,0,0,1,5.88,5.88v12.35a0,0,0,0,1,0,0H392.78a0,0,0,0,1,0,0V235.09A5.88,5.88,0,0,1,398.65,229.21Z"/><line class="cls-11" x1="392.25" y1="247.44" x2="405.06" y2="247.44"/><line class="cls-11" x1="392.25" y1="234.1" x2="405.06" y2="234.1"/><path class="cls-5" d="M398.65,265.8h0a5.88,5.88,0,0,1,5.88,5.88V284a0,0,0,0,1,0,0H392.78a0,0,0,0,1,0,0V271.68A5.88,5.88,0,0,1,398.65,265.8Z"/><line class="cls-11" x1="392.25" y1="284.03" x2="405.06" y2="284.03"/><line class="cls-11" x1="392.25" y1="270.69" x2="405.06" y2="270.69"/><line class="cls-6" x1="279.26" y1="257.75" x2="416.32" y2="257.75"/><polygon class="cls-7" points="415.15 75.26 280.42 77.1 280.42 75.26 415.15 75.26"/><polygon class="cls-7" points="279.26 71.96 279.26 73.61 415.7 71.96 279.26 71.96"/><rect class="cls-6" x="453.72" y="92.06" width="4.24" height="12"/><polygon class="cls-7" points="453.85 92.73 458.13 93.91 458.13 92.19 453.85 92.19 453.85 92.73"/><rect class="cls-8" x="457.97" y="92.06" width="2.28" height="12"/><rect class="cls-9" x="454.05" y="89.87" width="8.16" height="3.01" rx="0.51"/><rect class="cls-10" x="451.77" y="89.87" width="8.16" height="3.01" rx="0.51"/><polygon class="cls-8" points="464.96 124.36 464.96 103.11 447.95 103.11 447.95 81.87 430.95 81.87 430.95 103.11 413.94 103.11 413.94 124.36 396.94 124.36 396.94 158.72 413.94 158.72 430.95 158.72 447.95 158.72 464.96 158.72 481.97 158.72 481.97 124.36 464.96 124.36"/><rect class="cls-8" x="415.7" y="161.28" width="111.9" height="49.6"/><rect class="cls-8" x="415.7" y="210.88" width="111.9" height="89.52"/><rect class="cls-8" x="495.51" y="109.41" width="17.85" height="48.01"/><rect class="cls-8" x="414.36" y="161.28" width="115.7" height="4"/><rect class="cls-8" x="414.36" y="210.88" width="115.7" height="4"/><rect class="cls-8" x="494.17" y="108" width="20.52" height="2.81"/><path class="cls-13" d="M486.14,108l12.94-30.32a.89.89,0,0,1,1.71,0L513.36,108Z"/><polygon class="cls-6" points="460.09 124.36 460.09 103.11 443.08 103.11 443.08 81.87 426.08 81.87 426.08 103.11 409.07 103.11 409.07 124.36 392.07 124.36 392.07 158.72 409.07 158.72 426.08 158.72 443.08 158.72 460.09 158.72 477.1 158.72 477.1 124.36 460.09 124.36"/><line class="cls-11" x1="424.9" y1="81.87" x2="444.26" y2="81.87"/><line class="cls-11" x1="443.08" y1="103.11" x2="461.27" y2="103.11"/><line class="cls-11" x1="460.09" y1="124.36" x2="478.28" y2="124.36"/><line class="cls-11" x1="426.08" y1="103.11" x2="407.89" y2="103.11"/><line class="cls-11" x1="409.07" y1="124.36" x2="390.89" y2="124.36"/><circle class="cls-14" cx="434.58" cy="94.75" r="4.34"/><circle class="cls-14" cx="418.16" cy="114.42" r="4.34"/><circle class="cls-14" cx="401.53" cy="133.9" r="4.34"/><circle class="cls-14" cx="467.83" cy="133.9" r="4.34"/><circle class="cls-14" cx="450.12" cy="114.42" r="4.34"/><rect class="cls-15" x="423.09" y="126.74" width="22.99" height="22.99"/><line class="cls-11" x1="434.58" y1="125.84" x2="434.58" y2="150.64"/><line class="cls-11" x1="446.98" y1="138.24" x2="422.18" y2="138.24"/><rect class="cls-6" x="392.09" y="161.28" width="111.9" height="49.6"/><rect class="cls-6" x="392.09" y="210.88" width="111.9" height="89.52"/><rect class="cls-5" x="404.52" y="177.14" width="21.89" height="21.89"/><line class="cls-11" x1="415.46" y1="176.28" x2="415.46" y2="199.9"/><line class="cls-11" x1="427.27" y1="188.09" x2="403.65" y2="188.09"/><rect class="cls-15" x="438.29" y="177.14" width="21.89" height="21.89"/><line class="cls-11" x1="449.24" y1="176.28" x2="449.24" y2="199.9"/><line class="cls-11" x1="461.05" y1="188.09" x2="437.43" y2="188.09"/><rect class="cls-5" x="472.07" y="177.14" width="21.89" height="21.89"/><line class="cls-11" x1="483.01" y1="176.28" x2="483.01" y2="199.9"/><line class="cls-11" x1="494.82" y1="188.09" x2="471.2" y2="188.09"/><rect class="cls-11" x="400.38" y="289.38" width="28.84" height="3.67"/><rect class="cls-11" x="404.7" y="285.71" width="24.52" height="3.67"/><rect class="cls-11" x="408.66" y="282.04" width="20.56" height="3.67"/><rect class="cls-8" x="419.39" y="289.38" width="12.96" height="3.67"/><rect class="cls-11" x="396.43" y="293.06" width="32.4" height="3.67"/><rect class="cls-8" x="415.24" y="293.06" width="17.11" height="3.67"/><rect class="cls-11" x="392.09" y="296.73" width="36.31" height="3.67"/><rect class="cls-8" x="411.31" y="296.73" width="21.04" height="3.67"/><rect class="cls-8" x="423.71" y="285.71" width="8.64" height="3.67"/><rect class="cls-8" x="427.67" y="282.04" width="4.68" height="3.67"/><path class="cls-14" d="M420.89,248h0a10.36,10.36,0,0,1,10.36,10.36V282a0,0,0,0,1,0,0H410.53a0,0,0,0,1,0,0V258.37A10.36,10.36,0,0,1,420.89,248Z"/><path class="cls-10" d="M420.89,252h0a6.78,6.78,0,0,1,6.78,6.78v19.37a0,0,0,0,1,0,0H414.11a0,0,0,0,1,0,0V258.8A6.78,6.78,0,0,1,420.89,252Z"/><line class="cls-14" x1="420.89" y1="252.01" x2="420.89" y2="278.16"/><line class="cls-14" x1="414.11" y1="262.26" x2="427.67" y2="262.26"/><line class="cls-14" x1="414.11" y1="270.5" x2="427.67" y2="270.5"/><circle class="cls-7" cx="429.22" cy="267" r="0.79"/><rect class="cls-15" x="437.27" y="245.91" width="14.27" height="19.77"/><line class="cls-11" x1="436.34" y1="252.58" x2="452.46" y2="252.58"/><rect class="cls-5" x="460.12" y="245.91" width="14.27" height="19.77"/><line class="cls-11" x1="459.19" y1="252.58" x2="475.32" y2="252.58"/><rect class="cls-5" x="482.23" y="245.91" width="14.27" height="19.77"/><line class="cls-11" x1="481.29" y1="252.58" x2="497.42" y2="252.58"/><rect class="cls-5" x="437.27" y="220.24" width="14.27" height="19.77"/><line class="cls-11" x1="436.34" y1="226.91" x2="452.46" y2="226.91"/><rect class="cls-5" x="460.12" y="220.24" width="14.27" height="19.77"/><line class="cls-11" x1="459.19" y1="226.91" x2="475.32" y2="226.91"/><rect class="cls-5" x="413.76" y="220.24" width="14.27" height="19.77"/><line class="cls-11" x1="412.83" y1="226.91" x2="428.96" y2="226.91"/><rect class="cls-15" x="482.23" y="220.24" width="14.27" height="19.77"/><line class="cls-11" x1="481.29" y1="226.91" x2="497.42" y2="226.91"/><path class="cls-6" d="M490.85,300.4v-6.17a20.22,20.22,0,0,0-40.44,0v6.17Z"/><path class="cls-8" d="M455.1,297.13a20.23,20.23,0,0,1,28.41-18.49,20.22,20.22,0,0,0-33.1,15.59v6.17h4.69Z"/><rect class="cls-6" x="486.14" y="109.41" width="17.85" height="48.01"/><rect class="cls-6" x="389.63" y="161.28" width="116.82" height="4"/><rect class="cls-8" x="412.53" y="157.27" width="120.31" height="4"/><rect class="cls-6" x="387.98" y="157.27" width="120.31" height="4"/><rect class="cls-6" x="389.63" y="210.88" width="116.82" height="4"/><polygon class="cls-7" points="503.99 214.88 392.09 214.88 392.09 217.42 503.99 214.88"/><polygon class="cls-7" points="503.99 165.28 392.09 165.28 392.09 167.44 503.99 165.28"/><polygon class="cls-7" points="506.45 161.28 389.63 161.28 389.63 163.44 506.45 161.28"/><polygon class="cls-7" points="506.45 210.88 389.63 210.88 389.63 213.04 506.45 210.88"/><polygon class="cls-7" points="508.28 157.27 387.98 157.27 387.98 159.44 508.28 157.27"/><polygon class="cls-7" points="392.07 124.36 409.07 124.36 392.09 126.27 392.07 124.36"/><polygon class="cls-7" points="409.24 103.11 426.25 103.11 409.26 105.02 409.24 103.11"/><polygon class="cls-7" points="426.08 81.87 443.08 81.87 426.1 83.77 426.08 81.87"/><rect class="cls-6" x="484.81" y="108" width="20.52" height="2.81"/><rect class="cls-6" x="497.81" y="76.56" width="4.26" height="1.62"/><line class="cls-6" x1="499.94" y1="76.56" x2="499.94" y2="73.72"/><circle class="cls-6" cx="499.94" cy="73.72" r="1.13"/><line class="cls-6" x1="487.92" y1="110.81" x2="487.92" y2="112.31"/><line class="cls-6" x1="490.83" y1="110.81" x2="490.83" y2="112.31"/><line class="cls-6" x1="493.73" y1="110.81" x2="493.73" y2="112.31"/><line class="cls-6" x1="496.63" y1="110.81" x2="496.63" y2="112.31"/><line class="cls-6" x1="499.54" y1="110.81" x2="499.54" y2="112.31"/><line class="cls-6" x1="502.44" y1="110.81" x2="502.44" y2="112.31"/><path class="cls-5" d="M495.07,116.57h0a1.5,1.5,0,0,1,1.5,1.5v11.5a0,0,0,0,1,0,0h-3a0,0,0,0,1,0,0v-11.5A1.5,1.5,0,0,1,495.07,116.57Z"/><line class="cls-6" x1="492.82" y1="129.56" x2="497.32" y2="129.56"/><rect class="cls-16" x="394.8" y="169.16" width="6.21" height="2.76"/><rect class="cls-16" x="398.31" y="172.88" width="6.21" height="2.76"/><rect class="cls-16" x="398.88" y="204.37" width="6.21" height="2.76"/><rect class="cls-16" x="428.02" y="195.45" width="6.21" height="2.76"/><rect class="cls-16" x="431.73" y="199.86" width="6.21" height="2.76"/><rect class="cls-16" x="457.28" y="169.3" width="6.21" height="2.76"/><rect class="cls-16" x="468.54" y="204.37" width="6.21" height="2.76"/><rect class="cls-16" x="399.66" y="224.15" width="6.21" height="2.76"/><rect class="cls-16" x="397.27" y="229.06" width="6.21" height="2.76"/><rect class="cls-16" x="426.91" y="244.55" width="6.21" height="2.76"/><rect class="cls-16" x="398.31" y="272.63" width="6.21" height="2.76"/><rect class="cls-16" x="437.27" y="267.8" width="6.21" height="2.76"/><rect class="cls-16" x="440.37" y="272.63" width="6.21" height="2.76"/><rect class="cls-16" x="472.22" y="286.17" width="6.21" height="2.76"/><rect class="cls-16" x="466.78" y="289.84" width="6.21" height="2.76"/><rect class="cls-16" x="488.62" y="276.78" width="6.21" height="2.76"/><rect class="cls-16" x="493.39" y="269.87" width="6.21" height="2.76"/><rect class="cls-16" x="472.78" y="216.64" width="6.21" height="2.76"/><rect class="cls-16" x="494.21" y="168.62" width="6.21" height="2.76"/><rect class="cls-16" x="403.65" y="150.64" width="6.21" height="2.76"/><rect class="cls-16" x="398.43" y="146.43" width="6.21" height="2.76"/><rect class="cls-16" x="411.25" y="135" width="6.21" height="2.76"/><rect class="cls-16" x="430.24" y="116.57" width="6.21" height="2.76"/><rect class="cls-16" x="451.36" y="140.18" width="6.21" height="2.76"/><rect class="cls-16" x="453.88" y="135" width="6.21" height="2.76"/><rect class="cls-16" x="448.43" y="123.93" width="6.21" height="2.76"/><rect class="cls-16" x="428.38" y="110.92" width="6.21" height="2.76"/><rect class="cls-16" x="466.78" y="151.99" width="6.21" height="2.76"/><rect class="cls-16" x="492.41" y="150.61" width="6.21" height="2.76"/><rect class="cls-16" x="489.31" y="145.74" width="6.21" height="2.76"/><rect class="cls-16" x="495.07" y="132.03" width="6.21" height="2.76"/><circle class="cls-7" cx="360.29" cy="228.16" r="3"/><rect class="cls-10" x="365.67" y="228.16" width="22.53" height="26.43"/><line class="cls-11" x1="397.27" y1="228.16" x2="360.29" y2="228.16"/><path class="cls-5" d="M382.17,234.84l.36,1.57-1.14,1.05c-.14-.44-.2-1-.35-1.47Z"/><path class="cls-5" d="M377.8,235.52c-.27.45-.47.92-.77,1.37l-.77-1.39.77-1.4C377.3,234.59,377.56,235,377.8,235.52Z"/><path class="cls-5" d="M372.7,237.49l-1.13-1.08c.11-.51.21-1,.35-1.5L373,236C373,236.48,372.82,237,372.7,237.49Z"/><path class="cls-5" d="M369.09,238c0,.46.06.89,0,1.33-.47-.69-.92-1.39-1.38-2.08A12.66,12.66,0,0,1,369.09,238Z"/><path class="cls-5" d="M386.48,237.22c-.22.41-.53.75-.77,1.15l-.49.8a.34.34,0,0,1-.13.14l.07-1.36a12.21,12.21,0,0,1,1.32-.73Z"/><polygon class="cls-5" points="386.48 237.22 386.48 237.22 386.48 237.22 386.48 237.22"/><path class="cls-5" d="M380.23,246.58A7.28,7.28,0,0,1,379,247a8.88,8.88,0,0,1-3.52.08,4,4,0,0,1-2.35-1,4.66,4.66,0,0,0-1.22.87c-.14.09-.05.17,0,.25a.1.1,0,0,0,.05.1h0a.18.18,0,0,0,.1.14l0,.05a.06.06,0,0,0,.05.06.24.24,0,0,0,.09.11h0l0,.05h0l0,.05h0s0,0,.05,0h0a.68.68,0,0,0,.26.22s0,0,0,0a.05.05,0,0,0,.06,0,.11.11,0,0,0,.09.06.05.05,0,0,0,.06,0,.32.32,0,0,0,.19.1.05.05,0,0,0,.05,0h0a.09.09,0,0,0,.09,0h0a.12.12,0,0,0,.1.05h0a.11.11,0,0,0,.1,0h0a.07.07,0,0,0,.07,0h0a2.62,2.62,0,0,0,.75.28.1.1,0,0,0,.1,0,7,7,0,0,0,2.09.34h.14a4.46,4.46,0,0,0,.73,0,1,1,0,0,0,.34,0,5,5,0,0,0,.87-.07.12.12,0,0,0,.1,0,1,1,0,0,0,.47-.1h0a3.74,3.74,0,0,0,1.09-.34,3.24,3.24,0,0,0,2-1.58,4.68,4.68,0,0,0-1.33-1A2.06,2.06,0,0,1,380.23,246.58Z"/><path class="cls-5" d="M372.34,240.53c-.06,0-.09.06-.12.11h0a.74.74,0,0,0,0,.9h0a.36.36,0,0,0,.2.2h0a.69.69,0,0,0,.72,0h0c.07,0,.14,0,.23,0l.39,1c-.08.17-.22.28-.29.44l0,0s0,0,0,0a5.18,5.18,0,0,1,1.16-.27c-.18-.14-.39-.16-.54-.28-.05-.36-.13-.72-.15-1.09l.5-.16a.54.54,0,0,0,.34-.29.8.8,0,0,0-.25-1c-.09-.11-.22-.11-.34-.16a.57.57,0,0,0-.2-.76.32.32,0,0,0-.32-.11c-.1,0-.17.09-.27.08h0a.57.57,0,0,0-.14-.35.05.05,0,0,0,0,0s0-.05,0-.05h0c-.25-.18-.38-.16-.55.05h0c-.18.2-.08.42-.06.63-.15.06-.33,0-.41.2a.53.53,0,0,0,.17,0,.53.53,0,0,1-.17,0l0,0a.5.5,0,0,0,0,.57h0a.16.16,0,0,0,.09.15h0c0,.09.13.09.11.19Zm.33-1.13h0Zm0-.05h0Zm0,0h0Zm0,0h0Zm.05.23h0Zm0-.06h0Zm1.36-.22Zm-.54,0,.06,0-.06,0h0Zm.08,2.09a.74.74,0,0,0,.18-.17.08.08,0,0,0,.05,0s0,0,.05-.05a.14.14,0,0,0,.1-.08h0a.14.14,0,0,0,.07-.08h0a.49.49,0,0,0,.2-.18h0c.07.07,0,.11,0,.18h0a1,1,0,0,0-.15.33h0l-.15.28a3.18,3.18,0,0,1-.53.14l-.22-.12h0s0,0-.05,0h0a.1.1,0,0,0-.09-.06.39.39,0,0,0-.2-.14.08.08,0,0,0-.05-.05s-.11,0,0-.1a5.41,5.41,0,0,0,.58.12h0A1.17,1.17,0,0,0,373.58,241.34Zm-.26-2.37c0-.05,0-.1,0-.15S373.31,238.92,373.32,239Zm0-.15Zm0,0Zm.05.2v0Zm0,0v0Zm0,0h0Zm0,0h0Zm0,0v0Zm0,0h0Zm0,0h0Zm0,0h0Zm0,0h0Zm0,0h0Zm-.18-.42h0a3.29,3.29,0,0,0-.54.05A3.29,3.29,0,0,1,373.22,238.72Z"/><path class="cls-5" d="M374.15,245.38a11.51,11.51,0,0,1,5.09-.17,5.82,5.82,0,0,1,2.84,1.32.24.24,0,0,0,.16.08,1.11,1.11,0,0,0-.3-.54,4,4,0,0,0-1.38-.83,9.82,9.82,0,0,0-3.91-.59,9,9,0,0,0-3.32.69,3.22,3.22,0,0,0-1.17.75.71.71,0,0,0-.26.5c.1,0,.15-.08.21-.13A5.57,5.57,0,0,1,374.15,245.38Z"/><path class="cls-5" d="M383.89,241.08a.53.53,0,0,0-.66-.06c-.22.16-.2.4-.17.63-.27,0-.5,0-.61.26a.57.57,0,0,0,0,.51.1.1,0,0,0,.05.1.06.06,0,0,0,0,.06h0l.05,0h0l0,0h0a.09.09,0,0,0,.06,0s0,0,.05,0a.07.07,0,0,0,.06,0h0a.41.41,0,0,0,.17.12h0c.06.08.17.09.22.21-.1.28-.15.61-.27.9a2.13,2.13,0,0,0-.5.11,1.53,1.53,0,0,1,.5.32c.14-.45.29-.88.46-1.34-.14,0-.14-.12-.17-.22a2.1,2.1,0,0,0-.21-.51,0,0,0,0,0,0,0v-.11a5.72,5.72,0,0,1,.52.56c.29-.73.63-1.42,1-2.13C384.12,240.64,384,240.85,383.89,241.08Z"/><path class="cls-5" d="M371.14,242.92a.13.13,0,0,0,.09-.06.72.72,0,0,0,.48-.73.48.48,0,0,0-.52-.49c-.05,0-.11.05-.16,0a.51.51,0,0,0-.16-.59.53.53,0,0,0-.66,0c-.2-.35-.3-.42-.55-.36.33.69.66,1.38,1,2.11a3.62,3.62,0,0,1,.49-.54v.11a.9.9,0,0,0-.13.32h0c-.11.14-.05.36-.25.44.18.44.32.88.47,1.34a1.48,1.48,0,0,1,.48-.35,4,4,0,0,0-.5-.1,8.08,8.08,0,0,1-.26-.93C371,243,371.09,243,371.14,242.92Z"/><path class="cls-5" d="M379.53,241.35h0a5.76,5.76,0,0,0,.6.24l-.17,1.07c-.16.12-.36.14-.52.29a4.2,4.2,0,0,1,1.23.31l-.36-.49.41-1a2.38,2.38,0,0,1,.42.09.61.61,0,0,0,.64-.16h0a.28.28,0,0,0,.12-.16.1.1,0,0,0,0-.1s0,0,0,0a.65.65,0,0,0-.16-.8s0,0-.05,0,.15-.13.16-.24a0,0,0,0,0,0-.06h0a.49.49,0,0,0,0-.51s0,0,0,0a.1.1,0,0,0,0-.1h0s0,0-.05,0-.26-.08-.38-.16a.83.83,0,0,0,0-.35.41.41,0,0,0-.24-.41.33.33,0,0,0-.41.09s0,0-.05.05a.07.07,0,0,0,0,0c-.1.1-.1.25-.17.36-.19-.08-.38-.17-.56,0a.19.19,0,0,0-.15.15h0a.62.62,0,0,0,0,.63.5.5,0,0,0-.34.14s0,0-.06.05,0,0-.05,0a.45.45,0,0,0-.18.3A.65.65,0,0,0,379.53,241.35Zm1.81-1.94a.08.08,0,0,1,0,0,.08.08,0,0,0,0,0Zm.06.09,0,0Zm.09,0Zm0,0h0Zm0,0h0Zm0,0Zm.17,1.64h0s0,0,0,0S381.74,241.16,381.73,241.15Zm.13-1.6Zm-1.15-.39h0Zm-.39,0h0Zm.29.09h0Zm0,0h0Zm0,0h0Zm0,0h0Zm0,0h0Zm0,0h0Zm0,0h0Zm0,0h0Zm-.07,0h0Zm-.23,0h0l.07,0-.07,0Zm.19,0h0Zm0,0h0Zm0,0h0Zm-.26.18Zm-.07,1.41v0l.4.35.27.24c.31,0,.6-.15.91-.17l-.09.1a1.37,1.37,0,0,1-.11.07.11.11,0,0,0-.09.07.05.05,0,0,0-.06,0h0l-.33.21a3.37,3.37,0,0,1-.55-.12l-.17-.33a.34.34,0,0,0-.09-.19s0-.08,0-.1a.05.05,0,0,0,0,0,.08.08,0,0,0,0-.08Z"/><path class="cls-5" d="M375.88,241.16c.08.11.21.11.33.12s.34,0,.52,0l.13,1.11-.43.35a5.64,5.64,0,0,1,1.23,0c-.14-.18-.34-.24-.44-.4,0-.37.06-.73.13-1.09l.5,0a.63.63,0,0,0,.47-.25.8.8,0,0,0-.05-1h0s0,0,0,0a.18.18,0,0,0-.15-.1s0,0,0,0,0,0,0,0-.05,0-.05-.09l0,0,0,0a.52.52,0,0,0,.05-.68c-.1-.29-.35-.28-.59-.26,0-.15,0-.3-.09-.43a.15.15,0,0,0-.09-.14h0c-.21-.17-.24-.18-.45,0h0c-.26.14-.25.38-.24.63h-.09c-.48-.12-.71.41-.58.75l.1.22a.73.73,0,0,0-.43.64.33.33,0,0,0,0,.14A.64.64,0,0,0,375.88,241.16Zm2.21-1.2h0Zm.09,0h0Zm-.07,0h0Zm0,0h0Zm0,0h0Zm.06,0h0Zm-.13,0v0Zm-.09-.19h0Zm.08-.24h0Zm0,0v0Zm0,0h0Zm0,0v0Zm0,0v0Zm0,.05h0Zm.05-.23Zm0-.37Zm-.22-.15Zm0,0Zm0,0Zm-.1,0h0Zm-.26,0h0Zm0,0v0Zm0,0v0Zm0,0v0Zm0,0v0Zm0,0v0Zm0,0c0-.11,0-.22,0-.33h0C377.4,238.54,377.38,238.65,377.39,238.76Zm-.09-.47Zm0,0h0Zm0,0h0Zm-.15-.07a.78.78,0,0,0-.3,0A.78.78,0,0,1,377.15,238.28Zm-.41.23a1.91,1.91,0,0,0-.13.36h0A1.91,1.91,0,0,1,376.74,238.51Zm-.27,2.16h0s0,.05.1.05h0a.11.11,0,0,0,.09.05,1.64,1.64,0,0,0,.39.21,1.57,1.57,0,0,0,.29-.16h0a.12.12,0,0,0,.1,0,.55.55,0,0,0,.25-.13h0a.17.17,0,0,0,.11-.06s0,0,0,0,0,0,0,.05a.66.66,0,0,0-.2.24h0c-.13.1-.21.26-.35.38h-.54l-.16-.14h0a.05.05,0,0,0,0,0,.05.05,0,0,0,0-.06h0s0-.07-.07-.08a.05.05,0,0,0,0,0s0-.05-.05-.05a.09.09,0,0,0-.06-.08h0s0,0-.05-.05l0,0C376.32,240.57,376.38,240.68,376.47,240.67Z"/><path class="cls-14" d="M486.66,262.32c0-12.54,7.24-13.59,8-25.08.67-10.6,0-20,11.83-20s11.17,9.37,11.83,20c.72,11.49,8,12.54,8,25.08C526.25,289.25,486.66,289.25,486.66,262.32Z"/><line class="cls-11" x1="506.45" y1="233.2" x2="506.45" y2="300.68"/><line class="cls-11" x1="506.45" y1="274.08" x2="518.7" y2="261.83"/><line class="cls-11" x1="506.45" y1="260.14" x2="498.55" y2="252.25"/><line class="cls-11" x1="506.45" y1="270.12" x2="509.62" y2="266.95"/><line class="cls-11" x1="506.45" y1="239.63" x2="504.52" y2="237.7"/><path class="cls-8" d="M655.17,300.68c-4-4.93-11.12-8.22-18.69-8.22a27.62,27.62,0,0,0-9.51,1.72c-3.86-5.35-11.31-9-19.28-9-10.89,0-21.5,6.8-22.65,15.49Z"/><line class="cls-6" x1="586.82" y1="167.77" x2="589.99" y2="173.62"/><line class="cls-6" x1="575.74" y1="167.77" x2="572.57" y2="173.62"/><path class="cls-13" d="M573.85,153.92H588.7a0,0,0,0,1,0,0v8.92a7.43,7.43,0,0,1-7.43,7.43h0a7.43,7.43,0,0,1-7.43-7.43v-8.92A0,0,0,0,1,573.85,153.92Z"/><polygon class="cls-14" points="572.93 153.91 589.62 153.91 581.24 146.99 572.93 153.91"/><line class="cls-6" x1="572.93" y1="157.11" x2="589.62" y2="157.11"/><line class="cls-6" x1="574.05" y1="166.96" x2="588.5" y2="166.96"/><rect class="cls-6" x="517.46" y="181.13" width="76.19" height="119.54"/><rect class="cls-6" x="515.99" y="177.17" width="79.12" height="3.96"/><rect class="cls-8" x="593.65" y="181.13" width="18.13" height="119.54"/><rect class="cls-8" x="595.12" y="177.17" width="18.13" height="3.96"/><rect class="cls-8" x="597.19" y="173.21" width="18.13" height="3.96"/><rect class="cls-6" x="513.92" y="173.21" width="83.27" height="3.96"/><rect class="cls-15" x="527.97" y="194.1" width="21.89" height="21.89"/><line class="cls-11" x1="538.92" y1="193.23" x2="538.92" y2="216.85"/><line class="cls-11" x1="550.73" y1="205.04" x2="527.11" y2="205.04"/><rect class="cls-5" x="561.75" y="194.1" width="21.89" height="21.89"/><line class="cls-11" x1="572.69" y1="193.23" x2="572.69" y2="216.85"/><line class="cls-11" x1="584.5" y1="205.04" x2="560.88" y2="205.04"/><rect class="cls-5" x="527.97" y="226.43" width="21.89" height="21.89"/><line class="cls-11" x1="538.92" y1="225.57" x2="538.92" y2="249.19"/><line class="cls-11" x1="550.73" y1="237.38" x2="527.11" y2="237.38"/><rect class="cls-5" x="524.23" y="268.08" width="33.13" height="21.89"/><line class="cls-11" x1="540.79" y1="267.21" x2="540.79" y2="290.83"/><line class="cls-11" x1="558.22" y1="279.02" x2="523.36" y2="279.02"/><rect class="cls-15" x="561.75" y="226.43" width="21.89" height="21.89"/><line class="cls-11" x1="572.69" y1="225.57" x2="572.69" y2="249.19"/><line class="cls-11" x1="584.5" y1="237.38" x2="560.88" y2="237.38"/><line class="cls-11" x1="527.97" y1="181.13" x2="527.97" y2="183.94"/><line class="cls-11" x1="541.51" y1="181.13" x2="541.51" y2="183.94"/><line class="cls-11" x1="555.05" y1="181.13" x2="555.05" y2="183.94"/><line class="cls-11" x1="568.59" y1="181.13" x2="568.59" y2="183.94"/><line class="cls-11" x1="582.13" y1="181.13" x2="582.13" y2="183.94"/><rect class="cls-11" x="557.95" y="297" width="28.84" height="3.67"/><rect class="cls-11" x="562.27" y="293.33" width="24.52" height="3.67"/><rect class="cls-11" x="566.23" y="289.66" width="20.56" height="3.67"/><rect class="cls-8" x="576.96" y="297" width="12.96" height="3.67"/><rect class="cls-8" x="581.28" y="293.33" width="8.64" height="3.67"/><rect class="cls-8" x="585.25" y="289.66" width="4.68" height="3.67"/><path class="cls-14" d="M578.46,255.63h0A10.36,10.36,0,0,1,588.82,266v23.67a0,0,0,0,1,0,0H568.1a0,0,0,0,1,0,0V266a10.36,10.36,0,0,1,10.36-10.36Z"/><path class="cls-15" d="M578.46,259.63h0a6.78,6.78,0,0,1,6.78,6.78v19.37a0,0,0,0,1,0,0H571.68a0,0,0,0,1,0,0V266.42A6.78,6.78,0,0,1,578.46,259.63Z"/><polygon class="cls-13" points="512.66 275.82 512.66 270.69 523.66 262.44 562.27 262.44 562.27 275.82 512.66 275.82"/><polyline class="cls-11" points="554.3 262.44 543.3 270.69 543.3 275.82"/><polyline class="cls-11" points="546.34 262.44 535.34 270.69 535.34 275.82"/><polyline class="cls-11" points="538.37 262.44 527.37 270.69 527.37 275.82"/><polyline class="cls-11" points="530.41 262.44 519.4 270.69 519.4 275.82"/><polygon class="cls-8" points="562.27 262.44 551.27 270.69 551.27 275.82 562.27 275.82 562.27 262.44"/><polygon class="cls-7" points="515.99 177.17 595.12 177.17 515.99 178.52 515.99 177.17"/><polygon class="cls-7" points="517.46 181.13 593.65 181.13 517.46 182.49 517.46 181.13"/><polygon class="cls-7" points="513.92 173.21 597.19 173.21 513.92 174.56 513.92 173.21"/><line class="cls-14" x1="578.46" y1="259.63" x2="578.46" y2="285.78"/><line class="cls-14" x1="571.68" y1="269.88" x2="585.25" y2="269.88"/><line class="cls-14" x1="571.68" y1="278.12" x2="585.25" y2="278.12"/><circle class="cls-7" cx="586.79" cy="274.62" r="0.79"/><rect class="cls-16" x="522.18" y="188.96" width="2.35" height="2.35"/><rect class="cls-16" x="519.4" y="194.1" width="2.35" height="2.35"/><rect class="cls-16" x="522.18" y="198.63" width="2.35" height="2.35"/><rect class="cls-16" x="522.18" y="215.68" width="2.35" height="2.35"/><rect class="cls-16" x="551.27" y="220.86" width="2.35" height="2.35"/><rect class="cls-16" x="584.82" y="210.58" width="2.35" height="2.35"/><rect class="cls-16" x="587.58" y="222.33" width="2.35" height="2.35"/><rect class="cls-16" x="586.79" y="227.56" width="2.35" height="2.35"/><rect class="cls-16" x="547.63" y="293.99" width="2.35" height="2.35"/><rect class="cls-16" x="551.27" y="292.15" width="2.35" height="2.35"/><rect class="cls-16" x="519.83" y="286.23" width="2.35" height="2.35"/><rect class="cls-16" x="553.13" y="214.5" width="2.35" height="2.35"/><rect class="cls-16" x="531.69" y="254.46" width="2.35" height="2.35"/><rect class="cls-16" x="535.34" y="250.9" width="2.35" height="2.35"/><rect class="cls-16" x="543.98" y="256.91" width="2.35" height="2.35"/><path class="cls-14" d="M313.68,300.68c1.39-10.23,12.18-18.19,24-18.19,9,0,16.76,4.6,20.51,11.31a19.77,19.77,0,0,1,9.58-2.53A18.86,18.86,0,0,1,384,300.68Z"/><line class="cls-11" x1="623.09" y1="300.68" x2="623.09" y2="260.97"/><polygon class="cls-14" points="624.44 260.96 621.75 260.96 617.89 250.72 628.3 250.72 624.44 260.96"/><line class="cls-11" x1="617.24" y1="250.72" x2="628.95" y2="250.72"/><line class="cls-11" x1="621.11" y1="260.97" x2="625.08" y2="260.97"/><polygon class="cls-13" points="628.3 250.72 617.89 250.72 621.11 246.5 625.08 246.5 628.3 250.72"/><line class="cls-11" x1="620.46" y1="246.51" x2="625.72" y2="246.51"/><path class="cls-6" d="M623.09,244.68h0a1.25,1.25,0,0,1,1.25,1.25v.57a0,0,0,0,1,0,0h-2.5a0,0,0,0,1,0,0v-.57A1.25,1.25,0,0,1,623.09,244.68Z"/><line class="cls-11" x1="623.09" y1="250.08" x2="623.09" y2="260.97"/><line class="cls-11" x1="618.88" y1="255.3" x2="627.3" y2="255.3"/><path class="cls-10" d="M216.81,158.58c9.58,4.65,19.15-4.66,28.73,0V139.17c-9.58-4.66-19.15,4.66-28.73,0Z"/><path class="cls-5" d="M236.42,141.28l.36,1.52L235.63,144c-.13-.41-.2-.91-.34-1.4C235.64,142.19,236,141.76,236.42,141.28Z"/><path class="cls-5" d="M232,142.85c-.27.52-.46,1-.77,1.56l-.76-1.2.76-1.59C231.55,142,231.81,142.43,232,142.85Z"/><path class="cls-5" d="M227,146l-1.14-.89c.11-.53.22-1.05.35-1.56l1.11.9C227.2,144.92,227.07,145.45,227,146Z"/><path class="cls-5" d="M223.34,146.92c0,.46,0,.89,0,1.33-.47-.68-.91-1.38-1.38-2.1C222.46,146.39,222.89,146.66,223.34,146.92Z"/><path class="cls-5" d="M240.72,143.47c-.22.39-.53.72-.76,1.11s-.34.52-.5.79a.34.34,0,0,1-.13.14c0-.46,0-.91.07-1.36a7.88,7.88,0,0,1,1.32-.68Z"/><polygon class="cls-5" points="240.72 143.47 240.72 143.47 240.73 143.47 240.72 143.47"/><path class="cls-5" d="M234.47,153.37a9.22,9.22,0,0,1-1.19.66,9.91,9.91,0,0,1-3.51.93,3.24,3.24,0,0,1-2.36-.5,6.3,6.3,0,0,0-1.22,1.08c-.14.11-.05.18,0,.25a.09.09,0,0,0,.05.09h0a.18.18,0,0,0,.09.13.08.08,0,0,0,0,0s0,0,.05.06a.16.16,0,0,0,.09.09v0l0,0h0l.05,0h0a.05.05,0,0,0,0,0h0a.65.65,0,0,0,.26.17h0s0,0,.07,0,0,0,.09,0,0,0,.06,0a.23.23,0,0,0,.18.07s0,0,.06,0h0s.05,0,.1,0h0a.08.08,0,0,0,.09,0h0a.08.08,0,0,0,.1,0h0a.06.06,0,0,0,.08,0h0a2,2,0,0,0,.75.12.1.1,0,0,0,.09,0,6.49,6.49,0,0,0,2.09-.16l.15,0a5.11,5.11,0,0,0,.73-.17,1,1,0,0,0,.34-.11,5.86,5.86,0,0,0,.87-.28.14.14,0,0,0,.1-.05,1.31,1.31,0,0,0,.47-.21h0a5,5,0,0,0,1.1-.58,4.29,4.29,0,0,0,2-1.92,3.49,3.49,0,0,0-1.33-.74A3.09,3.09,0,0,1,234.47,153.37Z"/><path class="cls-5" d="M226.58,149.07a.28.28,0,0,0-.12.14h0a.72.72,0,0,0,0,.9h0a.28.28,0,0,0,.19.16h0c.24.14.48,0,.73-.12h0c.07,0,.15-.07.24,0l.39.92c-.08.19-.22.33-.29.5l0,0s0,0,.06,0a6.7,6.7,0,0,1,1.15-.52c-.18-.1-.38-.08-.53-.16-.06-.35-.13-.7-.16-1.06l.5-.27a.72.72,0,0,0,.34-.37.68.68,0,0,0-.25-.93c-.08-.09-.22-.06-.33-.08.11-.4.06-.59-.2-.72-.08-.09-.19-.08-.32-.05s-.17.13-.27.14h0a.44.44,0,0,0-.13-.32s0,0-.05,0,0,0,0,0h0c-.24-.13-.38-.1-.54.15h0c-.18.22-.08.43-.06.64-.15.08-.34.08-.42.27a.67.67,0,0,0,.18-.07.67.67,0,0,1-.18.07s0,0,0,0a.5.5,0,0,0-.05.57h0a.16.16,0,0,0,.09.14h0c0,.08.13.07.12.16Zm.34-1.18h0Zm0,0h0Zm0,0h0Zm0-.05Zm.06.23h0Zm0-.06h0Zm1.36-.49Zm-.54.15.06,0-.06,0s0,0,0,0S227.74,147.58,227.75,147.58Zm.07,2.07a.67.67,0,0,0,.18-.2,1693204300292.28,1693204300292.28,0,0,0,.1-.12.23.23,0,0,0,.11-.11h0a.16.16,0,0,0,.07-.09h0a1.1,1.1,0,0,0,.21-.22h0c.06.05-.05.12,0,.18h0a1.73,1.73,0,0,0-.16.37h0c0,.1-.09.2-.14.31a3.26,3.26,0,0,1-.54.25l-.21-.07h0a.05.05,0,0,0-.06,0h0s-.05,0-.09,0a.27.27,0,0,0-.19-.1.05.05,0,0,0-.06,0s-.11,0-.05-.09a3.77,3.77,0,0,0,.58,0h0A.54.54,0,0,0,227.82,149.65Zm-.26-2.32v0Zm0-.14Zm-.05,0Zm.05.19a0,0,0,0,1,0,0A0,0,0,0,0,227.56,147.34Zm0,0v0Zm0,0v0Zm0,0v0Zm0,0v0Zm0,0h0Zm0,0h0Zm0,0h0Zm0,0Zm0,0h0Zm-.18-.38h0a3.51,3.51,0,0,0-.53.15A3.51,3.51,0,0,1,227.46,147.11Z"/><path class="cls-5" d="M228.39,153.58a12.83,12.83,0,0,1,5.09-1.37,4.4,4.4,0,0,1,2.85.77.19.19,0,0,0,.15.06.86.86,0,0,0-.3-.5,2.94,2.94,0,0,0-1.38-.58,8.72,8.72,0,0,0-3.9.3,12.62,12.62,0,0,0-3.32,1.44,4.6,4.6,0,0,0-1.18,1,1,1,0,0,0-.26.54c.1,0,.15-.1.21-.16A7.73,7.73,0,0,1,228.39,153.58Z"/><path class="cls-5" d="M238.13,147.33a.49.49,0,0,0-.65,0c-.23.18-.2.41-.17.65a.58.58,0,0,0-.62.33.61.61,0,0,0,0,.51c0,.05,0,.08,0,.1s0,.05,0,.05h0l0,.05h0l0,0h0a.05.05,0,0,0,0,0,.06.06,0,0,0,.06,0s0,0,.05,0h0a.31.31,0,0,0,.18.09h0c0,.08.17.08.22.19-.1.3-.15.63-.28.94a1.78,1.78,0,0,0-.49.17,1.41,1.41,0,0,1,.5.26c.13-.47.29-.92.46-1.4-.15,0-.15-.11-.18-.2a1.43,1.43,0,0,0-.21-.49s0,0,0,0,0-.08,0-.12a3.57,3.57,0,0,1,.52.51c.29-.76.63-1.47,1-2.19C238.37,146.87,238.24,147.09,238.13,147.33Z"/><path class="cls-5" d="M225.38,151.65s.08,0,.09-.08a.83.83,0,0,0,.48-.8c0-.31-.2-.45-.52-.41-.05,0-.11.06-.15,0,0-.23,0-.45-.16-.58a.55.55,0,0,0-.66.11c-.2-.34-.3-.39-.56-.32.34.67.66,1.34,1,2a4.85,4.85,0,0,1,.5-.59v.11a.71.71,0,0,0-.13.34h0c-.1.15,0,.36-.24.47.17.41.31.83.46,1.28a1.77,1.77,0,0,1,.49-.42c-.17,0-.34,0-.5,0a7,7,0,0,1-.26-.89C225.24,151.76,225.33,151.73,225.38,151.65Z"/><path class="cls-5" d="M233.77,148.29h0a5.36,5.36,0,0,0,.6.1c-.05.37-.11.75-.16,1.11-.16.16-.37.21-.52.4a3.57,3.57,0,0,1,1.22.06l-.36-.42.41-1.11a3.08,3.08,0,0,1,.43,0,.67.67,0,0,0,.64-.26h0a.44.44,0,0,0,.12-.18.1.1,0,0,0,0-.11s0,0,0,0a.6.6,0,0,0-.15-.78s0,0-.05,0,.15-.15.15-.26a.07.07,0,0,0,0-.06h0a.45.45,0,0,0,0-.51,0,0,0,0,0,0,0,.08.08,0,0,0-.06-.09h0s0,0,0,0-.26,0-.39-.1a.91.91,0,0,0,.06-.36.35.35,0,0,0-.24-.37.38.38,0,0,0-.41.17s0,0,0,.05a.08.08,0,0,0,0,.07c-.11.11-.11.26-.17.39a.48.48,0,0,0-.57.14.28.28,0,0,0-.14.18h0a.65.65,0,0,0,0,.64.63.63,0,0,0-.34.22s-.05,0-.05.05a.13.13,0,0,0-.05.06.73.73,0,0,0-.19.34C233.37,147.9,233.49,148.19,233.77,148.29Zm1.81-2.31s0,0,0,0,0,0,0,0Zm.06.08,0,0Zm.09,0h0Zm0,0Zm0,0h0Zm0,0h0Zm.18,1.62h0v0Zm.13-1.62Zm-1.15-.19h0Zm-.39.09h0Zm.29,0h0Zm0,0h0Zm0,0h0Zm0,0h0Zm0,0h0Zm0,0h0Zm0,0h0Zm0,0h0Zm-.08,0h0Zm-.23.08h0l.08,0-.08,0Zm.19-.07h0Zm0,0h0Zm0,0h0Zm-.26.23Zm-.08,1.42v0l.4.26.26.19c.32-.09.61-.27.91-.34l-.09.11a.08.08,0,0,0,0,0s-.05,0-.06.05-.07,0-.09.08a.08.08,0,0,0-.05.05h0l-.34.27a2,2,0,0,1-.54,0l-.18-.29a.26.26,0,0,0-.09-.18.09.09,0,0,0,0-.09s0,0,0,0,0-.06,0-.07Z"/><path class="cls-5" d="M230.13,149c.08.09.21.06.32,0s.34-.06.53-.1l.12,1.08-.43.46a5.43,5.43,0,0,1,1.23-.27c-.13-.14-.33-.17-.44-.3,0-.37.07-.74.14-1.12l.49-.14a.82.82,0,0,0,.48-.36.78.78,0,0,0-.06-1h0s0,0,0,0a.13.13,0,0,0-.14-.06v0s-.06,0,0-.08l0,0,0,0c.17-.26.22-.5,0-.7s-.35-.19-.59-.11c0-.14,0-.31-.09-.4a.14.14,0,0,0-.1-.13h0c-.2-.12-.24-.11-.44.06h0a.7.7,0,0,0-.24.69l-.1,0a.69.69,0,0,0-.58.89,1.28,1.28,0,0,0,.11.2,1,1,0,0,0-.43.74.23.23,0,0,0,0,.14A.51.51,0,0,0,230.13,149Zm2.21-1.74h0Zm.09,0h0Zm-.08,0h0Zm0,0h0Zm0,0h0Zm0,0h0Zm-.12,0v0Zm-.09-.17h0Zm.07-.26h0Zm0,0h0Zm0,0h0Zm0,0v0Zm0,0a0,0,0,0,1,0,0Zm0,.06h0Zm.06-.25Zm0-.37Zm-.23-.09Zm0,0Zm0,0h0Zm-.1,0-.06,0Zm-.26.08h0Zm0,0a0,0,0,0,0,0,0A0,0,0,0,1,231.68,146.33Zm0,0v0Zm0,0v0Zm0,0v0Zm0,0v0Zm0,0c0-.1,0-.22,0-.32h0C231.65,146,231.63,146.09,231.64,146.19Zm-.1-.44Zm0,0h0Zm0,0Zm-.15,0a.74.74,0,0,0-.29,0A.74.74,0,0,1,231.39,145.77Zm-.4.32a3.7,3.7,0,0,0-.13.4h0A3.7,3.7,0,0,1,231,146.09Zm-.28,2.24h0a.09.09,0,0,0,.1,0h0a.09.09,0,0,0,.1,0,1.18,1.18,0,0,0,.39.11,1.63,1.63,0,0,0,.29-.23h0a.17.17,0,0,0,.1-.07,1.5,1.5,0,0,0,.25-.19h0a.2.2,0,0,0,.1-.08s0,0,0,0,0,0,0,0a1.32,1.32,0,0,0-.19.29h0c-.14.14-.21.32-.35.47l-.55.14-.15-.11h0s0,0,0,0a.07.07,0,0,0,0-.05h0s0-.06-.08-.06,0,0,0,0,0-.05,0-.05a.09.09,0,0,0-.06-.06h0s0,0,0,0l0,0C230.57,148.26,230.63,148.35,230.71,148.33Z"/><polygon class="cls-8" points="212.24 176.37 120.69 221.86 120.69 221.86 120.69 251.81 120.69 255.02 120.69 300.68 303.79 300.68 303.79 255.02 303.79 251.81 303.79 221.86 212.24 176.37"/><polygon class="cls-8" points="196.63 218.55 121.93 218.55 118.44 218.55 118.44 215.05 211.8 169.72 212.47 169.72 245.47 169.69 245.47 198.73 196.63 218.55"/><polyline class="cls-8" points="212.03 176.75 120.48 222.23 116.95 222.23 116.95 218.67 211.79 172.66 212.48 172.66 307.32 218.67 307.32 222.23 303.79 222.23 212.24 176.75"/><polygon class="cls-12" points="245.54 176.37 154 221.86 154 221.86 154 251.81 154 255.02 154 300.68 337.09 300.68 337.09 255.02 337.09 251.81 337.09 221.86 245.54 176.37"/><rect class="cls-16" x="278.6" y="289.66" width="6.44" height="2.87"/><rect class="cls-16" x="189.93" y="239.08" width="6.44" height="2.87"/><rect class="cls-16" x="303.16" y="228.64" width="6.44" height="2.87"/><rect class="cls-16" x="297.32" y="233.61" width="6.44" height="2.87"/><rect class="cls-16" x="309.6" y="287.12" width="6.44" height="2.87"/><rect class="cls-16" x="212.14" y="214.02" width="6.44" height="2.87"/><rect class="cls-16" x="171.86" y="286.55" width="6.44" height="2.87"/><rect class="cls-16" x="175.35" y="223.25" width="6.44" height="2.87"/><rect class="cls-16" x="241.62" y="191.14" width="6.44" height="2.87"/><rect class="cls-16" x="184.34" y="219.26" width="6.44" height="2.87"/><rect class="cls-16" x="299.94" y="215.76" width="6.44" height="2.87"/><rect class="cls-16" x="216.81" y="219.17" width="6.44" height="2.87"/><rect class="cls-16" x="273.48" y="229.22" width="6.44" height="2.87"/><rect class="cls-16" x="267.71" y="222.13" width="6.44" height="2.87"/><rect class="cls-16" x="272.25" y="217.07" width="6.44" height="2.87"/><rect class="cls-16" x="167.23" y="258.36" width="6.44" height="2.87"/><rect class="cls-16" x="219.73" y="278.26" width="6.44" height="2.87"/><rect class="cls-16" x="278.76" y="247.74" width="6.44" height="2.87"/><rect class="cls-16" x="193.58" y="295.4" width="6.44" height="2.87"/><rect class="cls-16" x="201.8" y="292.84" width="6.44" height="2.87"/><rect class="cls-16" x="283.91" y="285.11" width="6.44" height="2.87"/><rect class="cls-5" x="230.38" y="255.83" width="29.92" height="44.84"/><line class="cls-11" x1="229.33" y1="263.09" x2="261.34" y2="263.09"/><line class="cls-11" x1="229.33" y1="255.83" x2="261.34" y2="255.83"/><line class="cls-11" x1="245.34" y1="263.09" x2="245.34" y2="300.68"/><rect class="cls-12" x="234.04" y="268.13" width="6.37" height="20.43"/><rect class="cls-12" x="250.28" y="268.13" width="6.37" height="20.43"/><line class="cls-11" x1="236.36" y1="263.09" x2="236.36" y2="255.83"/><line class="cls-11" x1="242.34" y1="263.09" x2="242.34" y2="255.83"/><line class="cls-11" x1="248.33" y1="263.09" x2="248.33" y2="255.83"/><line class="cls-11" x1="254.31" y1="263.09" x2="254.31" y2="255.83"/><path class="cls-14" d="M178.57,245.25h0a8.12,8.12,0,0,1,8.12,8.12v25.58a0,0,0,0,1,0,0H170.45a0,0,0,0,1,0,0V253.37A8.12,8.12,0,0,1,178.57,245.25Z"/><path class="cls-15" d="M178.57,248.39h0a5.31,5.31,0,0,1,5.31,5.31v22.08a0,0,0,0,1,0,0H173.26a0,0,0,0,1,0,0V253.7A5.31,5.31,0,0,1,178.57,248.39Z"/><line class="cls-14" x1="178.57" y1="248.39" x2="178.57" y2="275.78"/><line class="cls-14" x1="173.26" y1="256.41" x2="183.88" y2="256.41"/><line class="cls-14" x1="173.26" y1="262.87" x2="183.88" y2="262.87"/><line class="cls-14" x1="173.26" y1="269.32" x2="183.88" y2="269.32"/><line class="cls-14" x1="173.26" y1="275.78" x2="183.88" y2="275.78"/><line class="cls-14" x1="169.57" y1="278.95" x2="187.57" y2="278.95"/><path class="cls-14" d="M199.54,245.25h0a8.12,8.12,0,0,1,8.12,8.12v25.58a0,0,0,0,1,0,0H191.42a0,0,0,0,1,0,0V253.37A8.12,8.12,0,0,1,199.54,245.25Z"/><path class="cls-15" d="M199.54,248.39h0a5.31,5.31,0,0,1,5.31,5.31v22.08a0,0,0,0,1,0,0H194.22a0,0,0,0,1,0,0V253.7A5.31,5.31,0,0,1,199.54,248.39Z"/><line class="cls-14" x1="199.54" y1="248.39" x2="199.54" y2="275.78"/><line class="cls-14" x1="194.22" y1="256.41" x2="204.85" y2="256.41"/><line class="cls-14" x1="194.22" y1="262.87" x2="204.85" y2="262.87"/><line class="cls-14" x1="194.22" y1="269.32" x2="204.85" y2="269.32"/><line class="cls-14" x1="194.22" y1="275.78" x2="204.85" y2="275.78"/><line class="cls-14" x1="190.54" y1="278.95" x2="208.53" y2="278.95"/><path class="cls-14" d="M290.09,245.25h0a8.12,8.12,0,0,1,8.12,8.12v25.58a0,0,0,0,1,0,0H282a0,0,0,0,1,0,0V253.37A8.12,8.12,0,0,1,290.09,245.25Z"/><path class="cls-15" d="M290.09,248.39h0a5.31,5.31,0,0,1,5.31,5.31v22.08a0,0,0,0,1,0,0H284.78a0,0,0,0,1,0,0V253.7a5.31,5.31,0,0,1,5.31-5.31Z"/><line class="cls-14" x1="290.09" y1="248.39" x2="290.09" y2="275.78"/><line class="cls-14" x1="284.78" y1="256.41" x2="295.41" y2="256.41"/><line class="cls-14" x1="284.78" y1="262.87" x2="295.41" y2="262.87"/><line class="cls-14" x1="284.78" y1="269.32" x2="295.41" y2="269.32"/><line class="cls-14" x1="284.78" y1="275.78" x2="295.41" y2="275.78"/><line class="cls-14" x1="281.1" y1="278.95" x2="299.09" y2="278.95"/><path class="cls-14" d="M311.06,245.25h0a8.12,8.12,0,0,1,8.12,8.12v25.58a0,0,0,0,1,0,0H302.94a0,0,0,0,1,0,0V253.37a8.12,8.12,0,0,1,8.12-8.12Z"/><path class="cls-15" d="M311.06,248.39h0a5.31,5.31,0,0,1,5.31,5.31v22.08a0,0,0,0,1,0,0H305.75a0,0,0,0,1,0,0V253.7A5.31,5.31,0,0,1,311.06,248.39Z"/><line class="cls-14" x1="311.06" y1="248.39" x2="311.06" y2="275.78"/><line class="cls-14" x1="305.75" y1="256.41" x2="316.37" y2="256.41"/><line class="cls-14" x1="305.75" y1="262.87" x2="316.37" y2="262.87"/><line class="cls-14" x1="305.75" y1="269.32" x2="316.37" y2="269.32"/><line class="cls-14" x1="305.75" y1="275.78" x2="316.37" y2="275.78"/><line class="cls-14" x1="302.06" y1="278.95" x2="320.06" y2="278.95"/><rect class="cls-5" x="228.73" y="199.35" width="14.55" height="37.96"/><line class="cls-17" x1="228.28" y1="225.14" x2="243.73" y2="225.14"/><line class="cls-17" x1="228.28" y1="211.85" x2="243.73" y2="211.85"/><line class="cls-17" x1="236.01" y1="211.41" x2="236.01" y2="237.76"/><line class="cls-17" x1="236.01" y1="199.35" x2="236.01" y2="237.31"/><rect class="cls-5" x="247.46" y="199.35" width="14.55" height="37.96"/><line class="cls-17" x1="247.02" y1="225.14" x2="262.46" y2="225.14"/><line class="cls-17" x1="247.02" y1="211.85" x2="262.46" y2="211.85"/><line class="cls-17" x1="254.74" y1="211.41" x2="254.74" y2="237.76"/><line class="cls-17" x1="254.74" y1="199.35" x2="254.74" y2="237.31"/><polygon class="cls-11" points="245.54 176.37 154 221.86 154 221.86 154 251.81 154 255.02 154 300.68 337.09 300.68 337.09 255.02 337.09 251.81 337.09 221.86 245.54 176.37"/><rect class="cls-10" x="222.95" y="242.56" width="43.79" height="8.06"/><rect class="cls-14" x="217.69" y="241.07" width="5.26" height="57.2"/><rect class="cls-13" x="216.21" y="252.25" width="8.22" height="2.34"/><rect class="cls-13" x="216.21" y="238.73" width="8.22" height="2.34"/><rect class="cls-13" x="216.21" y="298.34" width="8.22" height="2.34"/><rect class="cls-14" x="266.74" y="241.07" width="5.26" height="57.2"/><rect class="cls-13" x="265.26" y="252.25" width="8.22" height="2.34"/><rect class="cls-13" x="265.26" y="238.73" width="8.22" height="2.34"/><rect class="cls-13" x="265.26" y="298.34" width="8.22" height="2.34"/><rect class="cls-16" x="155.45" y="221.27" width="4.5" height="2.87" transform="translate(286.22 -18.03) rotate(63.4)"/><rect class="cls-16" x="164.12" y="216.93" width="4.5" height="2.87" transform="translate(287.13 -28.17) rotate(63.4)"/><rect class="cls-16" x="172.78" y="212.59" width="4.5" height="2.87" transform="translate(288.03 -38.31) rotate(63.4)"/><rect class="cls-16" x="181.45" y="208.25" width="4.5" height="2.87" transform="translate(288.94 -48.46) rotate(63.4)"/><rect class="cls-16" x="190.15" y="203.98" width="4.5" height="2.87" transform="translate(289.92 -58.59) rotate(63.4)"/><rect class="cls-16" x="198.81" y="199.64" width="4.5" height="2.87" transform="translate(290.83 -68.74) rotate(63.4)"/><rect class="cls-16" x="207.47" y="195.3" width="4.5" height="2.87" transform="translate(291.73 -78.88) rotate(63.4)"/><rect class="cls-16" x="216.17" y="191.02" width="4.5" height="2.87" transform="translate(292.71 -89.02) rotate(63.4)"/><rect class="cls-16" x="224.83" y="186.69" width="4.5" height="2.87" transform="translate(293.62 -99.16) rotate(63.4)"/><rect class="cls-16" x="233.5" y="182.35" width="4.5" height="2.87" transform="translate(294.52 -109.31) rotate(63.4)"/><rect class="cls-16" x="330.54" y="221.27" width="4.5" height="2.87" transform="translate(680.94 24.84) rotate(116.6)"/><rect class="cls-16" x="321.88" y="216.93" width="4.5" height="2.87" transform="translate(664.51 26.31) rotate(116.6)"/><rect class="cls-16" x="313.22" y="212.59" width="4.5" height="2.87" transform="translate(648.09 27.78) rotate(116.6)"/><rect class="cls-16" x="304.55" y="208.25" width="4.5" height="2.87" transform="translate(631.67 29.24) rotate(116.6)"/><rect class="cls-16" x="295.85" y="203.98" width="4.5" height="2.87" transform="translate(615.25 30.84) rotate(116.6)"/><rect class="cls-16" x="287.19" y="199.64" width="4.5" height="2.87" transform="translate(598.83 32.31) rotate(116.6)"/><rect class="cls-16" x="278.52" y="195.3" width="4.5" height="2.87" transform="translate(582.41 33.77) rotate(116.6)"/><rect class="cls-16" x="269.83" y="191.02" width="4.5" height="2.87" transform="translate(565.99 35.35) rotate(116.6)"/><rect class="cls-16" x="261.16" y="186.69" width="4.5" height="2.87" transform="translate(549.57 36.82) rotate(116.6)"/><rect class="cls-16" x="252.5" y="182.35" width="4.5" height="2.87" transform="translate(533.15 38.29) rotate(116.6)"/><line class="cls-17" x1="245.51" y1="170.3" x2="245.51" y2="137.02"/><path class="cls-5" d="M166.94,191.68c-.25-1.36.5-2.74,0-4.08s-1.73-1.45-3-1.72c-2.65-.59-7.59-.81-7.83-4.36-.16-2.26.76-5.48-2-6.52a9.11,9.11,0,0,0-3.75-.07,13.83,13.83,0,0,1-5.49-.77c-1.77-.62-3.79-1.55-3-3.79.51-1.43,1.55-2.59,1.94-4.07a4.07,4.07,0,0,0-3.17-5.24c-2.61-.6-7.06,1.23-8.7-1.67-.83-1.48.81-2.69.81-4.17a3,3,0,0,0-1.4-2.35c-1.22-.82-2.67-.77-4.06-1a4.88,4.88,0,0,1-3.78-3.39,6.76,6.76,0,0,1,.32-4.66c.63-1.51,2.15-4.08,4.16-3.15,1.2.56,2.11,1.86,3.19,2.63a10.67,10.67,0,0,0,3.9,1.76c3.17.68,6.19-.51,9.12-1.57a23.27,23.27,0,0,1,8.72-1.63,14.14,14.14,0,0,1,4.28.78,12,12,0,0,1,1.88.89c1.16.69,2.22,1.36,2,2.88s-.7,2.67-.76,4.09a6.49,6.49,0,0,0,.76,4,5.13,5.13,0,0,0,3,1.59c1.55.4,3.13.71,4.65,1.21,3.49,1.15,6.86,4,5.47,8.05-.56,1.61-1.57,3-2.23,4.61a9.37,9.37,0,0,0-.66,4.68,10.65,10.65,0,0,0,1.81,4.59c1.09,1.68,2.59,3.85,1.11,5.77s-5.12,3.49-3.48,6.45c.35.63,1.32.06,1-.57-1-1.76,1.24-3.19,2.37-4.15a4.72,4.72,0,0,0,1.87-3.09c.31-3.31-3-5.59-3.49-8.73-.63-3.79,1.94-6.25,2.93-9.63a6.51,6.51,0,0,0-2.24-6.85c-2.47-2.13-5.73-2.63-8.78-3.43a4.94,4.94,0,0,1-2.2-.91,3.77,3.77,0,0,1-.77-2.73,12.75,12.75,0,0,1,.22-2.69,21.4,21.4,0,0,0,.6-2.58c.19-2.61-3.28-4.09-5.32-4.73a17.9,17.9,0,0,0-8.42-.3c-3.25.59-6.18,2.18-9.39,2.84a9,9,0,0,1-5.7-.58,18.63,18.63,0,0,1-3.91-2.94c-2.08-1.74-4.27-1-5.74,1.13a8.25,8.25,0,0,0-1.07,8.06,6.27,6.27,0,0,0,2.27,2.62c1.47.9,3.09.69,4.68,1.17.86.26,1.92.84,1.93,1.88a5.41,5.41,0,0,1-.78,2,3.12,3.12,0,0,0,.62,3.41c2.14,2.32,5.26,1.19,8,1.4,1.74.13,3.46,1,3.42,3s-1.36,3.23-2,4.86c-1.39,3.49,2.13,5,4.94,5.76a15.85,15.85,0,0,0,5.36.35,5.07,5.07,0,0,1,2.76.16c1,.55,1.18,1.83,1.17,2.88,0,1.6-.37,3.24.53,4.69a5.43,5.43,0,0,0,3,2.06,55.26,55.26,0,0,0,5.52,1.3c.54.13,1.24.19,1.6.69a2.7,2.7,0,0,1,.15,1.84,7.05,7.05,0,0,0-.06,2.38c.13.71,1.21.41,1.08-.3Z"/><path class="cls-5" d="M125.41,140.56a7.71,7.71,0,0,0-2.23,8.54,7.86,7.86,0,0,0,5.73,3.51c4.18.62,2.9,3.91,2.71,4.31s-1.59,4.75,3.25,4.65,8.92,0,8.58,3.13-4.29,7.17-1.08,8.9a13.82,13.82,0,0,0,8,1.89c2.29-.17,5-.25,5.27,2.56s-.67,6,2.47,6.91,7.17,1.28,7.74,2.07.35,3.78.35,3.78.14,1.88,1.45,2a35.5,35.5,0,0,0,3.56,0s-.77-2.49,0-3.71,3.28-3.36,3.58-3.82a7.59,7.59,0,0,0-.67-5.69c-1.31-2.13-3.06-6.45-1.84-9.45s4.76-6.21,2.17-9.43-8.8-5-10.56-5.3-3.19-2.78-2.9-5.73,2-6.16-4.89-8-15.56,2.44-15.56,2.44-5,.87-6.87-.13a29.47,29.47,0,0,1-4.14-2.92l-2.24-1.21Z"/><rect class="cls-6" x="168.15" y="192.48" width="5.59" height="15.81" transform="translate(341.89 400.78) rotate(-180)"/><polygon class="cls-7" points="173.58 193.36 167.94 194.91 167.94 192.65 173.58 192.65 173.58 193.36"/><rect class="cls-8" x="165.14" y="192.48" width="3.01" height="15.81" transform="translate(333.29 400.78) rotate(-180)"/><rect class="cls-9" x="162.56" y="189.59" width="10.75" height="3.96" rx="0.67" transform="translate(335.88 383.15) rotate(-180)"/><rect class="cls-10" x="165.57" y="189.59" width="10.75" height="3.96" rx="0.67" transform="translate(341.89 383.15) rotate(-180)"/><rect class="cls-6" x="318.51" y="192.48" width="5.59" height="15.81" transform="translate(642.62 400.78) rotate(-180)"/><polygon class="cls-7" points="323.94 193.36 318.3 194.91 318.3 192.65 323.94 192.65 323.94 193.36"/><rect class="cls-8" x="315.51" y="192.48" width="3.01" height="15.81" transform="translate(634.02 400.78) rotate(-180)"/><rect class="cls-9" x="312.93" y="189.59" width="10.75" height="3.96" rx="0.67" transform="translate(636.61 383.15) rotate(-180)"/><rect class="cls-10" x="315.94" y="189.59" width="10.75" height="3.96" rx="0.67" transform="translate(642.62 383.15) rotate(-180)"/><polyline class="cls-6" points="245.34 173.75 155.23 218.55 151.75 218.55 151.75 215.05 245.1 169.72 245.78 169.72 339.13 215.05 339.13 218.55 335.65 218.55 245.54 173.75"/><polyline class="cls-6" points="245.34 176.75 153.79 222.23 150.25 222.23 150.25 218.67 245.1 172.66 245.78 172.66 340.63 218.67 340.63 222.23 337.09 222.23 245.54 176.75"/><line class="cls-11" x1="158.2" y1="220.42" x2="159.34" y2="222.7"/><line class="cls-11" x1="166.85" y1="216.08" x2="167.99" y2="218.36"/><line class="cls-11" x1="175.5" y1="211.74" x2="176.64" y2="214.02"/><line class="cls-11" x1="184.15" y1="207.4" x2="185.29" y2="209.68"/><line class="cls-11" x1="192.8" y1="203.07" x2="193.94" y2="205.34"/><line class="cls-11" x1="201.45" y1="198.73" x2="202.59" y2="201.01"/><line class="cls-11" x1="210.09" y1="194.39" x2="211.24" y2="196.67"/><line class="cls-11" x1="218.74" y1="190.05" x2="219.88" y2="192.33"/><line class="cls-11" x1="227.39" y1="185.71" x2="228.53" y2="187.99"/><line class="cls-11" x1="236.04" y1="181.37" x2="237.18" y2="183.65"/><line class="cls-11" x1="332.19" y1="220.42" x2="331.04" y2="222.7"/><line class="cls-11" x1="323.54" y1="216.08" x2="322.4" y2="218.36"/><line class="cls-11" x1="314.89" y1="211.74" x2="313.75" y2="214.02"/><line class="cls-11" x1="306.24" y1="207.4" x2="305.1" y2="209.68"/><line class="cls-11" x1="297.59" y1="203.07" x2="296.45" y2="205.34"/><line class="cls-11" x1="288.94" y1="198.73" x2="287.8" y2="201.01"/><line class="cls-11" x1="280.3" y1="194.39" x2="279.15" y2="196.67"/><line class="cls-11" x1="271.65" y1="190.05" x2="270.51" y2="192.33"/><line class="cls-11" x1="263" y1="185.71" x2="261.86" y2="187.99"/><line class="cls-11" x1="254.35" y1="181.37" x2="253.21" y2="183.65"/><polygon class="cls-7" points="151.75 215.05 245.44 171.23 245.47 169.69 151.75 215.05"/><polygon class="cls-7" points="339.13 215.05 245.44 171.23 245.47 169.69 339.13 215.05"/><polygon class="cls-7" points="151.75 218.02 245.44 174.2 245.47 172.66 151.75 218.02"/><polygon class="cls-7" points="339.13 218.02 245.44 174.2 245.47 172.66 339.13 218.02"/><polygon class="cls-7" points="153.79 222.23 245.44 178.41 245.47 176.87 153.79 222.23"/><polygon class="cls-7" points="337.09 222.23 245.44 178.41 245.47 176.87 337.09 222.23"/><path class="cls-8" d="M136.71,300.68c-1-6-9.06-10.73-17.85-10.73-6.68,0-12.46,2.72-15.26,6.67a17.89,17.89,0,0,0-7.12-1.49,15,15,0,0,0-12.06,5.55Z"/><path class="cls-14" d="M127.64,267.6c0-10.82-6.25-11.72-6.87-21.63-.58-9.14,0-17.23-10.21-17.23s-9.63,8.09-10.2,17.23c-.62,9.91-6.87,10.81-6.87,21.63C93.49,290.82,127.64,290.82,127.64,267.6Z"/><line class="cls-11" x1="110.56" y1="242.48" x2="110.56" y2="300.68"/><line class="cls-11" x1="110.56" y1="277.74" x2="100" y2="267.18"/><line class="cls-11" x1="110.56" y1="265.72" x2="117.38" y2="258.91"/><line class="cls-11" x1="110.56" y1="274.32" x2="107.83" y2="271.58"/><line class="cls-11" x1="110.56" y1="248.03" x2="112.23" y2="246.36"/><line class="cls-11" x1="328.51" y1="298.98" x2="328.51" y2="260.97"/><polygon class="cls-14" points="329.85 260.96 327.17 260.96 323.3 250.72 333.72 250.72 329.85 260.96"/><rect class="cls-6" x="325.83" y="299.17" width="5.37" height="1.5"/><line class="cls-11" x1="322.66" y1="250.72" x2="334.36" y2="250.72"/><line class="cls-11" x1="326.53" y1="260.97" x2="330.5" y2="260.97"/><polygon class="cls-13" points="333.72 250.72 323.3 250.72 326.53 246.5 330.5 246.5 333.72 250.72"/><line class="cls-11" x1="325.88" y1="246.51" x2="331.14" y2="246.51"/><path class="cls-6" d="M328.51,244.68h0a1.25,1.25,0,0,1,1.25,1.25v.57a0,0,0,0,1,0,0h-2.5a0,0,0,0,1,0,0v-.57A1.25,1.25,0,0,1,328.51,244.68Z"/><line class="cls-11" x1="328.51" y1="250.08" x2="328.51" y2="260.97"/><line class="cls-11" x1="324.3" y1="255.3" x2="332.72" y2="255.3"/></g></g></svg>