<svg xmlns="http://www.w3.org/2000/svg" xmlns:xlink="http://www.w3.org/1999/xlink" viewBox="0 0 983 300"><defs><style>.cls-1,.cls-15,.cls-20,.cls-26,.cls-32{fill:none;}.cls-2{clip-path:url(#clip-path);}.cls-28,.cls-29,.cls-3{fill:#ffc52f;}.cls-4{fill:url(#linear-gradient);}.cls-5{clip-path:url(#clip-path-2);}.cls-6{fill:url(#linear-gradient-2);}.cls-7{fill:url(#linear-gradient-3);}.cls-16,.cls-19,.cls-8{fill:#fff;}.cls-22,.cls-24,.cls-27,.cls-31,.cls-9{fill:#fbc877;}.cls-11,.cls-14,.cls-15,.cls-16,.cls-19,.cls-20,.cls-21,.cls-22,.cls-23,.cls-24,.cls-25,.cls-26,.cls-28,.cls-29,.cls-30,.cls-31,.cls-32,.cls-9{stroke:#001c59;stroke-linecap:round;stroke-linejoin:round;}.cls-11,.cls-14,.cls-15,.cls-16,.cls-9{stroke-width:0.79px;}.cls-10,.cls-11,.cls-21,.cls-25,.cls-30{fill:#001c59;}.cls-12{fill:#d84876;}.cls-13,.cls-14,.cls-23{fill:#f25a84;}.cls-17{fill:#fbafd2;}.cls-18{fill:#f1b86a;}.cls-19,.cls-20,.cls-21,.cls-22,.cls-23,.cls-28{stroke-width:1px;}.cls-24,.cls-25,.cls-26{stroke-width:0.73px;}.cls-29,.cls-30,.cls-31,.cls-32{stroke-width:0.68px;}</style><clipPath id="clip-path"><rect class="cls-1" x="-1351.52" width="1188" height="300"/></clipPath><linearGradient id="linear-gradient" x1="-343.25" y1="280.66" x2="-343.25" y2="40.53" gradientUnits="userSpaceOnUse"><stop offset="0" stop-color="#ffc52f"/><stop offset="1" stop-color="#d69a1a"/></linearGradient><clipPath id="clip-path-2"><rect class="cls-1" x="-0.02" width="983.02" height="300"/></clipPath><linearGradient id="linear-gradient-2" x1="893.69" y1="280.66" x2="893.69" y2="40.53" xlink:href="#linear-gradient"/><linearGradient id="linear-gradient-3" x1="79.59" y1="280.66" x2="79.59" y2="40.53" xlink:href="#linear-gradient"/></defs><g id="Layer_1" data-name="Layer 1"><g class="cls-2"><rect class="cls-3" x="-1528.16" y="-98.13" width="1529.83" height="542"/><path class="cls-4" d="M-776.78,342.35V172.19h16.54v-6.8l4.18-.67v-15l3.13-5.35c.49.18,1,.2,1.1.42.79,1.76,1.51,3.55,2.45,5.83l-1.2,1.8,1.93,2.65h7.94c-.56-4.38,1.32-8.29,3.54-12.32l1.38,2.82,24.42-21.35c-.37-7,1.56-13.2,5.2-19.51.78,3.85,1.48,7.28,2.28,11.22l2,.67v7.68c4.31,3.66,8.64,7.32,13,11,4.14,3.53,7.08,8.42,12.47,11v10.23h17.36a63.66,63.66,0,0,0,4.54,4.72c1.61,1.39,2.49,4,5.81,3.76V122.62c0-4.18-.21-8.37.07-12.53.25-3.75,1-7.46,1.67-11.55h9.36c5-3.08,2-6.56,1.21-9.86l4-5.76c3.92-2.85,9.56-.85,15-1.49l5.06,5.6V98.18h10.73v6.39l2.86,1v24.68c7.34,0,14.47.25,21.57-.07,6.71-.31,13.65,1.52,20.36-1.26V118l2.55-.53c.12-1.54.25-3.27.4-5.24h7.63c.38-1,.67-1.81,1.22-3.3l1.12,3h7.79c.1,2,.17,3.6.27,5.44l4,.63v12.21h24.38a3.25,3.25,0,0,1,.5.48,1.19,1.19,0,0,1,.22.59c0,7.85,0,15.7,0,24.06l5.29,1.84V133.09l-4.21-8.66,7-9.17-9.37-12.39c4.86-.2,9.2,2.12,12.64,7l1.73-3.11h3.52v2.06l-2.92,1.12c.95,2,1.86,3.88,2.82,5.87l-3.73,3.73c2.93,4-.44,9.2,2.43,13.44a3.65,3.65,0,0,1-1.18,4.84c2.45,2.8,1,6.15,1.26,9.22s0,6,0,9.15l2.47.73c.67-8.68.1-17.15.36-25.45,1.23-1.92,2.32-3.81,3.6-5.57s2.61-3.14,4.64-5.56c0,.12.08-1,.2-2.37h3.81c.14,1.19.27,2.29.42,3.63h13.45l1.67-7.92c.54-2.58-1.26-5.57,1.35-7.79l-2.23-2.69,3.76-1.16,1.52,1.29-1,2.18,2.54,16h13.34c.11-1.1.23-2.2.37-3.58h3.72l.43,3.19c5.09.8,4.24,7,8.12,9.59V156.4h3.81c-.14.13.18,0,.18-.17q0-9.28,0-18.59l5.87-3.38,3.58,2.19c.31-1.76.52-3,.77-4.41l2.34-.82c.12-1.05.25-2.15.39-3.33l2.44-.92c.12-1.07.24-2.16.38-3.5h3.56c.25-1.47.47-2.75.72-4.19h5v3.32l2.83,1v3.28l2.88,1,.25,3.48h4.13c-.49-6.25.08-12.27,3.49-17.83,3.32,10.19,1.62,20.51,2,30.7.14,3.93,0,7.87,0,12.15h6.6c1.33-4.75-1-10,1.4-14.49l-1.33-7.34c1.48-2,2.63-3.61,3.76-5.15l3.05,4.14c-.36,3.08-1.51,5.95-.78,8.22,1.55,4.86,1,9.78,1.25,14.75l2.49.16V105.68l4-.76c.61-2.76.69-5.8,2-8.21,1.39-2.64,1.17-5.2,1.23-7.85.07-2.92,0-5.84.05-9.66l4.31,2.88c-.55,1.51-1.81,3.16-1.44,4.24,2.13,6.17.95,13.17,4.71,18.73l2.2.51V127c2.5,1.16,3.11,0,2.63-2.25h43V110.29l2.33-2.31,1.49,3.12,7.32-4.73V99.15l2.42-2.42,3.49,4.55v4.9l6.25,4.29,3-1.71c.71,5,.06,9.61.54,14.88a12.23,12.23,0,0,0,2.56-1.6c1.75-2,3.38-4.08,5.48-6.66,4.06,4.92,9.22,7.73,12.55,13v20.33l4.36,2.92c-2,3.41-2,3.42.58,6.43h15.29a3,3,0,0,0,.48-.42,1.15,1.15,0,0,0,.25-.58c0-8.32,0-16.64,0-25.66l16.46,2.79v-3.43l43.15,6.8v3.56l10.1,2.37q-.85,6.76-1.83,14.38h4.18V123.67l5.79-5.88h8.77l9.21-7v42.77h5.65V111.14c1.91-.34,2.17,1.44,3.19,2a24.66,24.66,0,0,1,2.73,1.79c1.09.8,2.12,1.68,3.4,2.7h9.49c1.16,2.37,2,5.25,6.36,3.87v16.12c0,5.1-.56,10.29.16,15.29s-4.38,9.94.74,15.33c.27-2.16.46-3.76.72-5.86h9.36c.09-1.36.14-2.25.2-3.08l-5.61-7.29v-7l4.83-5h7.89l3.54,1.75a4.52,4.52,0,0,0,.45.9c2.33,3.28,1,7,1.43,10.5l-4.09,4.09V162h12.07v-4.4L-83.92,150c.77-2.61,1.39-4.68,2.07-7,3.3-3.74,7.95-3.06,13-3l4.37,5.78c1.3,5.8-1.42,9.72-5.24,12.85V162H-56c.05-1,.1-1.92.15-3l-5.39-4.78v-9.59l4.64-4.64c3.6.17,7.65-.84,11.65,2,2.28,3.18,1.58,7.29,1.51,11.29l-5.45,5.45v2.78c2.9,2.26,5.31-.22,8.16-1V148.62h24.37l2.39-2.89h15V129.92l10.8,8.49h4.77l13.19-5.57.78,2.08L14.84,143c3.45,2.83,6.07-.29,8.9-.36a58.85,58.85,0,0,0,8.47-1.31,27.71,27.71,0,0,1,9.58-.49c-1.35.38-2.7.76-2.84.81v6.46H55.49v-61c5.87-.37,11.62.87,16.7-2.39,0-.35,0-.8-.1-1.74H59.89c-.08-1.11-.13-1.74-.19-2.65H80.28c-.11,2.77.94,5.28,4.4,5.94v74.19l5.6.59V342.35Z"/></g><g class="cls-5"><rect class="cls-3" x="-291.22" y="-98.13" width="1529.83" height="542"/><path class="cls-6" d="M460.16,342.35V172.19H476.7v-6.8l4.18-.67v-15l3.13-5.35c.49.18,1,.2,1.1.42.8,1.76,1.51,3.55,2.45,5.83l-1.2,1.8,1.93,2.65h7.95c-.57-4.38,1.31-8.29,3.53-12.32l1.38,2.82,24.42-21.35c-.37-7,1.56-13.2,5.2-19.51.78,3.85,1.48,7.28,2.28,11.22l2,.67v7.68c4.31,3.66,8.64,7.32,12.95,11,4.14,3.53,7.08,8.42,12.47,11v10.23h17.36a63.66,63.66,0,0,0,4.54,4.72c1.61,1.39,2.49,4,5.81,3.76V122.62c0-4.18-.21-8.37.07-12.53.25-3.75,1.05-7.46,1.67-11.55h9.36c5-3.08,2-6.56,1.22-9.86,1.13-1.65,2.23-3.24,4-5.76,3.92-2.85,9.55-.85,15-1.49l5.06,5.6V98.18h10.73v6.39l2.87,1v24.68c7.34,0,14.46.25,21.56-.07,6.71-.31,13.65,1.52,20.36-1.26V118l2.55-.53c.12-1.54.25-3.27.4-5.24h7.64l1.21-3.3c.43,1.15.67,1.79,1.13,3h7.78c.1,2,.18,3.6.27,5.44l4,.63v12.21h24.39a3.7,3.7,0,0,1,.49.48,1.1,1.1,0,0,1,.22.59c0,7.85,0,15.7,0,24.06l5.3,1.84V133.09l-4.22-8.66,7-9.17-9.37-12.39c4.86-.2,9.21,2.12,12.64,7,.71-1.26,1.27-2.28,1.73-3.11h3.52v2.06L743.82,110l2.82,5.87-3.73,3.73c2.93,4-.44,9.2,2.43,13.44a3.65,3.65,0,0,1-1.18,4.84c2.45,2.8,1,6.15,1.26,9.22s.05,6,.05,9.15l2.47.73c.67-8.68.11-17.15.36-25.45,1.23-1.92,2.32-3.81,3.61-5.57s2.6-3.14,4.64-5.56c0,.12.08-1,.19-2.37h3.81c.14,1.19.27,2.29.43,3.63h13.44l1.67-7.92c.54-2.58-1.25-5.57,1.35-7.79l-2.23-2.69,3.76-1.16,1.52,1.29-1,2.18c.79,5,1.64,10.35,2.53,16h13.34c.12-1.1.23-2.2.37-3.58h3.72l.43,3.19c5.09.8,4.24,7,8.12,9.59V156.4h3.81c-.14.13.18,0,.18-.17,0-6.19,0-12.39,0-18.59l5.87-3.38,3.58,2.19c.31-1.76.52-3,.77-4.41l2.34-.82c.12-1.05.25-2.15.39-3.33l2.44-.92c.12-1.07.24-2.16.38-3.5h3.56c.25-1.47.47-2.75.72-4.19h5v3.32l2.83,1v3.28l2.88,1,.25,3.48h4.13c-.49-6.25.08-12.27,3.49-17.83,3.32,10.19,1.62,20.51,2,30.7.15,3.93,0,7.87,0,12.15h6.6c1.33-4.75-1-10,1.4-14.49l-1.33-7.34c1.48-2,2.63-3.61,3.76-5.15l3,4.14c-.36,3.08-1.51,5.95-.78,8.22,1.55,4.86,1,9.78,1.25,14.75l2.49.16V105.68l4-.76c.61-2.76.69-5.8,2-8.21,1.4-2.64,1.18-5.2,1.23-7.85.07-2.92,0-5.84.05-9.66l4.31,2.88c-.55,1.51-1.81,3.16-1.43,4.24,2.13,6.17.94,13.17,4.7,18.73l2.2.51V127c2.5,1.16,3.11,0,2.63-2.25h43V110.29l2.33-2.31,1.49,3.12,7.33-4.73V99.15l2.41-2.42,3.49,4.55v4.9l6.26,4.29,3-1.71c.71,5,.06,9.61.54,14.88a12.23,12.23,0,0,0,2.56-1.6c1.76-2,3.38-4.08,5.48-6.66,4.06,4.92,9.22,7.73,12.55,13v20.33l4.36,2.92c-1.94,3.41-2,3.42.58,6.43h15.29a2.63,2.63,0,0,0,.48-.42,1.15,1.15,0,0,0,.25-.58c0-8.32,0-16.64,0-25.66l16.46,2.79v-3.43l43.15,6.8v3.56l10.1,2.37q-.86,6.76-1.82,14.38h4.17V123.67l5.79-5.88h8.77l9.21-7v42.77h5.65V111.14c1.91-.34,2.17,1.44,3.19,2a24.66,24.66,0,0,1,2.73,1.79c1.09.8,2.12,1.68,3.4,2.7h9.49c1.17,2.37,2,5.25,6.36,3.87v16.12c0,5.1-.56,10.29.16,15.29s-4.38,9.94.74,15.33c.27-2.16.46-3.76.72-5.86h9.36c.09-1.36.14-2.25.2-3.08l-5.61-7.29v-7l4.83-5h7.89l3.54,1.75a4.52,4.52,0,0,0,.45.9c2.33,3.28,1.05,7,1.43,10.5l-4.09,4.09V162h12.07v-4.4L1153,150c.77-2.61,1.39-4.68,2.07-7,3.3-3.74,8-3.06,13-3l4.37,5.78c1.3,5.8-1.42,9.72-5.24,12.85V162H1181c0-1,.1-1.92.16-3l-5.4-4.78v-9.59l4.64-4.64c3.6.17,7.65-.84,11.65,2,2.29,3.18,1.59,7.29,1.52,11.29l-5.46,5.45v2.78c2.9,2.26,5.31-.22,8.16-1V148.62h24.37l2.39-2.89h15V129.92l10.81,8.49h4.76l13.19-5.57c.28.73.5,1.33.78,2.08L1251.79,143c3.44,2.83,6.06-.29,8.89-.36a58.85,58.85,0,0,0,8.47-1.31,27.71,27.71,0,0,1,9.58-.49l-2.84.81v6.46h16.54v-61c5.87-.37,11.62.87,16.7-2.39,0-.35-.05-.8-.1-1.74h-12.2c-.08-1.11-.13-1.74-.19-2.65h20.58c-.11,2.77.94,5.28,4.4,5.94v74.19l5.61.59V342.35Z"/><path class="cls-7" d="M-353.94,342.35V172.19h16.54v-6.8l4.17-.67v-15l3.14-5.35c.49.18,1,.2,1.1.42.79,1.76,1.51,3.55,2.45,5.83l-1.2,1.8,1.92,2.65h7.95c-.56-4.38,1.32-8.29,3.53-12.32l1.39,2.82,24.42-21.35c-.38-7,1.56-13.2,5.2-19.51.78,3.85,1.47,7.28,2.28,11.22l2,.67v7.68c4.31,3.66,8.64,7.32,12.95,11,4.14,3.53,7.07,8.42,12.47,11v10.23h17.35c1.38,1.45,2.83,3.23,4.55,4.72s2.48,4,5.81,3.76V122.62c0-4.18-.22-8.37.06-12.53.26-3.75,1.06-7.46,1.67-11.55h9.37c5-3.08,2-6.56,1.21-9.86l4-5.76c3.92-2.85,9.55-.85,15-1.49l5.07,5.6V98.18h10.72v6.39l2.87,1v24.68c7.34,0,14.47.25,21.56-.07,6.72-.31,13.66,1.52,20.36-1.26V118l2.56-.53c.12-1.54.25-3.27.4-5.24h7.63c.37-1,.67-1.81,1.21-3.3.43,1.15.68,1.79,1.13,3h7.78c.1,2,.18,3.6.27,5.44l4,.63v12.21h24.39a2.79,2.79,0,0,1,.49.48,1.11,1.11,0,0,1,.23.59c0,7.85,0,15.7,0,24.06l5.29,1.84V133.09l-4.22-8.66,7-9.17-9.38-12.39c4.86-.2,9.21,2.12,12.65,7l1.72-3.11h3.52v2.06L-70.29,110l2.83,5.87c-1.09,1.09-2.41,2.4-3.73,3.73,2.93,4-.45,9.2,2.42,13.44a3.65,3.65,0,0,1-1.17,4.84c2.45,2.8,1,6.15,1.25,9.22s.06,6,.06,9.15l2.46.73c.68-8.68.11-17.15.37-25.45,1.22-1.92,2.32-3.81,3.6-5.57s2.61-3.14,4.64-5.56c0,.12.08-1,.2-2.37h3.81c.14,1.19.26,2.29.42,3.63h13.44c.51-2.41,1.1-5.16,1.68-7.92.54-2.58-1.26-5.57,1.34-7.79l-2.22-2.69,3.76-1.16,1.52,1.29-1,2.18,2.54,16h13.34c.11-1.1.23-2.2.37-3.58h3.72l.43,3.19c5.09.8,4.24,7,8.11,9.59V156.4h3.82c-.14.13.18,0,.18-.17q0-9.28,0-18.59l5.87-3.38,3.58,2.19c.3-1.76.52-3,.77-4.41l2.33-.82c.13-1.05.26-2.15.4-3.33l2.44-.92c.11-1.07.23-2.16.38-3.5h3.56c.25-1.47.47-2.75.72-4.19h5v3.32l2.83,1v3.28l2.89,1,.25,3.48H33c-.49-6.25.08-12.27,3.49-17.83,3.32,10.19,1.61,20.51,2,30.7.14,3.93,0,7.87,0,12.15h6.61c1.32-4.75-1-10,1.4-14.49-.47-2.59-.94-5.18-1.34-7.34L49,129.36c1,1.36,2.22,3,3,4.14-.35,3.08-1.5,5.95-.78,8.22,1.55,4.86,1,9.78,1.26,14.75l2.48.16V105.68l4-.76c.61-2.76.7-5.8,2-8.21,1.4-2.64,1.18-5.2,1.24-7.85.06-2.92,0-5.84,0-9.66l4.32,2.88c-.55,1.51-1.81,3.16-1.44,4.24,2.13,6.17,1,13.17,4.71,18.73l2.2.51V127c2.5,1.16,3.1,0,2.63-2.25h43V110.29l2.32-2.31,1.5,3.12,7.32-4.73V99.15l2.42-2.42,3.49,4.55v4.9l6.25,4.29,3-1.71c.71,5,.06,9.61.54,14.88a12.23,12.23,0,0,0,2.56-1.6c1.75-2,3.37-4.08,5.48-6.66,4.06,4.92,9.21,7.73,12.55,13v20.33l4.35,2.92c-1.94,3.41-2,3.42.58,6.43h15.3a2.58,2.58,0,0,0,.47-.42,1.08,1.08,0,0,0,.26-.58c0-8.32,0-16.64,0-25.66l16.45,2.79v-3.43l43.16,6.8v3.56l10.09,2.37q-.85,6.76-1.82,14.38h4.17V123.67l5.8-5.88h8.76l9.21-7v42.77h5.65V111.14c1.92-.34,2.18,1.44,3.19,2a25.76,25.76,0,0,1,2.74,1.79c1.09.8,2.12,1.68,3.39,2.7h9.5c1.16,2.37,2,5.25,6.36,3.87v16.12c0,5.1-.56,10.29.16,15.29s-4.38,9.94.74,15.33c.26-2.16.46-3.76.72-5.86h9.35c.09-1.36.15-2.25.2-3.08l-5.6-7.29v-7l4.83-5H331c1.42.69,2.38,1.17,3.55,1.75a4.93,4.93,0,0,0,.44.9c2.33,3.28,1.06,7,1.44,10.5l-4.1,4.09V162H344.4v-4.4c-1.82-2.55-3.74-5.22-5.49-7.66.78-2.61,1.39-4.68,2.07-7,3.31-3.74,7.95-3.06,13-3l4.36,5.78c1.31,5.8-1.41,9.72-5.23,12.85V162h13.74c.05-1,.1-1.92.15-3l-5.4-4.78v-9.59l4.65-4.64c3.6.17,7.65-.84,11.64,2,2.29,3.18,1.59,7.29,1.52,11.29L374,158.72v2.78c2.91,2.26,5.32-.22,8.16-1V148.62h24.37l2.4-2.89h15V129.92l10.81,8.49h4.77l13.19-5.57c.27.73.5,1.33.78,2.08L437.68,143c3.45,2.83,6.07-.29,8.9-.36a58.85,58.85,0,0,0,8.47-1.31,27.71,27.71,0,0,1,9.58-.49c-1.35.38-2.7.76-2.84.81v6.46h16.54v-61C484.2,86.8,490,88,495,84.78c0-.35,0-.8-.1-1.74H482.72c-.08-1.11-.12-1.74-.18-2.65h20.57c-.1,2.77.95,5.28,4.41,5.94v74.19l5.6.59V342.35Z"/><path class="cls-8" d="M145.19,51A154.87,154.87,0,0,0,171,42.58c14.62-6.16,34.63.38,41.17,3.46s14.05,1,17.9.58,17.12-.2,25.59,4.42Z"/><path class="cls-8" d="M914.17,71.14s7.71-2.54,14.37-5.3c7.68-3.18,11.45,2,18.85,2.17s11-1.92,16.82-1.4c8.66.77,9.53,3.6,13.55,4.89Z"/><path class="cls-8" d="M12.87,36.27s11.55-13.42,28.3-7.1,16,2.11,24.42,1.44c7.23-.58,10.08,4.87,16.27,5.66Z"/><path class="cls-8" d="M500.16,57.18s5.56-1,17.79-7,25.65,2.72,34.46.87,16.94-2.42,24.19,1,12.44,2.24,19,1.35c6.77-.92,10.18,2.4,21.54,3.87Z"/><path class="cls-8" d="M840.14,30.34a113.82,113.82,0,0,0,33-9c16.65-7.46,27.25-2,35.63,2.66,11.56,6.38,21.65,3.12,32.76,3.54a107.05,107.05,0,0,1,20.73,2.84Z"/><path class="cls-8" d="M376.82,31a80.19,80.19,0,0,0,12.85-4.67c11.36-5.12,19-.31,24.63,1.08,9.28,2.29,14.24-2.93,32.61-.45a162.91,162.91,0,0,1,18.66,4Z"/><path class="cls-8" d="M-79.29,52.58s17.26-3.13,30.79-9,22.11,2.54,34.12,4.5S1.49,47,11.4,48.11c6.66.75,19.53,4.47,19.53,4.47Z"/><path class="cls-8" d="M696.89,78.87c-.28-1.49.58-3-.07-4.46s-2.12-1.47-3.43-1.77a46.67,46.67,0,0,1-5-1.19,3.8,3.8,0,0,1-3-4c0-2.35.49-5.62-2.51-6.39a14,14,0,0,0-4,.07,14.73,14.73,0,0,1-5.5-.88A8.07,8.07,0,0,1,670.81,59c-1-.88-.79-2-.3-3.1.63-1.4,1.59-2.59,1.93-4.12a4.28,4.28,0,0,0-3.54-5.34,15.61,15.61,0,0,0-4.21,0c-1.76.09-4.65-.05-5.12-2.27-.29-1.39,1.08-2.48,1.09-3.86a3.21,3.21,0,0,0-1.8-2.68c-1.4-.79-3-.62-4.52-1a5.21,5.21,0,0,1-3.5-3.53,7.1,7.1,0,0,1,.28-4.7c.65-1.66,2.31-4.53,4.49-3.52,1.25.58,2.19,1.92,3.31,2.73a11.27,11.27,0,0,0,4.27,1.94c3.22.66,6.32-.49,9.31-1.58A25.14,25.14,0,0,1,682.07,26a14.75,14.75,0,0,1,4.32.76c1.47.5,4.44,1.72,4.41,3.58a13,13,0,0,1-.56,2.35,14.65,14.65,0,0,0-.32,2.47c0,1.37,0,3.1.81,4.26a5.42,5.42,0,0,0,3.18,1.68c1.7.44,3.42.77,5.08,1.33,3.61,1.22,7.1,4.2,5.71,8.39-.57,1.72-1.64,3.23-2.34,4.89a9.84,9.84,0,0,0-.78,4.82,11.11,11.11,0,0,0,1.95,5.11c1.09,1.68,2.66,3.89,1.35,5.89-.89,1.35-2.5,2-3.44,3.33a3.38,3.38,0,0,0-.43,3.74c.37.66,1.4.06,1-.61-1-1.72,1.06-3.21,2.22-4.16a5.35,5.35,0,0,0,2.27-3.43,6.82,6.82,0,0,0-1.23-4.22c-1.12-1.83-2.31-3.44-2.53-5.65-.39-3.8,2.24-6.34,3.2-9.77a7,7,0,0,0-2.57-7.31c-2.6-2.16-6-2.68-9.17-3.5a6.81,6.81,0,0,1-1.91-.68,3.09,3.09,0,0,1-1.19-2.71,12.89,12.89,0,0,1,.17-3.1c.16-.92.52-1.79.64-2.72.39-2.9-3.31-4.53-5.59-5.24a18.85,18.85,0,0,0-9.11-.29c-3.47.65-6.61,2.4-10.07,3a9.48,9.48,0,0,1-5.59-.6,18.46,18.46,0,0,1-4.31-3.19c-2.21-1.85-4.53-1.05-6.09,1.2A8.73,8.73,0,0,0,650,34.1,6.63,6.63,0,0,0,652.51,37c1.52.93,3.25.72,4.9,1.21.91.27,2.05.9,2.05,2,0,.78-.59,1.49-.86,2.19a3.26,3.26,0,0,0,.58,3.4c2.3,2.72,5.87,1.28,8.88,1.64,1.69.2,3.3,1.12,3.33,3s-1.36,3.46-2.08,5.18c-1.54,3.67,2,5.38,5,6.18a16.48,16.48,0,0,0,5.81.42,5.37,5.37,0,0,1,3,.19,3,3,0,0,1,1.2,2.71c0,1.67-.42,3.42.39,5a5.54,5.54,0,0,0,3.36,2.48c1.91.64,3.94,1,5.9,1.4.57.13,1.27.19,1.65.72a2.9,2.9,0,0,1,.16,2,7.36,7.36,0,0,0-.07,2.52c.14.75,1.29.44,1.15-.32Z"/><path class="cls-8" d="M652.86,24.67a8.2,8.2,0,0,0-2.38,9,8.36,8.36,0,0,0,6.09,3.73c4.42.66,3.07,4.15,2.86,4.57s-1.67,5,3.45,4.93,9.47-.06,9.1,3.32-4.55,7.6-1.14,9.44a14.67,14.67,0,0,0,8.48,2c2.43-.18,5.36-.27,5.58,2.71s-.7,6.4,2.62,7.33,7.61,1.35,8.21,2.19.37,4,.37,4,.15,2,1.54,2.12a36.49,36.49,0,0,0,3.77,0s-.81-2.64,0-3.94,3.48-3.56,3.8-4a8,8,0,0,0-.71-6c-1.39-2.26-3.25-6.85-2-10s5-6.58,2.3-10-9.33-5.3-11.2-5.62-3.38-3-3.07-6.08,2.13-6.53-5.19-8.48-16.5,2.58-16.5,2.58-5.3.93-7.27-.13a31.92,31.92,0,0,1-4.4-3.1l-2.38-1.28Z"/><rect class="cls-9" x="695.41" y="79.7" width="4.5" height="12.73"/><polygon class="cls-10" points="695.54 80.4 700.08 81.65 700.08 79.83 695.54 79.83 695.54 80.4"/><rect class="cls-11" x="699.91" y="79.7" width="2.42" height="12.73"/><rect class="cls-12" x="695.75" y="77.37" width="8.65" height="3.19" rx="0.54"/><rect class="cls-13" x="693.33" y="77.37" width="8.65" height="3.19" rx="0.54"/><polygon class="cls-11" points="707.32 113.94 707.32 91.41 689.29 91.41 689.29 68.88 671.26 68.88 671.26 91.41 653.23 91.41 653.23 113.94 635.2 113.94 635.2 150.37 653.23 150.37 671.26 150.37 689.29 150.37 707.32 150.37 725.35 150.37 725.35 113.94 707.32 113.94"/><rect class="cls-11" x="655.09" y="153.08" width="118.64" height="52.59"/><rect class="cls-11" x="655.09" y="205.67" width="118.64" height="104.92"/><rect class="cls-11" x="739.71" y="98.08" width="18.92" height="50.91"/><rect class="cls-11" x="653.67" y="153.08" width="122.67" height="4.24"/><rect class="cls-11" x="653.67" y="205.67" width="122.67" height="4.24"/><rect class="cls-11" x="738.29" y="96.59" width="21.76" height="2.98"/><path class="cls-14" d="M729.78,96.59,743.5,64.45a.94.94,0,0,1,1.82,0l13.32,32.14Z"/><polygon class="cls-9" points="702.16 113.94 702.16 91.41 684.13 91.41 684.13 68.88 666.1 68.88 666.1 91.41 648.07 91.41 648.07 113.94 630.04 113.94 630.04 150.37 648.07 150.37 666.1 150.37 684.13 150.37 702.16 150.37 720.19 150.37 720.19 113.94 702.16 113.94"/><line class="cls-15" x1="664.85" y1="68.88" x2="685.38" y2="68.88"/><line class="cls-15" x1="684.13" y1="91.41" x2="703.41" y2="91.41"/><line class="cls-15" x1="702.16" y1="113.94" x2="721.44" y2="113.94"/><line class="cls-15" x1="666.1" y1="91.41" x2="646.82" y2="91.41"/><line class="cls-15" x1="648.07" y1="113.94" x2="628.78" y2="113.94"/><circle class="cls-16" cx="675.11" cy="82.55" r="4.6"/><circle class="cls-16" cx="657.7" cy="103.4" r="4.6"/><circle class="cls-16" cx="640.07" cy="124.05" r="4.6"/><circle class="cls-16" cx="710.36" cy="124.05" r="4.6"/><circle class="cls-16" cx="691.59" cy="103.4" r="4.6"/><rect class="cls-17" x="662.92" y="116.47" width="24.38" height="24.38"/><line class="cls-15" x1="675.11" y1="115.5" x2="675.11" y2="141.8"/><line class="cls-15" x1="688.26" y1="128.65" x2="661.96" y2="128.65"/><rect class="cls-9" x="630.06" y="153.08" width="118.64" height="52.59"/><rect class="cls-9" x="630.06" y="205.67" width="118.64" height="104.92"/><rect class="cls-8" x="643.24" y="169.91" width="23.21" height="23.21"/><line class="cls-15" x1="654.84" y1="168.99" x2="654.84" y2="194.03"/><line class="cls-15" x1="667.36" y1="181.51" x2="642.32" y2="181.51"/><rect class="cls-17" x="679.05" y="169.91" width="23.21" height="23.21"/><line class="cls-15" x1="690.65" y1="168.99" x2="690.65" y2="194.03"/><line class="cls-15" x1="703.17" y1="181.51" x2="678.13" y2="181.51"/><rect class="cls-8" x="714.86" y="169.91" width="23.21" height="23.21"/><line class="cls-15" x1="726.46" y1="168.99" x2="726.46" y2="194.03"/><line class="cls-15" x1="738.99" y1="181.51" x2="713.94" y2="181.51"/><rect class="cls-15" x="638.85" y="288.91" width="30.58" height="3.89"/><rect class="cls-15" x="643.43" y="285.02" width="26" height="3.89"/><rect class="cls-15" x="647.63" y="281.12" width="21.8" height="3.89"/><rect class="cls-11" x="659" y="288.91" width="13.74" height="3.89"/><rect class="cls-15" x="634.66" y="292.8" width="34.35" height="3.89"/><rect class="cls-11" x="654.6" y="292.8" width="18.15" height="3.89"/><rect class="cls-15" x="630.06" y="296.7" width="38.5" height="13.89"/><rect class="cls-11" x="650.44" y="296.7" width="22.3" height="13.89"/><rect class="cls-11" x="663.58" y="285.02" width="9.16" height="3.89"/><rect class="cls-11" x="667.79" y="281.12" width="4.96" height="3.89"/><path class="cls-16" d="M660.6,245h0a11,11,0,0,1,11,11v25.09a0,0,0,0,1,0,0h-22a0,0,0,0,1,0,0V256a11,11,0,0,1,11-11Z"/><path class="cls-13" d="M660.6,249.29h0a7.19,7.19,0,0,1,7.19,7.19V277a0,0,0,0,1,0,0H653.41a0,0,0,0,1,0,0V256.48a7.19,7.19,0,0,1,7.19-7.19Z"/><line class="cls-16" x1="660.6" y1="249.29" x2="660.6" y2="277.01"/><line class="cls-16" x1="653.41" y1="260.15" x2="667.79" y2="260.15"/><line class="cls-16" x1="653.41" y1="268.89" x2="667.79" y2="268.89"/><circle class="cls-10" cx="669.43" cy="265.18" r="0.84"/><rect class="cls-17" x="677.96" y="242.81" width="15.13" height="20.97"/><line class="cls-15" x1="676.97" y1="249.88" x2="694.07" y2="249.88"/><rect class="cls-8" x="702.19" y="242.81" width="15.13" height="20.97"/><line class="cls-15" x1="701.2" y1="249.88" x2="718.3" y2="249.88"/><rect class="cls-8" x="725.63" y="242.81" width="15.13" height="20.97"/><line class="cls-15" x1="724.64" y1="249.88" x2="741.74" y2="249.88"/><rect class="cls-8" x="677.96" y="215.6" width="15.13" height="20.97"/><line class="cls-15" x1="676.97" y1="222.67" x2="694.07" y2="222.67"/><rect class="cls-8" x="702.19" y="215.6" width="15.13" height="20.97"/><line class="cls-15" x1="701.2" y1="222.67" x2="718.3" y2="222.67"/><rect class="cls-8" x="653.03" y="215.6" width="15.13" height="20.97"/><line class="cls-15" x1="652.05" y1="222.67" x2="669.15" y2="222.67"/><rect class="cls-17" x="725.63" y="215.6" width="15.13" height="20.97"/><line class="cls-15" x1="724.64" y1="222.67" x2="741.74" y2="222.67"/><path class="cls-9" d="M734.77,310.59V294.05a21.44,21.44,0,1,0-42.87,0v16.54Z"/><path class="cls-11" d="M696.87,297.12A21.45,21.45,0,0,1,727,277.52a21.44,21.44,0,0,0-35.09,16.53v16.54h5Z"/><rect class="cls-9" x="729.78" y="98.08" width="18.92" height="50.91"/><rect class="cls-9" x="627.45" y="153.08" width="123.87" height="4.24"/><rect class="cls-11" x="651.73" y="148.84" width="127.56" height="4.24"/><rect class="cls-9" x="625.7" y="148.84" width="127.56" height="4.24"/><rect class="cls-9" x="627.45" y="205.67" width="123.87" height="4.24"/><polygon class="cls-10" points="748.71 209.91 630.06 209.91 630.06 212.61 748.71 209.91"/><polygon class="cls-10" points="748.71 157.32 630.06 157.32 630.06 159.62 748.71 157.32"/><polygon class="cls-10" points="751.32 153.08 627.45 153.08 627.45 155.37 751.32 153.08"/><polygon class="cls-10" points="751.32 205.67 627.45 205.67 627.45 207.97 751.32 205.67"/><polygon class="cls-10" points="753.25 148.84 625.7 148.84 625.7 151.13 753.25 148.84"/><polygon class="cls-10" points="630.04 113.94 648.07 113.94 630.06 115.96 630.04 113.94"/><polygon class="cls-10" points="648.24 91.41 666.27 91.41 648.27 93.43 648.24 91.41"/><polygon class="cls-10" points="666.1 68.88 684.13 68.88 666.12 70.91 666.1 68.88"/><rect class="cls-9" x="728.36" y="96.59" width="21.76" height="2.98"/><rect class="cls-9" x="742.15" y="63.26" width="4.52" height="1.72"/><line class="cls-9" x1="744.41" y1="63.26" x2="744.41" y2="60.25"/><circle class="cls-9" cx="744.41" cy="60.25" r="1.2"/><line class="cls-9" x1="731.67" y1="99.57" x2="731.67" y2="101.16"/><line class="cls-9" x1="734.75" y1="99.57" x2="734.75" y2="101.16"/><line class="cls-9" x1="737.83" y1="99.57" x2="737.83" y2="101.16"/><line class="cls-9" x1="740.9" y1="99.57" x2="740.9" y2="101.16"/><line class="cls-9" x1="743.98" y1="99.57" x2="743.98" y2="101.16"/><line class="cls-9" x1="747.06" y1="99.57" x2="747.06" y2="101.16"/><path class="cls-8" d="M739.24,105.68h0a1.59,1.59,0,0,1,1.59,1.59v12.19a0,0,0,0,1,0,0h-3.18a0,0,0,0,1,0,0V107.27A1.59,1.59,0,0,1,739.24,105.68Z"/><line class="cls-9" x1="736.86" y1="119.45" x2="741.63" y2="119.45"/><rect class="cls-18" x="632.93" y="161.44" width="6.58" height="2.93"/><rect class="cls-18" x="636.66" y="165.38" width="6.58" height="2.93"/><rect class="cls-18" x="637.26" y="198.77" width="6.58" height="2.93"/><rect class="cls-18" x="668.16" y="189.32" width="6.58" height="2.93"/><rect class="cls-18" x="672.09" y="193.99" width="6.58" height="2.93"/><rect class="cls-18" x="699.18" y="161.59" width="6.58" height="2.93"/><rect class="cls-18" x="711.12" y="198.77" width="6.58" height="2.93"/><rect class="cls-18" x="638.09" y="219.74" width="6.58" height="2.93"/><rect class="cls-18" x="635.56" y="224.95" width="6.58" height="2.93"/><rect class="cls-18" x="666.98" y="241.37" width="6.58" height="2.93"/><rect class="cls-18" x="636.66" y="271.15" width="6.58" height="2.93"/><rect class="cls-18" x="677.96" y="266.02" width="6.58" height="2.93"/><rect class="cls-18" x="681.25" y="271.15" width="6.58" height="2.93"/><rect class="cls-18" x="715.02" y="285.5" width="6.58" height="2.93"/><rect class="cls-18" x="709.25" y="289.39" width="6.58" height="2.93"/><rect class="cls-18" x="732.41" y="275.55" width="6.58" height="2.93"/><rect class="cls-18" x="737.47" y="268.22" width="6.58" height="2.93"/><rect class="cls-18" x="715.62" y="211.78" width="6.58" height="2.93"/><rect class="cls-18" x="738.34" y="160.87" width="6.58" height="2.93"/><rect class="cls-18" x="642.32" y="141.8" width="6.58" height="2.93"/><rect class="cls-18" x="636.78" y="137.34" width="6.58" height="2.93"/><rect class="cls-18" x="650.38" y="125.22" width="6.58" height="2.93"/><rect class="cls-18" x="670.51" y="105.68" width="6.58" height="2.93"/><rect class="cls-18" x="692.9" y="130.71" width="6.58" height="2.93"/><rect class="cls-18" x="695.58" y="125.22" width="6.58" height="2.93"/><rect class="cls-18" x="689.8" y="113.48" width="6.58" height="2.93"/><rect class="cls-18" x="668.53" y="99.69" width="6.58" height="2.93"/><rect class="cls-18" x="709.25" y="143.24" width="6.58" height="2.93"/><rect class="cls-18" x="736.42" y="141.77" width="6.58" height="2.93"/><rect class="cls-18" x="733.14" y="136.61" width="6.58" height="2.93"/><rect class="cls-18" x="739.24" y="122.07" width="6.58" height="2.93"/><circle class="cls-10" cx="596.35" cy="223.99" r="3.18"/><rect class="cls-13" x="602.05" y="223.99" width="23.89" height="28.02"/><line class="cls-15" x1="635.56" y1="223.99" x2="596.35" y2="223.99"/><path class="cls-8" d="M619.54,231.08l.39,1.66-1.22,1.11c-.14-.46-.21-1-.36-1.55Z"/><path class="cls-8" d="M614.91,231.8c-.29.48-.5,1-.82,1.46l-.81-1.48.81-1.49C614.38,230.81,614.65,231.29,614.91,231.8Z"/><path class="cls-8" d="M609.5,233.89l-1.2-1.15c.12-.54.23-1.07.37-1.59l1.17,1.15A16.18,16.18,0,0,1,609.5,233.89Z"/><path class="cls-8" d="M605.67,234.47c0,.48.06.94,0,1.41-.5-.73-1-1.47-1.46-2.21A15.2,15.2,0,0,1,605.67,234.47Z"/><path class="cls-8" d="M624.11,233.6c-.23.44-.56.8-.81,1.22s-.36.57-.53.85a.39.39,0,0,1-.14.15l.08-1.45a11.92,11.92,0,0,1,1.4-.76Z"/><polygon class="cls-8" points="624.11 233.6 624.11 233.61 624.12 233.6 624.11 233.6"/><path class="cls-8" d="M617.48,243.53a6.93,6.93,0,0,1-1.26.43,9.56,9.56,0,0,1-3.73.09A4.23,4.23,0,0,1,610,243a4.82,4.82,0,0,0-1.3.93c-.15.09-.05.18,0,.27a.12.12,0,0,0,.06.1h0a.25.25,0,0,0,.1.15l0,.05a.07.07,0,0,0,.05.07.21.21,0,0,0,.1.11h0l0,0h0l0,0h0a.07.07,0,0,0,.05,0h0a.77.77,0,0,0,.28.23s0,0,0,0,0,0,.07,0,0,.05.09.06a.06.06,0,0,0,.06,0,.4.4,0,0,0,.2.11.06.06,0,0,0,.06,0h0s0,.05.1.05h0a.1.1,0,0,0,.1,0h0a.09.09,0,0,0,.1.05v0h0a.07.07,0,0,0,.07,0h0a2.53,2.53,0,0,0,.79.3.1.1,0,0,0,.1,0,7.58,7.58,0,0,0,2.22.36h.15a4,4,0,0,0,.77,0,.87.87,0,0,0,.36,0,4.8,4.8,0,0,0,.93-.08.12.12,0,0,0,.1,0,1.18,1.18,0,0,0,.5-.11h0a4.34,4.34,0,0,0,1.16-.36,3.4,3.4,0,0,0,2.08-1.68,4.52,4.52,0,0,0-1.41-1A2.34,2.34,0,0,1,617.48,243.53Z"/><path class="cls-8" d="M609.12,237.11a.22.22,0,0,0-.13.12h0a.79.79,0,0,0,0,1h0a.37.37,0,0,0,.21.2h0a.72.72,0,0,0,.77,0h0c.07,0,.15,0,.24,0l.42,1.05c-.09.19-.24.3-.31.47l0,0s0,0,0,0a5.27,5.27,0,0,1,1.23-.29c-.19-.15-.41-.17-.57-.29a11.74,11.74,0,0,1-.16-1.17l.53-.17a.58.58,0,0,0,.36-.31.83.83,0,0,0-.27-1c-.09-.11-.23-.12-.35-.17.12-.4.06-.61-.21-.81a.37.37,0,0,0-.34-.12c-.11,0-.19.1-.29.09h0a.55.55,0,0,0-.14-.37.06.06,0,0,0,0-.06s0,0-.05-.05h0c-.26-.19-.4-.17-.58.06h0c-.19.2-.08.44-.06.67-.16.05-.36,0-.44.21l.18,0-.18,0s0,0,0,0a.51.51,0,0,0-.05.6h0a.2.2,0,0,0,.1.16h0c0,.09.14.1.12.2Zm.35-1.2h0Zm0,0h0Zm0-.05h0Zm0-.05Zm.06.25h0Zm0-.06h0Zm1.45-.24Zm-.58,0,.07,0-.07,0,0,0Zm.08,2.21a.55.55,0,0,0,.19-.18s0,0,.06,0a.08.08,0,0,0,.05-.05.19.19,0,0,0,.11-.09h0a.1.1,0,0,0,.08-.07h0a.67.67,0,0,0,.21-.2h0c.08.07,0,.12,0,.19h0a1.26,1.26,0,0,0-.17.35h0l-.15.3a3,3,0,0,1-.57.15l-.23-.13h0a.05.05,0,0,0-.06,0h0a.13.13,0,0,0-.09-.07.45.45,0,0,0-.21-.15.07.07,0,0,0-.06,0s-.12,0-.05-.11a3.24,3.24,0,0,0,.62.12h0A1,1,0,0,0,610.43,238Zm-.27-2.52a.76.76,0,0,1,0-.15A.76.76,0,0,0,610.16,235.45Zm0-.15Zm0-.05Zm.06.21v0Zm0,0v0Zm0,0h0Zm0,0v0Zm0,0h0Zm0,0h0Zm0,0h0Zm0,0h0Zm0,0Zm0,0h0Zm-.19-.44h0a2.75,2.75,0,0,0-.57.05A2.75,2.75,0,0,1,610.05,235.2Z"/><path class="cls-8" d="M611,242.26a12.16,12.16,0,0,1,5.4-.19,6.23,6.23,0,0,1,3,1.4.25.25,0,0,0,.16.09,1,1,0,0,0-.31-.57,4.09,4.09,0,0,0-1.47-.88,10.41,10.41,0,0,0-4.14-.63,9.72,9.72,0,0,0-3.52.73,3.52,3.52,0,0,0-1.25.8.8.8,0,0,0-.27.53c.11,0,.16-.09.22-.14A5.84,5.84,0,0,1,611,242.26Z"/><path class="cls-8" d="M621.36,237.69a.55.55,0,0,0-.69-.06c-.24.17-.22.42-.18.67-.29,0-.53,0-.66.27a.66.66,0,0,0,0,.55.1.1,0,0,0,0,.1.07.07,0,0,0,0,.07h0l0,.05h0l0,.05h0a79286911081.32,79286911081.32,0,0,1,.12.08s0,.05.05.05h0a.32.32,0,0,0,.18.12h0c.06.09.18.1.24.22-.11.31-.16.65-.29,1a1.85,1.85,0,0,0-.53.11,2.28,2.28,0,0,1,.53.34c.14-.48.3-.93.49-1.42-.16,0-.16-.13-.19-.24a2.27,2.27,0,0,0-.22-.54,0,0,0,0,0,0,0l0-.12a6.49,6.49,0,0,1,.56.6c.31-.78.67-1.51,1-2.26C621.61,237.22,621.48,237.45,621.36,237.69Z"/><path class="cls-8" d="M607.84,239.65a.14.14,0,0,0,.1-.07.76.76,0,0,0,.51-.78.5.5,0,0,0-.55-.51c-.06,0-.12.05-.17,0a.53.53,0,0,0-.86-.59c-.22-.37-.33-.44-.6-.38.36.74.7,1.47,1,2.24a4.15,4.15,0,0,1,.53-.57v.12a.79.79,0,0,0-.14.34h0c-.12.14,0,.38-.26.46.18.47.33.93.49,1.42a1.52,1.52,0,0,1,.51-.37,4.52,4.52,0,0,0-.53-.11,7.28,7.28,0,0,1-.27-1C607.69,239.75,607.79,239.73,607.84,239.65Z"/><path class="cls-8" d="M616.74,238h0c.18.12.42.13.63.24l-.17,1.14c-.17.13-.39.14-.55.3a4.47,4.47,0,0,1,1.3.34l-.38-.53.43-1.09a4.47,4.47,0,0,1,.45.09.62.62,0,0,0,.68-.16h0a.28.28,0,0,0,.13-.17s.05-.06.05-.11,0,0,0,0a.69.69,0,0,0-.17-.85,0,0,0,0,0,0,0c0-.12.16-.14.16-.25s.05,0,0-.06h0a.48.48,0,0,0,0-.54v0a.1.1,0,0,0-.05-.1h0a.05.05,0,0,0,0-.06c-.1-.15-.28-.09-.41-.17a.93.93,0,0,0,.06-.37.47.47,0,0,0-.26-.44.37.37,0,0,0-.43.1.1.1,0,0,0-.06.05.05.05,0,0,0,0,.06c-.11.1-.11.26-.18.38-.2-.08-.41-.18-.6,0a.2.2,0,0,0-.15.16h0a.65.65,0,0,0,0,.67.53.53,0,0,0-.36.15.06.06,0,0,0-.06.05s0,0,0,0a.52.52,0,0,0-.2.32A.71.71,0,0,0,616.74,238Zm1.92-2.07a.08.08,0,0,1,0,0,.08.08,0,0,0,0,0Zm.06.1,0,0Zm.1,0Zm0,0h0Zm0,0Zm0,0h0Zm.19,1.74h0v0Zm.14-1.69Zm-1.22-.42h0Zm-.42,0h0Zm.31.09h0Zm0,0h0Zm0,0h0Zm0,0h0Zm0,0h0Zm0,0h0Zm0,0h0Zm0,0h0Zm-.08,0h0Zm-.24,0h0l.08,0-.08,0Zm.2,0h0Zm0,0h0Zm0,0h0Zm-.27.19Zm-.08,1.49v0l.43.37.28.25c.33,0,.64-.16,1-.18l-.09.1a.07.07,0,0,0-.06,0s-.05,0-.06.05a.09.09,0,0,0-.09.06.06.06,0,0,0-.06.05h0l-.36.22a3,3,0,0,1-.58-.13l-.18-.34a.32.32,0,0,0-.1-.21.12.12,0,0,0,0-.11.05.05,0,0,0,0,0s0-.07,0-.08Z"/><path class="cls-8" d="M612.88,237.78c.08.12.22.12.34.13s.36,0,.55,0l.14,1.17-.46.38a5.66,5.66,0,0,1,1.3,0c-.14-.19-.35-.26-.46-.43.05-.39.07-.77.14-1.15l.53,0a.63.63,0,0,0,.5-.26.85.85,0,0,0-.06-1.06h0a0,0,0,0,0,0-.05.16.16,0,0,0-.15-.1v0s-.06-.06-.06-.11l0,0,0,0a.56.56,0,0,0,.06-.72c-.11-.3-.37-.29-.63-.26,0-.17,0-.33-.09-.46a.17.17,0,0,0-.11-.15h0c-.21-.19-.25-.19-.47-.06h0c-.27.15-.27.41-.25.67a.33.33,0,0,1-.1,0c-.5-.12-.75.44-.62.79,0,.09.08.17.11.24a.78.78,0,0,0-.45.68.19.19,0,0,0,0,.15A.66.66,0,0,0,612.88,237.78Zm2.34-1.27h0Zm.09,0h0Zm-.08,0h0Zm0,0h0Zm0,0h0Zm.06,0h0Zm-.13,0v0Zm-.1-.2h0Zm.08-.26h0Zm0,0h0Zm0,0h0Zm0,0v0Zm0,0v0Zm0,.05h0Zm.06-.25Zm0-.39Zm-.24-.16Zm0,0Zm0,0Zm-.11,0h0Zm-.27,0h0Zm0,0h0Zm0,0v0Zm0,0v0Zm0,0v0Zm0,0v0Zm0,0c0-.11,0-.23,0-.34h0C614.49,235,614.46,235.12,614.48,235.23Zm-.11-.49Zm0,0h0Zm0,0h0Zm-.15-.08a1.17,1.17,0,0,0-.32,0A1.17,1.17,0,0,1,614.22,234.72Zm-.43.24a2,2,0,0,0-.14.39h0A2,2,0,0,1,613.79,235Zm-.29,2.3h0a.09.09,0,0,0,.1.05h0a.11.11,0,0,0,.1.06,1.59,1.59,0,0,0,.41.21,1,1,0,0,0,.31-.16h0a.14.14,0,0,0,.11,0,.68.68,0,0,0,.26-.15h0a.17.17,0,0,0,.12-.06h0s0,0,0,0a.89.89,0,0,0-.21.26h0c-.14.11-.22.28-.37.41h-.58l-.16-.15h0a.07.07,0,0,0,0-.06s0,0,0-.06h0a.1.1,0,0,0-.07-.08s0-.05,0-.06a.06.06,0,0,0,0-.06.11.11,0,0,0-.07-.08h0s0,0-.05-.06l0,0C613.34,237.15,613.41,237.27,613.5,237.26Z"/><path class="cls-19" d="M763.51,247.79c0-16.8,9.71-18.2,10.67-33.59.89-14.2,0-26.76,15.85-26.76S805,200,805.88,214.2c1,15.39,10.67,16.79,10.67,33.59C816.55,283.86,763.51,283.86,763.51,247.79Z"/><line class="cls-20" x1="790.03" y1="208.78" x2="790.03" y2="301.96"/><line class="cls-20" x1="790.03" y1="263.55" x2="806.44" y2="247.14"/><line class="cls-20" x1="790.03" y1="244.87" x2="779.45" y2="234.29"/><line class="cls-20" x1="790.03" y1="258.23" x2="794.28" y2="253.98"/><line class="cls-20" x1="790.03" y1="217.39" x2="787.44" y2="214.81"/><path class="cls-21" d="M989.22,301.16c-5.35-6.59-14.88-13-25-13a37,37,0,0,0-12.74,2.3c-5.17-7.16-15.16-12-25.83-12-14.58,0-28.79,11.11-30.34,22.74Z"/><line class="cls-22" x1="897.68" y1="121.14" x2="901.93" y2="128.98"/><line class="cls-22" x1="882.83" y1="121.14" x2="878.59" y2="128.98"/><path class="cls-23" d="M880.3,102.58h19.9a0,0,0,0,1,0,0v12a9.95,9.95,0,0,1-9.95,9.95h0a9.95,9.95,0,0,1-9.95-9.95v-12A0,0,0,0,1,880.3,102.58Z"/><polygon class="cls-19" points="879.07 102.58 901.43 102.58 890.2 93.31 879.07 102.58"/><line class="cls-22" x1="879.07" y1="106.86" x2="901.43" y2="106.86"/><line class="cls-22" x1="880.57" y1="120.05" x2="899.92" y2="120.05"/><rect class="cls-22" x="804.77" y="139.04" width="102.06" height="162.12"/><rect class="cls-22" x="802.81" y="133.73" width="105.98" height="5.31"/><rect class="cls-21" x="906.82" y="139.04" width="24.29" height="162.12"/><rect class="cls-21" x="908.79" y="133.73" width="24.29" height="5.31"/><rect class="cls-21" x="911.56" y="128.43" width="24.29" height="5.31"/><rect class="cls-22" x="800.03" y="128.43" width="111.53" height="5.31"/><rect class="cls-17" x="818.85" y="156.4" width="29.32" height="29.32"/><line class="cls-20" x1="833.51" y1="155.25" x2="833.51" y2="186.89"/><line class="cls-20" x1="849.33" y1="171.07" x2="817.7" y2="171.07"/><rect class="cls-8" x="864.09" y="156.4" width="29.32" height="29.32"/><line class="cls-20" x1="878.75" y1="155.25" x2="878.75" y2="186.89"/><line class="cls-20" x1="894.57" y1="171.07" x2="862.94" y2="171.07"/><rect class="cls-8" x="818.85" y="199.71" width="29.32" height="29.32"/><line class="cls-20" x1="833.51" y1="198.56" x2="833.51" y2="230.2"/><line class="cls-20" x1="849.33" y1="214.38" x2="817.7" y2="214.38"/><rect class="cls-8" x="813.83" y="255.5" width="44.38" height="29.32"/><line class="cls-20" x1="836.02" y1="254.34" x2="836.02" y2="285.98"/><line class="cls-20" x1="859.37" y1="270.16" x2="812.68" y2="270.16"/><rect class="cls-17" x="864.09" y="199.71" width="29.32" height="29.32"/><line class="cls-20" x1="878.75" y1="198.56" x2="878.75" y2="230.2"/><line class="cls-20" x1="894.57" y1="214.38" x2="862.94" y2="214.38"/><line class="cls-20" x1="818.85" y1="139.04" x2="818.85" y2="142.8"/><line class="cls-20" x1="836.99" y1="139.04" x2="836.99" y2="142.8"/><line class="cls-20" x1="855.12" y1="139.04" x2="855.12" y2="142.8"/><line class="cls-20" x1="873.26" y1="139.04" x2="873.26" y2="142.8"/><line class="cls-20" x1="891.39" y1="139.04" x2="891.39" y2="142.8"/><rect class="cls-20" x="859" y="294.25" width="38.63" height="6.92"/><rect class="cls-20" x="864.79" y="289.33" width="32.84" height="4.92"/><rect class="cls-20" x="870.1" y="284.41" width="27.53" height="4.92"/><rect class="cls-21" x="884.47" y="294.25" width="17.36" height="6.92"/><rect class="cls-21" x="890.26" y="289.33" width="11.58" height="4.92"/><rect class="cls-21" x="895.57" y="284.41" width="6.26" height="4.92"/><path class="cls-19" d="M886.48,238.83h0a13.88,13.88,0,0,1,13.88,13.88v31.7a0,0,0,0,1,0,0H872.61a0,0,0,0,1,0,0v-31.7A13.88,13.88,0,0,1,886.48,238.83Z"/><path class="cls-17" d="M886.48,244.19h0a9.08,9.08,0,0,1,9.08,9.08v25.94a0,0,0,0,1,0,0H877.4a0,0,0,0,1,0,0V253.28a9.08,9.08,0,0,1,9.08-9.08Z"/><polygon class="cls-23" points="798.35 265.86 798.35 258.99 813.09 247.94 864.79 247.94 864.79 265.86 798.35 265.86"/><polyline class="cls-20" points="854.12 247.94 839.39 258.99 839.39 265.86"/><polyline class="cls-20" points="843.45 247.94 828.72 258.99 828.72 265.86"/><polyline class="cls-20" points="832.78 247.94 818.05 258.99 818.05 265.86"/><polyline class="cls-20" points="822.11 247.94 807.38 258.99 807.38 265.86"/><polygon class="cls-21" points="864.79 247.94 850.06 258.99 850.06 265.86 864.79 265.86 864.79 247.94"/><polygon class="cls-10" points="802.8 133.73 908.79 133.73 802.8 135.54 802.8 133.73"/><polygon class="cls-10" points="804.77 139.04 906.83 139.04 804.77 140.85 804.77 139.04"/><polygon class="cls-10" points="800.03 128.43 911.56 128.43 800.03 130.24 800.03 128.43"/><line class="cls-19" x1="886.48" y1="244.19" x2="886.48" y2="279.22"/><line class="cls-19" x1="877.4" y1="257.91" x2="895.57" y2="257.91"/><line class="cls-19" x1="877.4" y1="268.95" x2="895.57" y2="268.95"/><circle class="cls-10" cx="897.64" cy="264.27" r="1.06"/><rect class="cls-18" x="811.1" y="149.52" width="3.15" height="3.15"/><rect class="cls-18" x="807.38" y="156.4" width="3.15" height="3.15"/><rect class="cls-18" x="811.1" y="162.47" width="3.15" height="3.15"/><rect class="cls-18" x="811.1" y="185.31" width="3.15" height="3.15"/><rect class="cls-18" x="850.06" y="192.25" width="3.15" height="3.15"/><rect class="cls-18" x="895" y="178.48" width="3.15" height="3.15"/><rect class="cls-18" x="898.7" y="194.23" width="3.15" height="3.15"/><rect class="cls-18" x="897.64" y="201.23" width="3.15" height="3.15"/><rect class="cls-18" x="845.18" y="290.21" width="3.15" height="3.15"/><rect class="cls-18" x="850.06" y="287.75" width="3.15" height="3.15"/><rect class="cls-18" x="807.95" y="279.81" width="3.15" height="3.15"/><rect class="cls-18" x="852.55" y="183.73" width="3.15" height="3.15"/><rect class="cls-18" x="823.84" y="237.25" width="3.15" height="3.15"/><rect class="cls-18" x="828.72" y="232.49" width="3.15" height="3.15"/><rect class="cls-18" x="840.3" y="240.55" width="3.15" height="3.15"/><line class="cls-20" x1="946.27" y1="301.16" x2="946.27" y2="245.97"/><polygon class="cls-19" points="948.06 245.97 944.47 245.97 939.29 232.25 953.24 232.25 948.06 245.97"/><line class="cls-20" x1="938.43" y1="232.25" x2="954.1" y2="232.25"/><line class="cls-20" x1="943.6" y1="245.97" x2="948.93" y2="245.97"/><polygon class="cls-23" points="953.24 232.25 939.29 232.25 943.6 226.6 948.93 226.6 953.24 232.25"/><line class="cls-20" x1="942.74" y1="226.6" x2="949.79" y2="226.6"/><path class="cls-22" d="M946.27,224.17h0a1.67,1.67,0,0,1,1.67,1.67v.77a0,0,0,0,1,0,0h-3.34a0,0,0,0,1,0,0v-.77A1.67,1.67,0,0,1,946.27,224.17Z"/><line class="cls-20" x1="946.27" y1="231.39" x2="946.27" y2="245.97"/><line class="cls-20" x1="940.62" y1="238.38" x2="951.91" y2="238.38"/><rect class="cls-24" x="299.92" y="65.57" width="4.14" height="11.71"/><polygon class="cls-10" points="300.04 66.22 304.21 67.37 304.21 65.7 300.04 65.7 300.04 66.22"/><rect class="cls-25" x="304.06" y="65.57" width="2.23" height="11.71"/><rect class="cls-12" x="300.23" y="63.43" width="7.96" height="2.93" rx="0.5"/><rect class="cls-13" x="298.01" y="63.43" width="7.96" height="2.93" rx="0.5"/><rect class="cls-25" x="271.63" y="79.89" width="113.22" height="230.01"/><rect class="cls-26" x="271.63" y="79.89" width="113.22" height="230.01"/><line class="cls-24" x1="270.49" y1="115.52" x2="385.98" y2="115.52"/><rect class="cls-25" x="270.49" y="76.67" width="115.49" height="3.22"/><line class="cls-24" x1="270.49" y1="151.14" x2="385.98" y2="151.14"/><line class="cls-24" x1="270.49" y1="186.76" x2="385.98" y2="186.76"/><line class="cls-24" x1="270.49" y1="222.38" x2="385.98" y2="222.38"/><line class="cls-24" x1="270.49" y1="258" x2="385.98" y2="258"/><rect class="cls-27" x="293.24" y="79.89" width="131.5" height="230.01"/><rect class="cls-26" x="293.24" y="79.89" width="131.5" height="230.01"/><path class="cls-8" d="M309.35,87.66h0a5.74,5.74,0,0,1,5.74,5.74v12.05a0,0,0,0,1,0,0H303.62a0,0,0,0,1,0,0V93.4A5.74,5.74,0,0,1,309.35,87.66Z"/><line class="cls-26" x1="303.1" y1="105.45" x2="315.61" y2="105.45"/><line class="cls-26" x1="303.1" y1="92.43" x2="315.61" y2="92.43"/><path class="cls-8" d="M334.18,87.66h0a5.74,5.74,0,0,1,5.74,5.74v12.05a0,0,0,0,1,0,0H328.44a0,0,0,0,1,0,0V93.4a5.74,5.74,0,0,1,5.74-5.74Z"/><line class="cls-26" x1="327.92" y1="105.45" x2="340.43" y2="105.45"/><line class="cls-26" x1="327.92" y1="92.43" x2="340.43" y2="92.43"/><path class="cls-8" d="M359,87.66h0a5.74,5.74,0,0,1,5.74,5.74v12.05a0,0,0,0,1,0,0H353.26a0,0,0,0,1,0,0V93.4A5.74,5.74,0,0,1,359,87.66Z"/><line class="cls-26" x1="352.74" y1="105.45" x2="365.25" y2="105.45"/><line class="cls-26" x1="352.74" y1="92.43" x2="365.25" y2="92.43"/><path class="cls-8" d="M383.82,87.66h0a5.74,5.74,0,0,1,5.74,5.74v12.05a0,0,0,0,1,0,0H378.08a0,0,0,0,1,0,0V93.4A5.74,5.74,0,0,1,383.82,87.66Z"/><line class="cls-26" x1="377.57" y1="105.45" x2="390.07" y2="105.45"/><line class="cls-26" x1="377.57" y1="92.43" x2="390.07" y2="92.43"/><line class="cls-24" x1="292.11" y1="115.52" x2="425.88" y2="115.52"/><rect class="cls-24" x="292.11" y="76.67" width="133.78" height="3.22"/><path class="cls-8" d="M309.35,123.28h0a5.74,5.74,0,0,1,5.74,5.74v12.05a0,0,0,0,1,0,0H303.62a0,0,0,0,1,0,0V129a5.74,5.74,0,0,1,5.74-5.74Z"/><line class="cls-26" x1="303.1" y1="141.08" x2="315.61" y2="141.08"/><line class="cls-26" x1="303.1" y1="128.05" x2="315.61" y2="128.05"/><path class="cls-8" d="M334.18,123.28h0a5.74,5.74,0,0,1,5.74,5.74v12.05a0,0,0,0,1,0,0H328.44a0,0,0,0,1,0,0V129A5.74,5.74,0,0,1,334.18,123.28Z"/><line class="cls-26" x1="327.92" y1="141.08" x2="340.43" y2="141.08"/><line class="cls-26" x1="327.92" y1="128.05" x2="340.43" y2="128.05"/><path class="cls-8" d="M359,123.28h0a5.74,5.74,0,0,1,5.74,5.74v12.05a0,0,0,0,1,0,0H353.26a0,0,0,0,1,0,0V129A5.74,5.74,0,0,1,359,123.28Z"/><line class="cls-26" x1="352.74" y1="141.08" x2="365.25" y2="141.08"/><line class="cls-26" x1="352.74" y1="128.05" x2="365.25" y2="128.05"/><path class="cls-8" d="M383.82,123.28h0a5.74,5.74,0,0,1,5.74,5.74v12.05a0,0,0,0,1,0,0H378.08a0,0,0,0,1,0,0V129A5.74,5.74,0,0,1,383.82,123.28Z"/><line class="cls-26" x1="377.57" y1="141.08" x2="390.07" y2="141.08"/><line class="cls-26" x1="377.57" y1="128.05" x2="390.07" y2="128.05"/><line class="cls-24" x1="292.11" y1="151.14" x2="425.88" y2="151.14"/><path class="cls-8" d="M309.35,158.91h0a5.74,5.74,0,0,1,5.74,5.74V176.7a0,0,0,0,1,0,0H303.62a0,0,0,0,1,0,0V164.64A5.74,5.74,0,0,1,309.35,158.91Z"/><line class="cls-26" x1="303.1" y1="176.7" x2="315.61" y2="176.7"/><line class="cls-26" x1="303.1" y1="163.68" x2="315.61" y2="163.68"/><path class="cls-8" d="M334.18,158.91h0a5.74,5.74,0,0,1,5.74,5.74V176.7a0,0,0,0,1,0,0H328.44a0,0,0,0,1,0,0V164.64A5.74,5.74,0,0,1,334.18,158.91Z"/><line class="cls-26" x1="327.92" y1="176.7" x2="340.43" y2="176.7"/><line class="cls-26" x1="327.92" y1="163.68" x2="340.43" y2="163.68"/><path class="cls-8" d="M359,158.91h0a5.74,5.74,0,0,1,5.74,5.74V176.7a0,0,0,0,1,0,0H353.26a0,0,0,0,1,0,0V164.64A5.74,5.74,0,0,1,359,158.91Z"/><line class="cls-26" x1="352.74" y1="176.7" x2="365.25" y2="176.7"/><line class="cls-26" x1="352.74" y1="163.68" x2="365.25" y2="163.68"/><path class="cls-8" d="M383.82,158.91h0a5.74,5.74,0,0,1,5.74,5.74V176.7a0,0,0,0,1,0,0H378.08a0,0,0,0,1,0,0V164.64A5.74,5.74,0,0,1,383.82,158.91Z"/><line class="cls-26" x1="377.57" y1="176.7" x2="390.07" y2="176.7"/><line class="cls-26" x1="377.57" y1="163.68" x2="390.07" y2="163.68"/><line class="cls-24" x1="292.11" y1="186.76" x2="425.88" y2="186.76"/><path class="cls-8" d="M309.35,194.53h0a5.74,5.74,0,0,1,5.74,5.74v12.05a0,0,0,0,1,0,0H303.62a0,0,0,0,1,0,0V200.26A5.74,5.74,0,0,1,309.35,194.53Z"/><line class="cls-26" x1="303.1" y1="212.32" x2="315.61" y2="212.32"/><line class="cls-26" x1="303.1" y1="199.3" x2="315.61" y2="199.3"/><path class="cls-8" d="M334.18,194.53h0a5.74,5.74,0,0,1,5.74,5.74v12.05a0,0,0,0,1,0,0H328.44a0,0,0,0,1,0,0V200.26A5.74,5.74,0,0,1,334.18,194.53Z"/><line class="cls-26" x1="327.92" y1="212.32" x2="340.43" y2="212.32"/><line class="cls-26" x1="327.92" y1="199.3" x2="340.43" y2="199.3"/><path class="cls-8" d="M359,194.53h0a5.74,5.74,0,0,1,5.74,5.74v12.05a0,0,0,0,1,0,0H353.26a0,0,0,0,1,0,0V200.26A5.74,5.74,0,0,1,359,194.53Z"/><line class="cls-26" x1="352.74" y1="212.32" x2="365.25" y2="212.32"/><line class="cls-26" x1="352.74" y1="199.3" x2="365.25" y2="199.3"/><path class="cls-8" d="M383.82,194.53h0a5.74,5.74,0,0,1,5.74,5.74v12.05a0,0,0,0,1,0,0H378.08a0,0,0,0,1,0,0V200.26A5.74,5.74,0,0,1,383.82,194.53Z"/><line class="cls-26" x1="377.57" y1="212.32" x2="390.07" y2="212.32"/><line class="cls-26" x1="377.57" y1="199.3" x2="390.07" y2="199.3"/><line class="cls-24" x1="292.11" y1="222.38" x2="425.88" y2="222.38"/><path class="cls-8" d="M309.35,230.15h0a5.74,5.74,0,0,1,5.74,5.74v12.05a0,0,0,0,1,0,0H303.62a0,0,0,0,1,0,0V235.89A5.74,5.74,0,0,1,309.35,230.15Z"/><line class="cls-26" x1="303.1" y1="247.94" x2="315.61" y2="247.94"/><line class="cls-26" x1="303.1" y1="234.92" x2="315.61" y2="234.92"/><path class="cls-8" d="M334.18,230.15h0a5.74,5.74,0,0,1,5.74,5.74v12.05a0,0,0,0,1,0,0H328.44a0,0,0,0,1,0,0V235.89A5.74,5.74,0,0,1,334.18,230.15Z"/><line class="cls-26" x1="327.92" y1="247.94" x2="340.43" y2="247.94"/><line class="cls-26" x1="327.92" y1="234.92" x2="340.43" y2="234.92"/><path class="cls-8" d="M359,230.15h0a5.74,5.74,0,0,1,5.74,5.74v12.05a0,0,0,0,1,0,0H353.26a0,0,0,0,1,0,0V235.89A5.74,5.74,0,0,1,359,230.15Z"/><line class="cls-26" x1="352.74" y1="247.94" x2="365.25" y2="247.94"/><line class="cls-26" x1="352.74" y1="234.92" x2="365.25" y2="234.92"/><path class="cls-8" d="M383.82,230.15h0a5.74,5.74,0,0,1,5.74,5.74v12.05a0,0,0,0,1,0,0H378.08a0,0,0,0,1,0,0V235.89A5.74,5.74,0,0,1,383.82,230.15Z"/><line class="cls-26" x1="377.57" y1="247.94" x2="390.07" y2="247.94"/><line class="cls-26" x1="377.57" y1="234.92" x2="390.07" y2="234.92"/><path class="cls-8" d="M309.35,265.86h0a5.74,5.74,0,0,1,5.74,5.74v12.05a0,0,0,0,1,0,0H303.62a0,0,0,0,1,0,0V271.6A5.74,5.74,0,0,1,309.35,265.86Z"/><line class="cls-26" x1="303.1" y1="283.65" x2="315.61" y2="283.65"/><line class="cls-26" x1="303.1" y1="270.63" x2="315.61" y2="270.63"/><path class="cls-8" d="M334.18,265.86h0a5.74,5.74,0,0,1,5.74,5.74v12.05a0,0,0,0,1,0,0H328.44a0,0,0,0,1,0,0V271.6A5.74,5.74,0,0,1,334.18,265.86Z"/><line class="cls-26" x1="327.92" y1="283.65" x2="340.43" y2="283.65"/><line class="cls-26" x1="327.92" y1="270.63" x2="340.43" y2="270.63"/><path class="cls-8" d="M359,265.86h0a5.74,5.74,0,0,1,5.74,5.74v12.05a0,0,0,0,1,0,0H353.26a0,0,0,0,1,0,0V271.6A5.74,5.74,0,0,1,359,265.86Z"/><line class="cls-26" x1="352.74" y1="283.65" x2="365.25" y2="283.65"/><line class="cls-26" x1="352.74" y1="270.63" x2="365.25" y2="270.63"/><path class="cls-8" d="M383.82,265.86h0a5.74,5.74,0,0,1,5.74,5.74v12.05a0,0,0,0,1,0,0H378.08a0,0,0,0,1,0,0V271.6a5.74,5.74,0,0,1,5.74-5.74Z"/><line class="cls-26" x1="377.57" y1="283.65" x2="390.07" y2="283.65"/><line class="cls-26" x1="377.57" y1="270.63" x2="390.07" y2="270.63"/><path class="cls-8" d="M408.64,87.66h0a5.74,5.74,0,0,1,5.74,5.74v12.05a0,0,0,0,1,0,0H402.9a0,0,0,0,1,0,0V93.4A5.74,5.74,0,0,1,408.64,87.66Z"/><line class="cls-26" x1="402.39" y1="105.45" x2="414.89" y2="105.45"/><line class="cls-26" x1="402.39" y1="92.43" x2="414.89" y2="92.43"/><path class="cls-8" d="M408.64,123.28h0a5.74,5.74,0,0,1,5.74,5.74v12.05a0,0,0,0,1,0,0H402.9a0,0,0,0,1,0,0V129A5.74,5.74,0,0,1,408.64,123.28Z"/><line class="cls-26" x1="402.39" y1="141.08" x2="414.89" y2="141.08"/><line class="cls-26" x1="402.39" y1="128.05" x2="414.89" y2="128.05"/><path class="cls-8" d="M408.64,158.91h0a5.74,5.74,0,0,1,5.74,5.74V176.7a0,0,0,0,1,0,0H402.9a0,0,0,0,1,0,0V164.64A5.74,5.74,0,0,1,408.64,158.91Z"/><line class="cls-26" x1="402.39" y1="176.7" x2="414.89" y2="176.7"/><line class="cls-26" x1="402.39" y1="163.68" x2="414.89" y2="163.68"/><path class="cls-8" d="M408.64,194.53h0a5.74,5.74,0,0,1,5.74,5.74v12.05a0,0,0,0,1,0,0H402.9a0,0,0,0,1,0,0V200.26A5.74,5.74,0,0,1,408.64,194.53Z"/><line class="cls-26" x1="402.39" y1="212.32" x2="414.89" y2="212.32"/><line class="cls-26" x1="402.39" y1="199.3" x2="414.89" y2="199.3"/><path class="cls-8" d="M408.64,230.15h0a5.74,5.74,0,0,1,5.74,5.74v12.05a0,0,0,0,1,0,0H402.9a0,0,0,0,1,0,0V235.89A5.74,5.74,0,0,1,408.64,230.15Z"/><line class="cls-26" x1="402.39" y1="247.94" x2="414.89" y2="247.94"/><line class="cls-26" x1="402.39" y1="234.92" x2="414.89" y2="234.92"/><path class="cls-8" d="M408.64,265.86h0a5.74,5.74,0,0,1,5.74,5.74v12.05a0,0,0,0,1,0,0H402.9a0,0,0,0,1,0,0V271.6a5.74,5.74,0,0,1,5.74-5.74Z"/><line class="cls-26" x1="402.39" y1="283.65" x2="414.89" y2="283.65"/><line class="cls-26" x1="402.39" y1="270.63" x2="414.89" y2="270.63"/><line class="cls-24" x1="292.11" y1="258" x2="425.88" y2="258"/><polygon class="cls-10" points="424.75 79.89 293.24 81.69 293.24 79.89 424.75 79.89"/><polygon class="cls-10" points="292.11 76.67 292.11 78.28 425.28 76.67 292.11 76.67"/><path class="cls-13" d="M180.35,109.19c12.83,6.23,25.66-6.24,38.49,0v-26c-12.83-6.24-25.66,6.24-38.49,0Z"/><path class="cls-8" d="M206.62,86c.17.72.32,1.36.49,2-.52.54-1,1.08-1.54,1.64-.18-.56-.27-1.22-.46-1.88C205.58,87.24,206.07,86.66,206.62,86Z"/><path class="cls-8" d="M200.76,88.12c-.36.7-.62,1.39-1,2.1l-1-1.62c.33-.7.66-1.38,1-2.13C200.1,87,200.44,87.55,200.76,88.12Z"/><path class="cls-8" d="M193.94,92.3c-.53-.4-1-.79-1.52-1.2.14-.7.28-1.39.46-2.08l1.48,1.2C194.27,90.89,194.1,91.6,193.94,92.3Z"/><path class="cls-8" d="M189.1,93.57c0,.62.07,1.19.05,1.78-.63-.9-1.23-1.85-1.85-2.8C187.93,92.86,188.5,93.23,189.1,93.57Z"/><path class="cls-8" d="M212.39,89c-.3.52-.71,1-1,1.48l-.66,1.07a.48.48,0,0,1-.17.18c0-.62.06-1.21.09-1.83a10.92,10.92,0,0,1,1.77-.9Z"/><polygon class="cls-8" points="212.39 88.95 212.39 88.95 212.4 88.94 212.39 88.95"/><path class="cls-8" d="M204,102.21a11.93,11.93,0,0,1-1.6.88,13.2,13.2,0,0,1-4.71,1.25,4.22,4.22,0,0,1-3.15-.68,8.83,8.83,0,0,0-1.64,1.46c-.18.14-.06.24,0,.34a.1.1,0,0,0,.06.11h0a.23.23,0,0,0,.12.18l0,.06a.08.08,0,0,0,.07.07.2.2,0,0,0,.12.12s0,0,0,0l0,0,.06,0h0l.06,0h0a.07.07,0,0,0,.07,0h0a.77.77,0,0,0,.35.23s0,0,0,0a.09.09,0,0,0,.09,0s.07,0,.12,0,0,0,.08,0a.35.35,0,0,0,.25.09s0,0,.08,0h0a.12.12,0,0,0,.13,0h0a.12.12,0,0,0,.13,0h0a.12.12,0,0,0,.13,0h0s.05,0,.1,0h0a2.82,2.82,0,0,0,1,.16.14.14,0,0,0,.13,0,8.86,8.86,0,0,0,2.79-.21l.2,0a5.83,5.83,0,0,0,1-.24,1.07,1.07,0,0,0,.45-.14,6.39,6.39,0,0,0,1.17-.38A.18.18,0,0,0,202,106a1.7,1.7,0,0,0,.63-.28h0a6.7,6.7,0,0,0,1.47-.78,5.79,5.79,0,0,0,2.63-2.57,4.43,4.43,0,0,0-1.78-1A4,4,0,0,1,204,102.21Z"/><path class="cls-8" d="M193.45,96.46a.33.33,0,0,0-.16.17l0,0a1,1,0,0,0,0,1.21h0a.33.33,0,0,0,.26.21h0c.32.19.64,0,1-.16h0c.1,0,.19-.09.31-.07.17.41.36.83.53,1.23-.11.26-.3.44-.39.67l0,.05s.06,0,.08,0a8.28,8.28,0,0,1,1.54-.69c-.24-.14-.51-.11-.72-.22-.06-.47-.17-.94-.2-1.42l.67-.37a.94.94,0,0,0,.45-.49.9.9,0,0,0-.33-1.24c-.12-.12-.3-.08-.45-.12.15-.53.08-.78-.27-1a.39.39,0,0,0-.43-.06c-.13,0-.22.17-.36.18h0a.57.57,0,0,0-.19-.42.07.07,0,0,0-.05-.07.08.08,0,0,0-.07-.05h0c-.33-.17-.51-.12-.74.21h0c-.24.3-.1.58-.08.86-.2.11-.44.1-.55.36a.94.94,0,0,0,.23-.1.94.94,0,0,1-.23.1s0,0,0,0a.69.69,0,0,0-.06.77h0a.2.2,0,0,0,.12.19h0c0,.1.17.09.15.22Zm.44-1.59v0Zm0-.06v0Zm0-.07h0Zm0-.06Zm.08.3h0Zm0-.07v0Zm1.82-.66Zm-.72.21.08,0-.08,0h0Zm.1,2.77a1,1,0,0,0,.24-.27.14.14,0,0,0,.07-.08.12.12,0,0,0,.06-.08.27.27,0,0,0,.14-.14h0a.19.19,0,0,0,.09-.11h0a1.63,1.63,0,0,0,.27-.31h0c.09.07-.06.17,0,.24h0a1.87,1.87,0,0,0-.2.49h0l-.19.42a4.22,4.22,0,0,1-.72.33l-.28-.1h0a.06.06,0,0,0-.08,0h0s-.07-.06-.12-.06a.42.42,0,0,0-.26-.14.06.06,0,0,0-.08,0c0-.07-.14,0-.06-.13a5.06,5.06,0,0,0,.78,0h0C194.88,97.26,195,97.22,195.11,97.23Zm-.35-3.1a1.15,1.15,0,0,0,0-.19A1.15,1.15,0,0,1,194.76,94.13Zm0-.19Zm-.06-.06Zm.07.25v0Zm0,0v0Zm0,0v0Zm0,0s0,0,0,0Zm0,0h0Zm0,0v0S194.81,94.28,194.8,94.27Zm0,0h0A0,0,0,0,0,194.82,94.3Zm0,0h0Zm.06,0Zm0,0h0Zm-.24-.51h0a6.44,6.44,0,0,0-.72.2A6.44,6.44,0,0,1,194.63,93.82Z"/><path class="cls-8" d="M195.87,102.49a17.43,17.43,0,0,1,6.82-1.84,5.9,5.9,0,0,1,3.81,1,.27.27,0,0,0,.21.08,1.16,1.16,0,0,0-.4-.66,3.78,3.78,0,0,0-1.85-.78,11.6,11.6,0,0,0-5.23.39,17.11,17.11,0,0,0-4.45,1.93,6.38,6.38,0,0,0-1.58,1.3,1.24,1.24,0,0,0-.34.73.63.63,0,0,0,.28-.22A10.39,10.39,0,0,1,195.87,102.49Z"/><path class="cls-8" d="M208.92,94.11a.69.69,0,0,0-.88,0,.84.84,0,0,0-.23.87.76.76,0,0,0-.82.44.8.8,0,0,0,0,.69.12.12,0,0,0,.07.13.07.07,0,0,0,0,.07h0l.06.06h0l.06,0h0a.07.07,0,0,0,.07,0,.09.09,0,0,0,.08,0s0,0,.07,0h0a.41.41,0,0,0,.23.13h0c.07.1.22.1.3.25-.14.4-.21.84-.37,1.25a2.8,2.8,0,0,0-.67.23,1.87,1.87,0,0,1,.67.35c.19-.63.39-1.23.62-1.86-.2,0-.19-.15-.24-.28a2.1,2.1,0,0,0-.28-.65s0,0,0,0,0-.1,0-.15a5.58,5.58,0,0,1,.7.68c.4-1,.85-2,1.29-2.94C209.24,93.5,209.07,93.8,208.92,94.11Z"/><path class="cls-8" d="M191.84,99.9s.1,0,.12-.1a1.12,1.12,0,0,0,.64-1.07.54.54,0,0,0-.69-.55c-.07,0-.15.08-.21,0,.06-.3.06-.59-.21-.76a.74.74,0,0,0-.89.14c-.27-.45-.4-.53-.75-.43.46.9.89,1.79,1.29,2.72a7.35,7.35,0,0,1,.67-.79v.15a1.09,1.09,0,0,0-.18.45h0c-.14.2-.06.49-.33.63.23.56.42,1.12.62,1.72a2.28,2.28,0,0,1,.65-.56,5,5,0,0,0-.67,0,8.76,8.76,0,0,1-.35-1.21C191.64,100.06,191.77,100,191.84,99.9Z"/><path class="cls-8" d="M203.08,95.4h0a5.76,5.76,0,0,0,.8.14c-.07.5-.15,1-.22,1.49-.22.21-.49.28-.69.53a4.77,4.77,0,0,1,1.64.08l-.49-.56.55-1.49a3.53,3.53,0,0,1,.57,0,.92.92,0,0,0,.86-.36h0a.45.45,0,0,0,.16-.25.13.13,0,0,0,.06-.14,0,0,0,0,0,0,0,.81.81,0,0,0-.21-1s0-.06-.07,0c0-.15.21-.2.21-.35a.11.11,0,0,0,.05-.09h0a.6.6,0,0,0,0-.68s0,0,0,0a.11.11,0,0,0-.07-.12h0s0,0,0,0,0,0,0,0a.05.05,0,0,0-.06-.06c-.12-.18-.35-.06-.52-.13a1.44,1.44,0,0,0,.08-.49.47.47,0,0,0-.33-.49.51.51,0,0,0-.54.22s-.07,0-.07.08a.1.1,0,0,0-.06.09c-.14.15-.13.35-.23.52a.63.63,0,0,0-.75.18.41.41,0,0,0-.2.25h0a.89.89,0,0,0-.06.86.79.79,0,0,0-.45.29.08.08,0,0,0-.07.07.13.13,0,0,0-.07.09.85.85,0,0,0-.25.45C202.54,94.89,202.69,95.28,203.08,95.4Zm2.42-3.09,0-.07,0,.07Zm.08.11,0,0Zm.12,0h0Zm0,0h0Zm0,0h0Zm0,0h0Zm.23,2.16h0s0,0,0,0S206,94.58,206,94.56Zm.18-2.17Zm-1.54-.25v0Zm-.53.12h0Zm.39,0h0Zm0,0h0Zm-.05,0h0Zm-.05,0h0Zm0,0h0Zm-.05,0h0Zm0,0h0Zm-.05,0h0Zm-.1,0h0Zm-.3.11h0l.1,0-.1,0Zm.25-.1h0Zm0,0-.05,0Zm-.05,0,0,0Zm-.34.31h0Zm-.11,1.91s0,0,0,0l.54.36.35.24c.43-.11.81-.35,1.22-.44l-.12.14a.08.08,0,0,0-.07.07.1.1,0,0,0-.08.06c-.05,0-.1,0-.12.11a.1.1,0,0,0-.07.07h0l-.45.37a3.55,3.55,0,0,1-.73,0c-.09-.14-.16-.26-.23-.39a.36.36,0,0,0-.13-.24s0-.1-.05-.12a.05.05,0,0,0,0,0,.07.07,0,0,0-.05-.09A0,0,0,0,0,203.49,94.53Z"/><path class="cls-8" d="M198.2,96.3c.11.12.27.09.43.06s.45-.08.7-.13c.06.49.12,1,.17,1.44l-.58.62a7,7,0,0,1,1.65-.36c-.18-.2-.44-.23-.59-.4.07-.51.09-1,.18-1.51l.67-.19a1.06,1.06,0,0,0,.63-.48,1,1,0,0,0-.07-1.32h0s0,0-.06,0a.2.2,0,0,0-.2-.09v0s-.07,0-.07-.11l0,0,0,0a.73.73,0,0,0,.07-.93c-.14-.35-.47-.26-.79-.14,0-.2,0-.42-.12-.55s-.05-.15-.13-.16h0c-.28-.16-.32-.16-.59.07h0a1,1,0,0,0-.33.93.53.53,0,0,1-.12,0,.92.92,0,0,0-.78,1.19c0,.09.09.18.14.27a1.32,1.32,0,0,0-.58,1,.34.34,0,0,0,0,.2A.64.64,0,0,0,198.2,96.3Zm3-2.32h0Zm.12,0h0Zm-.09,0h0Zm0,0h0Zm0,0h0Zm.07,0h0Zm-.16,0s0,0,0,0S201.14,94,201.15,94Zm-.13-.22v0Zm.1-.36v0Zm0,0s0,0,0,0S201.12,93.45,201.12,93.44Zm0,.06v0S201.11,93.51,201.11,93.5Zm0,0v0Zm0,0a0,0,0,0,1,0,0A0,0,0,0,0,201.08,93.6Zm0,.08h0Zm.08-.33Zm0-.5Zm-.3-.12Zm0,0Zm0,0Zm-.13,0-.08,0Zm-.35.1h0Zm0,0v0Zm0,0s0,0,0,0Zm0,0v0Zm0,0v0Zm0,0v0Zm0,0c0-.14,0-.29,0-.43h0C200.23,92.3,200.2,92.45,200.22,92.59Zm-.13-.59Zm0,0v0Zm0,0h0Zm-.2,0a1.29,1.29,0,0,0-.39,0A1.29,1.29,0,0,1,199.89,92Zm-.54.44a4.72,4.72,0,0,0-.18.53h0A3.31,3.31,0,0,1,199.35,92.47Zm-.37,3h0a.11.11,0,0,0,.13,0h0a.12.12,0,0,0,.13,0,1.48,1.48,0,0,0,.52.14,1.68,1.68,0,0,0,.39-.3h0a.17.17,0,0,0,.13-.1,1.06,1.06,0,0,0,.34-.26h0a.23.23,0,0,0,.14-.1s0,0,0,0,.06,0,.06.05a1.39,1.39,0,0,0-.27.38h0c-.18.19-.28.43-.46.64l-.74.17-.2-.14h0a.07.07,0,0,0-.06-.06.06.06,0,0,0,0-.06h0s0-.08-.1-.08,0-.06,0,0a.09.09,0,0,0-.06-.07.11.11,0,0,0-.09-.08h0s0,0-.06,0l-.06-.06C198.79,95.37,198.87,95.49,199,95.46Z"/><polygon class="cls-21" points="174.23 133.03 51.61 193.95 51.61 193.95 51.61 234.06 51.61 238.36 51.61 309.52 296.86 309.52 296.86 238.36 296.86 234.06 296.86 193.95 174.23 133.03"/><polygon class="cls-21" points="153.33 189.52 53.27 189.52 48.6 189.52 48.6 184.83 173.64 124.12 174.55 124.12 218.75 124.07 218.75 162.96 153.33 189.52"/><polyline class="cls-21" points="173.96 133.53 51.33 194.45 46.59 194.45 46.59 189.68 173.63 128.05 174.56 128.05 301.6 189.68 301.6 194.45 296.86 194.45 174.23 133.53"/><polygon class="cls-27" points="218.84 133.03 96.22 193.95 96.22 193.95 96.22 234.06 96.22 238.36 96.22 309.52 341.47 309.52 341.47 238.36 341.47 234.06 341.47 193.95 218.84 133.03"/><rect class="cls-18" x="263.12" y="284.77" width="8.63" height="3.84"/><rect class="cls-18" x="144.36" y="217.02" width="8.63" height="3.84"/><rect class="cls-18" x="296.02" y="203.03" width="8.63" height="3.84"/><rect class="cls-18" x="288.2" y="209.69" width="8.63" height="3.84"/><rect class="cls-18" x="304.65" y="281.37" width="8.63" height="3.84"/><rect class="cls-18" x="174.1" y="183.45" width="8.63" height="3.84"/><rect class="cls-18" x="120.14" y="280.6" width="8.63" height="3.84"/><rect class="cls-18" x="124.82" y="195.82" width="8.63" height="3.84"/><rect class="cls-18" x="213.59" y="152.8" width="8.63" height="3.84"/><rect class="cls-18" x="136.87" y="190.47" width="8.63" height="3.84"/><rect class="cls-18" x="291.7" y="185.79" width="8.63" height="3.84"/><rect class="cls-18" x="180.35" y="190.35" width="8.63" height="3.84"/><rect class="cls-18" x="256.26" y="203.81" width="8.63" height="3.84"/><rect class="cls-18" x="248.54" y="194.32" width="8.63" height="3.84"/><rect class="cls-18" x="254.61" y="187.54" width="8.63" height="3.84"/><rect class="cls-18" x="113.94" y="242.84" width="8.63" height="3.84"/><rect class="cls-18" x="184.26" y="269.49" width="8.63" height="3.84"/><rect class="cls-18" x="263.33" y="228.62" width="8.63" height="3.84"/><rect class="cls-18" x="149.24" y="292.45" width="8.63" height="3.84"/><rect class="cls-18" x="160.25" y="289.03" width="8.63" height="3.84"/><rect class="cls-18" x="270.23" y="278.68" width="8.63" height="3.84"/><rect class="cls-8" x="198.53" y="239.46" width="40.08" height="70.07"/><line class="cls-20" x1="197.12" y1="249.17" x2="240.01" y2="249.17"/><line class="cls-20" x1="197.12" y1="239.46" x2="240.01" y2="239.46"/><line class="cls-20" x1="218.57" y1="249.17" x2="218.57" y2="309.52"/><rect class="cls-27" x="203.44" y="255.92" width="8.54" height="27.37"/><rect class="cls-27" x="225.19" y="255.92" width="8.54" height="27.37"/><line class="cls-20" x1="206.54" y1="249.17" x2="206.54" y2="239.46"/><line class="cls-20" x1="214.56" y1="249.17" x2="214.56" y2="239.46"/><line class="cls-20" x1="222.57" y1="249.17" x2="222.57" y2="239.46"/><line class="cls-20" x1="230.59" y1="249.17" x2="230.59" y2="239.46"/><path class="cls-19" d="M129.13,225.28h0A10.87,10.87,0,0,1,140,236.15v34.27a0,0,0,0,1,0,0H118.26a0,0,0,0,1,0,0V236.15A10.87,10.87,0,0,1,129.13,225.28Z"/><path class="cls-17" d="M129.13,229.48h0a7.12,7.12,0,0,1,7.12,7.12v29.58a0,0,0,0,1,0,0H122a0,0,0,0,1,0,0V236.6A7.12,7.12,0,0,1,129.13,229.48Z"/><line class="cls-19" x1="129.13" y1="229.48" x2="129.13" y2="266.18"/><line class="cls-19" x1="122.02" y1="240.23" x2="136.25" y2="240.23"/><line class="cls-19" x1="122.02" y1="248.88" x2="136.25" y2="248.88"/><line class="cls-19" x1="122.02" y1="257.53" x2="136.25" y2="257.53"/><line class="cls-19" x1="122.02" y1="266.18" x2="136.25" y2="266.18"/><line class="cls-19" x1="117.08" y1="270.42" x2="141.19" y2="270.42"/><path class="cls-19" d="M157.22,225.28h0a10.87,10.87,0,0,1,10.87,10.87v34.27a0,0,0,0,1,0,0H146.35a0,0,0,0,1,0,0V236.15A10.87,10.87,0,0,1,157.22,225.28Z"/><path class="cls-17" d="M157.22,229.48h0a7.12,7.12,0,0,1,7.12,7.12v29.58a0,0,0,0,1,0,0H150.1a0,0,0,0,1,0,0V236.6a7.12,7.12,0,0,1,7.12-7.12Z"/><line class="cls-19" x1="157.22" y1="229.48" x2="157.22" y2="266.18"/><line class="cls-19" x1="150.1" y1="240.23" x2="164.34" y2="240.23"/><line class="cls-19" x1="150.1" y1="248.88" x2="164.34" y2="248.88"/><line class="cls-19" x1="150.1" y1="257.53" x2="164.34" y2="257.53"/><line class="cls-19" x1="150.1" y1="266.18" x2="164.34" y2="266.18"/><line class="cls-19" x1="145.17" y1="270.42" x2="169.27" y2="270.42"/><path class="cls-19" d="M278.52,225.28h0a10.87,10.87,0,0,1,10.87,10.87v34.27a0,0,0,0,1,0,0H267.65a0,0,0,0,1,0,0V236.15A10.87,10.87,0,0,1,278.52,225.28Z"/><path class="cls-17" d="M278.52,229.48h0a7.12,7.12,0,0,1,7.12,7.12v29.58a0,0,0,0,1,0,0H271.4a0,0,0,0,1,0,0V236.6A7.12,7.12,0,0,1,278.52,229.48Z"/><line class="cls-19" x1="278.52" y1="229.48" x2="278.52" y2="266.18"/><line class="cls-19" x1="271.4" y1="240.23" x2="285.63" y2="240.23"/><line class="cls-19" x1="271.4" y1="248.88" x2="285.63" y2="248.88"/><line class="cls-19" x1="271.4" y1="257.53" x2="285.63" y2="257.53"/><line class="cls-19" x1="271.4" y1="266.18" x2="285.63" y2="266.18"/><line class="cls-19" x1="266.47" y1="270.42" x2="290.57" y2="270.42"/><path class="cls-19" d="M306.6,225.28h0a10.87,10.87,0,0,1,10.87,10.87v34.27a0,0,0,0,1,0,0H295.73a0,0,0,0,1,0,0V236.15A10.87,10.87,0,0,1,306.6,225.28Z"/><path class="cls-17" d="M306.6,229.48h0a7.12,7.12,0,0,1,7.12,7.12v29.58a0,0,0,0,1,0,0H299.49a0,0,0,0,1,0,0V236.6A7.12,7.12,0,0,1,306.6,229.48Z"/><line class="cls-19" x1="306.6" y1="229.48" x2="306.6" y2="266.18"/><line class="cls-19" x1="299.49" y1="240.23" x2="313.72" y2="240.23"/><line class="cls-19" x1="299.49" y1="248.88" x2="313.72" y2="248.88"/><line class="cls-19" x1="299.49" y1="257.53" x2="313.72" y2="257.53"/><line class="cls-19" x1="299.49" y1="266.18" x2="313.72" y2="266.18"/><line class="cls-19" x1="294.55" y1="270.42" x2="318.65" y2="270.42"/><rect class="cls-8" x="196.32" y="163.8" width="19.49" height="50.85"/><line class="cls-28" x1="195.73" y1="198.35" x2="216.41" y2="198.35"/><line class="cls-28" x1="195.73" y1="180.55" x2="216.41" y2="180.55"/><line class="cls-28" x1="206.07" y1="179.95" x2="206.07" y2="215.24"/><line class="cls-28" x1="206.07" y1="163.8" x2="206.07" y2="214.65"/><rect class="cls-8" x="221.42" y="163.8" width="19.49" height="50.85"/><line class="cls-28" x1="220.82" y1="198.35" x2="241.5" y2="198.35"/><line class="cls-28" x1="220.82" y1="180.55" x2="241.5" y2="180.55"/><line class="cls-28" x1="231.16" y1="179.95" x2="231.16" y2="215.24"/><line class="cls-28" x1="231.16" y1="163.8" x2="231.16" y2="214.65"/><polygon class="cls-20" points="218.84 133.03 96.22 193.95 96.22 193.95 96.22 234.06 96.22 238.36 96.22 309.52 341.47 309.52 341.47 238.36 341.47 234.06 341.47 193.95 218.84 133.03"/><rect class="cls-13" x="188.58" y="221.68" width="58.66" height="10.79"/><rect class="cls-19" x="181.54" y="219.68" width="7.04" height="76.62"/><rect class="cls-23" x="179.55" y="234.65" width="11.01" height="3.13"/><rect class="cls-23" x="179.55" y="216.55" width="11.01" height="3.13"/><rect class="cls-23" x="179.55" y="296.39" width="11.01" height="13.13"/><rect class="cls-19" x="247.24" y="219.68" width="7.04" height="76.62"/><rect class="cls-23" x="245.25" y="234.65" width="11.01" height="3.13"/><rect class="cls-23" x="245.25" y="216.55" width="11.01" height="3.13"/><rect class="cls-23" x="245.25" y="296.39" width="11.01" height="13.13"/><rect class="cls-18" x="98.17" y="193.15" width="6.03" height="3.84" transform="translate(230.31 17.25) rotate(63.4)"/><rect class="cls-18" x="109.78" y="187.34" width="6.03" height="3.84" transform="translate(231.52 3.67) rotate(63.4)"/><rect class="cls-18" x="121.38" y="181.53" width="6.03" height="3.84" transform="translate(232.73 -9.92) rotate(63.4)"/><rect class="cls-18" x="132.99" y="175.72" width="6.03" height="3.84" transform="translate(233.95 -23.51) rotate(63.4)"/><rect class="cls-18" x="144.64" y="170" width="6.03" height="3.84" transform="translate(235.27 -37.09) rotate(63.4)"/><rect class="cls-18" x="156.25" y="164.19" width="6.03" height="3.84" transform="translate(236.48 -50.67) rotate(63.4)"/><rect class="cls-18" x="167.85" y="158.38" width="6.03" height="3.84" transform="translate(237.7 -64.26) rotate(63.4)"/><rect class="cls-18" x="179.5" y="152.65" width="6.03" height="3.84" transform="translate(239 -77.84) rotate(63.4)"/><rect class="cls-18" x="191.11" y="146.84" width="6.03" height="3.84" transform="translate(240.22 -91.42) rotate(63.4)"/><rect class="cls-18" x="202.71" y="141.02" width="6.03" height="3.84" transform="translate(241.43 -105.01) rotate(63.4)"/><rect class="cls-18" x="332.7" y="193.15" width="6.03" height="3.84" transform="translate(660.47 -17.76) rotate(116.6)"/><rect class="cls-18" x="321.1" y="187.34" width="6.03" height="3.84" transform="translate(638.47 -15.8) rotate(116.6)"/><rect class="cls-18" x="309.49" y="181.53" width="6.03" height="3.84" transform="translate(616.47 -13.83) rotate(116.6)"/><rect class="cls-18" x="297.88" y="175.72" width="6.03" height="3.84" transform="translate(594.47 -11.87) rotate(116.6)"/><rect class="cls-18" x="286.23" y="170" width="6.03" height="3.84" transform="translate(572.49 -9.73) rotate(116.6)"/><rect class="cls-18" x="274.62" y="164.19" width="6.03" height="3.84" transform="translate(550.49 -7.76) rotate(116.6)"/><rect class="cls-18" x="263.02" y="158.38" width="6.03" height="3.84" transform="translate(528.49 -5.8) rotate(116.6)"/><rect class="cls-18" x="251.37" y="152.65" width="6.03" height="3.84" transform="translate(506.5 -3.68) rotate(116.6)"/><rect class="cls-18" x="239.77" y="146.84" width="6.03" height="3.84" transform="translate(484.5 -1.72) rotate(116.6)"/><rect class="cls-18" x="228.16" y="141.02" width="6.03" height="3.84" transform="translate(462.5 0.24) rotate(116.6)"/><line class="cls-28" x1="218.8" y1="124.88" x2="218.8" y2="80.31"/><path class="cls-8" d="M113.56,153.53c-.39-1.87.7-3.72-.06-5.57s-2.84-2-4.55-2.35c-3.63-.81-9.71-1.12-9.86-6-.09-3,.88-7.45-3-8.56-1.83-.52-3.8,0-5.65.06a18.77,18.77,0,0,1-6.75-1.2c-2.07-.78-4.57-1.93-3.76-4.59.59-1.92,2-3.48,2.6-5.41,1.08-3.42-.51-6.55-4-7.4a20.76,20.76,0,0,0-5.84-.08c-2.13.11-4.87-.1-6-2.3-1-2,1.14-3.52,1.15-5.45a4.16,4.16,0,0,0-2.53-3.53c-1.87-.94-4-.64-6-1.33a6.63,6.63,0,0,1-3.9-4.25,9.08,9.08,0,0,1,.5-6.38c.75-1.7,2.22-4.32,4.35-4.34,2,0,3.54,2.36,5,3.45a14.64,14.64,0,0,0,5.19,2.59C74.72,92,78.9,90.46,82.91,89a31.91,31.91,0,0,1,11.65-2.27,19,19,0,0,1,5.74,1c1.73.59,4,1.6,5.1,3.08.88,1.14.23,2.49-.08,3.71a19.46,19.46,0,0,0-.54,3.39c-.12,1.86-.15,4.23,1,5.81,1,1.38,2.79,1.8,4.36,2.2a67.34,67.34,0,0,1,6.55,1.77c3.69,1.33,7.68,4.41,7.13,8.8-.5,4-3.71,7-4.27,11a12.59,12.59,0,0,0,.57,5.84,32.69,32.69,0,0,0,3,5.34c1.23,2.13,1.68,4.52-.2,6.41-1.28,1.3-2.92,2.18-3.9,3.77a4.09,4.09,0,0,0-.28,4.32.75.75,0,0,0,1.3-.76c-1.2-2.07,1.24-4,2.66-5.14s2.72-2.41,3-4.28A8.73,8.73,0,0,0,124,137.2c-1.23-1.94-2.48-3.74-2.89-6.06a11.34,11.34,0,0,1,1-6.81c.84-1.8,1.92-3.48,2.63-5.34a8.7,8.7,0,0,0-2.46-9.8c-3.22-3-7.61-3.7-11.71-4.74a10.08,10.08,0,0,1-2.68-.9c-1.23-.72-1.47-2-1.57-3.34a16.68,16.68,0,0,1,.14-3.6c.18-1.25.64-2.43.85-3.67.65-3.81-4.12-5.94-7.11-6.86a24.07,24.07,0,0,0-11.41-.34c-4.4.82-8.37,3-12.76,3.83a11.88,11.88,0,0,1-7.13-.79A21.19,21.19,0,0,1,63.71,85c-1.28-1.12-2.82-1.94-4.57-1.42a7.43,7.43,0,0,0-3.88,3.63c-1.88,3.21-2.45,7.31-.51,10.63a7.91,7.91,0,0,0,3.81,3.37c2,.79,4.39.37,6.26,1.47a2.34,2.34,0,0,1,1.32,2.76c-.29,1-1,1.76-1.18,2.75a4.35,4.35,0,0,0,1.63,4.27c3.43,2.9,7.89.53,11.78,1.65a3.87,3.87,0,0,1,2.77,5.07c-.54,2-2,3.64-2.65,5.62-1.43,4.22,2.88,6.15,6.23,7.11a19.59,19.59,0,0,0,6.55.73c1.91-.11,4.73-.92,5.91,1.12,1,1.75.36,4,.41,5.91a5.72,5.72,0,0,0,2.15,4.62,12,12,0,0,0,4.59,1.87c1.16.27,2.33.52,3.49.78s2.71.34,3.7,1,.78,2.1.63,3.15a7.91,7.91,0,0,0,0,2.91c.2.95,1.65.55,1.45-.4Z"/><path class="cls-8" d="M57.93,85.05a10.34,10.34,0,0,0-3,11.44,10.56,10.56,0,0,0,7.68,4.71c5.59.83,3.88,5.24,3.62,5.77s-2.12,6.36,4.36,6.23,12-.07,11.5,4.19-5.75,9.6-1.45,11.92a18.58,18.58,0,0,0,10.72,2.54c3.06-.23,6.76-.35,7,3.42s-.89,8.08,3.3,9.26,9.62,1.71,10.37,2.76.48,5.07.48,5.07.18,2.52,1.94,2.67a43.81,43.81,0,0,0,4.77,0s-1-3.33,0-5,4.39-4.49,4.8-5.1.86-4.78-.9-7.63-4.1-8.64-2.47-12.66,6.37-8.31,2.91-12.62-11.79-6.69-14.15-7.1-4.27-3.73-3.88-7.69S108.29,89,99,86.55s-20.85,3.27-20.85,3.27S71.5,91,69,89.65a39.53,39.53,0,0,1-5.56-3.92l-3-1.61Z"/><rect class="cls-22" x="115.18" y="154.6" width="7.49" height="21.18" transform="translate(237.85 330.38) rotate(-180)"/><polygon class="cls-10" points="122.45 155.78 114.9 157.86 114.9 154.83 122.45 154.83 122.45 155.78"/><rect class="cls-21" x="111.15" y="154.6" width="4.03" height="21.18" transform="translate(226.33 330.38) rotate(-180)"/><rect class="cls-12" x="107.7" y="150.73" width="14.4" height="5.3" rx="0.9" transform="translate(229.79 306.77) rotate(-180)"/><rect class="cls-13" x="111.72" y="150.73" width="14.4" height="5.3" rx="0.9" transform="translate(237.85 306.77) rotate(-180)"/><rect class="cls-22" x="316.59" y="154.6" width="7.49" height="21.18" transform="translate(640.66 330.38) rotate(-180)"/><polygon class="cls-10" points="323.86 155.78 316.31 157.86 316.31 154.83 323.86 154.83 323.86 155.78"/><rect class="cls-21" x="312.56" y="154.6" width="4.03" height="21.18" transform="translate(629.15 330.38) rotate(-180)"/><rect class="cls-12" x="309.11" y="150.73" width="14.4" height="5.3" rx="0.9" transform="translate(632.61 306.77) rotate(-180)"/><rect class="cls-13" x="313.13" y="150.73" width="14.4" height="5.3" rx="0.9" transform="translate(640.66 306.77) rotate(-180)"/><polyline class="cls-22" points="218.57 129.51 97.88 189.52 93.21 189.52 93.21 184.83 218.25 124.12 219.16 124.12 344.2 184.83 344.2 189.52 339.54 189.52 218.84 129.51"/><polyline class="cls-22" points="218.57 133.53 95.94 194.45 91.2 194.45 91.2 189.68 218.25 128.05 219.16 128.05 346.21 189.68 346.21 194.45 341.47 194.45 218.84 133.53"/><line class="cls-20" x1="101.85" y1="192.02" x2="103.38" y2="195.08"/><line class="cls-20" x1="113.44" y1="186.21" x2="114.97" y2="189.26"/><line class="cls-20" x1="125.02" y1="180.4" x2="126.55" y2="183.45"/><line class="cls-20" x1="136.61" y1="174.59" x2="138.14" y2="177.64"/><line class="cls-20" x1="148.19" y1="168.78" x2="149.72" y2="171.83"/><line class="cls-20" x1="159.78" y1="162.96" x2="161.31" y2="166.02"/><line class="cls-20" x1="171.36" y1="157.15" x2="172.89" y2="160.21"/><line class="cls-20" x1="182.95" y1="151.34" x2="184.47" y2="154.39"/><line class="cls-20" x1="194.53" y1="145.53" x2="196.06" y2="148.58"/><line class="cls-20" x1="206.11" y1="139.72" x2="207.64" y2="142.77"/><line class="cls-20" x1="334.9" y1="192.02" x2="333.37" y2="195.08"/><line class="cls-20" x1="323.32" y1="186.21" x2="321.79" y2="189.26"/><line class="cls-20" x1="311.73" y1="180.4" x2="310.2" y2="183.45"/><line class="cls-20" x1="300.15" y1="174.59" x2="298.62" y2="177.64"/><line class="cls-20" x1="288.56" y1="168.78" x2="287.03" y2="171.83"/><line class="cls-20" x1="276.98" y1="162.96" x2="275.45" y2="166.02"/><line class="cls-20" x1="265.39" y1="157.15" x2="263.86" y2="160.21"/><line class="cls-20" x1="253.81" y1="151.34" x2="252.28" y2="154.39"/><line class="cls-20" x1="242.23" y1="145.53" x2="240.7" y2="148.58"/><line class="cls-20" x1="230.64" y1="139.72" x2="229.11" y2="142.77"/><polygon class="cls-10" points="93.21 184.83 218.71 126.13 218.75 124.07 93.21 184.83"/><polygon class="cls-10" points="344.2 184.83 218.71 126.13 218.75 124.07 344.2 184.83"/><polygon class="cls-10" points="93.21 188.81 218.71 130.11 218.75 128.05 93.21 188.81"/><polygon class="cls-10" points="344.2 188.81 218.71 130.11 218.75 128.05 344.2 188.81"/><polygon class="cls-10" points="95.94 194.45 218.71 135.76 218.75 133.69 95.94 194.45"/><polygon class="cls-10" points="341.47 194.45 218.71 135.76 218.75 133.69 341.47 194.45"/><path class="cls-21" d="M73.06,300.52c-1.38-8.07-12.13-14.36-23.9-14.36-8.95,0-16.7,3.64-20.44,8.93a23.81,23.81,0,0,0-9.54-2c-6.85,0-12.84,3-16.16,7.42Z"/><path class="cls-19" d="M72,233.68c0-21.53-12.44-23.33-13.68-43.05-1.14-18.2,0-34.29-20.31-34.29s-19.17,16.09-20.31,34.29C16.5,210.35,4.06,212.15,4.06,233.68,4.06,279.91,72,279.91,72,233.68Z"/><line class="cls-19" x1="38.04" y1="183.69" x2="38.04" y2="299.52"/><line class="cls-19" x1="38.04" y1="253.87" x2="17.01" y2="232.84"/><line class="cls-19" x1="38.04" y1="229.94" x2="51.6" y2="216.38"/><line class="cls-19" x1="38.04" y1="247.06" x2="32.6" y2="241.62"/><line class="cls-19" x1="38.04" y1="194.72" x2="41.36" y2="191.41"/><polygon class="cls-13" points="489.27 21.72 514.21 21.72 514.21 30.41 489.27 30.41 495.53 26.07 489.27 21.72"/><line class="cls-29" x1="514.2" y1="42.33" x2="514.2" y2="16.82"/><rect class="cls-30" x="403.12" y="240.88" width="134.34" height="55.72"/><rect class="cls-30" x="403.12" y="143.63" width="134.34" height="93.72"/><rect class="cls-30" x="396.68" y="296.6" width="147.23" height="13.53"/><rect class="cls-30" x="396.68" y="237.35" width="147.23" height="3.53"/><rect class="cls-30" x="396.68" y="140.1" width="147.23" height="3.53"/><polygon class="cls-30" points="399.99 140.1 470.3 40.08 514.32 40.08 540.61 140.1 399.99 140.1"/><rect class="cls-30" x="443.05" y="69.78" width="45.65" height="4.28"/><polygon class="cls-31" points="506.42 43.67 460.76 43.67 443.05 69.78 488.71 69.78 506.42 43.67"/><polygon class="cls-13" points="473.39 45.24 462.5 45.24 455.12 55.93 466.01 55.93 473.39 45.24"/><polygon class="cls-13" points="487.56 45.24 476.67 45.24 469.29 55.93 480.18 55.93 487.56 45.24"/><polygon class="cls-13" points="501.74 45.24 490.84 45.24 483.46 55.93 494.36 55.93 501.74 45.24"/><polygon class="cls-13" points="464.91 57.51 454.02 57.51 446.64 68.2 457.53 68.2 464.91 57.51"/><polygon class="cls-13" points="479.09 57.51 468.19 57.51 460.81 68.2 471.71 68.2 479.09 57.51"/><polygon class="cls-13" points="493.26 57.51 482.37 57.51 474.99 68.2 485.88 68.2 493.26 57.51"/><polygon class="cls-30" points="506.42 47.93 488.71 74.05 488.71 69.78 506.42 43.67 506.42 47.93"/><rect class="cls-30" x="420.82" y="99.26" width="45.65" height="4.28"/><polygon class="cls-31" points="484.19 73.15 438.53 73.15 420.82 99.26 466.48 99.26 484.19 73.15"/><polygon class="cls-13" points="451.15 74.73 440.26 74.73 432.88 85.42 443.77 85.42 451.15 74.73"/><polygon class="cls-13" points="465.33 74.73 454.44 74.73 447.06 85.42 457.95 85.42 465.33 74.73"/><polygon class="cls-13" points="479.5 74.73 468.61 74.73 461.23 85.42 472.12 85.42 479.5 74.73"/><polygon class="cls-13" points="442.68 86.99 431.79 86.99 424.41 97.68 435.3 97.68 442.68 86.99"/><polygon class="cls-13" points="456.85 86.99 445.96 86.99 438.58 97.68 449.47 97.68 456.85 86.99"/><polygon class="cls-13" points="471.03 86.99 460.14 86.99 452.76 97.68 463.65 97.68 471.03 86.99"/><polygon class="cls-30" points="484.19 77.41 466.48 103.53 466.48 99.26 484.19 73.15 484.19 77.41"/><rect class="cls-30" x="399.57" y="129.2" width="45.65" height="4.28"/><polygon class="cls-31" points="462.93 103.09 417.28 103.09 399.57 129.2 445.22 129.2 462.93 103.09"/><polygon class="cls-13" points="429.9 104.66 419.01 104.66 411.63 115.35 422.52 115.35 429.9 104.66"/><polygon class="cls-13" points="444.08 104.66 433.19 104.66 425.81 115.35 436.7 115.35 444.08 104.66"/><polygon class="cls-13" points="458.25 104.66 447.36 104.66 439.98 115.35 450.87 115.35 458.25 104.66"/><polygon class="cls-13" points="421.43 116.93 410.54 116.93 403.15 127.62 414.05 127.62 421.43 116.93"/><polygon class="cls-13" points="435.6 116.93 424.71 116.93 417.33 127.62 428.22 127.62 435.6 116.93"/><polygon class="cls-13" points="449.77 116.93 438.88 116.93 431.5 127.62 442.39 127.62 449.77 116.93"/><polygon class="cls-30" points="462.93 107.35 445.22 133.47 445.22 129.2 462.93 103.09 462.93 107.35"/><rect class="cls-31" x="557.21" y="90.4" width="7.25" height="20.52" transform="translate(1121.67 201.31) rotate(-180)"/><polygon class="cls-10" points="564.25 91.53 556.93 93.55 556.93 90.62 564.25 90.62 564.25 91.53"/><rect class="cls-30" x="553.31" y="90.4" width="3.9" height="20.52" transform="translate(1110.51 201.31) rotate(-180)"/><rect class="cls-12" x="549.96" y="86.64" width="13.95" height="5.14" rx="0.88" transform="translate(1113.87 178.43) rotate(-180)"/><rect class="cls-13" x="553.86" y="86.64" width="13.95" height="5.14" rx="0.88" transform="translate(1121.67 178.43) rotate(-180)"/><rect class="cls-31" x="447.14" y="240.88" width="134.34" height="55.72"/><polygon class="cls-10" points="447.14 240.65 581.49 240.65 447.14 243.15 447.14 240.65"/><rect class="cls-31" x="447.14" y="143.63" width="134.34" height="93.72"/><polygon class="cls-10" points="447.14 143.63 581.49 143.63 447.14 146.47 447.14 143.63"/><rect class="cls-31" x="440.7" y="237.35" width="147.23" height="3.53"/><polygon class="cls-10" points="440.7 237.35 587.93 237.35 440.7 239.16 440.7 237.35"/><rect class="cls-31" x="440.7" y="140.1" width="147.23" height="3.53"/><polygon class="cls-31" points="444.01 140.1 514.32 40.08 584.63 140.1 444.01 140.1"/><line class="cls-29" x1="545.71" y1="211.76" x2="563.71" y2="211.76"/><rect class="cls-8" x="505.32" y="158.97" width="18" height="21.86"/><line class="cls-29" x1="504.77" y1="169.89" x2="523.87" y2="169.89"/><line class="cls-29" x1="514.32" y1="158.41" x2="514.32" y2="181.37"/><rect class="cls-8" x="545.71" y="158.97" width="18" height="21.86"/><line class="cls-29" x1="545.16" y1="169.89" x2="564.26" y2="169.89"/><line class="cls-29" x1="554.71" y1="158.41" x2="554.71" y2="181.37"/><rect class="cls-8" x="464.93" y="195.32" width="18" height="32.88"/><line class="cls-29" x1="464.38" y1="211.76" x2="483.48" y2="211.76"/><line class="cls-29" x1="473.93" y1="194.76" x2="473.93" y2="228.75"/><rect class="cls-8" x="505.32" y="195.32" width="18" height="32.88"/><line class="cls-29" x1="504.77" y1="211.76" x2="523.87" y2="211.76"/><line class="cls-29" x1="514.32" y1="194.76" x2="514.32" y2="228.75"/><line class="cls-29" x1="464.93" y1="271.11" x2="482.93" y2="271.11"/><line class="cls-29" x1="545.71" y1="271.11" x2="563.71" y2="271.11"/><line class="cls-29" x1="545.71" y1="271.11" x2="563.71" y2="271.11"/><rect class="cls-8" x="464.93" y="254.66" width="18" height="32.88"/><line class="cls-29" x1="464.38" y1="271.11" x2="483.48" y2="271.11"/><line class="cls-29" x1="473.93" y1="254.11" x2="473.93" y2="288.1"/><rect class="cls-8" x="545.71" y="254.66" width="18" height="32.88"/><line class="cls-29" x1="545.16" y1="271.11" x2="564.26" y2="271.11"/><line class="cls-29" x1="554.71" y1="254.11" x2="554.71" y2="288.1"/><circle class="cls-8" cx="514.32" cy="75.62" r="7.42"/><line class="cls-32" x1="514.32" y1="68.2" x2="514.32" y2="83.04"/><line class="cls-32" x1="521.74" y1="75.62" x2="506.9" y2="75.62"/><rect class="cls-18" x="527.26" y="289.08" width="8.36" height="3.72"/><rect class="cls-18" x="478.75" y="175.78" width="8.36" height="3.72"/><rect class="cls-18" x="535.55" y="150.65" width="8.36" height="3.72"/><rect class="cls-18" x="527.98" y="157.1" width="8.36" height="3.72"/><rect class="cls-18" x="485.78" y="157.1" width="8.36" height="3.72"/><rect class="cls-18" x="469.75" y="128.52" width="8.36" height="3.72"/><rect class="cls-18" x="475.12" y="133.94" width="8.36" height="3.72"/><rect class="cls-18" x="511.08" y="111.63" width="8.36" height="3.72"/><rect class="cls-18" x="480.01" y="99.53" width="8.36" height="3.72"/><rect class="cls-18" x="530.06" y="86.48" width="8.36" height="3.72"/><rect class="cls-18" x="524.72" y="78.21" width="8.36" height="3.72"/><rect class="cls-18" x="556.97" y="132.9" width="8.36" height="3.72"/><rect class="cls-18" x="550.53" y="128.01" width="8.36" height="3.72"/><rect class="cls-18" x="531.37" y="133.94" width="8.36" height="3.72"/><rect class="cls-18" x="491.84" y="163.79" width="8.36" height="3.72"/><rect class="cls-18" x="567.56" y="231.32" width="8.36" height="3.72"/><rect class="cls-18" x="560.08" y="222.13" width="8.36" height="3.72"/><rect class="cls-18" x="565.96" y="215.56" width="8.36" height="3.72"/><rect class="cls-18" x="452.15" y="198" width="8.36" height="3.72"/><rect class="cls-18" x="483.48" y="248.85" width="8.36" height="3.72"/><rect class="cls-18" x="494.14" y="245.54" width="8.36" height="3.72"/><rect class="cls-18" x="534.15" y="283.18" width="8.36" height="3.72"/><rect class="cls-17" x="545.71" y="195.32" width="18" height="32.88"/><line class="cls-29" x1="545.16" y1="211.76" x2="564.26" y2="211.76"/><line class="cls-29" x1="554.71" y1="194.76" x2="554.71" y2="228.75"/><line class="cls-29" x1="485.12" y1="111.63" x2="503.12" y2="111.63"/><line class="cls-29" x1="525.51" y1="111.63" x2="543.51" y2="111.63"/><line class="cls-29" x1="485.12" y1="111.63" x2="503.12" y2="111.63"/><line class="cls-29" x1="525.51" y1="111.63" x2="543.51" y2="111.63"/><rect class="cls-8" x="485.12" y="95.19" width="18" height="32.88"/><line class="cls-29" x1="484.57" y1="111.63" x2="503.67" y2="111.63"/><line class="cls-29" x1="494.12" y1="94.64" x2="494.12" y2="128.62"/><line class="cls-29" x1="494.12" y1="95.19" x2="494.12" y2="128.07"/><rect class="cls-17" x="525.51" y="95.19" width="18" height="32.88"/><line class="cls-29" x1="524.96" y1="111.63" x2="544.06" y2="111.63"/><line class="cls-29" x1="534.51" y1="94.64" x2="534.51" y2="128.62"/><rect class="cls-8" x="498.32" y="254.39" width="32" height="42.21"/><line class="cls-32" x1="497.2" y1="254.39" x2="531.44" y2="254.39"/><line class="cls-32" x1="514.32" y1="254.39" x2="514.32" y2="296.6"/><rect class="cls-27" x="502.24" y="260.18" width="6.82" height="21.85"/><rect class="cls-27" x="519.61" y="260.18" width="6.82" height="21.85"/><rect class="cls-31" x="440.7" y="296.6" width="147.23" height="13.53"/><rect class="cls-17" x="464.93" y="158.97" width="18" height="21.86"/><line class="cls-29" x1="464.38" y1="169.89" x2="483.48" y2="169.89"/><line class="cls-29" x1="473.93" y1="158.41" x2="473.93" y2="181.37"/><polygon class="cls-10" points="440.7 140.1 587.93 140.1 440.7 141.91 440.7 140.1"/><path class="cls-19" d="M535.27,302.58c1.85-13.7,16.31-26.36,32.14-26.36,12,0,22.44,6.17,27.47,15.15A26.51,26.51,0,0,1,607.71,288c9.2,0,17.26,7,21.72,14.6Z"/><line class="cls-20" x1="555.13" y1="297.31" x2="555.13" y2="246.39"/><polygon class="cls-19" points="556.93 246.39 553.34 246.39 548.16 232.67 562.11 232.67 556.93 246.39"/><rect class="cls-22" x="551.54" y="297.57" width="7.19" height="4.01"/><line class="cls-20" x1="547.29" y1="232.67" x2="562.97" y2="232.67"/><line class="cls-20" x1="552.47" y1="246.39" x2="557.79" y2="246.39"/><polygon class="cls-23" points="562.11 232.67 548.16 232.67 552.47 227.02 557.79 227.02 562.11 232.67"/><line class="cls-20" x1="551.61" y1="227.02" x2="558.66" y2="227.02"/><path class="cls-22" d="M555.13,224.58h0a1.67,1.67,0,0,1,1.67,1.67V227a0,0,0,0,1,0,0h-3.34a0,0,0,0,1,0,0v-.77A1.67,1.67,0,0,1,555.13,224.58Z"/><line class="cls-20" x1="555.13" y1="231.81" x2="555.13" y2="246.39"/><line class="cls-20" x1="549.49" y1="238.8" x2="560.77" y2="238.8"/></g></g></svg>