<svg xmlns="http://www.w3.org/2000/svg" xmlns:xlink="http://www.w3.org/1999/xlink" viewBox="0 0 2376 600"><defs><style>.cls-1,.cls-10{fill:none;}.cls-2{clip-path:url(#clip-path);}.cls-3{fill:#0abf53;}.cls-4,.cls-6,.cls-8,.cls-9{fill:#fff;}.cls-12,.cls-13,.cls-4{stroke:#09152c;}.cls-10,.cls-11,.cls-12,.cls-13,.cls-4,.cls-5,.cls-6,.cls-7{stroke-linecap:round;stroke-linejoin:round;}.cls-10,.cls-11,.cls-12,.cls-13,.cls-4,.cls-5,.cls-6,.cls-7,.cls-9{stroke-width:1.75px;}.cls-11,.cls-12,.cls-5{fill:#00112c;}.cls-10,.cls-5,.cls-6,.cls-7,.cls-9{stroke:#00112c;}.cls-7{fill:#f3f6f9;}.cls-9{stroke-miterlimit:10;}.cls-11{stroke:#fff;}.cls-13{fill:#ffda00;}</style><clipPath id="clip-path"><rect class="cls-1" width="2376" height="600"/></clipPath></defs><g id="Layer_1" data-name="Layer 1"><g class="cls-2"><rect class="cls-3" x="-33.6" y="-160.57" width="2441.03" height="947.52"/><path class="cls-4" d="M1584.37,528.9l34.4-47.42-57.09-21.56-18.28,36.52a29.64,29.64,0,0,0,10.47,38.19h0A22.59,22.59,0,0,0,1584.37,528.9Z"/><path class="cls-5" d="M1680.58,256.35c-50,33.63-88.83,119-113.1,186.69-1.92,5.39-3.78,10.7-5.5,15.83L1621.71,492l3.48-5.09L1696,383.57"/><path class="cls-4" d="M1564,495.67l-1-29.41-2-138.67,18.87-38.25,0,0,9.53-27.93h0a7.18,7.18,0,0,0-10.43,2.85l-7.84,16.15,0,0-2-60.34a4.2,4.2,0,0,0-4.5-4.19,3.15,3.15,0,0,0-3.41,2.86c-.19,2.35-2.08,39.64-2.34,43.9l2.19-43.38-3.25.18a4.89,4.89,0,0,0-4.57,4.23c-1.42,10.6-4.91,39.09-5,39.35l5-40.47-1.91.57a10.22,10.22,0,0,0-7.1,7.76l-5.85,32c.56-3,5.55-31,5.5-31.24s-.48-.32-1.1-.31a7.46,7.46,0,0,0-6.84,5.14c-2.94,8.66-10.15,33.17-10.22,32.61-.11-.73,1.36,56.33,1.36,56.33l-5.73,189.74c-.78,25.74,37.21,48.93,56.51,16.47"/><path class="cls-6" d="M1245.56,246.66l12.08-6.86s53.95-14.65,53.16-14.53c-.62.09,20.74-9.83,28.87-15.59a8.14,8.14,0,0,0,3.24-8.74c-.18-.65-.4-1.08-.67-1.06-1,.08-28.94,10.92-28.94,10.92l33.51-15.91a11.12,11.12,0,0,0,5.89-9.82v-2.18l-39.61,15.3s29.92-12.75,39.63-16.94a3.87,3.87,0,0,0,2.06-5,6.12,6.12,0,0,0-7.44-3.17l-38.67,12.69,35.18-14.29a3.47,3.47,0,0,0,1.93-4.46,4.56,4.56,0,0,0-5.77-3.39l-51.21,16.66,9.09-21.26a3.2,3.2,0,0,0-3.8-5L1278,169.82l-34.5,36.53-8.94,14.52"/><polygon class="cls-7" points="916.28 263.67 1146.25 309.98 1249.3 200.22 1279.52 232.7 1176.37 364.62 954.8 361.63 916.28 263.67"/><path class="cls-7" d="M791,406.34V283.79c-29,21.95-47.69,61.61-47.57,105.76l.3,114.47H791V406.34Z"/><path class="cls-7" d="M958.49,406.34V271.86c-30-8.09-136.2-1.61-139.3-.67V406.34Z"/><path class="cls-5" d="M952.38,362.72H821l-3.39-91.53A113,113,0,0,0,791,283.79V406.34l.63,97.83H962.9l12.69-97.83V276.67A211.26,211.26,0,0,1,949,270.6Z"/><polygon class="cls-8" points="1302.29 263.6 1373.49 263.6 1385.36 121.21 1290.42 121.21 1302.29 263.6"/><polygon class="cls-6" points="1302.29 263.6 1373.49 263.6 1385.36 121.21 1290.42 121.21 1302.29 263.6"/><line class="cls-9" x1="1384.59" y1="130.4" x2="1291.19" y2="130.4"/><rect class="cls-7" x="383.05" y="319.81" width="226.26" height="157.07"/><rect class="cls-6" x="362.83" y="265.19" width="266.7" height="54.62"/><rect class="cls-6" x="362.83" y="449.57" width="266.7" height="54.62"/><line class="cls-5" x1="395.69" y1="337.37" x2="462.52" y2="337.37"/><path class="cls-6" d="M452.57,394.29H539a0,0,0,0,1,0,0v12.06a43.22,43.22,0,0,1-43.22,43.22h0a43.22,43.22,0,0,1-43.22-43.22V394.29A0,0,0,0,1,452.57,394.29Z"/><rect class="cls-5" x="456.45" y="320.99" width="74.93" height="32.75"/><rect class="cls-5" x="326.71" y="320.99" width="74.93" height="32.75" rx="16.38"/><line class="cls-10" x1="1337.89" y1="39.59" x2="1337.89" y2="59.27"/><line class="cls-10" x1="1294.53" y1="49.21" x2="1308.44" y2="63.13"/><line class="cls-10" x1="1381.25" y1="49.21" x2="1367.34" y2="63.13"/><line class="cls-6" x1="1665.41" y1="251.65" x2="1674.06" y2="139.5"/><path class="cls-5" d="M1684.54,190.94h0L1712,140.63a61.8,61.8,0,0,0-.69-60.47h0a61.77,61.77,0,0,0-46-30.49l-83.14-10.21h0A83.31,83.31,0,0,0,1610,134.13Z"/><polygon class="cls-6" points="1628.42 281.27 1680.84 264.69 1689.49 152.54 1638.35 150.31 1628.42 281.27"/><path class="cls-6" d="M1603.3,91.1l35.44,5.19a41.39,41.39,0,0,1,35.32,43.21h0c5.43-13,17.86-8.72,17.64.23l-.19,8.07a23.28,23.28,0,0,1-19.12,22.35h0l-.34,6.35a45.29,45.29,0,0,1-47.69,42.76h0l-30.81-1.68Z"/><polygon class="cls-5" points="1672.76 159.49 1659.47 139.3 1670.54 100.98 1676.17 130.46 1672.76 159.49"/><path class="cls-5" d="M1672.76,159.49l-.37,10.66L1672,187a56.72,56.72,0,0,1-40,52.75l-41,12.6,5.7-73.91,40.83,12.33L1670.54,101Z"/><line class="cls-6" x1="1593.55" y1="217.58" x2="1603.3" y2="91.1"/><path class="cls-5" d="M1569.29,713.64H1722.8c0-175.08,27.74-393.1-40.35-461.18l-54.82,29.22C1596.3,347,1569.29,542.3,1569.29,713.64Z"/><path class="cls-11" d="M1682.45,252.47c42.62,42.59,64.36,133.87,75.21,204.91.86,5.66,1.66,11.22,2.37,16.59l-65,21.1-2.44-5.66-49.71-115"/><path class="cls-4" d="M1702.79,761.16,1767.86,554s-1.54-34-7.83-80l-65,21.1,17.49,40.47.17.06-43.43,221-21.53,36.82,0,0-11.48,27.2h0a7.18,7.18,0,0,0,10.6-2.11l9-15.55,0,0-2.33,60.34a4.2,4.2,0,0,0,4.2,4.49,3.15,3.15,0,0,0,3.6-2.61c.36-2.33,4.88-39.39,5.44-43.62l-5.26,43.11,3.26.05a4.88,4.88,0,0,0,4.86-3.89c2.16-10.47,7.67-38.65,7.72-38.9l-7.9,40,1.95-.44a10.24,10.24,0,0,0,7.63-7.23l8.1-31.53c-.77,2.94-7.73,30.53-7.7,30.77s.46.35,1.08.39a7.47,7.47,0,0,0,7.19-4.65c3.54-8.42,12.46-32.36,12.5-31.8C1700.21,818.18,1702.79,761.16,1702.79,761.16Z"/><path class="cls-4" d="M1702.79,761.16,1767.86,554s-1.54-34-7.83-80l-65,21.1,17.49,40.47.17.06-43.43,221-21.53,36.82,0,0-11.48,27.2h0a7.18,7.18,0,0,0,10.6-2.11l9-15.55,0,0-2.33,60.34a4.2,4.2,0,0,0,4.2,4.49,3.15,3.15,0,0,0,3.6-2.61c.36-2.33,4.88-39.39,5.44-43.62l-5.26,43.11,3.26.05a4.88,4.88,0,0,0,4.86-3.89c2.16-10.47,7.67-38.65,7.72-38.9l-7.9,40,1.95-.44a10.24,10.24,0,0,0,7.63-7.23l8.1-31.53c-.77,2.94-7.73,30.53-7.7,30.77s.46.35,1.08.39a7.47,7.47,0,0,0,7.19-4.65c3.54-8.42,12.46-32.36,12.5-31.8C1700.21,818.18,1702.79,761.16,1702.79,761.16Z"/><path class="cls-5" d="M812.55,246.73s9.84-125.13,10.62-130.27C828.83,79.15,879.9,55.84,919,79.31c12.32,7.41,25.44,22.67,26.66,40.87l23.21,105.94Z"/><circle class="cls-5" cx="833.63" cy="86.29" r="33.94"/><path class="cls-6" d="M889.32,307.53l52-38.06c1.55.64-14.39-5.68-27.29-11.23-18.75-8.07-8.29-64.24-8.29-64.24l-44.84-10.58s5.47,50-.75,66.53S831,270.74,831,270.74Z"/><path class="cls-5" d="M937.15,126.44c-23.19,6.37-70.1-18.92-70.1-18.92s-10.9,48.28-30.27,53.6"/><path class="cls-6" d="M904,223.68c-38.07,7-57.87-31.11-64.83-69.14s6.15-70.71,28.66-74.83S928.3,90.19,937.1,138.3,936.66,217.71,904,223.68Z"/><path class="cls-5" d="M839.7,159.74c.09.32.18-.23.27.09,19.24-5.29,27.62-49.44,27.62-49.44s21.62,29.86,66.26,17.6c-9.41-45.15-46.38-54.77-72.18-46.17C840,89.06,829.46,122.46,839.7,159.74Z"/><path class="cls-8" d="M853,164.14,846.9,157a10.09,10.09,0,0,0-14.54-.82h0a10.07,10.07,0,0,0-2.26,11.66l1.49,3.18a16.59,16.59,0,0,0,19.62,8.9h0Z"/><polyline class="cls-11" points="-29.21 503.8 1372.67 503.8 1372.67 796.08 -29.21 796.08"/><polygon class="cls-12" points="1378.2 207.03 1296.55 207.03 1291.72 168.56 1381.96 168.56 1378.2 207.03"/><path class="cls-6" d="M1278.94,169l22.38-28.14h0A11.54,11.54,0,0,1,1305,157l-13.25,20.42,3.1,18.89"/><path class="cls-13" d="M1343.72,174.77a7.8,7.8,0,0,1-13.76,0,7.5,7.5,0,0,0-6.9,8.3c.76,8.93,11.2,16.21,13.38,17.64a.71.71,0,0,0,.79,0c2.18-1.43,12.62-8.71,13.39-17.64a7.5,7.5,0,0,0-6.9-8.3Z"/></g></g></svg>