<svg xmlns="http://www.w3.org/2000/svg" xmlns:xlink="http://www.w3.org/1999/xlink" viewBox="0 0 3000 600"><defs><style>.cls-1,.cls-10{fill:none;}.cls-2{clip-path:url(#clip-path);}.cls-3{fill:#0abf53;}.cls-4,.cls-6,.cls-8,.cls-9{fill:#fff;}.cls-12,.cls-13,.cls-4{stroke:#09152c;}.cls-10,.cls-11,.cls-12,.cls-13,.cls-4,.cls-5,.cls-6,.cls-7{stroke-linecap:round;stroke-linejoin:round;}.cls-10,.cls-11,.cls-12,.cls-13,.cls-4,.cls-5,.cls-6,.cls-7,.cls-9{stroke-width:2.24px;}.cls-11,.cls-12,.cls-5{fill:#00112c;}.cls-10,.cls-5,.cls-6,.cls-7,.cls-9{stroke:#00112c;}.cls-7{fill:#f3f6f9;}.cls-9{stroke-miterlimit:10;}.cls-11{stroke:#fff;}.cls-13{fill:#ffda00;}</style><clipPath id="clip-path"><rect class="cls-1" x="0.84" width="2999.16" height="600"/></clipPath></defs><g id="Layer_1" data-name="Layer 1"><g class="cls-2"><rect class="cls-3" x="-45.87" y="-203.22" width="3112.19" height="1208.03"/><path class="cls-4" d="M2017,675.82l43.86-60.46L1988,587.87l-23.31,46.57a37.8,37.8,0,0,0,13.35,48.69h0A28.8,28.8,0,0,0,2017,675.82Z"/><path class="cls-5" d="M2139.62,328.33c-63.74,42.88-113.25,151.79-144.2,238-2.45,6.88-4.82,13.64-7,20.18l76.16,42.29,4.44-6.48,90.33-131.81"/><path class="cls-4" d="M1990.93,633.45l-1.29-37.5-2.52-176.8,24.06-48.76,0,0,12.14-35.62h0a9.15,9.15,0,0,0-13.29,3.64l-10,20.59,0,0-2.5-76.94a5.34,5.34,0,0,0-5.74-5.34,4,4,0,0,0-4.35,3.65c-.24,3-2.65,50.54-3,56l2.8-55.3-4.15.23a6.22,6.22,0,0,0-5.83,5.38c-1.8,13.52-6.26,49.85-6.3,50.17l6.43-51.59L1975,286a13,13,0,0,0-9,9.89l-7.47,40.82c.72-3.81,7.08-39.53,7-39.83s-.62-.4-1.41-.39a9.5,9.5,0,0,0-8.72,6.56c-3.75,11-12.93,42.28-13,41.57-.13-.94,1.74,71.81,1.74,71.81l-7.31,241.92c-1,32.81,47.45,62.38,72,21"/><path class="cls-6" d="M1585,316l15.4-8.75s68.79-18.68,67.77-18.53c-.78.12,26.45-12.53,36.81-19.88a10.34,10.34,0,0,0,4.13-11.14c-.23-.83-.51-1.37-.84-1.34-1.34.09-36.91,13.92-36.91,13.92L1714.08,250a14.19,14.19,0,0,0,7.51-12.52v-2.77l-50.5,19.5s38.14-16.26,50.52-21.6a4.93,4.93,0,0,0,2.63-6.34,7.8,7.8,0,0,0-9.48-4l-49.31,16.18,44.86-18.22a4.41,4.41,0,0,0,2.45-5.68,5.82,5.82,0,0,0-7.36-4.33l-65.28,21.24,11.59-27.1a4.07,4.07,0,0,0-4.84-6.32l-20.54,20-44,46.58L1571,283.1"/><polygon class="cls-7" points="1165.18 337.66 1458.37 396.71 1589.76 256.77 1628.29 298.18 1496.78 466.37 1214.28 462.56 1165.18 337.66"/><path class="cls-7" d="M1005.45,519.56V363.32c-37,28-60.8,78.54-60.66,134.83l.39,146h60.27V519.56Z"/><path class="cls-7" d="M1219,519.56V348.11c-38.25-10.31-173.65-2.05-177.6-.86V519.56Z"/><path class="cls-5" d="M1211.2,464H1043.67l-4.32-116.7a143.91,143.91,0,0,0-33.9,16.07V519.56l.81,124.72h218.35l16.18-124.72V354.23s-12.91-1.74-33.91-7.74Z"/><polygon class="cls-8" points="1657.32 337.58 1748.09 337.58 1763.22 156.03 1642.19 156.03 1657.32 337.58"/><polygon class="cls-6" points="1657.32 337.58 1748.09 337.58 1763.22 156.03 1642.19 156.03 1657.32 337.58"/><line class="cls-9" x1="1762.24" y1="167.75" x2="1643.17" y2="167.75"/><rect class="cls-7" x="485.33" y="409.24" width="288.47" height="200.25"/><rect class="cls-6" x="459.55" y="339.6" width="340.03" height="69.64"/><rect class="cls-6" x="459.55" y="574.67" width="340.03" height="69.64"/><line class="cls-5" x1="501.45" y1="431.62" x2="586.65" y2="431.62"/><path class="cls-6" d="M574,504.2h110.2a0,0,0,0,1,0,0v15.37a55.1,55.1,0,0,1-55.1,55.1h0a55.1,55.1,0,0,1-55.1-55.1V504.2A0,0,0,0,1,574,504.2Z"/><rect class="cls-5" x="578.91" y="410.74" width="95.53" height="41.76"/><rect class="cls-5" x="413.5" y="410.74" width="95.53" height="41.76" rx="20.88"/><line class="cls-10" x1="1702.7" y1="51.97" x2="1702.7" y2="77.07"/><line class="cls-10" x1="1647.42" y1="64.24" x2="1665.16" y2="81.98"/><line class="cls-10" x1="1757.99" y1="64.24" x2="1740.25" y2="81.98"/><line class="cls-6" x1="2120.28" y1="322.33" x2="2131.31" y2="179.35"/><path class="cls-5" d="M2144.66,244.94h0l35-64.15a78.79,78.79,0,0,0-.88-77.1h0a78.78,78.78,0,0,0-58.67-38.87l-106-13h0a106.22,106.22,0,0,0,35.49,120.7Z"/><polygon class="cls-6" points="2073.11 360.1 2139.95 338.97 2150.98 195.98 2085.78 193.14 2073.11 360.1"/><path class="cls-6" d="M2041.09,117.65l45.18,6.62a52.75,52.75,0,0,1,45,55.08h0c6.92-16.51,22.76-11.12,22.49.29l-.24,10.3a29.66,29.66,0,0,1-24.38,28.48h0l-.44,8.1a57.74,57.74,0,0,1-60.8,54.52h0l-39.28-2.14Z"/><polygon class="cls-5" points="2129.64 204.84 2112.7 179.1 2126.82 130.24 2133.99 167.83 2129.64 204.84"/><path class="cls-5" d="M2129.64,204.84l-.46,13.58-.56,21.49a72.31,72.31,0,0,1-51.06,67.25l-52.32,16.07L2032.5,229l52.06,15.72,42.26-114.48Z"/><line class="cls-6" x1="2028.66" y1="278.9" x2="2041.09" y2="117.65"/><path class="cls-5" d="M1997.73,911.36h195.71c0-223.22,35.37-501.19-51.44-588l-69.89,37.26C2032.17,443.85,1997.73,692.9,1997.73,911.36Z"/><path class="cls-11" d="M2142,323.38c54.33,54.3,82,170.69,95.88,261.26,1.09,7.21,2.12,14.3,3,21.15l-82.85,26.9-3.11-7.22L2091.56,478.8"/><path class="cls-5" d="M1032.93,316.06s12.54-159.53,13.53-166.08c7.21-47.57,72.33-77.29,122.13-47.36,15.71,9.44,32.44,28.9,34,52.1l29.6,135.07Z"/><circle class="cls-5" cx="1059.8" cy="111.51" r="43.27"/><path class="cls-6" d="M1130.8,393.58l66.32-48.52c2,.82-18.35-7.24-34.8-14.32-23.9-10.29-10.57-81.9-10.57-81.9l-57.17-13.5s7,63.69-.95,84.83-37.23,26.5-37.23,26.5Z"/><path class="cls-5" d="M1191.79,162.7c-29.58,8.13-89.39-24.12-89.39-24.12s-13.89,61.56-38.58,68.34"/><path class="cls-6" d="M1149.53,286.68c-48.54,8.88-73.78-39.67-82.65-88.15s7.84-90.16,36.53-95.41,77.08,13.36,88.31,74.71S1191.15,279.07,1149.53,286.68Z"/><path class="cls-5" d="M1067.54,205.15c.12.42.23-.29.35.12,24.52-6.74,35.21-63,35.21-63s27.56,38.07,84.48,22.44c-12-57.57-59.14-69.84-92-58.86C1067.87,115.05,1054.49,157.63,1067.54,205.15Z"/><path class="cls-8" d="M1084.48,210.77l-7.76-9.08a12.86,12.86,0,0,0-18.54-1.05h0a12.86,12.86,0,0,0-2.88,14.87l1.89,4.05a21.16,21.16,0,0,0,25,11.35h0Z"/><polygon class="cls-12" points="1754.1 265.45 1650 265.45 1643.84 216.41 1758.89 216.41 1754.1 265.45"/><path class="cls-6" d="M1627.55,216.94l28.53-35.88h0a14.73,14.73,0,0,1,4.66,20.58l-16.9,26,4,24.08"/><path class="cls-13" d="M1710.13,224.32a10,10,0,0,1-17.54,0c-5.39.24-9.26,5.21-8.8,10.59,1,11.38,14.29,20.66,17.07,22.48a.93.93,0,0,0,1,0c2.77-1.82,16.09-11.1,17.06-22.48.46-5.38-3.4-10.35-8.8-10.59Z"/></g></g></svg>