<svg xmlns="http://www.w3.org/2000/svg" xmlns:xlink="http://www.w3.org/1999/xlink" viewBox="0 0 3840 2160"><defs><style>.cls-1,.cls-11{fill:none;}.cls-2{clip-path:url(#clip-path);}.cls-3,.cls-4{fill:#0abf53;}.cls-13,.cls-14,.cls-4,.cls-5{stroke:#09152c;}.cls-11,.cls-12,.cls-13,.cls-14,.cls-4,.cls-5,.cls-6,.cls-7,.cls-8{stroke-linecap:round;stroke-linejoin:round;}.cls-10,.cls-11,.cls-12,.cls-13,.cls-14,.cls-4,.cls-5,.cls-6,.cls-7,.cls-8{stroke-width:4.06px;}.cls-10,.cls-5,.cls-7,.cls-9{fill:#fff;}.cls-12,.cls-13,.cls-6{fill:#00112c;}.cls-10,.cls-11,.cls-6,.cls-7,.cls-8{stroke:#00112c;}.cls-8{fill:#f3f6f9;}.cls-10{stroke-miterlimit:10;}.cls-12{stroke:#fff;}.cls-14{fill:#ffda00;}</style><clipPath id="clip-path"><rect class="cls-1" width="3840" height="2160"/></clipPath></defs><g id="Layer_1" data-name="Layer 1"><g class="cls-2"><rect class="cls-3" x="-27.3" y="-11.24" width="3894.59" height="2190.71"/><polygon class="cls-4" points="3343.22 2521.91 3382.6 2009.99 3027.69 2009.99 3052.5 2521.91 3343.22 2521.91"/><path class="cls-5" d="M3062.55,1582.86l79.53-109.64-132-49.86-42.26,84.45a68.54,68.54,0,0,0,24.21,88.3h0A52.22,52.22,0,0,0,3062.55,1582.86Z"/><path class="cls-6" d="M3285,952.7c-115.58,77.76-205.37,275.26-261.5,431.64-4.44,12.47-8.74,24.73-12.72,36.6l138.11,76.69,8.05-11.76,163.81-239"/><path class="cls-5" d="M3015.35,1506l-2.32-68-4.58-320.62,43.63-88.42.07.07,22-64.59h0a16.6,16.6,0,0,0-24.11,6.59L3032,1008.39l-.06-.06-4.52-139.52a9.69,9.69,0,0,0-10.41-9.68,7.29,7.29,0,0,0-7.89,6.61c-.44,5.45-4.8,91.65-5.4,101.5L3008.74,867l-7.53.42a11.28,11.28,0,0,0-10.56,9.77c-3.27,24.5-11.35,90.39-11.44,91l11.68-93.56-4.43,1.32a23.64,23.64,0,0,0-16.41,17.94l-13.53,74c1.29-6.91,12.84-71.68,12.72-72.22s-1.12-.74-2.55-.72a17.23,17.23,0,0,0-15.81,11.89c-6.8,20-23.45,76.69-23.64,75.39-.23-1.69,3.16,130.23,3.16,130.23l-13.25,438.71c-1.8,59.51,86,113.13,130.66,38.07"/><path class="cls-7" d="M2279.21,930.3l27.94-15.86s124.73-33.88,122.89-33.6c-1.42.21,48-22.74,66.74-36.05a18.76,18.76,0,0,0,7.5-20.21c-.42-1.5-.93-2.48-1.53-2.44-2.42.18-66.93,25.26-66.93,25.26l77.48-36.8a25.72,25.72,0,0,0,13.63-22.7v-5l-91.58,35.38s69.16-29.49,91.61-39.17a9,9,0,0,0,4.78-11.51,14.17,14.17,0,0,0-17.21-7.32l-89.4,29.34s60.19-24.47,81.34-33a8,8,0,0,0,4.45-10.3,10.55,10.55,0,0,0-13.34-7.85l-118.4,38.52,21-49.16c5.15-6-1.59-14.85-8.78-11.45l-37.24,36.34-79.77,84.47-20.67,33.57"/><polygon class="cls-8" points="1517.91 969.63 2049.59 1076.7 2287.85 822.92 2357.72 898.02 2119.24 1203.02 1606.95 1196.11 1517.91 969.63"/><path class="cls-8" d="M1228.24,1299.49V1016.15c-67,50.74-110.26,142.43-110,244.51l.7,264.67h109.29V1299.49Z"/><path class="cls-8" d="M1615.49,1299.49V988.57c-69.37-18.7-314.91-3.72-322.07-1.55v312.47Z"/><path class="cls-6" d="M1601.36,1198.64H1297.55L1289.73,987a260.49,260.49,0,0,0-61.49,29.13v283.34l1.47,226.18h396L1655,1299.49V999.67s-23.39-3.15-61.48-14Z"/><polygon class="cls-9" points="2410.37 969.47 2574.99 969.47 2602.42 640.24 2382.94 640.24 2410.37 969.47"/><polygon class="cls-7" points="2410.37 969.47 2574.99 969.47 2602.42 640.24 2382.94 640.24 2410.37 969.47"/><line class="cls-10" x1="2600.65" y1="661.49" x2="2384.71" y2="661.49"/><rect class="cls-8" x="285.04" y="1099.42" width="523.13" height="363.15"/><rect class="cls-7" x="238.29" y="973.14" width="616.62" height="126.28"/><rect class="cls-7" x="238.29" y="1399.43" width="616.62" height="126.28"/><line class="cls-6" x1="314.27" y1="1140.02" x2="468.77" y2="1140.02"/><path class="cls-7" d="M445.78,1271.63H645.62a0,0,0,0,1,0,0v27.88a99.92,99.92,0,0,1-99.92,99.92h0a99.92,99.92,0,0,1-99.92-99.92v-27.88A0,0,0,0,1,445.78,1271.63Z"/><rect class="cls-6" x="454.74" y="1102.15" width="173.24" height="75.73"/><rect class="cls-6" x="154.77" y="1102.15" width="173.24" height="75.73" rx="37.86"/><line class="cls-11" x1="2492.68" y1="451.54" x2="2492.68" y2="497.05"/><line class="cls-11" x1="2392.42" y1="473.78" x2="2424.6" y2="505.96"/><line class="cls-11" x1="2592.94" y1="473.78" x2="2560.76" y2="505.96"/><line class="cls-7" x1="3249.93" y1="941.82" x2="3269.93" y2="682.53"/><path class="cls-6" d="M3294.14,801.48h0l63.53-116.34a142.88,142.88,0,0,0-1.59-139.81h0a142.9,142.9,0,0,0-106.41-70.49l-192.23-23.6h0a192.63,192.63,0,0,0,64.35,218.89Z"/><polygon class="cls-7" points="3164.39 1010.32 3285.61 971.99 3305.61 712.7 3187.37 707.54 3164.39 1010.32"/><path class="cls-7" d="M3106.33,570.64l81.93,12a95.68,95.68,0,0,1,81.67,99.89h0c12.56-29.94,41.28-20.16,40.79.53l-.44,18.67a53.8,53.8,0,0,1-44.21,51.66h0l-.8,14.69A104.71,104.71,0,0,1,3155,866.94h0l-71.24-3.88Z"/><polygon class="cls-6" points="3266.91 728.75 3236.18 682.08 3261.79 593.47 3274.79 661.64 3266.91 728.75"/><path class="cls-6" d="M3266.91,728.75l-.84,24.64-1,39a131.17,131.17,0,0,1-92.61,122l-94.88,29.15,13.18-170.89,94.41,28.51,76.63-207.61Z"/><line class="cls-7" x1="3083.77" y1="863.06" x2="3106.33" y2="570.64"/><path class="cls-6" d="M3027.69,2010H3382.6c0-404.8,64.14-908.87-93.28-1066.29l-126.75,67.57C3090.14,1162.19,3027.69,1613.84,3027.69,2010Z"/><path class="cls-12" d="M3289.33,943.72c98.54,98.48,148.79,309.54,173.89,473.78,2,13.08,3.83,25.94,5.47,38.35l-150.26,48.79-5.64-13.09-114.94-266"/><path class="cls-5" d="M3336.35,2119.85l150.44-479s-3.55-78.62-18.1-185l-150.26,48.79,40.44,93.57.38.13-100.4,511-49.78,85.11-.07-.07-26.55,62.87h0a16.61,16.61,0,0,0,24.52-4.87l20.72-36,0,.06L3222.37,2356a9.71,9.71,0,0,0,9.7,10.4,7.31,7.31,0,0,0,8.34-6c.82-5.4,11.28-91.08,12.58-100.86l-12.17,99.67,7.54.12a11.29,11.29,0,0,0,11.23-9c5-24.21,17.73-89.35,17.85-89.93l-18.27,92.49,4.51-1a23.62,23.62,0,0,0,17.63-16.73l18.75-72.89c-1.78,6.81-17.89,70.6-17.81,71.15s1.07.81,2.5.89a17.21,17.21,0,0,0,16.61-10.74c8.2-19.48,28.83-74.83,28.91-73.52C3330.39,2251.68,3336.35,2119.85,3336.35,2119.85Z"/><path class="cls-5" d="M3336.35,2119.85l150.44-479s-3.55-78.62-18.1-185l-150.26,48.79,40.44,93.57.38.13-100.4,511-49.78,85.11-.07-.07-26.55,62.87h0a16.61,16.61,0,0,0,24.52-4.87l20.72-36,0,.06L3222.37,2356a9.71,9.71,0,0,0,9.7,10.4,7.31,7.31,0,0,0,8.34-6c.82-5.4,11.28-91.08,12.58-100.86l-12.17,99.67,7.54.12a11.29,11.29,0,0,0,11.23-9c5-24.21,17.73-89.35,17.85-89.93l-18.27,92.49,4.51-1a23.62,23.62,0,0,0,17.63-16.73l18.75-72.89c-1.78,6.81-17.89,70.6-17.81,71.15s1.07.81,2.5.89a17.21,17.21,0,0,0,16.61-10.74c8.2-19.48,28.83-74.83,28.91-73.52C3330.39,2251.68,3336.35,2119.85,3336.35,2119.85Z"/><path class="cls-6" d="M1278.07,930.45s22.75-289.29,24.55-301.17c13.07-86.27,131.17-140.17,221.47-85.9,28.48,17.12,58.82,52.41,61.63,94.48l53.68,244.95Z"/><circle class="cls-6" cx="1326.8" cy="559.51" r="78.48"/><path class="cls-7" d="M1455.56,1071l120.26-88c3.57,1.49-33.27-13.13-63.1-26-43.35-18.66-19.17-148.52-19.17-148.52l-103.68-24.48s12.66,115.5-1.72,153.83S1320.63,986,1320.63,986Z"/><path class="cls-6" d="M1566.16,652.34c-53.64,14.73-162.1-43.75-162.1-43.75s-25.19,111.64-70,123.94"/><path class="cls-7" d="M1489.53,877.17c-88,16.11-133.81-71.94-149.89-159.86s14.21-163.49,66.25-173S1545.67,568.53,1566,679.77,1565,863.36,1489.53,877.17Z"/><path class="cls-6" d="M1340.85,729.33c.2.75.41-.53.62.21,44.48-12.22,63.86-114.31,63.86-114.31s50,69,153.19,40.7c-21.75-104.4-107.24-126.65-166.89-106.75C1341.44,565.92,1317.17,643.14,1340.85,729.33Z"/><path class="cls-9" d="M1371.57,739.51l-14.08-16.46a23.33,23.33,0,0,0-33.63-1.91h0a23.32,23.32,0,0,0-5.22,27l3.43,7.34A38.37,38.37,0,0,0,1367.45,776h0Z"/><polyline class="cls-12" points="-17.15 1524.82 2573.09 1524.82 2573.09 2200.59 -17.15 2200.59"/><polygon class="cls-13" points="2585.89 838.67 2397.11 838.67 2385.93 749.73 2594.57 749.73 2585.89 838.67"/><path class="cls-7" d="M2356.39,750.69l51.73-65.06h0a26.72,26.72,0,0,1,8.46,37.33l-30.65,47.2,7.17,43.68"/><path class="cls-14" d="M2506.15,764.09a16.81,16.81,0,0,0-15.9,9.51,16.82,16.82,0,0,0-15.91-9.51c-9.78.44-16.79,9.44-16,19.19,1.78,20.64,25.91,37.47,30.95,40.77a1.65,1.65,0,0,0,1.83,0c5-3.3,29.18-20.13,31-40.77.83-9.75-6.18-18.75-16-19.19Z"/></g></g></svg>