<svg xmlns="http://www.w3.org/2000/svg" xmlns:xlink="http://www.w3.org/1999/xlink" viewBox="0 0 581 600"><defs><style>.cls-1,.cls-10{fill:none;}.cls-2{clip-path:url(#clip-path);}.cls-11,.cls-3{fill:#0abf53;}.cls-4,.cls-6,.cls-8,.cls-9{fill:#fff;}.cls-11,.cls-13,.cls-14,.cls-4{stroke:#09152c;}.cls-10,.cls-11,.cls-12,.cls-13,.cls-14,.cls-4,.cls-5,.cls-6,.cls-7{stroke-linecap:round;stroke-linejoin:round;}.cls-10,.cls-12,.cls-13,.cls-14,.cls-4,.cls-5,.cls-6,.cls-7,.cls-9{stroke-width:1.16px;}.cls-12,.cls-13,.cls-5{fill:#00112c;}.cls-10,.cls-5,.cls-6,.cls-7,.cls-9{stroke:#00112c;}.cls-7{fill:#f3f6f9;}.cls-9{stroke-miterlimit:10;}.cls-11{stroke-width:1.15px;}.cls-12{stroke:#fff;}.cls-14{fill:#ffda00;}</style><clipPath id="clip-path"><rect class="cls-1" width="581" height="600"/></clipPath></defs><g id="Layer_1" data-name="Layer 1"><g class="cls-2"><rect class="cls-3" x="-377.09" y="-72.99" width="1124.6" height="690.59"/><path class="cls-4" d="M479.71,382.39l22.72-31.32-37.7-14.25L452.65,361a19.57,19.57,0,0,0,6.92,25.22h0A14.92,14.92,0,0,0,479.71,382.39Z"/><path class="cls-5" d="M543.26,202.37c-33,22.21-58.67,78.63-74.7,123.31-1.27,3.56-2.5,7.06-3.64,10.45L504.38,358l2.29-3.36,46.8-68.28"/><path class="cls-4" d="M466.23,360.44,465.56,341l-1.3-91.59,12.46-25.26,0,0L483,205.73h0a4.74,4.74,0,0,0-6.88,1.88L471,218.28h0l-1.29-39.86a2.77,2.77,0,0,0-3-2.77,2.09,2.09,0,0,0-2.26,1.89c-.12,1.56-1.37,26.18-1.54,29l1.45-28.65-2.15.12a3.21,3.21,0,0,0-3,2.79c-.93,7-3.24,25.82-3.27,26l3.34-26.73-1.26.38a6.75,6.75,0,0,0-4.69,5.12l-3.87,21.15c.37-2,3.67-20.48,3.64-20.63s-.32-.21-.73-.21a4.92,4.92,0,0,0-4.52,3.4c-1.94,5.72-6.7,21.91-6.75,21.53S442,248,442,248l-3.78,125.32c-.52,17,24.57,32.32,37.32,10.88"/><path class="cls-6" d="M299.14,196l8-4.53s35.64-9.67,35.11-9.59,13.7-6.5,19.07-10.3a5.37,5.37,0,0,0,2.14-5.78c-.12-.42-.27-.7-.44-.69-.69,0-19.12,7.21-19.12,7.21L366,161.78a7.36,7.36,0,0,0,3.89-6.48v-1.44L343.74,164s19.75-8.42,26.17-11.19a2.56,2.56,0,0,0,1.36-3.28,4,4,0,0,0-4.91-2.1l-25.54,8.39,23.23-9.44a2.29,2.29,0,0,0,1.28-2.94,3,3,0,0,0-3.82-2.25l-33.82,11,6-14a2.11,2.11,0,0,0-2.51-3.27l-10.64,10.38-22.79,24.13-5.9,9.59"/><polygon class="cls-7" points="81.66 207.21 233.54 237.8 301.6 165.3 321.56 186.75 253.44 273.88 107.09 271.91 81.66 207.21"/><path class="cls-7" d="M109.53,301.44V212.62c-19.81-5.34-89.95-1.06-92-.44v89.26Z"/><path class="cls-5" d="M105.5,272.63H18.71l-2.23-60.45A74.34,74.34,0,0,0-1.09,220.5v80.94l.42,64.61H112.45l8.38-64.61V215.79a138.16,138.16,0,0,1-17.57-4Z"/><polygon class="cls-8" points="336.6 207.16 383.63 207.16 391.46 113.12 328.77 113.12 336.6 207.16"/><polygon class="cls-6" points="336.6 207.16 383.63 207.16 391.46 113.12 328.77 113.12 336.6 207.16"/><line class="cls-9" x1="390.96" y1="119.19" x2="329.27" y2="119.19"/><line class="cls-10" x1="360.11" y1="59.21" x2="360.11" y2="72.21"/><line class="cls-10" x1="331.47" y1="65.56" x2="340.67" y2="74.76"/><line class="cls-10" x1="388.76" y1="65.56" x2="379.56" y2="74.76"/><line class="cls-6" x1="533.24" y1="199.27" x2="538.95" y2="125.2"/><path class="cls-5" d="M545.87,159.17h0L564,125.94A40.84,40.84,0,0,0,563.56,86h0a40.81,40.81,0,0,0-30.39-20.13l-54.92-6.74h0a55,55,0,0,0,18.38,62.52Z"/><polygon class="cls-6" points="508.8 218.83 543.43 207.88 549.14 133.81 515.37 132.34 508.8 218.83"/><path class="cls-6" d="M492.22,93.23l23.4,3.43A27.33,27.33,0,0,1,539,125.2h0c3.59-8.56,11.79-5.76,11.65.15l-.12,5.33a15.38,15.38,0,0,1-12.63,14.76h0l-.23,4.19a29.91,29.91,0,0,1-31.5,28.24h0l-20.35-1.1Z"/><polygon class="cls-5" points="538.09 138.4 529.31 125.07 536.63 99.76 540.34 119.23 538.09 138.4"/><path class="cls-5" d="M538.09,138.4l-.24,7-.29,11.13a37.48,37.48,0,0,1-26.45,34.84L484,199.73l3.77-48.81,27,8.14,21.89-59.3Z"/><line class="cls-6" x1="485.77" y1="176.77" x2="492.22" y2="93.23"/><polygon class="cls-11" points="559.5 650.01 570.71 504.4 469.75 504.4 476.81 650.01 559.5 650.01"/><path class="cls-5" d="M469.75,504.4H571.14c0-115.64,18.32-259.63-26.65-304.6l-36.21,19.3C487.59,262.22,469.75,391.23,469.75,504.4Z"/><path class="cls-12" d="M544.49,199.81c28.15,28.13,42.51,88.42,49.68,135.34.56,3.74,1.09,7.41,1.56,11L552.81,360l-1.61-3.74-32.84-76"/><path class="cls-4" d="M557.93,535.78,600.9,399s-1-22.46-5.17-52.85L552.81,360l11.55,26.73.11,0-28.68,146L521.57,557.1l0,0L514,575h0a4.75,4.75,0,0,0,7-1.39l5.92-10.27v0l-1.53,39.84a2.76,2.76,0,0,0,2.77,3,2.08,2.08,0,0,0,2.38-1.72c.23-1.54,3.22-26,3.59-28.81l-3.47,28.47,2.15,0A3.22,3.22,0,0,0,536,601.6c1.43-6.91,5.06-25.52,5.1-25.69l-5.22,26.43,1.29-.29a6.73,6.73,0,0,0,5-4.78l5.36-20.82c-.51,1.94-5.11,20.17-5.09,20.32s.31.23.71.26a4.94,4.94,0,0,0,4.75-3.07c2.34-5.56,8.23-21.38,8.26-21S557.93,535.78,557.93,535.78Z"/><path class="cls-4" d="M557.93,535.78,600.9,399s-1-22.46-5.17-52.85L552.81,360l11.55,26.73.11,0-28.68,146L521.57,557.1l0,0L514,575h0a4.75,4.75,0,0,0,7-1.39l5.92-10.27v0l-1.53,39.84a2.76,2.76,0,0,0,2.77,3,2.08,2.08,0,0,0,2.38-1.72c.23-1.54,3.22-26,3.59-28.81l-3.47,28.47,2.15,0A3.22,3.22,0,0,0,536,601.6c1.43-6.91,5.06-25.52,5.1-25.69l-5.22,26.43,1.29-.29a6.73,6.73,0,0,0,5-4.78l5.36-20.82c-.51,1.94-5.11,20.17-5.09,20.32s.31.23.71.26a4.94,4.94,0,0,0,4.75-3.07c2.34-5.56,8.23-21.38,8.26-21S557.93,535.78,557.93,535.78Z"/><path class="cls-5" d="M13.15,196s6.5-82.64,7-86c3.73-24.64,37.47-40,63.27-24.53,8.13,4.89,16.8,15,17.6,27l15.34,70Z"/><circle class="cls-5" cx="27.07" cy="90.05" r="22.42"/><path class="cls-6" d="M63.85,236.17,98.2,211c1,.42-9.5-3.75-18-7.42-12.38-5.33-5.48-42.43-5.48-42.43l-29.62-7s3.62,33-.49,44-19.28,13.73-19.28,13.73Z"/><path class="cls-5" d="M95.44,116.57c-15.32,4.21-46.3-12.5-46.3-12.5s-7.2,31.89-20,35.41"/><path class="cls-6" d="M73.55,180.8c-25.14,4.6-38.22-20.55-42.82-45.67s4.07-46.7,18.93-49.42,39.93,6.92,45.75,38.7S95.11,176.85,73.55,180.8Z"/><path class="cls-5" d="M31.08,138.56c.06.22.12-.15.18.06C44,135.13,49.5,106,49.5,106S63.77,125.7,93.26,117.6C87.05,87.77,62.63,81.42,45.59,87.1,31.25,91.88,24.32,113.94,31.08,138.56Z"/><path class="cls-8" d="M39.86,141.47l-4-4.7a6.66,6.66,0,0,0-9.61-.54h0a6.65,6.65,0,0,0-1.49,7.7l1,2.1a11,11,0,0,0,13,5.88h0Z"/><polyline class="cls-12" points="-374.19 365.81 383.08 365.81 383.08 623.64 -374.19 623.64"/><polygon class="cls-13" points="386.74 169.8 332.81 169.8 329.62 144.39 389.22 144.39 386.74 169.8"/><path class="cls-6" d="M321.18,144.67,336,126.08h0a7.65,7.65,0,0,1,2.42,10.67l-8.76,13.48,2.05,12.47"/><path class="cls-14" d="M364,148.49a4.81,4.81,0,0,0-4.54,2.72,4.82,4.82,0,0,0-4.54-2.72,5,5,0,0,0-4.56,5.49c.5,5.89,7.4,10.7,8.84,11.64a.45.45,0,0,0,.52,0c1.44-.94,8.34-5.75,8.84-11.64a5,5,0,0,0-4.56-5.49Z"/></g></g></svg>