<svg xmlns="http://www.w3.org/2000/svg" xmlns:xlink="http://www.w3.org/1999/xlink" viewBox="0 0 1006 600"><defs><style>.cls-1,.cls-10{fill:none;}.cls-2{clip-path:url(#clip-path);}.cls-3{fill:#0abf53;}.cls-4,.cls-6,.cls-8,.cls-9{fill:#fff;}.cls-12,.cls-13,.cls-4{stroke:#09152c;}.cls-10,.cls-11,.cls-12,.cls-13,.cls-4,.cls-5,.cls-6,.cls-7{stroke-linecap:round;stroke-linejoin:round;}.cls-10,.cls-11,.cls-12,.cls-13,.cls-4,.cls-5,.cls-6,.cls-7,.cls-9{stroke-width:1.44px;}.cls-11,.cls-12,.cls-5{fill:#00112c;}.cls-10,.cls-5,.cls-6,.cls-7,.cls-9{stroke:#00112c;}.cls-7{fill:#f3f6f9;}.cls-9{stroke-miterlimit:10;}.cls-11{stroke:#fff;}.cls-13{fill:#ffda00;}</style><clipPath id="clip-path"><rect class="cls-1" width="1006" height="600"/></clipPath></defs><g id="Layer_1" data-name="Layer 1"><g class="cls-2"><rect class="cls-3" x="-333.31" y="-116.75" width="1400.87" height="779.53"/><path class="cls-4" d="M787.77,450.49l28.3-39-47-17.75-15,30a24.38,24.38,0,0,0,8.61,31.42h0A18.58,18.58,0,0,0,787.77,450.49Z"/><path class="cls-5" d="M866.93,226.25c-41.13,27.67-73.08,97.95-93.06,153.6-1.58,4.43-3.11,8.8-4.52,13l49.14,27.29,2.87-4.18,58.29-85.06"/><path class="cls-4" d="M771,423.15l-.83-24.2-1.63-114.09L784,253.4l0,0,7.84-23h0a5.91,5.91,0,0,0-8.58,2.34l-6.45,13.29,0,0-1.61-49.65a3.45,3.45,0,0,0-3.7-3.44,2.59,2.59,0,0,0-2.81,2.35c-.16,1.94-1.71,32.61-1.92,36.12l1.8-35.69-2.68.15a4,4,0,0,0-3.76,3.48c-1.16,8.72-4,32.16-4.07,32.37l4.16-33.29-1.58.47a8.38,8.38,0,0,0-5.83,6.38L750,231.64c.46-2.46,4.57-25.5,4.53-25.7s-.4-.26-.91-.25a6.15,6.15,0,0,0-5.63,4.23c-2.42,7.12-8.34,27.29-8.41,26.82s1.13,46.35,1.13,46.35L736,439.19c-.64,21.18,30.61,40.26,46.49,13.55"/><path class="cls-6" d="M509,218.28l9.94-5.64s44.38-12,43.73-12,17.07-8.09,23.75-12.82a6.69,6.69,0,0,0,2.67-7.19c-.15-.54-.33-.89-.55-.87-.86.06-23.81,9-23.81,9l27.57-13.09a9.19,9.19,0,0,0,4.85-8.08v-1.79l-32.59,12.59s24.61-10.5,32.6-13.94a3.19,3.19,0,0,0,1.7-4.09,5,5,0,0,0-6.12-2.61L561,168.21l28.95-11.76a2.85,2.85,0,0,0,1.58-3.66,3.75,3.75,0,0,0-4.75-2.79L544.6,163.7l7.48-17.49a2.62,2.62,0,0,0-3.12-4.07L535.7,155.07l-28.38,30.05L500,197.07"/><polygon class="cls-7" points="238.13 232.28 427.32 270.38 512.1 180.07 536.97 206.8 452.1 315.33 269.81 312.87 238.13 232.28"/><path class="cls-7" d="M135.06,349.65V248.83c-23.85,18.06-39.24,50.69-39.14,87L96.16,430h38.9V349.65Z"/><path class="cls-7" d="M272.85,349.65V239c-24.68-6.66-112.06-1.33-114.6-.55V349.65Z"/><path class="cls-5" d="M267.82,313.77H159.72l-2.79-75.3a92.6,92.6,0,0,0-21.87,10.36V349.65l.52,80.49h140.9l10.44-80.49V243A171.42,171.42,0,0,1,265,238Z"/><polygon class="cls-8" points="555.7 232.22 614.28 232.22 624.04 115.07 545.94 115.07 555.7 232.22"/><polygon class="cls-6" points="555.7 232.22 614.28 232.22 624.04 115.07 545.94 115.07 555.7 232.22"/><line class="cls-9" x1="623.41" y1="122.63" x2="546.57" y2="122.63"/><line class="cls-10" x1="584.99" y1="47.92" x2="584.99" y2="64.12"/><line class="cls-10" x1="549.31" y1="55.84" x2="560.76" y2="67.29"/><line class="cls-10" x1="620.66" y1="55.84" x2="609.21" y2="67.29"/><line class="cls-6" x1="854.45" y1="222.39" x2="861.56" y2="130.12"/><path class="cls-5" d="M870.18,172.44h0l22.61-41.39a50.86,50.86,0,0,0-.57-49.75h0a50.85,50.85,0,0,0-37.87-25.09L786,47.82h0a68.56,68.56,0,0,0,22.9,77.89Z"/><polygon class="cls-6" points="824.01 246.76 867.14 233.12 874.26 140.85 832.18 139.02 824.01 246.76"/><path class="cls-6" d="M803.35,90.3l29.15,4.27a34.06,34.06,0,0,1,29.06,35.55h0c4.47-10.65,14.69-7.17,14.52.19l-.16,6.64a19.14,19.14,0,0,1-15.73,18.38h0l-.29,5.23a37.26,37.26,0,0,1-39.23,35.18h0l-25.35-1.38Z"/><polygon class="cls-5" points="860.49 146.57 849.55 129.96 858.67 98.43 863.29 122.69 860.49 146.57"/><path class="cls-5" d="M860.49,146.57l-.3,8.76-.36,13.87a46.68,46.68,0,0,1-33,43.4L793.12,223l4.69-60.81L831.4,172.3l27.27-73.87Z"/><line class="cls-6" x1="795.32" y1="194.36" x2="803.35" y2="90.3"/><path class="cls-5" d="M775.37,602.48H901.66c0-144,22.82-323.41-33.2-379.43l-45.1,24C797.59,300.8,775.37,461.51,775.37,602.48Z"/><path class="cls-11" d="M868.47,223.06c35.06,35,52.94,110.14,61.87,168.59.7,4.65,1.37,9.23,1.95,13.64l-53.47,17.37-2-4.66-40.91-94.65"/><path class="cls-4" d="M885.2,641.57l53.53-170.45s-1.26-28-6.44-65.83l-53.47,17.37L893.21,456l.14.05L857.62,637.83l-17.71,30.29,0,0-9.44,22.37h0a5.9,5.9,0,0,0,8.72-1.73l7.37-12.8,0,0-1.91,49.64a3.45,3.45,0,0,0,3.45,3.7,2.6,2.6,0,0,0,3-2.15c.29-1.92,4-32.41,4.47-35.89l-4.33,35.47,2.69,0a4,4,0,0,0,4-3.2c1.78-8.62,6.31-31.8,6.36-32l-6.51,32.91,1.61-.36a8.39,8.39,0,0,0,6.27-6l6.67-25.94c-.63,2.43-6.36,25.12-6.33,25.32s.38.29.88.32a6.14,6.14,0,0,0,5.92-3.82c2.91-6.93,10.25-26.63,10.29-26.17S885.2,641.57,885.2,641.57Z"/><path class="cls-4" d="M885.2,641.57l53.53-170.45s-1.26-28-6.44-65.83l-53.47,17.37L893.21,456l.14.05L857.62,637.83l-17.71,30.29,0,0-9.44,22.37h0a5.9,5.9,0,0,0,8.72-1.73l7.37-12.8,0,0-1.91,49.64a3.45,3.45,0,0,0,3.45,3.7,2.6,2.6,0,0,0,3-2.15c.29-1.92,4-32.41,4.47-35.89l-4.33,35.47,2.69,0a4,4,0,0,0,4-3.2c1.78-8.62,6.31-31.8,6.36-32l-6.51,32.91,1.61-.36a8.39,8.39,0,0,0,6.27-6l6.67-25.94c-.63,2.43-6.36,25.12-6.33,25.32s.38.29.88.32a6.14,6.14,0,0,0,5.92-3.82c2.91-6.93,10.25-26.63,10.29-26.17S885.2,641.57,885.2,641.57Z"/><path class="cls-5" d="M152.79,218.34s8.09-102.94,8.73-107.17c4.65-30.7,46.68-49.88,78.81-30.56,10.13,6.09,20.93,18.64,21.93,33.61l19.1,87.17Z"/><circle class="cls-5" cx="170.13" cy="86.34" r="27.92"/><path class="cls-6" d="M215.94,268.36l42.8-31.31c1.27.53-11.84-4.67-22.46-9.24-15.42-6.64-6.82-52.85-6.82-52.85l-36.89-8.71s4.5,41.1-.61,54.74-24,17.1-24,17.1Z"/><path class="cls-5" d="M255.3,119.38c-19.09,5.24-57.68-15.57-57.68-15.57s-9,39.72-24.9,44.1"/><path class="cls-6" d="M228,199.38c-31.32,5.73-47.61-25.6-53.34-56.89s5.06-58.17,23.58-61.56,49.74,8.62,57,48.21S254.89,194.47,228,199.38Z"/><path class="cls-5" d="M175.12,146.77c.08.27.15-.19.23.07,15.82-4.34,22.72-40.67,22.72-40.67s17.78,24.57,54.51,14.48c-7.74-37.15-38.16-45.06-59.39-38C175.33,88.62,166.7,116.1,175.12,146.77Z"/><path class="cls-8" d="M186.06,150.39l-5-5.85a8.3,8.3,0,0,0-12-.68h0a8.28,8.28,0,0,0-1.86,9.59l1.22,2.62a13.66,13.66,0,0,0,16.15,7.32h0Z"/><polyline class="cls-11" points="-329.7 429.83 613.6 429.83 613.6 670.3 -329.7 670.3"/><polygon class="cls-12" points="618.15 185.68 550.98 185.68 547 154.03 621.24 154.03 618.15 185.68"/><path class="cls-6" d="M536.49,154.37l18.41-23.15h0a9.52,9.52,0,0,1,3,13.29L547,161.3l2.56,15.54"/><path class="cls-13" d="M589.78,159.14a6,6,0,0,0-5.66,3.39,6,6,0,0,0-5.66-3.39,6.18,6.18,0,0,0-5.68,6.83c.64,7.34,9.22,13.33,11,14.51a.59.59,0,0,0,.65,0c1.79-1.18,10.38-7.17,11-14.51a6.18,6.18,0,0,0-5.68-6.83Z"/></g></g></svg>