<svg xmlns="http://www.w3.org/2000/svg" xmlns:xlink="http://www.w3.org/1999/xlink" viewBox="0 0 1486 600"><defs><style>.cls-1,.cls-10{fill:none;}.cls-2{clip-path:url(#clip-path);}.cls-3{fill:#0abf53;}.cls-4,.cls-6,.cls-8,.cls-9{fill:#fff;}.cls-12,.cls-13,.cls-4{stroke:#09152c;}.cls-10,.cls-11,.cls-12,.cls-13,.cls-4,.cls-5,.cls-6,.cls-7{stroke-linecap:round;stroke-linejoin:round;}.cls-10,.cls-11,.cls-12,.cls-13,.cls-4,.cls-5,.cls-6,.cls-7,.cls-9{stroke-width:1.56px;}.cls-11,.cls-12,.cls-5{fill:#00112c;}.cls-10,.cls-5,.cls-6,.cls-7,.cls-9{stroke:#00112c;}.cls-7{fill:#f3f6f9;}.cls-9{stroke-miterlimit:10;}.cls-11{stroke:#fff;}.cls-13{fill:#ffda00;}</style><clipPath id="clip-path"><rect class="cls-1" width="1486" height="600"/></clipPath></defs><g id="Layer_1" data-name="Layer 1"><g class="cls-2"><rect class="cls-3" x="-339.2" y="-143.06" width="2168.02" height="841.54"/><path class="cls-4" d="M1097.8,469.3l30.55-42.12L1077.65,408l-16.23,32.44a26.32,26.32,0,0,0,9.3,33.92h0A20.06,20.06,0,0,0,1097.8,469.3Z"/><path class="cls-5" d="M1183.26,227.23C1138.85,257.1,1104.36,333,1082.8,393c-1.71,4.79-3.36,9.5-4.89,14.06L1131,436.56l3.09-4.52L1197,340.22"/><path class="cls-4" d="M1079.67,439.79l-.89-26.13L1077,290.5l16.76-34,0,0,8.46-24.81h0a6.37,6.37,0,0,0-9.26,2.53l-7,14.34,0,0-1.73-53.6a3.73,3.73,0,0,0-4-3.72,2.8,2.8,0,0,0-3,2.54c-.17,2.1-1.85,35.21-2.08,39l2-38.52-2.89.16a4.34,4.34,0,0,0-4.06,3.75c-1.25,9.42-4.36,34.73-4.39,35l4.48-35.94-1.7.51a9.06,9.06,0,0,0-6.3,6.89l-5.2,28.44c.5-2.66,4.93-27.54,4.89-27.75s-.43-.28-1-.27a6.63,6.63,0,0,0-6.08,4.56c-2.61,7.69-9,29.46-9.07,29-.1-.65,1.21,50,1.21,50L1042,457.11c-.69,22.86,33,43.45,50.19,14.62"/><path class="cls-6" d="M796.89,218.62l10.73-6.09s47.91-13,47.21-12.91,18.42-8.73,25.64-13.84a7.23,7.23,0,0,0,2.88-7.77c-.17-.57-.36-.95-.59-.93-.93.07-25.71,9.7-25.71,9.7l29.76-14.14a9.88,9.88,0,0,0,5.24-8.72V162l-35.18,13.59s26.57-11.33,35.19-15.05a3.44,3.44,0,0,0,1.83-4.42,5.43,5.43,0,0,0-6.6-2.81l-34.35,11.27s23.12-9.4,31.25-12.69a3.08,3.08,0,0,0,1.71-4,4.07,4.07,0,0,0-5.13-3l-45.48,14.8,8.08-18.88a2.84,2.84,0,0,0-3.38-4.4l-14.3,14-30.64,32.45-7.95,12.89"/><polygon class="cls-7" points="504.44 233.73 708.68 274.86 800.21 177.38 827.05 206.22 735.44 323.39 538.64 320.73 504.44 233.73"/><path class="cls-7" d="M393.17,360.44V251.6c-25.74,19.49-42.36,54.72-42.26,93.93l.27,101.67h42V360.44Z"/><path class="cls-7" d="M541.92,360.44V241c-26.64-7.19-121-1.43-123.72-.6v120Z"/><path class="cls-5" d="M536.5,321.71H419.79l-3-81.3a100.32,100.32,0,0,0-23.61,11.19V360.44l.56,86.89H545.84l11.27-86.89V245.27a186,186,0,0,1-23.62-5.39Z"/><polygon class="cls-8" points="847.27 233.67 910.51 233.67 921.05 107.2 836.73 107.2 847.27 233.67"/><polygon class="cls-6" points="847.27 233.67 910.51 233.67 921.05 107.2 836.73 107.2 847.27 233.67"/><line class="cls-9" x1="920.37" y1="115.36" x2="837.41" y2="115.36"/><rect class="cls-7" x="30.84" y="283.59" width="200.96" height="139.5"/><rect class="cls-6" x="12.88" y="235.08" width="236.87" height="48.51"/><rect class="cls-6" x="12.88" y="398.84" width="236.87" height="48.51"/><line class="cls-5" x1="42.07" y1="299.19" x2="101.42" y2="299.19"/><path class="cls-6" d="M92.59,349.74h76.77a0,0,0,0,1,0,0v10.71A38.38,38.38,0,0,1,131,398.84h0a38.38,38.38,0,0,1-38.38-38.38V349.74a0,0,0,0,1,0,0Z"/><rect class="cls-5" x="96.03" y="284.64" width="66.55" height="29.09"/><rect class="cls-5" x="-19.2" y="284.64" width="66.55" height="29.09" rx="14.55"/><line class="cls-10" x1="878.89" y1="34.71" x2="878.89" y2="52.19"/><line class="cls-10" x1="840.38" y1="43.26" x2="852.74" y2="55.62"/><line class="cls-10" x1="917.4" y1="43.26" x2="905.04" y2="55.62"/><line class="cls-6" x1="1169.78" y1="223.05" x2="1177.47" y2="123.44"/><path class="cls-5" d="M1186.77,169.14h0l24.4-44.69a54.88,54.88,0,0,0-.61-53.71h0a54.88,54.88,0,0,0-40.88-27.08l-73.84-9.06h0a74,74,0,0,0,24.72,84.08Z"/><polygon class="cls-6" points="1136.92 249.36 1183.49 234.64 1191.17 135.03 1145.75 133.05 1136.92 249.36"/><path class="cls-6" d="M1114.62,80.46l31.47,4.61a36.77,36.77,0,0,1,31.38,38.37h0c4.82-11.49,15.85-7.74,15.66.21l-.17,7.17a20.66,20.66,0,0,1-17,19.85h0l-.31,5.64a40.23,40.23,0,0,1-42.35,38h0l-27.37-1.5Z"/><polygon class="cls-5" points="1176.31 141.2 1164.5 123.27 1174.34 89.23 1179.33 115.42 1176.31 141.2"/><path class="cls-5" d="M1176.31,141.2l-.33,9.47-.39,15A50.37,50.37,0,0,1,1140,212.48l-36.45,11.2,5.07-65.65L1144.9,169l29.44-79.74Z"/><line class="cls-6" x1="1105.95" y1="192.79" x2="1114.62" y2="80.46"/><path class="cls-5" d="M1084.41,633.38h136.34c0-155.5,24.64-349.14-35.84-409.61l-48.68,26C1108.4,307.7,1084.41,481.2,1084.41,633.38Z"/><path class="cls-11" d="M1184.92,223.78c37.85,37.83,57.15,118.91,66.79,182,.76,5,1.48,10,2.11,14.73l-57.72,18.74-2.17-5-44.16-102.18"/><path class="cls-4" d="M1203,675.58l57.79-184s-1.36-30.21-7-71.07l-57.72,18.74,15.53,35.95.15.05-38.57,196.29-19.12,32.7,0,0-10.2,24.15h0a6.37,6.37,0,0,0,9.42-1.87l8-13.81,0,0-2.06,53.58a3.73,3.73,0,0,0,3.72,4,2.8,2.8,0,0,0,3.2-2.32c.32-2.08,4.34-35,4.84-38.75l-4.68,38.29,2.9,0a4.34,4.34,0,0,0,4.31-3.46c1.92-9.3,6.81-34.32,6.86-34.55l-7,35.54,1.73-.39a9.09,9.09,0,0,0,6.78-6.43l7.2-28c-.69,2.62-6.87,27.12-6.84,27.33s.41.32,1,.35a6.63,6.63,0,0,0,6.38-4.13c3.15-7.48,11.07-28.75,11.11-28.24S1203,675.58,1203,675.58Z"/><path class="cls-4" d="M1203,675.58l57.79-184s-1.36-30.21-7-71.07l-57.72,18.74,15.53,35.95.15.05-38.57,196.29-19.12,32.7,0,0-10.2,24.15h0a6.37,6.37,0,0,0,9.42-1.87l8-13.81,0,0-2.06,53.58a3.73,3.73,0,0,0,3.72,4,2.8,2.8,0,0,0,3.2-2.32c.32-2.08,4.34-35,4.84-38.75l-4.68,38.29,2.9,0a4.34,4.34,0,0,0,4.31-3.46c1.92-9.3,6.81-34.32,6.86-34.55l-7,35.54,1.73-.39a9.09,9.09,0,0,0,6.78-6.43l7.2-28c-.69,2.62-6.87,27.12-6.84,27.33s.41.32,1,.35a6.63,6.63,0,0,0,6.38-4.13c3.15-7.48,11.07-28.75,11.11-28.24S1203,675.58,1203,675.58Z"/><path class="cls-5" d="M412.31,218.68s8.74-111.13,9.43-115.69c5-33.14,50.39-53.85,85.07-33,10.94,6.58,22.6,20.14,23.68,36.3l20.62,94.09Z"/><circle class="cls-5" cx="431.03" cy="76.19" r="30.15"/><path class="cls-6" d="M480.49,272.68l46.2-33.8c1.37.57-12.79-5-24.24-10-16.65-7.17-7.37-57.06-7.37-57.06l-39.83-9.4s4.87,44.37-.65,59.09S428.66,240,428.66,240Z"/><path class="cls-5" d="M523,111.85C502.37,117.51,460.71,95,460.71,95s-9.68,42.89-26.88,47.61"/><path class="cls-6" d="M493.54,198.22c-33.82,6.18-51.4-27.64-57.58-61.41S441.42,74,461.41,70.35s53.7,9.3,61.51,52S522.53,192.91,493.54,198.22Z"/><path class="cls-5" d="M436.42,141.42c.08.29.16-.2.24.08,17.09-4.69,24.53-43.91,24.53-43.91s19.2,26.53,58.85,15.64c-8.36-40.11-41.19-48.65-64.11-41C436.65,78.65,427.33,108.31,436.42,141.42Z"/><path class="cls-8" d="M448.22,145.33l-5.4-6.32a9,9,0,0,0-12.92-.73h0a9,9,0,0,0-2,10.36l1.32,2.82a14.76,14.76,0,0,0,17.43,7.91h0Z"/><polyline class="cls-11" points="-335.31 447 909.78 447 909.78 706.59 -335.31 706.59"/><polygon class="cls-12" points="914.7 183.43 842.18 183.43 837.88 149.26 918.03 149.26 914.7 183.43"/><path class="cls-6" d="M826.54,149.63l19.87-25h0A10.27,10.27,0,0,1,849.66,139l-11.78,18.13,2.76,16.78"/><path class="cls-13" d="M884.07,154.78a6.44,6.44,0,0,0-6.11,3.65,6.46,6.46,0,0,0-6.11-3.65,6.65,6.65,0,0,0-6.13,7.37c.68,7.93,9.95,14.39,11.88,15.66a.65.65,0,0,0,.71,0c1.93-1.27,11.2-7.73,11.88-15.66a6.65,6.65,0,0,0-6.12-7.37Z"/></g></g></svg>