<svg xmlns="http://www.w3.org/2000/svg" xmlns:xlink="http://www.w3.org/1999/xlink" viewBox="0 0 1188 300"><defs><style>.cls-1,.cls-12,.cls-16,.cls-8{fill:none;}.cls-2{clip-path:url(#clip-path);}.cls-11,.cls-3{fill:#f3f6f9;}.cls-13,.cls-15,.cls-4,.cls-6,.cls-9{fill:#00112c;}.cls-4{stroke:#fff;}.cls-10,.cls-11,.cls-12,.cls-14,.cls-4,.cls-5,.cls-6,.cls-7,.cls-8,.cls-9{stroke-linejoin:round;}.cls-10,.cls-11,.cls-12,.cls-13,.cls-14,.cls-16,.cls-4,.cls-5,.cls-6,.cls-7,.cls-8,.cls-9{stroke-width:0.91px;}.cls-10,.cls-5{fill:#0abf53;}.cls-5{stroke:#0abf53;}.cls-10,.cls-11,.cls-5,.cls-7,.cls-8,.cls-9{stroke-linecap:round;}.cls-10,.cls-11,.cls-12,.cls-13,.cls-14,.cls-16,.cls-6,.cls-7,.cls-8,.cls-9{stroke:#00112c;}.cls-14,.cls-7{fill:#fff;}.cls-13,.cls-16{stroke-miterlimit:10;}</style><clipPath id="clip-path"><rect class="cls-1" width="1188" height="300"/></clipPath></defs><g id="Layer_1" data-name="Layer 1"><g class="cls-2"><rect class="cls-3" x="-8" y="-236.06" width="1197.9" height="673.82"/><rect class="cls-4" x="701.57" y="29.47" width="111.81" height="74.54" transform="translate(824.21 -690.74) rotate(90)"/><polygon class="cls-4" points="720.21 10.83 776.11 66.74 720.21 122.64 720.21 10.83"/><polygon class="cls-4" points="794.75 122.64 738.84 66.74 794.75 10.83 794.75 122.64"/><path class="cls-5" d="M154.44,172.4a10,10,0,0,0,10,10h96.77a10,10,0,0,0,10-10V139.11H154.44Z"/><path class="cls-5" d="M271.13,117.68a10,10,0,0,0-10-10H164.4a10,10,0,0,0-10,10V126H271.13Z"/><rect class="cls-6" x="154.44" y="126.03" width="116.69" height="13.07"/><rect class="cls-7" x="1161.49" y="23.05" width="26.08" height="135.85" transform="translate(1083.55 1265.5) rotate(-90)"/><path class="cls-5" d="M1106.6,77.93V104h-11.48a13,13,0,0,1-13-13h0a13,13,0,0,1,13-13Z"/><line class="cls-7" x1="1118.86" y1="104.01" x2="1118.86" y2="77.93"/><line class="cls-8" x1="1118.86" y1="90.97" x2="1242.45" y2="90.97"/><polyline class="cls-8" points="875.01 313.5 875.01 164.86 1187 164.86"/><line class="cls-8" x1="875.01" y1="195.27" x2="1187" y2="195.27"/><circle class="cls-9" cx="894.35" cy="180.06" r="7.06"/><circle class="cls-7" cx="919.35" cy="180.06" r="7.06"/><circle class="cls-10" cx="944.34" cy="180.06" r="7.06"/><polygon class="cls-9" points="994.67 218.01 999.81 262.38 1011.07 245.38 1031.37 243.48 994.67 218.01"/><rect class="cls-6" x="840.63" y="-70.33" width="213.15" height="182.95" transform="translate(926.06 968.35) rotate(-90)"/><polyline class="cls-7" points="1017.95 -85.85 1017.95 114.12 892.97 114.12 876.46 98.88 876.46 -85.85"/><polygon class="cls-11" points="892.97 98.88 892.97 114.12 876.46 98.88 892.97 98.88"/><circle class="cls-11" cx="947.2" cy="134.74" r="14.72"/><rect class="cls-11" x="933.38" y="90" width="27.65" height="61.83" transform="translate(826.29 1068.12) rotate(-90)"/><line class="cls-8" x1="902.2" y1="71.59" x2="992.2" y2="71.59"/><line class="cls-8" x1="902.2" y1="40.67" x2="992.2" y2="40.67"/><line class="cls-8" x1="902.2" y1="9.74" x2="992.2" y2="9.74"/><line class="cls-12" x1="77.26" y1="141.28" x2="77.26" y2="433.17"/><circle class="cls-7" cx="77.26" cy="218.04" r="5.27"/><line class="cls-12" x1="617.1" y1="194.4" x2="617.1" y2="490.83"/><circle class="cls-7" cx="617.1" cy="271.16" r="5.27"/><path class="cls-8" d="M264.48-78v51.63A21.43,21.43,0,0,0,285.91-5l26.55-37.62a21.42,21.42,0,0,1,21.43,21.42V209.53"/><rect class="cls-11" x="318.74" y="240.2" width="6.1" height="15.06"/><rect class="cls-11" x="342.75" y="240.2" width="6.1" height="15.06"/><path class="cls-7" d="M616,74.75v97.51h27.5a48.76,48.76,0,0,0,48.75-48.76h0A48.75,48.75,0,0,0,643.5,74.75Zm27.5,79.42h-9.41V92.84h9.41a30.66,30.66,0,0,1,30.66,30.66h0A30.67,30.67,0,0,1,643.5,154.17Z"/><path class="cls-7" d="M542.23,51.49V188.13c0,4.08,23.35,7.39,52.16,7.39s52.17-3.31,52.17-7.39V51.49Z"/><ellipse class="cls-10" cx="594.39" cy="51.49" rx="52.16" ry="7.39"/><rect class="cls-13" x="575.61" y="49.58" width="37.56" height="2.44"/><path class="cls-11" d="M328.08,209.53h11.61a14.58,14.58,0,0,1,14.58,14.58V240.2a0,0,0,0,1,0,0H313.51a0,0,0,0,1,0,0V224.11A14.58,14.58,0,0,1,328.08,209.53Z"/><rect class="cls-14" x="21.36" y="66.74" width="111.81" height="74.54"/><polygon class="cls-14" points="21.36 141.28 77.26 85.37 133.17 141.28 21.36 141.28"/><polygon class="cls-14" points="133.17 66.74 77.26 122.64 21.36 66.74 133.17 66.74"/><line class="cls-14" x1="212.78" y1="182.36" x2="212.78" y2="352.56"/><path class="cls-7" d="M154.44,279a10,10,0,0,0,10,10h96.77a10,10,0,0,0,10-10V245.71H154.44Z"/><path class="cls-7" d="M271.13,224.29a10,10,0,0,0-10-10H164.4a10,10,0,0,0-10,10v8.35H271.13Z"/><rect class="cls-6" x="154.44" y="232.64" width="116.69" height="13.07"/><path class="cls-12" d="M855.73,71.14H838.27A19.9,19.9,0,0,0,818.38,91v73A19.88,19.88,0,0,1,798.49,184H770.38a19.9,19.9,0,0,0-19.89,19.9V403.75"/><line class="cls-12" x1="446.11" y1="-21.19" x2="446.11" y2="78.99"/><path class="cls-7" d="M417.07,134.46H572.7a0,0,0,0,1,0,0v0a6.1,6.1,0,0,1-6.1,6.1H423.17a6.1,6.1,0,0,1-6.1-6.1v0a0,0,0,0,1,0,0Z" transform="translate(357.38 632.39) rotate(-90)"/><rect class="cls-7" x="400.39" y="53.6" width="91.45" height="207.45" rx="6.1"/><rect class="cls-7" x="406.48" y="175.69" width="19.81" height="19.81"/><rect class="cls-7" x="426.3" y="175.69" width="19.81" height="19.81"/><rect class="cls-7" x="446.11" y="175.69" width="19.81" height="19.81"/><rect class="cls-7" x="465.92" y="175.69" width="19.81" height="19.81"/><rect class="cls-7" x="446.11" y="195.5" width="19.81" height="19.81"/><rect class="cls-7" x="426.3" y="195.5" width="19.81" height="19.81"/><rect class="cls-10" x="465.92" y="215.32" width="19.81" height="39.63"/><rect class="cls-7" x="446.11" y="235.13" width="19.81" height="19.81"/><rect class="cls-7" x="426.3" y="235.13" width="19.81" height="19.81"/><rect class="cls-7" x="406.48" y="235.13" width="19.81" height="19.81"/><rect class="cls-7" x="406.48" y="195.5" width="19.81" height="19.81"/><rect class="cls-7" x="406.48" y="215.32" width="19.81" height="19.81"/><rect class="cls-7" x="465.92" y="195.5" width="19.81" height="19.81"/><rect class="cls-7" x="426.3" y="215.32" width="19.81" height="19.81"/><rect class="cls-7" x="446.11" y="215.32" width="19.81" height="19.81"/><rect class="cls-15" x="406.48" y="59.85" width="79.26" height="115.84"/><rect class="cls-16" x="406.48" y="59.85" width="79.26" height="115.84"/></g></g></svg>