<svg xmlns="http://www.w3.org/2000/svg" xmlns:xlink="http://www.w3.org/1999/xlink" viewBox="0 0 1500 300"><defs><style>.cls-1,.cls-12,.cls-16,.cls-8{fill:none;}.cls-2{clip-path:url(#clip-path);}.cls-11,.cls-3{fill:#f3f6f9;}.cls-13,.cls-15,.cls-4,.cls-6,.cls-9{fill:#00112c;}.cls-4{stroke:#fff;}.cls-10,.cls-11,.cls-12,.cls-14,.cls-4,.cls-5,.cls-6,.cls-7,.cls-8,.cls-9{stroke-linejoin:round;}.cls-10,.cls-11,.cls-12,.cls-13,.cls-14,.cls-16,.cls-4,.cls-5,.cls-6,.cls-7,.cls-8,.cls-9{stroke-width:1.15px;}.cls-10,.cls-5{fill:#0abf53;}.cls-5{stroke:#0abf53;}.cls-10,.cls-11,.cls-5,.cls-7,.cls-8,.cls-9{stroke-linecap:round;}.cls-10,.cls-11,.cls-12,.cls-13,.cls-14,.cls-16,.cls-6,.cls-7,.cls-8,.cls-9{stroke:#00112c;}.cls-14,.cls-7{fill:#fff;}.cls-13,.cls-16{stroke-miterlimit:10;}</style><clipPath id="clip-path"><rect class="cls-1" width="1500" height="300"/></clipPath></defs><g id="Layer_1" data-name="Layer 1"><g class="cls-2"><rect class="cls-3" x="-6.78" y="-350.28" width="1517.12" height="853.38"/><rect class="cls-4" x="891.88" y="-13.99" width="141.61" height="94.41" transform="translate(995.9 -929.47) rotate(90)"/><polygon class="cls-4" points="915.48 -37.59 986.29 33.22 915.48 104.02 915.48 -37.59"/><polygon class="cls-4" points="1009.89 104.02 939.08 33.22 1009.89 -37.59 1009.89 104.02"/><path class="cls-5" d="M199,167a12.61,12.61,0,0,0,12.61,12.62H334.12A12.62,12.62,0,0,0,346.74,167V124.87H199Z"/><path class="cls-5" d="M346.74,97.74a12.62,12.62,0,0,0-12.62-12.62H211.56A12.61,12.61,0,0,0,199,97.74v10.57H346.74Z"/><rect class="cls-6" x="198.95" y="108.31" width="147.79" height="16.55"/><rect class="cls-7" x="1474.36" y="-22.12" width="33.02" height="172.05" transform="translate(1426.96 1554.78) rotate(-90)"/><path class="cls-5" d="M1404.85,47.39v33h-14.54a16.52,16.52,0,0,1-16.52-16.51h0a16.52,16.52,0,0,1,16.52-16.52Z"/><line class="cls-7" x1="1420.37" y1="80.42" x2="1420.37" y2="47.39"/><line class="cls-8" x1="1420.37" y1="63.91" x2="1576.89" y2="63.91"/><polyline class="cls-8" points="1111.55 345.73 1111.55 157.48 1506.67 157.48"/><line class="cls-8" x1="1111.54" y1="196" x2="1506.67" y2="196"/><circle class="cls-9" cx="1136.04" cy="176.74" r="8.94"/><circle class="cls-7" cx="1167.69" cy="176.74" r="8.94"/><circle class="cls-10" cx="1199.35" cy="176.74" r="8.94"/><polygon class="cls-9" points="1263.09 224.8 1269.59 281 1283.85 259.46 1309.57 257.05 1263.09 224.8"/><rect class="cls-6" x="1068" y="-140.37" width="269.94" height="231.7" transform="translate(1227.5 1178.45) rotate(-90)"/><polyline class="cls-7" points="1292.57 -160.04 1292.57 93.22 1134.29 93.22 1113.37 73.92 1113.37 -160.04"/><polygon class="cls-11" points="1134.29 73.92 1134.29 93.22 1113.37 73.92 1134.29 73.92"/><circle class="cls-11" cx="1202.97" cy="119.34" r="18.64"/><rect class="cls-11" x="1185.46" y="62.68" width="35.01" height="78.3" transform="translate(1101.14 1304.8) rotate(-90)"/><line class="cls-8" x1="1145.98" y1="39.36" x2="1259.96" y2="39.36"/><line class="cls-8" x1="1145.98" y1="0.19" x2="1259.96" y2="0.19"/><line class="cls-12" x1="101.21" y1="127.62" x2="101.21" y2="497.3"/><circle class="cls-7" cx="101.21" cy="224.84" r="6.68"/><line class="cls-12" x1="784.9" y1="229.72" x2="784.9" y2="605.14"/><path class="cls-8" d="M338.32-150.16v65.4a27.13,27.13,0,0,0,27.13,27.13h33.64A27.13,27.13,0,0,1,426.22-30.5V214.06"/><rect class="cls-11" x="407.03" y="252.9" width="7.72" height="19.07"/><rect class="cls-11" x="437.44" y="252.9" width="7.72" height="19.07"/><path class="cls-7" d="M783.51,78.19V201.68h34.82a61.74,61.74,0,0,0,61.75-61.74h0a61.74,61.74,0,0,0-61.75-61.74Zm34.82,100.58H806.42V101.1h11.91a38.84,38.84,0,0,1,38.84,38.84h0A38.84,38.84,0,0,1,818.33,178.77Z"/><path class="cls-7" d="M690.08,48.73V221.78c0,5.17,29.57,9.36,66.06,9.36s66.07-4.19,66.07-9.36v-173Z"/><ellipse class="cls-10" cx="756.14" cy="48.73" rx="66.07" ry="9.36"/><rect class="cls-13" x="732.36" y="46.31" width="47.57" height="3.08"/><path class="cls-11" d="M418.87,214.06h14.7A18.46,18.46,0,0,1,452,232.52V252.9a0,0,0,0,1,0,0H400.41a0,0,0,0,1,0,0V232.52A18.46,18.46,0,0,1,418.87,214.06Z"/><rect class="cls-14" x="30.4" y="33.21" width="141.61" height="94.41"/><polygon class="cls-14" points="30.4 127.62 101.21 56.82 172.01 127.62 30.4 127.62"/><polygon class="cls-14" points="172.01 33.22 101.21 104.02 30.4 33.22 172.01 33.22"/><line class="cls-14" x1="272.84" y1="179.65" x2="272.84" y2="395.2"/><path class="cls-7" d="M199,302.05a12.61,12.61,0,0,0,12.61,12.61H334.12a12.62,12.62,0,0,0,12.62-12.61V259.88H199Z"/><path class="cls-7" d="M346.74,232.75a12.61,12.61,0,0,0-12.62-12.61H211.56A12.6,12.6,0,0,0,199,232.75v10.58H346.74Z"/><rect class="cls-6" x="198.95" y="243.33" width="147.79" height="16.55"/><path class="cls-12" d="M1087.12,38.79H1065A25.19,25.19,0,0,0,1039.82,64v92.5a25.19,25.19,0,0,1-25.19,25.2H979a25.19,25.19,0,0,0-25.19,25.19V460"/><line class="cls-12" x1="568.35" y1="-38.97" x2="568.35" y2="48.73"/><path class="cls-7" d="M531.57,119h197.1a0,0,0,0,1,0,0v0a7.72,7.72,0,0,1-7.72,7.72H539.29a7.72,7.72,0,0,1-7.72-7.72v0a0,0,0,0,1,0,0Z" transform="translate(507.28 752.96) rotate(-90)"/><rect class="cls-7" x="510.44" y="16.57" width="115.82" height="262.73" rx="7.72"/><rect class="cls-7" x="518.16" y="171.2" width="25.09" height="25.09"/><rect class="cls-7" x="543.25" y="171.2" width="25.09" height="25.09"/><rect class="cls-7" x="568.35" y="171.2" width="25.09" height="25.09"/><rect class="cls-7" x="593.44" y="171.2" width="25.09" height="25.09"/><rect class="cls-7" x="568.35" y="196.3" width="25.09" height="25.09"/><rect class="cls-7" x="543.25" y="196.3" width="25.09" height="25.09"/><rect class="cls-10" x="593.44" y="221.39" width="25.09" height="50.19"/><rect class="cls-7" x="568.35" y="246.49" width="25.09" height="25.09"/><rect class="cls-7" x="543.25" y="246.49" width="25.09" height="25.09"/><rect class="cls-7" x="518.16" y="246.49" width="25.09" height="25.09"/><rect class="cls-7" x="518.16" y="196.3" width="25.09" height="25.09"/><rect class="cls-7" x="518.16" y="221.39" width="25.09" height="25.09"/><rect class="cls-7" x="593.44" y="196.3" width="25.09" height="25.09"/><rect class="cls-7" x="543.25" y="221.39" width="25.09" height="25.09"/><rect class="cls-7" x="568.35" y="221.39" width="25.09" height="25.09"/><rect class="cls-15" x="518.16" y="24.49" width="100.38" height="146.71"/><rect class="cls-16" x="518.16" y="24.49" width="100.38" height="146.71"/></g></g></svg>