<svg xmlns="http://www.w3.org/2000/svg" xmlns:xlink="http://www.w3.org/1999/xlink" viewBox="0 0 1920 1080"><defs><style>.cls-1,.cls-12,.cls-14,.cls-7{fill:none;}.cls-2{clip-path:url(#clip-path);}.cls-13,.cls-3{fill:#f3f6f9;}.cls-16,.cls-4{fill:#fff;}.cls-10,.cls-11,.cls-12,.cls-13,.cls-14,.cls-15,.cls-16,.cls-4,.cls-5,.cls-7{stroke:#00112c;}.cls-11,.cls-12,.cls-13,.cls-4,.cls-5,.cls-9{stroke-linecap:round;}.cls-10,.cls-11,.cls-12,.cls-13,.cls-14,.cls-16,.cls-4,.cls-5,.cls-8,.cls-9{stroke-linejoin:round;}.cls-10,.cls-11,.cls-12,.cls-13,.cls-14,.cls-15,.cls-16,.cls-4,.cls-5,.cls-7,.cls-8,.cls-9{stroke-width:2.01px;}.cls-5,.cls-9{fill:#0abf53;}.cls-10,.cls-11,.cls-15,.cls-6,.cls-8{fill:#00112c;}.cls-15,.cls-7{stroke-miterlimit:10;}.cls-8{stroke:#fff;}.cls-9{stroke:#0abf53;}</style><clipPath id="clip-path"><rect class="cls-1" width="1920" height="1080"/></clipPath></defs><g id="Layer_1" data-name="Layer 1"><g class="cls-2"><rect class="cls-3" x="-6.59" y="-1.8" width="1932.56" height="1087.07"/><path class="cls-4" d="M835.57,715h345.48a0,0,0,0,1,0,0v0a13.53,13.53,0,0,1-13.53,13.53H849.11A13.53,13.53,0,0,1,835.57,715v0a0,0,0,0,1,0,0Z" transform="translate(286.51 1730.11) rotate(-90)"/><rect class="cls-4" x="798.53" y="535.52" width="203.02" height="460.52" rx="13.53"/><rect class="cls-4" x="812.06" y="806.57" width="43.99" height="43.99"/><rect class="cls-4" x="856.04" y="806.57" width="43.99" height="43.99"/><rect class="cls-4" x="900.03" y="806.57" width="43.99" height="43.99"/><rect class="cls-4" x="944.02" y="806.57" width="43.99" height="43.99"/><rect class="cls-4" x="900.03" y="850.55" width="43.99" height="43.99"/><rect class="cls-4" x="856.04" y="850.55" width="43.99" height="43.99"/><rect class="cls-5" x="944.02" y="894.54" width="43.99" height="87.98"/><rect class="cls-4" x="900.03" y="938.53" width="43.99" height="43.99"/><rect class="cls-4" x="856.04" y="938.53" width="43.99" height="43.99"/><rect class="cls-4" x="812.06" y="938.53" width="43.99" height="43.99"/><rect class="cls-4" x="812.06" y="850.55" width="43.99" height="43.99"/><rect class="cls-4" x="812.06" y="894.54" width="43.99" height="43.99"/><rect class="cls-4" x="944.02" y="850.55" width="43.99" height="43.99"/><rect class="cls-4" x="856.04" y="894.54" width="43.99" height="43.99"/><rect class="cls-4" x="900.03" y="894.54" width="43.99" height="43.99"/><rect class="cls-6" x="812.06" y="549.41" width="175.95" height="257.16"/><rect class="cls-7" x="812.06" y="549.41" width="175.95" height="257.16"/><rect class="cls-8" x="430.95" y="90.63" width="248.22" height="165.48"/><polygon class="cls-8" points="430.95 256.11 555.06 132 679.17 256.11 430.95 256.11"/><polygon class="cls-8" points="679.17 90.63 555.06 214.74 430.95 90.63 679.17 90.63"/><path class="cls-9" d="M352.72,685.31a22.12,22.12,0,0,0,22.12,22.12H589.66a22.12,22.12,0,0,0,22.12-22.12V611.4H352.72Z"/><path class="cls-9" d="M611.78,563.85a22.12,22.12,0,0,0-22.12-22.12H374.84a22.13,22.13,0,0,0-22.12,22.12v18.54H611.78Z"/><rect class="cls-10" x="352.72" y="582.39" width="259.06" height="29.02"/><rect class="cls-4" x="1575.3" y="451.94" width="57.89" height="301.57" transform="translate(1001.52 2206.97) rotate(-90)"/><path class="cls-9" d="M1453.46,573.78v57.89H1428A29,29,0,0,1,1399,602.72h0A28.94,28.94,0,0,1,1428,573.78Z"/><polygon class="cls-11" points="1805.17 602.72 1755.04 573.78 1755.04 631.67 1805.17 602.72"/><line class="cls-4" x1="1480.68" y1="631.67" x2="1480.68" y2="573.78"/><line class="cls-12" x1="1480.68" y1="602.72" x2="1755.03" y2="602.72"/><polyline class="cls-12" points="1233.38 1086.11 1233.38 756.14 1925.97 756.14"/><line class="cls-12" x1="1233.37" y1="823.65" x2="1925.97" y2="823.65"/><circle class="cls-11" cx="1276.31" cy="789.89" r="15.68"/><circle class="cls-4" cx="1331.8" cy="789.89" r="15.68"/><circle class="cls-5" cx="1387.28" cy="789.89" r="15.68"/><polygon class="cls-11" points="1539.74 933.26 1551.15 1031.77 1576.14 994.02 1621.22 989.8 1539.74 933.26"/><rect class="cls-10" x="1365.51" y="31.82" width="473.18" height="406.13" transform="translate(1367.21 1836.99) rotate(-90)"/><polyline class="cls-4" points="1759.15 -2.65 1759.15 441.28 1481.7 441.28 1445.05 407.45 1445.05 -2.65"/><polygon class="cls-13" points="1481.7 407.45 1481.7 441.28 1445.05 407.45 1481.7 407.45"/><circle class="cls-13" cx="1602.1" cy="487.06" r="32.68"/><rect class="cls-13" x="1571.41" y="387.75" width="61.37" height="137.25" transform="translate(1145.72 2058.47) rotate(-90)"/><line class="cls-12" x1="1502.2" y1="346.88" x2="1702" y2="346.88"/><line class="cls-12" x1="1502.2" y1="278.22" x2="1702" y2="278.22"/><line class="cls-12" x1="1502.2" y1="209.56" x2="1702" y2="209.56"/><line class="cls-12" x1="1502.2" y1="140.9" x2="1702" y2="140.9"/><line class="cls-12" x1="1502.2" y1="72.25" x2="1702" y2="72.25"/><line class="cls-14" x1="228.61" y1="438.64" x2="228.61" y2="1086.63"/><circle class="cls-4" cx="228.61" cy="609.05" r="11.71"/><circle class="cls-4" cx="228.61" cy="817.07" r="11.71"/><circle class="cls-4" cx="228.61" cy="1025.09" r="11.71"/><line class="cls-14" x1="1098.31" y1="429.12" x2="1098.31" y2="1087.18"/><circle class="cls-4" cx="1098.31" cy="599.53" r="11.71"/><circle class="cls-4" cx="1098.31" cy="807.55" r="11.71"/><circle class="cls-4" cx="1098.31" cy="1015.57" r="11.71"/><path class="cls-12" d="M555.06,256.11V370.74a47.55,47.55,0,0,0,47.55,47.56h59a47.56,47.56,0,0,1,47.56,47.56V894.54"/><rect class="cls-13" x="675.51" y="962.62" width="13.54" height="33.43"/><rect class="cls-13" x="728.81" y="962.62" width="13.54" height="33.43"/><path class="cls-4" d="M1095.87,163.5V380h61a108.24,108.24,0,0,0,108.23-108.24h0A108.23,108.23,0,0,0,1156.91,163.5Zm61,176.3H1136V203.66h20.88A68.08,68.08,0,0,1,1225,271.73h0A68.07,68.07,0,0,1,1156.91,339.8Z"/><path class="cls-4" d="M932.09,111.86V415.19c0,9.07,51.84,16.42,115.8,16.42s115.81-7.35,115.81-16.42V111.86Z"/><ellipse class="cls-5" cx="1047.89" cy="111.86" rx="115.8" ry="16.41"/><rect class="cls-15" x="1006.2" y="107.62" width="83.38" height="5.41"/><path class="cls-13" d="M696.25,894.54H722a32.36,32.36,0,0,1,32.36,32.36v35.72a0,0,0,0,1,0,0H663.89a0,0,0,0,1,0,0V926.9A32.36,32.36,0,0,1,696.25,894.54Z"/><rect class="cls-16" x="104.5" y="273.16" width="248.22" height="165.48"/><polygon class="cls-16" points="104.5 438.64 228.62 314.53 352.73 438.64 104.5 438.64"/><polygon class="cls-16" points="352.73 273.16 228.62 397.27 104.5 273.16 352.73 273.16"/><line class="cls-16" x1="482.25" y1="707.43" x2="482.25" y2="1085.27"/><path class="cls-4" d="M352.72,922a22.12,22.12,0,0,0,22.12,22.11H589.66A22.11,22.11,0,0,0,611.78,922V848.07H352.72Z"/><path class="cls-4" d="M611.78,800.51a22.11,22.11,0,0,0-22.12-22.11H374.84a22.12,22.12,0,0,0-22.12,22.11v18.54H611.78Z"/><rect class="cls-10" x="352.72" y="819.05" width="259.06" height="29.02"/><path class="cls-14" d="M1399,345.87h-38.75A44.16,44.16,0,0,0,1316.12,390V552.17A44.16,44.16,0,0,1,1272,596.33h-62.39a44.17,44.17,0,0,0-44.17,44.17v443.76"/><line class="cls-14" x1="900.03" y1="996.05" x2="900.03" y2="1085.27"/></g></g></svg>