<svg id="Layer_1" data-name="Layer 1" xmlns="http://www.w3.org/2000/svg" xmlns:xlink="http://www.w3.org/1999/xlink" viewBox="0 0 581 600"><defs><style>.cls-1,.cls-11,.cls-14,.cls-7{fill:none;}.cls-2{clip-path:url(#clip-path);}.cls-12,.cls-3{fill:#f3f6f9;}.cls-13,.cls-4{fill:#fff;}.cls-10,.cls-11,.cls-12,.cls-13,.cls-14,.cls-4,.cls-5,.cls-7{stroke:#00112c;}.cls-11,.cls-12,.cls-4,.cls-5,.cls-9{stroke-linecap:round;}.cls-10,.cls-11,.cls-12,.cls-13,.cls-14,.cls-4,.cls-5,.cls-8,.cls-9{stroke-linejoin:round;}.cls-10,.cls-11,.cls-12,.cls-13,.cls-14,.cls-4,.cls-5,.cls-7,.cls-8,.cls-9{stroke-width:1.42px;}.cls-5,.cls-9{fill:#0abf53;}.cls-10,.cls-6,.cls-8{fill:#00112c;}.cls-7{stroke-miterlimit:10;}.cls-8{stroke:#fff;}.cls-9{stroke:#0abf53;}</style><clipPath id="clip-path"><rect class="cls-1" width="581" height="600"/></clipPath></defs><g class="cls-2"><rect class="cls-3" x="-38.77" y="-28.11" width="761.5" height="673.38"/><path class="cls-4" d="M406.74,164.69H651a0,0,0,0,1,0,0v0a9.57,9.57,0,0,1-9.57,9.57H416.31a9.57,9.57,0,0,1-9.57-9.57v0a0,0,0,0,1,0,0Z" transform="translate(359.4 698.34) rotate(-90)"/><rect class="cls-4" x="380.55" y="37.77" width="143.54" height="325.6" rx="9.57"/><rect class="cls-4" x="390.11" y="229.4" width="31.1" height="31.1"/><rect class="cls-4" x="421.21" y="229.4" width="31.1" height="31.1"/><rect class="cls-4" x="452.31" y="229.4" width="31.1" height="31.1"/><rect class="cls-4" x="483.41" y="229.4" width="31.1" height="31.1"/><rect class="cls-4" x="452.31" y="260.5" width="31.1" height="31.1"/><rect class="cls-4" x="421.21" y="260.5" width="31.1" height="31.1"/><rect class="cls-5" x="483.41" y="291.6" width="31.1" height="62.2"/><rect class="cls-4" x="452.31" y="322.7" width="31.1" height="31.1"/><rect class="cls-4" x="421.21" y="322.7" width="31.1" height="31.1"/><rect class="cls-4" x="390.11" y="322.7" width="31.1" height="31.1"/><rect class="cls-4" x="390.11" y="260.5" width="31.1" height="31.1"/><rect class="cls-4" x="390.11" y="291.6" width="31.1" height="31.1"/><rect class="cls-4" x="483.41" y="260.5" width="31.1" height="31.1"/><rect class="cls-4" x="421.21" y="291.6" width="31.1" height="31.1"/><rect class="cls-4" x="452.31" y="291.6" width="31.1" height="31.1"/><rect class="cls-6" x="390.11" y="47.59" width="124.4" height="181.81"/><rect class="cls-7" x="390.11" y="47.59" width="124.4" height="181.81"/><rect class="cls-8" x="202.75" y="416.09" width="175.49" height="117"/><polygon class="cls-8" points="202.75 533.09 290.5 445.34 378.25 533.09 202.75 533.09"/><polygon class="cls-8" points="378.25 416.09 290.5 503.84 202.75 416.09 378.25 416.09"/><path class="cls-9" d="M28.51,175.44a15.63,15.63,0,0,0,15.63,15.64H196a15.63,15.63,0,0,0,15.63-15.64V123.19H28.51Z"/><path class="cls-9" d="M211.66,89.57A15.63,15.63,0,0,0,196,73.93H44.14A15.63,15.63,0,0,0,28.51,89.57v13.11H211.66Z"/><rect class="cls-10" x="28.51" y="102.68" width="183.16" height="20.51"/><path class="cls-11" d="M180-155.18v81c0,18.58,15.05-8.08,33.62-8.08h41.69c18.57,0,33.62,7.37,33.62,25.94V296.2"/><rect class="cls-12" x="265.16" y="344.33" width="9.57" height="23.64"/><rect class="cls-12" x="302.84" y="344.33" width="9.57" height="23.64"/><path class="cls-12" d="M279.82,296.2H298a22.88,22.88,0,0,1,22.88,22.88v25.25a0,0,0,0,1,0,0h-64a0,0,0,0,1,0,0V319.08A22.88,22.88,0,0,1,279.82,296.2Z"/><line class="cls-13" x1="120.09" y1="191.08" x2="120.09" y2="602.57"/><path class="cls-4" d="M28.51,342.77A15.63,15.63,0,0,0,44.14,358.4H196a15.63,15.63,0,0,0,15.63-15.63V290.51H28.51Z"/><path class="cls-4" d="M211.66,256.89A15.63,15.63,0,0,0,196,241.26H44.14a15.63,15.63,0,0,0-15.63,15.63V270H211.66Z"/><rect class="cls-10" x="28.51" y="270" width="183.16" height="20.51"/><line class="cls-14" x1="452.31" y1="363.37" x2="452.31" y2="663.74"/></g></svg>