<svg xmlns="http://www.w3.org/2000/svg" xmlns:xlink="http://www.w3.org/1999/xlink" viewBox="0 0 503 300"><defs><style>.cls-1,.cls-10,.cls-11,.cls-7{fill:none;}.cls-2{clip-path:url(#clip-path);}.cls-12,.cls-3{fill:#f3f6f9;}.cls-13,.cls-4{fill:#fff;}.cls-10,.cls-11,.cls-12,.cls-13,.cls-4,.cls-5,.cls-7,.cls-9{stroke:#00112c;}.cls-11,.cls-12,.cls-4,.cls-5,.cls-8{stroke-linecap:round;}.cls-10,.cls-11,.cls-12,.cls-13,.cls-4,.cls-5,.cls-8,.cls-9{stroke-linejoin:round;}.cls-10,.cls-11,.cls-12,.cls-13,.cls-4,.cls-5,.cls-7,.cls-8,.cls-9{stroke-width:0.88px;}.cls-5,.cls-8{fill:#0abf53;}.cls-6,.cls-9{fill:#00112c;}.cls-7{stroke-miterlimit:10;}.cls-8{stroke:#0abf53;}</style><clipPath id="clip-path"><rect class="cls-1" width="503" height="300"/></clipPath></defs><g id="Layer_1" data-name="Layer 1"><g class="cls-2"><rect class="cls-3" x="-26.13" y="-158.05" width="637.64" height="474.69"/><path class="cls-4" d="M385.94,110H536.81a0,0,0,0,1,0,0v0a5.91,5.91,0,0,1-5.91,5.91h-139a5.91,5.91,0,0,1-5.91-5.91v0A0,0,0,0,1,385.94,110Z" transform="translate(348.41 574.33) rotate(-90)"/><rect class="cls-4" x="369.77" y="31.62" width="88.65" height="201.1" rx="5.91"/><rect class="cls-4" x="375.67" y="149.98" width="19.21" height="19.21"/><rect class="cls-4" x="394.88" y="149.98" width="19.21" height="19.21"/><rect class="cls-4" x="414.09" y="149.98" width="19.21" height="19.21"/><rect class="cls-4" x="433.3" y="149.98" width="19.21" height="19.21"/><rect class="cls-4" x="414.09" y="169.18" width="19.21" height="19.21"/><rect class="cls-4" x="394.88" y="169.18" width="19.21" height="19.21"/><rect class="cls-5" x="433.3" y="188.39" width="19.21" height="38.42"/><rect class="cls-4" x="414.09" y="207.6" width="19.21" height="19.21"/><rect class="cls-4" x="394.88" y="207.6" width="19.21" height="19.21"/><rect class="cls-4" x="375.67" y="207.6" width="19.21" height="19.21"/><rect class="cls-4" x="375.67" y="169.18" width="19.21" height="19.21"/><rect class="cls-4" x="375.67" y="188.39" width="19.21" height="19.21"/><rect class="cls-4" x="433.3" y="169.18" width="19.21" height="19.21"/><rect class="cls-4" x="394.88" y="188.39" width="19.21" height="19.21"/><rect class="cls-4" x="414.09" y="188.39" width="19.21" height="19.21"/><rect class="cls-6" x="375.67" y="37.68" width="76.83" height="112.29"/><rect class="cls-7" x="375.67" y="37.68" width="76.83" height="112.29"/><path class="cls-8" d="M164.69,142a9.66,9.66,0,0,0,9.66,9.66h93.8a9.66,9.66,0,0,0,9.66-9.66V109.72H164.69Z"/><path class="cls-8" d="M277.81,89a9.66,9.66,0,0,0-9.66-9.66h-93.8A9.66,9.66,0,0,0,164.69,89v8.1H277.81Z"/><rect class="cls-9" x="164.69" y="97.05" width="113.12" height="12.67"/><line class="cls-10" x1="76.58" y1="108.48" x2="76.58" y2="391.44"/><circle class="cls-4" cx="76.58" cy="182.89" r="5.11"/><circle class="cls-4" cx="76.58" cy="273.73" r="5.11"/><path class="cls-11" d="M258.25-50.5V-.44A20.77,20.77,0,0,0,279,20.33h25.75a20.77,20.77,0,0,1,20.77,20.76v187.2"/><rect class="cls-12" x="310.85" y="258.01" width="5.91" height="14.6"/><rect class="cls-12" x="334.13" y="258.01" width="5.91" height="14.6"/><path class="cls-12" d="M319.91,228.29h11.26a14.13,14.13,0,0,1,14.13,14.13V258a0,0,0,0,1,0,0H305.78a0,0,0,0,1,0,0v-15.6A14.13,14.13,0,0,1,319.91,228.29Z"/><rect class="cls-13" x="22.38" y="36.22" width="108.39" height="72.26"/><polygon class="cls-13" points="22.38 108.48 76.58 54.28 130.77 108.48 22.38 108.48"/><polygon class="cls-13" points="130.77 36.22 76.58 90.41 22.38 36.22 130.77 36.22"/><line class="cls-13" x1="221.25" y1="151.65" x2="221.25" y2="316.64"/><path class="cls-4" d="M164.69,245.33a9.65,9.65,0,0,0,9.66,9.66h93.8a9.65,9.65,0,0,0,9.66-9.66V213.06H164.69Z"/><path class="cls-4" d="M277.81,192.29a9.65,9.65,0,0,0-9.66-9.65h-93.8a9.65,9.65,0,0,0-9.66,9.65v8.1H277.81Z"/><rect class="cls-9" x="164.69" y="200.39" width="113.12" height="12.67"/><line class="cls-10" x1="414.09" y1="232.72" x2="414.09" y2="335.38"/></g></g></svg>