<svg xmlns="http://www.w3.org/2000/svg" xmlns:xlink="http://www.w3.org/1999/xlink" viewBox="0 0 743 300"><defs><style>.cls-1,.cls-11,.cls-16,.cls-7{fill:none;}.cls-2{clip-path:url(#clip-path);}.cls-14,.cls-3{fill:#f3f6f9;}.cls-12,.cls-15,.cls-4,.cls-6,.cls-8{fill:#00112c;}.cls-4{stroke:#fff;}.cls-10,.cls-11,.cls-13,.cls-14,.cls-4,.cls-5,.cls-6,.cls-7,.cls-8,.cls-9{stroke-linejoin:round;}.cls-10,.cls-11,.cls-12,.cls-13,.cls-14,.cls-16,.cls-4,.cls-5,.cls-6,.cls-7,.cls-8,.cls-9{stroke-width:0.75px;}.cls-10,.cls-5{fill:#0abf53;}.cls-5{stroke:#0abf53;}.cls-10,.cls-14,.cls-5,.cls-7,.cls-8,.cls-9{stroke-linecap:round;}.cls-10,.cls-11,.cls-12,.cls-13,.cls-14,.cls-16,.cls-6,.cls-7,.cls-8,.cls-9{stroke:#00112c;}.cls-13,.cls-9{fill:#fff;}.cls-12,.cls-16{stroke-miterlimit:10;}</style><clipPath id="clip-path"><rect class="cls-1" width="743" height="300"/></clipPath></defs><g id="Layer_1" data-name="Layer 1"><g class="cls-2"><rect class="cls-3" x="-13.37" y="-103.46" width="768.7" height="432.4"/><rect class="cls-4" x="503.26" y="-15.64" width="92.99" height="61.99" transform="translate(565.11 -534.41) rotate(90)"/><polygon class="cls-4" points="518.76 -31.14 565.26 15.35 518.76 61.85 518.76 -31.14"/><polygon class="cls-4" points="580.75 61.85 534.26 15.35 580.75 -31.14 580.75 61.85"/><path class="cls-5" d="M141.67,121.74A8.29,8.29,0,0,0,150,130h80.48a8.29,8.29,0,0,0,8.29-8.28V94.05H141.67Z"/><path class="cls-5" d="M238.73,76.23A8.29,8.29,0,0,0,230.44,68H150a8.29,8.29,0,0,0-8.29,8.28v7h97.06Z"/><rect class="cls-6" x="141.67" y="83.18" width="97.05" height="10.87"/><polyline class="cls-7" points="601.48 312.16 601.48 188.54 860.94 188.54"/><line class="cls-7" x1="601.48" y1="213.83" x2="860.94" y2="213.83"/><circle class="cls-8" cx="617.56" cy="201.18" r="5.87"/><circle class="cls-9" cx="638.35" cy="201.18" r="5.87"/><circle class="cls-10" cx="659.14" cy="201.18" r="5.87"/><polygon class="cls-8" points="665.01 240.13 669.28 277.04 678.64 262.9 695.53 261.31 665.01 240.13"/><line class="cls-11" x1="57.54" y1="92.84" x2="57.54" y2="335.6"/><circle class="cls-9" cx="57.54" cy="156.68" r="4.39"/><circle class="cls-9" cx="57.54" cy="234.61" r="4.39"/><line class="cls-11" x1="433.77" y1="149.35" x2="433.77" y2="395.88"/><circle class="cls-9" cx="433.77" cy="213.19" r="4.39"/><circle class="cls-9" cx="433.77" cy="291.12" r="4.39"/><path class="cls-9" d="M432.86,49.84v81.09h22.86a40.54,40.54,0,0,0,40.55-40.54h0a40.54,40.54,0,0,0-40.55-40.55Zm22.86,66.05H447.9v-51h7.82a25.49,25.49,0,0,1,25.5,25.5h0A25.5,25.5,0,0,1,455.72,115.89Z"/><path class="cls-9" d="M371.5,30.49V144.13c0,3.4,19.42,6.15,43.38,6.15s43.39-2.75,43.39-6.15V30.49Z"/><ellipse class="cls-10" cx="414.88" cy="30.49" rx="43.38" ry="6.15"/><rect class="cls-12" x="399.27" y="28.9" width="31.24" height="2.03"/><rect class="cls-13" x="11.04" y="30.85" width="92.99" height="61.99"/><polygon class="cls-13" points="11.04 92.84 57.54 46.35 104.03 92.84 11.04 92.84"/><polygon class="cls-13" points="104.03 30.85 57.54 77.34 11.04 30.85 104.03 30.85"/><line class="cls-13" x1="190.2" y1="130.02" x2="190.2" y2="314.98"/><path class="cls-9" d="M141.67,210.4a8.29,8.29,0,0,0,8.29,8.28h80.48a8.29,8.29,0,0,0,8.29-8.28V182.71H141.67Z"/><path class="cls-9" d="M238.73,164.89a8.29,8.29,0,0,0-8.29-8.28H150a8.29,8.29,0,0,0-8.29,8.28v7h97.06Z"/><rect class="cls-6" x="141.67" y="171.84" width="97.05" height="10.87"/><rect class="cls-6" x="609.22" y="-37.94" width="177.27" height="152.15" transform="translate(659.72 735.99) rotate(-90)"/><polyline class="cls-9" points="756.69 -50.85 756.69 115.45 652.75 115.45 639.02 102.78 639.02 -50.85"/><polygon class="cls-14" points="652.75 102.78 652.75 115.45 639.02 102.78 652.75 102.78"/><circle class="cls-14" cx="697.86" cy="132.61" r="12.24"/><rect class="cls-14" x="686.36" y="95.4" width="22.99" height="51.42" transform="translate(576.75 818.97) rotate(-90)"/><line class="cls-7" x1="660.43" y1="80.09" x2="735.28" y2="80.09"/><line class="cls-7" x1="660.43" y1="54.37" x2="735.28" y2="54.37"/><line class="cls-7" x1="660.43" y1="28.65" x2="735.28" y2="28.65"/><line class="cls-7" x1="660.43" y1="2.92" x2="735.28" y2="2.92"/><path class="cls-11" d="M621.78,79.71H607.27a16.55,16.55,0,0,0-16.55,16.54V157a16.55,16.55,0,0,1-16.54,16.54H550.8a16.55,16.55,0,0,0-16.54,16.55V356.33"/><line class="cls-11" x1="304.72" y1="-26.76" x2="304.72" y2="120.48"/><path class="cls-9" d="M280.57,166.62H410a0,0,0,0,1,0,0v0a5.07,5.07,0,0,1-5.07,5.07H285.64a5.07,5.07,0,0,1-5.07-5.07v0a0,0,0,0,1,0,0Z" transform="translate(176.13 514.43) rotate(-90)"/><rect class="cls-9" x="266.69" y="99.37" width="76.06" height="172.53" rx="5.07"/><rect class="cls-9" x="271.76" y="200.91" width="16.48" height="16.48"/><rect class="cls-9" x="288.24" y="200.91" width="16.48" height="16.48"/><rect class="cls-9" x="304.72" y="200.91" width="16.48" height="16.48"/><rect class="cls-9" x="321.19" y="200.91" width="16.48" height="16.48"/><rect class="cls-9" x="304.72" y="217.39" width="16.48" height="16.48"/><rect class="cls-9" x="288.24" y="217.39" width="16.48" height="16.48"/><rect class="cls-10" x="321.19" y="233.87" width="16.48" height="32.96"/><rect class="cls-9" x="304.72" y="250.35" width="16.48" height="16.48"/><rect class="cls-9" x="288.24" y="250.35" width="16.48" height="16.48"/><rect class="cls-9" x="271.76" y="250.35" width="16.48" height="16.48"/><rect class="cls-9" x="271.76" y="217.39" width="16.48" height="16.48"/><rect class="cls-9" x="271.76" y="233.87" width="16.48" height="16.48"/><rect class="cls-9" x="321.19" y="217.39" width="16.48" height="16.48"/><rect class="cls-9" x="288.24" y="233.87" width="16.48" height="16.48"/><rect class="cls-9" x="304.72" y="233.87" width="16.48" height="16.48"/><rect class="cls-15" x="271.76" y="104.57" width="65.92" height="96.34"/><rect class="cls-16" x="271.76" y="104.57" width="65.92" height="96.34"/></g></g></svg>