<svg xmlns="http://www.w3.org/2000/svg" xmlns:xlink="http://www.w3.org/1999/xlink" viewBox="0 0 983 300"><defs><style>.cls-1,.cls-11,.cls-16,.cls-9{fill:none;}.cls-2{clip-path:url(#clip-path);}.cls-14,.cls-3{fill:#f3f6f9;}.cls-12,.cls-15,.cls-4,.cls-6,.cls-8{fill:#00112c;}.cls-4{stroke:#fff;}.cls-10,.cls-11,.cls-13,.cls-14,.cls-4,.cls-5,.cls-6,.cls-7,.cls-8,.cls-9{stroke-linejoin:round;}.cls-10,.cls-11,.cls-12,.cls-13,.cls-14,.cls-16,.cls-4,.cls-5,.cls-6,.cls-7,.cls-8,.cls-9{stroke-width:0.75px;}.cls-10,.cls-5{fill:#0abf53;}.cls-5{stroke:#0abf53;}.cls-10,.cls-14,.cls-5,.cls-7,.cls-8,.cls-9{stroke-linecap:round;}.cls-10,.cls-11,.cls-12,.cls-13,.cls-14,.cls-16,.cls-6,.cls-7,.cls-8,.cls-9{stroke:#00112c;}.cls-13,.cls-7{fill:#fff;}.cls-12,.cls-16{stroke-miterlimit:10;}</style><clipPath id="clip-path"><rect class="cls-1" width="983" height="300"/></clipPath></defs><g id="Layer_1" data-name="Layer 1"><g class="cls-2"><rect class="cls-3" x="-7.28" y="-174.88" width="996.25" height="560.39"/><rect class="cls-4" x="582.85" y="45.95" width="92.99" height="61.99" transform="translate(706.29 -552.4) rotate(90)"/><polygon class="cls-4" points="598.35 30.45 644.85 76.95 598.35 123.44 598.35 30.45"/><polygon class="cls-4" points="660.34 123.44 613.85 76.95 660.34 30.45 660.34 123.44"/><path class="cls-5" d="M147.77,136a8.29,8.29,0,0,0,8.29,8.28h80.48a8.28,8.28,0,0,0,8.28-8.28V108.34h-97Z"/><path class="cls-5" d="M244.82,90.52a8.28,8.28,0,0,0-8.28-8.28H156.06a8.29,8.29,0,0,0-8.29,8.28v7h97Z"/><rect class="cls-6" x="147.77" y="97.47" width="97.05" height="10.87"/><rect class="cls-7" x="910.75" y="29.92" width="21.69" height="112.98" transform="translate(1707.25 575.85) rotate(-153.44)"/><path class="cls-5" d="M886.63,132.09l19.4,9.7-4.27,8.54a10.85,10.85,0,0,1-14.55,4.85h0a10.84,10.84,0,0,1-4.85-14.55Z"/><polygon class="cls-8" points="955.25 19.09 937.16 31.04 956.55 40.74 955.25 19.09"/><line class="cls-7" x1="910.59" y1="132.67" x2="891.19" y2="122.97"/><line class="cls-9" x1="900.89" y1="127.82" x2="946.85" y2="35.89"/><polyline class="cls-9" points="727.1 305.69 727.1 182.07 986.57 182.07"/><line class="cls-9" x1="727.1" y1="207.36" x2="986.57" y2="207.36"/><circle class="cls-8" cx="743.18" cy="194.72" r="5.87"/><circle class="cls-7" cx="763.97" cy="194.72" r="5.87"/><circle class="cls-10" cx="784.76" cy="194.72" r="5.87"/><polygon class="cls-8" points="826.61 226.28 830.88 263.18 840.25 249.04 857.13 247.46 826.61 226.28"/><line class="cls-11" x1="63.64" y1="93.67" x2="63.64" y2="336.43"/><circle class="cls-7" cx="63.64" cy="157.51" r="4.39"/><circle class="cls-7" cx="63.64" cy="235.44" r="4.39"/><line class="cls-11" x1="512.6" y1="183.12" x2="512.6" y2="429.65"/><circle class="cls-7" cx="512.6" cy="246.96" r="4.39"/><path class="cls-7" d="M511.69,83.61V164.7h22.86a40.54,40.54,0,0,0,40.55-40.54h0a40.54,40.54,0,0,0-40.55-40.55Zm22.86,66.05h-7.82v-51h7.82a25.5,25.5,0,0,1,25.51,25.5h0A25.51,25.51,0,0,1,534.55,149.66Z"/><path class="cls-7" d="M450.33,64.26V177.9c0,3.4,19.42,6.15,43.38,6.15s43.39-2.75,43.39-6.15V64.26Z"/><ellipse class="cls-10" cx="493.71" cy="64.26" rx="43.38" ry="6.15"/><rect class="cls-12" x="478.1" y="62.67" width="31.24" height="2.03"/><rect class="cls-13" x="17.14" y="31.67" width="92.99" height="61.99"/><polygon class="cls-13" points="17.14 93.67 63.64 47.17 110.13 93.67 17.14 93.67"/><polygon class="cls-13" points="110.13 31.68 63.64 78.17 17.14 31.68 110.13 31.68"/><line class="cls-13" x1="196.3" y1="144.31" x2="196.3" y2="329.27"/><path class="cls-7" d="M147.77,224.69a8.29,8.29,0,0,0,8.29,8.28h80.48a8.28,8.28,0,0,0,8.28-8.28V197h-97Z"/><path class="cls-7" d="M244.82,179.19a8.29,8.29,0,0,0-8.28-8.29H156.06a8.29,8.29,0,0,0-8.29,8.29v6.94h97Z"/><rect class="cls-6" x="147.77" y="186.13" width="97.05" height="10.87"/><rect class="cls-6" x="698.5" y="-24.04" width="177.27" height="152.15" transform="translate(735.1 839.17) rotate(-90)"/><polyline class="cls-7" points="845.97 -36.95 845.97 129.35 742.03 129.35 728.3 116.68 728.3 -36.95"/><polygon class="cls-14" points="742.03 116.68 742.03 129.35 728.3 116.68 742.03 116.68"/><circle class="cls-14" cx="787.14" cy="146.51" r="12.24"/><rect class="cls-14" x="775.64" y="109.3" width="22.99" height="51.42" transform="translate(652.12 922.15) rotate(-90)"/><line class="cls-9" x1="749.71" y1="93.99" x2="824.56" y2="93.99"/><line class="cls-9" x1="749.71" y1="68.27" x2="824.56" y2="68.27"/><line class="cls-9" x1="749.71" y1="42.55" x2="824.56" y2="42.55"/><line class="cls-9" x1="749.71" y1="16.83" x2="824.56" y2="16.83"/><path class="cls-11" d="M711.06,93.61H696.54A16.55,16.55,0,0,0,680,110.16V170.9a16.54,16.54,0,0,1-16.55,16.54H640.08A16.54,16.54,0,0,0,623.54,204V370.23"/><line class="cls-11" x1="370.39" y1="-21.19" x2="370.39" y2="87.13"/><path class="cls-7" d="M346.25,133.27H475.67a0,0,0,0,1,0,0v0a5.07,5.07,0,0,1-5.07,5.07H351.32a5.07,5.07,0,0,1-5.07-5.07v0A0,0,0,0,1,346.25,133.27Z" transform="translate(275.16 546.76) rotate(-90)"/><rect class="cls-7" x="332.37" y="66.02" width="76.06" height="172.53" rx="5.07"/><rect class="cls-7" x="337.44" y="167.56" width="16.48" height="16.48"/><rect class="cls-7" x="353.92" y="167.56" width="16.48" height="16.48"/><rect class="cls-7" x="370.39" y="167.56" width="16.48" height="16.48"/><rect class="cls-7" x="386.87" y="167.56" width="16.48" height="16.48"/><rect class="cls-7" x="370.39" y="184.04" width="16.48" height="16.48"/><rect class="cls-7" x="353.92" y="184.04" width="16.48" height="16.48"/><rect class="cls-10" x="386.87" y="200.52" width="16.48" height="32.96"/><rect class="cls-7" x="370.39" y="217" width="16.48" height="16.48"/><rect class="cls-7" x="353.92" y="217" width="16.48" height="16.48"/><rect class="cls-7" x="337.44" y="217" width="16.48" height="16.48"/><rect class="cls-7" x="337.44" y="184.04" width="16.48" height="16.48"/><rect class="cls-7" x="337.44" y="200.52" width="16.48" height="16.48"/><rect class="cls-7" x="386.87" y="184.04" width="16.48" height="16.48"/><rect class="cls-7" x="353.92" y="200.52" width="16.48" height="16.48"/><rect class="cls-7" x="370.39" y="200.52" width="16.48" height="16.48"/><rect class="cls-15" x="337.44" y="71.22" width="65.92" height="96.34"/><rect class="cls-16" x="337.44" y="71.22" width="65.92" height="96.34"/><path class="cls-11" d="M217.51-19.14V28A19.54,19.54,0,0,0,237.05,47.5h24.22a19.54,19.54,0,0,1,19.54,19.55V243.18"/><rect class="cls-11" x="267" y="271.15" width="5.56" height="13.74"/><rect class="cls-11" x="288.9" y="271.15" width="5.56" height="13.74"/><path class="cls-11" d="M275.52,243.18h10.59a13.3,13.3,0,0,1,13.3,13.3v14.67a0,0,0,0,1,0,0H262.22a0,0,0,0,1,0,0V256.48A13.3,13.3,0,0,1,275.52,243.18Z"/></g></g></svg>