<svg xmlns="http://www.w3.org/2000/svg" xmlns:xlink="http://www.w3.org/1999/xlink" viewBox="0 0 1188 300"><defs><style>.cls-1,.cls-10,.cls-5{fill:none;}.cls-2,.cls-8{fill:#00112c;}.cls-10,.cls-11,.cls-2,.cls-6,.cls-7{stroke:#00112c;}.cls-10,.cls-11,.cls-12,.cls-2,.cls-5,.cls-6,.cls-7{stroke-linecap:round;stroke-linejoin:round;stroke-width:1.08px;}.cls-3{clip-path:url(#clip-path);}.cls-11,.cls-4{fill:#0abf53;}.cls-12,.cls-5{stroke:#fff;}.cls-12,.cls-6{fill:#fff;}.cls-7{fill:#00af60;}.cls-9{clip-path:url(#clip-path-2);}</style><clipPath id="clip-path"><rect class="cls-1" width="1188" height="300"/></clipPath><clipPath id="clip-path-2"><path class="cls-2" d="M556.39,85V43.6a41.41,41.41,0,0,0,0,82.81H597.8Z"/></clipPath></defs><g id="Layer_1" data-name="Layer 1"><g class="cls-3"><rect class="cls-4" x="-98.05" y="-63.32" width="1400.49" height="368.07"/><path class="cls-2" d="M302.7,79.73l112,291.21s-125.21,36.61-166.64-71.12S308.57,160.37,302.7,79.73Z"/><path class="cls-2" d="M302.7,79.73l112,291.21s117.47-56.72,76-164.45S352.37,143.52,302.7,79.73Z"/><line class="cls-5" x1="279.47" y1="266.68" x2="394.36" y2="317.74"/><line class="cls-5" x1="292.32" y1="195.83" x2="358.77" y2="225.37"/><line class="cls-5" x1="392.31" y1="217.69" x2="372.98" y2="261.7"/><path class="cls-2" d="M669.62,412.74,728,31.39s-42.21,22.74-53.34,72.8l22.75,16.09-23.4-11.83L661.2,192.3l22.53,17.52-29.86-14.34s-6.74,88.73-9.94,109.57l-3.55,23.21,22.23,19.41L639.36,334.9S635.15,362.37,669.62,412.74Z"/><path class="cls-2" d="M669.62,412.74,728,31.39s29.27,22.74,27.71,93.89l-27.21,10.43,26.56-5.63L738.26,240l-26.74,10,32.8-4.64s-10.35,49-13.54,69.86-9,32.35-9,32.35S701.85,395.38,669.62,412.74Z"/><path class="cls-6" d="M628.63,265.28l3.26-11.89a114.77,114.77,0,0,0,2.17-34.23l-45.5-1.38,43-14.62a117.26,117.26,0,0,0-23.46-47.75l-36.36,7.36,27.32-17.33L549.58,95.88,510.27,152.4a112.11,112.11,0,0,0-10.17,17.92l-4.65,12.2a110.93,110.93,0,0,0-5.08,30.14l47.16,7.75-46.42,9.11a119.09,119.09,0,0,0,17.34,49l24.21-7-16.49,17.88a119.26,119.26,0,0,0,57,39.44h0A109.31,109.31,0,0,0,628.63,265.28Z"/><line class="cls-7" x1="549.25" y1="96.54" x2="579.87" y2="389.04"/><path class="cls-2" d="M447.84,186.9s-36-47-46.5-31.5S447.84,186.9,447.84,186.9Z"/><path class="cls-2" d="M442.61,159.68s-36-47-46.5-31.51S442.61,159.68,442.61,159.68Z"/><path class="cls-2" d="M437.38,132.45s-36-47-46.5-31.5S437.38,132.45,437.38,132.45Z"/><path class="cls-2" d="M432.15,105.23s-36-47-46.5-31.51S432.15,105.23,432.15,105.23Z"/><path class="cls-2" d="M426.91,78s-36-47-46.49-31.51S426.91,78,426.91,78Z"/><path class="cls-2" d="M447.77,186.92s16-57,31.5-46.5S447.77,186.92,447.77,186.92Z"/><path class="cls-2" d="M442.53,159.69s16-57,31.51-46.49S442.53,159.69,442.53,159.69Z"/><path class="cls-2" d="M437.3,132.47s16-57,31.51-46.5S437.3,132.47,437.3,132.47Z"/><path class="cls-2" d="M432.07,105.24s16-57,31.51-46.49S432.07,105.24,432.07,105.24Z"/><path class="cls-2" d="M426.84,78s16-57,31.51-46.5S426.84,78,426.84,78Z"/><line class="cls-2" x1="421.89" y1="52.15" x2="458.31" y2="241.66"/><path class="cls-2" d="M424.3,64.52s-29-51.62-10.6-55.16S424.3,64.52,424.3,64.52Z"/><path class="cls-2" d="M804,239.48s3.71-77.53-19.92-70.89S804,239.48,804,239.48Z"/><path class="cls-2" d="M821.81,207.78s3.71-77.52-19.92-70.88S821.81,207.78,821.81,207.78Z"/><path class="cls-2" d="M839.6,176.09s3.71-77.52-19.92-70.89S839.6,176.09,839.6,176.09Z"/><path class="cls-2" d="M857.39,144.4s3.71-77.53-19.92-70.89S857.39,144.4,857.39,144.4Z"/><path class="cls-2" d="M875.18,112.71s3.71-77.53-19.92-70.89S875.18,112.71,875.18,112.71Z"/><path class="cls-2" d="M803.93,239.43s64.25-43.55,70.89-19.92S803.93,239.43,803.93,239.43Z"/><path class="cls-2" d="M821.72,207.74s64.25-43.55,70.89-19.92S821.72,207.74,821.72,207.74Z"/><path class="cls-2" d="M839.51,176s64.25-43.54,70.89-19.91S839.51,176,839.51,176Z"/><path class="cls-2" d="M857.3,144.35s64.25-43.54,70.89-19.91S857.3,144.35,857.3,144.35Z"/><path class="cls-2" d="M875.09,112.66S939.34,69.11,946,92.74,875.09,112.66,875.09,112.66Z"/><line class="cls-2" x1="892.02" y1="82.56" x2="768.18" y2="303.17"/><path class="cls-2" d="M884,97s14.64-76.22,36-64.21S884,97,884,97Z"/><path class="cls-6" d="M565.15,304.75l-2.33-11.5A109.4,109.4,0,0,0,550,263.2l-39.29,18.36L541,250.67a111.62,111.62,0,0,0-40.45-30.53L472.74,242l15.79-26.47-63.36-20.9L416,259.59a107.4,107.4,0,0,0-.95,19.6l1.28,12.38a105.61,105.61,0,0,0,8.63,27.8l43.44-13.65-35.57,27.67a113.5,113.5,0,0,0,35.79,34.25l17.61-16.31-6.34,22.29a113.55,113.55,0,0,0,65.42,9.06l.08-.11A103.86,103.86,0,0,0,565.15,304.75Z"/><line class="cls-7" x1="425.17" y1="195.34" x2="549.17" y2="389.04"/><path class="cls-6" d="M220.78,267.34l-2.33-11.51a109.81,109.81,0,0,0-12.85-30.05l-39.29,18.37,30.28-30.89a111.73,111.73,0,0,0-40.45-30.54L128.37,204.6l15.8-26.47-63.36-20.9-9.16,64.94a106.58,106.58,0,0,0-1,19.61L72,254.15A105.78,105.78,0,0,0,80.6,282L124,268.3,88.48,296a113.26,113.26,0,0,0,35.79,34.24l17.61-16.3-6.35,22.29A113.66,113.66,0,0,0,201,345.27l.08-.11A103.87,103.87,0,0,0,220.78,267.34Z"/><line class="cls-7" x1="80.81" y1="157.92" x2="204.8" y2="351.62"/><polygon class="cls-2" points="614.76 143.37 597.8 126.41 614.76 126.41 614.76 143.37"/><path class="cls-8" d="M556.39,85V43.6a41.41,41.41,0,0,0,0,82.81H597.8Z"/><g class="cls-9"><circle class="cls-6" cx="556.39" cy="85.01" r="31.05"/></g><path class="cls-10" d="M556.39,85V43.6a41.41,41.41,0,0,0,0,82.81H597.8Z"/><path class="cls-2" d="M639.2,85H618.5V49.14A41.4,41.4,0,0,1,639.2,85Z"/><path class="cls-6" d="M618.5,49.14V85H556.39V43.6h41.4A41.25,41.25,0,0,1,618.5,49.14Z"/><polygon class="cls-2" points="556.39 85.01 556.39 126.41 597.8 126.41 556.39 85.01"/><line class="cls-2" x1="556.39" y1="74.66" x2="618.5" y2="74.66"/><path class="cls-10" d="M548.25,69.46a3.76,3.76,0,0,0-7.52,0"/><line class="cls-5" x1="325.09" y1="137.81" x2="414.5" y2="371.04"/><line class="cls-5" x1="727.91" y1="31.23" x2="669.63" y2="412.56"/><path class="cls-2" d="M796.31,302.24c64.07-38.27-35.77-106.39-35.77-106.39S722.13,310.45,796.31,302.24Z"/><path class="cls-2" d="M839.86,306.89c62.78,40.35,79.37-79.37,79.37-79.37S799.5,244.11,839.86,306.89Z"/><line class="cls-5" x1="776.42" y1="244.37" x2="807.13" y2="338.1"/><line class="cls-5" x1="882.26" y1="263.9" x2="834.85" y2="311.3"/><path class="cls-6" d="M1100,295.27c62.77,40.36,79.37-79.37,79.37-79.37S1059.6,232.49,1100,295.27Z"/><line class="cls-6" x1="1142.35" y1="252.29" x2="1082.91" y2="311.9"/><path class="cls-11" d="M1153,182.25,973,312.09S983.85,212.48,1153,182.25Z"/><path class="cls-11" d="M1153,182.25,973,312.09S1071,333.21,1153,182.25Z"/><line class="cls-11" x1="1048.43" y1="232.09" x2="1048.43" y2="256.88"/><line class="cls-11" x1="1089.37" y1="209.46" x2="1089.37" y2="227.24"/><line class="cls-11" x1="1009.11" y1="260.64" x2="1009.11" y2="285.43"/><line class="cls-11" x1="1044.51" y1="286.11" x2="1020.94" y2="278.41"/><line class="cls-11" x1="1091.37" y1="251.64" x2="1067.8" y2="243.94"/><path class="cls-11" d="M-26.91,205,168.1,311S73.61,344.34-26.91,205Z"/><path class="cls-11" d="M-26.91,205,168.1,311S144.68,213.53-26.91,205Z"/><line class="cls-11" x1="63.31" y1="277.64" x2="85.65" y2="266.9"/><line class="cls-11" x1="25.18" y1="250.55" x2="41.2" y2="242.85"/><line class="cls-11" x1="106.07" y1="300.71" x2="128.42" y2="289.97"/><line class="cls-11" x1="113.7" y1="257.77" x2="116.97" y2="282.35"/><line class="cls-11" x1="62.32" y1="230.47" x2="65.59" y2="255.05"/><path class="cls-12" d="M1018,167.34s44.53-52.83,56.42-20.58S1018,167.34,1018,167.34Z"/><path class="cls-12" d="M1018,167.34s53.06,44.57,20.76,56.34S1018,167.34,1018,167.34Z"/><path class="cls-10" d="M1018,167.34c-43.48-20.16-79.72,78.27-79.72,78.27-25.21,54.4-56.18,20.49-56.18,20.49"/><path class="cls-12" d="M938.26,245.61S982.8,192.78,994.68,225,938.26,245.61,938.26,245.61Z"/><path class="cls-12" d="M938.26,245.61s-26.53-22.29-10.38-28.17S938.26,245.61,938.26,245.61Z"/><path class="cls-12" d="M990.85,126.5s7.28-36.27,21.18-24.2S990.85,126.5,990.85,126.5Z"/><path class="cls-12" d="M990.85,126.5s36.4,7.25,24.27,21.1S990.85,126.5,990.85,126.5Z"/><path class="cls-10" d="M973.61,183.8s-8.37-55.55,17.24-57.3"/><path class="cls-12" d="M976.48,135.38s-30.14-21.64-13.38-29.24S976.48,135.38,976.48,135.38Z"/><path class="cls-12" d="M209,150.82s-8.32-48.24-27.13-32.77S209,150.82,209,150.82Z"/><path class="cls-12" d="M209,150.82s-48.39,8.26-32.86,27S209,150.82,209,150.82Z"/><path class="cls-10" d="M209,150.82c33.8,3.23,20.73,76.39,20.73,76.39-4.05,42.28,27,32.63,27,32.63"/><path class="cls-12" d="M229.75,227.21s-8.32-48.24-27.14-32.77S229.75,227.21,229.75,227.21Z"/><path class="cls-12" d="M240.23,135.56s8.53-24.79-4.29-22.38S240.23,135.56,240.23,135.56Z"/><path class="cls-12" d="M240.23,135.56s-24.85-8.6-22.4,4.21S240.23,135.56,240.23,135.56Z"/><path class="cls-10" d="M230.26,176.76s25-31,10-41.2"/><path class="cls-12" d="M245.83,146.13S272,143.69,264.48,133,245.83,146.13,245.83,146.13Z"/><path class="cls-12" d="M770.08,72.68s20.86-20.52,6.85-24.49S770.08,72.68,770.08,72.68Z"/><path class="cls-12" d="M770.08,72.68s-20.54-21-24.47-6.93S770.08,72.68,770.08,72.68Z"/><path class="cls-10" d="M754.25,93.72s25.76-3.33,15.83-21"/><path class="cls-12" d="M772.63,81.14s27.38,10.59,25.15-3.8S772.63,81.14,772.63,81.14Z"/></g></g></svg>