<svg xmlns="http://www.w3.org/2000/svg" xmlns:xlink="http://www.w3.org/1999/xlink" viewBox="0 0 1500 300"><defs><style>.cls-1,.cls-10,.cls-5{fill:none;}.cls-2,.cls-8{fill:#00112c;}.cls-10,.cls-11,.cls-2,.cls-6,.cls-7{stroke:#00112c;}.cls-10,.cls-11,.cls-12,.cls-2,.cls-5,.cls-6,.cls-7{stroke-linecap:round;stroke-linejoin:round;stroke-width:1.29px;}.cls-3{clip-path:url(#clip-path);}.cls-11,.cls-4{fill:#0abf53;}.cls-12,.cls-5{stroke:#fff;}.cls-12,.cls-6{fill:#fff;}.cls-7{fill:#00af60;}.cls-9{clip-path:url(#clip-path-2);}</style><clipPath id="clip-path"><rect class="cls-1" x="-0.6" width="1500.6" height="298.98"/></clipPath><clipPath id="clip-path-2"><path class="cls-2" d="M698.37,87.77V38.2a49.57,49.57,0,0,0,0,99.14h49.57Z"/></clipPath></defs><g id="Layer_1" data-name="Layer 1"><g class="cls-3"><rect class="cls-4" x="-85.17" y="-21.78" width="1676.76" height="372.65"/><path class="cls-2" d="M394.63,81.46,528.72,430.12S378.81,473.94,329.21,345,401.66,178,394.63,81.46Z"/><path class="cls-2" d="M394.63,81.46,528.72,430.12s140.64-67.92,91-196.9S454.1,157.83,394.63,81.46Z"/><line class="cls-5" x1="382.2" y1="220.46" x2="461.76" y2="255.83"/><line class="cls-5" x1="501.92" y1="246.64" x2="478.77" y2="299.33"/><path class="cls-2" d="M833.93,480.16,903.87,23.58S853.34,50.81,840,110.74L867.25,130l-28-14.16-15.38,100.4,27,21-35.75-17.15S807,326.27,803.18,351.23L798.92,379l26.62,23.23L797.7,387S792.66,419.86,833.93,480.16Z"/><path class="cls-2" d="M833.93,480.16,903.87,23.58s35,27.23,33.19,112.41l-32.58,12.49,31.79-6.74L916.12,273.33l-32,11.93,39.26-5.56S911,338.39,907.15,363.34s-10.76,38.74-10.76,38.74S872.52,459.37,833.93,480.16Z"/><path class="cls-6" d="M784.85,303.61l3.91-14.23a137.64,137.64,0,0,0,2.6-41l-54.48-1.65,51.47-17.5a140.32,140.32,0,0,0-28.08-57.17l-43.54,8.81,32.71-20.75L690.21,100.8l-47.07,67.66A134.35,134.35,0,0,0,631,189.92l-5.57,14.61a133,133,0,0,0-6.08,36.07l56.46,9.29-55.57,10.9A142.53,142.53,0,0,0,641,319.48l29-8.31-19.75,21.41a142.84,142.84,0,0,0,68.26,47.22h0A130.9,130.9,0,0,0,784.85,303.61Z"/><line class="cls-7" x1="689.81" y1="101.58" x2="726.48" y2="451.78"/><path class="cls-2" d="M568.4,209.77s-43.09-56.28-55.67-37.72S568.4,209.77,568.4,209.77Z"/><path class="cls-2" d="M562.14,177.18S519,120.9,506.47,139.45,562.14,177.18,562.14,177.18Z"/><path class="cls-2" d="M555.87,144.58s-43.09-56.28-55.66-37.72S555.87,144.58,555.87,144.58Z"/><path class="cls-2" d="M549.61,112s-43.09-56.28-55.67-37.73S549.61,112,549.61,112Z"/><path class="cls-2" d="M543.35,79.39s-43.1-56.28-55.67-37.72S543.35,79.39,543.35,79.39Z"/><path class="cls-2" d="M568.31,209.79s19.17-68.24,37.72-55.67S568.31,209.79,568.31,209.79Z"/><path class="cls-2" d="M562.05,177.19s19.17-68.24,37.72-55.66S562.05,177.19,562.05,177.19Z"/><path class="cls-2" d="M555.79,144.6S575,76.36,593.51,88.93,555.79,144.6,555.79,144.6Z"/><path class="cls-2" d="M549.52,112s19.17-68.24,37.72-55.66S549.52,112,549.52,112Z"/><path class="cls-2" d="M543.26,79.41S562.42,11.17,581,23.74,543.26,79.41,543.26,79.41Z"/><line class="cls-2" x1="537.33" y1="48.44" x2="580.93" y2="275.33"/><path class="cls-2" d="M540.22,63.24s-34.7-61.8-12.69-66S540.22,63.24,540.22,63.24Z"/><path class="cls-2" d="M994.84,272.71s4.45-92.82-23.85-84.87S994.84,272.71,994.84,272.71Z"/><path class="cls-2" d="M1016.14,234.77s4.45-92.82-23.85-84.87S1016.14,234.77,1016.14,234.77Z"/><path class="cls-2" d="M1037.44,196.83s4.44-92.82-23.85-84.88S1037.44,196.83,1037.44,196.83Z"/><path class="cls-2" d="M1058.74,158.88s4.44-92.82-23.85-84.87S1058.74,158.88,1058.74,158.88Z"/><path class="cls-2" d="M1080,120.94s4.44-92.82-23.85-84.87S1080,120.94,1080,120.94Z"/><path class="cls-2" d="M994.74,272.66s76.92-52.14,84.87-23.85S994.74,272.66,994.74,272.66Z"/><path class="cls-2" d="M1016,234.71s76.92-52.13,84.87-23.84S1016,234.71,1016,234.71Z"/><path class="cls-2" d="M1037.34,196.77s76.92-52.14,84.87-23.85S1037.34,196.77,1037.34,196.77Z"/><path class="cls-2" d="M1058.63,158.82s76.93-52.13,84.88-23.84S1058.63,158.82,1058.63,158.82Z"/><path class="cls-2" d="M1079.93,120.88s76.93-52.13,84.88-23.84S1079.93,120.88,1079.93,120.88Z"/><line class="cls-2" x1="1100.2" y1="84.85" x2="951.93" y2="348.98"/><path class="cls-2" d="M1090.57,102.12s17.52-91.26,43.15-76.87S1090.57,102.12,1090.57,102.12Z"/><path class="cls-6" d="M708.85,350.87l-2.79-13.78a131.23,131.23,0,0,0-15.39-36l-47,22,36.25-37a133.74,133.74,0,0,0-48.43-36.56l-33.24,26.19,18.91-31.69-75.86-25-11,77.75a127.67,127.67,0,0,0-1.14,23.48l1.53,14.81A127,127,0,0,0,541,368.37L593,352l-42.58,33.14a135.86,135.86,0,0,0,42.86,41l21.08-19.52-7.6,26.68a136.06,136.06,0,0,0,78.33,10.85l.09-.13A124.34,124.34,0,0,0,708.85,350.87Z"/><line class="cls-7" x1="541.26" y1="219.87" x2="689.72" y2="451.78"/><path class="cls-6" d="M296.55,306.08l-2.79-13.78a131.23,131.23,0,0,0-15.39-36l-47,22,36.26-37a133.66,133.66,0,0,0-48.44-36.56L185.91,231l18.91-31.7-75.85-25L118,252a127.61,127.61,0,0,0-1.14,23.47l1.53,14.82a126.71,126.71,0,0,0,10.33,33.29l52-16.35-42.58,33.13a135.75,135.75,0,0,0,42.86,41l21.08-19.52-7.6,26.69a136.06,136.06,0,0,0,78.33,10.85l.09-.13A124.32,124.32,0,0,0,296.55,306.08Z"/><line class="cls-7" x1="128.97" y1="175.07" x2="277.42" y2="406.98"/><polygon class="cls-2" points="768.25 157.65 747.94 137.34 768.25 137.34 768.25 157.65"/><path class="cls-8" d="M698.37,87.77V38.2a49.57,49.57,0,0,0,0,99.14h49.57Z"/><g class="cls-9"><circle class="cls-6" cx="698.37" cy="87.77" r="37.18"/></g><path class="cls-10" d="M698.37,87.77V38.2a49.57,49.57,0,0,0,0,99.14h49.57Z"/><path class="cls-2" d="M797.51,87.77H772.72V44.84A49.53,49.53,0,0,1,797.51,87.77Z"/><path class="cls-6" d="M772.72,44.84V87.77H698.37V38.2h49.57A49.3,49.3,0,0,1,772.72,44.84Z"/><polygon class="cls-2" points="698.37 87.77 698.37 137.34 747.94 137.34 698.37 87.77"/><line class="cls-2" x1="698.37" y1="75.38" x2="772.72" y2="75.38"/><path class="cls-10" d="M688.61,69.16a4.5,4.5,0,1,0-9,0"/><line class="cls-5" x1="421.43" y1="150.99" x2="528.49" y2="430.24"/><line class="cls-5" x1="903.73" y1="23.39" x2="833.94" y2="479.94"/><path class="cls-2" d="M985.61,347.86c76.72-45.81-42.82-127.38-42.82-127.38S896.8,357.69,985.61,347.86Z"/><path class="cls-2" d="M1037.75,353.42c75.17,48.32,95-95,95-95S989.44,278.26,1037.75,353.42Z"/><line class="cls-5" x1="961.81" y1="278.58" x2="998.57" y2="390.79"/><path class="cls-6" d="M1381.41,296.93c75.16,48.32,95-95,95-95S1333.09,221.77,1381.41,296.93Z"/><line class="cls-6" x1="1432.17" y1="245.47" x2="1361" y2="316.84"/><path class="cls-11" d="M1434.76,182.09,1219.28,337.56S1232.28,218.29,1434.76,182.09Z"/><path class="cls-11" d="M1434.76,182.09,1219.28,337.56S1336.57,362.83,1434.76,182.09Z"/><line class="cls-11" x1="1309.6" y1="241.77" x2="1309.6" y2="271.45"/><line class="cls-11" x1="1358.61" y1="214.68" x2="1358.61" y2="235.96"/><line class="cls-11" x1="1262.52" y1="275.95" x2="1262.52" y2="305.63"/><line class="cls-11" x1="1304.9" y1="306.45" x2="1276.68" y2="297.23"/><line class="cls-11" x1="1361" y1="265.17" x2="1332.79" y2="255.96"/><path class="cls-11" d="M-35.19,197.27,198.28,324.11S85.16,364.07-35.19,197.27Z"/><path class="cls-11" d="M-35.19,197.27,198.28,324.11S170.25,207.46-35.19,197.27Z"/><line class="cls-11" x1="72.82" y1="284.22" x2="99.57" y2="271.36"/><line class="cls-11" x1="27.17" y1="251.78" x2="46.35" y2="242.56"/><line class="cls-11" x1="124.02" y1="311.84" x2="150.77" y2="298.98"/><line class="cls-11" x1="133.15" y1="260.43" x2="137.07" y2="289.85"/><line class="cls-11" x1="71.64" y1="227.74" x2="75.56" y2="257.16"/><path class="cls-12" d="M1251,186.34s53.32-63.25,67.55-24.63S1251,186.34,1251,186.34Z"/><path class="cls-12" d="M1251,186.34s63.52,53.37,24.86,67.47S1251,186.34,1251,186.34Z"/><path class="cls-10" d="M1251,186.34c-52.06-24.13-95.44,93.72-95.44,93.72-30.19,65.13-67.27,24.53-67.27,24.53"/><path class="cls-12" d="M1155.57,280.06s53.32-63.25,67.55-24.63S1155.57,280.06,1155.57,280.06Z"/><path class="cls-12" d="M1155.57,280.06s-31.76-26.68-12.43-33.73S1155.57,280.06,1155.57,280.06Z"/><path class="cls-12" d="M1218.53,137.46s8.72-43.44,25.36-29S1218.53,137.46,1218.53,137.46Z"/><path class="cls-12" d="M1218.53,137.46s43.58,8.67,29.06,25.25S1218.53,137.46,1218.53,137.46Z"/><path class="cls-10" d="M1197.89,206.05s-10-66.5,20.64-68.59"/><path class="cls-12" d="M1201.33,148.09s-36.1-25.91-16-35S1201.33,148.09,1201.33,148.09Z"/><path class="cls-12" d="M282.47,166.57s-10-57.76-32.48-39.24S282.47,166.57,282.47,166.57Z"/><path class="cls-12" d="M282.47,166.57s-57.94,9.89-39.34,32.35S282.47,166.57,282.47,166.57Z"/><path class="cls-10" d="M282.47,166.57c40.47,3.87,24.82,91.46,24.82,91.46-4.85,50.62,32.35,39.07,32.35,39.07"/><path class="cls-12" d="M307.29,258s-10-57.76-32.49-39.24S307.29,258,307.29,258Z"/><path class="cls-12" d="M319.83,148.3s10.21-29.68-5.13-26.79S319.83,148.3,319.83,148.3Z"/><path class="cls-12" d="M319.83,148.3s-29.75-10.3-26.81,5S319.83,148.3,319.83,148.3Z"/><path class="cls-10" d="M307.9,197.62s29.93-37.07,11.93-49.32"/><path class="cls-12" d="M326.54,161s31.35-2.93,22.33-15.68S326.54,161,326.54,161Z"/><path class="cls-12" d="M954.21,73s25-24.57,8.21-29.33S954.21,73,954.21,73Z"/><path class="cls-12" d="M954.21,73s-24.6-25.09-29.3-8.31S954.21,73,954.21,73Z"/><path class="cls-10" d="M935.26,98.21s30.83-4,19-25.19"/><path class="cls-12" d="M957.26,83.15S990,95.82,987.37,78.6,957.26,83.15,957.26,83.15Z"/></g></g></svg>