<svg xmlns="http://www.w3.org/2000/svg" xmlns:xlink="http://www.w3.org/1999/xlink" viewBox="0 0 1920 1080"><defs><style>.cls-1,.cls-10,.cls-5{fill:none;}.cls-2,.cls-8{fill:#00112c;}.cls-10,.cls-11,.cls-2,.cls-6,.cls-7{stroke:#00112c;}.cls-10,.cls-11,.cls-12,.cls-2,.cls-5,.cls-6,.cls-7{stroke-linecap:round;stroke-linejoin:round;stroke-width:2.03px;}.cls-3{clip-path:url(#clip-path);}.cls-11,.cls-4{fill:#0abf53;}.cls-12,.cls-5{stroke:#fff;}.cls-12,.cls-6{fill:#fff;}.cls-7{fill:#00af60;}.cls-9{clip-path:url(#clip-path-2);}</style><clipPath id="clip-path"><rect class="cls-1" width="1920" height="1080"/></clipPath><clipPath id="clip-path-2"><path class="cls-2" d="M873.5,364.15V286a78.19,78.19,0,0,0,0,156.37h78.19Z"/></clipPath></defs><g id="Layer_1" data-name="Layer 1"><g class="cls-3"><rect class="cls-4" x="-16.49" y="-9.28" width="1952.98" height="1098.55"/><path class="cls-2" d="M394.44,354.19,605.93,904.11S369.49,973.23,291.26,769.8,405.52,506.46,394.44,354.19Z"/><path class="cls-2" d="M394.44,354.19,605.93,904.11S827.75,797,749.52,593.56,488.24,474.65,394.44,354.19Z"/><line class="cls-5" x1="350.58" y1="707.21" x2="567.52" y2="803.64"/><line class="cls-5" x1="374.83" y1="573.43" x2="500.32" y2="629.21"/><line class="cls-5" x1="563.66" y1="614.71" x2="527.15" y2="697.82"/><path class="cls-2" d="M1111.66,927.89,1222,207.75s-79.71,42.95-100.72,137.47l43,30.39L1120,353.28l-24.26,158.34,42.55,33.07-56.39-27.06s-12.74,167.54-18.77,206.9l-6.72,43.83,42,36.65-43.92-24.12S1046.57,832.77,1111.66,927.89Z"/><path class="cls-2" d="M1111.66,927.89,1222,207.75s55.28,42.95,52.34,177.29l-51.39,19.71,50.15-10.63-31.79,207.54-50.49,18.82,61.92-8.77s-19.54,92.57-25.57,131.93-17,61.09-17,61.09S1172.53,895.1,1111.66,927.89Z"/><path class="cls-6" d="M1009.91,704.57l6.16-22.44a217.1,217.1,0,0,0,4.11-64.65l-85.93-2.61,81.17-27.6a221.27,221.27,0,0,0-44.29-90.17L902.46,511l51.6-32.72-93.43-93.59L786.4,491.42a212,212,0,0,0-19.2,33.84l-8.79,23a210,210,0,0,0-9.59,56.9l89.06,14.65L750.23,637A224.82,224.82,0,0,0,783,729.61l45.72-13.11-31.14,33.76a225.29,225.29,0,0,0,107.66,74.48h0A206.5,206.5,0,0,0,1009.91,704.57Z"/><line class="cls-7" x1="860.01" y1="385.92" x2="917.84" y2="938.27"/><path class="cls-2" d="M668.52,556.57s-68-88.76-87.8-59.5S668.52,556.57,668.52,556.57Z"/><path class="cls-2" d="M658.64,505.16s-68-88.76-87.8-59.5S658.64,505.16,658.64,505.16Z"/><path class="cls-2" d="M648.76,453.75s-68-88.76-87.8-59.49S648.76,453.75,648.76,453.75Z"/><path class="cls-2" d="M638.88,402.34s-68-88.76-87.8-59.49S638.88,402.34,638.88,402.34Z"/><path class="cls-2" d="M629,350.93s-68-88.76-87.8-59.49S629,350.93,629,350.93Z"/><path class="cls-2" d="M668.38,556.6S698.61,449,727.87,468.8,668.38,556.6,668.38,556.6Z"/><path class="cls-2" d="M658.5,505.19s30.23-107.63,59.49-87.8S658.5,505.19,658.5,505.19Z"/><path class="cls-2" d="M648.62,453.78s30.23-107.63,59.49-87.8S648.62,453.78,648.62,453.78Z"/><path class="cls-2" d="M638.74,402.37s30.23-107.63,59.5-87.8S638.74,402.37,638.74,402.37Z"/><path class="cls-2" d="M628.86,351s30.23-107.63,59.5-87.8S628.86,351,628.86,351Z"/><line class="cls-2" x1="619.51" y1="302.11" x2="688.28" y2="659.97"/><path class="cls-2" d="M624.07,325.47s-54.73-97.49-20-104.16S624.07,325.47,624.07,325.47Z"/><path class="cls-2" d="M1387.47,574.64s7-146.4-37.61-133.86S1387.47,574.64,1387.47,574.64Z"/><path class="cls-2" d="M1421.07,514.79s7-146.4-37.61-133.86S1421.07,514.79,1421.07,514.79Z"/><path class="cls-2" d="M1454.66,455s7-146.4-37.61-133.87S1454.66,455,1454.66,455Z"/><path class="cls-2" d="M1488.26,395.1s7-146.4-37.61-133.86S1488.26,395.1,1488.26,395.1Z"/><path class="cls-2" d="M1521.85,335.25s7-146.39-37.61-133.86S1521.85,335.25,1521.85,335.25Z"/><path class="cls-2" d="M1387.31,574.55s121.32-82.23,133.86-37.61S1387.31,574.55,1387.31,574.55Z"/><path class="cls-2" d="M1420.9,514.7s121.33-82.23,133.86-37.61S1420.9,514.7,1420.9,514.7Z"/><path class="cls-2" d="M1454.5,454.85s121.32-82.22,133.86-37.6S1454.5,454.85,1454.5,454.85Z"/><path class="cls-2" d="M1488.09,395S1609.42,312.78,1622,357.4,1488.09,395,1488.09,395Z"/><path class="cls-2" d="M1521.69,335.16s121.32-82.23,133.86-37.61S1521.69,335.16,1521.69,335.16Z"/><line class="cls-2" x1="1553.65" y1="278.33" x2="1319.79" y2="694.92"/><path class="cls-2" d="M1538.45,305.57s27.65-143.93,68.07-121.24S1538.45,305.57,1538.45,305.57Z"/><path class="cls-6" d="M890,779.12l-4.4-21.74a206.42,206.42,0,0,0-24.27-56.74l-74.19,34.68L844.35,677A210.9,210.9,0,0,0,768,619.33l-52.43,41.31,29.83-50L625.72,571.18l-17.3,122.64a201.62,201.62,0,0,0-1.8,37L609,754.21a199.87,199.87,0,0,0,16.28,52.51l82-25.78L640.19,833.2a214.38,214.38,0,0,0,67.59,64.66L741,867.08l-12,42.09a214.67,214.67,0,0,0,123.54,17.1l.15-.2A196.08,196.08,0,0,0,890,779.12Z"/><line class="cls-7" x1="625.72" y1="572.5" x2="859.86" y2="938.27"/><polygon class="cls-2" points="983.72 474.37 951.69 442.34 983.72 442.34 983.72 474.37"/><path class="cls-8" d="M873.5,364.15V286a78.19,78.19,0,0,0,0,156.37h78.19Z"/><g class="cls-9"><circle class="cls-6" cx="873.5" cy="364.15" r="58.64"/></g><path class="cls-10" d="M873.5,364.15V286a78.19,78.19,0,0,0,0,156.37h78.19Z"/><path class="cls-2" d="M1029.87,364.15H990.78V296.43A78.14,78.14,0,0,1,1029.87,364.15Z"/><path class="cls-6" d="M990.78,296.43v67.72H873.5V286h78.19A77.84,77.84,0,0,1,990.78,296.43Z"/><polygon class="cls-2" points="873.5 364.15 873.5 442.34 951.69 442.34 873.5 364.15"/><line class="cls-2" x1="873.5" y1="344.61" x2="990.78" y2="344.61"/><path class="cls-10" d="M858.12,334.79a7.1,7.1,0,1,0-14.2,0"/><line class="cls-5" x1="436.71" y1="463.86" x2="605.57" y2="904.29"/><line class="cls-5" x1="1221.75" y1="207.46" x2="1111.68" y2="927.54"/><path class="cls-2" d="M1368.36,741c121-72.26-67.54-200.91-67.54-200.91S1228.29,756.48,1368.36,741Z"/><path class="cls-2" d="M1406.38,808.48c118.55,76.21,149.88-149.88,149.88-149.88S1330.17,689.93,1406.38,808.48Z"/><line class="cls-5" x1="1330.81" y1="631.69" x2="1388.79" y2="808.68"/><line class="cls-5" x1="1486.44" y1="727.31" x2="1396.93" y2="816.82"/><path class="cls-2" d="M1242.19,741.23s31.34,226.09,149.88,149.88C1468.28,772.56,1242.19,741.23,1242.19,741.23Z"/><line class="cls-5" x1="1317.59" y1="818.85" x2="1408.12" y2="909.38"/><path class="cls-6" d="M950,906.87C1068.57,983.08,1099.91,757,1099.91,757S873.82,788.32,950,906.87Z"/><line class="cls-6" x1="1030.08" y1="825.7" x2="917.84" y2="938.27"/><path class="cls-11" d="M1729.63,691.16,1389.77,936.37S1410.27,748.25,1729.63,691.16Z"/><path class="cls-11" d="M1729.63,691.16,1389.77,936.37S1574.75,976.23,1729.63,691.16Z"/><line class="cls-11" x1="1532.21" y1="785.28" x2="1532.21" y2="832.1"/><line class="cls-11" x1="1609.52" y1="742.56" x2="1609.52" y2="776.13"/><line class="cls-11" x1="1457.96" y1="839.2" x2="1457.96" y2="886.01"/><line class="cls-11" x1="1524.8" y1="887.3" x2="1480.3" y2="872.76"/><line class="cls-11" x1="1613.3" y1="822.2" x2="1568.8" y2="807.67"/><path class="cls-11" d="M190.37,731.6,558.61,931.66S380.19,994.69,190.37,731.6Z"/><path class="cls-11" d="M190.37,731.6,558.61,931.66S514.4,747.67,190.37,731.6Z"/><line class="cls-11" x1="360.73" y1="868.74" x2="402.92" y2="848.46"/><line class="cls-11" x1="288.74" y1="817.58" x2="318.99" y2="803.03"/><line class="cls-11" x1="441.49" y1="912.3" x2="483.68" y2="892.02"/><line class="cls-11" x1="455.89" y1="831.22" x2="462.07" y2="877.62"/><line class="cls-11" x1="358.87" y1="779.67" x2="365.05" y2="826.07"/><path class="cls-12" d="M1745.14,519.62s84.1-99.76,106.54-38.85S1745.14,519.62,1745.14,519.62Z"/><path class="cls-12" d="M1745.14,519.62s100.2,84.17,39.21,106.41S1745.14,519.62,1745.14,519.62Z"/><path class="cls-10" d="M1745.14,519.62c-82.1-38.06-150.52,147.81-150.52,147.81-47.62,102.73-106.11,38.69-106.11,38.69"/><path class="cls-12" d="M1594.62,667.43s84.09-99.76,106.54-38.84S1594.62,667.43,1594.62,667.43Z"/><path class="cls-12" d="M1594.62,667.43s-50.1-42.08-19.61-53.2S1594.62,667.43,1594.62,667.43Z"/><path class="cls-12" d="M1693.92,442.51s13.75-68.5,40-45.7S1693.92,442.51,1693.92,442.51Z"/><path class="cls-12" d="M1693.92,442.51s68.73,13.68,45.83,39.84S1693.92,442.51,1693.92,442.51Z"/><path class="cls-10" d="M1661.37,550.7s-15.81-104.89,32.55-108.19"/><path class="cls-12" d="M1666.78,459.28s-56.92-40.87-25.26-55.22S1666.78,459.28,1666.78,459.28Z"/><path class="cls-12" d="M217.55,488.43s-15.72-91.1-51.24-61.89S217.55,488.43,217.55,488.43Z"/><path class="cls-12" d="M217.55,488.43s-91.39,15.6-62.06,51S217.55,488.43,217.55,488.43Z"/><path class="cls-10" d="M217.55,488.43c63.82,6.11,39.13,144.25,39.13,144.25-7.65,79.85,51,61.63,51,61.63"/><path class="cls-12" d="M256.68,632.68S241,541.58,205.44,570.8,256.68,632.68,256.68,632.68Z"/><path class="cls-12" d="M276.46,459.61s16.11-46.81-8.09-42.25S276.46,459.61,276.46,459.61Z"/><path class="cls-12" d="M276.46,459.61s-46.92-16.23-42.28,8S276.46,459.61,276.46,459.61Z"/><path class="cls-10" d="M257.64,537.41s47.21-58.47,18.82-77.8"/><path class="cls-12" d="M287.05,479.58s49.44-4.62,35.21-24.73S287.05,479.58,287.05,479.58Z"/><path class="cls-12" d="M1301.37,285.73s39.4-38.75,12.94-46.25S1301.37,285.73,1301.37,285.73Z"/><path class="cls-12" d="M1301.37,285.73s-38.8-39.57-46.2-13.1S1301.37,285.73,1301.37,285.73Z"/><path class="cls-10" d="M1271.49,325.47s48.62-6.3,29.88-39.74"/><path class="cls-12" d="M1306.19,301.71s51.69,20,47.49-7.18S1306.19,301.71,1306.19,301.71Z"/></g></g></svg>