<svg id="Layer_1" data-name="Layer 1" xmlns="http://www.w3.org/2000/svg" xmlns:xlink="http://www.w3.org/1999/xlink" viewBox="0 0 581 600"><defs><style>.cls-1,.cls-10,.cls-5{fill:none;}.cls-2,.cls-8{fill:#00112c;}.cls-10,.cls-11,.cls-2,.cls-6,.cls-7{stroke:#00112c;}.cls-10,.cls-11,.cls-2,.cls-5,.cls-6,.cls-7{stroke-linecap:round;stroke-linejoin:round;stroke-width:1.72px;}.cls-3{clip-path:url(#clip-path);}.cls-11,.cls-4{fill:#0abf53;}.cls-5{stroke:#fff;}.cls-6{fill:#fff;}.cls-7{fill:#00af60;}.cls-9{clip-path:url(#clip-path-2);}</style><clipPath id="clip-path"><rect class="cls-1" width="581" height="600"/></clipPath><clipPath id="clip-path-2"><path class="cls-2" d="M268.43,197.72V131.43a66.29,66.29,0,0,0,0,132.57h66.29Z"/></clipPath></defs><g class="cls-3"><rect class="cls-4" x="-486.13" y="-118.89" width="1655.79" height="931.38"/><path class="cls-2" d="M-137.73,189.27,41.58,655.5s-200.46,58.61-266.79-113.86S-128.33,318.37-137.73,189.27Z"/><path class="cls-2" d="M-137.73,189.27,41.58,655.5s188.06-90.82,121.73-263.29S-58.21,291.4-137.73,189.27Z"/><line class="cls-5" x1="-174.92" y1="488.57" x2="9.01" y2="570.32"/><line class="cls-5" x1="5.74" y1="410.15" x2="-25.22" y2="480.61"/><path class="cls-2" d="M470.34,675.67,563.88,65.11s-67.58,36.42-85.39,116.56l36.42,25.76-37.47-18.94L456.88,322.74l36.07,28-47.81-22.95s-10.8,142.05-15.92,175.42l-5.69,37.17,35.61,31.07L421.9,551S415.17,595,470.34,675.67Z"/><path class="cls-2" d="M470.34,675.67,563.88,65.11s46.87,36.42,44.37,150.32l-43.56,16.7,42.52-9-27,176-42.81,16,52.5-7.44s-16.56,78.48-21.68,111.85-14.39,51.8-14.39,51.8S522,647.87,470.34,675.67Z"/><path class="cls-6" d="M384.08,486.33l5.22-19a183.64,183.64,0,0,0,3.48-54.81l-72.85-2.21,68.83-23.4a187.79,187.79,0,0,0-37.56-76.45L293,322.22l43.75-27.75-79.21-79.34-62.94,90.49a179.75,179.75,0,0,0-16.28,28.69l-7.45,19.53a177.69,177.69,0,0,0-8.12,48.24l75.5,12.42-74.31,14.58a190.65,190.65,0,0,0,27.75,78.48l38.77-11.12L204,525.07a190.91,190.91,0,0,0,91.27,63.14h0A175,175,0,0,0,384.08,486.33Z"/><line class="cls-7" x1="256.99" y1="216.17" x2="306.02" y2="684.47"/><path class="cls-2" d="M94.64,360.85S37,285.6,20.2,310.41,94.64,360.85,94.64,360.85Z"/><path class="cls-2" d="M86.26,317.27S28.64,242,11.82,266.82,86.26,317.27,86.26,317.27Z"/><path class="cls-2" d="M77.89,273.68S20.26,198.42,3.45,223.24,77.89,273.68,77.89,273.68Z"/><path class="cls-2" d="M69.51,230.09S11.89,154.84-4.93,179.65,69.51,230.09,69.51,230.09Z"/><path class="cls-2" d="M61.14,186.51S3.51,111.25-13.3,136.06,61.14,186.51,61.14,186.51Z"/><path class="cls-2" d="M94.52,360.88s25.63-91.26,50.44-74.44S94.52,360.88,94.52,360.88Z"/><path class="cls-2" d="M86.14,317.29s25.63-91.25,50.45-74.44S86.14,317.29,86.14,317.29Z"/><path class="cls-2" d="M77.77,273.7s25.63-91.25,50.44-74.44S77.77,273.7,77.77,273.7Z"/><path class="cls-2" d="M69.39,230.12S95,138.86,119.84,155.68,69.39,230.12,69.39,230.12Z"/><path class="cls-2" d="M61,186.53s25.63-91.25,50.44-74.44S61,186.53,61,186.53Z"/><line class="cls-2" x1="53.09" y1="145.11" x2="111.39" y2="448.52"/><path class="cls-2" d="M57,164.92S10.55,82.27,40,76.61,57,164.92,57,164.92Z"/><path class="cls-6" d="M282.44,549.53l-3.73-18.42A174.81,174.81,0,0,0,258.14,483l-62.91,29.4L243.72,463A178.91,178.91,0,0,0,179,414.06l-44.45,35,25.29-42.38L58.35,373.24l-14.66,104a170.91,170.91,0,0,0-1.53,31.39l2.05,19.81A169.82,169.82,0,0,0,58,572.94l69.54-21.86-56.94,44.3a181.65,181.65,0,0,0,57.31,54.83l28.19-26.1L146,659.79A182,182,0,0,0,250.7,674.3l.13-.18A166.28,166.28,0,0,0,282.44,549.53Z"/><line class="cls-7" x1="58.35" y1="374.35" x2="256.86" y2="684.47"/><polygon class="cls-2" points="361.88 291.16 334.72 264 361.88 264 361.88 291.16"/><path class="cls-8" d="M268.43,197.72V131.43a66.29,66.29,0,0,0,0,132.57h66.29Z"/><g class="cls-9"><circle class="cls-6" cx="268.43" cy="197.72" r="49.71"/></g><path class="cls-10" d="M268.43,197.72V131.43a66.29,66.29,0,0,0,0,132.57h66.29Z"/><path class="cls-2" d="M401,197.72H367.86V140.3A66.26,66.26,0,0,1,401,197.72Z"/><path class="cls-6" d="M367.86,140.3v57.42H268.43V131.43h66.29A66,66,0,0,1,367.86,140.3Z"/><polygon class="cls-2" points="268.43 197.72 268.43 264 334.72 264 268.43 197.72"/><line class="cls-2" x1="268.43" y1="181.14" x2="367.86" y2="181.14"/><path class="cls-10" d="M255.39,172.82a6,6,0,1,0-12,0"/><line class="cls-5" x1="-101.89" y1="282.25" x2="41.27" y2="655.66"/><line class="cls-5" x1="563.68" y1="64.87" x2="470.36" y2="675.37"/><path class="cls-2" d="M581,517.41s26.56,191.68,127.07,127.07C772.7,544,581,517.41,581,517.41Z"/><path class="cls-6" d="M333.31,657.85c100.51,64.61,127.07-127.08,127.07-127.08S268.7,557.34,333.31,657.85Z"/><line class="cls-6" x1="401.19" y1="589.03" x2="306.02" y2="684.47"/><path class="cls-11" d="M-310.74,509.25,1.46,678.86S-149.81,732.3-310.74,509.25Z"/><path class="cls-11" d="M-310.74,509.25,1.46,678.86S-36,522.87-310.74,509.25Z"/></g></svg>