<svg xmlns="http://www.w3.org/2000/svg" xmlns:xlink="http://www.w3.org/1999/xlink" viewBox="0 0 503 300"><defs><style>.cls-1,.cls-10,.cls-5{fill:none;}.cls-2,.cls-8{fill:#00112c;}.cls-10,.cls-11,.cls-2,.cls-6,.cls-7{stroke:#00112c;}.cls-10,.cls-11,.cls-12,.cls-2,.cls-5,.cls-6,.cls-7{stroke-linecap:round;stroke-linejoin:round;stroke-width:0.86px;}.cls-3{clip-path:url(#clip-path);}.cls-11,.cls-4{fill:#0abf53;}.cls-12,.cls-5{stroke:#fff;}.cls-12,.cls-6{fill:#fff;}.cls-7{fill:#00af60;}.cls-9{clip-path:url(#clip-path-2);}</style><clipPath id="clip-path"><rect class="cls-1" width="503" height="300"/></clipPath><clipPath id="clip-path-2"><path class="cls-2" d="M225.55,78.26V45.39a32.87,32.87,0,0,0,0,65.73h32.87Z"/></clipPath></defs><g id="Layer_1" data-name="Layer 1"><g class="cls-3"><rect class="cls-4" x="-148.58" y="-78.73" width="820.99" height="461.81"/><path class="cls-2" d="M24.17,74.07l88.9,231.17S13.68,334.3-19.21,248.78,28.83,138.08,24.17,74.07Z"/><path class="cls-2" d="M24.17,74.07l88.9,231.17s93.25-45,60.36-130.55S63.6,124.71,24.17,74.07Z"/><line class="cls-5" x1="5.73" y1="222.47" x2="96.93" y2="263.01"/><line class="cls-5" x1="15.92" y1="166.23" x2="68.68" y2="189.68"/><line class="cls-5" x1="95.3" y1="183.59" x2="79.95" y2="218.52"/><path class="cls-2" d="M325.67,315.24,372.05,12.51S338.54,30.57,329.71,70.3l18.05,12.77-18.57-9.39L319,140.25l17.89,13.9-23.71-11.38s-5.36,70.43-7.89,87l-2.82,18.43,17.65,15.4-18.46-10.14S298.31,275.25,325.67,315.24Z"/><path class="cls-2" d="M325.67,315.24,372.05,12.51s23.24,18.06,22,74.53l-21.6,8.28,21.08-4.47L380.16,178.1,358.94,186l26-3.69s-8.22,38.92-10.75,55.46-7.13,25.69-7.13,25.69S351.26,301.45,325.67,315.24Z"/><path class="cls-6" d="M282.9,221.36l2.59-9.43a91.35,91.35,0,0,0,1.72-27.18l-36.12-1.1,34.12-11.6a92.92,92.92,0,0,0-18.62-37.9L237.73,140l21.69-13.76L220.14,86.89l-31.2,44.87A88.49,88.49,0,0,0,180.87,146l-3.7,9.69a88.28,88.28,0,0,0-4,23.92l37.44,6.15L173.73,193a94.55,94.55,0,0,0,13.77,38.92l19.22-5.52-13.09,14.2a94.74,94.74,0,0,0,45.25,31.31h0A86.82,86.82,0,0,0,282.9,221.36Z"/><line class="cls-7" x1="219.88" y1="87.41" x2="244.19" y2="319.6"/><path class="cls-2" d="M139.38,159.14s-28.57-37.31-36.91-25S139.38,159.14,139.38,159.14Z"/><path class="cls-2" d="M135.23,137.53s-28.57-37.31-36.91-25S135.23,137.53,135.23,137.53Z"/><path class="cls-2" d="M131.08,115.92s-28.58-37.31-36.91-25S131.08,115.92,131.08,115.92Z"/><path class="cls-2" d="M126.92,94.31S98.35,57,90,69.3,126.92,94.31,126.92,94.31Z"/><path class="cls-2" d="M122.77,72.7s-28.57-37.32-36.91-25S122.77,72.7,122.77,72.7Z"/><path class="cls-2" d="M139.32,159.16s12.71-45.25,25-36.91S139.32,159.16,139.32,159.16Z"/><path class="cls-2" d="M135.17,137.54s12.71-45.24,25-36.91S135.17,137.54,135.17,137.54Z"/><path class="cls-2" d="M131,115.93S143.73,70.69,156,79,131,115.93,131,115.93Z"/><path class="cls-2" d="M126.86,94.32s12.71-45.25,25-36.91S126.86,94.32,126.86,94.32Z"/><path class="cls-2" d="M122.71,72.71s12.71-45.25,25-36.91S122.71,72.71,122.71,72.71Z"/><line class="cls-2" x1="118.78" y1="52.17" x2="147.69" y2="202.61"/><path class="cls-2" d="M120.7,62s-23-41-8.42-43.78S120.7,62,120.7,62Z"/><path class="cls-2" d="M441.61,166.74s2.95-61.54-15.8-56.27S441.61,166.74,441.61,166.74Z"/><path class="cls-2" d="M455.74,141.58S458.69,80,439.93,85.31,455.74,141.58,455.74,141.58Z"/><path class="cls-2" d="M469.86,116.42s2.95-61.54-15.81-56.27S469.86,116.42,469.86,116.42Z"/><path class="cls-2" d="M484,91.27S486.93,29.72,468.17,35,484,91.27,484,91.27Z"/><path class="cls-2" d="M498.1,66.11s2.95-61.54-15.8-56.27S498.1,66.11,498.1,66.11Z"/><path class="cls-2" d="M441.55,166.7s51-34.57,56.27-15.81S441.55,166.7,441.55,166.7Z"/><path class="cls-2" d="M455.67,141.54s51-34.56,56.27-15.81S455.67,141.54,455.67,141.54Z"/><path class="cls-2" d="M469.79,116.39s51-34.57,56.27-15.81S469.79,116.39,469.79,116.39Z"/><path class="cls-2" d="M483.91,91.23s51-34.57,56.28-15.81S483.91,91.23,483.91,91.23Z"/><path class="cls-2" d="M498,66.07s51-34.57,56.27-15.81S498,66.07,498,66.07Z"/><line class="cls-2" x1="511.47" y1="42.18" x2="413.16" y2="217.3"/><path class="cls-6" d="M232.5,252.7l-1.85-9.14a86.88,86.88,0,0,0-10.2-23.85l-31.19,14.58,24-24.52a88.64,88.64,0,0,0-32.11-24.24l-22,17.36,12.54-21-50.3-16.59-7.27,51.55a84.5,84.5,0,0,0-.76,15.57l1,9.82a84.39,84.39,0,0,0,6.84,22.07l34.49-10.84-28.23,22a89.91,89.91,0,0,0,28.41,27.19l14-12.95-5,17.7a90.22,90.22,0,0,0,51.93,7.19l.07-.09A82.44,82.44,0,0,0,232.5,252.7Z"/><line class="cls-7" x1="121.39" y1="165.84" x2="219.82" y2="319.6"/><polygon class="cls-2" points="271.89 124.59 258.42 111.12 271.89 111.12 271.89 124.59"/><path class="cls-8" d="M225.55,78.26V45.39a32.87,32.87,0,0,0,0,65.73h32.87Z"/><g class="cls-9"><circle class="cls-6" cx="225.55" cy="78.26" r="24.65"/></g><path class="cls-10" d="M225.55,78.26V45.39a32.87,32.87,0,0,0,0,65.73h32.87Z"/><path class="cls-2" d="M291.29,78.26H274.85V49.79A32.84,32.84,0,0,1,291.29,78.26Z"/><path class="cls-6" d="M274.85,49.79V78.26h-49.3V45.39h32.87A32.65,32.65,0,0,1,274.85,49.79Z"/><polygon class="cls-2" points="225.55 78.26 225.55 111.12 258.42 111.12 225.55 78.26"/><line class="cls-2" x1="225.55" y1="70.04" x2="274.85" y2="70.04"/><path class="cls-10" d="M219.09,65.91a3,3,0,0,0-6,0"/><line class="cls-5" x1="41.94" y1="120.17" x2="112.92" y2="305.32"/><line class="cls-5" x1="371.95" y1="12.39" x2="325.68" y2="315.09"/><path class="cls-2" d="M433.58,236.66c50.87-30.38-28.39-84.46-28.39-84.46S374.7,243.18,433.58,236.66Z"/><path class="cls-2" d="M449.57,265c49.83,32,63-63,63-63S417.53,215.2,449.57,265Z"/><line class="cls-5" x1="417.8" y1="190.72" x2="442.17" y2="265.13"/><line class="cls-5" x1="483.22" y1="230.92" x2="445.59" y2="268.55"/><path class="cls-2" d="M380.54,236.77s13.17,95,63,63C475.59,249.94,380.54,236.77,380.54,236.77Z"/><line class="cls-5" x1="412.24" y1="269.4" x2="450.29" y2="307.46"/><path class="cls-6" d="M257.72,306.4c49.84,32,63-63,63-63S225.69,256.57,257.72,306.4Z"/><line class="cls-6" x1="291.38" y1="272.28" x2="244.19" y2="319.6"/><path class="cls-11" d="M585.45,215.72,442.58,318.8S451.2,239.72,585.45,215.72Z"/><path class="cls-11" d="M585.45,215.72,442.58,318.8S520.34,335.56,585.45,215.72Z"/><line class="cls-11" x1="502.46" y1="255.29" x2="502.46" y2="274.97"/><line class="cls-11" x1="471.25" y1="277.95" x2="471.25" y2="297.63"/><line class="cls-11" x1="499.35" y1="298.18" x2="480.64" y2="292.07"/><path class="cls-11" d="M-61.62,232.72l154.8,84.1S18.18,343.32-61.62,232.72Z"/><path class="cls-11" d="M-61.62,232.72l154.8,84.1S74.59,239.48-61.62,232.72Z"/><line class="cls-11" x1="10" y1="290.37" x2="27.73" y2="281.85"/><line class="cls-11" x1="43.95" y1="308.69" x2="61.68" y2="300.16"/><line class="cls-11" x1="50" y1="274.6" x2="52.6" y2="294.11"/><line class="cls-11" x1="9.22" y1="252.93" x2="11.81" y2="272.44"/><path class="cls-10" d="M592,143.61c-34.51-16-63.28,62.14-63.28,62.14-20,43.18-44.6,16.26-44.6,16.26"/><path class="cls-12" d="M405.42,45.29S422,29,410.86,25.85,405.42,45.29,405.42,45.29Z"/><path class="cls-12" d="M405.42,45.29S389.11,28.65,386,39.78,405.42,45.29,405.42,45.29Z"/><path class="cls-10" d="M392.86,62s20.44-2.65,12.56-16.7"/><path class="cls-12" d="M407.45,52s21.73,8.41,20-3S407.45,52,407.45,52Z"/></g></g></svg>