<svg xmlns="http://www.w3.org/2000/svg" xmlns:xlink="http://www.w3.org/1999/xlink" viewBox="0 0 743 300"><defs><style>.cls-1,.cls-10,.cls-5{fill:none;}.cls-2,.cls-8{fill:#00112c;}.cls-10,.cls-11,.cls-2,.cls-6,.cls-7{stroke:#00112c;}.cls-10,.cls-11,.cls-12,.cls-2,.cls-5,.cls-6,.cls-7{stroke-linecap:round;stroke-linejoin:round;stroke-width:0.79px;}.cls-3{clip-path:url(#clip-path);}.cls-11,.cls-4{fill:#0abf53;}.cls-12,.cls-5{stroke:#fff;}.cls-12,.cls-6{fill:#fff;}.cls-7{fill:#00af60;}.cls-9{clip-path:url(#clip-path-2);}</style><clipPath id="clip-path"><rect class="cls-1" width="743" height="300"/></clipPath><clipPath id="clip-path-2"><path class="cls-2" d="M355.41,69.9V39.57a30.33,30.33,0,1,0,0,60.66h30.33Z"/></clipPath></defs><g id="Layer_1" data-name="Layer 1"><g class="cls-3"><rect class="cls-4" x="-6.13" y="-55.84" width="757.72" height="426.22"/><path class="cls-2" d="M153.3,85.18l82.06,213.36s-91.74,26.82-122.09-52.11S157.6,144.26,153.3,85.18Z"/><path class="cls-2" d="M153.3,85.18l82.06,213.36S321.42,257,291.07,178.05,189.69,131.92,153.3,85.18Z"/><line class="cls-5" x1="136.29" y1="222.15" x2="220.45" y2="259.56"/><line class="cls-5" x1="145.69" y1="170.24" x2="194.38" y2="191.89"/><line class="cls-5" x1="218.96" y1="186.26" x2="204.79" y2="218.5"/><path class="cls-2" d="M431.57,307.77l42.8-279.4S443.45,45,435.3,81.7L452,93.49l-17.14-8.66-9.41,61.43,16.5,12.83L420,148.59s-5,65-7.29,80.28l-2.6,17,16.29,14.22-17-9.36S406.32,270.86,431.57,307.77Z"/><path class="cls-2" d="M431.57,307.77l42.8-279.4S495.82,45,494.68,97.15l-19.94,7.65,19.46-4.13L481.86,181.2l-19.59,7.3,24-3.4s-7.58,35.91-9.92,51.18S469.79,260,469.79,260,455.19,295.05,431.57,307.77Z"/><path class="cls-6" d="M408.33,202l2.39-8.71a84,84,0,0,0,1.59-25.08l-33.33-1,31.49-10.7a85.88,85.88,0,0,0-17.18-35l-26.65,5.4,20-12.7L350.41,77.87l-28.8,41.41a82.65,82.65,0,0,0-7.45,13.13l-3.41,8.94A81,81,0,0,0,307,163.42l34.55,5.69-34,6.67a87.24,87.24,0,0,0,12.7,35.91L338,206.6l-12.08,13.1a87.34,87.34,0,0,0,41.77,28.9h0A80.1,80.1,0,0,0,408.33,202Z"/><line class="cls-7" x1="350.17" y1="78.35" x2="372.61" y2="292.65"/><path class="cls-2" d="M259.64,163.7s-26.37-34.44-34.07-23.08S259.64,163.7,259.64,163.7Z"/><path class="cls-2" d="M255.81,143.76s-26.38-34.44-34.07-23.09S255.81,143.76,255.81,143.76Z"/><path class="cls-2" d="M252,123.81s-26.37-34.44-34.06-23.08S252,123.81,252,123.81Z"/><path class="cls-2" d="M248.14,103.86s-26.37-34.43-34.07-23.08S248.14,103.86,248.14,103.86Z"/><path class="cls-2" d="M244.31,83.92s-26.37-34.44-34.07-23.09S244.31,83.92,244.31,83.92Z"/><path class="cls-2" d="M259.58,163.71s11.73-41.76,23.09-34.06S259.58,163.71,259.58,163.71Z"/><path class="cls-2" d="M255.75,143.77S267.48,102,278.83,109.7,255.75,143.77,255.75,143.77Z"/><path class="cls-2" d="M251.92,123.82S263.65,82.06,275,89.76,251.92,123.82,251.92,123.82Z"/><path class="cls-2" d="M248.09,103.87s11.72-41.75,23.08-34.06S248.09,103.87,248.09,103.87Z"/><path class="cls-2" d="M244.25,83.93S256,42.17,267.34,49.86,244.25,83.93,244.25,83.93Z"/><line class="cls-2" x1="240.63" y1="64.98" x2="267.31" y2="203.82"/><path class="cls-2" d="M242.39,74s-21.23-37.82-7.76-40.41S242.39,74,242.39,74Z"/><path class="cls-2" d="M538.58,170.71s2.72-56.8-14.59-51.93S538.58,170.71,538.58,170.71Z"/><path class="cls-2" d="M551.62,147.49s2.72-56.8-14.6-51.93S551.62,147.49,551.62,147.49Z"/><path class="cls-2" d="M564.65,124.27s2.72-56.8-14.59-51.93S564.65,124.27,564.65,124.27Z"/><path class="cls-2" d="M577.68,101.05s2.72-56.8-14.59-51.93S577.68,101.05,577.68,101.05Z"/><path class="cls-2" d="M590.72,77.84S593.44,21,576.13,25.9,590.72,77.84,590.72,77.84Z"/><path class="cls-2" d="M538.52,170.68s47.07-31.91,51.93-14.59S538.52,170.68,538.52,170.68Z"/><path class="cls-2" d="M551.55,147.46s47.07-31.91,51.94-14.59S551.55,147.46,551.55,147.46Z"/><path class="cls-2" d="M564.59,124.24s47.07-31.9,51.93-14.59S564.59,124.24,564.59,124.24Z"/><path class="cls-2" d="M577.62,101s47.07-31.9,51.94-14.59S577.62,101,577.62,101Z"/><path class="cls-2" d="M590.65,77.8s47.08-31.9,51.94-14.59S590.65,77.8,590.65,77.8Z"/><line class="cls-2" x1="603.05" y1="55.75" x2="512.32" y2="217.38"/><path class="cls-2" d="M597.16,66.32s10.73-55.84,26.41-47S597.16,66.32,597.16,66.32Z"/><path class="cls-6" d="M345.58,250.05l-1.7-8.44a80.26,80.26,0,0,0-9.42-22l-28.79,13.46,22.19-22.64a81.92,81.92,0,0,0-29.64-22.37l-20.34,16,11.57-19.4L243,169.37,236.32,217a79.4,79.4,0,0,0-.7,14.37l.94,9.06a77.52,77.52,0,0,0,6.32,20.38l31.83-10L248.65,271a83.26,83.26,0,0,0,26.22,25.09l12.91-11.95-4.65,16.33a83.22,83.22,0,0,0,47.93,6.64l.05-.08A76,76,0,0,0,345.58,250.05Z"/><line class="cls-7" x1="243.03" y1="169.88" x2="333.88" y2="311.8"/><polygon class="cls-2" points="398.17 112.66 385.74 100.23 398.17 100.23 398.17 112.66"/><path class="cls-8" d="M355.41,69.9V39.57a30.33,30.33,0,1,0,0,60.66h30.33Z"/><g class="cls-9"><circle class="cls-6" cx="355.41" cy="69.9" r="22.75"/></g><path class="cls-10" d="M355.41,69.9V39.57a30.33,30.33,0,1,0,0,60.66h30.33Z"/><path class="cls-2" d="M416.08,69.9H400.91V43.63A30.3,30.3,0,0,1,416.08,69.9Z"/><path class="cls-6" d="M400.91,43.63V69.9h-45.5V39.57h30.33A30.1,30.1,0,0,1,400.91,43.63Z"/><polygon class="cls-2" points="355.41 69.9 355.41 100.23 385.74 100.23 355.41 69.9"/><line class="cls-2" x1="355.41" y1="62.32" x2="400.91" y2="62.32"/><path class="cls-10" d="M349.44,58.51a2.76,2.76,0,1,0-5.51,0"/><line class="cls-5" x1="169.7" y1="127.73" x2="235.21" y2="298.61"/><line class="cls-5" x1="474.28" y1="28.25" x2="431.58" y2="307.63"/><path class="cls-2" d="M530.28,241.86c46.94-28-26.21-78-26.21-78S475.93,247.88,530.28,241.86Z"/><path class="cls-2" d="M545,268.05c46,29.57,58.15-58.15,58.15-58.15S515.46,222.06,545,268.05Z"/><line class="cls-5" x1="515.71" y1="199.46" x2="538.2" y2="268.13"/><line class="cls-5" x1="576.09" y1="236.56" x2="541.36" y2="271.29"/><path class="cls-2" d="M481.32,242s12.16,87.72,58.16,58.15C569,254.12,481.32,242,481.32,242Z"/><line class="cls-5" x1="510.58" y1="272.08" x2="545.7" y2="307.2"/><path class="cls-6" d="M368.86,299.61c46,29.57,58.15-58.15,58.15-58.15S339.29,253.62,368.86,299.61Z"/><line class="cls-6" x1="399.92" y1="268.12" x2="356.37" y2="311.8"/><path class="cls-11" d="M695.28,212.46,563.42,307.59S571.37,234.61,695.28,212.46Z"/><path class="cls-11" d="M695.28,212.46,563.42,307.59S635.19,323.06,695.28,212.46Z"/><line class="cls-11" x1="618.68" y1="248.98" x2="618.68" y2="267.14"/><line class="cls-11" x1="648.68" y1="232.4" x2="648.68" y2="245.42"/><line class="cls-11" x1="589.87" y1="269.89" x2="589.87" y2="288.05"/><line class="cls-11" x1="615.81" y1="288.56" x2="598.54" y2="282.92"/><line class="cls-11" x1="650.14" y1="263.3" x2="632.88" y2="257.66"/><path class="cls-11" d="M30.72,227,173.6,304.66S104.37,329.12,30.72,227Z"/><path class="cls-11" d="M30.72,227,173.6,304.66S156.44,233.28,30.72,227Z"/><line class="cls-11" x1="96.82" y1="280.25" x2="113.19" y2="272.38"/><line class="cls-11" x1="68.89" y1="260.4" x2="80.63" y2="254.76"/><line class="cls-11" x1="128.15" y1="297.16" x2="144.52" y2="289.29"/><line class="cls-11" x1="133.74" y1="265.7" x2="136.14" y2="283.7"/><line class="cls-11" x1="96.1" y1="245.7" x2="98.5" y2="263.7"/><path class="cls-12" d="M677.35,149.37s32.63-38.71,41.34-15.08S677.35,149.37,677.35,149.37Z"/><path class="cls-12" d="M677.35,149.37s38.88,32.65,15.21,41.28S677.35,149.37,677.35,149.37Z"/><path class="cls-10" d="M677.35,149.37C645.5,134.6,619,206.71,619,206.71c-18.48,39.86-41.17,15-41.17,15"/><path class="cls-12" d="M619,206.71s32.63-38.7,41.34-15.07S619,206.71,619,206.71Z"/><path class="cls-12" d="M619,206.71s-19.44-16.32-7.61-20.64S619,206.71,619,206.71Z"/><path class="cls-12" d="M657.48,119.45s5.33-26.58,15.51-17.73S657.48,119.45,657.48,119.45Z"/><path class="cls-12" d="M657.48,119.45s26.66,5.31,17.78,15.46S657.48,119.45,657.48,119.45Z"/><path class="cls-10" d="M644.85,161.42s-6.13-40.69,12.63-42"/><path class="cls-12" d="M647,126s-22.09-15.86-9.8-21.43S647,126,647,126Z"/><path class="cls-12" d="M84.67,137.26s-6.1-35.34-19.88-24S84.67,137.26,84.67,137.26Z"/><path class="cls-12" d="M84.67,137.26s-35.46,6.06-24.08,19.8S84.67,137.26,84.67,137.26Z"/><path class="cls-10" d="M84.67,137.26c24.76,2.38,15.18,56,15.18,56-3,31,19.8,23.91,19.8,23.91"/><path class="cls-12" d="M99.85,193.23s-6.09-35.34-19.88-24S99.85,193.23,99.85,193.23Z"/><path class="cls-12" d="M107.53,126.08s6.25-18.16-3.14-16.39S107.53,126.08,107.53,126.08Z"/><path class="cls-12" d="M107.53,126.08s-18.21-6.29-16.41,3.09S107.53,126.08,107.53,126.08Z"/><path class="cls-10" d="M100.23,156.27s18.31-22.69,7.3-30.19"/><path class="cls-12" d="M111.64,133.83s19.18-1.79,13.66-9.59S111.64,133.83,111.64,133.83Z"/><path class="cls-12" d="M505.18,58.62s15.28-15,5-17.94S505.18,58.62,505.18,58.62Z"/><path class="cls-12" d="M505.18,58.62s-15.06-15.35-17.93-5.08S505.18,58.62,505.18,58.62Z"/><path class="cls-10" d="M493.58,74s18.87-2.45,11.6-15.42"/><path class="cls-12" d="M507.05,64.82S527.1,72.58,525.47,62,507.05,64.82,507.05,64.82Z"/></g></g></svg>