<svg xmlns="http://www.w3.org/2000/svg" xmlns:xlink="http://www.w3.org/1999/xlink" viewBox="0 0 983 300"><defs><style>.cls-1,.cls-10,.cls-5{fill:none;}.cls-2,.cls-8{fill:#00112c;}.cls-10,.cls-11,.cls-2,.cls-6,.cls-7{stroke:#00112c;}.cls-10,.cls-11,.cls-12,.cls-2,.cls-5,.cls-6,.cls-7{stroke-linecap:round;stroke-linejoin:round;stroke-width:1.04px;}.cls-3{clip-path:url(#clip-path);}.cls-11,.cls-4{fill:#0abf53;}.cls-12,.cls-5{stroke:#fff;}.cls-12,.cls-6{fill:#fff;}.cls-7{fill:#00af60;}.cls-9{clip-path:url(#clip-path-2);}</style><clipPath id="clip-path"><rect class="cls-1" width="983" height="300"/></clipPath><clipPath id="clip-path-2"><path class="cls-2" d="M464.71,81v-40a40,40,0,1,0,0,80.08h40Z"/></clipPath></defs><g id="Layer_1" data-name="Layer 1"><g class="cls-3"><rect class="cls-4" x="-12.53" y="-85.02" width="1000.21" height="562.62"/><path class="cls-2" d="M197.92,101.12,306.24,382.76S185.15,418.16,145.08,314,203.6,179.11,197.92,101.12Z"/><path class="cls-2" d="M197.92,101.12,306.24,382.76s113.6-54.86,73.54-159S246,162.82,197.92,101.12Z"/><line class="cls-5" x1="175.46" y1="281.92" x2="286.57" y2="331.31"/><line class="cls-5" x1="187.88" y1="213.41" x2="252.15" y2="241.97"/><line class="cls-5" x1="284.59" y1="234.55" x2="265.89" y2="277.11"/><path class="cls-2" d="M565.24,394.94,621.75,26.13s-40.83,22-51.59,70.4l22,15.56-22.63-11.43-12.42,81.09,21.79,16.94L550,184.83s-6.53,85.8-9.61,106L537,313.24,558.47,332,536,319.65S531.91,346.23,565.24,394.94Z"/><path class="cls-2" d="M565.24,394.94,621.75,26.13s28.31,22,26.8,90.8L622.23,127l25.69-5.45-16.28,106.3-25.86,9.63L637.49,233s-10,47.41-13.1,67.57-8.69,31.29-8.69,31.29S596.42,378.15,565.24,394.94Z"/><path class="cls-6" d="M534.57,255.3l3.15-11.5a111,111,0,0,0,2.11-33.11l-44-1.33,41.57-14.14A113.33,113.33,0,0,0,514.71,149l-35.17,7.12L506,139.4,458.12,91.47l-38,54.66a108.22,108.22,0,0,0-9.83,17.33l-4.5,11.8a107.19,107.19,0,0,0-4.91,29.14l45.61,7.5-44.89,8.81a115.18,115.18,0,0,0,16.76,47.41l23.42-6.72-15.95,17.3A115.38,115.38,0,0,0,481,316.84h0A105.77,105.77,0,0,0,534.57,255.3Z"/><line class="cls-7" x1="457.8" y1="92.1" x2="487.42" y2="374.98"/><path class="cls-2" d="M338.29,204.77s-34.81-45.46-45-30.47S338.29,204.77,338.29,204.77Z"/><path class="cls-2" d="M333.23,178.44S298.42,133,288.27,148,333.23,178.44,333.23,178.44Z"/><path class="cls-2" d="M328.17,152.11s-34.81-45.46-45-30.47S328.17,152.11,328.17,152.11Z"/><path class="cls-2" d="M323.11,125.78s-34.81-45.45-45-30.47S323.11,125.78,323.11,125.78Z"/><path class="cls-2" d="M318.05,99.46S283.24,54,273.09,69,318.05,99.46,318.05,99.46Z"/><path class="cls-2" d="M338.22,204.79s15.48-55.13,30.47-45S338.22,204.79,338.22,204.79Z"/><path class="cls-2" d="M333.16,178.46s15.48-55.13,30.47-45S333.16,178.46,333.16,178.46Z"/><path class="cls-2" d="M328.1,152.13s15.48-55.13,30.47-45S328.1,152.13,328.1,152.13Z"/><path class="cls-2" d="M323,125.8s15.48-55.12,30.47-45S323,125.8,323,125.8Z"/><path class="cls-2" d="M318,99.47s15.48-55.12,30.47-45S318,99.47,318,99.47Z"/><line class="cls-2" x1="313.19" y1="74.45" x2="348.41" y2="257.73"/><path class="cls-2" d="M315.53,86.41s-28-49.92-10.25-53.34S315.53,86.41,315.53,86.41Z"/><path class="cls-2" d="M706.5,214s3.59-75-19.26-68.56S706.5,214,706.5,214Z"/><path class="cls-2" d="M723.71,183.38s3.59-75-19.26-68.56S723.71,183.38,723.71,183.38Z"/><path class="cls-2" d="M740.91,152.73s3.59-75-19.26-68.56S740.91,152.73,740.91,152.73Z"/><path class="cls-2" d="M758.12,122.08s3.59-75-19.26-68.56S758.12,122.08,758.12,122.08Z"/><path class="cls-2" d="M775.32,91.43s3.6-75-19.26-68.56S775.32,91.43,775.32,91.43Z"/><path class="cls-2" d="M706.42,214s62.13-42.11,68.55-19.26S706.42,214,706.42,214Z"/><path class="cls-2" d="M723.62,183.33s62.14-42.11,68.56-19.26S723.62,183.33,723.62,183.33Z"/><path class="cls-2" d="M740.83,152.68s62.14-42.11,68.56-19.26S740.83,152.68,740.83,152.68Z"/><path class="cls-2" d="M758,122s62.14-42.11,68.56-19.26S758,122,758,122Z"/><path class="cls-2" d="M775.24,91.38s62.14-42.11,68.56-19.26S775.24,91.38,775.24,91.38Z"/><line class="cls-2" x1="791.61" y1="62.27" x2="671.84" y2="275.63"/><path class="cls-2" d="M783.83,76.23S798,2.51,818.68,14.13,783.83,76.23,783.83,76.23Z"/><path class="cls-6" d="M451.74,318.75l-2.25-11.13a106.08,106.08,0,0,0-12.43-29.06l-38,17.76,29.28-29.87a107.94,107.94,0,0,0-39.12-29.54l-26.85,21.16,15.28-25.6-61.28-20.21-8.86,62.8a104,104,0,0,0-.92,19l1.24,12a102.22,102.22,0,0,0,8.34,26.9l42-13.21-34.39,26.76a109.54,109.54,0,0,0,34.61,33.12l17-15.76-6.13,21.55a109.85,109.85,0,0,0,63.27,8.76l.07-.1A100.42,100.42,0,0,0,451.74,318.75Z"/><line class="cls-7" x1="316.37" y1="212.93" x2="436.29" y2="400.26"/><polygon class="cls-2" points="521.16 137.4 504.75 120.99 521.16 120.99 521.16 137.4"/><path class="cls-8" d="M464.71,81v-40a40,40,0,1,0,0,80.08h40Z"/><g class="cls-9"><circle class="cls-6" cx="464.71" cy="80.95" r="30.03"/></g><path class="cls-10" d="M464.71,81v-40a40,40,0,1,0,0,80.08h40Z"/><path class="cls-2" d="M544.79,81h-20V46.27A40,40,0,0,1,544.79,81Z"/><path class="cls-6" d="M524.77,46.27V81H464.71v-40h40A39.81,39.81,0,0,1,524.77,46.27Z"/><polygon class="cls-2" points="464.71 80.95 464.71 120.99 504.75 120.99 464.71 80.95"/><line class="cls-2" x1="464.71" y1="70.94" x2="524.77" y2="70.94"/><path class="cls-10" d="M456.83,65.91a3.64,3.64,0,0,0-7.27,0"/><line class="cls-5" x1="219.58" y1="157.29" x2="306.05" y2="382.86"/><line class="cls-5" x1="621.63" y1="25.98" x2="565.25" y2="394.76"/><path class="cls-2" d="M696.72,299.21c62-37-34.6-102.89-34.6-102.89S625,307.15,696.72,299.21Z"/><path class="cls-2" d="M716.19,333.79C776.9,372.82,793,257,793,257S677.16,273.07,716.19,333.79Z"/><line class="cls-5" x1="677.48" y1="243.24" x2="707.18" y2="333.89"/><line class="cls-5" x1="757.19" y1="292.21" x2="711.35" y2="338.06"/><path class="cls-2" d="M632.1,299.34s16,115.79,76.76,76.76C747.89,315.39,632.1,299.34,632.1,299.34Z"/><path class="cls-11" d="M931.21,245.35,757.16,370.93S767.66,274.58,931.21,245.35Z"/><path class="cls-11" d="M931.21,245.35,757.16,370.93S851.9,391.34,931.21,245.35Z"/><line class="cls-11" x1="830.11" y1="293.55" x2="830.11" y2="317.52"/><line class="cls-11" x1="869.7" y1="271.67" x2="869.7" y2="288.86"/><path class="cls-11" d="M21.39,250.25,210,352.71S118.6,385,21.39,250.25Z"/><path class="cls-11" d="M21.39,250.25,210,352.71S187.33,258.48,21.39,250.25Z"/><line class="cls-11" x1="71.76" y1="294.28" x2="87.26" y2="286.83"/><line class="cls-11" x1="107.68" y1="274.87" x2="110.85" y2="298.63"/><path class="cls-12" d="M889.68,185.85s43.07-51.09,54.56-19.9S889.68,185.85,889.68,185.85Z"/><path class="cls-12" d="M889.68,185.85S941,229,909.76,240.34,889.68,185.85,889.68,185.85Z"/><path class="cls-10" d="M889.68,185.85c-42-19.49-77.09,75.7-77.09,75.7-24.39,52.61-54.34,19.81-54.34,19.81"/><path class="cls-12" d="M812.59,261.55s43.07-51.09,54.56-19.89S812.59,261.55,812.59,261.55Z"/><path class="cls-12" d="M812.59,261.55s-25.66-21.55-10-27.25S812.59,261.55,812.59,261.55Z"/><path class="cls-12" d="M863.45,146.36s7-35.09,20.48-23.41S863.45,146.36,863.45,146.36Z"/><path class="cls-12" d="M863.45,146.36s35.2,7,23.47,20.4S863.45,146.36,863.45,146.36Z"/><path class="cls-10" d="M846.78,201.77s-8.1-53.72,16.67-55.41"/><path class="cls-12" d="M849.55,155S820.4,134,836.61,126.66,849.55,155,849.55,155Z"/><path class="cls-12" d="M107.33,169.87s-8-46.65-26.24-31.69S107.33,169.87,107.33,169.87Z"/><path class="cls-12" d="M107.33,169.87s-46.81,8-31.78,26.14S107.33,169.87,107.33,169.87Z"/><path class="cls-10" d="M107.33,169.87c32.69,3.13,20,73.88,20,73.88-3.92,40.9,26.14,31.56,26.14,31.56"/><path class="cls-12" d="M127.37,243.75s-8.05-46.65-26.24-31.69S127.37,243.75,127.37,243.75Z"/><path class="cls-12" d="M137.5,155.12s8.25-24-4.14-21.65S137.5,155.12,137.5,155.12Z"/><path class="cls-12" d="M137.5,155.12s-24-8.32-21.65,4.07S137.5,155.12,137.5,155.12Z"/><path class="cls-10" d="M127.87,195s24.17-30,9.63-39.84"/><path class="cls-12" d="M142.93,165.34s25.31-2.36,18-12.66S142.93,165.34,142.93,165.34Z"/><path class="cls-12" d="M662.41,66.06S682.58,46.22,669,42.38,662.41,66.06,662.41,66.06Z"/><path class="cls-12" d="M662.41,66.06s-19.87-20.27-23.67-6.7S662.41,66.06,662.41,66.06Z"/><path class="cls-10" d="M647.1,86.41s24.9-3.22,15.31-20.35"/><path class="cls-12" d="M664.87,74.24s26.48,10.24,24.33-3.67S664.87,74.24,664.87,74.24Z"/></g></g></svg>