<svg xmlns="http://www.w3.org/2000/svg" xmlns:xlink="http://www.w3.org/1999/xlink" viewBox="0 0 1500 300"><defs><style>.cls-1,.cls-10,.cls-19,.cls-2,.cls-21,.cls-25{fill:none;}.cls-10,.cls-15,.cls-16,.cls-17,.cls-2,.cls-26,.cls-6,.cls-7,.cls-8,.cls-9{stroke:#00112c;}.cls-10,.cls-2,.cls-26,.cls-28,.cls-6,.cls-8{stroke-linecap:round;}.cls-15,.cls-16,.cls-17,.cls-19,.cls-2,.cls-21,.cls-25,.cls-26,.cls-28,.cls-6,.cls-7,.cls-8,.cls-9{stroke-linejoin:round;}.cls-10,.cls-15,.cls-16,.cls-17,.cls-19,.cls-2,.cls-21,.cls-25,.cls-26,.cls-27,.cls-28,.cls-6,.cls-7,.cls-8,.cls-9{stroke-width:1.1px;}.cls-28,.cls-3,.cls-6,.cls-7{fill:#00112c;}.cls-4{clip-path:url(#clip-path);}.cls-17,.cls-26,.cls-5{fill:#05e4ad;}.cls-12,.cls-16,.cls-8{fill:#fff;}.cls-14,.cls-27,.cls-9{fill:#ffda00;}.cls-10,.cls-27{stroke-miterlimit:10;}.cls-11{clip-path:url(#clip-path-2);}.cls-13{clip-path:url(#clip-path-3);}.cls-15{fill:#fcfcfc;}.cls-18{clip-path:url(#clip-path-4);}.cls-19,.cls-21{stroke:#05e4ad;}.cls-19{stroke-linecap:square;}.cls-20{clip-path:url(#clip-path-5);}.cls-22{clip-path:url(#clip-path-6);}.cls-23{clip-path:url(#clip-path-7);}.cls-24{clip-path:url(#clip-path-8);}.cls-25,.cls-27{stroke:#ffda00;}.cls-28{stroke:#fff;}</style><clipPath id="clip-path"><rect class="cls-1" width="1500" height="300"/></clipPath><clipPath id="clip-path-2"><polygon class="cls-2" points="1329.19 225 1315.38 197.97 1343 197.97 1329.19 225"/></clipPath><clipPath id="clip-path-3"><polygon class="cls-2" points="1384.35 225 1370.54 197.97 1398.16 197.97 1384.35 225"/></clipPath><clipPath id="clip-path-4"><path class="cls-3" d="M1075.28,109.53l-118-118s54.29-1.47,86.87,31.11S1075.28,109.53,1075.28,109.53Z"/></clipPath><clipPath id="clip-path-5"><path class="cls-3" d="M1075.28,109.53H908.43S945.78,70.1,991.85,70.1,1075.28,109.53,1075.28,109.53Z"/></clipPath><clipPath id="clip-path-6"><path class="cls-3" d="M1242.13,109.53H1075.28s37.35-39.43,83.42-39.43S1242.13,109.53,1242.13,109.53Z"/></clipPath><clipPath id="clip-path-7"><path class="cls-3" d="M1075.28,109.53l118-118s-54.3-1.47-86.88,31.11S1075.28,109.53,1075.28,109.53Z"/></clipPath><clipPath id="clip-path-8"><path class="cls-3" d="M957.3,227.51l118-118s-54.3-1.47-86.88,31.11S957.3,227.51,957.3,227.51Z"/></clipPath></defs><g id="Layer_1" data-name="Layer 1"><g class="cls-4"><rect class="cls-5" x="-6.46" y="-110.06" width="1512.91" height="851.01"/><path class="cls-6" d="M782.08,265.29,613.46,433.92A137.69,137.69,0,0,1,782.08,265.29Z"/><polygon class="cls-7" points="1503.51 220.75 1415.13 220.75 1390.99 244.89 1334.53 244.89 1304.72 274.7 1247.35 274.7 1152.41 300.12 1503.51 300.12 1503.51 220.75"/><polygon class="cls-7" points="205.74 222.36 294.11 222.36 318.25 246.5 374.71 246.5 404.52 276.31 461.89 276.31 556.83 301.73 205.74 301.73 205.74 222.36"/><path class="cls-8" d="M908.92,28.65s-57,130.08-57,428.07l57-43.84,57,43.84C965.94,158.73,908.92,28.65,908.92,28.65Z"/><path class="cls-6" d="M953.64,233,855.5,331.09c1.66-27.39,3.79-52.77,6.24-76.23L945,171.67C948,190.2,951,210.62,953.64,233Z"/><line class="cls-9" x1="761.98" y1="251.66" x2="744.03" y2="257.64"/><line class="cls-9" x1="761.98" y1="257.64" x2="744.03" y2="251.66"/><path class="cls-8" d="M763.85,96.73h-21.7L741,117.09h0A322.3,322.3,0,0,0,691.53,128l-26.42,8L647.19,76.64l1.37-10-3.22-12.41-.76-2.89a3.38,3.38,0,0,0-2.42,4.13l-2.26-8.67c-2.16-1.46-4,.25-3.54,1.9l-.84-3.23c-2.17-1.46-4,.24-3.55,1.89l.75,2.9c-.43-1.65-2.84-2.26-4,.07l1.29,5c-.43-1.65-2.85-2.26-4,.07l.65,2.49,1.8,6.95,7.79,15.34,11.39,64.07a11,11,0,0,0,11,9.11l56.84-.55s8,38.69,8,89.91v32.25h59.26V242.68c0-51.22,8-89.91,8-89.91l16.77,63.65,6.56,55-3.85,9.35v15.81a3.39,3.39,0,0,0,3.39-3.39v8.95c1.73,2,3.91.77,3.91-.94v3.34c1.73,2,3.91.76,3.91-.94v-3c0,1.7,2.19,2.9,3.91.94v-5.13c0,1.7,2.19,2.9,3.91.94v-9.76l-3.67-16.8V240.2a217.87,217.87,0,0,0-5.13-47L809.5,144.33a24.61,24.61,0,0,0-16.4-18.09l-28.05-9.15-1.2-20.36h-21.7"/><path class="cls-8" d="M813.45,290.13v11.08a2,2,0,0,0,2,2h0a2,2,0,0,0,2-2V290"/><path class="cls-8" d="M817.36,290.13v13.48a2,2,0,0,0,2,1.95h0a2,2,0,0,0,1.95-1.95V290"/><path class="cls-8" d="M821.27,290.13v10.49a2,2,0,0,0,2,1.95h0a2,2,0,0,0,1.95-1.95V290"/><path class="cls-8" d="M825.18,290.13v6.3a2,2,0,0,0,2,1.95h0a2,2,0,0,0,2-1.95v-8.82"/><circle class="cls-8" cx="772.63" cy="161.74" r="1.2"/><circle class="cls-8" cx="753.24" cy="230.72" r="1.2"/><circle class="cls-8" cx="733.37" cy="161.74" r="1.2"/><line class="cls-8" x1="744.91" y1="170.07" x2="761.57" y2="153.42"/><line class="cls-8" x1="744.91" y1="176.05" x2="761.57" y2="159.4"/><line class="cls-8" x1="744.91" y1="182.04" x2="761.57" y2="165.38"/><line class="cls-8" x1="744.91" y1="164.09" x2="761.57" y2="147.43"/><line class="cls-8" x1="744.91" y1="158.1" x2="761.57" y2="141.45"/><path class="cls-8" d="M642.93,58.43,640.14,47.7a2,2,0,0,0-2.38-1.4h0a2,2,0,0,0-1.4,2.39l2.82,10.85"/><path class="cls-8" d="M639.14,59.41l-3.39-13a2,2,0,0,0-2.38-1.4h0a2,2,0,0,0-1.4,2.38l3.42,13.17"/><path class="cls-8" d="M635.36,60.39l-2.64-10.14a2,2,0,0,0-2.38-1.4h0a1.94,1.94,0,0,0-1.4,2.38l2.67,10.27"/><path class="cls-8" d="M631.57,61.38,630,55.29a2,2,0,0,0-2.38-1.4h0a1.94,1.94,0,0,0-1.4,2.38l2.21,8.53"/><path class="cls-8" d="M768.86,77h3a3,3,0,0,1,3,3h0a15,15,0,0,1-6.76,12.54l-.94.61Z"/><path class="cls-8" d="M736.49,77h-3a3,3,0,0,0-3,3h0a15,15,0,0,0,6.76,12.54l.93.61Z"/><path class="cls-8" d="M739.62,64.82,735.29,77l.71,8.11a42.74,42.74,0,0,0,8.38,21.94h0a10.78,10.78,0,0,0,8.62,4.3h0a10.78,10.78,0,0,0,8.62-4.3h0a40.32,40.32,0,0,0,8-22l.44-8.08-4.63-12.19Z"/><path class="cls-6" d="M770.06,77l-4.63-12.19h0a36.68,36.68,0,0,1-25.54.1l-.27-.1L735.29,77h-3V73.14a20.37,20.37,0,0,1,20.38-20.37h0a20.37,20.37,0,0,1,20.37,20.37V77Z"/><line class="cls-10" x1="737.52" y1="81.39" x2="735.74" y2="81.39"/><circle class="cls-6" cx="743.76" cy="81.39" r="7.13"/><circle class="cls-6" cx="761.59" cy="81.39" r="7.13"/><path class="cls-2" d="M750.89,81.39a1.79,1.79,0,0,1,3.57,0"/><line class="cls-10" x1="769.62" y1="81.39" x2="767.83" y2="81.39"/><path class="cls-9" d="M759.59,102.48h-3.83a2.76,2.76,0,1,1,0-5.52h3.83A26.59,26.59,0,0,0,786.14,70.4v-37a2.77,2.77,0,1,1,5.53,0v37A32.12,32.12,0,0,1,759.59,102.48Z"/><path class="cls-8" d="M798.89,478A3.92,3.92,0,0,0,795,474h-1.36a40.46,40.46,0,0,1-22.67-7h0S782.63,374,782.63,274.93H753c0,36.91,6,99.07,6,99.07l3,93.09L759,478Z"/><path class="cls-8" d="M723.37,274.93H753c0,36.91-6,99.07-6,99.07l-3,93.09L747,478H707.11A3.92,3.92,0,0,1,711,474h1.36a40.44,40.44,0,0,0,22.67-7h0S723.37,374,723.37,274.93"/><path class="cls-9" d="M790.19,311.84H715.81a318.67,318.67,0,0,1,7.56-69.16h59.26A325.59,325.59,0,0,1,790.19,311.84Z"/><line class="cls-9" x1="753" y1="280.33" x2="753" y2="311.84"/><path class="cls-9" d="M765,278.65h0a61,61,0,0,1-23.92,0h0"/><path class="cls-6" d="M806.15,246.73a17.45,17.45,0,0,1-17.45,17.44h-3.81V229.29h3.81A17.44,17.44,0,0,1,806.15,246.73Z"/><rect class="cls-8" x="763.63" y="229.29" width="21.26" height="34.89"/><rect class="cls-6" x="742.38" y="229.29" width="21.25" height="34.89"/><rect class="cls-8" x="721.12" y="229.29" width="21.26" height="34.89"/><path class="cls-6" d="M721.12,229.29v34.88h-3.81a17.44,17.44,0,1,1,0-34.88Z"/><line class="cls-2" x1="1339.41" y1="189.98" x2="1325.6" y2="217.01"/><line class="cls-2" x1="1352.92" y1="196.88" x2="1339.41" y2="189.98"/><g class="cls-11"><rect class="cls-12" x="1318.83" y="211.49" width="20.71" height="13.52"/></g><polygon class="cls-2" points="1329.19 225 1315.38 197.97 1343 197.97 1329.19 225"/><line class="cls-2" x1="1329.19" y1="225" x2="1329.19" y2="244.89"/><line class="cls-2" x1="1394.57" y1="189.98" x2="1380.76" y2="217.01"/><line class="cls-2" x1="1408.09" y1="196.88" x2="1394.57" y2="189.98"/><g class="cls-13"><rect class="cls-14" x="1373.99" y="211.49" width="20.71" height="13.52"/></g><polygon class="cls-2" points="1384.35 225 1370.54 197.97 1398.16 197.97 1384.35 225"/><line class="cls-2" x1="1384.35" y1="225" x2="1384.35" y2="244.89"/><rect class="cls-15" x="1301.5" y="244.89" width="110.47" height="55.23"/><line class="cls-8" x1="1301.5" y1="266.98" x2="1411.97" y2="266.98"/><rect class="cls-9" x="1312.54" y="261.46" width="5.52" height="11.05"/><rect class="cls-9" x="1395.4" y="260.58" width="5.52" height="11.05"/><polygon class="cls-16" points="260.97 301.73 285.83 136.03 309.03 136.03 309.03 159.23 332.23 159.23 332.23 136.03 355.42 136.03 355.42 159.23 378.62 159.23 378.62 136.03 401.82 136.03 426.68 301.73 260.97 301.73"/><path class="cls-6" d="M343.82,260.31h0a16.84,16.84,0,0,0-16.65,14.34l-4.06,27.08h41.43l-4.07-27.08A16.83,16.83,0,0,0,343.82,260.31Z"/><line class="cls-6" x1="343.82" y1="89.63" x2="343.82" y2="136.03"/><polygon class="cls-16" points="454.29 301.73 446.01 246.5 438.28 246.5 438.28 254.23 430.54 254.23 430.54 246.5 422.81 246.5 422.81 254.23 415.08 254.23 415.08 246.5 407.34 246.5 399.06 301.73 454.29 301.73"/><circle class="cls-14" cx="116.72" cy="50.54" r="82.85"/><path class="cls-17" d="M1189.05,481.39c0-265.13-113.77-371.86-113.77-371.86S1228,243.15,1228,481.39"/><path class="cls-3" d="M1075.28,109.53l-118-118s54.29-1.47,86.87,31.11S1075.28,109.53,1075.28,109.53Z"/><g class="cls-18"><path class="cls-19" d="M1075.28,109.53c0-32.52-76.09-118-118-118"/></g><path class="cls-3" d="M1075.28,109.53H908.43S945.78,70.1,991.85,70.1,1075.28,109.53,1075.28,109.53Z"/><g class="cls-20"><path class="cls-21" d="M1075.28,109.53c-22.08-22.07-136.66-30.19-166.85,0"/></g><path class="cls-3" d="M1242.13,109.53H1075.28s37.35-39.43,83.42-39.43S1242.13,109.53,1242.13,109.53Z"/><g class="cls-22"><path class="cls-21" d="M1075.28,109.53c35.94-35.94,146.31-20.53,166.85,0"/></g><path class="cls-3" d="M1075.28,109.53l118-118s-54.3-1.47-86.88,31.11S1075.28,109.53,1075.28,109.53Z"/><g class="cls-23"><path class="cls-19" d="M1075.28,109.53c0-31.91,61.51-118,118-118"/></g><path class="cls-3" d="M957.3,227.51l118-118s-54.3-1.47-86.88,31.11S957.3,227.51,957.3,227.51Z"/><g class="cls-24"><path class="cls-19" d="M957.3,227.51c0-34.7,73-118,118-118"/></g><line class="cls-8" x1="1154.79" y1="252.32" x2="1169.33" y2="237.78"/><line class="cls-8" x1="1130.82" y1="192.81" x2="1142.77" y2="191.75"/><line class="cls-8" x1="1111.33" y1="157.38" x2="1115.25" y2="153.47"/><circle class="cls-25" cx="116.72" cy="246.5" r="13.81"/><polygon class="cls-9" points="89.1 246.5 144.33 246.5 136.05 301.73 128.32 301.73 128.32 294 120.58 294 120.58 301.73 112.85 301.73 112.85 294 105.12 294 105.12 301.73 97.39 301.73 89.1 246.5"/><path class="cls-9" d="M1276.24,288c8.09-8.09,1.53-27.76-14.65-43.94s-35.85-22.74-43.94-14.65A41.43,41.43,0,1,1,1276.24,288Z"/><path class="cls-26" d="M1276.24,288a41.43,41.43,0,0,1-58.59-58.59c-8.09,8.09-1.53,27.77,14.65,43.94S1268.15,296.08,1276.24,288Z"/><path class="cls-9" d="M1276.24,288c-8.09,8.09-27.76,1.53-43.94-14.65s-22.74-35.85-14.65-43.94Z"/><path class="cls-26" d="M1276.24,288l-58.59-58.59c8.09-8.09,27.77-1.53,43.94,14.65S1284.33,279.9,1276.24,288Z"/><line class="cls-26" x1="343.82" y1="81.16" x2="343.82" y2="89.63"/><path class="cls-9" d="M363.13,38h8.43a5.52,5.52,0,0,1,5.52,5.52H358.91Z"/><path class="cls-8" d="M357.11,67.88c0-.46,0-20,0-20V33.72L343.82,54.6"/><path class="cls-8" d="M342.69,52.33a14.56,14.56,0,0,0-4.46.7C322.54,57.46,296,81.16,296,81.16h46.66a14.42,14.42,0,1,0,0-28.83Z"/><circle class="cls-8" cx="357.11" cy="40.78" r="7.06"/><polygon class="cls-27" points="390.22 112.83 343.82 112.83 343.82 89.63 390.22 89.63 378.62 101.23 390.22 112.83"/><line class="cls-28" x1="519.11" y1="293.26" x2="519.11" y2="301.73"/><path class="cls-9" d="M499.8,250.12h-8.42a5.52,5.52,0,0,0-5.53,5.52H504Z"/><path class="cls-8" d="M505.83,280c0-.46,0-20,0-20V245.82l13.28,20.88"/><path class="cls-8" d="M520.24,264.43a14.27,14.27,0,0,1,4.46.71c15.69,4.42,42.2,28.12,42.2,28.12H520.24a14.42,14.42,0,0,1,0-28.83Z"/><circle class="cls-8" cx="505.83" cy="252.88" r="7.06"/></g></g></svg>