<svg xmlns="http://www.w3.org/2000/svg" xmlns:xlink="http://www.w3.org/1999/xlink" viewBox="0 0 1920 1080"><defs><style>.cls-1,.cls-17,.cls-19,.cls-23,.cls-8{fill:none;}.cls-1,.cls-13,.cls-14,.cls-15,.cls-24,.cls-4,.cls-5,.cls-6,.cls-7,.cls-8{stroke:#00112c;}.cls-1,.cls-24,.cls-26,.cls-4,.cls-6,.cls-8{stroke-linecap:round;}.cls-1,.cls-13,.cls-14,.cls-15,.cls-17,.cls-19,.cls-23,.cls-24,.cls-26,.cls-4,.cls-5,.cls-6,.cls-7{stroke-linejoin:round;}.cls-1,.cls-13,.cls-14,.cls-15,.cls-17,.cls-19,.cls-23,.cls-24,.cls-25,.cls-26,.cls-4,.cls-5,.cls-6,.cls-7,.cls-8{stroke-width:2px;}.cls-2,.cls-26,.cls-4,.cls-5{fill:#00112c;}.cls-15,.cls-24,.cls-3{fill:#05e4ad;}.cls-10,.cls-14,.cls-6{fill:#fff;}.cls-12,.cls-25,.cls-7{fill:#ffda00;}.cls-25,.cls-8{stroke-miterlimit:10;}.cls-9{clip-path:url(#clip-path);}.cls-11{clip-path:url(#clip-path-2);}.cls-13{fill:#fcfcfc;}.cls-16{clip-path:url(#clip-path-3);}.cls-17,.cls-19{stroke:#05e4ad;}.cls-17{stroke-linecap:square;}.cls-18{clip-path:url(#clip-path-4);}.cls-20{clip-path:url(#clip-path-5);}.cls-21{clip-path:url(#clip-path-6);}.cls-22{clip-path:url(#clip-path-7);}.cls-23,.cls-25{stroke:#ffda00;}.cls-26{stroke:#fff;}</style><clipPath id="clip-path"><polygon class="cls-1" points="1494.41 844 1469.41 795.06 1519.41 795.06 1494.41 844"/></clipPath><clipPath id="clip-path-2"><polygon class="cls-1" points="1594.28 844 1569.28 795.06 1619.28 795.06 1594.28 844"/></clipPath><clipPath id="clip-path-3"><path class="cls-2" d="M1543.46,307.77,1329.87,94.17s98.3-2.67,157.28,56.32S1543.46,307.77,1543.46,307.77Z"/></clipPath><clipPath id="clip-path-4"><path class="cls-2" d="M1543.46,307.77H1241.39s67.62-71.4,151-71.4S1543.46,307.77,1543.46,307.77Z"/></clipPath><clipPath id="clip-path-5"><path class="cls-2" d="M1845.54,307.77H1543.46s67.63-71.4,151-71.4S1845.54,307.77,1845.54,307.77Z"/></clipPath><clipPath id="clip-path-6"><path class="cls-2" d="M1543.46,307.77l213.6-213.6s-98.3-2.67-157.28,56.32S1543.46,307.77,1543.46,307.77Z"/></clipPath><clipPath id="clip-path-7"><path class="cls-2" d="M1329.87,521.37l213.59-213.6s-98.3-2.67-157.28,56.31S1329.87,521.37,1329.87,521.37Z"/></clipPath></defs><g id="Layer_1" data-name="Layer 1"><rect class="cls-3" width="1920" height="1080"/><path class="cls-4" d="M1012.65,589.77,707.36,895.06a249.28,249.28,0,0,1,305.29-305.29Z"/><line class="cls-1" x1="1097.6" y1="980" x2="860.01" y2="742.41"/><polygon class="cls-5" points="1810 836.29 1650 836.29 1606.3 880 1504.08 880 1450.11 933.97 1346.24 933.97 1174.36 980 1810 980 1810 836.29"/><polygon class="cls-5" points="100 836.29 260 836.29 303.7 880 405.92 880 459.89 933.97 563.75 933.97 735.64 980 100 980 100 836.29"/><path class="cls-6" d="M1242.28,205s-103.22,235.5-103.22,775l103.22-79.37L1345.51,980C1345.51,440.5,1242.28,205,1242.28,205Z"/><path class="cls-4" d="M1323.24,574.89,1145.58,752.56c3-49.59,6.85-95.55,11.29-138l150.65-150.61C1313.08,497.48,1318.41,534.44,1323.24,574.89Z"/><line class="cls-1" x1="1749.45" y1="980" x2="600" y2="980"/><line class="cls-7" x1="976.25" y1="565.09" x2="943.75" y2="575.92"/><line class="cls-7" x1="976.25" y1="575.92" x2="943.75" y2="565.09"/><path class="cls-6" d="M979.64,284.58H940.36l-2.17,36.88h0a582.49,582.49,0,0,0-89.49,19.66l-47.83,14.52L768.44,248.23l2.48-18.14-5.84-22.45-1.36-5.24a6.14,6.14,0,0,0-4.4,7.48l-4.08-15.7c-3.91-2.65-7.2.44-6.42,3.43l-1.52-5.84c-3.92-2.65-7.2.44-6.42,3.43l1.36,5.24c-.78-3-5.15-4.09-7.28.14l2.33,9c-.77-3-5.15-4.09-7.28.14l1.18,4.51,3.27,12.58,14.09,27.76,20.62,116a20,20,0,0,0,19.89,16.5l102.9-1s14.4,70,14.4,162.79v58.38h107.28V548.84c0-92.75,14.4-162.79,14.4-162.79l30.35,115.24,11.88,99.59-7,16.93v28.61a6.12,6.12,0,0,0,6.13-6.13V656.5c3.13,3.56,7.08,1.39,7.08-1.7v6c3.12,3.55,7.08,1.38,7.08-1.71v-5.41c0,3.09,4,5.25,7.08,1.7v-9.29c0,3.09,4,5.26,7.08,1.7V630.17l-6.65-30.41V544.34a394.75,394.75,0,0,0-9.28-85.1l-19.54-88.48A44.56,44.56,0,0,0,1032.6,338l-50.79-16.55-2.17-36.88H940.36"/><path class="cls-6" d="M1069.44,634.74V654.8a3.54,3.54,0,0,0,3.54,3.54h0a3.53,3.53,0,0,0,3.54-3.54V634.51"/><path class="cls-6" d="M1076.52,634.74v24.39a3.54,3.54,0,0,0,3.54,3.54h0a3.53,3.53,0,0,0,3.54-3.54V634.51"/><path class="cls-6" d="M1083.6,634.74v19a3.55,3.55,0,0,0,3.54,3.54h0a3.54,3.54,0,0,0,3.54-3.54V634.51"/><path class="cls-6" d="M1090.68,634.74v11.39a3.54,3.54,0,0,0,3.54,3.54h0a3.53,3.53,0,0,0,3.54-3.54v-16"/><circle class="cls-6" cx="995.54" cy="402.29" r="2.17"/><circle class="cls-6" cx="960.43" cy="527.17" r="2.17"/><circle class="cls-6" cx="924.46" cy="402.29" r="2.17"/><line class="cls-6" x1="945.36" y1="417.37" x2="975.51" y2="387.22"/><line class="cls-6" x1="945.36" y1="428.2" x2="975.51" y2="398.05"/><line class="cls-6" x1="945.36" y1="439.04" x2="975.51" y2="408.89"/><line class="cls-6" x1="945.36" y1="406.54" x2="975.51" y2="376.39"/><line class="cls-6" x1="945.36" y1="395.7" x2="975.51" y2="365.55"/><path class="cls-6" d="M760.72,215.24l-5.05-19.41a3.53,3.53,0,0,0-4.32-2.53h0a3.53,3.53,0,0,0-2.53,4.31l5.1,19.64"/><path class="cls-6" d="M753.86,217l-6.13-23.61a3.55,3.55,0,0,0-4.32-2.54h0a3.54,3.54,0,0,0-2.53,4.32L747.07,219"/><path class="cls-6" d="M747,218.81l-4.77-18.37a3.54,3.54,0,0,0-4.32-2.53h0a3.53,3.53,0,0,0-2.53,4.31l4.83,18.6"/><path class="cls-6" d="M740.16,220.59l-2.87-11A3.53,3.53,0,0,0,733,207h0a3.54,3.54,0,0,0-2.54,4.31l4,15.45"/><path class="cls-6" d="M988.72,248.88h5.42a5.42,5.42,0,0,1,5.41,5.42h0A27.16,27.16,0,0,1,987.31,277l-1.69,1.12Z"/><path class="cls-6" d="M930.11,248.88h-5.42a5.42,5.42,0,0,0-5.42,5.42h0A27.14,27.14,0,0,0,931.52,277l1.69,1.12Z"/><path class="cls-6" d="M935.78,226.82l-7.84,22.06,1.27,14.69a77.28,77.28,0,0,0,15.19,39.72h0a19.49,19.49,0,0,0,15.6,7.8h0a19.49,19.49,0,0,0,15.6-7.8h0a72.77,72.77,0,0,0,14.48-39.77l.81-14.64-8.39-22.06Z"/><path class="cls-4" d="M990.89,248.88l-8.39-22.06h0a66.4,66.4,0,0,1-46.24.18l-.48-.18-7.84,22.06h-5.42v-7A36.89,36.89,0,0,1,959.41,205h0a36.89,36.89,0,0,1,36.89,36.89v7Z"/><line class="cls-8" x1="931.97" y1="256.82" x2="928.74" y2="256.82"/><circle class="cls-4" cx="943.27" cy="256.82" r="12.91"/><circle class="cls-4" cx="975.56" cy="256.82" r="12.91"/><path class="cls-1" d="M956.18,256.82a3.23,3.23,0,1,1,6.46,0"/><line class="cls-8" x1="990.08" y1="256.82" x2="986.86" y2="256.82"/><path class="cls-7" d="M971.93,295H965a5,5,0,0,1,0-10h6.93A48.13,48.13,0,0,0,1020,236.93V170a5,5,0,0,1,10,0v66.93A58.14,58.14,0,0,1,971.93,295Z"/><path class="cls-6" d="M1043.08,974.8a7.1,7.1,0,0,0-7.1-7.11h-2.45a73.33,73.33,0,0,1-41-12.57h0s21.16-168.54,21.16-347.9H960c0,66.82,10.83,179.36,10.83,179.36l5.42,168.54-5.42,19.68Z"/><rect class="cls-4" x="970.83" y="974.8" width="74.63" height="5.2"/><line class="cls-4" x1="1026.21" y1="965.17" x2="1026.21" y2="974.8"/><path class="cls-6" d="M906.36,607.22H960c0,66.82-10.83,179.36-10.83,179.36l-5.42,168.54,5.42,19.68H876.92a7.1,7.1,0,0,1,7.1-7.11h2.45a73.33,73.33,0,0,0,41-12.57h0s-21.16-168.54-21.16-347.9"/><rect class="cls-4" x="874.54" y="974.8" width="74.63" height="5.2" transform="translate(1823.71 1954.8) rotate(-180)"/><line class="cls-4" x1="893.79" y1="965.17" x2="893.79" y2="974.8"/><path class="cls-7" d="M1027.33,674H892.67c0-70.08,13.69-125.2,13.69-125.2h107.28S1027.33,605,1027.33,674Z"/><line class="cls-7" x1="960" y1="617" x2="960" y2="674.04"/><path class="cls-7" d="M981.65,614h0a110.33,110.33,0,0,1-43.3,0h0"/><path class="cls-4" d="M1056.21,556.16a31.58,31.58,0,0,1-31.57,31.58h-6.91V524.58h6.91A31.57,31.57,0,0,1,1056.21,556.16Z"/><rect class="cls-6" x="979.24" y="524.58" width="38.49" height="63.16"/><rect class="cls-4" x="940.77" y="524.58" width="38.48" height="63.16"/><rect class="cls-6" x="902.28" y="524.58" width="38.49" height="63.16"/><path class="cls-4" d="M902.28,524.58v63.16h-6.91a31.58,31.58,0,0,1,0-63.16Z"/><line class="cls-1" x1="1512.91" y1="780.59" x2="1487.91" y2="829.53"/><line class="cls-1" x1="1537.38" y1="793.09" x2="1512.91" y2="780.59"/><g class="cls-9"><rect class="cls-10" x="1475.66" y="819.53" width="37.5" height="24.47"/></g><polygon class="cls-1" points="1494.41 844 1469.41 795.06 1519.41 795.06 1494.41 844"/><line class="cls-1" x1="1494.41" y1="844" x2="1494.41" y2="880"/><line class="cls-1" x1="1612.78" y1="780.59" x2="1587.78" y2="829.53"/><line class="cls-1" x1="1637.25" y1="793.09" x2="1612.78" y2="780.59"/><g class="cls-11"><rect class="cls-12" x="1575.53" y="819.53" width="37.5" height="24.47"/></g><polygon class="cls-1" points="1594.28 844 1569.28 795.06 1619.28 795.06 1594.28 844"/><line class="cls-1" x1="1594.28" y1="844" x2="1594.28" y2="880"/><rect class="cls-13" x="1444.28" y="880" width="200" height="100"/><line class="cls-6" x1="1444.28" y1="920" x2="1644.28" y2="920"/><rect class="cls-7" x="1464.28" y="910" width="10" height="20"/><rect class="cls-7" x="1614.28" y="908.42" width="10" height="20"/><polygon class="cls-14" points="200 980 245 680 287 680 287 722 329 722 329 680 371 680 371 722 413 722 413 680 455 680 500 980 200 980"/><path class="cls-4" d="M350,905h0a30.47,30.47,0,0,0-30.14,26l-7.36,49h75l-7.36-49A30.47,30.47,0,0,0,350,905Z"/><line class="cls-4" x1="350" y1="596" x2="350" y2="680"/><polygon class="cls-14" points="550 980 535 880 521 880 521 894 507 894 507 880 493 880 493 894 479 894 479 880 465 880 450 980 550 980"/><line class="cls-1" x1="200" y1="980" x2="100" y2="980"/><circle class="cls-12" cx="250" cy="250" r="150"/><path class="cls-15" d="M1749.45,981c0-480-206-673.23-206-673.23S1820,549.68,1820,981"/><path class="cls-2" d="M1543.46,307.77,1329.87,94.17s98.3-2.67,157.28,56.32S1543.46,307.77,1543.46,307.77Z"/><g class="cls-16"><path class="cls-17" d="M1543.46,307.77c0-58.89-137.75-213.6-213.59-213.6"/></g><path class="cls-2" d="M1543.46,307.77H1241.39s67.62-71.4,151-71.4S1543.46,307.77,1543.46,307.77Z"/><g class="cls-18"><path class="cls-19" d="M1543.46,307.77c-40-40-247.4-54.67-302.07,0"/></g><path class="cls-2" d="M1845.54,307.77H1543.46s67.63-71.4,151-71.4S1845.54,307.77,1845.54,307.77Z"/><g class="cls-20"><path class="cls-19" d="M1543.46,307.77c65.07-65.07,264.9-37.18,302.08,0"/></g><path class="cls-2" d="M1543.46,307.77l213.6-213.6s-98.3-2.67-157.28,56.32S1543.46,307.77,1543.46,307.77Z"/><g class="cls-21"><path class="cls-17" d="M1543.46,307.77c0-57.77,111.38-213.6,213.6-213.6"/></g><path class="cls-2" d="M1329.87,521.37l213.59-213.6s-98.3-2.67-157.28,56.31S1329.87,521.37,1329.87,521.37Z"/><g class="cls-22"><path class="cls-17" d="M1329.87,521.37c0-62.84,132.13-213.6,213.59-213.6"/></g><line class="cls-6" x1="1746.19" y1="878.55" x2="1806.49" y2="818.26"/><line class="cls-6" x1="1770.99" y1="675.82" x2="1717.83" y2="675.82"/><line class="cls-6" x1="1687.43" y1="566.28" x2="1713.75" y2="539.95"/><line class="cls-6" x1="1644.02" y1="458.53" x2="1665.65" y2="456.62"/><line class="cls-6" x1="1608.75" y1="394.4" x2="1615.83" y2="387.31"/><circle class="cls-23" cx="180.98" cy="880" r="25"/><polygon class="cls-7" points="130.98 880 230.98 880 215.98 980 201.98 980 201.98 966 187.98 966 187.98 980 173.98 980 173.98 966 159.98 966 159.98 980 145.98 980 130.98 880"/><path class="cls-7" d="M1398.54,958c14.65-14.64,2.78-50.26-26.51-79.55s-64.91-41.16-79.55-26.51A75,75,0,0,1,1398.54,958Z"/><path class="cls-24" d="M1398.54,958A75,75,0,0,1,1292.48,852c-14.65,14.64-2.78,50.26,26.51,79.55S1383.9,972.68,1398.54,958Z"/><path class="cls-7" d="M1398.54,958c-14.64,14.65-50.26,2.78-79.55-26.51s-41.16-64.91-26.51-79.55Z"/><path class="cls-24" d="M1398.54,958,1292.48,852c14.64-14.65,50.26-2.78,79.55,26.51S1413.19,943.39,1398.54,958Z"/><line class="cls-24" x1="350" y1="580.66" x2="350" y2="596"/><path class="cls-7" d="M385,502.55h15.26a10,10,0,0,1,10,10H377.3Z"/><path class="cls-6" d="M374,556.62c0-.83,0-36.29,0-36.29V494.77l-24,37.8"/><path class="cls-6" d="M347.94,528.46a25.93,25.93,0,0,0-8.07,1.28c-28.41,8-76.39,50.92-76.39,50.92h84.46a26.1,26.1,0,1,0,0-52.2Z"/><circle class="cls-6" cx="374.04" cy="507.55" r="12.78"/><polygon class="cls-25" points="434 638 350 638 350 596 434 596 413 617 434 638"/><line class="cls-26" x1="667.34" y1="964.66" x2="667.34" y2="980"/><path class="cls-7" d="M632.4,886.55H617.13a10,10,0,0,0-10,10H640Z"/><path class="cls-6" d="M643.3,940.62c0-.83,0-36.29,0-36.29V878.77l24,37.8"/><path class="cls-6" d="M669.4,912.46a25.93,25.93,0,0,1,8.07,1.28c28.41,8,76.39,50.92,76.39,50.92H669.4a26.1,26.1,0,0,1,0-52.2Z"/><circle class="cls-6" cx="643.3" cy="891.55" r="12.78"/></g></svg>