<svg id="Layer_1" data-name="Layer 1" xmlns="http://www.w3.org/2000/svg" xmlns:xlink="http://www.w3.org/1999/xlink" viewBox="0 0 581 600"><defs><style>.cls-1,.cls-10,.cls-13,.cls-15,.cls-9{fill:none;}.cls-2,.cls-6{fill:#00112c;}.cls-3{clip-path:url(#clip-path);}.cls-17,.cls-4{fill:#05e4ad;}.cls-5{clip-path:url(#clip-path-2);}.cls-10,.cls-11,.cls-17,.cls-6,.cls-7,.cls-8,.cls-9{stroke:#00112c;stroke-width:2.21px;}.cls-10,.cls-17,.cls-6,.cls-8,.cls-9{stroke-linecap:round;}.cls-10,.cls-11,.cls-13,.cls-15,.cls-17,.cls-6,.cls-7,.cls-8{stroke-linejoin:round;}.cls-7{fill:#ffda00;}.cls-11,.cls-8{fill:#fff;}.cls-9{stroke-miterlimit:10;}.cls-12{clip-path:url(#clip-path-3);}.cls-13,.cls-15{stroke:#05e4ad;stroke-width:1.58px;}.cls-13{stroke-linecap:square;}.cls-14{clip-path:url(#clip-path-4);}.cls-16{clip-path:url(#clip-path-5);}</style><clipPath id="clip-path"><rect class="cls-1" x="-68.06" y="-693.32" width="1188" height="300"/></clipPath><clipPath id="clip-path-2"><rect class="cls-1" width="581" height="600"/></clipPath><clipPath id="clip-path-3"><path class="cls-2" d="M647.74,118.94,479.45-49.36S556.9-51.46,603.37-5,647.74,118.94,647.74,118.94Z"/></clipPath><clipPath id="clip-path-4"><path class="cls-2" d="M647.74,118.94h-238s53.28-56.26,119-56.26S647.74,118.94,647.74,118.94Z"/></clipPath><clipPath id="clip-path-5"><path class="cls-2" d="M479.45,287.23,647.74,118.94s-77.45-2.11-123.93,44.36S479.45,287.23,479.45,287.23Z"/></clipPath></defs><g class="cls-3"><rect class="cls-4" x="-250.52" y="-803.39" width="1512.91" height="851.01"/></g><g class="cls-5"><rect class="cls-4" x="-1215.48" y="-220.13" width="3025.82" height="1702.02"/><path class="cls-6" d="M361.61,530.58,24.36,867.84A275.4,275.4,0,0,1,361.61,530.58Z"/><line class="cls-7" x1="321.4" y1="503.32" x2="285.5" y2="515.29"/><line class="cls-7" x1="321.4" y1="515.29" x2="285.5" y2="503.32"/><path class="cls-8" d="M325.15,193.45h-43.4l-2.39,40.74h0A643.39,643.39,0,0,0,180.5,255.9l-52.84,16L91.83,153.29l2.74-20-6.45-24.81-1.5-5.79a6.77,6.77,0,0,0-4.86,8.26L77.25,93.59c-4.32-2.93-8,.48-7.09,3.79l-1.68-6.46c-4.32-2.93-8,.49-7.1,3.79l1.51,5.79c-.86-3.3-5.69-4.52-8,.15l2.58,9.93c-.86-3.31-5.7-4.52-8,.15l1.29,5,3.61,13.9,15.57,30.66L92.64,288.42a22.1,22.1,0,0,0,22,18.23l113.68-1.11s15.91,77.38,15.91,179.83v64.49H362.7V485.37c0-102.45,15.91-179.83,15.91-179.83l33.53,127.3,13.12,110-7.69,18.7v31.61a6.77,6.77,0,0,0,6.78-6.77v17.91c3.45,3.92,7.82,1.53,7.82-1.88v6.66c3.45,3.93,7.82,1.54,7.82-1.88v-6c0,3.41,4.37,5.81,7.82,1.88V592.85c0,3.42,4.38,5.81,7.82,1.88V575.22l-7.34-33.59V480.41a435.93,435.93,0,0,0-10.26-94l-21.58-97.74a49.24,49.24,0,0,0-32.81-36.18l-56.1-18.28-2.39-40.74h-43.4"/><path class="cls-8" d="M424.35,580.27v22.16a3.91,3.91,0,0,0,3.91,3.91h0a3.91,3.91,0,0,0,3.91-3.91V580"/><path class="cls-8" d="M432.17,580.27v26.94a3.92,3.92,0,0,0,3.91,3.92h0a3.92,3.92,0,0,0,3.91-3.92V580"/><path class="cls-8" d="M440,580.27v21a3.91,3.91,0,0,0,3.91,3.91h0a3.91,3.91,0,0,0,3.91-3.91V580"/><path class="cls-8" d="M447.81,580.27v12.58a3.91,3.91,0,0,0,3.91,3.91h0a3.91,3.91,0,0,0,3.91-3.91V575.22"/><circle class="cls-8" cx="342.71" cy="323.49" r="2.39"/><circle class="cls-8" cx="303.93" cy="461.43" r="2.39"/><circle class="cls-8" cx="264.19" cy="323.49" r="2.39"/><line class="cls-8" x1="287.27" y1="340.14" x2="320.58" y2="306.83"/><line class="cls-8" x1="287.27" y1="352.11" x2="320.58" y2="318.8"/><line class="cls-8" x1="287.27" y1="364.08" x2="320.58" y2="330.77"/><line class="cls-8" x1="287.27" y1="328.17" x2="320.58" y2="294.86"/><line class="cls-8" x1="287.27" y1="316.21" x2="320.58" y2="282.9"/><path class="cls-8" d="M83.3,116.85,77.73,95.41A3.91,3.91,0,0,0,73,92.61h0a3.9,3.9,0,0,0-2.8,4.77l5.64,21.69"/><path class="cls-8" d="M75.73,118.82,69,92.74a3.9,3.9,0,0,0-4.76-2.8h0a3.91,3.91,0,0,0-2.81,4.77L68.23,121"/><path class="cls-8" d="M68.16,120.79,62.89,100.5a3.91,3.91,0,0,0-4.77-2.8h0a3.91,3.91,0,0,0-2.8,4.77L60.66,123"/><path class="cls-8" d="M60.59,122.76l-3.16-12.18a3.91,3.91,0,0,0-4.77-2.8h0a3.89,3.89,0,0,0-2.8,4.76l4.43,17.07"/><path class="cls-8" d="M335.18,154h6a6,6,0,0,1,6,6h0a30,30,0,0,1-13.52,25.08l-1.87,1.23Z"/><path class="cls-8" d="M270.43,154h-6a6,6,0,0,0-6,6h0A30,30,0,0,0,272,185.08l1.87,1.23Z"/><path class="cls-8" d="M276.69,129.64,268,154l1.41,16.23a85.42,85.42,0,0,0,16.77,43.87h0a21.54,21.54,0,0,0,17.24,8.62h0a21.53,21.53,0,0,0,17.23-8.62h0a80.5,80.5,0,0,0,16-43.93l.89-16.17-9.26-24.37Z"/><path class="cls-6" d="M337.57,154l-9.26-24.37h0a73.38,73.38,0,0,1-51.09.19l-.53-.19L268,154h-6v-7.72a40.74,40.74,0,0,1,40.75-40.75h0a40.74,40.74,0,0,1,40.75,40.75V154Z"/><line class="cls-9" x1="272.48" y1="162.78" x2="268.92" y2="162.78"/><circle class="cls-6" cx="284.97" cy="162.78" r="14.27"/><circle class="cls-6" cx="320.63" cy="162.78" r="14.27"/><path class="cls-10" d="M299.23,162.78a3.57,3.57,0,0,1,7.14,0"/><line class="cls-9" x1="336.68" y1="162.78" x2="333.12" y2="162.78"/><path class="cls-7" d="M316.62,205H309a5.53,5.53,0,0,1,0-11.05h7.65a53.16,53.16,0,0,0,53.11-53.11V66.87a5.53,5.53,0,0,1,11,0V140.8A64.23,64.23,0,0,1,316.62,205Z"/><path class="cls-8" d="M395.23,955.92a7.84,7.84,0,0,0-7.85-7.84h-2.71a81,81,0,0,1-45.34-13.89h0S362.7,748,362.7,549.86H303.45c0,73.82,12,198.15,12,198.15l6,186.18-6,21.73Z"/><path class="cls-8" d="M244.2,549.86h59.25c0,73.82-12,198.15-12,198.15l-6,186.18,6,21.73H211.67a7.84,7.84,0,0,1,7.85-7.84h2.71a81,81,0,0,0,45.34-13.89h0S244.2,748,244.2,549.86"/><path class="cls-7" d="M377.83,623.68H229.07c0-77.42,15.13-138.31,15.13-138.31H362.7S377.83,547.45,377.83,623.68Z"/><line class="cls-7" x1="303.45" y1="560.67" x2="303.45" y2="623.68"/><path class="cls-7" d="M327.37,557.31h0a121.9,121.9,0,0,1-47.84,0h0"/><path class="cls-6" d="M409.74,493.46a34.89,34.89,0,0,1-34.89,34.89h-7.62V458.57h7.62A34.89,34.89,0,0,1,409.74,493.46Z"/><rect class="cls-8" x="324.71" y="458.57" width="42.52" height="69.77"/><rect class="cls-6" x="282.2" y="458.57" width="42.51" height="69.77"/><rect class="cls-8" x="239.68" y="458.57" width="42.52" height="69.77"/><path class="cls-6" d="M239.68,458.57v69.78h-7.62a34.89,34.89,0,1,1,0-69.78Z"/><polygon class="cls-11" points="-259.22 603.47 -209.51 272.06 -163.12 272.06 -163.12 318.46 -116.72 318.46 -116.72 272.06 -70.32 272.06 -70.32 318.46 -23.92 318.46 -23.92 272.06 22.47 272.06 72.18 603.47 -259.22 603.47"/><polygon class="cls-11" points="127.42 603.47 110.85 493 95.38 493 95.38 508.46 79.92 508.46 79.92 493 64.45 493 64.45 508.46 48.99 508.46 48.99 493 33.52 493 16.95 603.47 127.42 603.47"/><path class="cls-2" d="M647.74,118.94,479.45-49.36S556.9-51.46,603.37-5,647.74,118.94,647.74,118.94Z"/><g class="cls-12"><path class="cls-13" d="M647.74,118.94c0-46.4-108.53-168.3-168.29-168.3"/></g><path class="cls-2" d="M647.74,118.94h-238s53.28-56.26,119-56.26S647.74,118.94,647.74,118.94Z"/><g class="cls-14"><path class="cls-15" d="M647.74,118.94c-31.49-31.49-194.93-43.08-238,0"/></g><path class="cls-2" d="M479.45,287.23,647.74,118.94s-77.45-2.11-123.93,44.36S479.45,287.23,479.45,287.23Z"/><g class="cls-16"><path class="cls-13" d="M479.45,287.23c0-49.51,104.1-168.29,168.29-168.29"/></g><path class="cls-7" d="M634.08,576c16.19-16.17,3.07-55.52-29.28-87.87s-71.71-45.47-87.88-29.29A82.84,82.84,0,1,1,634.08,576Z"/><path class="cls-17" d="M634.08,576A82.84,82.84,0,0,1,516.92,458.81c-16.19,16.17-3.07,55.52,29.28,87.88S617.91,592.16,634.08,576Z"/><path class="cls-7" d="M634.08,576c-16.17,16.19-55.52,3.07-87.88-29.28S500.73,475,516.92,458.81Z"/><path class="cls-17" d="M634.08,576,516.92,458.81c16.17-16.18,55.52-3.07,87.88,29.29S650.27,559.8,634.08,576Z"/></g></svg>