<svg xmlns="http://www.w3.org/2000/svg" xmlns:xlink="http://www.w3.org/1999/xlink" viewBox="0 0 503 300"><defs><style>.cls-1,.cls-10,.cls-11,.cls-14,.cls-16{fill:none;}.cls-2,.cls-6,.cls-7{fill:#00112c;}.cls-3{clip-path:url(#clip-path);}.cls-18,.cls-4{fill:#05e4ad;}.cls-5{clip-path:url(#clip-path-2);}.cls-10,.cls-11,.cls-12,.cls-18,.cls-6,.cls-7,.cls-8,.cls-9{stroke:#00112c;}.cls-10,.cls-11,.cls-18,.cls-6,.cls-8{stroke-linecap:round;}.cls-11,.cls-12,.cls-14,.cls-16,.cls-18,.cls-6,.cls-7,.cls-8,.cls-9{stroke-linejoin:round;}.cls-10,.cls-11,.cls-12,.cls-14,.cls-16,.cls-18,.cls-19,.cls-6,.cls-7,.cls-8,.cls-9{stroke-width:1.1px;}.cls-12,.cls-8{fill:#fff;}.cls-19,.cls-9{fill:#ffda00;}.cls-10,.cls-19{stroke-miterlimit:10;}.cls-13{clip-path:url(#clip-path-3);}.cls-14,.cls-16{stroke:#05e4ad;}.cls-14{stroke-linecap:square;}.cls-15{clip-path:url(#clip-path-4);}.cls-17{clip-path:url(#clip-path-5);}.cls-19{stroke:#ffda00;}</style><clipPath id="clip-path"><rect class="cls-1" x="-1085.7" width="743" height="300"/></clipPath><clipPath id="clip-path-2"><rect class="cls-1" width="503" height="300"/></clipPath><clipPath id="clip-path-3"><path class="cls-2" d="M567.33,109.53l-118-118s54.3-1.47,86.88,31.11S567.33,109.53,567.33,109.53Z"/></clipPath><clipPath id="clip-path-4"><path class="cls-2" d="M567.33,109.53H400.48S437.83,70.1,483.91,70.1,567.33,109.53,567.33,109.53Z"/></clipPath><clipPath id="clip-path-5"><path class="cls-2" d="M449.35,227.51l118-118s-54.3-1.47-86.87,31.11S449.35,227.51,449.35,227.51Z"/></clipPath></defs><g id="Layer_1" data-name="Layer 1"><g class="cls-3"><rect class="cls-4" x="-1480.1" y="-110.06" width="1512.91" height="851.01"/></g><g class="cls-5"><rect class="cls-4" x="-514.41" y="-110.06" width="1512.91" height="851.01"/><path class="cls-6" d="M274.14,265.29,105.51,433.92A137.7,137.7,0,0,1,274.14,265.29Z"/><polygon class="cls-7" points="850.86 220.75 762.48 220.75 738.34 244.89 681.89 244.89 652.08 274.7 594.71 274.7 499.76 300.12 850.86 300.12 850.86 220.75"/><path class="cls-8" d="M401,28.65s-57,130.08-57,428.07l57-43.84,57,43.84C458,158.73,401,28.65,401,28.65Z"/><path class="cls-6" d="M445.69,233l-98.13,98.13c1.66-27.39,3.79-52.77,6.24-76.23L437,171.67C440.08,190.2,443,210.62,445.69,233Z"/><line class="cls-9" x1="254.03" y1="251.66" x2="236.08" y2="257.64"/><line class="cls-9" x1="254.03" y1="257.64" x2="236.08" y2="251.66"/><path class="cls-8" d="M255.91,96.73h-21.7L233,117.09h0A322.43,322.43,0,0,0,183.58,128l-26.42,8L139.25,76.64l1.37-10-3.23-12.41-.75-2.89a3.39,3.39,0,0,0-2.43,4.13L132,46.79c-2.16-1.46-4,.25-3.55,1.9l-.84-3.23c-2.16-1.46-4,.24-3.55,1.89l.76,2.9c-.43-1.65-2.85-2.26-4,.07l1.29,5c-.43-1.65-2.85-2.26-4,.07l.65,2.49,1.81,6.95,7.78,15.34,11.39,64.07a11,11,0,0,0,11,9.11l56.84-.55s8,38.69,8,89.91v32.25h59.25V242.68c0-51.22,8-89.91,8-89.91l16.76,63.65,6.56,55-3.84,9.35v15.81a3.39,3.39,0,0,0,3.39-3.39v8.95c1.72,2,3.91.77,3.91-.94v3.34c1.72,2,3.91.76,3.91-.94v-3c0,1.7,2.18,2.9,3.91.94v-5.13c0,1.7,2.19,2.9,3.91.94v-9.76l-3.68-16.8V240.2a217.86,217.86,0,0,0-5.12-47l-10.79-48.87a24.61,24.61,0,0,0-16.41-18.09l-28-9.15-1.19-20.36h-21.7"/><path class="cls-8" d="M305.51,290.13v11.08a2,2,0,0,0,1.95,2h0a2,2,0,0,0,2-2V290"/><path class="cls-8" d="M309.42,290.13v13.48a2,2,0,0,0,1.95,1.95h0a2,2,0,0,0,2-1.95V290"/><path class="cls-8" d="M313.33,290.13v10.49a2,2,0,0,0,1.95,1.95h0a2,2,0,0,0,2-1.95V290"/><path class="cls-8" d="M317.24,290.13v6.3a2,2,0,0,0,1.95,1.95h0a2,2,0,0,0,2-1.95v-8.82"/><circle class="cls-8" cx="264.68" cy="161.74" r="1.2"/><circle class="cls-8" cx="245.3" cy="230.72" r="1.2"/><circle class="cls-8" cx="225.43" cy="161.74" r="1.2"/><line class="cls-8" x1="236.97" y1="170.07" x2="253.62" y2="153.42"/><line class="cls-8" x1="236.97" y1="176.05" x2="253.62" y2="159.4"/><line class="cls-8" x1="236.97" y1="182.04" x2="253.62" y2="165.38"/><line class="cls-8" x1="236.97" y1="164.09" x2="253.62" y2="147.43"/><line class="cls-8" x1="236.97" y1="158.1" x2="253.62" y2="141.45"/><path class="cls-8" d="M135,58.43,132.2,47.7a2,2,0,0,0-2.39-1.4h0a2,2,0,0,0-1.4,2.39l2.82,10.85"/><path class="cls-8" d="M131.2,59.41l-3.39-13a2,2,0,0,0-2.39-1.4h0a2,2,0,0,0-1.4,2.38l3.43,13.17"/><path class="cls-8" d="M127.41,60.39l-2.63-10.14a2,2,0,0,0-2.39-1.4h0a2,2,0,0,0-1.4,2.38l2.67,10.27"/><path class="cls-8" d="M123.63,61.38l-1.58-6.09a2,2,0,0,0-2.39-1.4h0a2,2,0,0,0-1.4,2.38l2.22,8.53"/><path class="cls-8" d="M260.92,77h3a3,3,0,0,1,3,3h0a15,15,0,0,1-6.76,12.54l-.93.61Z"/><path class="cls-8" d="M228.55,77h-3a3,3,0,0,0-3,3h0a15,15,0,0,0,6.76,12.54l.94.61Z"/><path class="cls-8" d="M231.68,64.82,227.35,77l.7,8.11a42.75,42.75,0,0,0,8.39,21.94h0a10.77,10.77,0,0,0,8.62,4.3h0a10.75,10.75,0,0,0,8.61-4.3h0a40.24,40.24,0,0,0,8-22l.45-8.08-4.63-12.19Z"/><path class="cls-6" d="M262.12,77l-4.63-12.19h0a36.7,36.7,0,0,1-25.55.1l-.26-.1L227.35,77h-3V73.14a20.37,20.37,0,0,1,20.37-20.37h0a20.37,20.37,0,0,1,20.38,20.37V77Z"/><line class="cls-10" x1="229.57" y1="81.39" x2="227.79" y2="81.39"/><circle class="cls-6" cx="235.82" cy="81.39" r="7.13"/><circle class="cls-6" cx="253.65" cy="81.39" r="7.13"/><path class="cls-11" d="M243,81.39a1.79,1.79,0,0,1,3.57,0"/><line class="cls-10" x1="261.67" y1="81.39" x2="259.89" y2="81.39"/><path class="cls-9" d="M251.64,102.48h-3.82a2.76,2.76,0,1,1,0-5.52h3.82A26.59,26.59,0,0,0,278.2,70.4v-37a2.76,2.76,0,1,1,5.52,0v37A32.12,32.12,0,0,1,251.64,102.48Z"/><path class="cls-8" d="M291,478A3.92,3.92,0,0,0,287,474h-1.35a40.44,40.44,0,0,1-22.67-7h0S274.68,374,274.68,274.93H245.06c0,36.91,6,99.07,6,99.07l3,93.09L251,478Z"/><path class="cls-8" d="M215.43,274.93h29.63c0,36.91-6,99.07-6,99.07l-3,93.09,3,10.87h-39.9a3.91,3.91,0,0,1,3.92-3.92h1.35a40.47,40.47,0,0,0,22.68-7h0S215.43,374,215.43,274.93"/><path class="cls-9" d="M282.25,311.84H207.87a318.67,318.67,0,0,1,7.56-69.16h59.25A325.18,325.18,0,0,1,282.25,311.84Z"/><line class="cls-9" x1="245.06" y1="280.33" x2="245.06" y2="311.84"/><path class="cls-9" d="M257,278.65h0a61,61,0,0,1-23.92,0h0"/><path class="cls-6" d="M298.2,246.73a17.45,17.45,0,0,1-17.44,17.44H277V229.29h3.81A17.44,17.44,0,0,1,298.2,246.73Z"/><rect class="cls-8" x="255.69" y="229.29" width="21.26" height="34.89"/><rect class="cls-6" x="234.43" y="229.29" width="21.25" height="34.89"/><rect class="cls-8" x="213.17" y="229.29" width="21.26" height="34.89"/><path class="cls-6" d="M213.17,229.29v34.88h-3.81a17.44,17.44,0,1,1,0-34.88Z"/><polygon class="cls-12" points="-62.94 301.73 -38.09 136.03 -14.89 136.03 -14.89 159.23 8.31 159.23 8.31 136.03 31.51 136.03 31.51 159.23 54.71 159.23 54.71 136.03 77.91 136.03 102.76 301.73 -62.94 301.73"/><path class="cls-6" d="M19.91,260.31h0A16.84,16.84,0,0,0,3.26,274.65L-.8,301.73H40.62l-4.06-27.08A16.84,16.84,0,0,0,19.91,260.31Z"/><line class="cls-6" x1="19.91" y1="89.63" x2="19.91" y2="136.03"/><polygon class="cls-12" points="130.38 301.73 122.09 246.5 114.36 246.5 114.36 254.23 106.63 254.23 106.63 246.5 98.89 246.5 98.89 254.23 91.16 254.23 91.16 246.5 83.43 246.5 75.14 301.73 130.38 301.73"/><path class="cls-2" d="M567.33,109.53l-118-118s54.3-1.47,86.88,31.11S567.33,109.53,567.33,109.53Z"/><g class="cls-13"><path class="cls-14" d="M567.33,109.53c0-32.52-76.08-118-118-118"/></g><path class="cls-2" d="M567.33,109.53H400.48S437.83,70.1,483.91,70.1,567.33,109.53,567.33,109.53Z"/><g class="cls-15"><path class="cls-16" d="M567.33,109.53c-22.07-22.07-136.65-30.19-166.85,0"/></g><path class="cls-2" d="M449.35,227.51l118-118s-54.3-1.47-86.87,31.11S449.35,227.51,449.35,227.51Z"/><g class="cls-17"><path class="cls-14" d="M449.35,227.51c0-34.7,73-118,118-118"/></g><line class="cls-18" x1="19.91" y1="81.16" x2="19.91" y2="89.63"/><path class="cls-9" d="M39.21,38h8.43a5.53,5.53,0,0,1,5.53,5.52H35Z"/><path class="cls-8" d="M33.19,67.88c0-.46,0-20,0-20V33.72L19.91,54.6"/><path class="cls-8" d="M18.77,52.33a14.66,14.66,0,0,0-4.46.7C-1.38,57.46-27.88,81.16-27.88,81.16H18.77a14.42,14.42,0,1,0,0-28.83Z"/><circle class="cls-8" cx="33.19" cy="40.78" r="7.06"/><polygon class="cls-19" points="66.31 112.83 19.91 112.83 19.91 89.63 66.31 89.63 54.71 101.23 66.31 112.83"/></g></g></svg>