<svg xmlns="http://www.w3.org/2000/svg" xmlns:xlink="http://www.w3.org/1999/xlink" viewBox="0 0 743 300"><defs><style>.cls-1,.cls-10,.cls-14,.cls-16,.cls-9{fill:none;}.cls-2,.cls-22,.cls-5,.cls-6{fill:#00112c;}.cls-3{clip-path:url(#clip-path);}.cls-12,.cls-20,.cls-4{fill:#05e4ad;}.cls-10,.cls-11,.cls-12,.cls-20,.cls-5,.cls-6,.cls-7,.cls-8,.cls-9{stroke:#00112c;}.cls-10,.cls-20,.cls-22,.cls-5,.cls-7,.cls-9{stroke-linecap:round;}.cls-10,.cls-11,.cls-12,.cls-14,.cls-16,.cls-20,.cls-22,.cls-5,.cls-6,.cls-7,.cls-8{stroke-linejoin:round;}.cls-10,.cls-11,.cls-12,.cls-14,.cls-16,.cls-20,.cls-21,.cls-22,.cls-5,.cls-6,.cls-7,.cls-8,.cls-9{stroke-width:1.1px;}.cls-11,.cls-7{fill:#fff;}.cls-21,.cls-8{fill:#ffda00;}.cls-21,.cls-9{stroke-miterlimit:10;}.cls-13{clip-path:url(#clip-path-2);}.cls-14,.cls-16{stroke:#05e4ad;}.cls-14{stroke-linecap:square;}.cls-15{clip-path:url(#clip-path-3);}.cls-17{clip-path:url(#clip-path-4);}.cls-18{clip-path:url(#clip-path-5);}.cls-19{clip-path:url(#clip-path-6);}.cls-21{stroke:#ffda00;}.cls-22{stroke:#fff;}.cls-23{clip-path:url(#clip-path-7);}</style><clipPath id="clip-path"><rect class="cls-1" width="743" height="300"/></clipPath><clipPath id="clip-path-2"><path class="cls-2" d="M687.33,109.53l-118-118s54.3-1.47,86.88,31.11S687.33,109.53,687.33,109.53Z"/></clipPath><clipPath id="clip-path-3"><path class="cls-2" d="M687.33,109.53H520.48S557.83,70.1,603.91,70.1,687.33,109.53,687.33,109.53Z"/></clipPath><clipPath id="clip-path-4"><path class="cls-2" d="M854.18,109.53H687.33S724.68,70.1,770.76,70.1,854.18,109.53,854.18,109.53Z"/></clipPath><clipPath id="clip-path-5"><path class="cls-2" d="M687.33,109.53l118-118S751-9.92,718.44,22.66,687.33,109.53,687.33,109.53Z"/></clipPath><clipPath id="clip-path-6"><path class="cls-2" d="M569.35,227.51l118-118s-54.3-1.47-86.87,31.11S569.35,227.51,569.35,227.51Z"/></clipPath><clipPath id="clip-path-7"><rect class="cls-1" x="1085.7" width="503" height="300"/></clipPath></defs><g id="Layer_1" data-name="Layer 1"><g class="cls-3"><rect class="cls-4" x="-394.41" y="-110.06" width="1512.91" height="851.01"/><path class="cls-5" d="M394.14,265.29,225.51,433.92A137.7,137.7,0,0,1,394.14,265.29Z"/><polygon class="cls-6" points="970.86 220.75 882.48 220.75 858.34 244.89 801.89 244.89 772.08 274.7 714.71 274.7 619.76 300.12 970.86 300.12 970.86 220.75"/><polygon class="cls-6" points="-114.23 222.36 -25.86 222.36 -1.72 246.5 54.74 246.5 84.55 276.31 141.92 276.31 236.86 301.73 -114.23 301.73 -114.23 222.36"/><path class="cls-7" d="M521,28.65s-57,130.08-57,428.07l57-43.84,57,43.84C578,158.73,521,28.65,521,28.65Z"/><path class="cls-5" d="M565.69,233l-98.13,98.13c1.66-27.39,3.79-52.77,6.24-76.23L557,171.67C560.08,190.2,563,210.62,565.69,233Z"/><line class="cls-8" x1="374.03" y1="251.66" x2="356.08" y2="257.64"/><line class="cls-8" x1="374.03" y1="257.64" x2="356.08" y2="251.66"/><path class="cls-7" d="M375.91,96.73h-21.7L353,117.09h0A322.43,322.43,0,0,0,303.58,128l-26.42,8L259.25,76.64l1.37-10-3.23-12.41-.75-2.89a3.39,3.39,0,0,0-2.43,4.13L252,46.79c-2.16-1.46-4,.25-3.55,1.9l-.84-3.23c-2.16-1.46-4,.24-3.55,1.89l.76,2.9c-.43-1.65-2.85-2.26-4,.07l1.29,5c-.43-1.65-2.85-2.26-4,.07l.65,2.49,1.81,6.95,7.78,15.34,11.39,64.07a11,11,0,0,0,11,9.11l56.84-.55s7.95,38.69,7.95,89.91v32.25h59.25V242.68c0-51.22,8-89.91,8-89.91l16.76,63.65,6.56,55-3.84,9.35v15.81a3.39,3.39,0,0,0,3.39-3.39v8.95c1.72,2,3.91.77,3.91-.94v3.34c1.72,2,3.91.76,3.91-.94v-3c0,1.7,2.18,2.9,3.91.94v-5.13c0,1.7,2.19,2.9,3.91.94v-9.76l-3.68-16.8V240.2a217.86,217.86,0,0,0-5.12-47l-10.79-48.87a24.61,24.61,0,0,0-16.41-18.09l-28-9.15-1.19-20.36h-21.7"/><path class="cls-7" d="M425.51,290.13v11.08a2,2,0,0,0,1.95,2h0a2,2,0,0,0,2-2V290"/><path class="cls-7" d="M429.42,290.13v13.48a2,2,0,0,0,1.95,1.95h0a2,2,0,0,0,2-1.95V290"/><path class="cls-7" d="M433.33,290.13v10.49a2,2,0,0,0,1.95,1.95h0a2,2,0,0,0,2-1.95V290"/><path class="cls-7" d="M437.24,290.13v6.3a2,2,0,0,0,1.95,1.95h0a2,2,0,0,0,2-1.95v-8.82"/><circle class="cls-7" cx="384.68" cy="161.74" r="1.2"/><circle class="cls-7" cx="365.3" cy="230.72" r="1.2"/><circle class="cls-7" cx="345.43" cy="161.74" r="1.2"/><line class="cls-7" x1="356.97" y1="170.07" x2="373.62" y2="153.42"/><line class="cls-7" x1="356.97" y1="176.05" x2="373.62" y2="159.4"/><line class="cls-7" x1="356.97" y1="182.04" x2="373.62" y2="165.38"/><line class="cls-7" x1="356.97" y1="164.09" x2="373.62" y2="147.43"/><line class="cls-7" x1="356.97" y1="158.1" x2="373.62" y2="141.45"/><path class="cls-7" d="M255,58.43,252.2,47.7a2,2,0,0,0-2.39-1.4h0a2,2,0,0,0-1.4,2.39l2.82,10.85"/><path class="cls-7" d="M251.2,59.41l-3.39-13a2,2,0,0,0-2.39-1.4h0a2,2,0,0,0-1.4,2.38l3.43,13.17"/><path class="cls-7" d="M247.41,60.39l-2.63-10.14a2,2,0,0,0-2.39-1.4h0a2,2,0,0,0-1.4,2.38l2.67,10.27"/><path class="cls-7" d="M243.63,61.38l-1.58-6.09a2,2,0,0,0-2.39-1.4h0a2,2,0,0,0-1.4,2.38l2.22,8.53"/><path class="cls-7" d="M380.92,77h3a3,3,0,0,1,3,3h0a15,15,0,0,1-6.76,12.54l-.93.61Z"/><path class="cls-7" d="M348.55,77h-3a3,3,0,0,0-3,3h0a15,15,0,0,0,6.76,12.54l.94.61Z"/><path class="cls-7" d="M351.68,64.82,347.35,77l.7,8.11a42.75,42.75,0,0,0,8.39,21.94h0a10.77,10.77,0,0,0,8.62,4.3h0a10.75,10.75,0,0,0,8.61-4.3h0a40.24,40.24,0,0,0,8-22l.45-8.08-4.63-12.19Z"/><path class="cls-5" d="M382.12,77l-4.63-12.19h0a36.7,36.7,0,0,1-25.55.1l-.26-.1L347.35,77h-3V73.14a20.37,20.37,0,0,1,20.37-20.37h0a20.37,20.37,0,0,1,20.38,20.37V77Z"/><line class="cls-9" x1="349.57" y1="81.39" x2="347.79" y2="81.39"/><circle class="cls-5" cx="355.82" cy="81.39" r="7.13"/><circle class="cls-5" cx="373.65" cy="81.39" r="7.13"/><path class="cls-10" d="M363,81.39a1.79,1.79,0,0,1,3.57,0"/><line class="cls-9" x1="381.67" y1="81.39" x2="379.89" y2="81.39"/><path class="cls-8" d="M371.64,102.48h-3.82a2.76,2.76,0,1,1,0-5.52h3.82A26.59,26.59,0,0,0,398.2,70.4v-37a2.76,2.76,0,1,1,5.52,0v37A32.12,32.12,0,0,1,371.64,102.48Z"/><path class="cls-7" d="M411,478A3.92,3.92,0,0,0,407,474h-1.35a40.44,40.44,0,0,1-22.67-7h0S394.68,374,394.68,274.93H365.06c0,36.91,6,99.07,6,99.07l3,93.09L371,478Z"/><path class="cls-7" d="M335.43,274.93h29.63c0,36.91-6,99.07-6,99.07l-3,93.09,3,10.87h-39.9a3.91,3.91,0,0,1,3.92-3.92h1.35a40.47,40.47,0,0,0,22.68-7h0S335.43,374,335.43,274.93"/><path class="cls-8" d="M402.25,311.84H327.87a318.67,318.67,0,0,1,7.56-69.16h59.25A325.18,325.18,0,0,1,402.25,311.84Z"/><line class="cls-8" x1="365.06" y1="280.33" x2="365.06" y2="311.84"/><path class="cls-8" d="M377,278.65h0a61,61,0,0,1-23.92,0h0"/><path class="cls-5" d="M418.2,246.73a17.45,17.45,0,0,1-17.44,17.44H397V229.29h3.81A17.44,17.44,0,0,1,418.2,246.73Z"/><rect class="cls-7" x="375.69" y="229.29" width="21.26" height="34.89"/><rect class="cls-5" x="354.43" y="229.29" width="21.25" height="34.89"/><rect class="cls-7" x="333.17" y="229.29" width="21.26" height="34.89"/><path class="cls-5" d="M333.17,229.29v34.88h-3.81a17.44,17.44,0,1,1,0-34.88Z"/><polygon class="cls-11" points="-59 301.73 -34.14 136.03 -10.94 136.03 -10.94 159.23 12.26 159.23 12.26 136.03 35.45 136.03 35.45 159.23 58.65 159.23 58.65 136.03 81.85 136.03 106.71 301.73 -59 301.73"/><path class="cls-5" d="M23.86,260.31h0A16.83,16.83,0,0,0,7.21,274.65L3.14,301.73H44.57l-4.06-27.08A16.84,16.84,0,0,0,23.86,260.31Z"/><line class="cls-5" x1="23.86" y1="89.63" x2="23.86" y2="136.03"/><polygon class="cls-11" points="134.32 301.73 126.04 246.5 118.31 246.5 118.31 254.23 110.58 254.23 110.58 246.5 102.84 246.5 102.84 254.23 95.11 254.23 95.11 246.5 87.38 246.5 79.09 301.73 134.32 301.73"/><path class="cls-12" d="M801.11,481.39c0-265.13-113.78-371.86-113.78-371.86S840.08,243.15,840.08,481.39"/><path class="cls-2" d="M687.33,109.53l-118-118s54.3-1.47,86.88,31.11S687.33,109.53,687.33,109.53Z"/><g class="cls-13"><path class="cls-14" d="M687.33,109.53c0-32.52-76.08-118-118-118"/></g><path class="cls-2" d="M687.33,109.53H520.48S557.83,70.1,603.91,70.1,687.33,109.53,687.33,109.53Z"/><g class="cls-15"><path class="cls-16" d="M687.33,109.53c-22.07-22.07-136.65-30.19-166.85,0"/></g><path class="cls-2" d="M854.18,109.53H687.33S724.68,70.1,770.76,70.1,854.18,109.53,854.18,109.53Z"/><g class="cls-17"><path class="cls-16" d="M687.33,109.53c35.94-35.94,146.32-20.53,166.85,0"/></g><path class="cls-2" d="M687.33,109.53l118-118S751-9.92,718.44,22.66,687.33,109.53,687.33,109.53Z"/><g class="cls-18"><path class="cls-14" d="M687.33,109.53c0-31.91,61.52-118,118-118"/></g><path class="cls-2" d="M569.35,227.51l118-118s-54.3-1.47-86.87,31.11S569.35,227.51,569.35,227.51Z"/><g class="cls-19"><path class="cls-14" d="M569.35,227.51c0-34.7,73-118,118-118"/></g><line class="cls-7" x1="742.87" y1="192.81" x2="754.82" y2="191.75"/><line class="cls-7" x1="723.39" y1="157.38" x2="727.3" y2="153.47"/><path class="cls-8" d="M710.83,288c8.1-8.09,1.54-27.76-14.64-43.94s-35.85-22.74-43.94-14.65A41.43,41.43,0,0,1,710.83,288Z"/><path class="cls-20" d="M710.83,288a41.43,41.43,0,1,1-58.58-58.59c-8.09,8.09-1.53,27.77,14.64,43.94S702.75,296.08,710.83,288Z"/><path class="cls-8" d="M710.83,288c-8.08,8.09-27.76,1.53-43.94-14.65s-22.73-35.85-14.64-43.94Z"/><path class="cls-20" d="M710.83,288,652.25,229.4c8.09-8.09,27.76-1.53,43.94,14.65S718.93,279.9,710.83,288Z"/><line class="cls-20" x1="23.86" y1="81.16" x2="23.86" y2="89.63"/><path class="cls-8" d="M43.16,38h8.43a5.52,5.52,0,0,1,5.52,5.52H38.94Z"/><path class="cls-7" d="M37.14,67.88c0-.46,0-20,0-20V33.72L23.86,54.6"/><path class="cls-7" d="M22.72,52.33a14.61,14.61,0,0,0-4.46.7C2.57,57.46-23.93,81.16-23.93,81.16H22.72a14.42,14.42,0,1,0,0-28.83Z"/><circle class="cls-7" cx="37.14" cy="40.78" r="7.06"/><polygon class="cls-21" points="70.25 112.83 23.86 112.83 23.86 89.63 70.25 89.63 58.65 101.23 70.25 112.83"/><line class="cls-22" x1="199.14" y1="293.26" x2="199.14" y2="301.73"/><path class="cls-8" d="M179.84,250.12h-8.43a5.53,5.53,0,0,0-5.53,5.52h18.18Z"/><path class="cls-7" d="M185.86,280c0-.46,0-20,0-20V245.82l13.28,20.88"/><path class="cls-7" d="M200.28,264.43a14.36,14.36,0,0,1,4.46.71c15.69,4.42,42.19,28.12,42.19,28.12H200.28a14.42,14.42,0,1,1,0-28.83Z"/><circle class="cls-7" cx="185.86" cy="252.88" r="7.06"/></g><g class="cls-23"><rect class="cls-4" x="571.29" y="-110.06" width="1512.91" height="851.01"/></g></g></svg>