<svg xmlns="http://www.w3.org/2000/svg" xmlns:xlink="http://www.w3.org/1999/xlink" viewBox="0 0 983 300"><defs><style>.cls-1,.cls-10,.cls-19,.cls-2,.cls-21,.cls-25{fill:none;}.cls-10,.cls-15,.cls-16,.cls-17,.cls-2,.cls-26,.cls-6,.cls-7,.cls-8,.cls-9{stroke:#00112c;}.cls-10,.cls-2,.cls-26,.cls-28,.cls-6,.cls-8{stroke-linecap:round;}.cls-15,.cls-16,.cls-17,.cls-19,.cls-2,.cls-21,.cls-25,.cls-26,.cls-28,.cls-6,.cls-7,.cls-8,.cls-9{stroke-linejoin:round;}.cls-10,.cls-15,.cls-16,.cls-17,.cls-19,.cls-2,.cls-21,.cls-25,.cls-26,.cls-27,.cls-28,.cls-6,.cls-7,.cls-8,.cls-9{stroke-width:1.1px;}.cls-28,.cls-3,.cls-6,.cls-7{fill:#00112c;}.cls-4{clip-path:url(#clip-path);}.cls-17,.cls-26,.cls-5{fill:#05e4ad;}.cls-12,.cls-16,.cls-8{fill:#fff;}.cls-14,.cls-27,.cls-9{fill:#ffda00;}.cls-10,.cls-27{stroke-miterlimit:10;}.cls-11{clip-path:url(#clip-path-2);}.cls-13{clip-path:url(#clip-path-3);}.cls-15{fill:#fcfcfc;}.cls-18{clip-path:url(#clip-path-4);}.cls-19,.cls-21{stroke:#05e4ad;}.cls-19{stroke-linecap:square;}.cls-20{clip-path:url(#clip-path-5);}.cls-22{clip-path:url(#clip-path-6);}.cls-23{clip-path:url(#clip-path-7);}.cls-24{clip-path:url(#clip-path-8);}.cls-25,.cls-27{stroke:#ffda00;}.cls-28{stroke:#fff;}.cls-29{clip-path:url(#clip-path-9);}</style><clipPath id="clip-path"><rect class="cls-1" width="983" height="300"/></clipPath><clipPath id="clip-path-2"><polygon class="cls-2" points="905.99 225 892.18 197.97 919.8 197.97 905.99 225"/></clipPath><clipPath id="clip-path-3"><polygon class="cls-2" points="961.15 225 947.34 197.97 974.96 197.97 961.15 225"/></clipPath><clipPath id="clip-path-4"><path class="cls-3" d="M796.78,109.53l-118-118s54.29-1.47,86.87,31.11S796.78,109.53,796.78,109.53Z"/></clipPath><clipPath id="clip-path-5"><path class="cls-3" d="M796.78,109.53H629.93S667.28,70.1,713.35,70.1,796.78,109.53,796.78,109.53Z"/></clipPath><clipPath id="clip-path-6"><path class="cls-3" d="M963.63,109.53H796.78S834.13,70.1,880.2,70.1,963.63,109.53,963.63,109.53Z"/></clipPath><clipPath id="clip-path-7"><path class="cls-3" d="M796.78,109.53l118-118s-54.3-1.47-86.88,31.11S796.78,109.53,796.78,109.53Z"/></clipPath><clipPath id="clip-path-8"><path class="cls-3" d="M678.8,227.51l118-118s-54.3-1.47-86.88,31.11S678.8,227.51,678.8,227.51Z"/></clipPath><clipPath id="clip-path-9"><rect class="cls-1" x="1334.82" width="743" height="300"/></clipPath></defs><g id="Layer_1" data-name="Layer 1"><g class="cls-4"><rect class="cls-5" x="-284.96" y="-110.06" width="1512.91" height="851.01"/><path class="cls-6" d="M503.58,265.29,335,433.92A137.69,137.69,0,0,1,503.58,265.29Z"/><polygon class="cls-7" points="1080.3 220.75 991.93 220.75 967.79 244.89 911.33 244.89 881.52 274.7 824.15 274.7 729.21 300.12 1080.3 300.12 1080.3 220.75"/><polygon class="cls-7" points="-4.79 222.36 83.59 222.36 107.73 246.5 164.19 246.5 194 276.31 251.37 276.31 346.31 301.73 -4.79 301.73 -4.79 222.36"/><path class="cls-8" d="M630.42,28.65s-57,130.08-57,428.07l57-43.84,57,43.84C687.44,158.73,630.42,28.65,630.42,28.65Z"/><path class="cls-6" d="M675.14,233,577,331.09c1.66-27.39,3.79-52.77,6.24-76.23l83.21-83.19C669.52,190.2,672.47,210.62,675.14,233Z"/><line class="cls-9" x1="483.48" y1="251.66" x2="465.53" y2="257.64"/><line class="cls-9" x1="483.48" y1="257.64" x2="465.53" y2="251.66"/><path class="cls-8" d="M485.35,96.73h-21.7l-1.2,20.36h0A322.3,322.3,0,0,0,413,128l-26.42,8L368.69,76.64l1.37-10-3.22-12.41-.76-2.89a3.38,3.38,0,0,0-2.42,4.13l-2.26-8.67c-2.16-1.46-4,.25-3.54,1.9L357,45.46c-2.17-1.46-4,.24-3.55,1.89l.75,2.9c-.43-1.65-2.84-2.26-4,.07l1.29,5c-.43-1.65-2.85-2.26-4,.07l.65,2.49,1.8,6.95,7.79,15.34,11.39,64.07a11,11,0,0,0,11,9.11l56.84-.55s7.95,38.69,7.95,89.91v32.25h59.26V242.68c0-51.22,8-89.91,8-89.91l16.77,63.65,6.56,55-3.85,9.35v15.81A3.39,3.39,0,0,0,535,293.2v8.95c1.73,2,3.91.77,3.91-.94v3.34c1.73,2,3.91.76,3.91-.94v-3c0,1.7,2.19,2.9,3.91.94v-5.13c0,1.7,2.19,2.9,3.91.94v-9.76l-3.67-16.8V240.2a217.87,217.87,0,0,0-5.13-47L531,144.33a24.61,24.61,0,0,0-16.4-18.09l-28.05-9.15-1.2-20.36h-21.7"/><path class="cls-8" d="M535,290.13v11.08a2,2,0,0,0,2,2h0a2,2,0,0,0,2-2V290"/><path class="cls-8" d="M538.86,290.13v13.48a2,2,0,0,0,2,1.95h0a2,2,0,0,0,1.95-1.95V290"/><path class="cls-8" d="M542.77,290.13v10.49a2,2,0,0,0,2,1.95h0a2,2,0,0,0,1.95-1.95V290"/><path class="cls-8" d="M546.68,290.13v6.3a2,2,0,0,0,2,1.95h0a2,2,0,0,0,2-1.95v-8.82"/><circle class="cls-8" cx="494.13" cy="161.74" r="1.2"/><circle class="cls-8" cx="474.74" cy="230.72" r="1.2"/><circle class="cls-8" cx="454.87" cy="161.74" r="1.2"/><line class="cls-8" x1="466.41" y1="170.07" x2="483.07" y2="153.42"/><line class="cls-8" x1="466.41" y1="176.05" x2="483.07" y2="159.4"/><line class="cls-8" x1="466.41" y1="182.04" x2="483.07" y2="165.38"/><line class="cls-8" x1="466.41" y1="164.09" x2="483.07" y2="147.43"/><line class="cls-8" x1="466.41" y1="158.1" x2="483.07" y2="141.45"/><path class="cls-8" d="M364.43,58.43,361.64,47.7a2,2,0,0,0-2.38-1.4h0a2,2,0,0,0-1.4,2.39l2.82,10.85"/><path class="cls-8" d="M360.64,59.41l-3.39-13a2,2,0,0,0-2.38-1.4h0a2,2,0,0,0-1.4,2.38l3.42,13.17"/><path class="cls-8" d="M356.86,60.39l-2.64-10.14a2,2,0,0,0-2.38-1.4h0a1.94,1.94,0,0,0-1.4,2.38l2.67,10.27"/><path class="cls-8" d="M353.07,61.38l-1.58-6.09a2,2,0,0,0-2.38-1.4h0a1.94,1.94,0,0,0-1.4,2.38l2.21,8.53"/><path class="cls-8" d="M490.36,77h3a3,3,0,0,1,3,3h0a15,15,0,0,1-6.76,12.54l-.94.61Z"/><path class="cls-8" d="M458,77h-3a3,3,0,0,0-3,3h0a15,15,0,0,0,6.76,12.54l.93.61Z"/><path class="cls-8" d="M461.12,64.82,456.79,77l.71,8.11a42.74,42.74,0,0,0,8.38,21.94h0a10.78,10.78,0,0,0,8.62,4.3h0a10.78,10.78,0,0,0,8.62-4.3h0a40.32,40.32,0,0,0,8-22l.44-8.08-4.63-12.19Z"/><path class="cls-6" d="M491.56,77l-4.63-12.19h0a36.68,36.68,0,0,1-25.54.1l-.27-.1L456.79,77h-3V73.14a20.37,20.37,0,0,1,20.38-20.37h0a20.37,20.37,0,0,1,20.37,20.37V77Z"/><line class="cls-10" x1="459.02" y1="81.39" x2="457.24" y2="81.39"/><circle class="cls-6" cx="465.26" cy="81.39" r="7.13"/><circle class="cls-6" cx="483.09" cy="81.39" r="7.13"/><path class="cls-2" d="M472.39,81.39a1.79,1.79,0,0,1,3.57,0"/><line class="cls-10" x1="491.12" y1="81.39" x2="489.33" y2="81.39"/><path class="cls-9" d="M481.09,102.48h-3.83a2.76,2.76,0,1,1,0-5.52h3.83A26.59,26.59,0,0,0,507.64,70.4v-37a2.77,2.77,0,1,1,5.53,0v37A32.12,32.12,0,0,1,481.09,102.48Z"/><path class="cls-8" d="M520.39,478a3.92,3.92,0,0,0-3.92-3.92h-1.36a40.46,40.46,0,0,1-22.67-7h0S504.13,374,504.13,274.93H474.5c0,36.91,6,99.07,6,99.07l3,93.09-3,10.87Z"/><path class="cls-8" d="M444.87,274.93H474.5c0,36.91-6,99.07-6,99.07l-3,93.09,3,10.87H428.61a3.92,3.92,0,0,1,3.92-3.92h1.36a40.44,40.44,0,0,0,22.67-7h0S444.87,374,444.87,274.93"/><path class="cls-9" d="M511.69,311.84H437.31a318.67,318.67,0,0,1,7.56-69.16h59.26A325.59,325.59,0,0,1,511.69,311.84Z"/><line class="cls-9" x1="474.5" y1="280.33" x2="474.5" y2="311.84"/><path class="cls-9" d="M486.46,278.65h0a61,61,0,0,1-23.92,0h0"/><path class="cls-6" d="M527.65,246.73a17.45,17.45,0,0,1-17.45,17.44h-3.81V229.29h3.81A17.44,17.44,0,0,1,527.65,246.73Z"/><rect class="cls-8" x="485.13" y="229.29" width="21.26" height="34.89"/><rect class="cls-6" x="463.88" y="229.29" width="21.25" height="34.89"/><rect class="cls-8" x="442.62" y="229.29" width="21.26" height="34.89"/><path class="cls-6" d="M442.62,229.29v34.88h-3.81a17.44,17.44,0,1,1,0-34.88Z"/><line class="cls-2" x1="916.21" y1="189.98" x2="902.4" y2="217.01"/><line class="cls-2" x1="929.72" y1="196.88" x2="916.21" y2="189.98"/><g class="cls-11"><rect class="cls-12" x="895.63" y="211.49" width="20.71" height="13.52"/></g><polygon class="cls-2" points="905.99 225 892.18 197.97 919.8 197.97 905.99 225"/><line class="cls-2" x1="905.99" y1="225" x2="905.99" y2="244.89"/><line class="cls-2" x1="971.37" y1="189.98" x2="957.56" y2="217.01"/><line class="cls-2" x1="984.88" y1="196.88" x2="971.37" y2="189.98"/><g class="cls-13"><rect class="cls-14" x="950.79" y="211.49" width="20.71" height="13.52"/></g><polygon class="cls-2" points="961.15 225 947.34 197.97 974.96 197.97 961.15 225"/><line class="cls-2" x1="961.15" y1="225" x2="961.15" y2="244.89"/><rect class="cls-15" x="878.3" y="244.89" width="110.47" height="55.23"/><line class="cls-8" x1="878.3" y1="266.98" x2="988.77" y2="266.98"/><rect class="cls-9" x="889.34" y="261.46" width="5.52" height="11.05"/><rect class="cls-9" x="972.2" y="260.58" width="5.52" height="11.05"/><polygon class="cls-16" points="50.45 301.73 75.3 136.03 98.5 136.03 98.5 159.23 121.7 159.23 121.7 136.03 144.9 136.03 144.9 159.23 168.1 159.23 168.1 136.03 191.3 136.03 216.15 301.73 50.45 301.73"/><path class="cls-6" d="M133.3,260.31h0a16.84,16.84,0,0,0-16.65,14.34l-4.06,27.08H154L150,274.65A16.84,16.84,0,0,0,133.3,260.31Z"/><line class="cls-6" x1="133.3" y1="89.63" x2="133.3" y2="136.03"/><polygon class="cls-16" points="243.77 301.73 235.49 246.5 227.75 246.5 227.75 254.23 220.02 254.23 220.02 246.5 212.29 246.5 212.29 254.23 204.55 254.23 204.55 246.5 196.82 246.5 188.53 301.73 243.77 301.73"/><circle class="cls-14" cy="28.65" r="65.6"/><path class="cls-17" d="M910.55,481.39c0-265.13-113.77-371.86-113.77-371.86S949.52,243.15,949.52,481.39"/><path class="cls-3" d="M796.78,109.53l-118-118s54.29-1.47,86.87,31.11S796.78,109.53,796.78,109.53Z"/><g class="cls-18"><path class="cls-19" d="M796.78,109.53c0-32.52-76.09-118-118-118"/></g><path class="cls-3" d="M796.78,109.53H629.93S667.28,70.1,713.35,70.1,796.78,109.53,796.78,109.53Z"/><g class="cls-20"><path class="cls-21" d="M796.78,109.53c-22.08-22.07-136.66-30.19-166.85,0"/></g><path class="cls-3" d="M963.63,109.53H796.78S834.13,70.1,880.2,70.1,963.63,109.53,963.63,109.53Z"/><g class="cls-22"><path class="cls-21" d="M796.78,109.53c35.94-35.94,146.31-20.53,166.85,0"/></g><path class="cls-3" d="M796.78,109.53l118-118s-54.3-1.47-86.88,31.11S796.78,109.53,796.78,109.53Z"/><g class="cls-23"><path class="cls-19" d="M796.78,109.53c0-31.91,61.51-118,118-118"/></g><path class="cls-3" d="M678.8,227.51l118-118s-54.3-1.47-86.88,31.11S678.8,227.51,678.8,227.51Z"/><g class="cls-24"><path class="cls-19" d="M678.8,227.51c0-34.7,73-118,118-118"/></g><line class="cls-8" x1="876.29" y1="252.32" x2="890.83" y2="237.78"/><line class="cls-8" x1="852.32" y1="192.81" x2="864.27" y2="191.75"/><line class="cls-8" x1="832.83" y1="157.38" x2="836.75" y2="153.47"/><circle class="cls-25" cx="50.45" cy="246.5" r="13.81"/><polygon class="cls-9" points="22.83 246.5 78.07 246.5 69.78 301.73 62.05 301.73 62.05 294 54.31 294 54.31 301.73 46.58 301.73 46.58 294 38.85 294 38.85 301.73 31.12 301.73 22.83 246.5"/><path class="cls-9" d="M820.28,288c8.09-8.09,1.53-27.76-14.65-43.94s-35.85-22.74-43.93-14.65A41.43,41.43,0,1,1,820.28,288Z"/><path class="cls-26" d="M820.28,288A41.43,41.43,0,0,1,761.7,229.4c-8.1,8.09-1.54,27.77,14.64,43.94S812.19,296.08,820.28,288Z"/><path class="cls-9" d="M820.28,288c-8.09,8.09-27.76,1.53-43.94-14.65S753.6,237.49,761.7,229.4Z"/><path class="cls-26" d="M820.28,288,761.7,229.4c8.08-8.09,27.76-1.53,43.93,14.65S828.37,279.9,820.28,288Z"/><line class="cls-26" x1="133.3" y1="81.16" x2="133.3" y2="89.63"/><path class="cls-9" d="M152.6,38H161a5.53,5.53,0,0,1,5.53,5.52H148.38Z"/><path class="cls-8" d="M146.58,67.88c0-.46,0-20,0-20V33.72L133.3,54.6"/><path class="cls-8" d="M132.16,52.33a14.66,14.66,0,0,0-4.46.7C112,57.46,85.51,81.16,85.51,81.16h46.65a14.42,14.42,0,1,0,0-28.83Z"/><circle class="cls-8" cx="146.58" cy="40.78" r="7.06"/><polygon class="cls-27" points="179.7 112.83 133.3 112.83 133.3 89.63 179.7 89.63 168.1 101.23 179.7 112.83"/><line class="cls-28" x1="308.58" y1="293.26" x2="308.58" y2="301.73"/><path class="cls-9" d="M289.28,250.12h-8.43a5.52,5.52,0,0,0-5.52,5.52H293.5Z"/><path class="cls-8" d="M295.3,280c0-.46,0-20,0-20V245.82l13.28,20.88"/><path class="cls-8" d="M309.72,264.43a14.31,14.31,0,0,1,4.46.71c15.69,4.42,42.19,28.12,42.19,28.12H309.72a14.42,14.42,0,1,1,0-28.83Z"/><circle class="cls-8" cx="295.3" cy="252.88" r="7.06"/></g><g class="cls-29"><rect class="cls-5" x="940.41" y="-110.06" width="1512.91" height="851.01"/></g></g></svg>