<svg id="Layer_1" data-name="Layer 1" xmlns="http://www.w3.org/2000/svg" xmlns:xlink="http://www.w3.org/1999/xlink" viewBox="0 0 581 600"><defs><style>.cls-1,.cls-13,.cls-21,.cls-22,.cls-8{fill:none;}.cls-2{clip-path:url(#clip-path);}.cls-3{clip-path:url(#clip-path-2);}.cls-4{fill:url(#radial-gradient);}.cls-5,.cls-7,.cls-9{fill:#fff;}.cls-6{fill:#15afd0;}.cls-10,.cls-13,.cls-20,.cls-22,.cls-7,.cls-8,.cls-9{stroke:#00112c;stroke-width:1.12px;}.cls-20,.cls-21,.cls-7{stroke-miterlimit:10;}.cls-10,.cls-13,.cls-22,.cls-8,.cls-9{stroke-linecap:round;stroke-linejoin:round;}.cls-8{stroke-dasharray:0 5.47;}.cls-10,.cls-14,.cls-20{fill:#00112c;}.cls-11{fill:#8795aa;}.cls-12{fill:#6a67cb;}.cls-15{fill:#ffb600;opacity:0.3;}.cls-16{opacity:0.7;}.cls-17{fill:#02cbff;}.cls-18{fill:#143860;}.cls-19{fill:#07284f;}.cls-21{stroke:#02cbff;stroke-width:1.87px;}.cls-22{stroke-dasharray:0 5.29;}</style><clipPath id="clip-path"><rect class="cls-1" width="581" height="600"/></clipPath><clipPath id="clip-path-2"><rect class="cls-1" x="-427.71" y="-161.96" width="1436.42" height="807.99"/></clipPath><radialGradient id="radial-gradient" cx="253.02" cy="1003.68" fy="989.7973974172852" r="520.14" gradientTransform="matrix(1, 0.01, 0, 0.74, 4.19, -170.42)" gradientUnits="userSpaceOnUse"><stop offset="0" stop-color="#0f203a"/><stop offset="1" stop-color="#09152c"/></radialGradient></defs><g class="cls-2"><g class="cls-3"><rect class="cls-4" x="-427" y="-161.96" width="1435.51" height="808.34"/><path class="cls-5" d="M386.77,437.58a.81.81,0,0,0-.68-.68.79.79,0,0,0,.68-.67.76.76,0,0,0,.67.67A.79.79,0,0,0,386.77,437.58Z"/><path class="cls-5" d="M412.47,468.37a.79.79,0,0,0-.68-.68.68.68,0,0,1,1.35,0A.79.79,0,0,0,412.47,468.37Z"/><path class="cls-5" d="M435.41,450.69a.68.68,0,0,1,0-1.35.68.68,0,1,1,0,1.35Z"/><path class="cls-5" d="M488.37,485.28a.68.68,0,0,1,0-1.35.68.68,0,1,1,0,1.35Z"/><path class="cls-5" d="M460.7,461a.68.68,0,0,1,0-1.35.68.68,0,1,1,0,1.35Z"/><path class="cls-5" d="M488.37,434.18a.68.68,0,0,1,0-1.35.68.68,0,1,1,0,1.35Z"/><path class="cls-5" d="M445.54,491.41a.79.79,0,0,0-.68-.68.68.68,0,0,1,1.35,0A.79.79,0,0,0,445.54,491.41Z"/><path class="cls-5" d="M386.09,508.09a.68.68,0,0,1,0-1.35.68.68,0,1,1,0,1.35Z"/><path class="cls-5" d="M411.54,494a.77.77,0,0,0-.68-.67.68.68,0,1,1,1.35,0A.76.76,0,0,0,411.54,494Z"/><path class="cls-5" d="M395.73,496.08a.68.68,0,1,1,0-1.35.68.68,0,0,1,0,1.35Z"/><path class="cls-5" d="M406.5,482.37a.68.68,0,0,1,0-1.35.68.68,0,1,1,0,1.35Z"/><path class="cls-5" d="M376.16,478.15a.68.68,0,1,1,0-1.35.68.68,0,0,1,0,1.35Z"/><path class="cls-5" d="M383.87,469a.68.68,0,1,1,0-1.35.68.68,0,0,1,0,1.35Z"/><path class="cls-5" d="M369.37,453.16a.68.68,0,0,1,0-1.35.68.68,0,1,1,0,1.35Z"/><path class="cls-5" d="M360.07,444.17a.68.68,0,0,1,0-1.35.68.68,0,1,1,0,1.35Z"/><path class="cls-5" d="M388.79,445a.77.77,0,0,0-.68-.67.68.68,0,1,1,1.35,0A.76.76,0,0,0,388.79,445Z"/><path class="cls-5" d="M406.16,456a.68.68,0,1,1,0-1.35.68.68,0,0,1,0,1.35Z"/><path class="cls-5" d="M76,367.15a.79.79,0,0,0,.68-.67.68.68,0,0,1,0,1.35A.79.79,0,0,0,76,367.15Z"/><path class="cls-5" d="M45.25,392.88a.77.77,0,0,0,.68-.67.68.68,0,0,1,0,1.35A.77.77,0,0,0,45.25,392.88Z"/><path class="cls-5" d="M62.92,415.85a.76.76,0,0,0,.67-.67.68.68,0,1,1,0,1.35A.77.77,0,0,0,62.92,415.85Z"/><path class="cls-5" d="M28.36,468.86a.76.76,0,0,0,.67-.67.68.68,0,1,1,0,1.35A.77.77,0,0,0,28.36,468.86Z"/><path class="cls-5" d="M52.65,441.16a.79.79,0,0,0,.68-.67.76.76,0,0,0,.67.67.79.79,0,0,0-.67.68A.81.81,0,0,0,52.65,441.16Z"/><path class="cls-5" d="M79.41,468.86a.76.76,0,0,0,.67-.67.68.68,0,1,1,0,1.35A.77.77,0,0,0,79.41,468.86Z"/><path class="cls-5" d="M22.24,426a.76.76,0,0,0,.67-.67.68.68,0,0,1,0,1.35A.77.77,0,0,0,22.24,426Z"/><path class="cls-5" d="M5.58,366.48a.79.79,0,0,0,.67-.68.79.79,0,0,0,.68.68.77.77,0,0,0-.68.67A.76.76,0,0,0,5.58,366.48Z"/><path class="cls-5" d="M13.51,380.1a.79.79,0,0,0,.68-.67.76.76,0,0,0,.67.67.79.79,0,0,0-.67.68A.81.81,0,0,0,13.51,380.1Z"/><path class="cls-5" d="M17.57,376.12a.77.77,0,0,0,.68-.67.68.68,0,0,1,0,1.35A.77.77,0,0,0,17.57,376.12Z"/><path class="cls-5" d="M31.27,386.91a.77.77,0,0,0,.67-.68.68.68,0,1,1,0,1.35A.76.76,0,0,0,31.27,386.91Z"/><path class="cls-5" d="M35.49,356.53a.76.76,0,0,0,.67-.67.68.68,0,0,1,0,1.35A.77.77,0,0,0,35.49,356.53Z"/><path class="cls-5" d="M44.58,364.25a.77.77,0,0,0,.67-.68.68.68,0,1,1,0,1.35A.76.76,0,0,0,44.58,364.25Z"/><path class="cls-5" d="M60.44,349.74a.78.78,0,0,0,.68-.67.68.68,0,0,1,0,1.35A.78.78,0,0,0,60.44,349.74Z"/><path class="cls-5" d="M65.32,367.83a.79.79,0,0,0,.67-.68.81.81,0,0,0,.68.68.79.79,0,0,0-.68.67A.76.76,0,0,0,65.32,367.83Z"/><path class="cls-5" d="M68,376.24a.77.77,0,0,0,.68-.67.76.76,0,0,0,.67.67.79.79,0,0,0-.67.68A.79.79,0,0,0,68,376.24Z"/><path class="cls-5" d="M57.61,386.56a.77.77,0,0,0,.68-.67.76.76,0,0,0,.67.67.79.79,0,0,0-.67.68A.79.79,0,0,0,57.61,386.56Z"/><path class="cls-5" d="M119.36,492.87a.67.67,0,1,1-1,.95.67.67,0,0,1,1-.95Z"/><path class="cls-5" d="M122.93,452.9a.78.78,0,0,0,0,1,.77.77,0,0,0-1,0,.78.78,0,0,0,0-1A.77.77,0,0,0,122.93,452.9Z"/><path class="cls-5" d="M94.22,449.16a.78.78,0,0,0,0,1,.77.77,0,0,0-1,0,.78.78,0,0,0,0-1A.77.77,0,0,0,94.22,449.16Z"/><path class="cls-5" d="M81.21,387.22a.77.77,0,0,0,0,.95.77.77,0,0,0-.95,0,.77.77,0,0,0,0-.95A.77.77,0,0,0,81.21,387.22Z"/><path class="cls-5" d="M83.6,424a.77.77,0,0,0,0,.95.78.78,0,0,0-1,0,.77.77,0,0,0,0-.95A.78.78,0,0,0,83.6,424Z"/><path class="cls-5" d="M72.32,453.07a.78.78,0,0,0,0,1,.77.77,0,0,0-.95,0,.78.78,0,0,0,0-1A.74.74,0,0,0,72.32,453.07Z"/><path class="cls-5" d="M115.83,413.2a.68.68,0,0,1-1,1,.68.68,0,1,1,1-1Z"/><path class="cls-5" d="M169.64,443.49a.67.67,0,1,1-.95.95.67.67,0,0,1,.95-.95Z"/><path class="cls-5" d="M154.4,439.47a.67.67,0,1,1-1,.95.67.67,0,0,1,1-.95Z"/><path class="cls-5" d="M154.35,445.16a.77.77,0,0,0,0,.95.78.78,0,0,0-1,0,.77.77,0,0,0,0-.95A.78.78,0,0,0,154.35,445.16Z"/><path class="cls-5" d="M137,447.23a.67.67,0,1,1-.95.95.67.67,0,0,1,.95-.95Z"/><path class="cls-5" d="M155.52,471.69a.68.68,0,0,1-1,1,.68.68,0,1,1,1-1Z"/><path class="cls-5" d="M143.64,472.67a.68.68,0,0,1-1,1,.68.68,0,1,1,1-1Z"/><path class="cls-5" d="M142.67,494.16a.77.77,0,0,0,0,.95.78.78,0,0,0-1,0,.77.77,0,0,0,0-.95A.78.78,0,0,0,142.67,494.16Z"/><path class="cls-5" d="M126.44,484.82a.78.78,0,0,0,0,1,.77.77,0,0,0-1,0,.78.78,0,0,0,0-1A.77.77,0,0,0,126.44,484.82Z"/><path class="cls-5" d="M89.87,489.58a.78.78,0,0,0,0,1,.77.77,0,0,0-1,0,.78.78,0,0,0,0-1A.77.77,0,0,0,89.87,489.58Z"/><path class="cls-5" d="M118.66,466.12a.77.77,0,0,0,0,.95.78.78,0,0,0-1,0,.77.77,0,0,0,0-.95A.78.78,0,0,0,118.66,466.12Z"/><path class="cls-5" d="M145.61,342.29a.79.79,0,0,0,.67-.68.79.79,0,0,0,.68.68.77.77,0,0,0-.68.67A.76.76,0,0,0,145.61,342.29Z"/><path class="cls-5" d="M111.05,395.3a.77.77,0,0,0,.67-.68.68.68,0,1,1,0,1.35A.76.76,0,0,0,111.05,395.3Z"/><path class="cls-5" d="M135.34,367.6a.77.77,0,0,0,.68-.67.68.68,0,0,1,0,1.35A.77.77,0,0,0,135.34,367.6Z"/><path class="cls-5" d="M162.1,395.3a.79.79,0,0,0,.68-.68.68.68,0,0,1,0,1.35A.79.79,0,0,0,162.1,395.3Z"/><path class="cls-5" d="M104.93,352.42a.77.77,0,0,0,.67-.68.68.68,0,1,1,0,1.35A.76.76,0,0,0,104.93,352.42Z"/><path class="cls-5" d="M205.63,379.34a.77.77,0,0,0,0,1,.78.78,0,0,0-1,0,.77.77,0,0,0,0-1A.78.78,0,0,0,205.63,379.34Z"/><path class="cls-5" d="M166.29,350.43a.68.68,0,0,1-1,1,.68.68,0,1,1,1-1Z"/><path class="cls-5" d="M155,379.51a.78.78,0,0,0,0,1,.77.77,0,0,0-.95,0,.78.78,0,0,0,0-1A.77.77,0,0,0,155,379.51Z"/><path class="cls-5" d="M198.52,339.64a.67.67,0,1,1-1,.95.67.67,0,0,1,1-.95Z"/><path class="cls-5" d="M277.74,365.6a.68.68,0,1,1,0-1.35.68.68,0,0,1,0,1.35Z"/><path class="cls-5" d="M299.08,348.67a.76.76,0,0,0-.67-.67.68.68,0,1,1,1.35,0A.77.77,0,0,0,299.08,348.67Z"/><path class="cls-5" d="M286.7,339.18a.68.68,0,0,1,0-1.35.68.68,0,0,1,0,1.35Z"/><path class="cls-5" d="M219.73,373.66a.78.78,0,0,0,0,1,.77.77,0,0,0-.95,0,.78.78,0,0,0,0-1A.74.74,0,0,0,219.73,373.66Z"/><path class="cls-5" d="M241.53,367.53a.67.67,0,0,1-.95-.95.67.67,0,1,1,.95.95Z"/><path class="cls-5" d="M240.55,355.64a.77.77,0,0,0-1,0,.78.78,0,0,0,0-1,.77.77,0,0,0,1,0A.78.78,0,0,0,240.55,355.64Z"/><path class="cls-5" d="M201.35,392.55a.68.68,0,0,1-1,1,.75.75,0,0,0,0-1A.78.78,0,0,0,201.35,392.55Z"/><path class="cls-5" d="M508.82,199.35a.67.67,0,1,1,.95-.95.67.67,0,0,1-.95.95Z"/><path class="cls-5" d="M505.24,239.32a.68.68,0,0,1,1-1,.78.78,0,0,0,0,1A.75.75,0,0,0,505.24,239.32Z"/><path class="cls-5" d="M534,243.05a.67.67,0,1,1,.95-1,.67.67,0,0,1-.95,1Z"/><path class="cls-5" d="M544.58,268.22a.77.77,0,0,0,0-1,.78.78,0,0,0,1,0,.77.77,0,0,0,0,1A.78.78,0,0,0,544.58,268.22Z"/><path class="cls-5" d="M485.51,198.06a.78.78,0,0,0,0-1,.74.74,0,0,0,.95,0,.78.78,0,0,0,0,1A.77.77,0,0,0,485.51,198.06Z"/><path class="cls-5" d="M500.78,191a.68.68,0,0,1,1-1,.68.68,0,1,1-1,1Z"/><path class="cls-5" d="M505,206a.77.77,0,0,0,0-1,.78.78,0,0,0,1,0,.74.74,0,0,0,0,1A.78.78,0,0,0,505,206Z"/><path class="cls-5" d="M509.52,226.1a.77.77,0,0,0,0-.95.78.78,0,0,0,1,0,.77.77,0,0,0,0,.95A.78.78,0,0,0,509.52,226.1Z"/><path class="cls-5" d="M579.63,244.45a.68.68,0,0,1,0,1.35.68.68,0,1,1,0-1.35Z"/><path class="cls-5" d="M526.67,209.86a.68.68,0,0,1,0,1.35.68.68,0,1,1,0-1.35Z"/><path class="cls-5" d="M554.34,234.18a.68.68,0,0,1,0,1.35.68.68,0,1,1,0-1.35Z"/><path class="cls-5" d="M566.9,262.72a.77.77,0,0,0,.68.67.68.68,0,1,1-1.35,0A.76.76,0,0,0,566.9,262.72Z"/><path class="cls-5" d="M569.5,203.73a.79.79,0,0,0,.68.68.68.68,0,0,1-1.35,0A.79.79,0,0,0,569.5,203.73Z"/><path class="cls-5" d="M540.47,132.5a.67.67,0,1,1,.95-.95.67.67,0,0,1-.95.95Z"/><path class="cls-5" d="M553.48,194.45a.67.67,0,1,1,.95-.95.67.67,0,0,1-.95.95Z"/><path class="cls-5" d="M551.09,157.67a.67.67,0,0,1,.95-.95.67.67,0,1,1-.95.95Z"/><path class="cls-5" d="M518.86,168.46a.67.67,0,0,1,.95-1,.67.67,0,1,1-.95,1Z"/><path class="cls-5" d="M560.85,123.63a.76.76,0,0,0,.67.67.77.77,0,0,0-.67.68.79.79,0,0,0-.68-.68A.79.79,0,0,0,560.85,123.63Z"/><path class="cls-5" d="M573.41,152.17a.77.77,0,0,0,.68.67.68.68,0,1,1-1.35,0A.76.76,0,0,0,573.41,152.17Z"/><path class="cls-5" d="M576,93.18a.79.79,0,0,0,.68.68.68.68,0,0,1-1.35,0A.79.79,0,0,0,576,93.18Z"/><path class="cls-5" d="M427.7,401.83a.77.77,0,0,0-.67.68.68.68,0,1,1,0-1.35A.76.76,0,0,0,427.7,401.83Z"/><path class="cls-5" d="M458.46,376.1a.68.68,0,1,1-1.35,0,.68.68,0,0,1,1.35,0Z"/><path class="cls-5" d="M440.79,353.13a.67.67,0,1,1-1.34,0,.67.67,0,0,1,1.34,0Z"/><path class="cls-5" d="M451.06,327.82a.79.79,0,0,0-.68.67.68.68,0,0,1,0-1.35A.79.79,0,0,0,451.06,327.82Z"/><path class="cls-5" d="M424.3,300.12a.68.68,0,1,1-1.35,0,.68.68,0,0,1,1.35,0Z"/><path class="cls-5" d="M459.13,404.74a.68.68,0,0,1-1.35,0,.68.68,0,1,1,1.35,0Z"/><path class="cls-5" d="M438.39,401.16a.76.76,0,0,0-.67.67.68.68,0,1,1,0-1.35A.77.77,0,0,0,438.39,401.16Z"/><path class="cls-5" d="M435.06,399.81a.67.67,0,1,1-1.34,0,.67.67,0,1,1,1.34,0Z"/><path class="cls-5" d="M446.1,382.42a.68.68,0,0,1-1.35,0,.68.68,0,1,1,1.35,0Z"/><path class="cls-5" d="M384.35,276.11a.67.67,0,0,1,.95-.95.67.67,0,0,1-.95.95Z"/><path class="cls-5" d="M380.78,316.08a.67.67,0,0,1,1-.95.67.67,0,1,1-1,.95Z"/><path class="cls-5" d="M409.49,319.82a.78.78,0,0,0,0-1,.77.77,0,0,0,.95,0,.78.78,0,0,0,0,1A.77.77,0,0,0,409.49,319.82Z"/><path class="cls-5" d="M422.5,381.77a.78.78,0,0,0,0-1,.77.77,0,0,0,.95,0,.78.78,0,0,0,0,1A.77.77,0,0,0,422.5,381.77Z"/><path class="cls-5" d="M420.11,345a.68.68,0,0,1,1-1,.78.78,0,0,0,0,1A.75.75,0,0,0,420.11,345Z"/><path class="cls-5" d="M431.39,315.91a.78.78,0,0,0,0-1,.77.77,0,0,0,.95,0,.78.78,0,0,0,0,1A.77.77,0,0,0,431.39,315.91Z"/><path class="cls-5" d="M387.88,355.78a.78.78,0,0,0,0-1,.75.75,0,0,0,1,0,.68.68,0,0,1-1,1Z"/><path class="cls-5" d="M334.07,325.49a.67.67,0,1,1,.95-.95.67.67,0,0,1-.95.95Z"/><path class="cls-5" d="M364,334a.78.78,0,0,0,0-1,.77.77,0,0,0,.95,0,.78.78,0,0,0,0,1A.77.77,0,0,0,364,334Z"/><path class="cls-5" d="M349.37,323.82a.67.67,0,0,1,.95-.95.67.67,0,1,1-.95.95Z"/><path class="cls-5" d="M366.67,321.75a.67.67,0,1,1,.95-.95.67.67,0,0,1-.95.95Z"/><path class="cls-5" d="M348.19,297.29a.77.77,0,0,0,0-1,.78.78,0,0,0,1,0,.77.77,0,0,0,0,1A.78.78,0,0,0,348.19,297.29Z"/><path class="cls-5" d="M360.07,296.31a.77.77,0,0,0,0-.95.78.78,0,0,0,1,0,.77.77,0,0,0,0,.95A.78.78,0,0,0,360.07,296.31Z"/><path class="cls-5" d="M361,274.82a.77.77,0,0,0,0-.95.78.78,0,0,0,1,0,.77.77,0,0,0,0,.95A.78.78,0,0,0,361,274.82Z"/><path class="cls-5" d="M377.27,284.16a.78.78,0,0,0,0-1,.74.74,0,0,0,1,0,.78.78,0,0,0,0,1A.77.77,0,0,0,377.27,284.16Z"/><path class="cls-5" d="M380.57,282.76a.77.77,0,0,0,0-.95.78.78,0,0,0,1,0,.77.77,0,0,0,0,.95A.78.78,0,0,0,380.57,282.76Z"/><path class="cls-5" d="M385.05,302.87a.68.68,0,1,1,1-1,.78.78,0,0,0,0,1A.75.75,0,0,0,385.05,302.87Z"/><path class="cls-5" d="M392.66,373.68a.68.68,0,1,1-1.35,0,.68.68,0,0,1,1.35,0Z"/><path class="cls-5" d="M368.37,401.38a.68.68,0,1,1-1.35,0,.68.68,0,0,1,1.35,0Z"/><path class="cls-5" d="M341.61,373.68a.79.79,0,0,0-.67.68.81.81,0,0,0-.68-.68.79.79,0,0,0,.68-.67A.76.76,0,0,0,341.61,373.68Z"/><path class="cls-5" d="M291.5,376.92a.68.68,0,1,1,1.35,0,.68.68,0,0,1-1.35,0Z"/><path class="cls-5" d="M326.8,393.38a.67.67,0,1,1,.95-.95.67.67,0,0,1-.95.95Z"/><path class="cls-5" d="M348.7,389.47a.67.67,0,1,1,.95-1,.67.67,0,0,1-.95,1Z"/><path class="cls-5" d="M224,437.72a.79.79,0,0,0,.67-.68.81.81,0,0,0,.68.68.79.79,0,0,0-.68.67A.76.76,0,0,0,224,437.72Z"/><path class="cls-5" d="M193.22,463.45a.81.81,0,0,0,.68-.68.79.79,0,0,0,.67.68.76.76,0,0,0-.67.67A.79.79,0,0,0,193.22,463.45Z"/><path class="cls-5" d="M210.89,486.41a.67.67,0,1,1,1.34,0,.67.67,0,1,1-1.34,0Z"/><path class="cls-5" d="M192.55,434.81a.68.68,0,0,1,1.35,0,.68.68,0,1,1-1.35,0Z"/><path class="cls-5" d="M213.29,438.39a.68.68,0,0,1,1.35,0,.68.68,0,1,1-1.35,0Z"/><path class="cls-5" d="M216.62,439.74a.67.67,0,0,1,1.34,0,.67.67,0,1,1-1.34,0Z"/><path class="cls-5" d="M205.58,457.13a.79.79,0,0,0,.68-.68.68.68,0,0,1,0,1.35A.79.79,0,0,0,205.58,457.13Z"/><path class="cls-5" d="M229.18,457.78a.68.68,0,0,1-1,1,.75.75,0,0,0,0-1A.78.78,0,0,0,229.18,457.78Z"/><path class="cls-5" d="M231.57,494.56a.75.75,0,0,0,0,1,.68.68,0,0,1-1-1A.78.78,0,0,0,231.57,494.56Z"/><path class="cls-5" d="M263.8,483.77a.77.77,0,0,0,0,1,.78.78,0,0,0-1,0,.77.77,0,0,0,0-1A.78.78,0,0,0,263.8,483.77Z"/><path class="cls-5" d="M259,465.86a.68.68,0,0,1,1.35,0,.68.68,0,1,1-1.35,0Z"/><path class="cls-5" d="M283.31,438.17a.81.81,0,0,0,.68-.68.79.79,0,0,0,.67.68.76.76,0,0,0-.67.67A.79.79,0,0,0,283.31,438.17Z"/><path class="cls-5" d="M310.07,465.86a.68.68,0,0,1,1.35,0,.68.68,0,1,1-1.35,0Z"/><path class="cls-5" d="M324.88,446.17a.67.67,0,0,1-.95.95.67.67,0,1,1,.95-.95Z"/><path class="cls-5" d="M4.11,267.31a.68.68,0,1,1,0,1.35.68.68,0,0,1,0-1.35Z"/><path class="cls-5" d="M240.6,380.71a.68.68,0,0,1,1,1,.68.68,0,1,1-1-1Z"/><path class="cls-5" d="M236.59,396a.67.67,0,0,1,.95.95.67.67,0,1,1-.95-.95Z"/><path class="cls-5" d="M259.59,389a.74.74,0,0,0,1,0,.78.78,0,0,0,0,1,.77.77,0,0,0-1,0A.78.78,0,0,0,259.59,389Z"/><path class="cls-5" d="M244.34,413.35a.67.67,0,0,1,.95.95.67.67,0,1,1-.95-.95Z"/><path class="cls-5" d="M199.92,413.35a.67.67,0,0,1,1,.95.67.67,0,1,1-1-.95Z"/><path class="cls-5" d="M172.46,414.7a.67.67,0,1,1,.95.95.67.67,0,0,1-.95-.95Z"/><path class="cls-5" d="M185.31,429.48a.67.67,0,0,1,.95.95.67.67,0,1,1-.95-.95Z"/><path class="cls-5" d="M347.14,146a.68.68,0,1,1,1,1,.68.68,0,0,1-1-1Z"/><path class="cls-5" d="M358.44,191.23a.68.68,0,0,1-1.35,0,.68.68,0,1,1,1.35,0Z"/><path class="cls-5" d="M389.2,165.5a.68.68,0,0,1-1.35,0,.68.68,0,1,1,1.35,0Z"/><path class="cls-5" d="M371.53,142.53a.68.68,0,0,1-1.35,0,.68.68,0,1,1,1.35,0Z"/><path class="cls-5" d="M406.09,89.51a.79.79,0,0,0-.67.68.8.8,0,0,0-.68-.68.78.78,0,0,0,.68-.67A.76.76,0,0,0,406.09,89.51Z"/><path class="cls-5" d="M381.8,117.21a.68.68,0,1,1-1.35,0,.68.68,0,0,1,1.35,0Z"/><path class="cls-5" d="M412.21,132.39a.68.68,0,1,1-1.35,0,.68.68,0,0,1,1.35,0Z"/><path class="cls-5" d="M428.87,191.9a.77.77,0,0,0-.67.68.68.68,0,1,1,0-1.35A.76.76,0,0,0,428.87,191.9Z"/><path class="cls-5" d="M420.94,178.27a.68.68,0,1,1-1.35,0,.68.68,0,0,1,1.35,0Z"/><path class="cls-5" d="M416.88,182.25a.68.68,0,1,1-1.35,0,.68.68,0,0,1,1.35,0Z"/><path class="cls-5" d="M403.18,171.47a.79.79,0,0,0-.68.67.68.68,0,0,1,0-1.35A.79.79,0,0,0,403.18,171.47Z"/><path class="cls-5" d="M399,201.85a.68.68,0,0,1-1.35,0,.68.68,0,1,1,1.35,0Z"/><path class="cls-5" d="M389.87,194.13a.76.76,0,0,0-.67.67.68.68,0,1,1,0-1.35A.77.77,0,0,0,389.87,194.13Z"/><path class="cls-5" d="M374,208.64a.68.68,0,0,1-1.35,0,.68.68,0,1,1,1.35,0Z"/><path class="cls-5" d="M366.48,194.13a.68.68,0,0,1-1.35,0,.68.68,0,1,1,1.35,0Z"/><path class="cls-5" d="M365.8,189.2a.68.68,0,1,1-1.35,0,.68.68,0,0,1,1.35,0Z"/><path class="cls-5" d="M376.84,171.81a.68.68,0,1,1-1.35,0,.68.68,0,0,1,1.35,0Z"/><path class="cls-5" d="M421.48,116.35a.77.77,0,0,0,.95,0,.78.78,0,0,0,0,1,.77.77,0,0,0-.95,0A.78.78,0,0,0,421.48,116.35Z"/><path class="cls-5" d="M487.27,178.33a.76.76,0,0,0-.67.67.68.68,0,1,1,0-1.35A.77.77,0,0,0,487.27,178.33Z"/><path class="cls-5" d="M451.2,202a.67.67,0,0,1,.95,1,.67.67,0,1,1-.95-1Z"/><path class="cls-5" d="M444.65,227a.67.67,0,1,1,1,.95.67.67,0,0,1-1-.95Z"/><path class="cls-5" d="M471.57,192a.68.68,0,1,1,0,1.35.68.68,0,0,1,0-1.35Z"/><path class="cls-5" d="M451.2,173.54a.68.68,0,1,1,0,1.35.68.68,0,0,1,0-1.35Z"/><path class="cls-5" d="M449.84,193.08a.81.81,0,0,0,.68.68.79.79,0,0,0-.68.67.76.76,0,0,0-.67-.67A.79.79,0,0,0,449.84,193.08Z"/><path class="cls-5" d="M175.66,258.53a.68.68,0,0,1,0-1.35.68.68,0,1,1,0,1.35Z"/><path class="cls-5" d="M201.36,289.32a.68.68,0,0,1,0-1.35.68.68,0,1,1,0,1.35Z"/><path class="cls-5" d="M224.31,271.64a.68.68,0,0,1,0-1.35.68.68,0,0,1,0,1.35Z"/><path class="cls-5" d="M249.6,281.91a.68.68,0,1,1,0-1.35.68.68,0,0,1,0,1.35Z"/><path class="cls-5" d="M158.27,274.11a.68.68,0,1,1,0-1.35.68.68,0,0,1,0,1.35Z"/><path class="cls-5" d="M164.1,258.33a.68.68,0,0,1,0-1.35.68.68,0,1,1,0,1.35Z"/><path class="cls-5" d="M177.68,265.9a.76.76,0,0,0-.67-.67.79.79,0,0,0,.67-.68.81.81,0,0,0,.68.68A.79.79,0,0,0,177.68,265.9Z"/><path class="cls-5" d="M195.05,277a.68.68,0,0,1,0-1.35.68.68,0,1,1,0,1.35Z"/><path class="cls-5" d="M195.71,253.32a.77.77,0,0,0,.95,0,.78.78,0,0,0,0,1,.77.77,0,0,0-.95,0A.78.78,0,0,0,195.71,253.32Z"/><path class="cls-5" d="M232.45,250.93a.77.77,0,0,0,1,0,.78.78,0,0,0,0,1,.77.77,0,0,0-1,0A.78.78,0,0,0,232.45,250.93Z"/><path class="cls-5" d="M261.5,262.22a.77.77,0,0,0,.95,0,.78.78,0,0,0,0,1,.77.77,0,0,0-.95,0A.78.78,0,0,0,261.5,262.22Z"/><path class="cls-5" d="M221.67,218.67a.67.67,0,0,1,1,1,.67.67,0,0,1-1-1Z"/><path class="cls-5" d="M203.78,223.45a.68.68,0,0,1,0-1.35.68.68,0,0,1,0,1.35Z"/><path class="cls-5" d="M176.11,199.13a.68.68,0,0,1,0-1.35.68.68,0,0,1,0,1.35Z"/><path class="cls-5" d="M188,179.44a.74.74,0,0,0,1,0,.78.78,0,0,0,0,1,.77.77,0,0,0-1,0A.78.78,0,0,0,188,179.44Z"/><path class="cls-5" d="M113.87,309.85a.68.68,0,1,1-1,1,.68.68,0,0,1,1-1Z"/><path class="cls-5" d="M98.63,305.83a.78.78,0,0,0,0,1,.74.74,0,0,0-.95,0,.78.78,0,0,0,0-1A.77.77,0,0,0,98.63,305.83Z"/><path class="cls-5" d="M79.89,300.7a.77.77,0,0,0,0,.95.78.78,0,0,0-1,0,.77.77,0,0,0,0-.95A.78.78,0,0,0,79.89,300.7Z"/><path class="cls-5" d="M106.33,261.66A.76.76,0,0,0,107,261a.68.68,0,1,1,0,1.35A.77.77,0,0,0,106.33,261.66Z"/><path class="cls-5" d="M145.58,258.92a.77.77,0,0,0,0,.95.78.78,0,0,0-1,0,.77.77,0,0,0,0-.95A.78.78,0,0,0,145.58,258.92Z"/><path class="cls-5" d="M137.45,329.81a.77.77,0,0,0,.67-.68.68.68,0,1,1,0,1.35A.76.76,0,0,0,137.45,329.81Z"/><path class="cls-5" d="M136.77,301.17a.77.77,0,0,0,.68-.67.76.76,0,0,0,.67.67.79.79,0,0,0-.67.68A.79.79,0,0,0,136.77,301.17Z"/><path class="cls-5" d="M149.81,323.49a.76.76,0,0,0,.67-.67.68.68,0,1,1,0,1.35A.77.77,0,0,0,149.81,323.49Z"/><path class="cls-5" d="M144.14,279.71a.78.78,0,0,0,1,0,.77.77,0,0,0,0,1,.78.78,0,0,0-1,0A.74.74,0,0,0,144.14,279.71Z"/><path class="cls-5" d="M116.69,281.06a.67.67,0,1,1,1,.95.67.67,0,0,1-1-.95Z"/><path class="cls-5" d="M129.53,295.84a.78.78,0,0,0,1,0,.77.77,0,0,0,0,1,.78.78,0,0,0-1,0A.77.77,0,0,0,129.53,295.84Z"/><path class="cls-5" d="M267.1,359.85a.68.68,0,0,1,0,1.35.68.68,0,1,1,0-1.35Z"/><path class="cls-5" d="M259.39,369a.68.68,0,0,1,0,1.35.68.68,0,1,1,0-1.35Z"/><path class="cls-5" d="M302.36,376.43a.68.68,0,0,1,1-1,.68.68,0,1,1-1,1Z"/><path class="cls-5" d="M285.89,291.41a.68.68,0,1,1,1,1,.68.68,0,0,1-1-1Z"/><path class="cls-5" d="M286.9,255.56a.67.67,0,1,1,1,.95.67.67,0,0,1-1-.95Z"/><path class="cls-5" d="M277.86,284.32a.77.77,0,0,0,.95,0,.78.78,0,0,0,0,1,.74.74,0,0,0-.95,0A.78.78,0,0,0,277.86,284.32Z"/><path class="cls-5" d="M273.79,292.15a.77.77,0,0,0,.95,0,.78.78,0,0,0,0,1,.74.74,0,0,0-.95,0A.78.78,0,0,0,273.79,292.15Z"/><path class="cls-5" d="M259.17,292.11a.75.75,0,0,0,1,0,.68.68,0,0,1-1,1A.78.78,0,0,0,259.17,292.11Z"/><path class="cls-5" d="M275.4,309.28a.68.68,0,0,1-1.35,0,.68.68,0,1,1,1.35,0Z"/><path class="cls-5" d="M302.77,282a.78.78,0,0,0,0-1,.77.77,0,0,0,1,0,.78.78,0,0,0,0,1A.77.77,0,0,0,302.77,282Z"/><path class="cls-5" d="M282.72,216.15a.68.68,0,1,1-1-1,.68.68,0,0,1,1,1Z"/><path class="cls-5" d="M322.64,219.73a.77.77,0,0,0-.95,0,.78.78,0,0,0,0-1,.77.77,0,0,0,.95,0A.78.78,0,0,0,322.64,219.73Z"/><path class="cls-5" d="M302.89,240.45a.67.67,0,1,1-.95-.95.67.67,0,0,1,.95.95Z"/><path class="cls-5" d="M290.75,223.24a.77.77,0,0,0-.95,0,.78.78,0,0,0,0-1,.77.77,0,0,0,.95,0A.78.78,0,0,0,290.75,223.24Z"/><path class="cls-5" d="M264.69,248a.67.67,0,0,1-.95-.95.67.67,0,1,1,.95.95Z"/><path class="cls-5" d="M309.44,215.44a.67.67,0,0,1-.95-.95.67.67,0,1,1,.95.95Z"/><path class="cls-5" d="M341.3,298.08a.68.68,0,0,1,0,1.35.68.68,0,1,1,0-1.35Z"/><path class="cls-5" d="M361,243.72a.78.78,0,0,0-1,0,.77.77,0,0,0,0-.95.78.78,0,0,0,1,0A.77.77,0,0,0,361,243.72Z"/><path class="cls-5" d="M319.75,263.48a.77.77,0,0,0-.95,0,.78.78,0,0,0,0-1,.77.77,0,0,0,.95,0A.78.78,0,0,0,319.75,263.48Z"/><path class="cls-5" d="M347.76,239.44a.67.67,0,1,1-.95-.95.67.67,0,0,1,.95.95Z"/><path class="cls-5" d="M348.65,304.38a.78.78,0,0,0,0-1,.74.74,0,0,0,1,0,.78.78,0,0,0,0,1A.77.77,0,0,0,348.65,304.38Z"/><path class="cls-5" d="M342.71,280.08a.78.78,0,0,0,0-1,.68.68,0,0,1,1,1A.78.78,0,0,0,342.71,280.08Z"/><path class="cls-5" d="M239.09,97.19a.77.77,0,0,0-1,0,.77.77,0,0,0,0-1,.77.77,0,0,0,1,0A.77.77,0,0,0,239.09,97.19Z"/><path class="cls-5" d="M242.83,68.45a.78.78,0,0,0-1,0,.77.77,0,0,0,0-1,.78.78,0,0,0,1,0A.77.77,0,0,0,242.83,68.45Z"/><path class="cls-5" d="M233.34,206.61a.78.78,0,0,0,0-1,.77.77,0,0,0,.95,0,.78.78,0,0,0,0,1A.77.77,0,0,0,233.34,206.61Z"/><path class="cls-5" d="M255.24,202.7a.78.78,0,0,0,0-1,.77.77,0,0,0,.95,0,.78.78,0,0,0,0,1A.77.77,0,0,0,255.24,202.7Z"/><path class="cls-5" d="M275.41,198.11a.67.67,0,1,1,.95-1,.67.67,0,0,1-.95,1Z"/><path class="cls-5" d="M321.07,199.51a.79.79,0,0,0,.68.67.81.81,0,0,0-.68.68.79.79,0,0,0-.67-.68A.76.76,0,0,0,321.07,199.51Z"/><path class="cls-5" d="M295.79,189.23a.68.68,0,0,1,0,1.35.68.68,0,1,1,0-1.35Z"/><path class="cls-5" d="M311,158.79a.68.68,0,1,1,0,1.35.68.68,0,0,1,0-1.35Z"/><path class="cls-5" d="M278.4,142.88a.77.77,0,0,0,.68.68.68.68,0,0,1-1.35,0A.77.77,0,0,0,278.4,142.88Z"/><path class="cls-5" d="M293.27,160.28a.79.79,0,0,0,.67.68.68.68,0,0,1-1.35,0A.79.79,0,0,0,293.27,160.28Z"/><path class="cls-5" d="M257.75,175.55a.68.68,0,0,1,0,1.35.68.68,0,1,1,0-1.35Z"/><path class="cls-5" d="M325.88,129.65a.67.67,0,1,1-1.34,0,.67.67,0,1,1,1.34,0Z"/><path class="cls-5" d="M315.34,112.94a.67.67,0,1,1-1.34,0,.67.67,0,1,1,1.34,0Z"/><path class="cls-5" d="M304.09,142.53a.67.67,0,1,1-1.34,0,.67.67,0,0,1,1.34,0Z"/><path class="cls-5" d="M277.42,121.19a.78.78,0,0,0-1,0,.77.77,0,0,0,0-1,.78.78,0,0,0,1,0A.77.77,0,0,0,277.42,121.19Z"/><path class="cls-5" d="M281.15,92.45a.74.74,0,0,0-.95,0,.78.78,0,0,0,0-1,.77.77,0,0,0,.95,0A.78.78,0,0,0,281.15,92.45Z"/><path class="cls-5" d="M236.2,140.94a.67.67,0,0,1-.95-.95.67.67,0,0,1,.95.95Z"/><path class="cls-5" d="M264.22,116.91a.68.68,0,1,1-1-1,.68.68,0,0,1,1,1Z"/><path class="cls-5" d="M265.1,181.85a.78.78,0,0,0,0-1,.77.77,0,0,0,.95,0,.78.78,0,0,0,0,1A.77.77,0,0,0,265.1,181.85Z"/><path class="cls-5" d="M550.45,385.36a.68.68,0,1,1,0,1.35.68.68,0,0,1,0-1.35Z"/><path class="cls-5" d="M536.84,393.3a.68.68,0,0,1,0,1.35.68.68,0,1,1,0-1.35Z"/><path class="cls-5" d="M540.82,397.37a.76.76,0,0,0,.67.67.79.79,0,0,0-.67.68.81.81,0,0,0-.68-.68A.79.79,0,0,0,540.82,397.37Z"/><path class="cls-5" d="M511.08,356.62a.67.67,0,1,1,.95-.95.67.67,0,0,1-.95.95Z"/><path class="cls-5" d="M530.58,314.53a.77.77,0,0,0,.68.67.68.68,0,1,1-1.35,0A.76.76,0,0,0,530.58,314.53Z"/><path class="cls-5" d="M507.64,332.21a.79.79,0,0,0,.67.68.68.68,0,0,1-1.35,0A.79.79,0,0,0,507.64,332.21Z"/><path class="cls-5" d="M482.35,321.94a.68.68,0,0,1,0,1.35.68.68,0,1,1,0-1.35Z"/><path class="cls-5" d="M494.92,350.48a.68.68,0,0,1,0,1.35.68.68,0,1,1,0-1.35Z"/><path class="cls-5" d="M497.52,291.49a.68.68,0,0,1,0,1.35.68.68,0,1,1,0-1.35Z"/><path class="cls-5" d="M465,275.58a.68.68,0,1,1,0,1.35.68.68,0,0,1,0-1.35Z"/><path class="cls-5" d="M479.83,293a.68.68,0,0,1,0,1.35.68.68,0,0,1,0-1.35Z"/><path class="cls-5" d="M444.31,308.25a.68.68,0,1,1,0,1.35.68.68,0,0,1,0-1.35Z"/><path class="cls-5" d="M536.55,300.53a.79.79,0,0,0,.67.68.67.67,0,1,1-1.34,0A.79.79,0,0,0,536.55,300.53Z"/><path class="cls-5" d="M547.63,280.76a.78.78,0,0,0-.67.68.8.8,0,0,0-.68-.68.79.79,0,0,0,.68-.67A.76.76,0,0,0,547.63,280.76Z"/><path class="cls-5" d="M538.54,273.05a.68.68,0,0,1-1.35,0,.68.68,0,1,1,1.35,0Z"/><path class="cls-5" d="M512.45,262.36a.68.68,0,0,1-1.35,0,.68.68,0,1,1,1.35,0Z"/><path class="cls-5" d="M501.91,245.64a.68.68,0,0,1-1.35,0,.68.68,0,1,1,1.35,0Z"/><path class="cls-5" d="M490.66,275.24a.68.68,0,0,1-1.35,0,.68.68,0,1,1,1.35,0Z"/><path class="cls-5" d="M536.89,326.9a.68.68,0,1,1,0,1.35.68.68,0,0,1,0-1.35Z"/><path class="cls-5" d="M560.52,363a.67.67,0,1,1,1-.95.67.67,0,0,1-1,.95Z"/><path class="cls-5" d="M577.71,350.86a.77.77,0,0,0,0-.95.78.78,0,0,0,1,0,.77.77,0,0,0,0,.95A.78.78,0,0,0,577.71,350.86Z"/><path class="cls-5" d="M556.29,290.74a.67.67,0,0,1,1.34,0,.67.67,0,1,1-1.34,0Z"/><path class="cls-5" d="M564.22,304.37a.76.76,0,0,0,.67-.67.68.68,0,1,1,0,1.35A.77.77,0,0,0,564.22,304.37Z"/><path class="cls-5" d="M550.57,342.62a.68.68,0,1,1,1.35,0,.68.68,0,0,1-1.35,0Z"/><path class="cls-5" d="M532.11,363a.68.68,0,1,1,1.35,0,.68.68,0,0,1-1.35,0Z"/><path class="cls-5" d="M551.63,364.37a.79.79,0,0,0,.68-.68.68.68,0,0,1,0,1.35A.79.79,0,0,0,551.63,364.37Z"/><path class="cls-5" d="M464,253.89a.67.67,0,0,1-1-.95.67.67,0,1,1,1,.95Z"/><path class="cls-5" d="M467.72,225.15a.68.68,0,1,1-1-1,.68.68,0,0,1,1,1Z"/><path class="cls-5" d="M422.77,273.65a.75.75,0,0,0-1,0,.68.68,0,1,1,1-1A.78.78,0,0,0,422.77,273.65Z"/><path class="cls-5" d="M450.78,249.61a.77.77,0,0,0-.95,0,.78.78,0,0,0,0-1,.74.74,0,0,0,.95,0A.78.78,0,0,0,450.78,249.61Z"/><path class="cls-5" d="M451.66,314.55a.68.68,0,1,1,1-1,.68.68,0,0,1-1,1Z"/><path class="cls-5" d="M445.73,290.25a.78.78,0,0,0,0-1,.77.77,0,0,0,.95,0,.78.78,0,0,0,0,1A.77.77,0,0,0,445.73,290.25Z"/><path class="cls-5" d="M9,459.94a.78.78,0,0,0-.68.68.78.78,0,0,0-.67-.68.76.76,0,0,0,.67-.67A.77.77,0,0,0,9,459.94Z"/><path class="cls-5" d="M19.26,434.63a.76.76,0,0,0-.67.67.68.68,0,1,1,0-1.35A.77.77,0,0,0,19.26,434.63Z"/><path class="cls-5" d="M-.41,422.72a.78.78,0,0,0,0-1,.78.78,0,0,0,1,0,.78.78,0,0,0,0,1A.78.78,0,0,0-.41,422.72Z"/><path class="cls-5" d="M30.17,437.62a.77.77,0,0,0,0-.95.78.78,0,0,0,1,0,.77.77,0,0,0,0,.95A.78.78,0,0,0,30.17,437.62Z"/><path class="cls-5" d="M50.55,428.75a.68.68,0,1,1,0,1.35.68.68,0,0,1,0-1.35Z"/><path class="cls-5" d="M63.12,457.29a.68.68,0,0,1,0,1.35.68.68,0,1,1,0-1.35Z"/><path class="cls-5" d="M65.72,398.3a.76.76,0,0,0,.67.67.79.79,0,0,0-.67.68A.79.79,0,0,0,65,399,.77.77,0,0,0,65.72,398.3Z"/><path class="cls-5" d="M48,399.79a.68.68,0,1,1,0,1.35.68.68,0,0,1,0-1.35Z"/><path class="cls-5" d="M12.52,415.06a.68.68,0,0,1,0,1.35.68.68,0,1,1,0-1.35Z"/><path class="cls-5" d="M19.87,421.36a.78.78,0,0,0,0-1,.74.74,0,0,0,.95,0,.78.78,0,0,0,0,1A.77.77,0,0,0,19.87,421.36Z"/><path class="cls-5" d="M13.93,397.06a.78.78,0,0,0,0-1,.74.74,0,0,0,1,0,.78.78,0,0,0,0,1A.77.77,0,0,0,13.93,397.06Z"/><path class="cls-5" d="M11,487.24a.68.68,0,1,1,0-1.35.68.68,0,0,1,0,1.35Z"/><path class="cls-5" d="M11.69,463.62a.77.77,0,0,0,1,0,.78.78,0,0,0,0,1,.77.77,0,0,0-1,0A.78.78,0,0,0,11.69,463.62Z"/><path class="cls-5" d="M149.36,181.38a.76.76,0,0,0,.67-.67.68.68,0,1,1,0,1.35A.77.77,0,0,0,149.36,181.38Z"/><path class="cls-5" d="M173.65,153.68a.76.76,0,0,0,.67-.67.79.79,0,0,0,.68.67.81.81,0,0,0-.68.68A.79.79,0,0,0,173.65,153.68Z"/><path class="cls-5" d="M200.41,181.38a.68.68,0,0,1,1.35,0,.68.68,0,1,1-1.35,0Z"/><path class="cls-5" d="M215.22,161.68a.78.78,0,0,0,0,1,.77.77,0,0,0-.95,0,.78.78,0,0,0,0-1A.77.77,0,0,0,215.22,161.68Z"/><path class="cls-5" d="M204.6,136.52a.77.77,0,0,0,0,.95.78.78,0,0,0-1,0,.77.77,0,0,0,0-.95A.78.78,0,0,0,204.6,136.52Z"/><path class="cls-5" d="M193.32,165.59a.78.78,0,0,0,0,1,.77.77,0,0,0-.95,0,.78.78,0,0,0,0-1A.77.77,0,0,0,193.32,165.59Z"/><path class="cls-5" d="M130,172.46a.77.77,0,0,0-.68.68.68.68,0,0,1,0-1.35A.77.77,0,0,0,130,172.46Z"/><path class="cls-5" d="M140.26,147.15a.76.76,0,0,0-.67.67.77.77,0,0,0-.68-.67.77.77,0,0,0,.68-.68A.77.77,0,0,0,140.26,147.15Z"/><path class="cls-5" d="M70,135.41a.77.77,0,0,0,0-.95.77.77,0,0,0,1,0,.77.77,0,0,0,0,.95A.77.77,0,0,0,70,135.41Z"/><path class="cls-5" d="M98.69,139.15a.78.78,0,0,0,0-1,.78.78,0,0,0,1,0,.78.78,0,0,0,0,1A.78.78,0,0,0,98.69,139.15Z"/><path class="cls-5" d="M109.32,164.31a.67.67,0,1,1,1-.95.67.67,0,0,1-1,.95Z"/><path class="cls-5" d="M120.59,135.24a.68.68,0,1,1,1-1,.75.75,0,0,0,0,1A.78.78,0,0,0,120.59,135.24Z"/><path class="cls-5" d="M77.08,175.11a.78.78,0,0,0,0-1,.78.78,0,0,0,1,0,.78.78,0,0,0,0,1A.78.78,0,0,0,77.08,175.11Z"/><path class="cls-5" d="M151.17,150.14a.77.77,0,0,0,0-.95.78.78,0,0,0,1,0,.77.77,0,0,0,0,.95A.78.78,0,0,0,151.17,150.14Z"/><path class="cls-5" d="M171.55,141.27a.77.77,0,0,0,.68.67.68.68,0,1,1-1.35,0A.76.76,0,0,0,171.55,141.27Z"/><path class="cls-5" d="M184.12,169.81a.68.68,0,0,1,0,1.35.68.68,0,1,1,0-1.35Z"/><path class="cls-5" d="M140.87,133.88a.78.78,0,0,0,0-1,.77.77,0,0,0,.95,0,.78.78,0,0,0,0,1A.77.77,0,0,0,140.87,133.88Z"/><path class="cls-5" d="M31.52,157.06a.68.68,0,1,1,0-1.35.68.68,0,0,1,0,1.35Z"/><path class="cls-5" d="M43.41,137.37a.75.75,0,0,0,1,0,.78.78,0,0,0,0,1,.78.78,0,0,0-1,0A.78.78,0,0,0,43.41,137.37Z"/><path class="cls-5" d="M48.66,185.6a.77.77,0,0,0,1,0,.77.77,0,0,0,0,1,.77.77,0,0,0-1,0A.77.77,0,0,0,48.66,185.6Z"/><path class="cls-5" d="M42.53,163.78a.77.77,0,0,0,0,.95.77.77,0,0,0-1,0,.77.77,0,0,0,0-.95A.77.77,0,0,0,42.53,163.78Z"/><path class="cls-5" d="M30.65,164.76a.77.77,0,0,0,0,1,.77.77,0,0,0-.95,0,.77.77,0,0,0,0-1A.77.77,0,0,0,30.65,164.76Z"/><path class="cls-5" d="M112.64,181.35a.68.68,0,0,1,0-1.35.68.68,0,1,1,0,1.35Z"/><path class="cls-5" d="M113.32,192.05a.68.68,0,1,1,0-1.35.68.68,0,0,1,0,1.35Z"/><path class="cls-5" d="M114.67,188.72a.68.68,0,1,1,0-1.35.68.68,0,0,1,0,1.35Z"/><path class="cls-5" d="M132,199.76a.68.68,0,1,1,0-1.35.68.68,0,0,1,0,1.35Z"/><path class="cls-5" d="M132.69,176.14a.77.77,0,0,0,.95,0,.78.78,0,0,0,0,1,.77.77,0,0,0-.95,0A.78.78,0,0,0,132.69,176.14Z"/><path class="cls-5" d="M55.7,164.71a.78.78,0,0,0,0-1,.77.77,0,0,0,.95,0,.78.78,0,0,0,0,1A.77.77,0,0,0,55.7,164.71Z"/><path class="cls-5" d="M70.94,168.73a.78.78,0,0,0,0-1,.77.77,0,0,0,1,0,.78.78,0,0,0,0,1A.77.77,0,0,0,70.94,168.73Z"/><path class="cls-5" d="M88.3,161a.78.78,0,0,0,0-1,.77.77,0,0,0,1,0,.78.78,0,0,0,0,1A.77.77,0,0,0,88.3,161Z"/><path class="cls-5" d="M565.28,379.17a.77.77,0,0,0-.95,0,.78.78,0,0,0,0-1,.77.77,0,0,0,.95,0A.78.78,0,0,0,565.28,379.17Z"/><path class="cls-5" d="M531.29,400.4a.67.67,0,0,1-.95-.95.67.67,0,1,1,.95.95Z"/><path class="cls-5" d="M537.42,422.22a.77.77,0,0,0,0-1,.78.78,0,0,0,1,0,.77.77,0,0,0,0,1A.78.78,0,0,0,537.42,422.22Z"/><path class="cls-5" d="M549.3,421.24a.77.77,0,0,0,0-.95.78.78,0,0,0,1,0,.77.77,0,0,0,0,.95A.78.78,0,0,0,549.3,421.24Z"/><path class="cls-5" d="M575.3,410.34a.68.68,0,0,1,1-1,.78.78,0,0,0,0,1A.75.75,0,0,0,575.3,410.34Z"/><path class="cls-5" d="M524.25,421.29a.78.78,0,0,0,0,1,.77.77,0,0,0-1,0,.78.78,0,0,0,0-1A.77.77,0,0,0,524.25,421.29Z"/><path class="cls-5" d="M509,417.27a.68.68,0,0,1-1,1,.68.68,0,1,1,1-1Z"/><path class="cls-5" d="M242.23,512a.79.79,0,0,0-.67.68.8.8,0,0,0-.68-.68.78.78,0,0,0,.68-.67A.76.76,0,0,0,242.23,512Z"/><path class="cls-5" d="M263.61,596.34a.68.68,0,1,1-1.35,0,.68.68,0,0,1,1.35,0Z"/><path class="cls-5" d="M246,579.29a.68.68,0,1,1-1.35,0,.68.68,0,0,1,1.35,0Z"/><path class="cls-5" d="M239.54,591.41a.79.79,0,0,0-.68.68.68.68,0,0,1,0-1.35A.79.79,0,0,0,239.54,591.41Z"/><path class="cls-5" d="M172.84,593a.68.68,0,0,1-1.35,0,.68.68,0,1,1,1.35,0Z"/><path class="cls-5" d="M131.27,585a.68.68,0,0,1,1-1,.68.68,0,1,1-1,1Z"/><path class="cls-5" d="M153.17,581.08a.68.68,0,1,1,1-1,.68.68,0,0,1-1,1Z"/><path class="cls-5" d="M347.62,561.85a.68.68,0,1,1,0,1.35.68.68,0,0,1,0-1.35Z"/><path class="cls-5" d="M344,598.48a.77.77,0,0,0-1,0,.78.78,0,0,0,0-1,.77.77,0,0,0,1,0A.78.78,0,0,0,344,598.48Z"/><path class="cls-5" d="M228.94,581.92a.67.67,0,1,1,.95-.95.67.67,0,0,1-.95.95Z"/><path class="cls-5" d="M215.77,581a.78.78,0,0,0,0,1,.77.77,0,0,0-1,0,.78.78,0,0,0,0-1A.77.77,0,0,0,215.77,581Z"/><path class="cls-5" d="M428.75,597.05a.77.77,0,0,0,0,1,.78.78,0,0,0-1,0,.74.74,0,0,0,0-1A.78.78,0,0,0,428.75,597.05Z"/><path class="cls-5" d="M553.27,452.63a.77.77,0,0,0,0-.95.78.78,0,0,0,1,0,.77.77,0,0,0,0,.95A.78.78,0,0,0,553.27,452.63Z"/><path class="cls-5" d="M557.55,439.42a.68.68,0,0,1,1-1,.68.68,0,0,1-1,1Z"/><path class="cls-5" d="M492.68,440.3a.77.77,0,0,0,.95,0,.78.78,0,0,0,0,1,.77.77,0,0,0-.95,0A.78.78,0,0,0,492.68,440.3Z"/><path class="cls-5" d="M545.55,504.8a.68.68,0,0,1,0,1.35.68.68,0,1,1,0-1.35Z"/><path class="cls-5" d="M513,488.9a.81.81,0,0,0,.68.68.79.79,0,0,0-.68.67.76.76,0,0,0-.67-.67A.79.79,0,0,0,513,488.9Z"/><path class="cls-5" d="M527.86,506.3a.76.76,0,0,0,.67.67.67.67,0,1,1-1.34,0A.76.76,0,0,0,527.86,506.3Z"/><path class="cls-5" d="M560.48,475.67a.68.68,0,1,1-1.35,0,.68.68,0,0,1,1.35,0Z"/><path class="cls-5" d="M549.94,459a.79.79,0,0,0-.68.67.76.76,0,0,0-.67-.67.79.79,0,0,0,.67-.68A.81.81,0,0,0,549.94,459Z"/><path class="cls-5" d="M538.69,488.55a.68.68,0,1,1-1.35,0,.68.68,0,0,1,1.35,0Z"/><path class="cls-5" d="M512,467.21a.77.77,0,0,0-.95,0,.78.78,0,0,0,0-1,.77.77,0,0,0,.95,0A.78.78,0,0,0,512,467.21Z"/><path class="cls-5" d="M515.75,438.46a.78.78,0,0,0-1,0,.77.77,0,0,0,0-.95.78.78,0,0,0,1,0A.77.77,0,0,0,515.75,438.46Z"/><path class="cls-5" d="M29.83,275.86a.68.68,0,1,1,0,1.35.68.68,0,0,1,0-1.35Z"/><path class="cls-5" d="M33.81,279.93a.68.68,0,1,1,0,1.35.68.68,0,0,1,0-1.35Z"/><path class="cls-5" d="M24.29,283a.77.77,0,0,0-.95,0,.77.77,0,0,0,0-.95.77.77,0,0,0,.95,0A.77.77,0,0,0,24.29,283Z"/><path class="cls-5" d="M30.42,304.78a.77.77,0,0,0,0-.95.77.77,0,0,0,.95,0,.77.77,0,0,0,0,.95A.77.77,0,0,0,30.42,304.78Z"/><path class="cls-5" d="M42.3,303.8a.77.77,0,0,0,0-.95.77.77,0,0,0,1,0,.77.77,0,0,0,0,.95A.77.77,0,0,0,42.3,303.8Z"/><path class="cls-5" d="M17.25,303.85a.78.78,0,0,0,0,1,.78.78,0,0,0-1,0,.78.78,0,0,0,0-1A.78.78,0,0,0,17.25,303.85Z"/><path class="cls-5" d="M2,299.83a.78.78,0,0,0,0,1,.74.74,0,0,0-.95,0,.78.78,0,0,0,0-1A.77.77,0,0,0,2,299.83Z"/><path class="cls-5" d="M46.27,335.19a.78.78,0,0,0,0-1,.74.74,0,0,0,.95,0,.78.78,0,0,0,0,1A.77.77,0,0,0,46.27,335.19Z"/><path class="cls-5" d="M50.55,322a.77.77,0,0,0,0-1,.77.77,0,0,0,1,0,.77.77,0,0,0,0,1A.77.77,0,0,0,50.55,322Z"/><path class="cls-5" d="M53.47,358.23a.77.77,0,0,0-.67.68.68.68,0,1,1,0-1.35A.76.76,0,0,0,53.47,358.23Z"/><path class="cls-5" d="M42.93,341.51a.77.77,0,0,0-.67.68.68.68,0,1,1,0-1.35A.76.76,0,0,0,42.93,341.51Z"/><path class="cls-5" d="M31.68,371.11a.77.77,0,0,0-.67.68.68.68,0,1,1,0-1.35A.76.76,0,0,0,31.68,371.11Z"/><path class="cls-5" d="M5,349.77a.75.75,0,0,0-1,0,.78.78,0,0,0,0-1,.78.78,0,0,0,1,0A.78.78,0,0,0,5,349.77Z"/><path class="cls-5" d="M8.74,321a.77.77,0,0,0-1,0,.77.77,0,0,0,0-.95.77.77,0,0,0,1,0A.77.77,0,0,0,8.74,321Z"/><path class="cls-5" d="M148.75,88.52a.77.77,0,0,0,0-1,.77.77,0,0,0,.95,0,.77.77,0,0,0,0,1A.77.77,0,0,0,148.75,88.52Z"/><path class="cls-5" d="M177.46,92.26a.77.77,0,0,0,0-1,.78.78,0,0,0,1,0,.77.77,0,0,0,0,1A.78.78,0,0,0,177.46,92.26Z"/><path class="cls-5" d="M188.09,117.43a.78.78,0,0,0,0-1,.74.74,0,0,0,.95,0,.78.78,0,0,0,0,1A.77.77,0,0,0,188.09,117.43Z"/><path class="cls-5" d="M155.85,128.22a.74.74,0,0,0,0-1,.78.78,0,0,0,1,0,.77.77,0,0,0,0,1A.78.78,0,0,0,155.85,128.22Z"/><path class="cls-5" d="M76.64,102.27a.76.76,0,0,0,.67.67.77.77,0,0,0-.67.68.79.79,0,0,0-.68-.68A.79.79,0,0,0,76.64,102.27Z"/><path class="cls-5" d="M55.29,119.19a.77.77,0,0,0,.68.68.77.77,0,0,0-.68.67.76.76,0,0,0-.67-.67A.77.77,0,0,0,55.29,119.19Z"/><path class="cls-5" d="M67.67,128.68a.81.81,0,0,0,.68.68.79.79,0,0,0-.68.67.76.76,0,0,0-.67-.67A.79.79,0,0,0,67.67,128.68Z"/><path class="cls-5" d="M134.64,94.2a.78.78,0,0,0,0-1,.77.77,0,0,0,1,0,.78.78,0,0,0,0,1A.77.77,0,0,0,134.64,94.2Z"/><path class="cls-5" d="M112.84,100.33a.78.78,0,0,0,1,0,.78.78,0,0,0,0,1,.78.78,0,0,0-1,0A.78.78,0,0,0,112.84,100.33Z"/><path class="cls-5" d="M113.82,112.23a.78.78,0,0,0,1,0,.77.77,0,0,0,0,1,.78.78,0,0,0-1,0A.77.77,0,0,0,113.82,112.23Z"/><path class="cls-5" d="M153,75.31a.78.78,0,0,0,0-1,.74.74,0,0,0,.95,0,.78.78,0,0,0,0,1A.77.77,0,0,0,153,75.31Z"/><path class="cls-5" d="M20.3,142.37a.78.78,0,0,0,0,1,.74.74,0,0,0-.95,0,.78.78,0,0,0,0-1A.77.77,0,0,0,20.3,142.37Z"/><path class="cls-5" d="M5,144a.77.77,0,0,0,0,1,.77.77,0,0,0-1,0,.77.77,0,0,0,0-1A.77.77,0,0,0,5,144Z"/><path class="cls-5" d="M6.18,170.57a.78.78,0,0,0,0,1,.77.77,0,0,0-.95,0,.78.78,0,0,0,0-1A.77.77,0,0,0,6.18,170.57Z"/><path class="cls-5" d="M12.76,94.18a.77.77,0,0,0,.68-.68.77.77,0,0,0,.67.68.76.76,0,0,0-.67.67A.77.77,0,0,0,12.76,94.18Z"/><path class="cls-5" d="M62.88,90.94a.79.79,0,0,0-.68.68.79.79,0,0,0-.67-.68.76.76,0,0,0,.67-.67A.77.77,0,0,0,62.88,90.94Z"/><path class="cls-5" d="M27.57,74.48a.78.78,0,0,0,0,1,.74.74,0,0,0-.95,0,.78.78,0,0,0,0-1A.77.77,0,0,0,27.57,74.48Z"/><path class="cls-5" d="M5.68,78.39a.78.78,0,0,0,0,1,.78.78,0,0,0-1,0,.78.78,0,0,0,0-1A.78.78,0,0,0,5.68,78.39Z"/><path class="cls-5" d="M113.77,87.15a.77.77,0,0,0-1,0,.77.77,0,0,0,0-1,.77.77,0,0,0,1,0A.77.77,0,0,0,113.77,87.15Z"/><path class="cls-5" d="M117.79,71.9a.78.78,0,0,0-1,0,.75.75,0,0,0,0-1,.78.78,0,0,0,1,0A.78.78,0,0,0,117.79,71.9Z"/><path class="cls-5" d="M94.79,78.87a.77.77,0,0,0-1,0,.78.78,0,0,0,0-1,.77.77,0,0,0,1,0A.78.78,0,0,0,94.79,78.87Z"/><path class="cls-5" d="M110,54.52a.78.78,0,0,0-1,0,.78.78,0,0,0,0-1,.78.78,0,0,0,1,0A.78.78,0,0,0,110,54.52Z"/><path class="cls-5" d="M154.46,54.52a.78.78,0,0,0-1,0,.78.78,0,0,0,0-1,.78.78,0,0,0,1,0A.78.78,0,0,0,154.46,54.52Z"/><path class="cls-5" d="M181.91,53.17a.77.77,0,0,0-.95,0,.78.78,0,0,0,0-1,.77.77,0,0,0,.95,0A.78.78,0,0,0,181.91,53.17Z"/><path class="cls-5" d="M153,178.55a.68.68,0,0,1,0,1.35.68.68,0,0,1,0-1.35Z"/><path class="cls-5" d="M130.06,196.23a.68.68,0,1,1,0,1.35.68.68,0,0,1,0-1.35Z"/><path class="cls-5" d="M104.78,186a.68.68,0,0,1,0,1.35.68.68,0,1,1,0-1.35Z"/><path class="cls-5" d="M176.69,202a.68.68,0,0,1,0,1.35.68.68,0,0,1,0-1.35Z"/><path class="cls-5" d="M159.32,190.92a.68.68,0,0,1,0,1.35.68.68,0,0,1,0-1.35Z"/><path class="cls-5" d="M92.88,205.64a.78.78,0,0,0-1,0,.74.74,0,0,0,0-.95.78.78,0,0,0,1,0A.77.77,0,0,0,92.88,205.64Z"/><path class="cls-5" d="M87.28,108a.79.79,0,0,0-.68-.68.77.77,0,0,0,.68-.67.76.76,0,0,0,.67.67A.79.79,0,0,0,87.28,108Z"/><path class="cls-5" d="M95,98.91a.77.77,0,0,0-.68-.68.77.77,0,0,0,.68-.67.76.76,0,0,0,.67.67A.77.77,0,0,0,95,98.91Z"/><path class="cls-5" d="M52,91.43a.78.78,0,0,0,0,1,.77.77,0,0,0-.95,0,.78.78,0,0,0,0-1A.74.74,0,0,0,52,91.43Z"/><path class="cls-5" d="M36,268.3a.76.76,0,0,0,.67-.67.68.68,0,1,1,0,1.35A.77.77,0,0,0,36,268.3Z"/><path class="cls-5" d="M56.71,276.45a.77.77,0,0,0,0,.95.77.77,0,0,0-1,0,.77.77,0,0,0,0-.95A.77.77,0,0,0,56.71,276.45Z"/><path class="cls-5" d="M88.94,265.66a.77.77,0,0,0,0,.95.77.77,0,0,0-1,0,.77.77,0,0,0,0-.95A.77.77,0,0,0,88.94,265.66Z"/><path class="cls-5" d="M77.16,231.37a.77.77,0,0,0,0,.95.78.78,0,0,0-1,0,.77.77,0,0,0,0-.95A.78.78,0,0,0,77.16,231.37Z"/><path class="cls-5" d="M75.38,254.19a.78.78,0,0,0,0,1,.78.78,0,0,0-1,0,.75.75,0,0,0,0-1A.78.78,0,0,0,75.38,254.19Z"/><path class="cls-5" d="M39.48,239.85a.78.78,0,0,0,0,1,.78.78,0,0,0-1,0,.78.78,0,0,0,0-1A.78.78,0,0,0,39.48,239.85Z"/><path class="cls-5" d="M95.57,249.31a.77.77,0,0,0-.95,0,.78.78,0,0,0,0-1,.77.77,0,0,0,.95,0A.78.78,0,0,0,95.57,249.31Z"/><path class="cls-5" d="M26.47,537.92a.77.77,0,0,0,0,1,.77.77,0,0,0-.95,0,.77.77,0,0,0,0-1A.77.77,0,0,0,26.47,537.92Z"/><path class="cls-5" d="M62.63,516.74a.78.78,0,0,0,0,1,.78.78,0,0,0-1,0,.78.78,0,0,0,0-1A.78.78,0,0,0,62.63,516.74Z"/><path class="cls-5" d="M50.75,517.72a.78.78,0,0,0,0,1,.78.78,0,0,0-1,0,.78.78,0,0,0,0-1A.78.78,0,0,0,50.75,517.72Z"/><path class="cls-5" d="M49.78,539.21a.77.77,0,0,0,0,.95.78.78,0,0,0-1,0,.77.77,0,0,0,0-.95A.78.78,0,0,0,49.78,539.21Z"/><path class="cls-5" d="M30.25,531.27a.78.78,0,0,0,0,1,.78.78,0,0,0-1,0,.78.78,0,0,0,0-1A.78.78,0,0,0,30.25,531.27Z"/><path class="cls-5" d="M235.16,555.51a.68.68,0,0,1,0,1.35.68.68,0,0,1,0-1.35Z"/><path class="cls-5" d="M209.46,524.72a.68.68,0,0,1,0,1.35.68.68,0,1,1,0-1.35Z"/><path class="cls-5" d="M186.51,542.4a.68.68,0,1,1,0,1.35.68.68,0,0,1,0-1.35Z"/><path class="cls-5" d="M161.22,532.12a.68.68,0,1,1,0,1.35.68.68,0,0,1,0-1.35Z"/><path class="cls-5" d="M252.55,539.92a.79.79,0,0,0,.68.68.68.68,0,0,1-1.35,0A.79.79,0,0,0,252.55,539.92Z"/><path class="cls-5" d="M246.72,555.7a.79.79,0,0,0,.67.68.67.67,0,1,1-1.34,0A.79.79,0,0,0,246.72,555.7Z"/><path class="cls-5" d="M233.14,548.13a.68.68,0,0,1,0,1.35.68.68,0,1,1,0-1.35Z"/><path class="cls-5" d="M215.77,537.09a.68.68,0,0,1,0,1.35.68.68,0,1,1,0-1.35Z"/><path class="cls-5" d="M215.12,560.71a.78.78,0,0,0-1,0,.77.77,0,0,0,0-1,.78.78,0,0,0,1,0A.77.77,0,0,0,215.12,560.71Z"/><path class="cls-5" d="M178.37,563.1a.77.77,0,0,0-1,0,.78.78,0,0,0,0-1,.74.74,0,0,0,1,0A.78.78,0,0,0,178.37,563.1Z"/><path class="cls-5" d="M149.33,551.81a.78.78,0,0,0-1,0,.77.77,0,0,0,0-.95.78.78,0,0,0,1,0A.74.74,0,0,0,149.33,551.81Z"/><path class="cls-5" d="M304.49,552.37a.68.68,0,1,1-1.35,0,.68.68,0,0,1,1.35,0Z"/><path class="cls-5" d="M265.25,555.12a.78.78,0,0,0,0-1,.77.77,0,0,0,.95,0,.78.78,0,0,0,0,1A.77.77,0,0,0,265.25,555.12Z"/><path class="cls-5" d="M266.68,534.33a.68.68,0,0,1-1-1,.68.68,0,1,1,1,1Z"/><path class="cls-5" d="M294.13,533a.67.67,0,1,1-.95-1,.67.67,0,0,1,.95,1Z"/><path class="cls-5" d="M281.29,518.19a.78.78,0,0,0-1,0,.74.74,0,0,0,0-1,.78.78,0,0,0,1,0A.77.77,0,0,0,281.29,518.19Z"/><path class="cls-5" d="M124.93,522.62a.78.78,0,0,0-1,0,.77.77,0,0,0,0-1,.78.78,0,0,0,1,0A.77.77,0,0,0,124.93,522.62Z"/><path class="cls-5" d="M133,529.71a.67.67,0,0,1-1-1,.67.67,0,1,1,1,1Z"/><path class="cls-5" d="M137,521.88a.67.67,0,0,1-.95-1,.67.67,0,0,1,.95,1Z"/><path class="cls-5" d="M151.65,521.92a.77.77,0,0,0-1,0,.78.78,0,0,0,0-1,.77.77,0,0,0,1,0A.78.78,0,0,0,151.65,521.92Z"/><path class="cls-5" d="M108.05,532.07a.67.67,0,1,1-1,.95.77.77,0,0,0,0-.95A.77.77,0,0,0,108.05,532.07Z"/><path class="cls-5" d="M107.93,573.58a.77.77,0,0,0,.95,0,.78.78,0,0,0,0,1,.77.77,0,0,0-.95,0A.78.78,0,0,0,107.93,573.58Z"/><path class="cls-5" d="M146.13,566a.77.77,0,0,0,1,0,.78.78,0,0,0,0,1,.77.77,0,0,0-1,0A.78.78,0,0,0,146.13,566Z"/><path class="cls-5" d="M69.52,516a.79.79,0,0,0-.67-.68.76.76,0,0,0,.67-.67.79.79,0,0,0,.68.67A.81.81,0,0,0,69.52,516Z"/><path class="cls-5" d="M91.07,550.56a.77.77,0,0,0,1,0,.77.77,0,0,0,0,1,.77.77,0,0,0-1,0A.77.77,0,0,0,91.07,550.56Z"/><path class="cls-5" d="M63.06,574.59a.77.77,0,0,0,1,0,.78.78,0,0,0,0,1,.77.77,0,0,0-1,0A.78.78,0,0,0,63.06,574.59Z"/><path class="cls-5" d="M68.11,534a.78.78,0,0,0,0,1,.77.77,0,0,0-1,0,.78.78,0,0,0,0-1A.77.77,0,0,0,68.11,534Z"/><path class="cls-5" d="M321.88,548.38a.78.78,0,0,0,0-1,.77.77,0,0,0,.95,0,.78.78,0,0,0,0,1A.77.77,0,0,0,321.88,548.38Z"/><path class="cls-5" d="M333.66,582.66a.77.77,0,0,0,0-.95.78.78,0,0,0,1,0,.77.77,0,0,0,0,.95A.78.78,0,0,0,333.66,582.66Z"/><path class="cls-5" d="M335.44,559.84a.77.77,0,0,0,0-1,.78.78,0,0,0,1,0,.77.77,0,0,0,0,1A.78.78,0,0,0,335.44,559.84Z"/><path class="cls-5" d="M315.25,564.72a.74.74,0,0,0,.95,0,.78.78,0,0,0,0,1,.77.77,0,0,0-.95,0A.78.78,0,0,0,315.25,564.72Z"/><path class="cls-5" d="M91.78,215.33a.68.68,0,0,1,0-1.35.68.68,0,1,1,0,1.35Z"/><path class="cls-5" d="M48.69,200.13a.79.79,0,0,0-.67-.68.76.76,0,0,0,.67-.67.76.76,0,0,0,.67.67A.79.79,0,0,0,48.69,200.13Z"/><path class="cls-5" d="M85.47,203a.76.76,0,0,0-.67-.67.79.79,0,0,0,.67-.68.81.81,0,0,0,.68.68A.79.79,0,0,0,85.47,203Z"/><path class="cls-5" d="M4.29,235.87a.77.77,0,0,0,0,.95.78.78,0,0,0-1,0,.74.74,0,0,0,0-.95A.78.78,0,0,0,4.29,235.87Z"/><path class="cls-5" d="M27.87,255.82a.76.76,0,0,0,.67-.67.68.68,0,1,1,0,1.35A.77.77,0,0,0,27.87,255.82Z"/><path class="cls-5" d="M27.19,227.19a.77.77,0,0,0,.68-.68.68.68,0,0,1,0,1.35A.77.77,0,0,0,27.19,227.19Z"/><path class="cls-5" d="M40.23,249.51a.79.79,0,0,0,.67-.68.79.79,0,0,0,.68.68.77.77,0,0,0-.68.67A.76.76,0,0,0,40.23,249.51Z"/><path class="cls-5" d="M53.2,228.12a.76.76,0,0,0,.67-.67.68.68,0,0,1,0,1.35A.77.77,0,0,0,53.2,228.12Z"/><path class="cls-5" d="M465.36,74a.76.76,0,0,0-.67-.67.68.68,0,1,1,1.35,0A.77.77,0,0,0,465.36,74Z"/><path class="cls-5" d="M479,66.08a.79.79,0,0,0-.68-.67.81.81,0,0,0,.68-.68.79.79,0,0,0,.67.68A.76.76,0,0,0,479,66.08Z"/><path class="cls-5" d="M475,62a.77.77,0,0,0-.68-.68.68.68,0,0,1,1.35,0A.77.77,0,0,0,475,62Z"/><path class="cls-5" d="M504.73,102.76a.78.78,0,0,0,0,1,.77.77,0,0,0-1,0,.78.78,0,0,0,0-1A.77.77,0,0,0,504.73,102.76Z"/><path class="cls-5" d="M520.9,108.91a.77.77,0,0,0-.68-.68.68.68,0,0,1,1.35,0A.77.77,0,0,0,520.9,108.91Z"/><path class="cls-5" d="M431,116.57a.77.77,0,0,0,0,1,.78.78,0,0,0-1,0,.77.77,0,0,0,0-1A.78.78,0,0,0,431,116.57Z"/><path class="cls-5" d="M455.29,96.37a.78.78,0,0,0,0,1,.77.77,0,0,0-1,0,.78.78,0,0,0,0-1A.77.77,0,0,0,455.29,96.37Z"/><path class="cls-5" d="M438.1,108.52a.78.78,0,0,0,0,1,.77.77,0,0,0-1,0,.78.78,0,0,0,0-1A.77.77,0,0,0,438.1,108.52Z"/><path class="cls-5" d="M434.79,109.92a.78.78,0,0,0,0,1,.77.77,0,0,0-1,0,.78.78,0,0,0,0-1A.77.77,0,0,0,434.79,109.92Z"/><path class="cls-5" d="M430.31,89.82a.77.77,0,0,0,0,1,.77.77,0,0,0-.95,0,.77.77,0,0,0,0-1A.77.77,0,0,0,430.31,89.82Z"/><path class="cls-5" d="M413.17,106.06a.77.77,0,0,0-.68-.67.68.68,0,1,1,1.35,0A.76.76,0,0,0,413.17,106.06Z"/><path class="cls-5" d="M465.25,116.77a.68.68,0,0,1-1.35,0,.68.68,0,1,1,1.35,0Z"/><path class="cls-5" d="M483.71,96.38a.68.68,0,0,1-1.35,0,.68.68,0,1,1,1.35,0Z"/><path class="cls-5" d="M464.18,95a.68.68,0,0,1-1.35,0,.68.68,0,1,1,1.35,0Z"/><path class="cls-5" d="M450.53,80.22a.77.77,0,0,0,1,0,.77.77,0,0,0,0,1,.77.77,0,0,0-1,0A.77.77,0,0,0,450.53,80.22Z"/><path class="cls-5" d="M484.52,59a.77.77,0,0,0,1,0,.78.78,0,0,0,0,1,.77.77,0,0,0-1,0A.78.78,0,0,0,484.52,59Z"/><path class="cls-5" d="M343.36,92.56a.67.67,0,1,1-1.34,0,.67.67,0,0,1,1.34,0Z"/><path class="cls-5" d="M374.12,66.83a.68.68,0,1,1-1.35,0,.68.68,0,0,1,1.35,0Z"/><path class="cls-5" d="M358.93,110a.67.67,0,1,1-1.34,0,.67.67,0,0,1,1.34,0Z"/><path class="cls-5" d="M343.17,104.14a.79.79,0,0,0-.68.67.76.76,0,0,0-.67-.67.79.79,0,0,0,.67-.68A.81.81,0,0,0,343.17,104.14Z"/><path class="cls-5" d="M350.73,90.54a.79.79,0,0,0-.68.67.76.76,0,0,0-.67-.67.77.77,0,0,0,.67-.68A.79.79,0,0,0,350.73,90.54Z"/><path class="cls-5" d="M361.76,73.15a.68.68,0,0,1-1.35,0,.68.68,0,1,1,1.35,0Z"/><path class="cls-5" d="M338.17,72.5a.78.78,0,0,0,0-1,.77.77,0,0,0,.95,0,.78.78,0,0,0,0,1A.77.77,0,0,0,338.17,72.5Z"/><path class="cls-5" d="M308.33,64.42a.68.68,0,0,1-1.35,0,.68.68,0,1,1,1.35,0Z"/><path class="cls-5" d="M314.45,107.3a.79.79,0,0,0-.68.67.76.76,0,0,0-.67-.67.79.79,0,0,0,.67-.68A.81.81,0,0,0,314.45,107.3Z"/><path class="cls-5" d="M343.75,122.68a.78.78,0,0,0,1,0,.74.74,0,0,0,0,.95.78.78,0,0,0-1,0A.77.77,0,0,0,343.75,122.68Z"/><path class="cls-5" d="M408.26,118.44a.76.76,0,0,0-.67-.67.67.67,0,1,1,1.34,0A.76.76,0,0,0,408.26,118.44Z"/><path class="cls-5" d="M153.53,337.54a.68.68,0,1,1,0,1.35.68.68,0,0,1,0-1.35Z"/><path class="cls-5" d="M167.57,272.32a.68.68,0,0,1,1.35,0,.68.68,0,1,1-1.35,0Z"/><path class="cls-5" d="M185.23,295.29a.79.79,0,0,0,.68-.67.68.68,0,0,1,0,1.35A.79.79,0,0,0,185.23,295.29Z"/><path class="cls-5" d="M175,320.61a.67.67,0,1,1,1.34,0,.67.67,0,0,1-1.34,0Z"/><path class="cls-5" d="M194.63,332.52a.67.67,0,0,1-.95,1,.67.67,0,0,1,.95-1Z"/><path class="cls-5" d="M238.14,292.64a.78.78,0,0,0,0,1,.77.77,0,0,0-.95,0,.78.78,0,0,0,0-1A.77.77,0,0,0,238.14,292.64Z"/><path class="cls-5" d="M233.36,274.74a.68.68,0,1,1,1.35,0,.68.68,0,0,1-1.35,0Z"/><path class="cls-5" d="M164.74,344.82a.77.77,0,0,0,0,.95.78.78,0,0,0-1,0,.77.77,0,0,0,0-.95A.78.78,0,0,0,164.74,344.82Z"/><path class="cls-5" d="M164.77,330.19a.67.67,0,0,1-1,.95.67.67,0,1,1,1-.95Z"/><path class="cls-5" d="M494.92,93.1a.68.68,0,1,1,1.35,0,.68.68,0,0,1-1.35,0Z"/><path class="cls-5" d="M519.21,65.4a.68.68,0,0,1,1.35,0,.68.68,0,1,1-1.35,0Z"/><path class="cls-5" d="M546,93.1a.77.77,0,0,0,.67-.68.79.79,0,0,0,.68.68.79.79,0,0,0-.68.67A.76.76,0,0,0,546,93.1Z"/><path class="cls-5" d="M560.78,73.4a.78.78,0,0,0,0,1,.77.77,0,0,0-.95,0,.78.78,0,0,0,0-1A.77.77,0,0,0,560.78,73.4Z"/><path class="cls-5" d="M550.16,48.23a.78.78,0,0,0,0,1,.78.78,0,0,0-1,0,.78.78,0,0,0,0-1A.75.75,0,0,0,550.16,48.23Z"/><path class="cls-5" d="M538.88,77.31a.78.78,0,0,0,0,1,.77.77,0,0,0-1,0,.78.78,0,0,0,0-1A.77.77,0,0,0,538.88,77.31Z"/><path class="cls-5" d="M208.83,335.72a.78.78,0,0,0,0-1,.77.77,0,0,0,.95,0,.78.78,0,0,0,0,1A.77.77,0,0,0,208.83,335.72Z"/><path class="cls-5" d="M34.57,205.72a.77.77,0,0,0,1,0,.78.78,0,0,0,0,1,.77.77,0,0,0-1,0A.78.78,0,0,0,34.57,205.72Z"/><path class="cls-5" d="M20,221.86a.78.78,0,0,0,1,0,.77.77,0,0,0,0,.95.78.78,0,0,0-1,0A.77.77,0,0,0,20,221.86Z"/><path class="cls-5" d="M76.89,572.53a.78.78,0,0,0,0,1,.77.77,0,0,0-1,0,.78.78,0,0,0,0-1A.74.74,0,0,0,76.89,572.53Z"/><path class="cls-5" d="M75.11,595.36a.77.77,0,0,0,0,.95.77.77,0,0,0-1,0,.77.77,0,0,0,0-.95A.77.77,0,0,0,75.11,595.36Z"/><path class="cls-5" d="M39.21,581a.77.77,0,0,0,0,1,.77.77,0,0,0-1,0,.77.77,0,0,0,0-1A.77.77,0,0,0,39.21,581Z"/><path class="cls-5" d="M95.3,590.47a.77.77,0,0,0-1,0,.77.77,0,0,0,0-1,.77.77,0,0,0,1,0A.77.77,0,0,0,95.3,590.47Z"/><path class="cls-5" d="M91.52,556.5a.79.79,0,0,0-.68-.68.77.77,0,0,0,.68-.67.76.76,0,0,0,.67.67A.79.79,0,0,0,91.52,556.5Z"/><path class="cls-5" d="M4,577a.78.78,0,0,0,0,1,.77.77,0,0,0-.95,0,.78.78,0,0,0,0-1A.77.77,0,0,0,4,577Z"/><path class="cls-5" d="M27.6,597a.77.77,0,0,0,.68-.68.68.68,0,0,1,0,1.35A.77.77,0,0,0,27.6,597Z"/><path class="cls-5" d="M26.93,568.36a.79.79,0,0,0,.67-.68.79.79,0,0,0,.68.68.77.77,0,0,0-.68.67A.76.76,0,0,0,26.93,568.36Z"/><path class="cls-5" d="M40,590.67a.77.77,0,0,0,.68-.67.68.68,0,0,1,0,1.35A.77.77,0,0,0,40,590.67Z"/><path class="cls-5" d="M52.93,569.29a.77.77,0,0,0,.67-.68.68.68,0,1,1,0,1.35A.76.76,0,0,0,52.93,569.29Z"/><path class="cls-5" d="M19.69,563a.77.77,0,0,0,.95,0,.78.78,0,0,0,0,1,.74.74,0,0,0-.95,0A.78.78,0,0,0,19.69,563Z"/><path class="cls-5" d="M576.81,525.85a.78.78,0,0,0,0-1,.77.77,0,0,0,1,0,.78.78,0,0,0,0,1A.77.77,0,0,0,576.81,525.85Z"/><path class="cls-5" d="M576.86,520.16a.75.75,0,0,0,0-1,.68.68,0,0,1,1,1A.78.78,0,0,0,576.86,520.16Z"/><path class="cls-5" d="M533,529.88a.67.67,0,0,1-1-1,.67.67,0,0,1,1,1Z"/><path class="cls-5" d="M577.83,494.89a.67.67,0,1,1-1,.95.67.67,0,0,1,1-.95Z"/><path class="cls-5" d="M95.54,581.77a.79.79,0,0,0-.67-.68.76.76,0,0,0,.67-.67.79.79,0,0,0,.68.67A.81.81,0,0,0,95.54,581.77Z"/><path class="cls-5" d="M180.16,522.34a.68.68,0,1,1,0-1.35.68.68,0,0,1,0,1.35Z"/><path class="cls-5" d="M273.4,581a.68.68,0,1,1,1-1,.68.68,0,0,1-1,1Z"/><path class="cls-5" d="M302.12,584.77a.78.78,0,0,0,0-1,.77.77,0,0,0,.95,0,.78.78,0,0,0,0,1A.77.77,0,0,0,302.12,584.77Z"/><path class="cls-5" d="M314.77,592.88a.77.77,0,0,0,0-1,.78.78,0,0,0,1,0,.77.77,0,0,0,0,1A.78.78,0,0,0,314.77,592.88Z"/><path class="cls-5" d="M277.68,567.81a.77.77,0,0,0,0-.95.78.78,0,0,0,1,0,.74.74,0,0,0,0,.95A.78.78,0,0,0,277.68,567.81Z"/><path class="cls-5" d="M359.4,505.91a.78.78,0,0,0,.67.68.68.68,0,0,1-1.35,0A.78.78,0,0,0,359.4,505.91Z"/><path class="cls-5" d="M322.5,575.89a.76.76,0,0,0,.67.67.68.68,0,1,1-1.35,0A.77.77,0,0,0,322.5,575.89Z"/><path class="cls-5" d="M212.81,568.7a.67.67,0,1,1,.95.95.67.67,0,0,1-.95-.95Z"/><path class="cls-5" d="M120.17,585.39a.76.76,0,0,0,.67.67.79.79,0,0,0-.67.68.79.79,0,0,0-.68-.68A.77.77,0,0,0,120.17,585.39Z"/><path class="cls-5" d="M179.05,576a.68.68,0,0,1-1.35,0,.68.68,0,1,1,1.35,0Z"/><path class="cls-5" d="M193.74,582.85a.77.77,0,0,0-.67.68.68.68,0,1,1,0-1.35A.76.76,0,0,0,193.74,582.85Z"/><path class="cls-5" d="M305.17,517.31a.68.68,0,0,1-1.35,0,.68.68,0,1,1,1.35,0Z"/><path class="cls-5" d="M145.86,585a.77.77,0,0,0-.67.68.68.68,0,1,1,0-1.35A.76.76,0,0,0,145.86,585Z"/><path class="cls-5" d="M219.26,596.44a.68.68,0,0,1-1-1,.68.68,0,1,1,1,1Z"/><path class="cls-5" d="M235.88,566.86a.68.68,0,1,1-1-1,.75.75,0,0,0,1,0A.78.78,0,0,0,235.88,566.86Z"/><path class="cls-5" d="M369.22,569.23a.68.68,0,0,1,1.35,0,.68.68,0,1,1-1.35,0Z"/><path class="cls-5" d="M388.89,581.14a.68.68,0,0,1-1,1,.75.75,0,0,0,0-1A.78.78,0,0,0,388.89,581.14Z"/><path class="cls-5" d="M399.44,598a.67.67,0,1,1-.95,1,.67.67,0,0,1,.95-1Z"/><path class="cls-5" d="M366.81,597.52a.78.78,0,0,0,0,1,.77.77,0,0,0-.95,0,.78.78,0,0,0,0-1A.77.77,0,0,0,366.81,597.52Z"/><path class="cls-5" d="M359,593.45a.67.67,0,0,1-.95.95.67.67,0,1,1,.95-.95Z"/><path class="cls-5" d="M359,578.82a.77.77,0,0,0,0,.95.78.78,0,0,0-1,0,.77.77,0,0,0,0-.95A.78.78,0,0,0,359,578.82Z"/><path class="cls-5" d="M302.36,491.47a.68.68,0,0,1,0-1.35.68.68,0,1,1,0,1.35Z"/><path class="cls-5" d="M256.21,590.55a.77.77,0,0,0,1,0,.78.78,0,0,0,0,1,.77.77,0,0,0-1,0A.78.78,0,0,0,256.21,590.55Z"/><path class="cls-5" d="M267.57,517.79a.67.67,0,1,1-.95,1,.67.67,0,0,1,.95-1Z"/><path class="cls-5" d="M494.39,517.31a.67.67,0,0,1-.95,1,.67.67,0,1,1,.95-1Z"/><path class="cls-5" d="M455.91,516.66a.78.78,0,0,0,0,1,.77.77,0,0,0-1,0,.78.78,0,0,0,0-1A.77.77,0,0,0,455.91,516.66Z"/><path class="cls-5" d="M459.35,541.08a.68.68,0,0,1,0-1.35.68.68,0,1,1,0,1.35Z"/><path class="cls-5" d="M472.07,522.81a.76.76,0,0,0-.67-.67.68.68,0,1,1,1.35,0A.77.77,0,0,0,472.07,522.81Z"/><path class="cls-5" d="M490.58,587.49a.68.68,0,0,1-1.35,0,.68.68,0,1,1,1.35,0Z"/><path class="cls-5" d="M450.63,563.48a.67.67,0,0,1,.95-1,.67.67,0,1,1-.95,1Z"/><path class="cls-5" d="M414.47,584.66a.67.67,0,1,1,.95-.95.67.67,0,0,1-.95.95Z"/><path class="cls-5" d="M427.32,562.19a.67.67,0,1,1,.95-1,.67.67,0,0,1-.95,1Z"/><path class="cls-5" d="M443.54,571.53a.68.68,0,1,1,1-1,.68.68,0,0,1-1,1Z"/><path class="cls-5" d="M446.85,570.13a.78.78,0,0,0,0-1,.74.74,0,0,0,.95,0,.78.78,0,0,0,0,1A.77.77,0,0,0,446.85,570.13Z"/><path class="cls-5" d="M451.33,590.23a.67.67,0,1,1,.95-1,.67.67,0,0,1-.95,1Z"/><path class="cls-5" d="M563.79,578.86a.68.68,0,0,1,0,1.35.68.68,0,0,1,0-1.35Z"/><path class="cls-5" d="M531.24,563a.68.68,0,0,1,0,1.35.68.68,0,1,1,0-1.35Z"/><path class="cls-5" d="M546.1,580.35a.68.68,0,1,1,0,1.35.68.68,0,0,1,0-1.35Z"/><path class="cls-5" d="M510.59,595.62a.68.68,0,0,1,0,1.35.68.68,0,1,1,0-1.35Z"/><path class="cls-5" d="M578.72,549.73a.68.68,0,0,1-1.35,0,.68.68,0,1,1,1.35,0Z"/><path class="cls-5" d="M556.93,562.61a.68.68,0,0,1-1.35,0,.68.68,0,1,1,1.35,0Z"/><path class="cls-5" d="M489,561a.67.67,0,0,1-1-1,.67.67,0,0,1,1,1Z"/><path class="cls-5" d="M512,577.62a.68.68,0,0,1,1-1,.68.68,0,0,1-1,1Z"/><path class="cls-5" d="M343.49,523.86a.77.77,0,0,0,0-1,.78.78,0,0,0,1,0,.77.77,0,0,0,0,1A.78.78,0,0,0,343.49,523.86Z"/><path class="cls-5" d="M345.27,501a.67.67,0,0,1,1-1,.67.67,0,0,1-1,1Z"/><path class="cls-5" d="M372,555.1a.68.68,0,0,1,0,1.35.68.68,0,0,1,0-1.35Z"/><path class="cls-5" d="M335.17,552.27a.68.68,0,1,1,0,1.35.68.68,0,0,1,0-1.35Z"/><path class="cls-5" d="M416.36,519.37a.78.78,0,0,0,0-1,.77.77,0,0,0,.95,0,.78.78,0,0,0,0,1A.77.77,0,0,0,416.36,519.37Z"/><path class="cls-5" d="M392.78,499.41a.77.77,0,0,0-.67.68.68.68,0,1,1,0-1.35A.76.76,0,0,0,392.78,499.41Z"/><path class="cls-5" d="M393.45,528a.67.67,0,1,1-1.34,0,.67.67,0,1,1,1.34,0Z"/><path class="cls-5" d="M380.42,505.73a.76.76,0,0,0-.67.67.79.79,0,0,0-.68-.67.8.8,0,0,0,.68-.68A.78.78,0,0,0,380.42,505.73Z"/><path class="cls-5" d="M367.45,527.11a.67.67,0,1,1-1.34,0,.67.67,0,1,1,1.34,0Z"/><path class="cls-5" d="M386.08,549.51a.67.67,0,0,1-.95-1,.67.67,0,1,1,.95,1Z"/><path class="cls-5" d="M413.54,548.16a.77.77,0,0,0-1,0,.78.78,0,0,0,0-1,.77.77,0,0,0,1,0A.78.78,0,0,0,413.54,548.16Z"/><path class="cls-5" d="M400.7,533.38a.68.68,0,0,1-1-1,.68.68,0,1,1,1,1Z"/><path class="cls-5" d="M37.59,596.58a.74.74,0,0,0,0,.95.78.78,0,0,0-1,0,.77.77,0,0,0,0-.95A.78.78,0,0,0,37.59,596.58Z"/><path class="cls-5" d="M197.82,588.68a.68.68,0,1,1-1,1,.68.68,0,0,1,1-1Z"/><path class="cls-5" d="M221.12,590a.78.78,0,0,0,0,1,.77.77,0,0,0-1,0,.78.78,0,0,0,0-1A.77.77,0,0,0,221.12,590Z"/><path class="cls-5" d="M578.05,597.49a.79.79,0,0,0-.67-.68.76.76,0,0,0,.67-.67.79.79,0,0,0,.68.67A.81.81,0,0,0,578.05,597.49Z"/><path class="cls-5" d="M357.86,593.16a.79.79,0,0,0,.67.68.68.68,0,0,1-1.35,0A.79.79,0,0,0,357.86,593.16Z"/><path class="cls-5" d="M332.57,582.89a.68.68,0,0,1,0,1.35.68.68,0,1,1,0-1.35Z"/><path class="cls-5" d="M423.9,590.68a.68.68,0,0,1,0,1.35.68.68,0,1,1,0-1.35Z"/><path class="cls-5" d="M404.48,598.9a.68.68,0,1,1,0,1.35.68.68,0,0,1,0-1.35Z"/><path class="cls-5" d="M387.11,587.85a.78.78,0,0,0,.68.68.68.68,0,0,1-1.35,0A.78.78,0,0,0,387.11,587.85Z"/><path class="cls-5" d="M438,585.09a.67.67,0,1,1-.95-1,.67.67,0,0,1,.95,1Z"/><path class="cls-5" d="M465.48,583.74a.77.77,0,0,0-1,0,.78.78,0,0,0,0-1,.77.77,0,0,0,1,0A.78.78,0,0,0,465.48,583.74Z"/><path class="cls-5" d="M279.4,582.83a.77.77,0,0,0,0,.95.78.78,0,0,0-1,0,.77.77,0,0,0,0-.95A.78.78,0,0,0,279.4,582.83Z"/><path class="cls-5" d="M239.46,584.72a.77.77,0,0,0,0,.95.78.78,0,0,0-1,0,.77.77,0,0,0,0-.95A.78.78,0,0,0,239.46,584.72Z"/><path class="cls-5" d="M117.2,589.21a.68.68,0,0,1,0-1.35.68.68,0,1,1,0,1.35Z"/><path class="cls-5" d="M34.54,584a.76.76,0,0,0,.67-.67.68.68,0,1,1,0,1.35A.77.77,0,0,0,34.54,584Z"/><path class="cls-5" d="M43.63,591.75a.77.77,0,0,0,.67-.68.68.68,0,1,1,0,1.35A.76.76,0,0,0,43.63,591.75Z"/><path class="cls-5" d="M91.51,589.56a.76.76,0,0,0,.67-.67.68.68,0,1,1,0,1.35A.77.77,0,0,0,91.51,589.56Z"/><path class="cls-5" d="M159.4,591.15a.77.77,0,0,0,.95,0,.78.78,0,0,0,0,1,.77.77,0,0,0-.95,0A.78.78,0,0,0,159.4,591.15Z"/><path class="cls-5" d="M552.33,588.93a.68.68,0,0,1,0-1.35.68.68,0,1,1,0,1.35Z"/><path class="cls-5" d="M548.36,584.87a.81.81,0,0,0-.68-.68.79.79,0,0,0,.68-.67.76.76,0,0,0,.67.67A.79.79,0,0,0,548.36,584.87Z"/><path class="cls-5" d="M546.14,596.5a.79.79,0,0,0-.68.67.76.76,0,0,0-.67-.67.79.79,0,0,0,.67-.68A.81.81,0,0,0,546.14,596.5Z"/><path class="cls-5" d="M525.46,588.35a.78.78,0,0,0,0-1,.77.77,0,0,0,.95,0,.78.78,0,0,0,0,1A.77.77,0,0,0,525.46,588.35Z"/><path class="cls-5" d="M493.23,599.14a.67.67,0,1,1,.95-.95.67.67,0,0,1-.95.95Z"/><path class="cls-5" d="M414.6,592.48a.76.76,0,0,0-.67.67.79.79,0,0,0-.68-.67.81.81,0,0,0,.68-.68A.79.79,0,0,0,414.6,592.48Z"/><path class="cls-5" d="M348.8,590.06a.67.67,0,1,1-1.34,0,.67.67,0,1,1,1.34,0Z"/><path class="cls-5" d="M506.54,4.36a.68.68,0,0,1-1.35,0,.68.68,0,1,1,1.35,0Z"/><path class="cls-5" d="M577,5a.79.79,0,0,0-.68.68.77.77,0,0,0-.67-.68.76.76,0,0,0,.67-.67A.79.79,0,0,0,577,5Z"/><path class="cls-5" d="M547.06,15a.68.68,0,0,1-1.35,0,.68.68,0,1,1,1.35,0Z"/><path class="cls-5" d="M538,7.26a.79.79,0,0,0-.68.68.77.77,0,0,0-.67-.68.76.76,0,0,0,.67-.67A.79.79,0,0,0,538,7.26Z"/><path class="cls-5" d="M522.11,21.77a.68.68,0,0,1-1.35,0,.68.68,0,1,1,1.35,0Z"/><path class="cls-5" d="M517.23,3.68a.68.68,0,1,1-1.35,0,.68.68,0,0,1,1.35,0Z"/><path class="cls-5" d="M436.94,29.22a.79.79,0,0,0-.68.68.77.77,0,0,0-.67-.68.76.76,0,0,0,.67-.67A.79.79,0,0,0,436.94,29.22Z"/><path class="cls-5" d="M447.2,3.91a.67.67,0,0,1-1.34,0,.67.67,0,1,1,1.34,0Z"/><path class="cls-5" d="M477.62,19.09a.76.76,0,0,0-.67.67.79.79,0,0,0-.68-.67.79.79,0,0,0,.68-.68A.77.77,0,0,0,477.62,19.09Z"/><path class="cls-5" d="M416.26,21.07a.77.77,0,0,0,0-.95.77.77,0,0,0,.95,0,.77.77,0,0,0,0,.95A.77.77,0,0,0,416.26,21.07Z"/><path class="cls-5" d="M384,31.87a.78.78,0,0,0,0-1,.77.77,0,0,0,1,0,.78.78,0,0,0,0,1A.77.77,0,0,0,384,31.87Z"/><path class="cls-5" d="M304.81,5.91a.79.79,0,0,0,.67.68.68.68,0,0,1-1.35,0A.79.79,0,0,0,304.81,5.91Z"/><path class="cls-5" d="M283.46,22.84a.79.79,0,0,0,.68.67.79.79,0,0,0-.68.68.77.77,0,0,0-.67-.68A.76.76,0,0,0,283.46,22.84Z"/><path class="cls-5" d="M295.85,32.32a.77.77,0,0,0,.67.68.68.68,0,0,1-1.35,0A.77.77,0,0,0,295.85,32.32Z"/><path class="cls-5" d="M341,4a.77.77,0,0,0,1,0,.77.77,0,0,0,0,.95.77.77,0,0,0-1,0A.77.77,0,0,0,341,4Z"/><path class="cls-5" d="M342,15.87a.77.77,0,0,0,.95,0,.78.78,0,0,0,0,1,.74.74,0,0,0-.95,0A.78.78,0,0,0,342,15.87Z"/><path class="cls-5" d="M141.75,18.38a.79.79,0,0,0,.68-.68.79.79,0,0,0,.67.68.76.76,0,0,0-.67.67A.77.77,0,0,0,141.75,18.38Z"/><path class="cls-5" d="M131.49,43.69a.77.77,0,0,0,.67-.68.77.77,0,0,0,.68.68.77.77,0,0,0-.68.67A.76.76,0,0,0,131.49,43.69Z"/><path class="cls-5" d="M158.25,71.39a.67.67,0,1,1,1.34,0,.67.67,0,1,1-1.34,0Z"/><path class="cls-5" d="M201.77,55.43a.77.77,0,0,0,0,1,.77.77,0,0,0-1,0,.77.77,0,0,0,0-1A.77.77,0,0,0,201.77,55.43Z"/><path class="cls-5" d="M173.06,51.69a.77.77,0,0,0,0,1,.78.78,0,0,0-1,0,.77.77,0,0,0,0-1A.78.78,0,0,0,173.06,51.69Z"/><path class="cls-5" d="M162.43,26.52a.78.78,0,0,0,0,1,.77.77,0,0,0-1,0,.78.78,0,0,0,0-1A.77.77,0,0,0,162.43,26.52Z"/><path class="cls-5" d="M151.16,55.6a.77.77,0,0,0,0,.95.78.78,0,0,0-1,0,.77.77,0,0,0,0-.95A.78.78,0,0,0,151.16,55.6Z"/><path class="cls-5" d="M194.66,15.73a.77.77,0,0,0,0,.95.77.77,0,0,0-.95,0,.77.77,0,0,0,0-.95A.77.77,0,0,0,194.66,15.73Z"/><path class="cls-5" d="M248.48,46a.77.77,0,0,0,0,.95.78.78,0,0,0-1,0,.77.77,0,0,0,0-.95A.78.78,0,0,0,248.48,46Z"/><path class="cls-5" d="M218.57,37.47a.77.77,0,0,0,0,1,.77.77,0,0,0-.95,0,.77.77,0,0,0,0-1A.77.77,0,0,0,218.57,37.47Z"/><path class="cls-5" d="M233.18,47.68a.78.78,0,0,0,0,1,.77.77,0,0,0-1,0,.78.78,0,0,0,0-1A.77.77,0,0,0,233.18,47.68Z"/><path class="cls-5" d="M215.88,49.75a.78.78,0,0,0,0,1,.78.78,0,0,0-1,0,.75.75,0,0,0,0-1A.78.78,0,0,0,215.88,49.75Z"/><path class="cls-5" d="M234.35,74.22a.77.77,0,0,0,0,1,.77.77,0,0,0-.95,0,.77.77,0,0,0,0-1A.77.77,0,0,0,234.35,74.22Z"/><path class="cls-5" d="M222.47,75.2a.77.77,0,0,0,0,1,.77.77,0,0,0-.95,0,.77.77,0,0,0,0-1A.77.77,0,0,0,222.47,75.2Z"/><path class="cls-5" d="M197.49,68.64a.78.78,0,0,0,0,1,.77.77,0,0,0-1,0,.78.78,0,0,0,0-1A.77.77,0,0,0,197.49,68.64Z"/><path class="cls-5" d="M381.18,82.19a.79.79,0,0,0,.68.68.68.68,0,0,1-1.35,0A.79.79,0,0,0,381.18,82.19Z"/><path class="cls-5" d="M468.68,61.66a.78.78,0,0,0,0-1,.77.77,0,0,0,.95,0,.78.78,0,0,0,0,1A.77.77,0,0,0,468.68,61.66Z"/><path class="cls-5" d="M483.92,65.68a.78.78,0,0,0,0-1,.77.77,0,0,0,.95,0,.78.78,0,0,0,0,1A.77.77,0,0,0,483.92,65.68Z"/><path class="cls-5" d="M502.66,70.81a.77.77,0,0,0,0-1,.77.77,0,0,0,.95,0,.77.77,0,0,0,0,1A.77.77,0,0,0,502.66,70.81Z"/><path class="cls-5" d="M445.1,41.7a.79.79,0,0,0-.68.68.77.77,0,0,0-.67-.68.76.76,0,0,0,.67-.67A.79.79,0,0,0,445.1,41.7Z"/><path class="cls-5" d="M445.77,70.33a.68.68,0,1,1-1.35,0,.68.68,0,0,1,1.35,0Z"/><path class="cls-5" d="M432.74,48a.79.79,0,0,0-.68.67.76.76,0,0,0-.67-.67.77.77,0,0,0,.67-.68A.79.79,0,0,0,432.74,48Z"/><path class="cls-5" d="M453,75.67a.77.77,0,0,0-.95,0,.78.78,0,0,0,0-1,.77.77,0,0,0,.95,0A.78.78,0,0,0,453,75.67Z"/><path class="cls-5" d="M315.45,11.65a.76.76,0,0,0-.67-.67.68.68,0,1,1,1.35,0A.77.77,0,0,0,315.45,11.65Z"/><path class="cls-5" d="M323.16,2.55a.76.76,0,0,0-.67-.67.67.67,0,1,1,1.34,0A.76.76,0,0,0,323.16,2.55Z"/><path class="cls-5" d="M296.65,80.1a.77.77,0,0,0-.95,0,.78.78,0,0,0,0-1,.77.77,0,0,0,.95,0A.78.78,0,0,0,296.65,80.1Z"/><path class="cls-5" d="M308.76,79.36a.77.77,0,0,0-.95,0,.78.78,0,0,0,0-1,.77.77,0,0,0,.95,0A.78.78,0,0,0,308.76,79.36Z"/><path class="cls-5" d="M323.37,79.39a.77.77,0,0,0-.95,0,.77.77,0,0,0,0-1,.77.77,0,0,0,.95,0A.77.77,0,0,0,323.37,79.39Z"/><path class="cls-5" d="M307.15,62.23a.77.77,0,0,0,.67-.68.79.79,0,0,0,.68.68.79.79,0,0,0-.68.67A.76.76,0,0,0,307.15,62.23Z"/><path class="cls-5" d="M241.25,73.42a.76.76,0,0,0-.67-.67.67.67,0,1,1,1.34,0A.76.76,0,0,0,241.25,73.42Z"/><path class="cls-5" d="M233.9,67.13a.77.77,0,0,0,0,1,.78.78,0,0,0-1,0,.74.74,0,0,0,0-1A.78.78,0,0,0,233.9,67.13Z"/><path class="cls-5" d="M71.47,14.88a.78.78,0,0,0,0,1,.78.78,0,0,0-1,0,.78.78,0,0,0,0-1A.78.78,0,0,0,71.47,14.88Z"/><path class="cls-5" d="M52,57a.79.79,0,0,0-.67-.68.76.76,0,0,0,.67-.67.79.79,0,0,0,.68.67A.81.81,0,0,0,52,57Z"/><path class="cls-5" d="M74.91,39.3a.77.77,0,0,0-.67-.68.76.76,0,0,0,.67-.67.76.76,0,0,0,.67.67A.77.77,0,0,0,74.91,39.3Z"/><path class="cls-5" d="M100.2,49.57a.77.77,0,0,0-.68-.67.77.77,0,0,0,.68-.68.77.77,0,0,0,.67.68A.76.76,0,0,0,100.2,49.57Z"/><path class="cls-5" d="M87.63,21a.76.76,0,0,0-.67-.67.79.79,0,0,0,.67-.68.79.79,0,0,0,.68.68A.77.77,0,0,0,87.63,21Z"/><path class="cls-5" d="M85,80a.79.79,0,0,0-.67-.68.76.76,0,0,0,.67-.67.77.77,0,0,0,.68.67A.79.79,0,0,0,85,80Z"/><path class="cls-5" d="M102.72,78.53a.77.77,0,0,0-.68-.68.77.77,0,0,0,.68-.67.76.76,0,0,0,.67.67A.77.77,0,0,0,102.72,78.53Z"/><path class="cls-5" d="M138.24,63.25a.79.79,0,0,0-.68-.67.79.79,0,0,0,.68-.68.77.77,0,0,0,.67.68A.76.76,0,0,0,138.24,63.25Z"/><path class="cls-5" d="M46,71a.77.77,0,0,0-.68-.68.77.77,0,0,0,.68-.67.76.76,0,0,0,.67.67A.77.77,0,0,0,46,71Z"/><path class="cls-5" d="M45.65,44.61a.77.77,0,0,0-.67-.68.76.76,0,0,0,.67-.67.79.79,0,0,0,.68.67A.79.79,0,0,0,45.65,44.61Z"/><path class="cls-5" d="M22,8.5a.77.77,0,0,0,0,.95.78.78,0,0,0-1,0,.77.77,0,0,0,0-.95A.78.78,0,0,0,22,8.5Z"/><path class="cls-5" d="M4.83,20.65a.77.77,0,0,0,0,1,.77.77,0,0,0-1,0,.77.77,0,0,0,0-1A.77.77,0,0,0,4.83,20.65Z"/><path class="cls-5" d="M1.53,22.05a.77.77,0,0,0,0,.95.78.78,0,0,0-1,0,.77.77,0,0,0,0-.95A.78.78,0,0,0,1.53,22.05Z"/><path class="cls-5" d="M26.26,80.77a.76.76,0,0,0-.67.67.77.77,0,0,0-.68-.67.79.79,0,0,0,.68-.68A.79.79,0,0,0,26.26,80.77Z"/><path class="cls-5" d="M18.33,67.14a.78.78,0,0,0-.68.67.76.76,0,0,0-.67-.67.78.78,0,0,0,.67-.68A.79.79,0,0,0,18.33,67.14Z"/><path class="cls-5" d="M.57,60.33A.79.79,0,0,0-.1,61a.81.81,0,0,0-.68-.68.79.79,0,0,0,.68-.67A.76.76,0,0,0,.57,60.33Z"/><path class="cls-5" d="M32,28.89a.79.79,0,0,0-.68.68.77.77,0,0,0-.67-.68.76.76,0,0,0,.67-.67A.79.79,0,0,0,32,28.89Z"/><path class="cls-5" d="M50.44,8.5a.77.77,0,0,0-.67.68.79.79,0,0,0-.68-.68.79.79,0,0,0,.68-.67A.76.76,0,0,0,50.44,8.5Z"/><path class="cls-5" d="M30.92,7.14a.77.77,0,0,0-.68.68.77.77,0,0,0-.67-.68.76.76,0,0,0,.67-.67A.77.77,0,0,0,30.92,7.14Z"/><path class="cls-5" d="M130.88,57a.77.77,0,0,0,0,.95.77.77,0,0,0-.95,0,.77.77,0,0,0,0-.95A.77.77,0,0,0,130.88,57Z"/><path class="cls-5" d="M136.82,81.26a.77.77,0,0,0,0,.95.77.77,0,0,0-.95,0,.77.77,0,0,0,0-.95A.77.77,0,0,0,136.82,81.26Z"/><path class="cls-5" d="M552.13,66.73a.77.77,0,0,0,0,1,.77.77,0,0,0-1,0,.77.77,0,0,0,0-1A.77.77,0,0,0,552.13,66.73Z"/><path class="cls-5" d="M540.25,67.71a.77.77,0,0,0,0,1,.77.77,0,0,0-1,0,.77.77,0,0,0,0-1A.77.77,0,0,0,540.25,67.71Z"/><path class="cls-5" d="M565.3,67.66a.78.78,0,0,0,0-1,.77.77,0,0,0,1,0,.78.78,0,0,0,0,1A.77.77,0,0,0,565.3,67.66Z"/><path class="cls-5" d="M580.54,71.68a.78.78,0,0,0,0-1,.77.77,0,0,0,1,0,.78.78,0,0,0,0,1A.77.77,0,0,0,580.54,71.68Z"/><path class="cls-5" d="M536.28,36.32a.77.77,0,0,0,0,1,.78.78,0,0,0-1,0,.77.77,0,0,0,0-1A.78.78,0,0,0,536.28,36.32Z"/><path class="cls-5" d="M532,49.53a.78.78,0,0,0,0,1,.77.77,0,0,0-1,0,.78.78,0,0,0,0-1A.77.77,0,0,0,532,49.53Z"/><path class="cls-5" d="M529.07,13.28a.68.68,0,1,1,1.35,0,.68.68,0,0,1-1.35,0Z"/><path class="cls-5" d="M539.61,30A.68.68,0,0,1,541,30a.68.68,0,1,1-1.35,0Z"/><path class="cls-5" d="M550.86.4a.77.77,0,0,0,.68-.68.77.77,0,0,0,.67.68.68.68,0,0,1-1.35,0Z"/><path class="cls-5" d="M577.54,21.74a.77.77,0,0,0,1,0,.78.78,0,0,0,0,1,.77.77,0,0,0-1,0A.78.78,0,0,0,577.54,21.74Z"/><path class="cls-5" d="M573.81,50.49a.77.77,0,0,0,1,0,.77.77,0,0,0,0,.95.77.77,0,0,0-1,0A.77.77,0,0,0,573.81,50.49Z"/><path class="cls-5" d="M429,34a.81.81,0,0,0-.68-.68.79.79,0,0,0,.68-.67.76.76,0,0,0,.67.67A.79.79,0,0,0,429,34Z"/><path class="cls-5" d="M397.32,76.22a.68.68,0,0,1-1.35,0,.68.68,0,1,1,1.35,0Z"/><path class="cls-5" d="M407.58,50.9a.68.68,0,1,1-1.35,0,.68.68,0,0,1,1.35,0Z"/><path class="cls-5" d="M387.91,39a.77.77,0,0,0,0-1,.78.78,0,0,0,1,0,.77.77,0,0,0,0,1A.78.78,0,0,0,387.91,39Z"/><path class="cls-5" d="M344.41,78.86a.77.77,0,0,0,0-1,.77.77,0,0,0,.95,0,.77.77,0,0,0,0,1A.77.77,0,0,0,344.41,78.86Z"/><path class="cls-5" d="M417.81,26.69a.78.78,0,0,0,0-1,.77.77,0,0,0,.95,0,.78.78,0,0,0,0,1A.77.77,0,0,0,417.81,26.69Z"/><path class="cls-5" d="M417.77,41.32a.78.78,0,0,0,0-1,.78.78,0,0,0,1,0,.78.78,0,0,0,0,1A.78.78,0,0,0,417.77,41.32Z"/><path class="cls-5" d="M373.72,35.79a.78.78,0,0,0,0,1,.78.78,0,0,0-1,0,.78.78,0,0,0,0-1A.78.78,0,0,0,373.72,35.79Z"/><path class="cls-6" d="M177.86,374.65a2.31,2.31,0,0,0,0,2.86,2.31,2.31,0,0,0-2.86,0,2.31,2.31,0,0,0,0-2.86A2.31,2.31,0,0,0,177.86,374.65Z"/><path class="cls-6" d="M303.93,449.12a2.31,2.31,0,0,0,0,2.86,2.31,2.31,0,0,0-2.86,0,2.31,2.31,0,0,0,0-2.86A2.31,2.31,0,0,0,303.93,449.12Z"/><path class="cls-6" d="M456.63,151.53a2.31,2.31,0,0,0,2.86,0,2.33,2.33,0,0,0,0,2.87,2.31,2.31,0,0,0-2.86,0A2.33,2.33,0,0,0,456.63,151.53Z"/><path class="cls-6" d="M430.49,221.75a2.33,2.33,0,0,0,2.87,0,2.29,2.29,0,0,0,0,2.86,2.33,2.33,0,0,0-2.87,0A2.29,2.29,0,0,0,430.49,221.75Z"/><path class="cls-6" d="M160.94,230.93a2.3,2.3,0,0,0-2-2,2.32,2.32,0,0,0,2-2,2.34,2.34,0,0,0,2,2A2.32,2.32,0,0,0,160.94,230.93Z"/><path class="cls-6" d="M258.21,158.5a2.31,2.31,0,0,0,0-2.86,2.31,2.31,0,0,0,2.86,0,2.31,2.31,0,0,0,0,2.86A2.31,2.31,0,0,0,258.21,158.5Z"/><path class="cls-6" d="M461,331.77a2,2,0,0,1,2.86-2.87,2,2,0,0,1-2.86,2.87Z"/><path class="cls-6" d="M141.89,138.5a2.3,2.3,0,0,0,2-2,2.3,2.3,0,0,0,2,2,2.32,2.32,0,0,0-2,2A2.32,2.32,0,0,0,141.89,138.5Z"/><path class="cls-6" d="M499.76,463.88A2,2,0,0,1,496.9,461a2,2,0,0,1,2.86,2.86Z"/><path class="cls-6" d="M34.51,528.92a2.31,2.31,0,0,0,0,2.86,2.31,2.31,0,0,0-2.86,0,2.31,2.31,0,0,0,0-2.86A2.31,2.31,0,0,0,34.51,528.92Z"/><path class="cls-6" d="M124.88,559.43a2.31,2.31,0,0,0-2.86,0,2.31,2.31,0,0,0,0-2.86,2.31,2.31,0,0,0,2.86,0A2.31,2.31,0,0,0,124.88,559.43Z"/><path class="cls-6" d="M48.9,569.36a2.31,2.31,0,0,0,2.86,0,2.31,2.31,0,0,0,0,2.86,2.31,2.31,0,0,0-2.86,0A2.31,2.31,0,0,0,48.9,569.36Z"/><path class="cls-6" d="M206.86,302.48a2.33,2.33,0,0,0,0,2.87,2.31,2.31,0,0,0-2.86,0,2.33,2.33,0,0,0,0-2.87A2.29,2.29,0,0,0,206.86,302.48Z"/><path class="cls-6" d="M147.63,347.78a2.32,2.32,0,0,0-2-2,2.34,2.34,0,0,0,2-2,2.32,2.32,0,0,0,2,2A2.3,2.3,0,0,0,147.63,347.78Z"/><path class="cls-6" d="M6.15,206.12a2.33,2.33,0,0,0,2.87,0A2.29,2.29,0,0,0,9,209a2.33,2.33,0,0,0-2.87,0A2.29,2.29,0,0,0,6.15,206.12Z"/><path class="cls-6" d="M425.39,584.63a2.29,2.29,0,0,0,0-2.86,2.33,2.33,0,0,0,2.87,0,2.29,2.29,0,0,0,0,2.86A2.33,2.33,0,0,0,425.39,584.63Z"/><path class="cls-6" d="M380.22,516.34a2,2,0,1,1,2.86-2.87,2.33,2.33,0,0,0,0,2.87A2.29,2.29,0,0,0,380.22,516.34Z"/><polygon class="cls-7" points="320.4 52.8 253.62 52.8 274.65 -127.6 299.38 -127.6 320.4 52.8"/><polygon class="cls-7" points="486.15 167.53 95.36 167.53 152.76 27.4 428.74 27.4 486.15 167.53"/><polygon class="cls-8" points="477.74 168.26 103.76 168.26 158.7 34.16 422.8 34.16 477.74 168.26"/><polygon class="cls-9" points="-109.02 321.94 21.13 169.88 38.87 179.54 -87.63 330.76 -109.02 321.94"/><polygon class="cls-9" points="38.87 179.54 -449.62 -86.26 -448.29 -66.95 38.87 179.54"/><polygon class="cls-9" points="690.52 321.94 560.38 169.88 542.63 179.54 669.37 330.76 690.52 321.94"/><polygon class="cls-9" points="542.63 179.54 1031.48 -86.45 1033.47 -68.81 542.63 179.54"/><polygon class="cls-7" points="132.41 158.28 149.27 120.33 432.78 120.33 450.3 158.41 132.41 158.28"/><polygon class="cls-8" points="136.04 160.47 152.5 123.38 429.56 123.38 446.68 160.6 136.04 160.47"/><polygon class="cls-9" points="1024.15 -185.46 862.53 -179.97 517.27 149.93 290.75 149.93 219.76 149.93 64.23 149.93 -278.55 -177.6 -446.73 -180.98 -449.62 -86.26 38.87 179.54 -87.63 330.76 -427 447.58 -427 646.35 229.78 646.35 290.75 646.35 1008.5 646.35 1008.5 447.58 669.37 330.76 542.63 179.54 1031.48 -86.45 1024.15 -185.46"/><polygon class="cls-10" points="-3.65 655.74 38.87 179.54 -43.57 390.11 -14.88 656.75 -3.65 655.74"/><polygon class="cls-10" points="585.09 653.91 542.63 179.54 625.29 390.11 596.91 653.91 585.09 653.91"/><polyline class="cls-9" points="585.09 653.91 540 149.93 41.52 149.93 -3.65 655.74"/><polygon class="cls-9" points="574.26 652.08 485.39 217.21 96.11 217.21 6.86 653.91 574.26 652.08"/><polygon class="cls-9" points="475.18 231.52 106.33 231.52 96.11 217.21 485.39 217.21 475.18 231.52"/><path class="cls-9" d="M487.37,377.94a14.08,14.08,0,0,0-9.08-13.17l-47-17.85h-8.46L412,331.33h.12l1.77-78.08a17.6,17.6,0,0,0,.48-10.31L373.19,82.78a17.55,17.55,0,0,0-17-13.19H225.27a17.56,17.56,0,0,0-17,13.14l-41.6,159.76a17.52,17.52,0,0,0,.44,10.31l1.68,78.53L158,346.92h-8.46l-46.35,17.83a14.09,14.09,0,0,0-9,13.15l-33,276L518.68,639Z"/><path class="cls-10" d="M332.45,167.68H248.52c-9.24,0-17.07,5.1-18.42,12l-10.91,69.22a10.76,10.76,0,0,0-.16,2.89l5.59,50.78c.59,7.41,8.74,13.18,18.59,13.18h94.56c9.84,0,18-5.77,18.58-13.18l5.59-50.78a10.37,10.37,0,0,0-.16-2.89l-10.91-69.22C349.53,172.78,341.69,167.68,332.45,167.68Z"/><path class="cls-10" d="M282.8,81.12H236A18.51,18.51,0,0,0,218.12,95l-36.6,139.62a31.21,31.21,0,0,0,.79,18.37l15.33,43.14a6.59,6.59,0,0,0,6.21,4.38h10a6.59,6.59,0,0,0,6.56-7.25L216.33,252a13.28,13.28,0,0,1,.2-3.63l10.91-69.27c1.61-8.21,10.47-14.17,21.08-14.17H282.8a6.33,6.33,0,0,0,6.33-6.34V87.46A6.33,6.33,0,0,0,282.8,81.12Z"/><path class="cls-10" d="M399.45,234.57,362.85,95a18.51,18.51,0,0,0-17.91-13.83H298.18a6.34,6.34,0,0,0-6.34,6.34v71.17a6.34,6.34,0,0,0,6.34,6.34h34.27c10.61,0,19.47,6,21.08,14.17l0,.09,10.9,69.18a13.42,13.42,0,0,1,.19,3.58l-4.1,41.22a6.59,6.59,0,0,0,6.56,7.25h10a6.58,6.58,0,0,0,6.21-4.38l15.34-43.14A31.21,31.21,0,0,0,399.45,234.57Z"/><path class="cls-10" d="M423.86,359.75H400.2A19.91,19.91,0,0,0,389.32,363l-8,5.18a34.77,34.77,0,0,1-19,5.69H218.65a34.74,34.74,0,0,1-19-5.69l-8-5.18a20,20,0,0,0-10.89-3.26H157.15a19.81,19.81,0,0,0-9.55,2.47l-34.72,15.31a15.88,15.88,0,0,0-7.9,14v25.87c0,8.64,6.4,15.64,14.3,15.64h62.33a37.06,37.06,0,0,1,19.19,5.41h0a37.09,37.09,0,0,0,19.18,5.4H361a37.15,37.15,0,0,0,19.19-5.4h0A37.06,37.06,0,0,1,399.41,433h62.32c7.9,0,14.3-7,14.3-15.64V391.52a15.88,15.88,0,0,0-7.9-14l-34.72-15.31A19.76,19.76,0,0,0,423.86,359.75Z"/><path class="cls-10" d="M423.86,443.85H400.2a20,20,0,0,0-10.88,3.26l-8,5.18a34.78,34.78,0,0,1-19,5.7H218.65a34.75,34.75,0,0,1-19-5.7l-8-5.18a20.06,20.06,0,0,0-10.89-3.26H157.15a19.81,19.81,0,0,0-9.55,2.47l-34.72,15.32a15.85,15.85,0,0,0-7.9,14v25.87c0,8.64,6.4,15.65,14.3,15.65h62.33a37.05,37.05,0,0,1,19.19,5.4h0a37.09,37.09,0,0,0,19.18,5.4H361a37.15,37.15,0,0,0,19.19-5.4h0a37.05,37.05,0,0,1,19.19-5.4h62.32c7.9,0,14.3-7,14.3-15.65V475.62a15.85,15.85,0,0,0-7.9-14l-34.72-15.32A19.76,19.76,0,0,0,423.86,443.85Z"/><path class="cls-10" d="M423.86,528H400.2a19.93,19.93,0,0,0-10.88,3.27l-8,5.18a34.85,34.85,0,0,1-19,5.69H218.65a34.83,34.83,0,0,1-19-5.69l-8-5.18A20,20,0,0,0,180.81,528H157.15a19.92,19.92,0,0,0-9.55,2.47l-34.72,15.32a15.86,15.86,0,0,0-7.9,14V585.6c0,8.64,6.4,15.64,14.3,15.64h62.33a37.15,37.15,0,0,1,19.19,5.4h0A37.09,37.09,0,0,0,220,612H361a37,37,0,0,0,19.19-5.4h0a37.15,37.15,0,0,1,19.19-5.4h62.32c7.9,0,14.3-7,14.3-15.64V559.73a15.86,15.86,0,0,0-7.9-14l-34.72-15.32A19.87,19.87,0,0,0,423.86,528Z"/><circle class="cls-11" cx="290.49" cy="76.39" r="2.28"/><circle class="cls-11" cx="222.62" cy="76.39" r="2.28"/><circle class="cls-12" cx="205.43" cy="118.43" r="2.28"/><circle class="cls-12" cx="190.56" cy="173.86" r="2.28"/><circle class="cls-12" cx="175.69" cy="229.29" r="2.28"/><circle class="cls-12" cx="175.69" cy="255.04" r="2.28"/><circle class="cls-11" cx="175" cy="315.73" r="2.28"/><circle class="cls-11" cx="151.17" cy="353.72" r="2.28"/><circle class="cls-11" cx="102.65" cy="374.78" r="2.28"/><circle class="cls-11" cx="92.86" cy="450.3" r="2.28"/><circle class="cls-11" cx="83.07" cy="525.81" r="2.28"/><circle class="cls-12" cx="73.28" cy="601.32" r="2.28"/><circle class="cls-11" cx="430.55" cy="353.72" r="2.28"/><circle class="cls-11" cx="479.07" cy="374.78" r="2.28"/><circle class="cls-11" cx="488.86" cy="450.3" r="2.28"/><circle class="cls-11" cx="498.65" cy="525.81" r="2.28"/><circle class="cls-12" cx="508.44" cy="601.32" r="2.28"/><circle class="cls-12" cx="375.69" cy="118.43" r="2.28"/><circle class="cls-12" cx="390.57" cy="173.86" r="2.28"/><circle class="cls-12" cx="405.44" cy="229.29" r="2.28"/><circle class="cls-12" cx="405.44" cy="255.04" r="2.28"/><circle class="cls-11" cx="405.83" cy="315.73" r="2.28"/><circle class="cls-11" cx="358.93" cy="76.39" r="2.28"/><path class="cls-9" d="M225.64,360.45c7,40.91,7,40.91,5.21,51.2S212.44,426,212.44,426l-5.35,5-5,4.73a34,34,0,0,0-1.36,9.91c.23,4.76-12.15,19.56-12.15,19.56L277.73,500l90.66-30.54,18.25-29.74-9.31-6.58-3.78-2.68s-24.75-3.73-26.38-16.51c-1.33-10.37,4.1-58.29,4.1-58.29"/><path class="cls-9" d="M389.47,227.1c-4,60.23-14.94,86-31.85,118.37-15.09,28.9-49.34,47.64-72.15,47.39s-57.54-20.7-71.51-50.18c-15.64-33-25.56-59.17-27.24-119.51l-6-29.88L188.56,157l4.8-20.8L208,113.48l38.82-31.09h49.94l23,20.49,13.05,20.54,27.46,10.52L382,149l7.52,22.22L393,193.29V206.5Z"/><path class="cls-13" d="M206.82,214.19c33.28-23,67.87,0,71.2,37,3,32.88-1.78,70.57-1.78,70.57l26.91-2.33"/><path class="cls-10" d="M368.39,211.18c-15.9-12.53-47.94-5.46-56.28,8.09Z"/><path class="cls-10" d="M200.71,213.52c32.51-17.67,59-4.62,65.62,9.86Z"/><path class="cls-13" d="M271.28,344c11.38,1,36,.29,48.46-5.59"/><path class="cls-13" d="M314.86,204.66c-4.93,2.26-9.26,6.26-9.65,9.92"/><circle class="cls-14" cx="307.49" cy="269.39" r="2.54"/><circle class="cls-14" cx="268.03" cy="280.87" r="2.54"/><circle class="cls-14" cx="289.76" cy="290.25" r="2.54"/><circle class="cls-14" cx="296.77" cy="278.87" r="2.54"/><ellipse class="cls-14" cx="338.6" cy="247.22" rx="10.97" ry="5.7" transform="translate(84.89 580.98) rotate(-88.89)"/><ellipse class="cls-14" cx="235.42" cy="251.2" rx="10.97" ry="5.7" transform="translate(-20.28 481.72) rotate(-88.89)"/><path class="cls-14" d="M349.75,370.05c-5.38,11.72-79.09,67.37-124.87,50.17,0,0,6.73-3.15,6.86-10.07a144.79,144.79,0,0,0-2-25.74c-1.61-9.67-4.06-24-4.06-24s27.79,29.47,52.59,31.72,53.28-10.67,73-36.56Z"/><path class="cls-10" d="M64,656.75S100.38,486,105.52,477.69a77.84,77.84,0,0,1,41.86-32.79c23.63-7.81,45.9-16.26,56.77-20.47a7.37,7.37,0,0,1,9.41,3.87c6.65,14.8,28.18,52.56,89.08,48.83,56.72-3.47,66.09-37,72.12-49a7.21,7.21,0,0,1,8.85-3.6c22.2,7.78,28.79,6.92,59.33,19,0,0,27.88,8.38,39.06,26.35,13.21,21.23,43.46,181.44,43.46,181.44"/><path class="cls-15" d="M357.55,192.12H219.84a29.93,29.93,0,0,0-29.92,29.95v39A29.93,29.93,0,0,0,219.84,291h33.39a30.14,30.14,0,0,0,23.87-11.55,32.78,32.78,0,0,1,7.7-7.23,7,7,0,0,1,7.78,0,32.78,32.78,0,0,1,7.7,7.23A30.15,30.15,0,0,0,324.16,291h33.39a29.93,29.93,0,0,0,29.91-29.95v-39A29.93,29.93,0,0,0,357.55,192.12Z"/><g class="cls-16"><rect class="cls-5" x="328.46" y="161.32" width="15.75" height="156.71" transform="translate(-76.59 247.4) rotate(-36.55)"/><rect class="cls-5" x="344.62" y="153.6" width="4.28" height="156.71" transform="translate(-69.94 252.09) rotate(-36.55)"/></g><path class="cls-17" d="M417.45,286.22l-30.81,22.54V151.65l30.81,22.54a15.76,15.76,0,0,1,6.45,12.73v86.57A15.76,15.76,0,0,1,417.45,286.22Z"/><path class="cls-17" d="M160.2,174.19,191,151.65V308.76L160.2,286.22a15.77,15.77,0,0,1-6.46-12.73V186.92A15.77,15.77,0,0,1,160.2,174.19Z"/><path class="cls-18" d="M223.5,308.76s-31-29.36-32.93-76.38c0,0-6.16-1.94-6.16,0s-1.56,57.15-1.56,57.15L193.72,314s17.47,7.91,18.63,5.71S223.5,308.76,223.5,308.76Z"/><path class="cls-18" d="M354,308.76s31-29.36,32.92-76.38c0,0,6.17-1.94,6.17,0s1.55,57.15,1.55,57.15L383.79,314s-17.46,7.91-18.63,5.71S354,308.76,354,308.76Z"/><path class="cls-17" d="M366.84,307.14s-4.95.67-12.82,1.62v49.9l12.82.94Z"/><path class="cls-14" d="M385.48,222a29.34,29.34,0,0,0-29.32-29.35H221.22A29.33,29.33,0,0,0,191.91,222l.3,42.4c0,24.48,18.59,42.75,18.59,42.75V359.6c-38.43-8.94-38.43-51.68-38.43-51.68V192.64s2.72-56.6,20.32-80.17c14.42-19.31,48.78-36.53,81-36.14H304c32.22-.39,66.57,16.83,81,36.14,17.59,23.57,20.31,80.17,20.31,80.17V307.92s0,42.74-38.43,51.68V307.14s18.64-18.27,18.64-42.75Z"/><polygon class="cls-17" points="325.7 192.64 251.69 192.64 253.25 173.73 324.14 173.73 325.7 192.64"/><polygon class="cls-17" points="247.8 97.47 329.59 97.47 324.14 116.38 253.25 116.38 247.8 97.47"/><path class="cls-17" d="M210.8,307.14s4.83.67,12.7,1.62v49.9l-12.7.94Z"/><ellipse class="cls-14" cx="325.99" cy="355.56" rx="5.02" ry="8.99" transform="translate(-54.4 58.92) rotate(-9.54)"/><rect class="cls-14" x="303.48" y="348.46" width="22.66" height="17.98" transform="translate(-55.02 57.28) rotate(-9.57)"/><ellipse class="cls-19" cx="303.64" cy="359.33" rx="5.02" ry="8.99" transform="translate(-55.34 55.27) rotate(-9.54)"/><path class="cls-13" d="M326.72,354.26s25.69-3.67,33.71-11.27"/><rect class="cls-17" x="376.28" y="397.23" width="83.53" height="14.85" rx="5.65" transform="translate(704.59 911.03) rotate(-163.57)"/><path class="cls-20" d="M383.53,398.09l66.37,19.62a2.73,2.73,0,0,0,3.38-1.85h0a2.47,2.47,0,0,0-1.66-3.24l-66.55-19.77a2.73,2.73,0,0,0-3.39,1.85h0A2.73,2.73,0,0,0,383.53,398.09Z"/><path class="cls-10" d="M352.45,484.45c-13.12,39.66-20.7,87.73-23.09,146.66h47c1.23-48,8.73-93.46,22.34-135.26a395,395,0,0,1,34.19-76.7l5.81-10.36-40.47-12c-2,2.09-7.13,9.91-7.13,9.91C377.37,427.12,363.5,451,352.45,484.45Z"/><polygon class="cls-14" points="438.73 408.77 438.73 408.79 450.67 412.33 438.73 408.77"/><path class="cls-14" d="M398.31,396.74l-11.37-3.31,11.32,3.36Z"/><path class="cls-9" d="M438.73,408.79l-5.81,10.36a395,395,0,0,0-34.19,76.7c-13.61,41.8-21.11,87.25-22.34,135.26h-47c2.39-58.93,10-107,23.09-146.66,11.05-33.41,24.92-57.33,38.68-77.75,0,0,5.14-7.82,7.13-9.91l-11.32-3.36c-31.85,45.81-65.48,104.44-69.58,249.28H387.8c.55-115.22,37-190,62.87-230.38Z"/><rect class="cls-17" x="122.66" y="397.23" width="83.53" height="14.85" rx="5.65" transform="translate(-107.73 63.02) rotate(-16.43)"/><path class="cls-20" d="M198.94,398.09l-66.36,19.62a2.74,2.74,0,0,1-3.39-1.85h0a2.47,2.47,0,0,1,1.66-3.24l66.55-19.77a2.72,2.72,0,0,1,3.39,1.85h0A2.73,2.73,0,0,1,198.94,398.09Z"/><path class="cls-10" d="M230,484.45c13.12,39.66,20.7,87.73,23.1,146.66h-47c-1.24-48-8.74-93.46-22.35-135.26a394.39,394.39,0,0,0-34.19-76.7l-5.8-10.36,40.46-12c2,2.09,7.14,9.91,7.14,9.91C205.1,427.12,219,451,230,484.45Z"/><polygon class="cls-14" points="143.74 408.77 143.75 408.79 131.8 412.33 143.74 408.77"/><path class="cls-14" d="M184.16,396.74l11.37-3.31-11.32,3.36Z"/><path class="cls-9" d="M143.75,408.79l5.8,10.36a394.39,394.39,0,0,1,34.19,76.7c13.61,41.8,21.11,87.25,22.35,135.26h47c-2.4-58.93-10-107-23.1-146.66C219,451,205.1,427.12,191.35,406.7c0,0-5.14-7.82-7.14-9.91l11.32-3.36c31.85,45.81,65.48,104.44,69.58,249.28H194.67c-.55-115.22-37-190-62.87-230.38Z"/><path class="cls-21" d="M254.37,174.48S251.07,120,207.6,96.81"/><path class="cls-21" d="M322.88,174.48s3.29-54.49,46.77-77.67"/><polygon class="cls-10" points="96.11 217.21 106.33 231.52 37 657.88 6.28 656.75 96.11 217.21"/><polygon class="cls-10" points="485.39 217.21 475.18 231.52 543.56 652.08 574.26 652.08 485.39 217.21"/><polygon class="cls-9" points="38.87 179.54 38.87 179.54 -87.63 350.76 -43.57 390.11 38.87 179.54"/><polyline class="cls-10" points="-87.63 330.76 38.87 179.54 -87.63 350.76 -87.63 330.76"/><polygon class="cls-9" points="542.63 179.54 669.37 350.76 625.29 390.11 542.63 179.54"/><polygon class="cls-10" points="542.63 179.54 669.37 350.76 669.37 330.76 542.63 179.54"/><ellipse class="cls-11" cx="21.17" cy="174.72" rx="2.05" ry="1.62" transform="translate(-127.89 81.15) rotate(-50.97)"/><ellipse class="cls-11" cx="33.69" cy="180.74" rx="2.05" ry="1.62" transform="translate(-127.94 93.11) rotate(-50.97)"/><ellipse class="cls-11" cx="560.58" cy="174.72" rx="1.62" ry="2.05" transform="translate(15.07 391.96) rotate(-39.03)"/><ellipse class="cls-11" cx="548.06" cy="180.74" rx="1.62" ry="2.05" transform="translate(8.48 385.42) rotate(-39.03)"/><circle class="cls-11" cx="261.07" cy="22.84" r="1.56"/><circle class="cls-11" cx="313.1" cy="22.84" r="1.56"/><path class="cls-13" d="M129.18,383.07l19.35-8.67a29.71,29.71,0,0,1,12.21-2.61h12"/><line class="cls-13" x1="122.12" y1="386.23" x2="125.87" y2="384.55"/><ellipse class="cls-11" cx="36.28" cy="418.02" rx="5.55" ry="5.56"/><ellipse class="cls-11" cx="41.25" cy="378.27" rx="5.55" ry="5.56"/><ellipse class="cls-11" cx="46.21" cy="338.52" rx="5.55" ry="5.56"/><ellipse class="cls-11" cx="51.18" cy="298.77" rx="5.55" ry="5.56"/><ellipse class="cls-11" cx="56.15" cy="259.02" rx="5.55" ry="5.56"/><ellipse class="cls-11" cx="61.11" cy="219.26" rx="5.55" ry="5.56"/><ellipse class="cls-11" cx="66.08" cy="179.51" rx="5.55" ry="5.56"/><ellipse class="cls-11" cx="545.6" cy="418.02" rx="5.55" ry="5.56"/><ellipse class="cls-11" cx="540.63" cy="378.27" rx="5.55" ry="5.56"/><ellipse class="cls-11" cx="535.67" cy="338.52" rx="5.55" ry="5.56"/><ellipse class="cls-11" cx="530.7" cy="298.77" rx="5.55" ry="5.56"/><ellipse class="cls-11" cx="525.73" cy="259.02" rx="5.55" ry="5.56"/><ellipse class="cls-11" cx="520.77" cy="219.26" rx="5.55" ry="5.56"/><ellipse class="cls-11" cx="515.8" cy="179.51" rx="5.55" ry="5.56"/><polygon class="cls-10" points="683.25 623.64 568.43 623.64 547.95 577.46 33.55 577.46 13.07 623.64 -101.75 623.64 -118.41 655.84 699.91 655.84 683.25 623.64"/><polygon class="cls-9" points="-3.65 661.24 33.55 577.46 547.95 577.46 586.5 661.24 -3.65 661.24"/><polyline class="cls-22" points="6.62 659.19 40.19 583.59 541.34 583.59 576.13 659.19"/></g></g></svg>