<svg id="Layer_1" data-name="Layer 1" xmlns="http://www.w3.org/2000/svg" xmlns:xlink="http://www.w3.org/1999/xlink" viewBox="0 0 1188 300"><defs><style>.cls-1,.cls-15,.cls-4,.cls-8{fill:none;}.cls-2{clip-path:url(#clip-path);}.cls-3{clip-path:url(#clip-path-2);}.cls-15,.cls-4,.cls-8{stroke:#0abf53;stroke-miterlimit:10;}.cls-4{stroke-width:1.5px;}.cls-5{clip-path:url(#clip-path-3);}.cls-6{fill:#00112c;}.cls-7{clip-path:url(#clip-path-4);}.cls-8{stroke-width:0.54px;}.cls-9{clip-path:url(#clip-path-5);}.cls-10{clip-path:url(#clip-path-6);}.cls-11{clip-path:url(#clip-path-7);}.cls-12{clip-path:url(#clip-path-8);}.cls-13{clip-path:url(#clip-path-9);}.cls-14{clip-path:url(#clip-path-10);}.cls-15{stroke-width:0.9px;}</style><clipPath id="clip-path"><rect class="cls-1" x="114" y="-1427.53" width="1920" height="1080"/></clipPath><clipPath id="clip-path-2"><rect class="cls-1" x="-2525.99" y="-1427.53" width="7199.99" height="1080"/></clipPath><clipPath id="clip-path-3"><rect class="cls-1" width="1188" height="300"/></clipPath><clipPath id="clip-path-4"><rect class="cls-1" x="-710.85" y="-45.73" width="2609.71" height="391.46"/></clipPath><clipPath id="clip-path-5"><rect class="cls-1" x="1351.52" width="983" height="300"/></clipPath><clipPath id="clip-path-6"><rect class="cls-1" x="538.17" y="-45.73" width="2609.71" height="391.46"/></clipPath><clipPath id="clip-path-7"><rect class="cls-1" x="2686.34" width="743" height="300"/></clipPath><clipPath id="clip-path-8"><rect class="cls-1" x="1752.99" y="-45.73" width="2609.71" height="391.46"/></clipPath><clipPath id="clip-path-9"><rect class="cls-1" x="68.06" y="693.32" width="581" height="600"/></clipPath><clipPath id="clip-path-10"><rect class="cls-1" x="-1804.48" y="668.87" width="4326.09" height="648.91"/></clipPath></defs><g class="cls-2"><g class="cls-3"><circle class="cls-4" cx="1496.85" cy="-532.79" r="578.58"/><circle class="cls-4" cx="1585.19" cy="-458.66" r="694.3"/><circle class="cls-4" cx="1718.46" cy="-346.83" r="867.88"/><circle class="cls-4" cx="1851.12" cy="-235.52" r="1041.45"/><circle class="cls-4" cx="1947" cy="-155.06" r="1166.43"/><circle class="cls-4" cx="2050.87" cy="-67.9" r="1301.81"/><circle class="cls-4" cx="2150.75" cy="15.9" r="1432"/><circle class="cls-4" cx="2250.02" cy="99.2" r="1562.18"/><circle class="cls-4" cx="2369.81" cy="199.72" r="1718.39"/><circle class="cls-4" cx="2549.5" cy="350.49" r="1952.72"/><circle class="cls-4" cx="2699.23" cy="476.14" r="2147.99"/><circle class="cls-4" cx="2848.37" cy="601.27" r="2343.26"/><circle class="cls-4" cx="3027.99" cy="752" r="2577.59"/><circle class="cls-4" cx="3297.43" cy="978.08" r="2929.08"/><circle class="cls-4" cx="3521.96" cy="1166.49" r="3221.99"/><circle class="cls-4" cx="3745.89" cy="1354.39" r="3514.9"/><circle class="cls-4" cx="4015.27" cy="1580.42" r="3866.39"/><circle class="cls-4" cx="4419.33" cy="1919.47" r="4393.62"/><circle class="cls-4" cx="-879.83" cy="-2527.05" r="2577.59"/><circle class="cls-4" cx="-1149.26" cy="-2753.14" r="2929.08"/><circle class="cls-4" cx="-1373.8" cy="-2941.54" r="3221.99"/><circle class="cls-4" cx="-1597.72" cy="-3129.44" r="3514.9"/><circle class="cls-4" cx="-1867.1" cy="-3355.48" r="3866.39"/><circle class="cls-4" cx="-2271.17" cy="-3694.53" r="4393.62"/></g></g><g class="cls-5"><rect class="cls-6" x="-710.85" y="-45.73" width="2609.71" height="391.46"/><rect class="cls-6" x="246.04" y="-45.73" width="695.92" height="391.46"/><g class="cls-7"><circle class="cls-8" cx="594.03" cy="150" r="9.82"/><circle class="cls-8" cx="597.79" cy="153.15" r="14.73"/><circle class="cls-8" cx="600.72" cy="155.61" r="18.41"/><circle class="cls-8" cx="603.43" cy="157.89" r="22.09"/><circle class="cls-8" cx="607.77" cy="161.53" r="27.62"/><circle class="cls-8" cx="611.89" cy="164.99" r="33.14"/><circle class="cls-8" cx="618.35" cy="170.41" r="41.42"/><circle class="cls-8" cx="624.59" cy="175.64" r="49.71"/><circle class="cls-8" cx="634.21" cy="183.72" r="62.14"/><circle class="cls-8" cx="643.63" cy="191.62" r="74.56"/><circle class="cls-8" cx="658.01" cy="203.69" r="93.21"/><circle class="cls-8" cx="672.19" cy="215.58" r="111.85"/><circle class="cls-8" cx="693.71" cy="233.65" r="139.81"/><circle class="cls-8" cx="715.03" cy="251.53" r="167.77"/><circle class="cls-8" cx="747.26" cy="278.58" r="209.71"/><circle class="cls-8" cx="779.29" cy="305.45" r="251.66"/><circle class="cls-8" cx="827.59" cy="345.98" r="314.57"/><circle class="cls-8" cx="875.68" cy="386.33" r="377.48"/><circle class="cls-8" cx="910.43" cy="415.49" r="422.78"/><circle class="cls-8" cx="948.08" cy="447.08" r="471.86"/><circle class="cls-8" cx="984.28" cy="477.46" r="519.04"/><circle class="cls-8" cx="1020.26" cy="507.65" r="566.23"/><circle class="cls-8" cx="1063.68" cy="544.08" r="622.85"/><circle class="cls-8" cx="1128.81" cy="598.73" r="707.78"/><circle class="cls-8" cx="1183.08" cy="644.27" r="778.56"/><circle class="cls-8" cx="1237.14" cy="689.63" r="849.34"/><circle class="cls-8" cx="1302.24" cy="744.26" r="934.27"/><circle class="cls-8" cx="1399.9" cy="826.21" r="1061.67"/><circle class="cls-8" cx="1481.29" cy="894.5" r="1167.84"/><circle class="cls-8" cx="1562.45" cy="962.6" r="1274.01"/><circle class="cls-8" cx="1660.09" cy="1044.53" r="1401.41"/><circle class="cls-8" cx="1806.55" cy="1167.42" r="1592.51"/><circle class="cls-8" cx="593.91" cy="149.9" r="9.82"/><circle class="cls-8" cx="594.03" cy="150" r="9.82"/><circle class="cls-8" cx="590.27" cy="146.85" r="14.73"/><circle class="cls-8" cx="587.34" cy="144.39" r="18.41"/><circle class="cls-8" cx="584.63" cy="142.11" r="22.09"/><circle class="cls-8" cx="580.29" cy="138.47" r="27.62"/><circle class="cls-8" cx="576.17" cy="135.01" r="33.14"/><circle class="cls-8" cx="569.71" cy="129.59" r="41.42"/><circle class="cls-8" cx="563.47" cy="124.36" r="49.71"/><circle class="cls-8" cx="553.85" cy="116.28" r="62.14"/><circle class="cls-8" cx="544.43" cy="108.38" r="74.56"/><circle class="cls-8" cx="530.05" cy="96.31" r="93.21"/><circle class="cls-8" cx="515.87" cy="84.42" r="111.85"/><circle class="cls-8" cx="494.35" cy="66.35" r="139.81"/><circle class="cls-8" cx="473.03" cy="48.47" r="167.77"/><circle class="cls-8" cx="440.8" cy="21.42" r="209.71"/><circle class="cls-8" cx="408.77" cy="-5.45" r="251.66"/><circle class="cls-8" cx="360.47" cy="-45.98" r="314.57"/><circle class="cls-8" cx="312.39" cy="-86.33" r="377.48"/><circle class="cls-8" cx="277.63" cy="-115.49" r="422.78"/><circle class="cls-8" cx="239.98" cy="-147.08" r="471.86"/><circle class="cls-8" cx="203.78" cy="-177.46" r="519.04"/><circle class="cls-8" cx="167.8" cy="-207.65" r="566.23"/><circle class="cls-8" cx="124.38" cy="-244.08" r="622.85"/><circle class="cls-8" cx="59.25" cy="-298.73" r="707.78"/><circle class="cls-8" cx="4.98" cy="-344.27" r="778.56"/><circle class="cls-8" cx="-49.08" cy="-389.63" r="849.34"/><circle class="cls-8" cx="-114.18" cy="-444.26" r="934.27"/><circle class="cls-8" cx="-211.84" cy="-526.21" r="1061.67"/><circle class="cls-8" cx="-293.23" cy="-594.5" r="1167.84"/><circle class="cls-8" cx="-374.39" cy="-662.6" r="1274.01"/><circle class="cls-8" cx="-472.03" cy="-744.53" r="1401.41"/><circle class="cls-8" cx="-618.49" cy="-867.42" r="1592.51"/><circle class="cls-8" cx="594.15" cy="150.1" r="9.82"/></g></g><g class="cls-9"><rect class="cls-6" x="538.17" y="-45.73" width="2609.71" height="391.46"/><g class="cls-10"><circle class="cls-8" cx="1561.41" cy="-86.33" r="377.48"/><circle class="cls-8" cx="1526.66" cy="-115.49" r="422.78"/><circle class="cls-8" cx="1489.01" cy="-147.08" r="471.86"/><circle class="cls-8" cx="1452.81" cy="-177.46" r="519.04"/><circle class="cls-8" cx="1416.82" cy="-207.65" r="566.23"/><circle class="cls-8" cx="1373.41" cy="-244.08" r="622.85"/><circle class="cls-8" cx="1308.28" cy="-298.73" r="707.78"/><circle class="cls-8" cx="1254" cy="-344.27" r="778.56"/><circle class="cls-8" cx="1199.95" cy="-389.63" r="849.34"/><circle class="cls-8" cx="1134.84" cy="-444.26" r="934.27"/><circle class="cls-8" cx="1037.18" cy="-526.21" r="1061.67"/><circle class="cls-8" cx="955.8" cy="-594.5" r="1167.84"/><circle class="cls-8" cx="874.63" cy="-662.6" r="1274.01"/><circle class="cls-8" cx="776.99" cy="-744.53" r="1401.41"/><circle class="cls-8" cx="630.54" cy="-867.42" r="1592.51"/></g></g><g class="cls-11"><g class="cls-12"><circle class="cls-8" cx="2170.62" cy="-594.5" r="1167.84"/><circle class="cls-8" cx="2089.45" cy="-662.6" r="1274.01"/><circle class="cls-8" cx="1991.81" cy="-744.53" r="1401.41"/><circle class="cls-8" cx="1845.36" cy="-867.42" r="1592.51"/></g></g><g class="cls-13"><g class="cls-14"><circle class="cls-15" cx="1829.41" cy="2227.47" r="1935.92"/><circle class="cls-15" cx="1963.96" cy="2340.37" r="2111.91"/><circle class="cls-15" cx="2125.81" cy="2476.18" r="2323.11"/><circle class="cls-15" cx="2368.59" cy="2679.9" r="2639.89"/><circle class="cls-15" cx="-28.56" cy="668.45" r="521.46"/><circle class="cls-15" cx="-108.27" cy="601.56" r="625.75"/><circle class="cls-15" cx="-165.88" cy="553.22" r="700.84"/><circle class="cls-15" cx="-228.29" cy="500.86" r="782.19"/><circle class="cls-15" cx="-288.3" cy="450.5" r="860.41"/><circle class="cls-15" cx="-347.95" cy="400.45" r="938.63"/><circle class="cls-15" cx="-419.92" cy="340.06" r="1032.49"/><circle class="cls-15" cx="-527.89" cy="249.46" r="1173.29"/><circle class="cls-15" cx="-617.86" cy="173.97" r="1290.61"/><circle class="cls-15" cx="-707.46" cy="98.78" r="1407.94"/><circle class="cls-15" cx="-815.39" cy="8.22" r="1548.74"/><circle class="cls-15" cx="-977.28" cy="-127.62" r="1759.93"/><circle class="cls-15" cx="-1112.19" cy="-240.82" r="1935.92"/><circle class="cls-15" cx="-1246.74" cy="-353.72" r="2111.91"/><circle class="cls-15" cx="-1408.59" cy="-489.53" r="2323.11"/><circle class="cls-15" cx="-1651.37" cy="-693.25" r="2639.89"/></g></g></svg>