<svg id="Layer_1" data-name="Layer 1" xmlns="http://www.w3.org/2000/svg" xmlns:xlink="http://www.w3.org/1999/xlink" viewBox="0 0 1500 300"><defs><style>.cls-1,.cls-15,.cls-5,.cls-8{fill:none;}.cls-2{clip-path:url(#clip-path);}.cls-3{fill:#00112c;}.cls-4{clip-path:url(#clip-path-2);}.cls-15,.cls-5,.cls-8{stroke:#0abf53;stroke-miterlimit:10;}.cls-5{stroke-width:0.42px;}.cls-6{clip-path:url(#clip-path-3);}.cls-7{clip-path:url(#clip-path-4);}.cls-8{stroke-width:1.5px;}.cls-9{clip-path:url(#clip-path-5);}.cls-10{clip-path:url(#clip-path-6);}.cls-11{clip-path:url(#clip-path-7);}.cls-12{clip-path:url(#clip-path-8);}.cls-13{clip-path:url(#clip-path-9);}.cls-14{clip-path:url(#clip-path-10);}.cls-15{stroke-width:0.54px;}.cls-16{clip-path:url(#clip-path-11);}.cls-17{clip-path:url(#clip-path-12);}.cls-18{clip-path:url(#clip-path-13);}.cls-19{clip-path:url(#clip-path-14);}</style><clipPath id="clip-path"><rect class="cls-1" width="1500" height="300"/></clipPath><clipPath id="clip-path-2"><rect class="cls-1" x="-258.44" y="-1.27" width="2016.88" height="302.53"/></clipPath><clipPath id="clip-path-3"><rect class="cls-1" x="-2513.84" y="-390" width="1920" height="1080"/></clipPath><clipPath id="clip-path-4"><rect class="cls-1" x="-5153.84" y="-390" width="7199.99" height="1080"/></clipPath><clipPath id="clip-path-5"><rect class="cls-1" x="-2627.84" y="1037.53" width="1188" height="300"/></clipPath><clipPath id="clip-path-6"><rect class="cls-1" x="-3338.7" y="991.8" width="2609.71" height="391.46"/></clipPath><clipPath id="clip-path-7"><rect class="cls-1" x="-1276.32" y="1037.53" width="983" height="300"/></clipPath><clipPath id="clip-path-8"><rect class="cls-1" x="-2089.67" y="991.8" width="2609.71" height="391.46"/></clipPath><clipPath id="clip-path-9"><rect class="cls-1" x="58.5" y="1037.53" width="743" height="300"/></clipPath><clipPath id="clip-path-10"><rect class="cls-1" x="-874.85" y="991.8" width="2609.71" height="391.46"/></clipPath><clipPath id="clip-path-11"><rect class="cls-1" x="1144.2" y="1037.53" width="503" height="300"/></clipPath><clipPath id="clip-path-12"><rect class="cls-1" x="90.85" y="991.8" width="2609.71" height="391.46"/></clipPath><clipPath id="clip-path-13"><rect class="cls-1" x="-2559.78" y="1730.85" width="581" height="600"/></clipPath><clipPath id="clip-path-14"><rect class="cls-1" x="-4432.33" y="1706.4" width="4326.09" height="648.91"/></clipPath></defs><g class="cls-2"><rect class="cls-3" x="-258.44" y="-1.27" width="2016.88" height="302.53"/><rect class="cls-3" x="481.08" y="-1.27" width="537.83" height="302.53"/><g class="cls-4"><circle class="cls-5" cx="750.02" cy="150" r="7.59"/><circle class="cls-5" cx="752.93" cy="152.44" r="11.38"/><circle class="cls-5" cx="755.19" cy="154.34" r="14.23"/><circle class="cls-5" cx="757.29" cy="156.1" r="17.07"/><circle class="cls-5" cx="760.64" cy="158.91" r="21.34"/><circle class="cls-5" cx="763.83" cy="161.58" r="25.61"/><circle class="cls-5" cx="768.82" cy="165.77" r="32.01"/><circle class="cls-5" cx="773.64" cy="169.81" r="38.42"/><circle class="cls-5" cx="781.08" cy="176.06" r="48.02"/><circle class="cls-5" cx="788.35" cy="182.16" r="57.63"/><circle class="cls-5" cx="799.47" cy="191.49" r="72.03"/><circle class="cls-5" cx="810.42" cy="200.68" r="86.44"/><circle class="cls-5" cx="827.06" cy="214.64" r="108.05"/><circle class="cls-5" cx="843.53" cy="228.46" r="129.66"/><circle class="cls-5" cx="868.45" cy="249.37" r="162.07"/><circle class="cls-5" cx="893.2" cy="270.14" r="194.49"/><circle class="cls-5" cx="930.53" cy="301.46" r="243.11"/><circle class="cls-5" cx="967.69" cy="332.64" r="291.73"/><circle class="cls-5" cx="994.55" cy="355.18" r="326.74"/><circle class="cls-5" cx="1023.64" cy="379.6" r="364.67"/><circle class="cls-5" cx="1051.62" cy="403.07" r="401.13"/><circle class="cls-5" cx="1079.43" cy="426.41" r="437.6"/><circle class="cls-5" cx="1112.99" cy="454.56" r="481.36"/><circle class="cls-5" cx="1163.32" cy="496.8" r="547"/><circle class="cls-5" cx="1205.26" cy="531.99" r="601.7"/><circle class="cls-5" cx="1247.04" cy="567.05" r="656.4"/><circle class="cls-5" cx="1297.36" cy="609.27" r="722.04"/><circle class="cls-5" cx="1372.83" cy="672.6" r="820.5"/><circle class="cls-5" cx="1435.73" cy="725.38" r="902.55"/><circle class="cls-5" cx="1498.46" cy="778.01" r="984.6"/><circle class="cls-5" cx="1573.92" cy="841.33" r="1083.06"/><circle class="cls-5" cx="1687.1" cy="936.3" r="1230.75"/><circle class="cls-5" cx="749.93" cy="149.92" r="7.59"/><circle class="cls-5" cx="750.03" cy="150" r="7.59"/><circle class="cls-5" cx="747.12" cy="147.56" r="11.38"/><circle class="cls-5" cx="744.85" cy="145.66" r="14.23"/><circle class="cls-5" cx="742.76" cy="143.9" r="17.07"/><circle class="cls-5" cx="739.4" cy="141.09" r="21.34"/><circle class="cls-5" cx="736.22" cy="138.42" r="25.61"/><circle class="cls-5" cx="731.23" cy="134.23" r="32.01"/><circle class="cls-5" cx="726.41" cy="130.19" r="38.42"/><circle class="cls-5" cx="718.97" cy="123.94" r="48.02"/><circle class="cls-5" cx="711.69" cy="117.84" r="57.63"/><circle class="cls-5" cx="700.57" cy="108.51" r="72.03"/><circle class="cls-5" cx="689.62" cy="99.32" r="86.44"/><circle class="cls-5" cx="672.98" cy="85.36" r="108.05"/><circle class="cls-5" cx="656.51" cy="71.54" r="129.66"/><circle class="cls-5" cx="631.6" cy="50.63" r="162.07"/><circle class="cls-5" cx="606.85" cy="29.86" r="194.49"/><circle class="cls-5" cx="569.52" cy="-1.46" r="243.11"/><circle class="cls-5" cx="532.36" cy="-32.64" r="291.73"/><circle class="cls-5" cx="505.5" cy="-55.18" r="326.74"/><circle class="cls-5" cx="476.4" cy="-79.6" r="364.67"/><circle class="cls-5" cx="448.43" cy="-103.07" r="401.13"/><circle class="cls-5" cx="420.62" cy="-126.41" r="437.6"/><circle class="cls-5" cx="387.06" cy="-154.56" r="481.36"/><circle class="cls-5" cx="336.73" cy="-196.8" r="547"/><circle class="cls-5" cx="294.78" cy="-231.99" r="601.7"/><circle class="cls-5" cx="253.01" cy="-267.05" r="656.4"/><circle class="cls-5" cx="202.69" cy="-309.27" r="722.04"/><circle class="cls-5" cx="127.21" cy="-372.6" r="820.5"/><circle class="cls-5" cx="64.32" cy="-425.38" r="902.55"/><circle class="cls-5" cx="1.59" cy="-478.01" r="984.6"/><circle class="cls-5" cx="-73.87" cy="-541.33" r="1083.06"/><circle class="cls-5" cx="-187.06" cy="-636.3" r="1230.75"/><circle class="cls-5" cx="750.12" cy="150.08" r="7.59"/></g></g><g class="cls-6"><rect class="cls-3" x="-5153.84" y="-390" width="7199.99" height="1080"/><g class="cls-7"><circle class="cls-8" cx="-776.72" cy="802.01" r="1041.45"/><circle class="cls-8" cx="-680.84" cy="882.47" r="1166.43"/><circle class="cls-8" cx="-576.97" cy="969.62" r="1301.81"/><circle class="cls-8" cx="-477.1" cy="1053.43" r="1432"/><circle class="cls-8" cx="-377.82" cy="1136.73" r="1562.18"/><circle class="cls-8" cx="-258.03" cy="1237.24" r="1718.39"/><circle class="cls-8" cx="-78.35" cy="1388.02" r="1952.72"/><circle class="cls-8" cx="71.39" cy="1513.66" r="2147.99"/><circle class="cls-8" cx="220.52" cy="1638.8" r="2343.26"/><circle class="cls-8" cx="400.15" cy="1789.53" r="2577.59"/><circle class="cls-8" cx="669.59" cy="2015.61" r="2929.08"/><circle class="cls-8" cx="894.12" cy="2204.02" r="3221.99"/><circle class="cls-8" cx="1118.05" cy="2391.91" r="3514.9"/><circle class="cls-8" cx="1387.42" cy="2617.95" r="3866.39"/><circle class="cls-8" cx="1791.49" cy="2957" r="4393.62"/></g></g><g class="cls-13"><g class="cls-14"><circle class="cls-15" cx="3.8" cy="829.88" r="566.23"/><circle class="cls-15" cx="-39.62" cy="793.45" r="622.85"/><circle class="cls-15" cx="-104.75" cy="738.8" r="707.78"/><circle class="cls-15" cx="-159.02" cy="693.25" r="778.56"/><circle class="cls-15" cx="-213.08" cy="647.9" r="849.34"/><circle class="cls-15" cx="-278.18" cy="593.27" r="934.27"/><circle class="cls-15" cx="-375.84" cy="511.32" r="1061.67"/><circle class="cls-15" cx="-457.23" cy="443.03" r="1167.84"/><circle class="cls-15" cx="-538.39" cy="374.92" r="1274.01"/><circle class="cls-15" cx="-636.03" cy="293" r="1401.41"/><circle class="cls-15" cx="-782.49" cy="170.1" r="1592.51"/></g></g><g class="cls-16"><g class="cls-17"><circle class="cls-15" cx="969.5" cy="829.88" r="566.23"/><circle class="cls-15" cx="926.08" cy="793.45" r="622.85"/><circle class="cls-15" cx="860.95" cy="738.8" r="707.78"/><circle class="cls-15" cx="806.68" cy="693.25" r="778.56"/><circle class="cls-15" cx="752.62" cy="647.9" r="849.34"/><circle class="cls-15" cx="687.52" cy="593.27" r="934.27"/><circle class="cls-15" cx="589.86" cy="511.32" r="1061.67"/><circle class="cls-15" cx="508.47" cy="443.03" r="1167.84"/><circle class="cls-15" cx="427.31" cy="374.92" r="1274.01"/><circle class="cls-15" cx="329.67" cy="293" r="1401.41"/><circle class="cls-15" cx="183.21" cy="170.1" r="1592.51"/></g></g></svg>