<svg id="Layer_1" data-name="Layer 1" xmlns="http://www.w3.org/2000/svg" xmlns:xlink="http://www.w3.org/1999/xlink" viewBox="0 0 1920 1080"><defs><style>.cls-1,.cls-11,.cls-20,.cls-4,.cls-8{fill:none;}.cls-2{clip-path:url(#clip-path);}.cls-3{clip-path:url(#clip-path-2);}.cls-11,.cls-20,.cls-4,.cls-8{stroke:#0abf53;stroke-miterlimit:10;}.cls-4{stroke-width:0.42px;}.cls-5{clip-path:url(#clip-path-3);}.cls-6{fill:#00112c;}.cls-7{clip-path:url(#clip-path-4);}.cls-8{stroke-width:1.5px;}.cls-9{clip-path:url(#clip-path-5);}.cls-10{clip-path:url(#clip-path-6);}.cls-11{stroke-width:0.54px;}.cls-12{clip-path:url(#clip-path-7);}.cls-13{clip-path:url(#clip-path-8);}.cls-14{clip-path:url(#clip-path-9);}.cls-15{clip-path:url(#clip-path-10);}.cls-16{clip-path:url(#clip-path-11);}.cls-17{clip-path:url(#clip-path-12);}.cls-18{clip-path:url(#clip-path-13);}.cls-19{clip-path:url(#clip-path-14);}.cls-20{stroke-width:0.9px;}</style><clipPath id="clip-path"><rect class="cls-1" x="2513.84" y="390" width="1500" height="300"/></clipPath><clipPath id="clip-path-2"><rect class="cls-1" x="2255.4" y="388.73" width="2016.88" height="302.53"/></clipPath><clipPath id="clip-path-3"><rect class="cls-1" width="1920" height="1080"/></clipPath><clipPath id="clip-path-4"><rect class="cls-1" x="-2639.99" width="7199.99" height="1080"/></clipPath><clipPath id="clip-path-5"><rect class="cls-1" x="-114" y="1427.53" width="1188" height="300"/></clipPath><clipPath id="clip-path-6"><rect class="cls-1" x="-824.85" y="1381.8" width="2609.71" height="391.46"/></clipPath><clipPath id="clip-path-7"><rect class="cls-1" x="1237.52" y="1427.53" width="983" height="300"/></clipPath><clipPath id="clip-path-8"><rect class="cls-1" x="424.17" y="1381.8" width="2609.71" height="391.46"/></clipPath><clipPath id="clip-path-9"><rect class="cls-1" x="2572.34" y="1427.53" width="743" height="300"/></clipPath><clipPath id="clip-path-10"><rect class="cls-1" x="1638.99" y="1381.8" width="2609.71" height="391.46"/></clipPath><clipPath id="clip-path-11"><rect class="cls-1" x="3658.04" y="1427.53" width="503" height="300"/></clipPath><clipPath id="clip-path-12"><rect class="cls-1" x="2604.69" y="1381.8" width="2609.71" height="391.46"/></clipPath><clipPath id="clip-path-13"><rect class="cls-1" x="-45.94" y="2120.85" width="581" height="600"/></clipPath><clipPath id="clip-path-14"><rect class="cls-1" x="-1918.48" y="2096.4" width="4326.09" height="648.91"/></clipPath></defs><g class="cls-2"><g class="cls-3"><circle class="cls-4" cx="2641.06" cy="17.4" r="820.5"/><circle class="cls-4" cx="2578.16" cy="-35.38" r="902.55"/><circle class="cls-4" cx="2515.43" cy="-88.01" r="984.6"/><circle class="cls-4" cx="2439.98" cy="-151.33" r="1083.06"/><circle class="cls-4" cx="2326.79" cy="-246.3" r="1230.75"/></g></g><g class="cls-5"><rect class="cls-6" x="-2639.99" width="7199.99" height="1080"/><rect class="cls-6" width="1920" height="1080"/><g class="cls-7"><circle class="cls-8" cx="960.08" cy="539.99" r="27.09"/><circle class="cls-8" cx="970.45" cy="548.7" r="40.64"/><circle class="cls-8" cx="978.54" cy="555.48" r="50.79"/><circle class="cls-8" cx="986.02" cy="561.76" r="60.95"/><circle class="cls-8" cx="997.99" cy="571.81" r="76.19"/><circle class="cls-8" cx="1009.36" cy="581.35" r="91.43"/><circle class="cls-8" cx="1027.17" cy="596.3" r="114.29"/><circle class="cls-8" cx="1044.38" cy="610.74" r="137.15"/><circle class="cls-8" cx="1070.95" cy="633.03" r="171.43"/><circle class="cls-8" cx="1096.91" cy="654.81" r="205.72"/><circle class="cls-8" cx="1136.61" cy="688.13" r="257.15"/><circle class="cls-8" cx="1175.71" cy="720.93" r="308.58"/><circle class="cls-8" cx="1235.11" cy="770.77" r="385.72"/><circle class="cls-8" cx="1293.9" cy="820.11" r="462.87"/><circle class="cls-8" cx="1382.85" cy="894.74" r="578.58"/><circle class="cls-8" cx="1471.19" cy="968.87" r="694.3"/><circle class="cls-8" cx="1604.46" cy="1080.69" r="867.88"/><circle class="cls-8" cx="1737.12" cy="1192.01" r="1041.45"/><circle class="cls-8" cx="1833" cy="1272.47" r="1166.43"/><circle class="cls-8" cx="1936.87" cy="1359.62" r="1301.81"/><circle class="cls-8" cx="2036.75" cy="1443.43" r="1432"/><circle class="cls-8" cx="2136.02" cy="1526.73" r="1562.18"/><circle class="cls-8" cx="2255.81" cy="1627.24" r="1718.39"/><circle class="cls-8" cx="2435.5" cy="1778.02" r="1952.72"/><circle class="cls-8" cx="2585.23" cy="1903.66" r="2147.99"/><circle class="cls-8" cx="2734.37" cy="2028.8" r="2343.26"/><circle class="cls-8" cx="2913.99" cy="2179.53" r="2577.59"/><circle class="cls-8" cx="3183.43" cy="2405.61" r="2929.08"/><circle class="cls-8" cx="3407.96" cy="2594.02" r="3221.99"/><circle class="cls-8" cx="3631.89" cy="2781.91" r="3514.9"/><circle class="cls-8" cx="3901.27" cy="3007.95" r="3866.39"/><circle class="cls-8" cx="4305.33" cy="3347" r="4393.62"/><circle class="cls-8" cx="959.76" cy="539.72" r="27.09"/><circle class="cls-8" cx="960.09" cy="540.01" r="27.09"/><circle class="cls-8" cx="949.71" cy="531.3" r="40.64"/><circle class="cls-8" cx="941.63" cy="524.52" r="50.79"/><circle class="cls-8" cx="934.15" cy="518.24" r="60.95"/><circle class="cls-8" cx="922.17" cy="508.19" r="76.19"/><circle class="cls-8" cx="910.8" cy="498.65" r="91.43"/><circle class="cls-8" cx="892.99" cy="483.7" r="114.29"/><circle class="cls-8" cx="875.78" cy="469.26" r="137.15"/><circle class="cls-8" cx="849.22" cy="446.97" r="171.43"/><circle class="cls-8" cx="823.25" cy="425.19" r="205.72"/><circle class="cls-8" cx="783.55" cy="391.87" r="257.15"/><circle class="cls-8" cx="744.46" cy="359.07" r="308.58"/><circle class="cls-8" cx="685.06" cy="309.23" r="385.72"/><circle class="cls-8" cx="626.27" cy="259.89" r="462.87"/><circle class="cls-8" cx="537.32" cy="185.26" r="578.58"/><circle class="cls-8" cx="448.98" cy="111.13" r="694.3"/><circle class="cls-8" cx="315.71" cy="-0.69" r="867.88"/><circle class="cls-8" cx="183.04" cy="-112.01" r="1041.45"/><circle class="cls-8" cx="87.16" cy="-192.47" r="1166.43"/><circle class="cls-8" cx="-16.71" cy="-279.62" r="1301.81"/><circle class="cls-8" cx="-116.58" cy="-363.43" r="1432"/><circle class="cls-8" cx="-215.85" cy="-446.73" r="1562.18"/><circle class="cls-8" cx="-335.64" cy="-547.24" r="1718.39"/><circle class="cls-8" cx="-515.33" cy="-698.02" r="1952.72"/><circle class="cls-8" cx="-665.07" cy="-823.66" r="2147.99"/><circle class="cls-8" cx="-814.2" cy="-948.8" r="2343.26"/><circle class="cls-8" cx="-993.83" cy="-1099.53" r="2577.59"/><circle class="cls-8" cx="-1263.26" cy="-1325.61" r="2929.08"/><circle class="cls-8" cx="-1487.8" cy="-1514.02" r="3221.99"/><circle class="cls-8" cx="-1711.72" cy="-1701.91" r="3514.9"/><circle class="cls-8" cx="-1981.1" cy="-1927.95" r="3866.39"/><circle class="cls-8" cx="-2385.17" cy="-2267" r="4393.62"/><circle class="cls-8" cx="960.41" cy="540.28" r="27.09"/></g></g><g class="cls-9"><g class="cls-10"><circle class="cls-11" cx="1546.09" cy="2472.06" r="1401.41"/><circle class="cls-11" cx="1692.55" cy="2594.95" r="1592.51"/><circle class="cls-11" cx="246.47" cy="1381.55" r="314.57"/><circle class="cls-11" cx="198.39" cy="1341.2" r="377.48"/><circle class="cls-11" cx="163.63" cy="1312.04" r="422.78"/><circle class="cls-11" cx="125.98" cy="1280.45" r="471.86"/><circle class="cls-11" cx="89.78" cy="1250.07" r="519.04"/><circle class="cls-11" cx="53.8" cy="1219.88" r="566.23"/><circle class="cls-11" cx="10.38" cy="1183.45" r="622.85"/><circle class="cls-11" cx="-54.75" cy="1128.8" r="707.78"/><circle class="cls-11" cx="-109.02" cy="1083.25" r="778.56"/><circle class="cls-11" cx="-163.08" cy="1037.9" r="849.34"/><circle class="cls-11" cx="-228.18" cy="983.27" r="934.27"/><circle class="cls-11" cx="-325.84" cy="901.32" r="1061.67"/><circle class="cls-11" cx="-407.23" cy="833.03" r="1167.84"/><circle class="cls-11" cx="-488.39" cy="764.92" r="1274.01"/><circle class="cls-11" cx="-586.03" cy="683" r="1401.41"/><circle class="cls-11" cx="-732.49" cy="560.1" r="1592.51"/></g></g><g class="cls-12"><g class="cls-13"><circle class="cls-11" cx="2795.12" cy="2472.06" r="1401.41"/><circle class="cls-11" cx="2941.57" cy="2594.95" r="1592.51"/><circle class="cls-11" cx="1495.49" cy="1381.55" r="314.57"/><circle class="cls-11" cx="1447.41" cy="1341.2" r="377.48"/><circle class="cls-11" cx="1412.66" cy="1312.04" r="422.78"/><circle class="cls-11" cx="1375.01" cy="1280.45" r="471.86"/><circle class="cls-11" cx="1338.81" cy="1250.07" r="519.04"/><circle class="cls-11" cx="1302.82" cy="1219.88" r="566.23"/><circle class="cls-11" cx="1259.41" cy="1183.45" r="622.85"/><circle class="cls-11" cx="1194.28" cy="1128.8" r="707.78"/><circle class="cls-11" cx="1140" cy="1083.25" r="778.56"/><circle class="cls-11" cx="1085.95" cy="1037.9" r="849.34"/><circle class="cls-11" cx="1020.84" cy="983.27" r="934.27"/><circle class="cls-11" cx="923.18" cy="901.32" r="1061.67"/><circle class="cls-11" cx="841.8" cy="833.03" r="1167.84"/><circle class="cls-11" cx="760.63" cy="764.92" r="1274.01"/><circle class="cls-11" cx="662.99" cy="683" r="1401.41"/><circle class="cls-11" cx="516.54" cy="560.1" r="1592.51"/></g></g><g class="cls-14"><g class="cls-15"><circle class="cls-11" cx="2474.23" cy="1183.45" r="622.85"/><circle class="cls-11" cx="2409.1" cy="1128.8" r="707.78"/><circle class="cls-11" cx="2354.82" cy="1083.25" r="778.56"/><circle class="cls-11" cx="2300.77" cy="1037.9" r="849.34"/><circle class="cls-11" cx="2235.66" cy="983.27" r="934.27"/><circle class="cls-11" cx="2138" cy="901.32" r="1061.67"/><circle class="cls-11" cx="2056.62" cy="833.03" r="1167.84"/><circle class="cls-11" cx="1975.45" cy="764.92" r="1274.01"/><circle class="cls-11" cx="1877.81" cy="683" r="1401.41"/><circle class="cls-11" cx="1731.36" cy="560.1" r="1592.51"/></g></g><g class="cls-16"><g class="cls-17"><circle class="cls-11" cx="3022.32" cy="833.03" r="1167.84"/><circle class="cls-11" cx="2941.15" cy="764.92" r="1274.01"/><circle class="cls-11" cx="2843.51" cy="683" r="1401.41"/><circle class="cls-11" cx="2697.06" cy="560.1" r="1592.51"/></g></g><g class="cls-18"><g class="cls-19"><circle class="cls-20" cx="-402.3" cy="1878.03" r="860.41"/><circle class="cls-20" cx="-461.95" cy="1827.98" r="938.63"/><circle class="cls-20" cx="-533.92" cy="1767.58" r="1032.49"/><circle class="cls-20" cx="-641.89" cy="1676.99" r="1173.29"/><circle class="cls-20" cx="-731.86" cy="1601.5" r="1290.61"/><circle class="cls-20" cx="-821.46" cy="1526.31" r="1407.94"/><circle class="cls-20" cx="-929.39" cy="1435.75" r="1548.74"/><circle class="cls-20" cx="-1091.28" cy="1299.91" r="1759.93"/><circle class="cls-20" cx="-1226.19" cy="1186.7" r="1935.92"/><circle class="cls-20" cx="-1360.74" cy="1073.81" r="2111.91"/><circle class="cls-20" cx="-1522.59" cy="937.99" r="2323.11"/><circle class="cls-20" cx="-1765.37" cy="734.28" r="2639.89"/></g></g></svg>