<svg id="Layer_1" data-name="Layer 1" xmlns="http://www.w3.org/2000/svg" xmlns:xlink="http://www.w3.org/1999/xlink" viewBox="0 0 581 600"><defs><style>.cls-1,.cls-15,.cls-4,.cls-7{fill:none;}.cls-2{clip-path:url(#clip-path);}.cls-3{clip-path:url(#clip-path-2);}.cls-15,.cls-4,.cls-7{stroke:#0abf53;stroke-miterlimit:10;}.cls-4{stroke-width:1.5px;}.cls-5{clip-path:url(#clip-path-3);}.cls-6{clip-path:url(#clip-path-4);}.cls-7{stroke-width:0.54px;}.cls-8{clip-path:url(#clip-path-5);}.cls-9{clip-path:url(#clip-path-6);}.cls-10{clip-path:url(#clip-path-7);}.cls-11{clip-path:url(#clip-path-8);}.cls-12{clip-path:url(#clip-path-9);}.cls-13{fill:#00112c;}.cls-14{clip-path:url(#clip-path-10);}.cls-15{stroke-width:0.9px;}</style><clipPath id="clip-path"><rect class="cls-1" x="45.94" y="-2120.85" width="1920" height="1080"/></clipPath><clipPath id="clip-path-2"><rect class="cls-1" x="-2594.05" y="-2120.85" width="7199.99" height="1080"/></clipPath><clipPath id="clip-path-3"><rect class="cls-1" x="-68.06" y="-693.32" width="1188" height="300"/></clipPath><clipPath id="clip-path-4"><rect class="cls-1" x="-778.91" y="-739.05" width="2609.71" height="391.46"/></clipPath><clipPath id="clip-path-5"><rect class="cls-1" x="1283.46" y="-693.32" width="983" height="300"/></clipPath><clipPath id="clip-path-6"><rect class="cls-1" x="470.11" y="-739.05" width="2609.71" height="391.46"/></clipPath><clipPath id="clip-path-7"><rect class="cls-1" x="2618.28" y="-693.32" width="743" height="300"/></clipPath><clipPath id="clip-path-8"><rect class="cls-1" x="1684.93" y="-739.05" width="2609.71" height="391.46"/></clipPath><clipPath id="clip-path-9"><rect class="cls-1" width="581" height="600"/></clipPath><clipPath id="clip-path-10"><rect class="cls-1" x="-1872.54" y="-24.46" width="4326.09" height="648.91"/></clipPath></defs><g class="cls-2"><g class="cls-3"><circle class="cls-4" cx="2481.43" cy="-342.83" r="1952.72"/><circle class="cls-4" cx="2631.17" cy="-217.19" r="2147.99"/><circle class="cls-4" cx="2780.31" cy="-92.05" r="2343.26"/><circle class="cls-4" cx="2959.93" cy="58.67" r="2577.59"/><circle class="cls-4" cx="3229.37" cy="284.76" r="2929.08"/><circle class="cls-4" cx="3453.9" cy="473.16" r="3221.99"/><circle class="cls-4" cx="3677.83" cy="661.06" r="3514.9"/><circle class="cls-4" cx="3947.21" cy="887.1" r="3866.39"/><circle class="cls-4" cx="4351.27" cy="1226.15" r="4393.62"/><circle class="cls-4" cx="-2339.23" cy="-4387.85" r="4393.62"/></g></g><g class="cls-5"><g class="cls-6"><circle class="cls-7" cx="807.61" cy="-307" r="377.48"/><circle class="cls-7" cx="842.37" cy="-277.83" r="422.78"/><circle class="cls-7" cx="880.02" cy="-246.24" r="471.86"/><circle class="cls-7" cx="916.22" cy="-215.87" r="519.04"/><circle class="cls-7" cx="952.2" cy="-185.67" r="566.23"/><circle class="cls-7" cx="995.62" cy="-149.24" r="622.85"/><circle class="cls-7" cx="1060.75" cy="-94.59" r="707.78"/><circle class="cls-7" cx="1115.02" cy="-49.05" r="778.56"/><circle class="cls-7" cx="1169.08" cy="-3.69" r="849.34"/><circle class="cls-7" cx="1234.18" cy="50.94" r="934.27"/><circle class="cls-7" cx="1331.84" cy="132.88" r="1061.67"/><circle class="cls-7" cx="1413.23" cy="201.17" r="1167.84"/><circle class="cls-7" cx="1494.39" cy="269.28" r="1274.01"/><circle class="cls-7" cx="1592.03" cy="351.21" r="1401.41"/><circle class="cls-7" cx="1738.49" cy="474.1" r="1592.51"/><circle class="cls-7" cx="-686.55" cy="-1560.75" r="1592.51"/></g></g><g class="cls-8"><g class="cls-9"><circle class="cls-7" cx="562.47" cy="-1560.75" r="1592.51"/></g></g><g class="cls-10"><g class="cls-11"><circle class="cls-7" cx="1777.29" cy="-1560.75" r="1592.51"/></g></g><g class="cls-12"><rect class="cls-13" x="-1872.54" y="-24.46" width="4326.09" height="648.91"/><rect class="cls-13" x="-286.31" y="-24.46" width="1153.62" height="648.91"/><g class="cls-14"><circle class="cls-15" cx="290.55" cy="300" r="16.28"/><circle class="cls-15" cx="296.78" cy="305.23" r="24.42"/><circle class="cls-15" cx="301.64" cy="309.3" r="30.52"/><circle class="cls-15" cx="306.13" cy="313.08" r="36.62"/><circle class="cls-15" cx="313.33" cy="319.11" r="45.78"/><circle class="cls-15" cx="320.16" cy="324.85" r="54.94"/><circle class="cls-15" cx="330.86" cy="333.83" r="68.67"/><circle class="cls-15" cx="341.2" cy="342.5" r="82.4"/><circle class="cls-15" cx="357.16" cy="355.9" r="103"/><circle class="cls-15" cx="372.76" cy="368.99" r="123.61"/><circle class="cls-15" cx="396.62" cy="389" r="154.51"/><circle class="cls-15" cx="420.11" cy="408.71" r="185.41"/><circle class="cls-15" cx="455.8" cy="438.66" r="231.76"/><circle class="cls-15" cx="491.12" cy="468.3" r="278.11"/><circle class="cls-15" cx="544.57" cy="513.14" r="347.64"/><circle class="cls-15" cx="597.65" cy="557.68" r="417.17"/><circle class="cls-15" cx="677.72" cy="624.87" r="521.46"/><circle class="cls-15" cx="757.43" cy="691.76" r="625.75"/><circle class="cls-15" cx="815.04" cy="740.1" r="700.84"/><circle class="cls-15" cx="877.45" cy="792.47" r="782.19"/><circle class="cls-15" cx="937.46" cy="842.82" r="860.41"/><circle class="cls-15" cx="997.11" cy="892.87" r="938.63"/><circle class="cls-15" cx="1069.08" cy="953.27" r="1032.49"/><circle class="cls-15" cx="1177.05" cy="1043.86" r="1173.29"/><circle class="cls-15" cx="1267.02" cy="1119.35" r="1290.61"/><circle class="cls-15" cx="1356.62" cy="1194.54" r="1407.94"/><circle class="cls-15" cx="1464.55" cy="1285.1" r="1548.74"/><circle class="cls-15" cx="1626.44" cy="1420.95" r="1759.93"/><circle class="cls-15" cx="1761.35" cy="1534.15" r="1935.92"/><circle class="cls-15" cx="1895.9" cy="1647.05" r="2111.91"/><circle class="cls-15" cx="2057.75" cy="1782.86" r="2323.11"/><circle class="cls-15" cx="2300.53" cy="1986.58" r="2639.89"/><circle class="cls-15" cx="290.35" cy="299.83" r="16.28"/><circle class="cls-15" cx="290.55" cy="300" r="16.28"/><circle class="cls-15" cx="284.32" cy="294.77" r="24.42"/><circle class="cls-15" cx="279.46" cy="290.7" r="30.52"/><circle class="cls-15" cx="274.97" cy="286.92" r="36.62"/><circle class="cls-15" cx="267.77" cy="280.89" r="45.78"/><circle class="cls-15" cx="260.94" cy="275.15" r="54.94"/><circle class="cls-15" cx="250.24" cy="266.17" r="68.67"/><circle class="cls-15" cx="239.9" cy="257.5" r="82.4"/><circle class="cls-15" cx="223.94" cy="244.1" r="103"/><circle class="cls-15" cx="208.34" cy="231.01" r="123.61"/><circle class="cls-15" cx="184.48" cy="211" r="154.51"/><circle class="cls-15" cx="160.99" cy="191.29" r="185.41"/><circle class="cls-15" cx="125.3" cy="161.34" r="231.76"/><circle class="cls-15" cx="89.98" cy="131.7" r="278.11"/><circle class="cls-15" cx="36.53" cy="86.86" r="347.64"/><circle class="cls-15" cx="-16.55" cy="42.32" r="417.17"/><circle class="cls-15" cx="-96.62" cy="-24.87" r="521.46"/><circle class="cls-15" cx="-176.33" cy="-91.76" r="625.75"/><circle class="cls-15" cx="-233.94" cy="-140.1" r="700.84"/><circle class="cls-15" cx="-296.35" cy="-192.47" r="782.19"/><circle class="cls-15" cx="-356.36" cy="-242.82" r="860.41"/><circle class="cls-15" cx="-416.01" cy="-292.87" r="938.63"/><circle class="cls-15" cx="-487.98" cy="-353.27" r="1032.49"/><circle class="cls-15" cx="-595.95" cy="-443.86" r="1173.29"/><circle class="cls-15" cx="-685.92" cy="-519.35" r="1290.61"/><circle class="cls-15" cx="-775.52" cy="-594.54" r="1407.94"/><circle class="cls-15" cx="-883.45" cy="-685.1" r="1548.74"/><circle class="cls-15" cx="-1045.34" cy="-820.95" r="1759.93"/><circle class="cls-15" cx="-1180.25" cy="-934.15" r="1935.92"/><circle class="cls-15" cx="-1314.8" cy="-1047.05" r="2111.91"/><circle class="cls-15" cx="-1476.65" cy="-1182.86" r="2323.11"/><circle class="cls-15" cx="-1719.43" cy="-1386.58" r="2639.89"/><circle class="cls-15" cx="290.75" cy="300.17" r="16.28"/></g></g></svg>