<svg id="Layer_1" data-name="Layer 1" xmlns="http://www.w3.org/2000/svg" xmlns:xlink="http://www.w3.org/1999/xlink" viewBox="0 0 503 300"><defs><style>.cls-1,.cls-10,.cls-18,.cls-4,.cls-7{fill:none;}.cls-2{clip-path:url(#clip-path);}.cls-3{clip-path:url(#clip-path-2);}.cls-10,.cls-18,.cls-4,.cls-7{stroke:#0abf53;stroke-miterlimit:10;}.cls-4{stroke-width:0.42px;}.cls-5{clip-path:url(#clip-path-3);}.cls-6{clip-path:url(#clip-path-4);}.cls-7{stroke-width:1.5px;}.cls-8{clip-path:url(#clip-path-5);}.cls-9{clip-path:url(#clip-path-6);}.cls-10{stroke-width:0.54px;}.cls-11{clip-path:url(#clip-path-7);}.cls-12{fill:#00112c;}.cls-13{clip-path:url(#clip-path-8);}.cls-14{clip-path:url(#clip-path-9);}.cls-15{clip-path:url(#clip-path-10);}.cls-16{clip-path:url(#clip-path-11);}.cls-17{clip-path:url(#clip-path-12);}.cls-18{stroke-width:0.9px;}</style><clipPath id="clip-path"><rect class="cls-1" x="-1144.2" y="-1037.53" width="1500" height="300"/></clipPath><clipPath id="clip-path-2"><rect class="cls-1" x="-1402.64" y="-1038.79" width="2016.88" height="302.53"/></clipPath><clipPath id="clip-path-3"><rect class="cls-1" x="-3658.04" y="-1427.53" width="1920" height="1080"/></clipPath><clipPath id="clip-path-4"><rect class="cls-1" x="-6298.04" y="-1427.53" width="7199.99" height="1080"/></clipPath><clipPath id="clip-path-5"><rect class="cls-1" x="-2420.52" width="983" height="300"/></clipPath><clipPath id="clip-path-6"><rect class="cls-1" x="-3233.87" y="-45.73" width="2609.71" height="391.46"/></clipPath><clipPath id="clip-path-7"><rect class="cls-1" x="-1085.7" width="743" height="300"/></clipPath><clipPath id="clip-path-8"><rect class="cls-1" x="-2019.05" y="-45.73" width="2609.71" height="391.46"/></clipPath><clipPath id="clip-path-9"><rect class="cls-1" width="503" height="300"/></clipPath><clipPath id="clip-path-10"><rect class="cls-1" x="-1053.35" y="-45.73" width="2609.71" height="391.46"/></clipPath><clipPath id="clip-path-11"><rect class="cls-1" x="-3703.98" y="693.32" width="581" height="600"/></clipPath><clipPath id="clip-path-12"><rect class="cls-1" x="-5576.53" y="668.87" width="4326.09" height="648.91"/></clipPath></defs><g class="cls-2"><g class="cls-3"><circle class="cls-4" cx="19.12" cy="-540.73" r="547"/><circle class="cls-4" cx="61.07" cy="-505.53" r="601.7"/><circle class="cls-4" cx="102.84" cy="-470.48" r="656.4"/><circle class="cls-4" cx="153.16" cy="-428.26" r="722.04"/><circle class="cls-4" cx="228.63" cy="-364.93" r="820.5"/><circle class="cls-4" cx="291.53" cy="-312.15" r="902.55"/><circle class="cls-4" cx="354.26" cy="-259.52" r="984.6"/><circle class="cls-4" cx="429.72" cy="-196.2" r="1083.06"/><circle class="cls-4" cx="542.9" cy="-101.22" r="1230.75"/></g></g><g class="cls-5"><g class="cls-6"><circle class="cls-7" cx="-1522.02" cy="99.2" r="1562.18"/><circle class="cls-7" cx="-1402.23" cy="199.72" r="1718.39"/><circle class="cls-7" cx="-1222.55" cy="350.49" r="1952.72"/><circle class="cls-7" cx="-1072.81" cy="476.14" r="2147.99"/><circle class="cls-7" cx="-923.68" cy="601.27" r="2343.26"/><circle class="cls-7" cx="-744.05" cy="752" r="2577.59"/><circle class="cls-7" cx="-474.61" cy="978.08" r="2929.08"/><circle class="cls-7" cx="-250.08" cy="1166.49" r="3221.99"/><circle class="cls-7" cx="-26.15" cy="1354.39" r="3514.9"/><circle class="cls-7" cx="243.22" cy="1580.42" r="3866.39"/><circle class="cls-7" cx="647.29" cy="1919.47" r="4393.62"/></g></g><g class="cls-8"><g class="cls-9"><circle class="cls-10" cx="-1041.73" cy="894.5" r="1167.84"/><circle class="cls-10" cx="-960.57" cy="962.6" r="1274.01"/><circle class="cls-10" cx="-862.93" cy="1044.53" r="1401.41"/><circle class="cls-10" cx="-716.47" cy="1167.42" r="1592.51"/></g></g><g class="cls-11"><rect class="cls-12" x="-2019.05" y="-45.73" width="2609.71" height="391.46"/><g class="cls-13"><circle class="cls-10" cx="-397.77" cy="415.49" r="422.78"/><circle class="cls-10" cx="-360.12" cy="447.08" r="471.86"/><circle class="cls-10" cx="-323.92" cy="477.46" r="519.04"/><circle class="cls-10" cx="-287.94" cy="507.65" r="566.23"/><circle class="cls-10" cx="-244.52" cy="544.08" r="622.85"/><circle class="cls-10" cx="-179.39" cy="598.73" r="707.78"/><circle class="cls-10" cx="-125.12" cy="644.27" r="778.56"/><circle class="cls-10" cx="-71.06" cy="689.63" r="849.34"/><circle class="cls-10" cx="-5.96" cy="744.26" r="934.27"/><circle class="cls-10" cx="91.7" cy="826.21" r="1061.67"/><circle class="cls-10" cx="173.09" cy="894.5" r="1167.84"/><circle class="cls-10" cx="254.25" cy="962.6" r="1274.01"/><circle class="cls-10" cx="351.89" cy="1044.53" r="1401.41"/><circle class="cls-10" cx="498.35" cy="1167.42" r="1592.51"/></g></g><g class="cls-14"><rect class="cls-12" x="-1053.35" y="-45.73" width="2609.71" height="391.46"/><rect class="cls-12" x="-96.46" y="-45.73" width="695.92" height="391.46"/><g class="cls-15"><circle class="cls-10" cx="251.53" cy="150" r="9.82"/><circle class="cls-10" cx="255.29" cy="153.15" r="14.73"/><circle class="cls-10" cx="258.22" cy="155.61" r="18.41"/><circle class="cls-10" cx="260.93" cy="157.89" r="22.09"/><circle class="cls-10" cx="265.27" cy="161.53" r="27.62"/><circle class="cls-10" cx="269.39" cy="164.99" r="33.14"/><circle class="cls-10" cx="275.85" cy="170.41" r="41.42"/><circle class="cls-10" cx="282.09" cy="175.64" r="49.71"/><circle class="cls-10" cx="291.71" cy="183.72" r="62.14"/><circle class="cls-10" cx="301.13" cy="191.62" r="74.56"/><circle class="cls-10" cx="315.51" cy="203.69" r="93.21"/><circle class="cls-10" cx="329.69" cy="215.58" r="111.85"/><circle class="cls-10" cx="351.21" cy="233.65" r="139.81"/><circle class="cls-10" cx="372.53" cy="251.53" r="167.77"/><circle class="cls-10" cx="404.76" cy="278.58" r="209.71"/><circle class="cls-10" cx="436.79" cy="305.45" r="251.66"/><circle class="cls-10" cx="485.09" cy="345.98" r="314.57"/><circle class="cls-10" cx="533.18" cy="386.33" r="377.48"/><circle class="cls-10" cx="567.93" cy="415.49" r="422.78"/><circle class="cls-10" cx="605.58" cy="447.08" r="471.86"/><circle class="cls-10" cx="641.78" cy="477.46" r="519.04"/><circle class="cls-10" cx="677.76" cy="507.65" r="566.23"/><circle class="cls-10" cx="721.18" cy="544.08" r="622.85"/><circle class="cls-10" cx="786.31" cy="598.73" r="707.78"/><circle class="cls-10" cx="840.58" cy="644.27" r="778.56"/><circle class="cls-10" cx="894.64" cy="689.63" r="849.34"/><circle class="cls-10" cx="959.74" cy="744.26" r="934.27"/><circle class="cls-10" cx="1057.4" cy="826.21" r="1061.67"/><circle class="cls-10" cx="1138.79" cy="894.5" r="1167.84"/><circle class="cls-10" cx="1219.95" cy="962.6" r="1274.01"/><circle class="cls-10" cx="1317.59" cy="1044.53" r="1401.41"/><circle class="cls-10" cx="1464.05" cy="1167.42" r="1592.51"/><circle class="cls-10" cx="251.41" cy="149.9" r="9.82"/><circle class="cls-10" cx="251.53" cy="150" r="9.82"/><circle class="cls-10" cx="247.77" cy="146.85" r="14.73"/><circle class="cls-10" cx="244.84" cy="144.39" r="18.41"/><circle class="cls-10" cx="242.13" cy="142.11" r="22.09"/><circle class="cls-10" cx="237.79" cy="138.47" r="27.62"/><circle class="cls-10" cx="233.67" cy="135.01" r="33.14"/><circle class="cls-10" cx="227.21" cy="129.59" r="41.42"/><circle class="cls-10" cx="220.97" cy="124.36" r="49.71"/><circle class="cls-10" cx="211.35" cy="116.28" r="62.14"/><circle class="cls-10" cx="201.93" cy="108.38" r="74.56"/><circle class="cls-10" cx="187.55" cy="96.31" r="93.21"/><circle class="cls-10" cx="173.37" cy="84.42" r="111.85"/><circle class="cls-10" cx="151.85" cy="66.35" r="139.81"/><circle class="cls-10" cx="130.53" cy="48.47" r="167.77"/><circle class="cls-10" cx="98.3" cy="21.42" r="209.71"/><circle class="cls-10" cx="66.27" cy="-5.45" r="251.66"/><circle class="cls-10" cx="17.97" cy="-45.98" r="314.57"/><circle class="cls-10" cx="-30.11" cy="-86.33" r="377.48"/><circle class="cls-10" cx="-64.87" cy="-115.49" r="422.78"/><circle class="cls-10" cx="-102.52" cy="-147.08" r="471.86"/><circle class="cls-10" cx="-138.72" cy="-177.46" r="519.04"/><circle class="cls-10" cx="-174.7" cy="-207.65" r="566.23"/><circle class="cls-10" cx="-218.12" cy="-244.08" r="622.85"/><circle class="cls-10" cx="-283.25" cy="-298.73" r="707.78"/><circle class="cls-10" cx="-337.52" cy="-344.27" r="778.56"/><circle class="cls-10" cx="-391.58" cy="-389.63" r="849.34"/><circle class="cls-10" cx="-456.68" cy="-444.26" r="934.27"/><circle class="cls-10" cx="-554.34" cy="-526.21" r="1061.67"/><circle class="cls-10" cx="-635.73" cy="-594.5" r="1167.84"/><circle class="cls-10" cx="-716.89" cy="-662.6" r="1274.01"/><circle class="cls-10" cx="-814.53" cy="-744.53" r="1401.41"/><circle class="cls-10" cx="-960.99" cy="-867.42" r="1592.51"/><circle class="cls-10" cx="251.65" cy="150.1" r="9.82"/></g></g><g class="cls-16"><g class="cls-17"><circle class="cls-18" cx="-1808.09" cy="2340.37" r="2111.91"/><circle class="cls-18" cx="-1646.23" cy="2476.18" r="2323.11"/><circle class="cls-18" cx="-1403.45" cy="2679.9" r="2639.89"/></g></g></svg>