<svg id="Layer_1" data-name="Layer 1" xmlns="http://www.w3.org/2000/svg" xmlns:xlink="http://www.w3.org/1999/xlink" viewBox="0 0 743 300"><defs><style>.cls-1,.cls-10,.cls-20,.cls-4,.cls-7{fill:none;}.cls-2{clip-path:url(#clip-path);}.cls-3{clip-path:url(#clip-path-2);}.cls-10,.cls-20,.cls-4,.cls-7{stroke:#0abf53;stroke-miterlimit:10;}.cls-4{stroke-width:0.42px;}.cls-5{clip-path:url(#clip-path-3);}.cls-6{clip-path:url(#clip-path-4);}.cls-7{stroke-width:1.5px;}.cls-8{clip-path:url(#clip-path-5);}.cls-9{clip-path:url(#clip-path-6);}.cls-10{stroke-width:0.54px;}.cls-11{clip-path:url(#clip-path-7);}.cls-12{fill:#00112c;}.cls-13{clip-path:url(#clip-path-8);}.cls-14{clip-path:url(#clip-path-9);}.cls-15{clip-path:url(#clip-path-10);}.cls-16{clip-path:url(#clip-path-11);}.cls-17{clip-path:url(#clip-path-12);}.cls-18{clip-path:url(#clip-path-13);}.cls-19{clip-path:url(#clip-path-14);}.cls-20{stroke-width:0.9px;}</style><clipPath id="clip-path"><rect class="cls-1" x="-58.5" y="-1037.53" width="1500" height="300"/></clipPath><clipPath id="clip-path-2"><rect class="cls-1" x="-316.94" y="-1038.79" width="2016.88" height="302.53"/></clipPath><clipPath id="clip-path-3"><rect class="cls-1" x="-2572.34" y="-1427.53" width="1920" height="1080"/></clipPath><clipPath id="clip-path-4"><rect class="cls-1" x="-5212.34" y="-1427.53" width="7199.99" height="1080"/></clipPath><clipPath id="clip-path-5"><rect class="cls-1" x="-2686.34" width="1188" height="300"/></clipPath><clipPath id="clip-path-6"><rect class="cls-1" x="-3397.2" y="-45.73" width="2609.71" height="391.46"/></clipPath><clipPath id="clip-path-7"><rect class="cls-1" x="-1334.82" width="983" height="300"/></clipPath><clipPath id="clip-path-8"><rect class="cls-1" x="-2148.17" y="-45.73" width="2609.71" height="391.46"/></clipPath><clipPath id="clip-path-9"><rect class="cls-1" width="743" height="300"/></clipPath><clipPath id="clip-path-10"><rect class="cls-1" x="-933.35" y="-45.73" width="2609.71" height="391.46"/></clipPath><clipPath id="clip-path-11"><rect class="cls-1" x="1085.7" width="503" height="300"/></clipPath><clipPath id="clip-path-12"><rect class="cls-1" x="32.35" y="-45.73" width="2609.71" height="391.46"/></clipPath><clipPath id="clip-path-13"><rect class="cls-1" x="-2618.28" y="693.32" width="581" height="600"/></clipPath><clipPath id="clip-path-14"><rect class="cls-1" x="-4490.83" y="668.87" width="4326.09" height="648.91"/></clipPath></defs><g class="cls-2"><g class="cls-3"><circle class="cls-4" cx="1104.82" cy="-540.73" r="547"/><circle class="cls-4" cx="1146.76" cy="-505.53" r="601.7"/><circle class="cls-4" cx="1188.54" cy="-470.48" r="656.4"/><circle class="cls-4" cx="1238.86" cy="-428.26" r="722.04"/><circle class="cls-4" cx="1314.33" cy="-364.93" r="820.5"/><circle class="cls-4" cx="1377.23" cy="-312.15" r="902.55"/><circle class="cls-4" cx="1439.96" cy="-259.52" r="984.6"/><circle class="cls-4" cx="1515.42" cy="-196.2" r="1083.06"/><circle class="cls-4" cx="1628.6" cy="-101.22" r="1230.75"/></g></g><g class="cls-5"><g class="cls-6"><circle class="cls-7" cx="-835.22" cy="-235.52" r="1041.45"/><circle class="cls-7" cx="-739.34" cy="-155.06" r="1166.43"/><circle class="cls-7" cx="-635.47" cy="-67.9" r="1301.81"/><circle class="cls-7" cx="-535.6" cy="15.9" r="1432"/><circle class="cls-7" cx="-436.32" cy="99.2" r="1562.18"/><circle class="cls-7" cx="-316.53" cy="199.72" r="1718.39"/><circle class="cls-7" cx="-136.85" cy="350.49" r="1952.72"/><circle class="cls-7" cx="12.89" cy="476.14" r="2147.99"/><circle class="cls-7" cx="162.02" cy="601.27" r="2343.26"/><circle class="cls-7" cx="341.65" cy="752" r="2577.59"/><circle class="cls-7" cx="611.09" cy="978.08" r="2929.08"/><circle class="cls-7" cx="835.62" cy="1166.49" r="3221.99"/><circle class="cls-7" cx="1059.55" cy="1354.39" r="3514.9"/><circle class="cls-7" cx="1328.92" cy="1580.42" r="3866.39"/><circle class="cls-7" cx="1732.99" cy="1919.47" r="4393.62"/></g></g><g class="cls-8"><g class="cls-9"><circle class="cls-10" cx="-1123.89" cy="962.6" r="1274.01"/><circle class="cls-10" cx="-1026.25" cy="1044.53" r="1401.41"/><circle class="cls-10" cx="-879.8" cy="1167.42" r="1592.51"/></g></g><g class="cls-11"><rect class="cls-12" x="-2148.17" y="-45.73" width="2609.71" height="391.46"/><g class="cls-13"><circle class="cls-10" cx="-453.04" cy="477.46" r="519.04"/><circle class="cls-10" cx="-417.06" cy="507.65" r="566.23"/><circle class="cls-10" cx="-373.64" cy="544.08" r="622.85"/><circle class="cls-10" cx="-308.51" cy="598.73" r="707.78"/><circle class="cls-10" cx="-254.24" cy="644.27" r="778.56"/><circle class="cls-10" cx="-200.18" cy="689.63" r="849.34"/><circle class="cls-10" cx="-135.08" cy="744.26" r="934.27"/><circle class="cls-10" cx="-37.42" cy="826.21" r="1061.67"/><circle class="cls-10" cx="43.97" cy="894.5" r="1167.84"/><circle class="cls-10" cx="125.13" cy="962.6" r="1274.01"/><circle class="cls-10" cx="222.77" cy="1044.53" r="1401.41"/><circle class="cls-10" cx="369.23" cy="1167.42" r="1592.51"/></g></g><g class="cls-14"><rect class="cls-12" x="-933.35" y="-45.73" width="2609.71" height="391.46"/><rect class="cls-12" x="23.54" y="-45.73" width="695.92" height="391.46"/><g class="cls-15"><circle class="cls-10" cx="371.53" cy="150" r="9.82"/><circle class="cls-10" cx="375.29" cy="153.15" r="14.73"/><circle class="cls-10" cx="378.22" cy="155.61" r="18.41"/><circle class="cls-10" cx="380.93" cy="157.89" r="22.09"/><circle class="cls-10" cx="385.27" cy="161.53" r="27.62"/><circle class="cls-10" cx="389.39" cy="164.99" r="33.14"/><circle class="cls-10" cx="395.85" cy="170.41" r="41.42"/><circle class="cls-10" cx="402.09" cy="175.64" r="49.71"/><circle class="cls-10" cx="411.71" cy="183.72" r="62.14"/><circle class="cls-10" cx="421.13" cy="191.62" r="74.56"/><circle class="cls-10" cx="435.51" cy="203.69" r="93.21"/><circle class="cls-10" cx="449.69" cy="215.58" r="111.85"/><circle class="cls-10" cx="471.21" cy="233.65" r="139.81"/><circle class="cls-10" cx="492.53" cy="251.53" r="167.77"/><circle class="cls-10" cx="524.76" cy="278.58" r="209.71"/><circle class="cls-10" cx="556.79" cy="305.45" r="251.66"/><circle class="cls-10" cx="605.09" cy="345.98" r="314.57"/><circle class="cls-10" cx="653.18" cy="386.33" r="377.48"/><circle class="cls-10" cx="687.93" cy="415.49" r="422.78"/><circle class="cls-10" cx="725.58" cy="447.08" r="471.86"/><circle class="cls-10" cx="761.78" cy="477.46" r="519.04"/><circle class="cls-10" cx="797.76" cy="507.65" r="566.23"/><circle class="cls-10" cx="841.18" cy="544.08" r="622.85"/><circle class="cls-10" cx="906.31" cy="598.73" r="707.78"/><circle class="cls-10" cx="960.58" cy="644.27" r="778.56"/><circle class="cls-10" cx="1014.64" cy="689.63" r="849.34"/><circle class="cls-10" cx="1079.74" cy="744.26" r="934.27"/><circle class="cls-10" cx="1177.4" cy="826.21" r="1061.67"/><circle class="cls-10" cx="1258.79" cy="894.5" r="1167.84"/><circle class="cls-10" cx="1339.95" cy="962.6" r="1274.01"/><circle class="cls-10" cx="1437.59" cy="1044.53" r="1401.41"/><circle class="cls-10" cx="1584.05" cy="1167.42" r="1592.51"/><circle class="cls-10" cx="371.41" cy="149.9" r="9.82"/><circle class="cls-10" cx="371.53" cy="150" r="9.82"/><circle class="cls-10" cx="367.77" cy="146.85" r="14.73"/><circle class="cls-10" cx="364.84" cy="144.39" r="18.41"/><circle class="cls-10" cx="362.13" cy="142.11" r="22.09"/><circle class="cls-10" cx="357.79" cy="138.47" r="27.62"/><circle class="cls-10" cx="353.67" cy="135.01" r="33.14"/><circle class="cls-10" cx="347.21" cy="129.59" r="41.42"/><circle class="cls-10" cx="340.97" cy="124.36" r="49.71"/><circle class="cls-10" cx="331.35" cy="116.28" r="62.14"/><circle class="cls-10" cx="321.93" cy="108.38" r="74.56"/><circle class="cls-10" cx="307.55" cy="96.31" r="93.21"/><circle class="cls-10" cx="293.37" cy="84.42" r="111.85"/><circle class="cls-10" cx="271.85" cy="66.35" r="139.81"/><circle class="cls-10" cx="250.53" cy="48.47" r="167.77"/><circle class="cls-10" cx="218.3" cy="21.42" r="209.71"/><circle class="cls-10" cx="186.27" cy="-5.45" r="251.66"/><circle class="cls-10" cx="137.97" cy="-45.98" r="314.57"/><circle class="cls-10" cx="89.89" cy="-86.33" r="377.48"/><circle class="cls-10" cx="55.13" cy="-115.49" r="422.78"/><circle class="cls-10" cx="17.48" cy="-147.08" r="471.86"/><circle class="cls-10" cx="-18.72" cy="-177.46" r="519.04"/><circle class="cls-10" cx="-54.7" cy="-207.65" r="566.23"/><circle class="cls-10" cx="-98.12" cy="-244.08" r="622.85"/><circle class="cls-10" cx="-163.25" cy="-298.73" r="707.78"/><circle class="cls-10" cx="-217.52" cy="-344.27" r="778.56"/><circle class="cls-10" cx="-271.58" cy="-389.63" r="849.34"/><circle class="cls-10" cx="-336.68" cy="-444.26" r="934.27"/><circle class="cls-10" cx="-434.34" cy="-526.21" r="1061.67"/><circle class="cls-10" cx="-515.73" cy="-594.5" r="1167.84"/><circle class="cls-10" cx="-596.89" cy="-662.6" r="1274.01"/><circle class="cls-10" cx="-694.53" cy="-744.53" r="1401.41"/><circle class="cls-10" cx="-840.99" cy="-867.42" r="1592.51"/><circle class="cls-10" cx="371.65" cy="150.1" r="9.82"/></g></g><g class="cls-16"><rect class="cls-12" x="32.35" y="-45.73" width="2609.71" height="391.46"/><g class="cls-17"><circle class="cls-10" cx="1055.58" cy="-86.33" r="377.48"/><circle class="cls-10" cx="1020.83" cy="-115.49" r="422.78"/><circle class="cls-10" cx="983.18" cy="-147.08" r="471.86"/><circle class="cls-10" cx="946.98" cy="-177.46" r="519.04"/><circle class="cls-10" cx="911" cy="-207.65" r="566.23"/><circle class="cls-10" cx="867.58" cy="-244.08" r="622.85"/><circle class="cls-10" cx="802.45" cy="-298.73" r="707.78"/><circle class="cls-10" cx="748.18" cy="-344.27" r="778.56"/><circle class="cls-10" cx="694.12" cy="-389.63" r="849.34"/><circle class="cls-10" cx="629.02" cy="-444.26" r="934.27"/><circle class="cls-10" cx="531.36" cy="-526.21" r="1061.67"/><circle class="cls-10" cx="449.97" cy="-594.5" r="1167.84"/><circle class="cls-10" cx="368.81" cy="-662.6" r="1274.01"/><circle class="cls-10" cx="271.17" cy="-744.53" r="1401.41"/><circle class="cls-10" cx="124.71" cy="-867.42" r="1592.51"/></g></g><g class="cls-18"><g class="cls-19"><circle class="cls-20" cx="-856.93" cy="2227.47" r="1935.92"/><circle class="cls-20" cx="-722.39" cy="2340.37" r="2111.91"/><circle class="cls-20" cx="-560.53" cy="2476.18" r="2323.11"/><circle class="cls-20" cx="-317.75" cy="2679.9" r="2639.89"/></g></g></svg>