<svg xmlns="http://www.w3.org/2000/svg" xmlns:xlink="http://www.w3.org/1999/xlink" width="337.757" height="337.732" viewBox="0 0 337.757 337.732">
  <defs>
    <radialGradient id="radial-gradient" cx="0.5" cy="0.5" r="0.5" gradientUnits="objectBoundingBox">
      <stop offset="0" stop-color="#1a1a1a"/>
      <stop offset="1" stop-color="#1a1a1a" stop-opacity="0"/>
    </radialGradient>
  </defs>
  <g id="Group_89" data-name="Group 89" transform="translate(-1207.891 -4028.764)">
    <g id="Group_95" data-name="Group 95" transform="translate(1207.891 4028.764)">
      <circle id="Ellipse_2" data-name="Ellipse 2" cx="168" cy="168" r="168" transform="translate(0.757 0.477)" opacity="0.25" fill="url(#radial-gradient)"/>
      <g id="Group_93" data-name="Group 93" transform="translate(131.671 132.147)">
        <g id="Group_90" data-name="Group 90" transform="translate(0 42.707)">
          <path id="Path_23" data-name="Path 23" d="M1754.057,4185.125h8.659l9.369,18.695h13.454l-15.386-30.7h-28.13v30.7h12.034Z" transform="translate(-1742.024 -4173.119)" fill="#e7e5e1"/>
        </g>
        <g id="Group_91" data-name="Group 91">
          <path id="Path_24" data-name="Path 24" d="M1762.716,4156.56h-8.659v-18.695h-12.034v30.7h28.13l15.386-30.7h-13.454Z" transform="translate(-1742.024 -4137.865)" fill="#e7e5e1"/>
        </g>
        <g id="Group_92" data-name="Group 92" transform="translate(38.319)">
          <path id="Path_25" data-name="Path 25" d="M1809.779,4149.814v-11.95h-17.643l-18.48,36.7,18.48,36.7h17.643v-11.95h-10.206l-12.463-24.753,12.463-24.754Z" transform="translate(-1773.656 -4137.865)" fill="#e7e5e1"/>
        </g>
      </g>
      <g id="Group_94" data-name="Group 94">
        <path id="Path_26" data-name="Path 26" d="M1719.713,4057.059a.25.25,0,0,1-.148-.143l-6.018-13.9a.253.253,0,0,1,0-.206.262.262,0,0,1,.143-.147l1.892-.819a.257.257,0,0,1,.206,0,.266.266,0,0,1,.148.144l2.661,6.149c.018.042.044.063.076.064s.058-.017.074-.056l2.614-8.629a.43.43,0,0,1,.246-.278l2.139-.926q.205-.087.269.056a.39.39,0,0,1,.007.191l-2.206,7.817c-.017.074-.006.125.041.152l8.469,5.687a.917.917,0,0,1,.1.128c.041.1-.007.172-.144.231l-2.16.935a.356.356,0,0,1-.359-.04l-6.814-4.572c-.091-.058-.142-.043-.154.042l-.754,2.426a.32.32,0,0,0,.022.162l1.885,4.361a.246.246,0,0,1,0,.2.263.263,0,0,1-.144.149l-1.89.818A.248.248,0,0,1,1719.713,4057.059Z" transform="translate(-1616.377 -4026.77)" fill="#e7e5e1"/>
        <path id="Path_27" data-name="Path 27" d="M1729.966,4052.176a.269.269,0,0,1-.139-.152l-5.139-14.253a.254.254,0,0,1,.009-.206.258.258,0,0,1,.153-.138l1.939-.7a.265.265,0,0,1,.206.007.274.274,0,0,1,.139.152l5.137,14.253a.254.254,0,0,1-.009.206.263.263,0,0,1-.153.138l-1.939.7A.252.252,0,0,1,1729.966,4052.176Z" transform="translate(-1614.021 -4027.1)" fill="#e7e5e1"/>
        <path id="Path_28" data-name="Path 28" d="M1738.633,4033.589a.26.26,0,0,1,.16-.13l1.982-.568a.269.269,0,0,1,.333.184l4.18,14.563a.247.247,0,0,1-.023.2.256.256,0,0,1-.162.129l-1.917.55a.326.326,0,0,1-.351-.085l-9.122-8.387c-.042-.034-.074-.043-.1-.031s-.03.053-.016.112l2.926,10.025a.263.263,0,0,1-.023.205.258.258,0,0,1-.161.127l-1.983.571a.261.261,0,0,1-.2-.024.268.268,0,0,1-.128-.161l-4.179-14.562a.261.261,0,0,1,.184-.331l1.917-.553a.319.319,0,0,1,.35.087l9.1,8.391c.04.037.074.046.1.031s.031-.052.016-.11l-2.9-10.032A.252.252,0,0,1,1738.633,4033.589Z" transform="translate(-1612.93 -4027.91)" fill="#e7e5e1"/>
        <path id="Path_29" data-name="Path 29" d="M1747.4,4046.9a4.6,4.6,0,0,1-2.265-1.164,4.028,4.028,0,0,1-1.14-2.2l-.107-.55a.27.27,0,0,1,.042-.2.262.262,0,0,1,.172-.113l1.96-.377a.267.267,0,0,1,.2.042.257.257,0,0,1,.113.172l.08.418a2.068,2.068,0,0,0,1.225,1.512,4.136,4.136,0,0,0,2.594.2,3.157,3.157,0,0,0,1.916-.959,1.875,1.875,0,0,0,.4-1.606,1.553,1.553,0,0,0-.574-.973,3.58,3.58,0,0,0-1.216-.579c-.508-.145-1.259-.307-2.248-.482a21.7,21.7,0,0,1-2.739-.594,4.828,4.828,0,0,1-1.881-1.064,3.568,3.568,0,0,1-1.062-2.045,3.764,3.764,0,0,1,.823-3.329,5.967,5.967,0,0,1,3.548-1.842,7.126,7.126,0,0,1,3.025.014,4.725,4.725,0,0,1,2.276,1.217,4.153,4.153,0,0,1,1.157,2.231l.072.375a.258.258,0,0,1-.041.2.268.268,0,0,1-.171.113l-1.982.378a.267.267,0,0,1-.315-.214l-.047-.241a2.233,2.233,0,0,0-1.181-1.587,3.589,3.589,0,0,0-2.482-.268,3.125,3.125,0,0,0-1.784.867,1.712,1.712,0,0,0-.4,1.558,1.643,1.643,0,0,0,.557,1.012,3.217,3.217,0,0,0,1.2.557c.512.137,1.294.29,2.345.453a25.239,25.239,0,0,1,2.7.6,4.916,4.916,0,0,1,1.867,1.045,3.509,3.509,0,0,1,1.085,2.04,3.884,3.884,0,0,1-.86,3.428,6.359,6.359,0,0,1-3.772,1.931A7.673,7.673,0,0,1,1747.4,4046.9Z" transform="translate(-1610.194 -4028.306)" fill="#e7e5e1"/>
        <path id="Path_30" data-name="Path 30" d="M1764.6,4029.129l2.052-.2a.26.26,0,0,1,.2.06.25.25,0,0,1,.1.182l1.444,15.081a.269.269,0,0,1-.06.2.26.26,0,0,1-.183.1l-2.053.2a.257.257,0,0,1-.2-.058.26.26,0,0,1-.1-.183l-1.018-10.643a.085.085,0,0,0-.064-.083c-.04-.012-.063.006-.074.052l-2.379,4.549a.35.35,0,0,1-.3.208l-1.026.1a.343.343,0,0,1-.328-.147l-3.219-3.992c-.019-.043-.047-.056-.083-.038a.09.09,0,0,0-.047.093l1.016,10.62a.27.27,0,0,1-.242.293l-2.052.2a.262.262,0,0,1-.2-.06.273.273,0,0,1-.1-.184l-1.44-15.079a.258.258,0,0,1,.062-.2.255.255,0,0,1,.182-.1l2.052-.2a.352.352,0,0,1,.328.15l4.163,5.16a.126.126,0,0,0,.094.038.067.067,0,0,0,.062-.05l3.111-5.859A.351.351,0,0,1,1764.6,4029.129Z" transform="translate(-1607.768 -4028.745)" fill="#e7e5e1"/>
        <path id="Path_31" data-name="Path 31" d="M1778.894,4030.94a.264.264,0,0,1-.191.078l-7.64.01a.1.1,0,0,0-.114.114l.007,4.19a.1.1,0,0,0,.112.11l5.131-.006a.269.269,0,0,1,.27.269l0,1.7a.263.263,0,0,1-.079.192.255.255,0,0,1-.19.079l-5.132.007a.1.1,0,0,0-.113.112l.006,4.326a.1.1,0,0,0,.113.113l7.642-.011a.255.255,0,0,1,.19.077.266.266,0,0,1,.08.192l0,1.7a.27.27,0,0,1-.27.271l-10.083.013a.267.267,0,0,1-.27-.269l-.02-15.149a.243.243,0,0,1,.079-.189.253.253,0,0,1,.189-.08l10.085-.013a.264.264,0,0,1,.269.269l0,1.7A.258.258,0,0,1,1778.894,4030.94Z" transform="translate(-1604.788 -4028.777)" fill="#e7e5e1"/>
        <path id="Path_32" data-name="Path 32" d="M1789.572,4029.793a.268.268,0,0,1,.2-.062l2.053.183a.263.263,0,0,1,.184.095.266.266,0,0,1,.061.2l-1.342,15.089a.279.279,0,0,1-.1.185.265.265,0,0,1-.2.062l-1.985-.178a.318.318,0,0,1-.3-.206l-5.49-11.108c-.027-.049-.054-.068-.085-.063s-.047.035-.053.1l-.881,10.406a.272.272,0,0,1-.1.183.258.258,0,0,1-.2.061l-2.053-.182a.27.27,0,0,1-.243-.293l1.344-15.09a.257.257,0,0,1,.1-.182.247.247,0,0,1,.2-.062l1.985.177a.322.322,0,0,1,.3.206l5.468,11.108c.023.046.053.069.082.063s.049-.036.055-.1l.9-10.4A.264.264,0,0,1,1789.572,4029.793Z" transform="translate(-1602.527 -4028.747)" fill="#e7e5e1"/>
        <path id="Path_33" data-name="Path 33" d="M1796.875,4046.139a4.76,4.76,0,0,1-1.548-2.217,5.376,5.376,0,0,1-.109-2.84l1.146-5.416a5.32,5.32,0,0,1,1.251-2.553,4.7,4.7,0,0,1,2.308-1.391,6.456,6.456,0,0,1,3.03-.023,6.567,6.567,0,0,1,2.743,1.222,4.648,4.648,0,0,1,1.563,2.138,4.981,4.981,0,0,1,.131,2.731.254.254,0,0,1-.115.171.259.259,0,0,1-.2.038l-2.04-.317c-.176-.038-.247-.137-.212-.3a2.849,2.849,0,0,0-.361-2.251,2.973,2.973,0,0,0-1.97-1.243,3.017,3.017,0,0,0-2.316.337,2.826,2.826,0,0,0-1.251,1.91l-1.181,5.592a2.8,2.8,0,0,0,.374,2.232,3.394,3.394,0,0,0,4.283.917,2.825,2.825,0,0,0,1.239-1.9c.034-.16.139-.223.314-.186l2,.514a.3.3,0,0,1,.172.106.192.192,0,0,1,.042.17,5.085,5.085,0,0,1-1.232,2.476,4.63,4.63,0,0,1-2.3,1.336,6.591,6.591,0,0,1-3,0A6.344,6.344,0,0,1,1796.875,4046.139Z" transform="translate(-1599.138 -4028.195)" fill="#e7e5e1"/>
        <path id="Path_34" data-name="Path 34" d="M1807.538,4048.624a4.817,4.817,0,0,1-1.353-2.438,5.759,5.759,0,0,1,.166-2.97l1.487-4.889a5.637,5.637,0,0,1,1.518-2.526,4.955,4.955,0,0,1,2.481-1.26,6.84,6.84,0,0,1,5.7,1.737,4.919,4.919,0,0,1,1.358,2.427,5.609,5.609,0,0,1-.146,2.944l-1.488,4.887a5.722,5.722,0,0,1-1.526,2.557,4.92,4.92,0,0,1-2.484,1.271,6.87,6.87,0,0,1-5.714-1.739Zm5.726-.8a3.158,3.158,0,0,0,1.485-1.96l1.521-4.995a3.2,3.2,0,0,0-.135-2.478,3.023,3.023,0,0,0-1.912-1.5,2.985,2.985,0,0,0-2.4.185,3.185,3.185,0,0,0-1.492,1.98l-1.521,5a3.182,3.182,0,0,0,.142,2.456,2.988,2.988,0,0,0,1.891,1.489A3.018,3.018,0,0,0,1813.264,4047.825Z" transform="translate(-1596.816 -4027.58)" fill="#e7e5e1"/>
        <path id="Path_35" data-name="Path 35" d="M1816.116,4051.823a.264.264,0,0,1,0-.206l5.621-14.069a.267.267,0,0,1,.35-.149l1.914.763a.265.265,0,0,1,.147.144.25.25,0,0,1,0,.206l-4.847,12.134a.1.1,0,0,0,.062.143l6.973,2.786a.266.266,0,0,1,.146.143.273.273,0,0,1,0,.207l-.632,1.581a.26.26,0,0,1-.143.149.269.269,0,0,1-.207,0l-9.239-3.692A.266.266,0,0,1,1816.116,4051.823Z" transform="translate(-1594.696 -4026.959)" fill="#e7e5e1"/>
        <path id="Path_36" data-name="Path 36" d="M1825.662,4055.659a.264.264,0,0,1,.014-.206l6.741-13.567a.264.264,0,0,1,.155-.134.258.258,0,0,1,.206.014l1.847.917a.274.274,0,0,1,.136.155.267.267,0,0,1-.015.2l-5.816,11.7a.1.1,0,0,0,.05.15l6.723,3.341a.259.259,0,0,1,.137.155.263.263,0,0,1-.015.205l-.758,1.525a.254.254,0,0,1-.155.136.259.259,0,0,1-.206-.014l-8.91-4.431A.248.248,0,0,1,1825.662,4055.659Z" transform="translate(-1592.676 -4026.038)" fill="#e7e5e1"/>
        <path id="Path_37" data-name="Path 37" d="M1850.767,4054.14a.249.249,0,0,1-.2-.033l-6.537-3.954a.1.1,0,0,0-.154.038l-2.17,3.586a.1.1,0,0,0,.038.155l4.391,2.656a.257.257,0,0,1,.122.165.27.27,0,0,1-.032.2l-.88,1.456a.271.271,0,0,1-.372.092l-4.389-2.657a.1.1,0,0,0-.155.038l-2.24,3.7a.1.1,0,0,0,.039.155l6.539,3.955a.265.265,0,0,1,.122.166.262.262,0,0,1-.033.2l-.881,1.457a.26.26,0,0,1-.167.125.267.267,0,0,1-.2-.033l-8.626-5.221a.247.247,0,0,1-.122-.166.254.254,0,0,1,.03-.2l7.843-12.963a.248.248,0,0,1,.166-.121.261.261,0,0,1,.2.032l8.627,5.218a.271.271,0,0,1,.122.166.251.251,0,0,1-.031.205l-.881,1.456A.26.26,0,0,1,1850.767,4054.14Z" transform="translate(-1590.732 -4024.939)" fill="#e7e5e1"/>
        <path id="Path_38" data-name="Path 38" d="M1845.7,4066.418a4.768,4.768,0,0,1-.5-2.654,5.347,5.347,0,0,1,1.062-2.637l3.261-4.473a5.358,5.358,0,0,1,2.183-1.82,4.716,4.716,0,0,1,2.676-.323,6.434,6.434,0,0,1,2.775,1.218,6.544,6.544,0,0,1,2,2.235,4.657,4.657,0,0,1,.551,2.592,5.015,5.015,0,0,1-1,2.546.271.271,0,0,1-.377.06l-1.732-1.123a.23.23,0,0,1-.072-.359,2.85,2.85,0,0,0,.593-2.2,2.972,2.972,0,0,0-1.289-1.939,3.023,3.023,0,0,0-2.251-.641,2.841,2.841,0,0,0-1.926,1.231l-3.365,4.619a2.812,2.812,0,0,0-.571,2.19,3.4,3.4,0,0,0,3.534,2.59,2.822,2.822,0,0,0,1.91-1.23.227.227,0,0,1,.361-.041l1.614,1.289a.278.278,0,0,1,.115.165.2.2,0,0,1-.029.173,5.078,5.078,0,0,1-2.139,1.755,4.607,4.607,0,0,1-2.643.278,6.591,6.591,0,0,1-2.741-1.222A6.358,6.358,0,0,1,1845.7,4066.418Z" transform="translate(-1588.549 -4023.352)" fill="#e7e5e1"/>
        <path id="Path_39" data-name="Path 39" d="M1870.2,4067.219a.26.26,0,0,1-.065.194l-1.13,1.3a.268.268,0,0,1-.378.028l-3.118-2.7a.1.1,0,0,0-.157.011l-8.538,9.861a.268.268,0,0,1-.184.093.262.262,0,0,1-.2-.066l-1.559-1.347a.255.255,0,0,1-.092-.187.26.26,0,0,1,.065-.2l8.537-9.861a.1.1,0,0,0-.011-.156l-3-2.6a.264.264,0,0,1-.028-.379l1.129-1.3a.254.254,0,0,1,.184-.093.263.263,0,0,1,.2.065l8.251,7.144A.262.262,0,0,1,1870.2,4067.219Z" transform="translate(-1586.517 -4022.214)" fill="#e7e5e1"/>
        <path id="Path_40" data-name="Path 40" d="M1860.468,4078.947a.25.25,0,0,1,.075-.191l10.593-10.833a.256.256,0,0,1,.188-.081.265.265,0,0,1,.192.076l1.474,1.443a.247.247,0,0,1,.08.189.261.261,0,0,1-.075.191l-10.592,10.833a.265.265,0,0,1-.379,0l-1.474-1.44A.254.254,0,0,1,1860.468,4078.947Z" transform="translate(-1585.316 -4020.52)" fill="#e7e5e1"/>
        <path id="Path_41" data-name="Path 41" d="M1865.941,4084.828l8.094-13.644.052-.075a.208.208,0,0,1,.331.033l1.488,1.646a.3.3,0,0,1,.042.383l-6.435,10.333c-.022.04-.024.074,0,.094s.05.024.094,0l10.922-5.355a.293.293,0,0,1,.375.083l1.457,1.614a.221.221,0,0,1-.083.375l-14.447,6.6a.283.283,0,0,1-.362-.064l-1.5-1.665A.283.283,0,0,1,1865.941,4084.828Z" transform="translate(-1584.17 -4019.843)" fill="#e7e5e1"/>
        <path id="Path_42" data-name="Path 42" d="M1888.042,4090.243a.266.266,0,0,1-.178-.1l-4.618-6.089a.1.1,0,0,0-.156-.022l-3.339,2.532a.1.1,0,0,0-.022.157l3.1,4.089a.275.275,0,0,1,.053.2.269.269,0,0,1-.1.178l-1.358,1.029a.256.256,0,0,1-.2.052.245.245,0,0,1-.177-.1l-3.1-4.088a.1.1,0,0,0-.156-.021l-3.447,2.615a.1.1,0,0,0-.022.155l4.618,6.09a.267.267,0,0,1-.051.377l-1.358,1.028a.27.27,0,0,1-.377-.051l-6.094-8.037a.259.259,0,0,1-.052-.2.257.257,0,0,1,.105-.178l12.07-9.154a.272.272,0,0,1,.377.052l6.094,8.035a.267.267,0,0,1,.052.2.254.254,0,0,1-.1.177l-1.357,1.03A.255.255,0,0,1,1888.042,4090.243Z" transform="translate(-1583.089 -4017.814)" fill="#e7e5e1"/>
        <path id="Path_43" data-name="Path 43" d="M1882.927,4097.178a.267.267,0,0,1,.125-.165l1.45-.849a.26.26,0,0,1,.2-.03.266.266,0,0,1,.164.125l6.575,11.213a.257.257,0,0,1,.028.2.251.251,0,0,1-.124.163l-1.45.852a.267.267,0,0,1-.2.028.249.249,0,0,1-.164-.125l-6.575-11.212A.262.262,0,0,1,1882.927,4097.178Z" transform="translate(-1580.57 -4014.541)" fill="#e7e5e1"/>
        <path id="Path_44" data-name="Path 44" d="M1886.961,4114.769a.259.259,0,0,1,.144-.149l13.884-6.061a.24.24,0,0,1,.206-.005.252.252,0,0,1,.149.142l.825,1.891a.266.266,0,0,1,0,.2.259.259,0,0,1-.144.149l-6.141,2.681a.093.093,0,0,0-.064.077c0,.034.017.057.057.074l8.636,2.586a.43.43,0,0,1,.28.245l.931,2.136c.061.138.042.228-.053.269a.419.419,0,0,1-.193.01l-7.824-2.182c-.073-.019-.122-.005-.151.041l-5.662,8.488a.837.837,0,0,1-.125.1c-.094.042-.173-.005-.234-.142l-.942-2.157a.359.359,0,0,1,.04-.361l4.55-6.827c.059-.091.043-.142-.042-.151l-2.43-.749a.364.364,0,0,0-.161.021l-4.354,1.9a.269.269,0,0,1-.354-.139l-.826-1.889A.271.271,0,0,1,1886.961,4114.769Z" transform="translate(-1579.719 -4011.918)" fill="#e7e5e1"/>
        <path id="Path_45" data-name="Path 45" d="M1891.3,4125.01a.249.249,0,0,1,.151-.138l14.235-5.185a.269.269,0,0,1,.206.008.261.261,0,0,1,.138.153l.705,1.937a.265.265,0,0,1-.16.345l-14.235,5.184a.267.267,0,0,1-.344-.16l-.706-1.937A.257.257,0,0,1,1891.3,4125.01Z" transform="translate(-1578.803 -4009.564)" fill="#e7e5e1"/>
        <path id="Path_46" data-name="Path 46" d="M1910.388,4133.625a.253.253,0,0,1,.128.161l.575,1.978a.254.254,0,0,1-.023.206.261.261,0,0,1-.159.129l-14.549,4.226a.265.265,0,0,1-.334-.183l-.556-1.914a.319.319,0,0,1,.085-.352l8.357-9.151c.035-.04.042-.075.029-.1s-.053-.03-.109-.014l-10.018,2.957a.254.254,0,0,1-.2-.023.25.25,0,0,1-.127-.162l-.578-1.98a.252.252,0,0,1,.024-.2.26.26,0,0,1,.161-.13l14.548-4.227a.26.26,0,0,1,.2.023.263.263,0,0,1,.128.162l.559,1.916a.322.322,0,0,1-.086.351l-8.364,9.128c-.034.042-.045.075-.028.1s.052.033.109.015l10.023-2.935A.258.258,0,0,1,1910.388,4133.625Z" transform="translate(-1578.461 -4008.473)" fill="#e7e5e1"/>
        <path id="Path_47" data-name="Path 47" d="M1896.729,4142.409a4.591,4.591,0,0,1,1.157-2.27,4.047,4.047,0,0,1,2.2-1.147l.549-.106a.253.253,0,0,1,.2.041.267.267,0,0,1,.115.171l.38,1.958a.258.258,0,0,1-.04.2.244.244,0,0,1-.173.111l-.418.084a2.059,2.059,0,0,0-1.507,1.229,4.128,4.128,0,0,0-.19,2.595,3.144,3.144,0,0,0,.967,1.913,1.871,1.871,0,0,0,1.606.393,1.563,1.563,0,0,0,.973-.575,3.586,3.586,0,0,0,.572-1.221q.218-.762.476-2.251a22.018,22.018,0,0,1,.584-2.738,4.8,4.8,0,0,1,1.06-1.887,3.594,3.594,0,0,1,2.04-1.07,3.774,3.774,0,0,1,3.331.813,5.971,5.971,0,0,1,1.856,3.543,7.164,7.164,0,0,1,0,3.026,4.744,4.744,0,0,1-1.211,2.279,4.138,4.138,0,0,1-2.228,1.164l-.374.073a.26.26,0,0,1-.2-.041.25.25,0,0,1-.114-.172l-.386-1.979a.268.268,0,0,1,.214-.315l.241-.047a2.241,2.241,0,0,0,1.582-1.188,3.584,3.584,0,0,0,.259-2.48,3.132,3.132,0,0,0-.871-1.782,1.718,1.718,0,0,0-1.562-.393,1.623,1.623,0,0,0-1.008.563,3.169,3.169,0,0,0-.555,1.2,23.772,23.772,0,0,0-.444,2.347,25.171,25.171,0,0,1-.591,2.707,4.917,4.917,0,0,1-1.039,1.87,3.529,3.529,0,0,1-2.036,1.093,3.894,3.894,0,0,1-3.431-.849,6.366,6.366,0,0,1-1.946-3.768A7.686,7.686,0,0,1,1896.729,4142.409Z" transform="translate(-1577.681 -4005.742)" fill="#e7e5e1"/>
        <path id="Path_48" data-name="Path 48" d="M1914.686,4159.587l.2,2.052a.259.259,0,0,1-.059.2.264.264,0,0,1-.18.1l-15.078,1.486a.248.248,0,0,1-.2-.059.266.266,0,0,1-.1-.182l-.2-2.051a.256.256,0,0,1,.059-.2.248.248,0,0,1,.182-.1l10.638-1.05a.091.091,0,0,0,.084-.064c.011-.04-.006-.063-.053-.074l-4.556-2.366a.345.345,0,0,1-.208-.294l-.1-1.024a.346.346,0,0,1,.149-.33l3.981-3.231c.043-.02.056-.047.036-.084a.085.085,0,0,0-.094-.045l-10.616,1.046a.252.252,0,0,1-.2-.059.259.259,0,0,1-.1-.182l-.2-2.053a.265.265,0,0,1,.241-.292l15.078-1.489a.262.262,0,0,1,.2.059.271.271,0,0,1,.1.182l.2,2.052a.348.348,0,0,1-.146.33l-5.151,4.178a.149.149,0,0,0-.036.1.073.073,0,0,0,.051.06l5.868,3.092A.35.35,0,0,1,1914.686,4159.587Z" transform="translate(-1577.366 -4003.313)" fill="#e7e5e1"/>
        <path id="Path_49" data-name="Path 49" d="M1912.732,4173.865a.264.264,0,0,1-.08-.19l-.034-7.642a.1.1,0,0,0-.113-.113l-4.191.02a.1.1,0,0,0-.111.113l.024,5.132a.261.261,0,0,1-.077.19.27.27,0,0,1-.19.08l-1.7.007a.257.257,0,0,1-.191-.076.247.247,0,0,1-.079-.191l-.025-5.131c0-.076-.036-.112-.11-.111l-4.327.02a.1.1,0,0,0-.11.112l.036,7.641a.27.27,0,0,1-.08.191.254.254,0,0,1-.19.081l-1.7.009a.264.264,0,0,1-.19-.08.26.26,0,0,1-.08-.191l-.046-10.085a.255.255,0,0,1,.077-.188.262.262,0,0,1,.191-.08l15.149-.069a.273.273,0,0,1,.192.076.267.267,0,0,1,.077.19l.046,10.084a.27.27,0,0,1-.267.271l-1.7.008A.264.264,0,0,1,1912.732,4173.865Z" transform="translate(-1577.137 -4000.338)" fill="#e7e5e1"/>
        <path id="Path_50" data-name="Path 50" d="M1914.067,4184.534a.259.259,0,0,1,.063.2l-.177,2.054a.25.25,0,0,1-.1.183.262.262,0,0,1-.2.064l-15.093-1.3a.263.263,0,0,1-.183-.1.257.257,0,0,1-.063-.2l.171-1.987a.324.324,0,0,1,.206-.3l11.091-5.525c.047-.028.068-.055.064-.086s-.038-.048-.1-.052l-10.411-.85a.258.258,0,0,1-.182-.094.254.254,0,0,1-.062-.2l.177-2.054a.262.262,0,0,1,.092-.183.253.253,0,0,1,.2-.061l15.094,1.295a.254.254,0,0,1,.183.093.261.261,0,0,1,.064.2l-.172,1.988a.323.323,0,0,1-.2.3l-11.089,5.5c-.047.025-.07.053-.064.085s.038.047.1.053l10.408.87A.26.26,0,0,1,1914.067,4184.534Z" transform="translate(-1577.314 -3998.068)" fill="#e7e5e1"/>
        <path id="Path_51" data-name="Path 51" d="M1897.65,4191.871a4.766,4.766,0,0,1,2.212-1.554,5.358,5.358,0,0,1,2.841-.12l5.42,1.128a5.332,5.332,0,0,1,2.557,1.242,4.675,4.675,0,0,1,1.4,2.3,6.443,6.443,0,0,1,.034,3.028,6.585,6.585,0,0,1-1.211,2.747,4.641,4.641,0,0,1-2.135,1.571,5.008,5.008,0,0,1-2.733.142.255.255,0,0,1-.17-.116.263.263,0,0,1-.039-.2l.31-2.04c.038-.177.136-.247.3-.215a2.866,2.866,0,0,0,2.252-.367,3.377,3.377,0,0,0,.893-4.29,2.84,2.84,0,0,0-1.916-1.246l-5.594-1.164a2.813,2.813,0,0,0-2.231.384,3.4,3.4,0,0,0-.9,4.287,2.811,2.811,0,0,0,1.907,1.231c.16.035.223.139.186.314l-.507,2a.284.284,0,0,1-.1.175.2.2,0,0,1-.17.044,5.1,5.1,0,0,1-2.481-1.226,4.614,4.614,0,0,1-1.344-2.293,6.578,6.578,0,0,1-.017-3A6.377,6.377,0,0,1,1897.65,4191.871Z" transform="translate(-1577.755 -3994.684)" fill="#e7e5e1"/>
        <path id="Path_52" data-name="Path 52" d="M1895.192,4202.566a4.8,4.8,0,0,1,2.435-1.361,5.763,5.763,0,0,1,2.971.156l4.893,1.47a5.641,5.641,0,0,1,2.529,1.512,4.942,4.942,0,0,1,1.267,2.476,6.833,6.833,0,0,1-1.718,5.709,4.938,4.938,0,0,1-2.424,1.364,5.605,5.605,0,0,1-2.944-.137l-4.893-1.472a5.727,5.727,0,0,1-2.561-1.52,4.907,4.907,0,0,1-1.278-2.481,6.856,6.856,0,0,1,1.721-5.716Zm.816,5.721a3.164,3.164,0,0,0,1.966,1.48l5,1.506a3.194,3.194,0,0,0,2.477-.144,3.013,3.013,0,0,0,1.489-1.917,2.983,2.983,0,0,0-.19-2.4,3.2,3.2,0,0,0-1.987-1.485l-5-1.505a3.152,3.152,0,0,0-2.455.15,2.981,2.981,0,0,0-1.483,1.894A3.028,3.028,0,0,0,1896.009,4208.287Z" transform="translate(-1578.361 -3992.356)" fill="#e7e5e1"/>
        <path id="Path_53" data-name="Path 53" d="M1892.419,4211.151a.256.256,0,0,1,.206,0l14.085,5.575a.257.257,0,0,1,.149.144.262.262,0,0,1,0,.205l-.758,1.918a.268.268,0,0,1-.349.15l-12.149-4.81a.1.1,0,0,0-.145.063l-2.763,6.98a.256.256,0,0,1-.143.149.272.272,0,0,1-.207,0l-1.583-.627a.267.267,0,0,1-.151-.348l3.663-9.253A.259.259,0,0,1,1892.419,4211.151Z" transform="translate(-1579.37 -3990.231)" fill="#e7e5e1"/>
        <path id="Path_54" data-name="Path 54" d="M1888.661,4220.687a.263.263,0,0,1,.207.013l13.589,6.7a.27.27,0,0,1,.124.359l-.913,1.85a.264.264,0,0,1-.154.137.259.259,0,0,1-.206-.015l-11.719-5.776a.1.1,0,0,0-.15.052l-3.318,6.733a.267.267,0,0,1-.361.122l-1.528-.752a.272.272,0,0,1-.124-.36l4.4-8.926A.264.264,0,0,1,1888.661,4220.687Z" transform="translate(-1580.324 -3988.214)" fill="#e7e5e1"/>
        <path id="Path_55" data-name="Path 55" d="M1890.3,4245.788a.256.256,0,0,1,.031-.206l3.933-6.551a.1.1,0,0,0-.04-.152l-3.592-2.159a.1.1,0,0,0-.153.039l-2.645,4.4a.25.25,0,0,1-.164.125.257.257,0,0,1-.2-.03l-1.46-.878a.25.25,0,0,1-.124-.167.256.256,0,0,1,.03-.2l2.642-4.4a.1.1,0,0,0-.039-.155l-3.707-2.225a.1.1,0,0,0-.154.038l-3.935,6.551a.262.262,0,0,1-.165.125.268.268,0,0,1-.2-.031l-1.46-.877a.255.255,0,0,1-.122-.164.259.259,0,0,1,.03-.2l5.191-8.646a.272.272,0,0,1,.37-.091l12.987,7.8a.268.268,0,0,1,.093.37l-5.192,8.644a.254.254,0,0,1-.165.124.248.248,0,0,1-.2-.032l-1.462-.876A.26.26,0,0,1,1890.3,4245.788Z" transform="translate(-1581.448 -3986.267)" fill="#e7e5e1"/>
        <path id="Path_56" data-name="Path 56" d="M1877.451,4240.764a4.76,4.76,0,0,1,2.654-.515,5.34,5.34,0,0,1,2.64,1.053l4.485,3.245a5.359,5.359,0,0,1,1.827,2.179,4.689,4.689,0,0,1,.333,2.677,6.467,6.467,0,0,1-1.208,2.776,6.61,6.61,0,0,1-2.23,2.011,4.645,4.645,0,0,1-2.591.56,5,5,0,0,1-2.549-.988.256.256,0,0,1-.108-.174.265.265,0,0,1,.047-.2l1.119-1.736a.226.226,0,0,1,.356-.072,2.859,2.859,0,0,0,2.2.585,2.971,2.971,0,0,0,1.935-1.3,3.007,3.007,0,0,0,.635-2.252,2.84,2.84,0,0,0-1.239-1.92l-4.63-3.35a2.808,2.808,0,0,0-2.191-.564,3.394,3.394,0,0,0-2.576,3.543,2.812,2.812,0,0,0,1.234,1.9.23.23,0,0,1,.042.363l-1.281,1.617a.271.271,0,0,1-.166.115.211.211,0,0,1-.173-.027,5.117,5.117,0,0,1-1.762-2.134,4.611,4.611,0,0,1-.287-2.642,6.6,6.6,0,0,1,1.213-2.747A6.338,6.338,0,0,1,1877.451,4240.764Z" transform="translate(-1582.478 -3984.08)" fill="#e7e5e1"/>
        <path id="Path_57" data-name="Path 57" d="M1876.834,4265.285a.271.271,0,0,1-.2-.067l-1.308-1.126a.257.257,0,0,1-.092-.184.252.252,0,0,1,.063-.2l2.69-3.125a.1.1,0,0,0-.013-.158l-9.889-8.506a.258.258,0,0,1-.093-.184.268.268,0,0,1,.065-.2l1.345-1.562a.254.254,0,0,1,.184-.093.269.269,0,0,1,.2.063l9.887,8.506a.1.1,0,0,0,.159-.012l2.585-3.007a.251.251,0,0,1,.185-.092.254.254,0,0,1,.194.063l1.308,1.126a.267.267,0,0,1,.029.378l-7.118,8.275A.258.258,0,0,1,1876.834,4265.285Z" transform="translate(-1583.724 -3982.038)" fill="#e7e5e1"/>
        <path id="Path_58" data-name="Path 58" d="M1864.487,4255.584a.262.262,0,0,1,.193.075l10.865,10.555a.258.258,0,0,1,.083.19.252.252,0,0,1-.077.19l-1.436,1.48a.269.269,0,0,1-.19.082.274.274,0,0,1-.191-.077l-10.866-10.555a.251.251,0,0,1-.081-.19.258.258,0,0,1,.075-.19l1.437-1.48A.26.26,0,0,1,1864.487,4255.584Z" transform="translate(-1584.826 -3980.834)" fill="#e7e5e1"/>
        <path id="Path_59" data-name="Path 59" d="M1859.168,4261.073l13.668,8.051.077.05a.209.209,0,0,1-.033.333l-1.641,1.491a.3.3,0,0,1-.384.045l-10.354-6.4c-.04-.022-.073-.025-.094,0s-.023.052,0,.1l5.393,10.9a.3.3,0,0,1-.081.378l-1.609,1.461a.233.233,0,0,1-.211.068.231.231,0,0,1-.167-.149l-6.652-14.424a.283.283,0,0,1,.067-.362l1.658-1.506A.28.28,0,0,1,1859.168,4261.073Z" transform="translate(-1586.041 -3979.686)" fill="#e7e5e1"/>
        <path id="Path_60" data-name="Path 60" d="M1854.164,4283.177a.264.264,0,0,1,.1-.177l6.074-4.639a.1.1,0,0,0,.021-.157l-2.545-3.33a.1.1,0,0,0-.156-.022l-4.079,3.114a.252.252,0,0,1-.2.053.254.254,0,0,1-.178-.1l-1.033-1.353a.266.266,0,0,1-.053-.2.253.253,0,0,1,.1-.177l4.078-3.117a.1.1,0,0,0,.022-.156l-2.625-3.437a.1.1,0,0,0-.157-.022l-6.074,4.64a.267.267,0,0,1-.377-.051l-1.033-1.353a.253.253,0,0,1-.054-.2.263.263,0,0,1,.1-.179l8.014-6.12a.251.251,0,0,1,.2-.053.255.255,0,0,1,.177.1l9.2,12.04a.269.269,0,0,1-.05.378l-8.014,6.12a.256.256,0,0,1-.2.053.245.245,0,0,1-.177-.1l-1.036-1.353A.255.255,0,0,1,1854.164,4283.177Z" transform="translate(-1588.374 -3978.603)" fill="#e7e5e1"/>
        <path id="Path_61" data-name="Path 61" d="M1846.3,4278.1a.248.248,0,0,1,.164.124l.855,1.446a.253.253,0,0,1,.029.2.26.26,0,0,1-.124.165l-11.191,6.612a.266.266,0,0,1-.368-.095l-.854-1.447a.258.258,0,0,1-.03-.2.264.264,0,0,1,.125-.165l11.188-6.612A.264.264,0,0,1,1846.3,4278.1Z" transform="translate(-1590.746 -3976.076)" fill="#e7e5e1"/>
        <path id="Path_62" data-name="Path 62" d="M1829.466,4282.2a.261.261,0,0,1,.149.141l6.106,13.867a.261.261,0,0,1,0,.207.264.264,0,0,1-.143.149l-1.887.828a.248.248,0,0,1-.206.008.262.262,0,0,1-.149-.144l-2.7-6.132a.09.09,0,0,0-.077-.065.075.075,0,0,0-.073.059l-2.56,8.644a.425.425,0,0,1-.244.278l-2.133.94q-.205.089-.269-.055a.382.382,0,0,1-.01-.19l2.157-7.833a.125.125,0,0,0-.041-.151l-8.508-5.633a1.014,1.014,0,0,1-.1-.126c-.042-.1,0-.173.142-.233l2.154-.949a.351.351,0,0,1,.358.038l6.843,4.528c.091.059.14.044.153-.043l.74-2.432a.349.349,0,0,0-.022-.16l-1.914-4.349a.265.265,0,0,1,.137-.354l1.887-.833A.253.253,0,0,1,1829.466,4282.2Z" transform="translate(-1594.13 -3975.212)" fill="#e7e5e1"/>
        <path id="Path_63" data-name="Path 63" d="M1817.613,4286.575a.258.258,0,0,1,.139.152l5.231,14.219a.27.27,0,0,1-.007.206.287.287,0,0,1-.151.14l-1.936.712a.273.273,0,0,1-.206-.009.258.258,0,0,1-.139-.151l-5.229-14.218a.261.261,0,0,1,.007-.207.267.267,0,0,1,.151-.141l1.936-.711A.257.257,0,0,1,1817.613,4286.575Z" transform="translate(-1594.864 -3974.288)" fill="#e7e5e1"/>
        <path id="Path_64" data-name="Path 64" d="M1810.451,4305.684a.254.254,0,0,1-.16.128l-1.978.583a.273.273,0,0,1-.334-.184l-4.275-14.533a.256.256,0,0,1,.022-.2.265.265,0,0,1,.161-.128l1.914-.563a.32.32,0,0,1,.352.083l9.176,8.327c.04.035.075.042.1.027s.031-.052.015-.108l-2.991-10.006a.282.282,0,0,1,.021-.206.268.268,0,0,1,.161-.127l1.978-.582a.248.248,0,0,1,.206.02.255.255,0,0,1,.128.161l4.276,14.534a.259.259,0,0,1-.023.205.245.245,0,0,1-.16.129l-1.913.563a.326.326,0,0,1-.353-.085l-9.155-8.333c-.042-.033-.075-.044-.1-.028s-.034.051-.017.109l2.969,10.013A.252.252,0,0,1,1810.451,4305.684Z" transform="translate(-1597.317 -3973.944)" fill="#e7e5e1"/>
        <path id="Path_65" data-name="Path 65" d="M1801.059,4292.061a4.593,4.593,0,0,1,2.273,1.147,4.048,4.048,0,0,1,1.153,2.195l.109.55a.266.266,0,0,1-.211.314l-1.956.388a.257.257,0,0,1-.2-.039.268.268,0,0,1-.114-.173l-.083-.417a2.061,2.061,0,0,0-1.234-1.5,4.137,4.137,0,0,0-2.594-.182,3.124,3.124,0,0,0-1.909.973,1.868,1.868,0,0,0-.39,1.607,1.567,1.567,0,0,0,.579.971,3.563,3.563,0,0,0,1.222.568c.508.143,1.26.3,2.251.469a21.943,21.943,0,0,1,2.741.578,4.8,4.8,0,0,1,1.888,1.052,3.579,3.579,0,0,1,1.077,2.037,3.772,3.772,0,0,1-.8,3.335,5.966,5.966,0,0,1-3.539,1.866,7.114,7.114,0,0,1-3.025,0,4.712,4.712,0,0,1-2.283-1.2,4.147,4.147,0,0,1-1.173-2.224l-.073-.373a.268.268,0,0,1,.211-.315l1.979-.392a.252.252,0,0,1,.2.041.247.247,0,0,1,.114.168l.05.245a2.249,2.249,0,0,0,1.191,1.579,3.6,3.6,0,0,0,2.483.25,3.112,3.112,0,0,0,1.78-.878,1.718,1.718,0,0,0,.389-1.561,1.655,1.655,0,0,0-.566-1.008,3.224,3.224,0,0,0-1.205-.549q-.772-.2-2.349-.437a24.9,24.9,0,0,1-2.709-.584,4.855,4.855,0,0,1-1.872-1.033,3.485,3.485,0,0,1-1.1-2.031,3.874,3.874,0,0,1,.84-3.433,6.347,6.347,0,0,1,3.758-1.957A7.612,7.612,0,0,1,1801.059,4292.061Z" transform="translate(-1599.521 -3973.153)" fill="#e7e5e1"/>
        <path id="Path_66" data-name="Path 66" d="M1784.288,4310.07l-2.051.21a.26.26,0,0,1-.2-.059.268.268,0,0,1-.1-.182l-1.541-15.072a.264.264,0,0,1,.059-.2.25.25,0,0,1,.183-.1l2.049-.211a.254.254,0,0,1,.2.06.266.266,0,0,1,.1.18l1.088,10.636a.086.086,0,0,0,.063.083c.04.009.064-.006.074-.053l2.349-4.564a.347.347,0,0,1,.293-.211l1.027-.1a.348.348,0,0,1,.33.146l3.243,3.971c.021.044.048.055.085.037a.086.086,0,0,0,.046-.095l-1.084-10.61a.271.271,0,0,1,.24-.3l2.051-.208a.266.266,0,0,1,.3.241l1.541,15.068a.265.265,0,0,1-.059.2.254.254,0,0,1-.183.1l-2.051.209a.355.355,0,0,1-.331-.145l-4.2-5.137a.135.135,0,0,0-.1-.035.068.068,0,0,0-.061.051l-3.071,5.877A.351.351,0,0,1,1784.288,4310.07Z" transform="translate(-1602.241 -3972.834)" fill="#e7e5e1"/>
        <path id="Path_67" data-name="Path 67" d="M1769.392,4308.165a.26.26,0,0,1,.19-.079l7.641-.062a.1.1,0,0,0,.112-.112l-.034-4.19a.1.1,0,0,0-.113-.111l-5.131.04a.269.269,0,0,1-.273-.266l-.013-1.7a.269.269,0,0,1,.268-.271l5.13-.042a.1.1,0,0,0,.111-.113l-.033-4.324c0-.075-.039-.113-.114-.111l-7.643.061a.262.262,0,0,1-.19-.078.253.253,0,0,1-.079-.189l-.015-1.7a.268.268,0,0,1,.076-.193.262.262,0,0,1,.191-.08l10.083-.079a.263.263,0,0,1,.191.077.268.268,0,0,1,.081.188l.12,15.15a.254.254,0,0,1-.078.191.265.265,0,0,1-.19.08l-10.083.082a.267.267,0,0,1-.271-.268l-.013-1.7A.259.259,0,0,1,1769.392,4308.165Z" transform="translate(-1604.606 -3972.595)" fill="#e7e5e1"/>
        <path id="Path_68" data-name="Path 68" d="M1759.115,4309.53a.259.259,0,0,1-.2.062l-2.057-.17a.255.255,0,0,1-.182-.093.26.26,0,0,1-.063-.2l1.244-15.1a.27.27,0,0,1,.291-.246l1.989.165a.319.319,0,0,1,.3.2l5.564,11.071c.027.047.055.069.085.063s.049-.037.053-.1l.81-10.411a.272.272,0,0,1,.1-.184.26.26,0,0,1,.2-.062l2.056.168a.258.258,0,0,1,.182.1.253.253,0,0,1,.063.2l-1.243,15.1a.265.265,0,0,1-.094.183.258.258,0,0,1-.2.063l-1.988-.163a.32.32,0,0,1-.3-.206l-5.541-11.07c-.027-.046-.055-.069-.086-.064s-.047.039-.052.1l-.835,10.409A.263.263,0,0,1,1759.115,4309.53Z" transform="translate(-1607.268 -3972.758)" fill="#e7e5e1"/>
        <path id="Path_69" data-name="Path 69" d="M1751.626,4293.141a4.743,4.743,0,0,1,1.562,2.208,5.341,5.341,0,0,1,.131,2.839l-1.109,5.422a5.35,5.35,0,0,1-1.234,2.561,4.7,4.7,0,0,1-2.3,1.406,6.431,6.431,0,0,1-3.029.044,6.557,6.557,0,0,1-2.752-1.2,4.635,4.635,0,0,1-1.576-2.128,4.983,4.983,0,0,1-.152-2.73.266.266,0,0,1,.318-.209l2.042.3c.176.035.249.133.214.295a2.856,2.856,0,0,0,.375,2.25,2.977,2.977,0,0,0,1.979,1.229,3.014,3.014,0,0,0,2.314-.352,2.824,2.824,0,0,0,1.238-1.919l1.146-5.6a2.822,2.822,0,0,0-.39-2.231,3.4,3.4,0,0,0-4.292-.889,2.833,2.833,0,0,0-1.226,1.912q-.047.242-.312.188l-2-.5a.288.288,0,0,1-.173-.1.2.2,0,0,1-.045-.17,5.074,5.074,0,0,1,1.216-2.483,4.6,4.6,0,0,1,2.291-1.351,6.519,6.519,0,0,1,3-.028A6.308,6.308,0,0,1,1751.626,4293.141Z" transform="translate(-1610.559 -3973.19)" fill="#e7e5e1"/>
        <path id="Path_70" data-name="Path 70" d="M1741.016,4290.717a4.832,4.832,0,0,1,1.369,2.43,5.784,5.784,0,0,1-.148,2.973l-1.456,4.9a5.613,5.613,0,0,1-1.5,2.535,4.936,4.936,0,0,1-2.471,1.276,6.846,6.846,0,0,1-5.715-1.7,4.941,4.941,0,0,1-1.372-2.418,5.6,5.6,0,0,1,.127-2.943l1.455-4.9a5.718,5.718,0,0,1,1.512-2.566,4.9,4.9,0,0,1,2.475-1.288,6.885,6.885,0,0,1,5.726,1.7Zm-5.721.837a3.169,3.169,0,0,0-1.473,1.97l-1.488,5.006a3.19,3.19,0,0,0,.151,2.477,3.031,3.031,0,0,0,1.919,1.483,3,3,0,0,0,2.4-.2,3.209,3.209,0,0,0,1.482-1.991l1.488-5.006a3.172,3.172,0,0,0-.159-2.457,3.341,3.341,0,0,0-4.319-1.282Z" transform="translate(-1612.983 -3973.79)" fill="#e7e5e1"/>
        <path id="Path_71" data-name="Path 71" d="M1731.982,4287.97a.252.252,0,0,1,0,.206l-5.528,14.105a.259.259,0,0,1-.142.148.254.254,0,0,1-.206,0l-1.921-.752a.262.262,0,0,1-.146-.144.258.258,0,0,1,0-.206l4.769-12.165a.1.1,0,0,0-.064-.145l-6.99-2.741a.266.266,0,0,1-.151-.348l.62-1.586a.255.255,0,0,1,.144-.147.251.251,0,0,1,.2,0l9.266,3.629A.261.261,0,0,1,1731.982,4287.97Z" transform="translate(-1614.674 -3974.79)" fill="#e7e5e1"/>
        <path id="Path_72" data-name="Path 72" d="M1722.38,4284.239a.261.261,0,0,1-.013.207l-6.653,13.61a.274.274,0,0,1-.155.137.263.263,0,0,1-.2-.013l-1.852-.906a.264.264,0,0,1-.124-.359l5.739-11.736a.1.1,0,0,0-.052-.151l-6.744-3.3a.245.245,0,0,1-.137-.153.263.263,0,0,1,.013-.207l.747-1.53a.267.267,0,0,1,.155-.137.263.263,0,0,1,.2.015l8.939,4.37A.26.26,0,0,1,1722.38,4284.239Z" transform="translate(-1616.664 -3975.739)" fill="#e7e5e1"/>
        <path id="Path_73" data-name="Path 73" d="M1698.482,4285.97a.25.25,0,0,1,.2.031l6.566,3.909a.1.1,0,0,0,.153-.038l2.146-3.6a.1.1,0,0,0-.04-.154l-4.408-2.627a.256.256,0,0,1-.124-.163.268.268,0,0,1,.029-.2l.873-1.463a.249.249,0,0,1,.166-.123.263.263,0,0,1,.2.028l4.407,2.626a.1.1,0,0,0,.154-.037l2.213-3.715a.1.1,0,0,0-.039-.153l-6.564-3.913a.253.253,0,0,1-.122-.163.263.263,0,0,1,.029-.2l.871-1.462a.265.265,0,0,1,.166-.125.261.261,0,0,1,.2.029l8.664,5.163a.249.249,0,0,1,.122.165.26.26,0,0,1-.029.2l-7.754,13.014a.265.265,0,0,1-.37.093l-8.664-5.163a.263.263,0,0,1-.124-.163.26.26,0,0,1,.03-.2l.871-1.464A.266.266,0,0,1,1698.482,4285.97Z" transform="translate(-1619.784 -3976.855)" fill="#e7e5e1"/>
        <path id="Path_74" data-name="Path 74" d="M1703.021,4273.094a4.745,4.745,0,0,1,.523,2.652,5.353,5.353,0,0,1-1.046,2.643l-3.23,4.5a5.356,5.356,0,0,1-2.172,1.831,4.7,4.7,0,0,1-2.675.343,6.461,6.461,0,0,1-2.78-1.2,6.56,6.56,0,0,1-2.018-2.224,4.626,4.626,0,0,1-.568-2.587,4.978,4.978,0,0,1,.979-2.554.253.253,0,0,1,.176-.109.269.269,0,0,1,.2.047l1.739,1.112a.228.228,0,0,1,.074.358,2.863,2.863,0,0,0-.579,2.205,3.382,3.382,0,0,0,3.559,2.557,2.832,2.832,0,0,0,1.917-1.244l3.335-4.641a2.807,2.807,0,0,0,.556-2.195,3.4,3.4,0,0,0-3.552-2.566,2.816,2.816,0,0,0-1.9,1.243.23.23,0,0,1-.364.042l-1.622-1.274a.287.287,0,0,1-.115-.167.209.209,0,0,1,.029-.174,5.111,5.111,0,0,1,2.127-1.77,4.609,4.609,0,0,1,2.641-.295,6.57,6.57,0,0,1,2.75,1.2A6.332,6.332,0,0,1,1703.021,4273.094Z" transform="translate(-1621.552 -3977.881)" fill="#e7e5e1"/>
        <path id="Path_75" data-name="Path 75" d="M1678.649,4272.56a.276.276,0,0,1,.064-.2l1.122-1.311a.267.267,0,0,1,.379-.03l3.135,2.679a.1.1,0,0,0,.157-.013l8.474-9.917a.275.275,0,0,1,.38-.03l1.568,1.341a.261.261,0,0,1,.093.183.265.265,0,0,1-.064.195l-8.474,9.917a.1.1,0,0,0,.013.159l3.014,2.577a.252.252,0,0,1,.094.183.26.26,0,0,1-.064.2l-1.12,1.31a.242.242,0,0,1-.183.094.259.259,0,0,1-.2-.063l-8.3-7.09A.263.263,0,0,1,1678.649,4272.56Z" transform="translate(-1623.749 -3979.123)" fill="#e7e5e1"/>
        <path id="Path_76" data-name="Path 76" d="M1687.834,4260.2a.253.253,0,0,1-.076.191l-10.517,10.9a.256.256,0,0,1-.188.082.259.259,0,0,1-.193-.076l-1.484-1.429a.274.274,0,0,1-.007-.381l10.517-10.905a.257.257,0,0,1,.189-.08.261.261,0,0,1,.193.074l1.483,1.432A.25.25,0,0,1,1687.834,4260.2Z" transform="translate(-1624.458 -3980.216)" fill="#e7e5e1"/>
        <path id="Path_77" data-name="Path 77" d="M1683,4254.883,1675,4268.577l-.051.078q-.163.151-.331-.031l-1.5-1.637a.294.294,0,0,1-.045-.383l6.363-10.375c.024-.04.027-.073,0-.095s-.051-.024-.093,0l-10.888,5.43a.293.293,0,0,1-.377-.08l-1.467-1.6a.241.241,0,0,1-.07-.209.232.232,0,0,1,.151-.168l14.4-6.7a.278.278,0,0,1,.361.064l1.512,1.654A.28.28,0,0,1,1683,4254.883Z" transform="translate(-1626.308 -3981.431)" fill="#e7e5e1"/>
        <path id="Path_78" data-name="Path 78" d="M1661.249,4249.932a.267.267,0,0,1,.179.1l4.658,6.058a.1.1,0,0,0,.157.022l3.322-2.557a.1.1,0,0,0,.022-.154l-3.128-4.069a.262.262,0,0,1-.056-.2.271.271,0,0,1,.1-.178l1.349-1.037a.272.272,0,0,1,.2-.054.275.275,0,0,1,.18.1l3.128,4.067a.1.1,0,0,0,.155.02l3.43-2.636a.1.1,0,0,0,.021-.159l-4.659-6.057a.271.271,0,0,1,.05-.377l1.352-1.04a.253.253,0,0,1,.2-.052.246.246,0,0,1,.177.1l6.146,8a.255.255,0,0,1,.054.2.247.247,0,0,1-.1.177l-12.011,9.234a.246.246,0,0,1-.2.054.239.239,0,0,1-.177-.1l-6.147-7.993a.268.268,0,0,1,.049-.378l1.35-1.038A.268.268,0,0,1,1661.249,4249.932Z" transform="translate(-1627.777 -3983.761)" fill="#e7e5e1"/>
        <path id="Path_79" data-name="Path 79" d="M1664.561,4242.085a.261.261,0,0,1-.124.165l-1.444.859a.252.252,0,0,1-.2.03.257.257,0,0,1-.165-.122l-6.651-11.169a.265.265,0,0,1-.03-.2.261.261,0,0,1,.125-.165l1.443-.859a.264.264,0,0,1,.2-.033.26.26,0,0,1,.163.125l6.651,11.168A.26.26,0,0,1,1664.561,4242.085Z" transform="translate(-1628.551 -3986.12)" fill="#e7e5e1"/>
        <path id="Path_80" data-name="Path 80" d="M1662.188,4225.264a.247.247,0,0,1-.142.149l-13.844,6.154a.256.256,0,0,1-.206,0,.267.267,0,0,1-.149-.141l-.837-1.884a.261.261,0,0,1,0-.207.256.256,0,0,1,.142-.148l6.124-2.722a.1.1,0,0,0,.064-.078.075.075,0,0,0-.058-.073l-8.653-2.53a.425.425,0,0,1-.28-.244l-.946-2.128c-.062-.137-.044-.228.052-.269a.357.357,0,0,1,.191-.013l7.838,2.134c.074.016.124,0,.151-.043l5.6-8.524a.868.868,0,0,1,.126-.1c.094-.042.174.006.234.142l.956,2.147a.349.349,0,0,1-.036.36l-4.505,6.859q-.087.138.044.152l2.434.733a.363.363,0,0,0,.162-.023l4.342-1.928a.27.27,0,0,1,.355.135l.837,1.884A.244.244,0,0,1,1662.188,4225.264Z" transform="translate(-1631.208 -3989.5)" fill="#e7e5e1"/>
        <path id="Path_81" data-name="Path 81" d="M1657.186,4213.425a.252.252,0,0,1-.151.141l-14.2,5.277a.257.257,0,0,1-.206-.008.259.259,0,0,1-.14-.152l-.716-1.931a.267.267,0,0,1,.156-.347l14.2-5.277a.263.263,0,0,1,.207.007.255.255,0,0,1,.141.151l.717,1.934A.246.246,0,0,1,1657.186,4213.425Z" transform="translate(-1631.548 -3990.235)" fill="#e7e5e1"/>
        <path id="Path_82" data-name="Path 82" d="M1638.535,4206.32a.244.244,0,0,1-.128-.159l-.59-1.977a.263.263,0,0,1,.022-.205.25.25,0,0,1,.16-.128l14.518-4.325a.256.256,0,0,1,.206.021.26.26,0,0,1,.131.16l.567,1.911a.319.319,0,0,1-.081.352l-8.3,9.205c-.034.041-.042.075-.027.1s.052.028.11.012l10-3.023a.269.269,0,0,1,.334.182l.588,1.976a.249.249,0,0,1-.019.2.271.271,0,0,1-.161.132l-14.518,4.322a.269.269,0,0,1-.336-.181l-.569-1.911a.318.318,0,0,1,.084-.352l8.3-9.184c.036-.043.045-.074.029-.1s-.052-.031-.109-.015l-10,3A.251.251,0,0,1,1638.535,4206.32Z" transform="translate(-1632.383 -3992.686)" fill="#e7e5e1"/>
        <path id="Path_83" data-name="Path 83" d="M1651.748,4196.9a4.6,4.6,0,0,1-1.141,2.276,4.035,4.035,0,0,1-2.189,1.16l-.549.111a.253.253,0,0,1-.2-.039.261.261,0,0,1-.115-.171l-.4-1.954a.271.271,0,0,1,.21-.318l.419-.085a2.054,2.054,0,0,0,1.5-1.238,4.1,4.1,0,0,0,.175-2.6,3.145,3.145,0,0,0-.979-1.906,1.875,1.875,0,0,0-1.609-.384,1.577,1.577,0,0,0-.969.585,3.547,3.547,0,0,0-.563,1.221,22.727,22.727,0,0,0-.459,2.253,22.675,22.675,0,0,1-.568,2.745,4.852,4.852,0,0,1-1.047,1.893,3.58,3.58,0,0,1-2.034,1.084,3.773,3.773,0,0,1-3.337-.79,5.978,5.978,0,0,1-1.878-3.531,7.132,7.132,0,0,1-.016-3.024,4.722,4.722,0,0,1,1.194-2.288,4.159,4.159,0,0,1,2.222-1.182l.374-.074a.254.254,0,0,1,.2.039.258.258,0,0,1,.114.171l.4,1.977a.258.258,0,0,1-.039.2.272.272,0,0,1-.171.115l-.242.048a2.244,2.244,0,0,0-1.575,1.2,3.589,3.589,0,0,0-.243,2.484,3.123,3.123,0,0,0,.884,1.777,1.718,1.718,0,0,0,1.564.381,1.647,1.647,0,0,0,1.005-.569,3.2,3.2,0,0,0,.544-1.205,23.759,23.759,0,0,0,.431-2.353,24.965,24.965,0,0,1,.572-2.709,4.93,4.93,0,0,1,1.027-1.876,3.512,3.512,0,0,1,2.03-1.106,3.882,3.882,0,0,1,3.435.828,6.352,6.352,0,0,1,1.969,3.752A7.653,7.653,0,0,1,1651.748,4196.9Z" transform="translate(-1632.797 -3994.882)" fill="#e7e5e1"/>
        <path id="Path_84" data-name="Path 84" d="M1633.82,4180.133l-.216-2.048a.27.27,0,0,1,.058-.2.257.257,0,0,1,.182-.1l15.066-1.587a.244.244,0,0,1,.2.058.252.252,0,0,1,.1.182l.216,2.05a.266.266,0,0,1-.239.3l-10.631,1.119a.093.093,0,0,0-.085.066c-.01.039.008.064.054.073l4.573,2.335a.351.351,0,0,1,.209.295l.108,1.025a.343.343,0,0,1-.146.33l-3.961,3.257c-.044.021-.055.048-.036.082a.085.085,0,0,0,.094.046l10.609-1.118a.268.268,0,0,1,.2.059.262.262,0,0,1,.1.181l.217,2.052a.266.266,0,0,1-.24.294l-15.065,1.587a.266.266,0,0,1-.3-.238l-.217-2.051a.36.36,0,0,1,.148-.332l5.122-4.211a.124.124,0,0,0,.034-.094.07.07,0,0,0-.051-.062l-5.888-3.054A.353.353,0,0,1,1633.82,4180.133Z" transform="translate(-1633.271 -3997.614)" fill="#e7e5e1"/>
        <path id="Path_85" data-name="Path 85" d="M1635.49,4165.23a.262.262,0,0,1,.081.19l.083,7.64a.1.1,0,0,0,.114.11l4.19-.045a.1.1,0,0,0,.111-.113l-.057-5.132a.252.252,0,0,1,.075-.191.262.262,0,0,1,.189-.082l1.7-.018a.268.268,0,0,1,.191.076.261.261,0,0,1,.08.189l.057,5.133a.1.1,0,0,0,.114.11l4.324-.049a.1.1,0,0,0,.11-.112l-.084-7.643a.257.257,0,0,1,.076-.19.254.254,0,0,1,.19-.08l1.7-.019a.263.263,0,0,1,.271.266l.112,10.083a.267.267,0,0,1-.265.271l-15.148.169a.265.265,0,0,1-.272-.269l-.112-10.083a.268.268,0,0,1,.078-.191.259.259,0,0,1,.19-.079l1.7-.02A.257.257,0,0,1,1635.49,4165.23Z" transform="translate(-1633.329 -3999.98)" fill="#e7e5e1"/>
        <path id="Path_86" data-name="Path 86" d="M1634.224,4154.972a.251.251,0,0,1-.064-.2l.163-2.054a.263.263,0,0,1,.288-.248l15.1,1.2a.257.257,0,0,1,.184.092.266.266,0,0,1,.063.2l-.157,1.986a.321.321,0,0,1-.2.3l-11.054,5.6c-.047.025-.068.053-.063.083s.038.048.1.054l10.414.778a.274.274,0,0,1,.184.093.258.258,0,0,1,.062.2l-.162,2.055a.265.265,0,0,1-.29.246l-15.1-1.2a.27.27,0,0,1-.186-.094.26.26,0,0,1-.062-.2l.156-1.988a.323.323,0,0,1,.2-.3l11.054-5.575c.045-.028.069-.055.062-.087s-.036-.047-.1-.052l-10.412-.8A.261.261,0,0,1,1634.224,4154.972Z" transform="translate(-1633.306 -4002.63)" fill="#e7e5e1"/>
        <path id="Path_87" data-name="Path 87" d="M1650.5,4147.409a4.749,4.749,0,0,1-2.2,1.568,5.381,5.381,0,0,1-2.839.139l-5.425-1.094a5.384,5.384,0,0,1-2.568-1.226,4.7,4.7,0,0,1-1.411-2.295,6.451,6.451,0,0,1-.053-3.029,6.56,6.56,0,0,1,1.2-2.753,4.607,4.607,0,0,1,2.125-1.583,4.99,4.99,0,0,1,2.729-.161.26.26,0,0,1,.171.114.266.266,0,0,1,.039.2l-.3,2.044q-.053.264-.294.214a2.863,2.863,0,0,0-2.248.383,2.984,2.984,0,0,0-1.224,1.982,3.014,3.014,0,0,0,.357,2.312,2.849,2.849,0,0,0,1.925,1.235l5.6,1.127a2.82,2.82,0,0,0,2.229-.4,3.4,3.4,0,0,0,.875-4.292,2.81,2.81,0,0,0-1.915-1.22c-.161-.034-.223-.139-.188-.312l.5-2a.277.277,0,0,1,.1-.176.2.2,0,0,1,.171-.045,5.074,5.074,0,0,1,2.488,1.209,4.617,4.617,0,0,1,1.357,2.284,6.574,6.574,0,0,1,.036,3A6.361,6.361,0,0,1,1650.5,4147.409Z" transform="translate(-1632.796 -4005.931)" fill="#e7e5e1"/>
        <path id="Path_88" data-name="Path 88" d="M1652.889,4136.813a4.838,4.838,0,0,1-2.427,1.379,5.815,5.815,0,0,1-2.973-.14l-4.9-1.44a5.6,5.6,0,0,1-2.538-1.494,4.943,4.943,0,0,1-1.285-2.467,6.848,6.848,0,0,1,1.681-5.719,4.956,4.956,0,0,1,2.415-1.384,5.653,5.653,0,0,1,2.945.12l4.9,1.44a5.678,5.678,0,0,1,2.571,1.5,4.894,4.894,0,0,1,1.294,2.468,6.86,6.86,0,0,1-1.682,5.731Zm-.854-5.717a3.161,3.161,0,0,0-1.976-1.468l-5.009-1.473a3.182,3.182,0,0,0-2.476.162,3.337,3.337,0,0,0-1.271,4.319,3.2,3.2,0,0,0,2,1.475l5.01,1.473a3.184,3.184,0,0,0,2.455-.166,2.99,2.99,0,0,0,1.469-1.9A3.023,3.023,0,0,0,1652.035,4131.1Z" transform="translate(-1632.203 -4008.352)" fill="#e7e5e1"/>
        <path id="Path_89" data-name="Path 89" d="M1656,4127.776a.266.266,0,0,1-.206,0l-14.121-5.484a.27.27,0,0,1-.154-.349l.746-1.921a.264.264,0,0,1,.348-.153l12.181,4.729a.1.1,0,0,0,.145-.065l2.717-7a.252.252,0,0,1,.142-.148.256.256,0,0,1,.206,0l1.588.617a.266.266,0,0,1,.153.348l-3.6,9.275A.252.252,0,0,1,1656,4127.776Z" transform="translate(-1631.602 -4010.051)" fill="#e7e5e1"/>
        <path id="Path_90" data-name="Path 90" d="M1659.745,4118.164a.266.266,0,0,1-.206-.013l-13.63-6.61a.268.268,0,0,1-.125-.358l.9-1.856a.266.266,0,0,1,.154-.137.258.258,0,0,1,.2.012l11.756,5.7a.1.1,0,0,0,.15-.052l3.277-6.757a.263.263,0,0,1,.154-.135.249.249,0,0,1,.2.013l1.535.743a.242.242,0,0,1,.135.154.254.254,0,0,1-.01.206l-4.343,8.954A.269.269,0,0,1,1659.745,4118.164Z" transform="translate(-1630.702 -4012.043)" fill="#e7e5e1"/>
        <path id="Path_91" data-name="Path 91" d="M1657.984,4094.243a.255.255,0,0,1-.029.205l-3.891,6.575a.1.1,0,0,0,.037.154l3.609,2.136a.1.1,0,0,0,.154-.041l2.613-4.417a.251.251,0,0,1,.165-.123.264.264,0,0,1,.2.028l1.465.87a.258.258,0,0,1,.125.164.265.265,0,0,1-.029.2l-2.614,4.416a.1.1,0,0,0,.039.154l3.723,2.2a.1.1,0,0,0,.153-.039l3.893-6.575a.264.264,0,0,1,.165-.125.258.258,0,0,1,.2.029l1.466.869a.256.256,0,0,1,.125.165.264.264,0,0,1-.028.2l-5.138,8.679a.264.264,0,0,1-.165.124.257.257,0,0,1-.2-.03l-13.038-7.715a.262.262,0,0,1-.125-.165.265.265,0,0,1,.031-.2l5.134-8.678a.262.262,0,0,1,.166-.125.266.266,0,0,1,.2.029l1.466.868A.259.259,0,0,1,1657.984,4094.243Z" transform="translate(-1629.625 -4015.165)" fill="#e7e5e1"/>
        <path id="Path_92" data-name="Path 92" d="M1670.31,4098.766a4.762,4.762,0,0,1-2.651.532,5.375,5.375,0,0,1-2.647-1.036l-4.506-3.218a5.353,5.353,0,0,1-1.838-2.167,4.66,4.66,0,0,1-.351-2.671,6.43,6.43,0,0,1,1.19-2.786,6.565,6.565,0,0,1,2.218-2.026,4.643,4.643,0,0,1,2.585-.577,5.015,5.015,0,0,1,2.556.971.273.273,0,0,1,.064.376l-1.107,1.743a.23.23,0,0,1-.357.076,2.857,2.857,0,0,0-2.208-.573,2.972,2.972,0,0,0-1.926,1.31,3.006,3.006,0,0,0-.619,2.257,2.833,2.833,0,0,0,1.25,1.912l4.651,3.32a2.812,2.812,0,0,0,2.2.55,3.4,3.4,0,0,0,2.552-3.559,2.81,2.81,0,0,0-1.247-1.9.228.228,0,0,1-.045-.362l1.271-1.627a.29.29,0,0,1,.165-.117.209.209,0,0,1,.173.028,5.087,5.087,0,0,1,1.776,2.122,4.607,4.607,0,0,1,.3,2.64,6.556,6.556,0,0,1-1.194,2.753A6.356,6.356,0,0,1,1670.31,4098.766Z" transform="translate(-1628.059 -4016.933)" fill="#e7e5e1"/>
        <path id="Path_93" data-name="Path 93" d="M1670.858,4074.416a.263.263,0,0,1,.2.064l1.316,1.117a.257.257,0,0,1,.094.183.252.252,0,0,1-.064.2l-2.667,3.145a.1.1,0,0,0,.013.156l9.944,8.441a.269.269,0,0,1,.031.379l-1.334,1.571a.268.268,0,0,1-.378.031l-9.947-8.44a.1.1,0,0,0-.157.012l-2.567,3.025a.247.247,0,0,1-.183.095.254.254,0,0,1-.2-.062l-1.317-1.117a.254.254,0,0,1-.093-.183.264.264,0,0,1,.063-.2l7.062-8.321A.258.258,0,0,1,1670.858,4074.416Z" transform="translate(-1626.941 -4019.13)" fill="#e7e5e1"/>
        <path id="Path_94" data-name="Path 94" d="M1682.7,4083.523a.267.267,0,0,1-.193-.076l-10.935-10.482a.264.264,0,0,1-.084-.189.26.26,0,0,1,.076-.192l1.426-1.489a.27.27,0,0,1,.38-.006l10.937,10.482a.267.267,0,0,1,.083.189.255.255,0,0,1-.076.191l-1.427,1.489A.254.254,0,0,1,1682.7,4083.523Z" transform="translate(-1625.263 -4019.849)" fill="#e7e5e1"/>
        <path id="Path_95" data-name="Path 95" d="M1688.521,4078.7l-13.724-7.96-.078-.051a.21.21,0,0,1,.029-.333l1.634-1.5a.292.292,0,0,1,.381-.047l10.4,6.332c.04.022.073.023.095,0s.023-.053,0-.1l-5.466-10.87a.3.3,0,0,1,.08-.377l1.6-1.472a.221.221,0,0,1,.375.079l6.747,14.38a.281.281,0,0,1-.063.362l-1.65,1.517A.276.276,0,0,1,1688.521,4078.7Z" transform="translate(-1624.594 -4021.701)" fill="#e7e5e1"/>
        <path id="Path_96" data-name="Path 96" d="M1693.708,4056.929a.258.258,0,0,1-.1.178l-6.042,4.677a.1.1,0,0,0-.019.158l2.564,3.314a.1.1,0,0,0,.157.021l4.059-3.143a.26.26,0,0,1,.2-.053.251.251,0,0,1,.178.1l1.044,1.346a.266.266,0,0,1,.054.2.263.263,0,0,1-.1.178l-4.059,3.142a.1.1,0,0,0-.02.157l2.648,3.421a.1.1,0,0,0,.157.021l6.042-4.68a.252.252,0,0,1,.2-.053.258.258,0,0,1,.179.1l1.042,1.346a.265.265,0,0,1,.056.2.255.255,0,0,1-.1.178l-7.975,6.175a.259.259,0,0,1-.2.053.264.264,0,0,1-.18-.1l-9.273-11.979a.258.258,0,0,1-.055-.2.252.252,0,0,1,.1-.177l7.974-6.174a.256.256,0,0,1,.2-.055.262.262,0,0,1,.18.1l1.041,1.347A.246.246,0,0,1,1693.708,4056.929Z" transform="translate(-1622.585 -4023.175)" fill="#e7e5e1"/>
        <path id="Path_97" data-name="Path 97" d="M1700.676,4060.207a.255.255,0,0,1-.165-.123l-.865-1.441a.255.255,0,0,1-.03-.2.249.249,0,0,1,.124-.165l11.146-6.686a.265.265,0,0,1,.2-.031.258.258,0,0,1,.166.123l.865,1.441a.269.269,0,0,1-.094.369l-11.146,6.687A.263.263,0,0,1,1700.676,4060.207Z" transform="translate(-1619.319 -4023.963)" fill="#e7e5e1"/>
      </g>
    </g>
  </g>
</svg>
