<svg xmlns="http://www.w3.org/2000/svg" xmlns:xlink="http://www.w3.org/1999/xlink" viewBox="0 0 1188 300"><defs><style>.cls-1,.cls-10,.cls-13,.cls-20,.cls-5,.cls-7{fill:none;}.cls-2{clip-path:url(#clip-path);}.cls-3{fill:#0abf53;}.cls-14,.cls-19,.cls-4,.cls-9{fill:#fff;}.cls-10,.cls-11,.cls-12,.cls-14,.cls-15,.cls-17,.cls-18,.cls-19,.cls-20,.cls-5,.cls-9{stroke:#00112e;}.cls-10,.cls-11,.cls-12,.cls-13,.cls-15,.cls-17,.cls-18,.cls-19,.cls-20,.cls-5,.cls-7,.cls-9{stroke-linecap:round;}.cls-10,.cls-11,.cls-12,.cls-13,.cls-14,.cls-15,.cls-17,.cls-18,.cls-19,.cls-20,.cls-5,.cls-7,.cls-9{stroke-linejoin:round;}.cls-10,.cls-11,.cls-12,.cls-13,.cls-14,.cls-15,.cls-5,.cls-6,.cls-7,.cls-9{stroke-width:0.87px;}.cls-6{fill:#00112c;stroke:#00112c;stroke-miterlimit:10;}.cls-7{stroke:#fff;}.cls-12,.cls-18,.cls-8{fill:#00c341;}.cls-10{stroke-dasharray:0 4.22;}.cls-11,.cls-16,.cls-17{fill:#00112e;}.cls-13{stroke:#00c341;}.cls-15{fill:#f1f5f8;}.cls-17,.cls-18,.cls-19,.cls-20{stroke-width:1.21px;}.cls-21{clip-path:url(#clip-path-2);}</style><clipPath id="clip-path"><rect class="cls-1" width="1188" height="300"/></clipPath><clipPath id="clip-path-2"><rect class="cls-1" x="1351.52" width="983" height="300"/></clipPath></defs><g id="Layer_1" data-name="Layer 1"><g class="cls-2"><rect class="cls-3" x="-196.38" y="-58.09" width="1578.18" height="403.59"/><path class="cls-4" d="M434.73,41.09H302.32a11.61,11.61,0,0,0-11.61,11.62v206H446.34v-206A11.61,11.61,0,0,0,434.73,41.09Z"/><path class="cls-5" d="M434.73,41.09H302.32a11.61,11.61,0,0,0-11.61,11.62v206H446.34v-206A11.61,11.61,0,0,0,434.73,41.09Z"/><path class="cls-6" d="M302.32,258.33h132.4a11.62,11.62,0,0,1,11.62,11.62v0a0,0,0,0,1,0,0H290.71a0,0,0,0,1,0,0v0a11.62,11.62,0,0,1,11.62-11.62Z" transform="translate(737.05 528.28) rotate(-180)"/><path class="cls-6" d="M302.32,41.09h132.4a11.62,11.62,0,0,1,11.62,11.62v0a0,0,0,0,1,0,0H290.71a0,0,0,0,1,0,0v0A11.62,11.62,0,0,1,302.32,41.09Z"/><path class="cls-7" d="M371.74,264.14a3.22,3.22,0,0,1-6.43,0,3.22,3.22,0,1,1,6.43,0Z"/><circle class="cls-4" cx="368.53" cy="46.9" r="0.77"/><circle class="cls-8" cx="369.31" cy="87.47" r="15.28"/><polyline class="cls-7" points="362.99 86.91 367.58 91.49 375.63 83.44"/><rect class="cls-9" x="306.97" y="204.63" width="122.75" height="35.9"/><path class="cls-8" d="M410.12,214.05h0a6.56,6.56,0,0,0-.15,8.42h0a21.68,21.68,0,0,1,4.07,8.07l.72,2.71.71-2.71a21.68,21.68,0,0,1,4.07-8.07h0a6.56,6.56,0,0,0-.15-8.42h0A6.14,6.14,0,0,0,410.12,214.05Z"/><ellipse class="cls-4" cx="414.76" cy="218.2" rx="1.9" ry="1.96"/><line class="cls-5" x1="319.1" y1="222.59" x2="319.1" y2="222.59"/><line class="cls-10" x1="323.32" y1="222.59" x2="401.41" y2="222.59"/><line class="cls-5" x1="403.52" y1="222.59" x2="403.52" y2="222.59"/><circle class="cls-8" cx="341.66" cy="222.83" r="4.12"/><path class="cls-11" d="M380.18,126.9a10.41,10.41,0,1,0-20.81,0c0,.33,0,.67.05,1H364a6.54,6.54,0,0,1-.07-.89,5.9,5.9,0,0,1,11.8,0,6.54,6.54,0,0,1-.07.89h4.52A8.37,8.37,0,0,0,380.18,126.9Z"/><path class="cls-12" d="M392.79,146.82v-10.5a8.71,8.71,0,0,0-8.71-8.71H356.77v19.21h0v38.42h36V146.82Z"/><path class="cls-12" d="M346.77,140v35c0,5.66,3.89,10.25,8.71,10.25h27.3V140Z"/><path class="cls-12" d="M344.26,127.61h41a0,0,0,0,1,0,0v13.84a5.37,5.37,0,0,1-5.37,5.37H349.63a5.37,5.37,0,0,1-5.37-5.37V127.61A0,0,0,0,1,344.26,127.61Z"/><rect class="cls-9" x="359.96" y="140.02" width="6.8" height="13.61"/><path class="cls-9" d="M583.16,175.85h0a4.07,4.07,0,0,1,4.06,4.07v6.72a4.06,4.06,0,0,1-4.06,4.06h0"/><path class="cls-11" d="M519.6,155,524,132.78a5.28,5.28,0,0,1,5.18-4.25h30.65a5.3,5.3,0,0,1,5.19,4.25L569.49,155"/><path class="cls-11" d="M569.49,243.52l-4.43,22.18a5.3,5.3,0,0,1-5.19,4.25H529.22A5.28,5.28,0,0,1,524,265.7l-4.44-22.18"/><rect class="cls-9" x="505.94" y="154.96" width="77.22" height="88.56" rx="11.61"/><rect class="cls-9" x="510.35" y="160.02" width="68.4" height="78.44" rx="7.26"/><rect class="cls-9" x="510.35" y="160.02" width="68.4" height="78.44" rx="7.26"/><polygon class="cls-9" points="576.66 41.09 514.56 41.09 514.56 88.15 536.43 88.15 545.78 105.38 554.44 88.15 576.66 88.15 576.66 41.09"/><circle class="cls-8" cx="545.61" cy="64.62" r="15.28"/><polyline class="cls-7" points="539.29 64.06 543.88 68.65 551.93 60.59"/><path class="cls-11" d="M552.6,181.71a7.19,7.19,0,0,0-14.38,0c0,.23,0,.46,0,.69h3.13a4.08,4.08,0,1,1,8.05,0h3.13Q552.6,182.05,552.6,181.71Z"/><path class="cls-12" d="M561.31,195.48v-7.26a6,6,0,0,0-6-6H536.43v13.27h0V222h24.88V195.48Z"/><path class="cls-12" d="M529.51,190.78v24.16c0,3.91,2.7,7.08,6,7.08H554.4V190.78Z"/><path class="cls-12" d="M527.78,182.21h28.34a0,0,0,0,1,0,0v9.56a3.71,3.71,0,0,1-3.71,3.71H531.49a3.71,3.71,0,0,1-3.71-3.71v-9.56A0,0,0,0,1,527.78,182.21Z"/><rect class="cls-9" x="538.63" y="190.78" width="4.7" height="9.4"/><rect class="cls-9" x="646.95" y="91.65" width="87.81" height="163.68" transform="translate(1381.72 346.98) rotate(180)"/><path class="cls-11" d="M646.82,255.33h87.84a0,0,0,0,1,0,0v7.55a7.06,7.06,0,0,1-7.06,7.06H653.88a7.06,7.06,0,0,1-7.06-7.06v-7.55A0,0,0,0,1,646.82,255.33Z"/><path class="cls-11" d="M653.88,77H727.6a7.06,7.06,0,0,1,7.06,7.06v7.55a0,0,0,0,1,0,0H646.82a0,0,0,0,1,0,0V84.1A7.06,7.06,0,0,1,653.88,77Z"/><ellipse class="cls-4" cx="690.74" cy="84.34" rx="0.7" ry="0.73"/><path class="cls-7" d="M694.48,262.64a4,4,0,0,1-1.09,2.76,3.67,3.67,0,0,1-2.65,1.15,3.82,3.82,0,0,1-3.74-3.91,4,4,0,0,1,1.09-2.77,3.7,3.7,0,0,1,2.65-1.14A3.82,3.82,0,0,1,694.48,262.64Z"/><path class="cls-13" d="M693.39,265.4a3.67,3.67,0,0,1-2.65,1.15,3.82,3.82,0,0,1-3.74-3.91,4,4,0,0,1,1.09-2.77"/><circle class="cls-8" cx="690.79" cy="224.21" r="15.28"/><polyline class="cls-7" points="684.47 223.65 689.06 228.24 697.11 220.18"/><path class="cls-11" d="M698.84,125.19a7.19,7.19,0,1,0-14.37,0q0,.34,0,.69h3.13a4.08,4.08,0,1,1,8,0h3.13Q698.84,125.54,698.84,125.19Z"/><path class="cls-12" d="M707.55,139V131.7a6,6,0,0,0-6-6H682.67V139h0V165.5h24.88V139Z"/><path class="cls-12" d="M675.76,134.26v24.16c0,3.91,2.69,7.08,6,7.08h18.87V134.26Z"/><path class="cls-12" d="M674,125.68h28.34a0,0,0,0,1,0,0v9.56a3.71,3.71,0,0,1-3.71,3.71H677.74a3.71,3.71,0,0,1-3.71-3.71v-9.56A0,0,0,0,1,674,125.68Z"/><rect class="cls-9" x="684.87" y="134.26" width="4.7" height="9.4"/><line class="cls-14" x1="674.68" y1="174.23" x2="690.79" y2="174.23"/><rect class="cls-5" x="674.68" y="185.93" width="32.23" height="3.9"/><rect class="cls-5" x="674.68" y="178.13" width="16.11" height="3.9"/><rect class="cls-11" x="690.79" y="178.13" width="16.11" height="3.9"/><rect class="cls-5" x="674.68" y="193.73" width="32.23" height="3.9"/><path class="cls-15" d="M897.77,215.28l-1.39-11.57H796.86l-.34,3L795,217.4a55.33,55.33,0,0,0,11.74,42.92h82.52A69.33,69.33,0,0,0,897.77,215.28Z"/><path class="cls-11" d="M813.12,267h71.69a69.45,69.45,0,0,0,4.4-6.69H806.69A53.41,53.41,0,0,0,813.12,267Z"/><polygon class="cls-9" points="884.76 116.49 805.16 130.09 796.86 203.71 896.39 203.71 884.76 116.49"/><polygon class="cls-9" points="861.97 41.09 830.92 41.09 799.87 41.09 799.87 88.15 821.74 88.15 831.09 105.38 839.75 88.15 893.02 88.15 893.02 41.09 861.97 41.09"/><circle class="cls-8" cx="830.92" cy="64.62" r="12.46"/><polyline class="cls-7" points="825.77 64.17 829.51 67.91 836.08 61.34"/><path class="cls-11" d="M868.29,52.6a4.7,4.7,0,1,0-9.4,0c0,.15,0,.3,0,.45H861a2.58,2.58,0,0,1,0-.4,2.67,2.67,0,0,1,5.33,0,2.6,2.6,0,0,1,0,.4h2C868.28,52.9,868.29,52.75,868.29,52.6Z"/><path class="cls-12" d="M874,61.6V56.86a3.93,3.93,0,0,0-3.93-3.93H857.71V61.6h0V79H874V61.6Z"/><path class="cls-12" d="M853.19,58.53v15.8c0,2.56,1.76,4.63,3.94,4.63h12.33V58.53Z"/><path class="cls-12" d="M852.06,52.93H870.6a0,0,0,0,1,0,0v6.25a2.42,2.42,0,0,1-2.42,2.42H854.49a2.42,2.42,0,0,1-2.42-2.42V52.93A0,0,0,0,1,852.06,52.93Z"/><rect class="cls-9" x="859.15" y="58.53" width="3.07" height="6.15"/><rect class="cls-16" x="-257.34" y="224.15" width="465.13" height="13.39"/><rect class="cls-17" x="989.79" y="223.91" width="465.13" height="12.29"/><path class="cls-17" d="M1109.48,88A24.24,24.24,0,0,0,1061,88a22.44,22.44,0,0,0,.12,2.33h10.54a14,14,0,0,1-.17-2.06,13.75,13.75,0,0,1,27.49,0,14,14,0,0,1-.17,2.06h10.55C1109.44,89.59,1109.48,88.82,1109.48,88Z"/><path class="cls-18" d="M1138.84,134.44V110a20.28,20.28,0,0,0-20.29-20.28H1055v44.74h0v89.47h83.88V134.44Z"/><path class="cls-18" d="M1031.65,118.59V200c0,13.18,9.09,23.87,20.29,23.87h63.6V118.59Z"/><path class="cls-18" d="M1025.82,89.7h95.55a0,0,0,0,1,0,0v32.24a12.5,12.5,0,0,1-12.5,12.5h-70.54a12.5,12.5,0,0,1-12.5-12.5V89.7A0,0,0,0,1,1025.82,89.7Z"/><rect class="cls-19" x="1062.38" y="118.59" width="15.84" height="31.69"/><polygon class="cls-18" points="163.45 224.15 49.07 224.15 64.48 174.54 148.04 174.54 163.45 224.15"/><line class="cls-17" x1="61.35" y1="224.15" x2="65.98" y2="174.54"/><line class="cls-17" x1="149.34" y1="224.15" x2="144.71" y2="174.54"/><path class="cls-20" d="M87.84,174.54V163.87a18.1,18.1,0,0,1,18-18h0a18.1,18.1,0,0,1,18,18v10.67"/><circle class="cls-19" cx="106.26" cy="199.34" r="7.2"/></g><g class="cls-21"><rect class="cls-3" x="1042.29" y="-58.09" width="1578.18" height="403.59"/><path class="cls-19" d="M1076,224.86h-34.48A29.48,29.48,0,0,1,1012,195.38V169h0a143.67,143.67,0,0,1,93.39,0h0v26.43A29.48,29.48,0,0,1,1076,224.86Z"/><polyline class="cls-20" points="1012 168.95 1058.72 196.91 1105.44 168.95"/><rect class="cls-18" x="1050.64" y="186.66" width="16.09" height="16.09" rx="8.05"/><rect class="cls-19" x="1121.89" y="213.11" width="95.49" height="11.04" rx="5.52"/><rect class="cls-16" x="1121.89" y="202.07" width="95.49" height="11.04" rx="5.52"/><rect class="cls-19" x="1121.89" y="157.9" width="95.49" height="11.04" rx="5.52"/><rect class="cls-16" x="1121.89" y="146.86" width="95.49" height="11.04" rx="5.52"/><rect class="cls-19" x="1121.89" y="191.02" width="95.49" height="11.04" rx="5.52"/><rect class="cls-19" x="1121.89" y="179.98" width="95.49" height="11.04" rx="5.52"/><rect class="cls-16" x="1121.89" y="168.94" width="95.49" height="11.04" rx="5.52"/></g></g></svg>