<svg xmlns="http://www.w3.org/2000/svg" xmlns:xlink="http://www.w3.org/1999/xlink" viewBox="0 0 1500 300"><defs><style>.cls-1,.cls-10,.cls-13,.cls-19,.cls-5,.cls-7{fill:none;}.cls-2{clip-path:url(#clip-path);}.cls-3{fill:#0abf53;}.cls-14,.cls-18,.cls-4,.cls-9{fill:#fff;}.cls-10,.cls-11,.cls-12,.cls-14,.cls-15,.cls-17,.cls-18,.cls-19,.cls-20,.cls-5,.cls-9{stroke:#00112e;}.cls-10,.cls-11,.cls-12,.cls-13,.cls-15,.cls-17,.cls-18,.cls-19,.cls-20,.cls-5,.cls-7,.cls-9{stroke-linecap:round;}.cls-10,.cls-11,.cls-12,.cls-13,.cls-14,.cls-15,.cls-17,.cls-18,.cls-19,.cls-20,.cls-5,.cls-7,.cls-9{stroke-linejoin:round;}.cls-10,.cls-11,.cls-12,.cls-13,.cls-14,.cls-15,.cls-5,.cls-6,.cls-7,.cls-9{stroke-width:0.87px;}.cls-6{fill:#00112c;stroke:#00112c;stroke-miterlimit:10;}.cls-7{stroke:#fff;}.cls-12,.cls-20,.cls-8{fill:#00c341;}.cls-10{stroke-dasharray:0 4.22;}.cls-11,.cls-16,.cls-17{fill:#00112e;}.cls-13{stroke:#00c341;}.cls-15{fill:#f1f5f8;}.cls-17,.cls-18,.cls-19,.cls-20{stroke-width:1.21px;}</style><clipPath id="clip-path"><rect class="cls-1" width="1500" height="300"/></clipPath></defs><g id="Layer_1" data-name="Layer 1"><g class="cls-2"><rect class="cls-3" x="-38.79" y="-58.6" width="1578.18" height="403.59"/><path class="cls-4" d="M592.32,40.58H459.91A11.61,11.61,0,0,0,448.3,52.2v206H603.93V52.2A11.61,11.61,0,0,0,592.32,40.58Z"/><path class="cls-5" d="M592.32,40.58H459.91A11.61,11.61,0,0,0,448.3,52.2v206H603.93V52.2A11.61,11.61,0,0,0,592.32,40.58Z"/><path class="cls-6" d="M459.91,257.82h132.4a11.62,11.62,0,0,1,11.62,11.62v0a0,0,0,0,1,0,0H448.3a0,0,0,0,1,0,0v0A11.62,11.62,0,0,1,459.91,257.82Z" transform="translate(1052.23 527.26) rotate(180)"/><path class="cls-6" d="M459.91,40.58h132.4A11.62,11.62,0,0,1,603.93,52.2v0a0,0,0,0,1,0,0H448.3a0,0,0,0,1,0,0v0a11.62,11.62,0,0,1,11.62-11.62Z"/><path class="cls-7" d="M529.33,263.63a3.22,3.22,0,0,1-6.43,0,3.22,3.22,0,1,1,6.43,0Z"/><circle class="cls-4" cx="526.12" cy="46.39" r="0.77"/><circle class="cls-8" cx="526.9" cy="86.96" r="15.28"/><polyline class="cls-7" points="520.58 86.4 525.17 90.98 533.23 82.93"/><rect class="cls-9" x="464.56" y="204.12" width="122.75" height="35.9"/><path class="cls-8" d="M567.71,213.54h0a6.56,6.56,0,0,0-.15,8.42h0a21.68,21.68,0,0,1,4.07,8.07l.72,2.71.71-2.71a21.68,21.68,0,0,1,4.07-8.07h0a6.56,6.56,0,0,0-.15-8.42h0A6.14,6.14,0,0,0,567.71,213.54Z"/><ellipse class="cls-4" cx="572.35" cy="217.69" rx="1.9" ry="1.96"/><line class="cls-5" x1="476.69" y1="222.08" x2="476.69" y2="222.08"/><line class="cls-10" x1="480.91" y1="222.08" x2="559" y2="222.08"/><line class="cls-5" x1="561.11" y1="222.08" x2="561.11" y2="222.08"/><circle class="cls-8" cx="499.25" cy="222.32" r="4.12"/><path class="cls-11" d="M537.77,126.39a10.41,10.41,0,1,0-20.81,0c0,.33,0,.67,0,1h4.53a6.54,6.54,0,0,1-.07-.89,5.9,5.9,0,1,1,11.8,0,6.54,6.54,0,0,1-.07.89h4.52A8.37,8.37,0,0,0,537.77,126.39Z"/><path class="cls-12" d="M550.38,146.31v-10.5a8.71,8.71,0,0,0-8.71-8.71H514.36v19.21h0v38.42h36V146.31Z"/><path class="cls-12" d="M504.36,139.51v35c0,5.66,3.89,10.25,8.71,10.25h27.3V139.51Z"/><path class="cls-12" d="M501.85,127.1h41a0,0,0,0,1,0,0v13.84a5.37,5.37,0,0,1-5.37,5.37H507.22a5.37,5.37,0,0,1-5.37-5.37V127.1A0,0,0,0,1,501.85,127.1Z"/><rect class="cls-9" x="517.55" y="139.51" width="6.8" height="13.61"/><path class="cls-9" d="M740.75,175.34h0a4.07,4.07,0,0,1,4.06,4.07v6.71a4.07,4.07,0,0,1-4.06,4.07h0"/><path class="cls-11" d="M677.19,154.45l4.44-22.18a5.28,5.28,0,0,1,5.18-4.25h30.65a5.3,5.3,0,0,1,5.19,4.25l4.43,22.18"/><path class="cls-11" d="M727.08,243l-4.43,22.18a5.3,5.3,0,0,1-5.19,4.25H686.81a5.28,5.28,0,0,1-5.18-4.25L677.19,243"/><rect class="cls-9" x="663.53" y="154.45" width="77.22" height="88.56" rx="11.61"/><rect class="cls-9" x="667.94" y="159.51" width="68.4" height="78.44" rx="7.26"/><rect class="cls-9" x="667.94" y="159.51" width="68.4" height="78.44" rx="7.26"/><polygon class="cls-9" points="734.25 40.58 672.15 40.58 672.15 87.64 694.02 87.64 703.37 104.87 712.03 87.64 734.25 87.64 734.25 40.58"/><circle class="cls-8" cx="703.2" cy="64.11" r="15.28"/><polyline class="cls-7" points="696.88 63.55 701.47 68.14 709.52 60.08"/><path class="cls-11" d="M710.19,181.2a7.19,7.19,0,0,0-14.38,0c0,.23,0,.46,0,.69H699a4.08,4.08,0,1,1,8,0h3.13Q710.19,181.55,710.19,181.2Z"/><path class="cls-12" d="M718.9,195v-7.26a6,6,0,0,0-6-6H694V195h0v26.54H718.9V195Z"/><path class="cls-12" d="M687.11,190.27v24.16c0,3.91,2.69,7.08,6,7.08H712V190.27Z"/><path class="cls-12" d="M685.38,181.7h28.34a0,0,0,0,1,0,0v9.56A3.71,3.71,0,0,1,710,195H689.08a3.71,3.71,0,0,1-3.71-3.71V181.7A0,0,0,0,1,685.38,181.7Z"/><rect class="cls-9" x="696.22" y="190.27" width="4.7" height="9.4"/><rect class="cls-9" x="804.54" y="91.14" width="87.81" height="163.68" transform="translate(1696.9 345.96) rotate(180)"/><path class="cls-11" d="M804.41,254.82h87.84a0,0,0,0,1,0,0v7.55a7.06,7.06,0,0,1-7.06,7.06H811.47a7.06,7.06,0,0,1-7.06-7.06v-7.55A0,0,0,0,1,804.41,254.82Z"/><path class="cls-11" d="M811.47,76.52h73.72a7.06,7.06,0,0,1,7.06,7.06v7.55a0,0,0,0,1,0,0H804.41a0,0,0,0,1,0,0V83.59A7.06,7.06,0,0,1,811.47,76.52Z"/><ellipse class="cls-4" cx="848.33" cy="83.83" rx="0.7" ry="0.73"/><path class="cls-7" d="M852.07,262.13a4,4,0,0,1-1.09,2.76,3.67,3.67,0,0,1-2.65,1.15,3.82,3.82,0,0,1-3.74-3.91,4,4,0,0,1,1.09-2.77,3.7,3.7,0,0,1,2.65-1.14A3.82,3.82,0,0,1,852.07,262.13Z"/><path class="cls-13" d="M851,264.89a3.67,3.67,0,0,1-2.65,1.15,3.82,3.82,0,0,1-3.74-3.91,4,4,0,0,1,1.09-2.77"/><circle class="cls-8" cx="848.38" cy="223.7" r="15.28"/><polyline class="cls-7" points="842.06 223.14 846.65 227.72 854.7 219.67"/><path class="cls-11" d="M856.43,124.68a7.19,7.19,0,1,0-14.37,0q0,.34,0,.69h3.13a4.08,4.08,0,1,1,8,0h3.13Q856.43,125,856.43,124.68Z"/><path class="cls-12" d="M865.14,138.45v-7.26a6,6,0,0,0-6-6H840.26v13.28h0V165h24.88V138.45Z"/><path class="cls-12" d="M833.35,133.75v24.16c0,3.91,2.69,7.08,6,7.08h18.87V133.75Z"/><path class="cls-12" d="M831.62,125.17H860a0,0,0,0,1,0,0v9.56a3.71,3.71,0,0,1-3.71,3.71H835.33a3.71,3.71,0,0,1-3.71-3.71v-9.56A0,0,0,0,1,831.62,125.17Z"/><rect class="cls-9" x="842.46" y="133.75" width="4.7" height="9.4"/><line class="cls-14" x1="832.27" y1="173.72" x2="848.38" y2="173.72"/><rect class="cls-5" x="832.27" y="185.42" width="32.23" height="3.9"/><rect class="cls-5" x="832.27" y="177.62" width="16.11" height="3.9"/><rect class="cls-11" x="848.38" y="177.62" width="16.11" height="3.9"/><rect class="cls-5" x="832.27" y="193.22" width="32.23" height="3.9"/><path class="cls-15" d="M1055.36,214.77,1054,203.2H954.45l-.34,3-1.57,10.71a55.34,55.34,0,0,0,11.74,42.93h82.52A69.33,69.33,0,0,0,1055.36,214.77Z"/><path class="cls-11" d="M970.71,266.5h71.69a69.45,69.45,0,0,0,4.4-6.69H964.28A54.1,54.1,0,0,0,970.71,266.5Z"/><polygon class="cls-9" points="1042.35 115.98 962.75 129.58 954.45 203.2 1053.98 203.2 1042.35 115.98"/><polygon class="cls-9" points="1019.56 40.58 988.51 40.58 957.46 40.58 957.46 87.64 979.33 87.64 988.68 104.87 997.34 87.64 1050.62 87.64 1050.62 40.58 1019.56 40.58"/><circle class="cls-8" cx="988.51" cy="64.11" r="12.46"/><polyline class="cls-7" points="983.36 63.66 987.1 67.4 993.67 60.83"/><path class="cls-11" d="M1025.88,52.09a4.7,4.7,0,0,0-9.4,0c0,.15,0,.3,0,.45h2a2.58,2.58,0,0,1,0-.4,2.67,2.67,0,0,1,5.33,0,2.6,2.6,0,0,1,0,.4h2C1025.87,52.39,1025.88,52.24,1025.88,52.09Z"/><path class="cls-12" d="M1031.57,61.09V56.35a3.94,3.94,0,0,0-3.93-3.94H1015.3v8.68h0V78.45h16.27V61.09Z"/><path class="cls-12" d="M1010.78,58v15.8c0,2.56,1.76,4.63,3.94,4.63h12.33V58Z"/><path class="cls-12" d="M1009.65,52.41h18.53a0,0,0,0,1,0,0v6.25a2.42,2.42,0,0,1-2.42,2.42h-13.68a2.42,2.42,0,0,1-2.42-2.42V52.41A0,0,0,0,1,1009.65,52.41Z"/><rect class="cls-9" x="1016.74" y="58.02" width="3.07" height="6.15"/><rect class="cls-16" x="-99.75" y="223.64" width="465.13" height="13.39"/><rect class="cls-17" x="1147.38" y="223.4" width="465.13" height="12.29"/><path class="cls-18" d="M4.88,224.35H-29.6a29.48,29.48,0,0,1-29.48-29.48V168.44h0a143.67,143.67,0,0,1,93.39,0h0v26.43A29.48,29.48,0,0,1,4.88,224.35Z"/><polyline class="cls-19" points="-59.08 168.44 -12.36 196.4 34.36 168.44"/><path class="cls-17" d="M1267.07,87.52a24.24,24.24,0,0,0-48.47,0,22.44,22.44,0,0,0,.12,2.33h10.54a14,14,0,0,1-.17-2.06,13.75,13.75,0,0,1,27.49,0,14,14,0,0,1-.17,2.06H1267C1267,89.08,1267.07,88.31,1267.07,87.52Z"/><path class="cls-20" d="M1296.43,133.93V109.47a20.28,20.28,0,0,0-20.29-20.28h-63.59v44.74h0V223.4h83.88V133.93Z"/><path class="cls-20" d="M1189.24,118.08v81.45c0,13.18,9.09,23.87,20.29,23.87h63.6V118.08Z"/><path class="cls-20" d="M1183.41,89.19H1279a0,0,0,0,1,0,0v32.24a12.5,12.5,0,0,1-12.5,12.5h-70.54a12.5,12.5,0,0,1-12.5-12.5V89.19A0,0,0,0,1,1183.41,89.19Z"/><rect class="cls-18" x="1219.97" y="118.08" width="15.84" height="31.69"/><path class="cls-17" d="M1568.76,222s-19.85,1.5-30,1.51-28.59-2.69-37.13-22.73l-7.47-12.52-.57,34.7-15.83.15-.43-103h42.54s-7.51,63.8,39.7,86.37A15.94,15.94,0,0,1,1568.76,222Z"/><rect class="cls-18" x="80.81" y="212.6" width="95.49" height="11.04" rx="5.52"/><rect class="cls-16" x="80.81" y="201.56" width="95.49" height="11.04" rx="5.52"/><rect class="cls-18" x="80.81" y="157.39" width="95.49" height="11.04" rx="5.52"/><rect class="cls-16" x="80.81" y="146.35" width="95.49" height="11.04" rx="5.52"/><rect class="cls-18" x="80.81" y="190.51" width="95.49" height="11.04" rx="5.52"/><rect class="cls-18" x="80.81" y="179.47" width="95.49" height="11.04" rx="5.52"/><rect class="cls-16" x="80.81" y="168.43" width="95.49" height="11.04" rx="5.52"/><circle class="cls-18" cx="1386.37" cy="145.57" r="12.43"/><path class="cls-17" d="M1410.62,219.21h-48.5c-3.16,0-7.78-2.56-7.78-5.72l2.06-40.16a24.2,24.2,0,0,1,24.2-24.2h11.54a24.21,24.21,0,0,1,24.2,24.2l2.75,40.16C1419.09,216.65,1413.78,219.21,1410.62,219.21Z"/><rect class="cls-18" x="1350.04" y="200.39" width="72.66" height="23.3" rx="7.3"/><line class="cls-19" x1="1359.43" y1="200.39" x2="1359.43" y2="223.69"/><line class="cls-19" x1="1370.21" y1="200.39" x2="1370.21" y2="223.69"/><line class="cls-19" x1="1380.98" y1="200.39" x2="1380.98" y2="223.69"/><line class="cls-19" x1="1391.76" y1="200.39" x2="1391.76" y2="223.69"/><line class="cls-19" x1="1402.53" y1="200.39" x2="1402.53" y2="223.69"/><line class="cls-19" x1="1413.31" y1="200.39" x2="1413.31" y2="223.69"/><polygon class="cls-20" points="331.04 223.64 216.66 223.64 232.07 174.03 315.63 174.03 331.04 223.64"/><line class="cls-17" x1="228.94" y1="223.64" x2="233.57" y2="174.03"/><line class="cls-17" x1="316.93" y1="223.64" x2="312.3" y2="174.03"/><path class="cls-19" d="M255.43,174V163.36a18.1,18.1,0,0,1,18-18h0a18.1,18.1,0,0,1,18,18V174"/><circle class="cls-18" cx="273.85" cy="198.83" r="7.2"/></g></g></svg>