<svg xmlns="http://www.w3.org/2000/svg" viewBox="0 0 1920 1080"><defs><style>.cls-1{fill:#0abf53;}.cls-12,.cls-2,.cls-7{fill:#fff;}.cls-11,.cls-3,.cls-5,.cls-8{fill:none;}.cls-10,.cls-12,.cls-13,.cls-3,.cls-7,.cls-8,.cls-9{stroke:#00112e;}.cls-10,.cls-11,.cls-13,.cls-3,.cls-5,.cls-7,.cls-8,.cls-9{stroke-linecap:round;}.cls-10,.cls-11,.cls-12,.cls-13,.cls-3,.cls-5,.cls-7,.cls-8,.cls-9{stroke-linejoin:round;}.cls-10,.cls-11,.cls-12,.cls-13,.cls-3,.cls-4,.cls-5,.cls-7,.cls-8,.cls-9{stroke-width:2.32px;}.cls-4{fill:#00112c;stroke:#00112c;stroke-miterlimit:10;}.cls-5{stroke:#fff;}.cls-10,.cls-6{fill:#00c341;}.cls-8{stroke-dasharray:0 11.3;}.cls-9{fill:#00112e;}.cls-11{stroke:#00c341;}.cls-13{fill:#f1f5f8;}</style></defs><g id="Layer_1" data-name="Layer 1"><rect class="cls-1" width="1920" height="1080"/><path class="cls-2" d="M537.24,265.4H182.93a31.07,31.07,0,0,0-31.08,31.08V847.72H568.32V296.48A31.07,31.07,0,0,0,537.24,265.4Z"/><path class="cls-3" d="M537.24,265.4H182.93a31.07,31.07,0,0,0-31.08,31.08V847.72H568.32V296.48A31.07,31.07,0,0,0,537.24,265.4Z"/><path class="cls-4" d="M182.93,846.72H537.24a31.09,31.09,0,0,1,31.09,31.09v0a0,0,0,0,1,0,0H151.85a0,0,0,0,1,0,0v0A31.09,31.09,0,0,1,182.93,846.72Z" transform="translate(720.17 1724.52) rotate(180)"/><path class="cls-4" d="M182.93,265.4H537.24a31.09,31.09,0,0,1,31.09,31.09v0a0,0,0,0,1,0,0H151.85a0,0,0,0,1,0,0v0a31.09,31.09,0,0,1,31.09-31.09Z"/><path class="cls-5" d="M368.69,862.26a8.61,8.61,0,1,1-8.61-8.6A8.54,8.54,0,0,1,368.69,862.26Z"/><circle class="cls-2" cx="360.08" cy="280.94" r="2.07"/><circle class="cls-6" cx="362.19" cy="389.49" r="40.9"/><polyline class="cls-5" points="345.27 387.99 357.55 400.27 379.11 378.71"/><rect class="cls-7" x="195.36" y="703.03" width="328.47" height="96.07"/><path class="cls-6" d="M471.39,728.24h0a17.56,17.56,0,0,0-.41,22.52h0a58,58,0,0,1,10.89,21.62l1.91,7.24,1.91-7.24a58.2,58.2,0,0,1,10.9-21.62h0a17.56,17.56,0,0,0-.41-22.52h0A16.41,16.41,0,0,0,471.39,728.24Z"/><ellipse class="cls-2" cx="483.79" cy="739.33" rx="5.08" ry="5.26"/><line class="cls-3" x1="227.82" y1="751.07" x2="227.82" y2="751.07"/><line class="cls-8" x1="239.11" y1="751.07" x2="448.07" y2="751.07"/><line class="cls-3" x1="453.72" y1="751.07" x2="453.72" y2="751.07"/><circle class="cls-6" cx="288.19" cy="751.72" r="11.04"/><path class="cls-9" d="M391.28,495a27.85,27.85,0,1,0-55.69,0c0,.9.05,1.79.13,2.68h12.12a15.47,15.47,0,0,1-.2-2.37,15.8,15.8,0,0,1,31.59,0,15.47,15.47,0,0,1-.2,2.37h12.12C391.23,496.8,391.28,495.91,391.28,495Z"/><path class="cls-10" d="M425,548.33V520.24a23.3,23.3,0,0,0-23.3-23.31H328.63v51.4h0V651.14H425V548.33Z"/><path class="cls-10" d="M301.86,530.13v93.58c0,15.15,10.43,27.43,23.3,27.43h73.08v-121Z"/><path class="cls-10" d="M295.16,496.93H404.94a0,0,0,0,1,0,0v37a14.36,14.36,0,0,1-14.36,14.36H309.52A14.36,14.36,0,0,1,295.16,534v-37A0,0,0,0,1,295.16,496.93Z"/><rect class="cls-7" x="337.16" y="530.13" width="18.21" height="36.41"/><path class="cls-7" d="M934.44,626h0a10.88,10.88,0,0,1,10.87,10.88v18a10.87,10.87,0,0,1-10.87,10.87h0"/><path class="cls-9" d="M764.36,570.11l11.87-59.35a14.15,14.15,0,0,1,13.87-11.37h82A14.15,14.15,0,0,1,886,510.76l11.87,59.35"/><path class="cls-9" d="M897.87,807.08,886,866.43a14.15,14.15,0,0,1-13.87,11.37h-82a14.15,14.15,0,0,1-13.87-11.37l-11.87-59.35"/><rect class="cls-7" x="727.79" y="570.11" width="206.64" height="236.97" rx="31.08"/><rect class="cls-7" x="739.6" y="583.65" width="183.03" height="209.89" rx="19.42"/><rect class="cls-7" x="739.6" y="583.65" width="183.03" height="209.89" rx="19.42"/><polygon class="cls-7" points="917.05 265.4 750.87 265.4 750.87 391.33 809.39 391.33 834.4 437.42 857.59 391.33 917.05 391.33 917.05 265.4"/><circle class="cls-6" cx="833.96" cy="328.37" r="40.9"/><polyline class="cls-5" points="817.04 326.87 829.32 339.15 850.88 317.58"/><path class="cls-9" d="M852.67,641.69a19.24,19.24,0,0,0-38.48,0c0,.62,0,1.24.09,1.84h8.38a9.69,9.69,0,0,1-.14-1.63,10.91,10.91,0,1,1,21.68,1.63h8.38C852.63,642.93,852.67,642.31,852.67,641.69Z"/><path class="cls-10" d="M876,678.53V659.11a16.1,16.1,0,0,0-16.1-16.1H809.38v35.52h0v71H876v-71Z"/><path class="cls-10" d="M790.89,666V730.6c0,10.47,7.21,18.95,16.1,18.95h50.49V666Z"/><path class="cls-10" d="M786.26,643H862.1a0,0,0,0,1,0,0V668.6a9.92,9.92,0,0,1-9.92,9.92h-56a9.92,9.92,0,0,1-9.92-9.92V643A0,0,0,0,1,786.26,643Z"/><rect class="cls-7" x="815.28" y="665.95" width="12.58" height="25.16"/><rect class="cls-7" x="1105.15" y="400.69" width="234.98" height="438.01" transform="translate(2445.27 1239.38) rotate(180)"/><path class="cls-9" d="M1104.78,838.7h235.07a0,0,0,0,1,0,0V858.9a18.9,18.9,0,0,1-18.9,18.9H1123.69a18.9,18.9,0,0,1-18.9-18.9V838.7A0,0,0,0,1,1104.78,838.7Z"/><path class="cls-9" d="M1123.69,361.58h197.26a18.9,18.9,0,0,1,18.9,18.9v20.21a0,0,0,0,1,0,0H1104.78a0,0,0,0,1,0,0V380.48A18.9,18.9,0,0,1,1123.69,361.58Z"/><ellipse class="cls-2" cx="1222.32" cy="381.13" rx="1.87" ry="1.96"/><path class="cls-5" d="M1232.33,858.25a10.69,10.69,0,0,1-2.93,7.4,9.78,9.78,0,0,1-7.08,3.06,10.24,10.24,0,0,1-10-10.46,10.67,10.67,0,0,1,2.93-7.4,9.81,9.81,0,0,1,7.09-3.06A10.24,10.24,0,0,1,1232.33,858.25Z"/><path class="cls-11" d="M1229.4,865.65a9.78,9.78,0,0,1-7.08,3.06,10.24,10.24,0,0,1-10-10.46,10.67,10.67,0,0,1,2.93-7.4"/><circle class="cls-6" cx="1222.45" cy="755.4" r="40.9"/><polyline class="cls-5" points="1205.53 753.91 1217.81 766.18 1239.37 744.62"/><path class="cls-9" d="M1244,490.44a19.24,19.24,0,1,0-38.48,0c0,.62,0,1.24.09,1.85H1214a11.11,11.11,0,0,1-.13-1.64,10.91,10.91,0,1,1,21.82,0,11.11,11.11,0,0,1-.14,1.64h8.37C1244,491.68,1244,491.06,1244,490.44Z"/><path class="cls-10" d="M1267.31,527.28V507.86a16.1,16.1,0,0,0-16.1-16.1h-50.49v35.52h0v71h66.59v-71Z"/><path class="cls-10" d="M1182.23,514.7v64.65c0,10.47,7.21,18.95,16.1,18.95h50.48V514.7Z"/><path class="cls-10" d="M1177.6,491.76h75.85a0,0,0,0,1,0,0v25.59a9.92,9.92,0,0,1-9.92,9.92h-56a9.92,9.92,0,0,1-9.92-9.92V491.76A0,0,0,0,1,1177.6,491.76Z"/><rect class="cls-7" x="1206.62" y="514.7" width="12.58" height="25.16"/><line class="cls-12" x1="1179.33" y1="621.68" x2="1222.45" y2="621.68"/><rect class="cls-3" x="1179.33" y="652.99" width="86.25" height="10.44"/><rect class="cls-3" x="1179.33" y="632.12" width="43.12" height="10.44"/><rect class="cls-9" x="1222.45" y="632.12" width="43.12" height="10.44"/><rect class="cls-3" x="1179.33" y="673.86" width="86.25" height="10.44"/><path class="cls-13" d="M1776.33,731.52l-3.72-31H1506.28l-.89,8-4.22,28.67A148.19,148.19,0,0,0,1532.59,852h220.82A185.69,185.69,0,0,0,1776.33,731.52Z"/><path class="cls-9" d="M1549.79,869.93h191.85A183.81,183.81,0,0,0,1753.41,852H1532.59A143.74,143.74,0,0,0,1549.79,869.93Z"/><polygon class="cls-7" points="1741.51 467.16 1528.5 503.55 1506.3 700.55 1772.63 700.55 1741.51 467.16"/><polygon class="cls-7" points="1680.53 265.4 1597.44 265.4 1514.35 265.4 1514.35 391.33 1572.88 391.33 1597.88 437.42 1621.07 391.33 1763.62 391.33 1763.62 265.4 1680.53 265.4"/><circle class="cls-6" cx="1597.44" cy="328.37" r="33.35"/><polyline class="cls-5" points="1583.64 327.14 1593.66 337.16 1611.24 319.57"/><path class="cls-9" d="M1697.43,296.2a12.58,12.58,0,1,0-25.15,0,11.9,11.9,0,0,0,.06,1.2h5.47a7.33,7.33,0,0,1-.09-1.06,7.14,7.14,0,1,1,14.27,0,7.33,7.33,0,0,1-.09,1.06h5.48C1697.41,297,1697.43,296.6,1697.43,296.2Z"/><path class="cls-10" d="M1712.67,320.29v-12.7a10.53,10.53,0,0,0-10.52-10.53h-33v23.23h0v46.44h43.54V320.29Z"/><path class="cls-10" d="M1657,312.06v42.28c0,6.84,4.71,12.39,10.53,12.39h33V312.06Z"/><path class="cls-10" d="M1654,297.06h49.6a0,0,0,0,1,0,0V313.8a6.49,6.49,0,0,1-6.49,6.49H1660.5a6.49,6.49,0,0,1-6.49-6.49V297.06A0,0,0,0,1,1654,297.06Z"/><rect class="cls-7" x="1672.99" y="312.06" width="8.22" height="16.45"/></g></svg>