<svg id="Layer_1" data-name="Layer 1" xmlns="http://www.w3.org/2000/svg" xmlns:xlink="http://www.w3.org/1999/xlink" viewBox="0 0 581 600"><defs><style>.cls-1,.cls-7{fill:none;}.cls-2{clip-path:url(#clip-path);}.cls-3{fill:#0abf53;}.cls-4{fill:#fff;}.cls-4,.cls-5,.cls-8,.cls-9{stroke:#00112e;}.cls-4,.cls-5,.cls-7,.cls-8,.cls-9{stroke-linecap:round;stroke-linejoin:round;stroke-width:1.73px;}.cls-5{fill:#00112e;}.cls-6,.cls-8{fill:#00c341;}.cls-7{stroke:#fff;}.cls-9{fill:#f1f5f8;}</style><clipPath id="clip-path"><rect class="cls-1" width="581" height="600"/></clipPath></defs><g class="cls-2"><rect class="cls-3" x="-1502.51" y="-116.17" width="3156.37" height="807.19"/><path class="cls-4" d="M224.05,351.71h0a8.13,8.13,0,0,1,8.13,8.13v13.43a8.13,8.13,0,0,1-8.13,8.13h0"/><path class="cls-5" d="M96.93,309.93l8.88-44.36a10.56,10.56,0,0,1,10.36-8.5h61.31a10.56,10.56,0,0,1,10.36,8.5l8.88,44.36"/><path class="cls-5" d="M196.72,487l-8.88,44.36a10.55,10.55,0,0,1-10.36,8.49H116.17a10.55,10.55,0,0,1-10.36-8.49L96.93,487"/><rect class="cls-4" x="69.6" y="309.93" width="154.44" height="177.11" rx="23.23"/><rect class="cls-4" x="78.43" y="320.05" width="136.79" height="156.87" rx="14.51"/><rect class="cls-4" x="78.43" y="320.05" width="136.79" height="156.87" rx="14.51"/><polygon class="cls-4" points="211.05 82.18 86.85 82.18 86.85 176.31 130.59 176.31 149.28 210.75 166.61 176.31 211.05 176.31 211.05 82.18"/><circle class="cls-6" cx="148.95" cy="129.25" r="30.57"/><polyline class="cls-7" points="136.3 128.13 145.48 137.3 161.59 121.19"/><path class="cls-5" d="M162.93,363.42a14.38,14.38,0,1,0-28.75,0,12.5,12.5,0,0,0,.07,1.38h6.25a8.16,8.16,0,1,1,16.11,0h6.25A12.5,12.5,0,0,0,162.93,363.42Z"/><path class="cls-8" d="M180.35,391v-14.5a12,12,0,0,0-12-12H130.58V391h0V444h49.77V391Z"/><path class="cls-8" d="M116.76,381.55v48.32c0,7.83,5.39,14.17,12,14.17h37.74V381.55Z"/><path class="cls-8" d="M113.3,364.41H170a0,0,0,0,1,0,0v19.13a7.42,7.42,0,0,1-7.42,7.42H120.72a7.42,7.42,0,0,1-7.42-7.42V364.41A0,0,0,0,1,113.3,364.41Z"/><rect class="cls-4" x="134.99" y="381.55" width="9.4" height="18.8"/><path class="cls-9" d="M519.19,436.45l-2.79-23.16h-199l-.67,5.95-3.15,21.43A110.71,110.71,0,0,0,337,526.52h165A138.67,138.67,0,0,0,519.19,436.45Z"/><path class="cls-5" d="M349.88,539.89H493.26a135.61,135.61,0,0,0,8.79-13.37H337A107.45,107.45,0,0,0,349.88,539.89Z"/><polygon class="cls-4" points="493.16 238.87 333.96 266.06 317.37 413.29 516.42 413.29 493.16 238.87"/><polygon class="cls-4" points="447.59 88.07 385.49 88.07 323.39 88.07 323.39 182.19 367.13 182.19 385.82 216.63 403.15 182.19 509.69 182.19 509.69 88.07 447.59 88.07"/><circle class="cls-6" cx="385.49" cy="135.13" r="24.93"/><polyline class="cls-7" points="375.18 134.22 382.66 141.7 395.8 128.56"/><path class="cls-5" d="M460.22,111.08a9.4,9.4,0,0,0-18.8,0c0,.31,0,.61,0,.91h4.1a5.33,5.33,0,1,1,10.53,0h4.09A9.1,9.1,0,0,0,460.22,111.08Z"/><path class="cls-8" d="M471.61,129.09V119.6a7.87,7.87,0,0,0-7.87-7.87H439.07v17.36h0V163.8h32.54V129.09Z"/><path class="cls-8" d="M430,122.94v31.6c0,5.11,3.52,9.26,7.87,9.26h24.67V122.94Z"/><path class="cls-8" d="M427.77,111.73h37.07a0,0,0,0,1,0,0v12.51a4.85,4.85,0,0,1-4.85,4.85H432.62a4.85,4.85,0,0,1-4.85-4.85V111.73A0,0,0,0,1,427.77,111.73Z"/><rect class="cls-4" x="441.95" y="122.94" width="6.15" height="12.29"/><line class="cls-4" x1="50.33" y1="539.89" x2="545.15" y2="539.89"/></g></svg>