<svg xmlns="http://www.w3.org/2000/svg" xmlns:xlink="http://www.w3.org/1999/xlink" viewBox="0 0 503 300"><defs><style>.cls-1,.cls-12,.cls-14,.cls-9{fill:none;}.cls-2{clip-path:url(#clip-path);}.cls-3{fill:#0abf53;}.cls-4,.cls-7{fill:#00112e;}.cls-10,.cls-13,.cls-14,.cls-15,.cls-4,.cls-6,.cls-7{stroke:#00112e;}.cls-10,.cls-12,.cls-14,.cls-15,.cls-4,.cls-6,.cls-7,.cls-9{stroke-linecap:round;}.cls-10,.cls-12,.cls-13,.cls-14,.cls-15,.cls-4,.cls-6,.cls-7,.cls-9{stroke-linejoin:round;}.cls-4{stroke-width:1.21px;}.cls-5{clip-path:url(#clip-path-2);}.cls-11,.cls-13,.cls-6{fill:#fff;}.cls-10,.cls-12,.cls-13,.cls-14,.cls-15,.cls-6,.cls-7,.cls-9{stroke-width:0.87px;}.cls-10,.cls-8{fill:#00c341;}.cls-9{stroke:#fff;}.cls-12{stroke:#00c341;}.cls-15{fill:#f1f5f8;}</style><clipPath id="clip-path"><rect class="cls-1" x="-1085.7" width="743" height="300"/></clipPath><clipPath id="clip-path-2"><rect class="cls-1" width="503" height="300"/></clipPath></defs><g id="Layer_1" data-name="Layer 1"><g class="cls-2"><rect class="cls-3" x="-1502.78" y="-58.09" width="1578.18" height="403.59"/><path class="cls-4" d="M94.77,222.52s-19.85,1.5-30,1.51S36.2,221.34,27.66,201.3l-7.47-12.52-.56,34.7-15.84.15-.43-103H45.9S38.39,184.44,85.6,207A15.94,15.94,0,0,1,94.77,222.52Z"/></g><g class="cls-5"><rect class="cls-3" x="-645" y="-58.09" width="1578.18" height="403.59"/><path class="cls-6" d="M134.54,175.85h0a4.07,4.07,0,0,1,4.06,4.07v6.72a4.06,4.06,0,0,1-4.06,4.06h0"/><path class="cls-7" d="M71,155l4.43-22.18a5.3,5.3,0,0,1,5.19-4.25h30.65a5.28,5.28,0,0,1,5.18,4.25L120.87,155"/><path class="cls-7" d="M120.87,243.52l-4.44,22.18a5.28,5.28,0,0,1-5.18,4.25H80.6a5.3,5.3,0,0,1-5.19-4.25L71,243.52"/><rect class="cls-6" x="57.31" y="154.96" width="77.22" height="88.56" rx="11.61"/><rect class="cls-6" x="61.73" y="160.02" width="68.4" height="78.44" rx="7.26"/><rect class="cls-6" x="61.73" y="160.02" width="68.4" height="78.44" rx="7.26"/><polygon class="cls-6" points="128.04 41.09 65.94 41.09 65.94 88.15 87.81 88.15 97.15 105.38 105.82 88.15 128.04 88.15 128.04 41.09"/><circle class="cls-8" cx="96.99" cy="64.62" r="15.28"/><polyline class="cls-9" points="90.66 64.06 95.25 68.65 103.31 60.59"/><path class="cls-7" d="M104,181.71a7.19,7.19,0,1,0-14.38,0q0,.34,0,.69h3.13a4.08,4.08,0,1,1,8.06,0h3.12A5.32,5.32,0,0,0,104,181.71Z"/><path class="cls-10" d="M112.69,195.48v-7.26a6,6,0,0,0-6-6H87.8v13.27h0V222h24.89V195.48Z"/><path class="cls-10" d="M80.89,190.78v24.16c0,3.91,2.7,7.08,6,7.08h18.87V190.78Z"/><path class="cls-10" d="M79.16,182.21h28.34a0,0,0,0,1,0,0v9.56a3.71,3.71,0,0,1-3.71,3.71H82.87a3.71,3.71,0,0,1-3.71-3.71v-9.56A0,0,0,0,1,79.16,182.21Z"/><rect class="cls-6" x="90.01" y="190.78" width="4.7" height="9.4"/><rect class="cls-6" x="198.33" y="91.65" width="87.81" height="163.68" transform="translate(484.47 346.98) rotate(180)"/><path class="cls-7" d="M198.19,255.33H286a0,0,0,0,1,0,0v7.55a7.06,7.06,0,0,1-7.06,7.06H205.26a7.06,7.06,0,0,1-7.06-7.06v-7.55A0,0,0,0,1,198.19,255.33Z"/><path class="cls-7" d="M205.26,77H279A7.06,7.06,0,0,1,286,84.1v7.55a0,0,0,0,1,0,0H198.19a0,0,0,0,1,0,0V84.1A7.06,7.06,0,0,1,205.26,77Z"/><ellipse class="cls-11" cx="242.12" cy="84.34" rx="0.7" ry="0.73"/><path class="cls-9" d="M245.86,262.64a4,4,0,0,1-1.1,2.76,3.64,3.64,0,0,1-2.64,1.15,3.83,3.83,0,0,1-3.75-3.91,4,4,0,0,1,1.1-2.77,3.68,3.68,0,0,1,2.65-1.14A3.83,3.83,0,0,1,245.86,262.64Z"/><path class="cls-12" d="M244.76,265.4a3.64,3.64,0,0,1-2.64,1.15,3.83,3.83,0,0,1-3.75-3.91,4,4,0,0,1,1.1-2.77"/><circle class="cls-8" cx="242.17" cy="224.21" r="15.28"/><polyline class="cls-9" points="235.84 223.65 240.43 228.24 248.49 220.18"/><path class="cls-7" d="M250.22,125.19a7.19,7.19,0,0,0-14.38,0c0,.23,0,.46,0,.69H239a4.08,4.08,0,1,1,8.05,0h3.13Q250.22,125.54,250.22,125.19Z"/><path class="cls-10" d="M258.93,139V131.7a6,6,0,0,0-6-6H234.05V139h0V165.5h24.88V139Z"/><path class="cls-10" d="M227.13,134.26v24.16c0,3.91,2.7,7.08,6,7.08H252V134.26Z"/><path class="cls-10" d="M225.4,125.68h28.34a0,0,0,0,1,0,0v9.56A3.71,3.71,0,0,1,250,139H229.11a3.71,3.71,0,0,1-3.71-3.71v-9.56A0,0,0,0,1,225.4,125.68Z"/><rect class="cls-6" x="236.25" y="134.26" width="4.7" height="9.4"/><line class="cls-13" x1="226.05" y1="174.23" x2="242.17" y2="174.23"/><rect class="cls-14" x="226.05" y="185.93" width="32.23" height="3.9"/><rect class="cls-14" x="226.05" y="178.13" width="16.11" height="3.9"/><rect class="cls-7" x="242.17" y="178.13" width="16.11" height="3.9"/><rect class="cls-14" x="226.05" y="193.73" width="32.23" height="3.9"/><path class="cls-15" d="M449.15,215.28l-1.39-11.57H348.23l-.33,3-1.58,10.72a55.41,55.41,0,0,0,11.74,42.92h82.52A69.4,69.4,0,0,0,449.15,215.28Z"/><path class="cls-7" d="M364.49,267h71.69a67.61,67.61,0,0,0,4.4-6.69H358.06A54.13,54.13,0,0,0,364.49,267Z"/><polygon class="cls-6" points="436.14 116.49 356.54 130.09 348.24 203.71 447.76 203.71 436.14 116.49"/><polygon class="cls-6" points="413.35 41.09 382.3 41.09 351.25 41.09 351.25 88.15 373.12 88.15 382.46 105.38 391.13 88.15 444.4 88.15 444.4 41.09 413.35 41.09"/><circle class="cls-8" cx="382.3" cy="64.62" r="12.46"/><polyline class="cls-9" points="377.14 64.17 380.88 67.91 387.45 61.34"/><path class="cls-7" d="M419.67,52.6a4.71,4.71,0,0,0-9.41,0,3.4,3.4,0,0,0,0,.45h2a2.6,2.6,0,0,1,0-.4,2.67,2.67,0,0,1,5.33,0,2.6,2.6,0,0,1,0,.4h2A3.4,3.4,0,0,0,419.67,52.6Z"/><path class="cls-10" d="M425.36,61.6V56.86a3.93,3.93,0,0,0-3.93-3.93H409.09V61.6h0V79h16.27V61.6Z"/><path class="cls-10" d="M404.57,58.53v15.8c0,2.56,1.76,4.63,3.93,4.63h12.34V58.53Z"/><path class="cls-10" d="M403.44,52.93H422a0,0,0,0,1,0,0v6.25a2.42,2.42,0,0,1-2.42,2.42H405.86a2.42,2.42,0,0,1-2.42-2.42V52.93A0,0,0,0,1,403.44,52.93Z"/><rect class="cls-6" x="410.53" y="58.53" width="3.07" height="6.15"/></g></g></svg>