<svg xmlns="http://www.w3.org/2000/svg" xmlns:xlink="http://www.w3.org/1999/xlink" viewBox="0 0 743 300"><defs><style>.cls-1,.cls-10,.cls-13,.cls-18,.cls-5,.cls-7{fill:none;}.cls-2{clip-path:url(#clip-path);}.cls-3{fill:#0abf53;}.cls-14,.cls-17,.cls-4,.cls-9{fill:#fff;}.cls-10,.cls-11,.cls-12,.cls-14,.cls-15,.cls-17,.cls-18,.cls-19,.cls-5,.cls-9{stroke:#00112e;}.cls-10,.cls-11,.cls-12,.cls-13,.cls-15,.cls-17,.cls-18,.cls-19,.cls-5,.cls-7,.cls-9{stroke-linecap:round;}.cls-10,.cls-11,.cls-12,.cls-13,.cls-14,.cls-15,.cls-17,.cls-18,.cls-19,.cls-5,.cls-7,.cls-9{stroke-linejoin:round;}.cls-10,.cls-11,.cls-12,.cls-13,.cls-14,.cls-15,.cls-5,.cls-6,.cls-7,.cls-9{stroke-width:0.87px;}.cls-6{fill:#00112c;stroke:#00112c;stroke-miterlimit:10;}.cls-7{stroke:#fff;}.cls-12,.cls-19,.cls-8{fill:#00c341;}.cls-10{stroke-dasharray:0 4.22;}.cls-11,.cls-20{fill:#00112e;}.cls-13{stroke:#00c341;}.cls-15{fill:#f1f5f8;}.cls-16{clip-path:url(#clip-path-2);}.cls-17,.cls-18,.cls-19{stroke-width:1.21px;}</style><clipPath id="clip-path"><rect class="cls-1" width="743" height="300"/></clipPath><clipPath id="clip-path-2"><rect class="cls-1" x="1085.7" width="503" height="300"/></clipPath></defs><g id="Layer_1" data-name="Layer 1"><g class="cls-2"><rect class="cls-3" x="-417.08" y="-58.09" width="1578.18" height="403.59"/><path class="cls-4" d="M214,41.09H81.62A11.61,11.61,0,0,0,70,52.71v206H225.64v-206A11.61,11.61,0,0,0,214,41.09Z"/><path class="cls-5" d="M214,41.09H81.62A11.61,11.61,0,0,0,70,52.71v206H225.64v-206A11.61,11.61,0,0,0,214,41.09Z"/><path class="cls-6" d="M81.62,258.33H214a11.62,11.62,0,0,1,11.62,11.62v0a0,0,0,0,1,0,0H70a0,0,0,0,1,0,0v0a11.62,11.62,0,0,1,11.62-11.62Z" transform="translate(295.65 528.28) rotate(-180)"/><path class="cls-6" d="M81.62,41.09H214a11.62,11.62,0,0,1,11.62,11.62v0a0,0,0,0,1,0,0H70a0,0,0,0,1,0,0v0A11.62,11.62,0,0,1,81.62,41.09Z"/><path class="cls-7" d="M151,264.14a3.22,3.22,0,0,1-6.43,0,3.22,3.22,0,1,1,6.43,0Z"/><circle class="cls-4" cx="147.83" cy="46.9" r="0.77"/><circle class="cls-8" cx="148.61" cy="87.47" r="15.28"/><polyline class="cls-7" points="142.29 86.91 146.88 91.49 154.94 83.44"/><rect class="cls-9" x="86.27" y="204.63" width="122.75" height="35.9"/><path class="cls-8" d="M189.42,214.05h0a6.56,6.56,0,0,0-.15,8.42h0a21.68,21.68,0,0,1,4.07,8.07l.72,2.71.71-2.71a21.68,21.68,0,0,1,4.07-8.07h0a6.56,6.56,0,0,0-.15-8.42h0A6.14,6.14,0,0,0,189.42,214.05Z"/><ellipse class="cls-4" cx="194.06" cy="218.2" rx="1.9" ry="1.96"/><line class="cls-5" x1="98.4" y1="222.59" x2="98.4" y2="222.59"/><line class="cls-10" x1="102.62" y1="222.59" x2="180.71" y2="222.59"/><line class="cls-5" x1="182.82" y1="222.59" x2="182.82" y2="222.59"/><circle class="cls-8" cx="120.96" cy="222.83" r="4.12"/><path class="cls-11" d="M159.48,126.9a10.41,10.41,0,1,0-20.81,0c0,.33,0,.67.05,1h4.53a6.54,6.54,0,0,1-.07-.89,5.9,5.9,0,1,1,11.8,0,6.54,6.54,0,0,1-.07.89h4.52C159.46,127.57,159.48,127.23,159.48,126.9Z"/><path class="cls-12" d="M172.09,146.82v-10.5a8.71,8.71,0,0,0-8.71-8.71H136.07v19.21h0v38.42h36V146.82Z"/><path class="cls-12" d="M126.07,140v35c0,5.66,3.89,10.25,8.7,10.25h27.31V140Z"/><path class="cls-12" d="M123.56,127.61h41a0,0,0,0,1,0,0v13.84a5.37,5.37,0,0,1-5.37,5.37H128.93a5.37,5.37,0,0,1-5.37-5.37V127.61A0,0,0,0,1,123.56,127.61Z"/><rect class="cls-9" x="139.26" y="140.02" width="6.8" height="13.61"/><path class="cls-9" d="M362.46,175.85h0a4.07,4.07,0,0,1,4.06,4.07v6.72a4.06,4.06,0,0,1-4.06,4.06h0"/><path class="cls-11" d="M298.9,155l4.44-22.18a5.28,5.28,0,0,1,5.18-4.25h30.65a5.3,5.3,0,0,1,5.19,4.25L348.79,155"/><path class="cls-11" d="M348.79,243.52l-4.43,22.18a5.3,5.3,0,0,1-5.19,4.25H308.52a5.28,5.28,0,0,1-5.18-4.25l-4.44-22.18"/><rect class="cls-9" x="285.24" y="154.96" width="77.22" height="88.56" rx="11.61"/><rect class="cls-9" x="289.65" y="160.02" width="68.4" height="78.44" rx="7.26"/><rect class="cls-9" x="289.65" y="160.02" width="68.4" height="78.44" rx="7.26"/><polygon class="cls-9" points="355.96 41.09 293.86 41.09 293.86 88.15 315.73 88.15 325.08 105.38 333.74 88.15 355.96 88.15 355.96 41.09"/><circle class="cls-8" cx="324.91" cy="64.62" r="15.28"/><polyline class="cls-7" points="318.59 64.06 323.18 68.65 331.23 60.59"/><path class="cls-11" d="M331.9,181.71a7.19,7.19,0,1,0-14.38,0c0,.23,0,.46,0,.69h3.13a4.08,4.08,0,1,1,8.05,0h3.13Q331.9,182.05,331.9,181.71Z"/><path class="cls-12" d="M340.61,195.48v-7.26a6,6,0,0,0-6-6H315.73v13.27h0V222h24.88V195.48Z"/><path class="cls-12" d="M308.81,190.78v24.16c0,3.91,2.7,7.08,6,7.08H333.7V190.78Z"/><path class="cls-12" d="M307.08,182.21h28.34a0,0,0,0,1,0,0v9.56a3.71,3.71,0,0,1-3.71,3.71H310.79a3.71,3.71,0,0,1-3.71-3.71v-9.56A0,0,0,0,1,307.08,182.21Z"/><rect class="cls-9" x="317.93" y="190.78" width="4.7" height="9.4"/><rect class="cls-9" x="426.25" y="91.65" width="87.81" height="163.68" transform="translate(940.32 346.98) rotate(180)"/><path class="cls-11" d="M426.12,255.33H514a0,0,0,0,1,0,0v7.55a7.06,7.06,0,0,1-7.06,7.06H433.18a7.06,7.06,0,0,1-7.06-7.06v-7.55A0,0,0,0,1,426.12,255.33Z"/><path class="cls-11" d="M433.18,77H506.9A7.06,7.06,0,0,1,514,84.1v7.55a0,0,0,0,1,0,0H426.12a0,0,0,0,1,0,0V84.1A7.06,7.06,0,0,1,433.18,77Z"/><ellipse class="cls-4" cx="470.04" cy="84.34" rx="0.7" ry="0.73"/><path class="cls-7" d="M473.78,262.64a4,4,0,0,1-1.09,2.76,3.67,3.67,0,0,1-2.65,1.15,3.82,3.82,0,0,1-3.74-3.91,4,4,0,0,1,1.09-2.77,3.7,3.7,0,0,1,2.65-1.14A3.82,3.82,0,0,1,473.78,262.64Z"/><path class="cls-13" d="M472.69,265.4a3.67,3.67,0,0,1-2.65,1.15,3.82,3.82,0,0,1-3.74-3.91,4,4,0,0,1,1.09-2.77"/><circle class="cls-8" cx="470.09" cy="224.21" r="15.28"/><polyline class="cls-7" points="463.77 223.65 468.36 228.24 476.41 220.18"/><path class="cls-11" d="M478.14,125.19a7.19,7.19,0,1,0-14.37,0q0,.34,0,.69h3.13a4.08,4.08,0,1,1,8.05,0h3.13Q478.14,125.54,478.14,125.19Z"/><path class="cls-12" d="M486.85,139V131.7a6,6,0,0,0-6-6H462V139h0V165.5h24.88V139Z"/><path class="cls-12" d="M455.06,134.26v24.16c0,3.91,2.69,7.08,6,7.08h18.87V134.26Z"/><path class="cls-12" d="M453.33,125.68h28.34a0,0,0,0,1,0,0v9.56A3.71,3.71,0,0,1,478,139H457a3.71,3.71,0,0,1-3.71-3.71v-9.56A0,0,0,0,1,453.33,125.68Z"/><rect class="cls-9" x="464.17" y="134.26" width="4.7" height="9.4"/><line class="cls-14" x1="453.98" y1="174.23" x2="470.09" y2="174.23"/><rect class="cls-5" x="453.98" y="185.93" width="32.23" height="3.9"/><rect class="cls-5" x="453.98" y="178.13" width="16.11" height="3.9"/><rect class="cls-11" x="470.09" y="178.13" width="16.11" height="3.9"/><rect class="cls-5" x="453.98" y="193.73" width="32.23" height="3.9"/><path class="cls-15" d="M677.07,215.28l-1.39-11.57H576.16l-.34,3-1.57,10.72A55.33,55.33,0,0,0,586,260.32h82.52A69.33,69.33,0,0,0,677.07,215.28Z"/><path class="cls-11" d="M592.42,267h71.69a69.45,69.45,0,0,0,4.4-6.69H586A53.41,53.41,0,0,0,592.42,267Z"/><polygon class="cls-9" points="664.06 116.49 584.46 130.09 576.16 203.71 675.69 203.71 664.06 116.49"/><polygon class="cls-9" points="641.27 41.09 610.22 41.09 579.17 41.09 579.17 88.15 601.04 88.15 610.39 105.38 619.05 88.15 672.32 88.15 672.32 41.09 641.27 41.09"/><circle class="cls-8" cx="610.22" cy="64.62" r="12.46"/><polyline class="cls-7" points="605.07 64.17 608.81 67.91 615.38 61.34"/><path class="cls-11" d="M647.59,52.6a4.7,4.7,0,0,0-9.4,0c0,.15,0,.3,0,.45h2a2.58,2.58,0,0,1,0-.4,2.67,2.67,0,0,1,5.33,0,2.6,2.6,0,0,1,0,.4h2.05C647.58,52.9,647.59,52.75,647.59,52.6Z"/><path class="cls-12" d="M653.28,61.6V56.86a3.93,3.93,0,0,0-3.93-3.93H637V61.6h0V79h16.27V61.6Z"/><path class="cls-12" d="M632.49,58.53v15.8c0,2.56,1.76,4.63,3.94,4.63h12.33V58.53Z"/><path class="cls-12" d="M631.36,52.93H649.9a0,0,0,0,1,0,0v6.25a2.42,2.42,0,0,1-2.42,2.42H633.79a2.42,2.42,0,0,1-2.42-2.42V52.93A0,0,0,0,1,631.36,52.93Z"/><rect class="cls-9" x="638.45" y="58.53" width="3.07" height="6.15"/></g><g class="cls-16"><rect class="cls-3" x="440.7" y="-58.09" width="1578.18" height="403.59"/><path class="cls-17" d="M582.29,224.86H547.81a29.48,29.48,0,0,1-29.48-29.48V169h0a143.67,143.67,0,0,1,93.39,0h0v26.43A29.48,29.48,0,0,1,582.29,224.86Z"/><polyline class="cls-18" points="518.33 168.95 565.05 196.91 611.77 168.95"/><rect class="cls-19" x="556.97" y="186.66" width="16.09" height="16.09" rx="8.05"/><rect class="cls-17" x="628.22" y="213.11" width="95.49" height="11.04" rx="5.52"/><rect class="cls-20" x="628.22" y="202.07" width="95.49" height="11.04" rx="5.52"/><rect class="cls-17" x="628.22" y="157.9" width="95.49" height="11.04" rx="5.52"/><rect class="cls-20" x="628.22" y="146.86" width="95.49" height="11.04" rx="5.52"/><rect class="cls-17" x="628.22" y="191.02" width="95.49" height="11.04" rx="5.52"/><rect class="cls-17" x="628.22" y="179.98" width="95.49" height="11.04" rx="5.52"/><rect class="cls-20" x="628.22" y="168.94" width="95.49" height="11.04" rx="5.52"/></g></g></svg>