<svg xmlns="http://www.w3.org/2000/svg" xmlns:xlink="http://www.w3.org/1999/xlink" viewBox="0 0 983 300"><defs><style>.cls-1,.cls-12,.cls-15,.cls-20,.cls-7,.cls-9{fill:none;}.cls-2{clip-path:url(#clip-path);}.cls-3{fill:#0abf53;}.cls-13,.cls-4{fill:#00112e;}.cls-11,.cls-12,.cls-13,.cls-14,.cls-16,.cls-17,.cls-19,.cls-20,.cls-21,.cls-4,.cls-7{stroke:#00112e;}.cls-11,.cls-12,.cls-13,.cls-14,.cls-15,.cls-17,.cls-19,.cls-20,.cls-21,.cls-4,.cls-7,.cls-9{stroke-linecap:round;}.cls-11,.cls-12,.cls-13,.cls-14,.cls-15,.cls-16,.cls-17,.cls-19,.cls-20,.cls-21,.cls-4,.cls-7,.cls-9{stroke-linejoin:round;}.cls-19,.cls-20,.cls-21,.cls-4{stroke-width:1.21px;}.cls-5{clip-path:url(#clip-path-2);}.cls-11,.cls-16,.cls-19,.cls-6{fill:#fff;}.cls-11,.cls-12,.cls-13,.cls-14,.cls-15,.cls-16,.cls-17,.cls-7,.cls-8,.cls-9{stroke-width:0.87px;}.cls-8{fill:#00112c;stroke:#00112c;stroke-miterlimit:10;}.cls-9{stroke:#fff;}.cls-10,.cls-14,.cls-21{fill:#00c341;}.cls-12{stroke-dasharray:0 4.22;}.cls-15{stroke:#00c341;}.cls-17{fill:#f1f5f8;}.cls-18{clip-path:url(#clip-path-3);}</style><clipPath id="clip-path"><rect class="cls-1" x="-1351.52" width="1188" height="300"/></clipPath><clipPath id="clip-path-2"><rect class="cls-1" width="983" height="300"/></clipPath><clipPath id="clip-path-3"><rect class="cls-1" x="1334.82" width="743" height="300"/></clipPath></defs><g id="Layer_1" data-name="Layer 1"><g class="cls-2"><rect class="cls-3" x="-1547.9" y="-58.09" width="1578.18" height="403.59"/><rect class="cls-4" x="-361.73" y="223.91" width="465.13" height="12.29"/><path class="cls-4" d="M59.64,222.52s-19.85,1.5-30,1.51S1.08,221.34-7.46,201.3l-7.47-12.52-.57,34.7-15.84.15-.42-103H10.77S3.27,184.44,50.48,207A15.93,15.93,0,0,1,59.64,222.52Z"/></g><g class="cls-5"><rect class="cls-3" x="-309.24" y="-58.09" width="1578.18" height="403.59"/><path class="cls-6" d="M321.87,41.09H189.47a11.62,11.62,0,0,0-11.62,11.62v206H333.49v-206A11.62,11.62,0,0,0,321.87,41.09Z"/><path class="cls-7" d="M321.87,41.09H189.47a11.62,11.62,0,0,0-11.62,11.62v206H333.49v-206A11.62,11.62,0,0,0,321.87,41.09Z"/><path class="cls-8" d="M189.47,258.33h132.4a11.62,11.62,0,0,1,11.62,11.62v0a0,0,0,0,1,0,0H177.85a0,0,0,0,1,0,0v0A11.62,11.62,0,0,1,189.47,258.33Z" transform="translate(511.33 528.28) rotate(-180)"/><path class="cls-8" d="M189.47,41.09h132.4a11.62,11.62,0,0,1,11.62,11.62v0a0,0,0,0,1,0,0H177.85a0,0,0,0,1,0,0v0A11.62,11.62,0,0,1,189.47,41.09Z"/><path class="cls-9" d="M258.88,264.14a3.22,3.22,0,0,1-6.43,0,3.22,3.22,0,1,1,6.43,0Z"/><circle class="cls-6" cx="255.67" cy="46.9" r="0.77"/><circle class="cls-10" cx="256.45" cy="87.47" r="15.28"/><polyline class="cls-9" points="250.13 86.91 254.72 91.49 262.78 83.44"/><rect class="cls-11" x="194.11" y="204.63" width="122.75" height="35.9"/><path class="cls-10" d="M297.26,214.05h0a6.57,6.57,0,0,0-.15,8.42h0a21.68,21.68,0,0,1,4.07,8.07l.72,2.71.71-2.71a21.68,21.68,0,0,1,4.07-8.07h0a6.57,6.57,0,0,0-.16-8.42h0A6.14,6.14,0,0,0,297.26,214.05Z"/><ellipse class="cls-6" cx="301.9" cy="218.2" rx="1.9" ry="1.96"/><line class="cls-7" x1="206.24" y1="222.59" x2="206.24" y2="222.59"/><line class="cls-12" x1="210.46" y1="222.59" x2="288.55" y2="222.59"/><line class="cls-7" x1="290.66" y1="222.59" x2="290.66" y2="222.59"/><circle class="cls-10" cx="228.8" cy="222.83" r="4.12"/><path class="cls-13" d="M267.32,126.9a10.41,10.41,0,1,0-20.81,0c0,.33,0,.67.05,1h4.53A6.54,6.54,0,0,1,251,127a5.9,5.9,0,1,1,11.8,0,6.54,6.54,0,0,1-.07.89h4.53C267.31,127.57,267.32,127.23,267.32,126.9Z"/><path class="cls-14" d="M279.93,146.82v-10.5a8.71,8.71,0,0,0-8.71-8.71H243.91v19.21h0v38.42h36V146.82Z"/><path class="cls-14" d="M233.91,140v35c0,5.66,3.9,10.25,8.71,10.25h27.31V140Z"/><path class="cls-14" d="M231.4,127.61h41a0,0,0,0,1,0,0v13.84a5.37,5.37,0,0,1-5.37,5.37H236.77a5.37,5.37,0,0,1-5.37-5.37V127.61A0,0,0,0,1,231.4,127.61Z"/><rect class="cls-11" x="247.1" y="140.02" width="6.8" height="13.61"/><path class="cls-11" d="M470.3,175.85h0a4.07,4.07,0,0,1,4.07,4.07v6.72a4.07,4.07,0,0,1-4.07,4.06h0"/><path class="cls-13" d="M406.74,155l4.44-22.18a5.28,5.28,0,0,1,5.18-4.25H447a5.28,5.28,0,0,1,5.18,4.25L456.64,155"/><path class="cls-13" d="M456.64,243.52,452.2,265.7A5.28,5.28,0,0,1,447,270H416.36a5.28,5.28,0,0,1-5.18-4.25l-4.44-22.18"/><rect class="cls-11" x="393.08" y="154.96" width="77.22" height="88.56" rx="11.61"/><rect class="cls-11" x="397.49" y="160.02" width="68.4" height="78.44" rx="7.26"/><rect class="cls-11" x="397.49" y="160.02" width="68.4" height="78.44" rx="7.26"/><polygon class="cls-11" points="463.8 41.09 401.7 41.09 401.7 88.15 423.57 88.15 432.92 105.38 441.58 88.15 463.8 88.15 463.8 41.09"/><circle class="cls-10" cx="432.75" cy="64.62" r="15.28"/><polyline class="cls-9" points="426.43 64.06 431.02 68.65 439.07 60.59"/><path class="cls-13" d="M439.74,181.71a7.19,7.19,0,1,0-14.37,0q0,.34,0,.69h3.13a4.08,4.08,0,1,1,8.05,0h3.13Q439.74,182.05,439.74,181.71Z"/><path class="cls-14" d="M448.45,195.48v-7.26a6,6,0,0,0-6-6H423.57v13.27h0V222h24.88V195.48Z"/><path class="cls-14" d="M416.66,190.78v24.16c0,3.91,2.69,7.08,6,7.08h18.87V190.78Z"/><path class="cls-14" d="M414.93,182.21h28.34a0,0,0,0,1,0,0v9.56a3.71,3.71,0,0,1-3.71,3.71H418.64a3.71,3.71,0,0,1-3.71-3.71v-9.56A0,0,0,0,1,414.93,182.21Z"/><rect class="cls-11" x="425.77" y="190.78" width="4.7" height="9.4"/><rect class="cls-11" x="534.09" y="91.65" width="87.81" height="163.68" transform="translate(1156 346.98) rotate(180)"/><path class="cls-13" d="M534,255.33H621.8a0,0,0,0,1,0,0v7.55a7.06,7.06,0,0,1-7.06,7.06H541a7.06,7.06,0,0,1-7.06-7.06v-7.55A0,0,0,0,1,534,255.33Z"/><path class="cls-13" d="M541,77h73.72a7.06,7.06,0,0,1,7.06,7.06v7.55a0,0,0,0,1,0,0H534a0,0,0,0,1,0,0V84.1A7.06,7.06,0,0,1,541,77Z"/><ellipse class="cls-6" cx="577.88" cy="84.34" rx="0.7" ry="0.73"/><path class="cls-9" d="M581.62,262.64a4,4,0,0,1-1.09,2.76,3.67,3.67,0,0,1-2.65,1.15,3.82,3.82,0,0,1-3.74-3.91,4,4,0,0,1,1.09-2.77,3.7,3.7,0,0,1,2.65-1.14A3.82,3.82,0,0,1,581.62,262.64Z"/><path class="cls-15" d="M580.53,265.4a3.67,3.67,0,0,1-2.65,1.15,3.82,3.82,0,0,1-3.74-3.91,4,4,0,0,1,1.09-2.77"/><circle class="cls-10" cx="577.93" cy="224.21" r="15.28"/><polyline class="cls-9" points="571.61 223.65 576.2 228.24 584.25 220.18"/><path class="cls-13" d="M586,125.19a7.19,7.19,0,0,0-14.38,0q0,.34,0,.69h3.13a4.08,4.08,0,1,1,8.05,0H586C586,125.65,586,125.42,586,125.19Z"/><path class="cls-14" d="M594.7,139V131.7a6,6,0,0,0-6-6H569.81V139h0V165.5H594.7V139Z"/><path class="cls-14" d="M562.9,134.26v24.16c0,3.91,2.69,7.08,6,7.08h18.86V134.26Z"/><path class="cls-14" d="M561.17,125.68h28.34a0,0,0,0,1,0,0v9.56A3.71,3.71,0,0,1,585.8,139H564.88a3.71,3.71,0,0,1-3.71-3.71v-9.56A0,0,0,0,1,561.17,125.68Z"/><rect class="cls-11" x="572.01" y="134.26" width="4.7" height="9.4"/><line class="cls-16" x1="561.82" y1="174.23" x2="577.93" y2="174.23"/><rect class="cls-7" x="561.82" y="185.93" width="32.23" height="3.9"/><rect class="cls-7" x="561.82" y="178.13" width="16.11" height="3.9"/><rect class="cls-13" x="577.93" y="178.13" width="16.11" height="3.9"/><rect class="cls-7" x="561.82" y="193.73" width="32.23" height="3.9"/><path class="cls-17" d="M784.92,215.28l-1.4-11.57H684l-.34,3-1.57,10.72a55.37,55.37,0,0,0,11.74,42.92h82.52A69.4,69.4,0,0,0,784.92,215.28Z"/><path class="cls-13" d="M700.26,267H772a69.45,69.45,0,0,0,4.4-6.69H693.83A53.41,53.41,0,0,0,700.26,267Z"/><polygon class="cls-11" points="771.9 116.49 692.3 130.09 684.01 203.71 783.53 203.71 771.9 116.49"/><polygon class="cls-11" points="749.12 41.09 718.06 41.09 687.01 41.09 687.01 88.15 708.88 88.15 718.23 105.38 726.89 88.15 780.17 88.15 780.17 41.09 749.12 41.09"/><circle class="cls-10" cx="718.06" cy="64.62" r="12.46"/><polyline class="cls-9" points="712.91 64.17 716.65 67.91 723.22 61.34"/><path class="cls-13" d="M755.43,52.6a4.7,4.7,0,1,0-9.4,0c0,.15,0,.3,0,.45h2.05a2.58,2.58,0,0,1,0-.4,2.67,2.67,0,0,1,5.34,0,2.58,2.58,0,0,1,0,.4h2C755.42,52.9,755.43,52.75,755.43,52.6Z"/><path class="cls-14" d="M761.13,61.6V56.86a3.94,3.94,0,0,0-3.94-3.93H744.85V61.6h0V79h16.28V61.6Z"/><path class="cls-14" d="M740.33,58.53v15.8c0,2.56,1.77,4.63,3.94,4.63h12.34V58.53Z"/><path class="cls-14" d="M739.2,52.93h18.53a0,0,0,0,1,0,0v6.25a2.42,2.42,0,0,1-2.42,2.42H741.63a2.42,2.42,0,0,1-2.42-2.42V52.93A0,0,0,0,1,739.2,52.93Z"/><rect class="cls-11" x="746.3" y="58.53" width="3.07" height="6.15"/></g><g class="cls-18"><rect class="cls-3" x="917.74" y="-58.09" width="1578.18" height="403.59"/><path class="cls-19" d="M951.41,224.86H916.93a29.48,29.48,0,0,1-29.48-29.48V169h0a143.67,143.67,0,0,1,93.39,0h0v26.43A29.48,29.48,0,0,1,951.41,224.86Z"/><polyline class="cls-20" points="887.45 168.95 934.17 196.91 980.89 168.95"/><rect class="cls-21" x="926.1" y="186.66" width="16.09" height="16.09" rx="8.05"/></g></g></svg>