<svg xmlns="http://www.w3.org/2000/svg" xmlns:xlink="http://www.w3.org/1999/xlink" viewBox="0 0 1188 300"><defs><style>.cls-1,.cls-6{fill:none;}.cls-2{clip-path:url(#clip-path);}.cls-3{fill:#f3f6f9;}.cls-4{fill:#ff487c;}.cls-5{fill:#fff;}.cls-5,.cls-6,.cls-7,.cls-8{stroke:#00112c;stroke-linecap:round;stroke-linejoin:round;stroke-width:2.05px;}.cls-7{fill:#00112c;}.cls-8{fill:#0abf53;}</style><clipPath id="clip-path"><rect class="cls-1" y="-0.07" width="1188" height="300.07"/></clipPath></defs><g id="Layer_1" data-name="Layer 1"><g class="cls-2"><rect class="cls-3" x="297.46" width="296.39" height="300"/><rect class="cls-3" x="594.24" width="296.39" height="300"/><rect class="cls-4" x="891.16" width="296.84" height="300"/><rect class="cls-5" x="955.23" y="119.84" width="76.74" height="61.39"/><polygon class="cls-6" points="955.23 181.23 993.6 142.86 1031.97 181.23 955.23 181.23"/><polygon class="cls-5" points="1031.97 119.84 993.6 158.21 955.23 119.84 1031.97 119.84"/><rect class="cls-5" x="1052.43" y="119.84" width="76.74" height="61.39"/><polygon class="cls-6" points="1052.43 181.23 1090.8 142.86 1129.17 181.23 1052.43 181.23"/><polygon class="cls-5" points="1129.17 119.84 1090.8 158.21 1052.43 119.84 1129.17 119.84"/><rect class="cls-5" x="955.23" y="37.98" width="76.74" height="61.39"/><polygon class="cls-6" points="955.23 99.37 993.6 61 1031.97 99.37 955.23 99.37"/><polygon class="cls-5" points="1031.97 37.98 993.6 76.35 955.23 37.98 1031.97 37.98"/><rect class="cls-5" x="1052.43" y="37.98" width="76.74" height="61.39"/><polygon class="cls-6" points="1052.43 99.37 1090.8 61 1129.17 99.37 1052.43 99.37"/><polygon class="cls-5" points="1129.17 37.98 1090.8 76.35 1052.43 37.98 1129.17 37.98"/><rect class="cls-5" x="955.23" y="201.69" width="76.74" height="61.39"/><polygon class="cls-6" points="955.23 263.08 993.6 224.71 1031.97 263.08 955.23 263.08"/><polygon class="cls-5" points="1031.97 201.69 993.6 240.06 955.23 201.69 1031.97 201.69"/><rect class="cls-5" x="1052.43" y="201.69" width="76.74" height="61.39"/><polygon class="cls-6" points="1052.43 263.08 1090.8 224.71 1129.17 263.08 1052.43 263.08"/><polygon class="cls-5" points="1129.17 201.69 1090.8 240.06 1052.43 201.69 1129.17 201.69"/><rect class="cls-5" x="726.84" y="42.58" width="34.1" height="217.09"/><rect class="cls-7" x="771.18" y="181.23" width="34.1" height="78.45"/><rect class="cls-8" x="815.51" y="113.02" width="34.1" height="146.66"/><rect class="cls-7" x="682.5" y="113.02" width="34.1" height="146.66"/><rect class="cls-5" x="638.17" y="150.54" width="34.1" height="109.14"/><rect class="cls-5" x="375.96" y="48.21" width="143.25" height="204.64" rx="2.05"/><line class="cls-5" x1="396.42" y1="68.68" x2="498.74" y2="68.68"/><line class="cls-5" x1="396.42" y1="89.14" x2="498.74" y2="89.14"/><line class="cls-5" x1="396.42" y1="109.61" x2="498.74" y2="109.61"/><line class="cls-5" x1="396.42" y1="130.07" x2="498.74" y2="130.07"/><line class="cls-5" x1="396.42" y1="150.53" x2="498.74" y2="150.53"/><line class="cls-5" x1="396.42" y1="171" x2="498.74" y2="171"/><line class="cls-5" x1="396.42" y1="191.46" x2="498.74" y2="191.46"/><line class="cls-5" x1="396.42" y1="211.92" x2="498.74" y2="211.92"/><line class="cls-5" x1="396.42" y1="232.39" x2="498.74" y2="232.39"/><polygon class="cls-8" points="519.2 89.14 478.28 89.14 478.28 48.21 519.2 89.14"/><polygon class="cls-7" points="478.28 48.21 519.2 48.21 519.2 89.14 478.28 48.21"/><rect class="cls-4" y="-0.07" width="297.46" height="300.13"/><rect class="cls-5" x="62.29" y="63.56" width="76.74" height="76.74" rx="38.37"/><rect class="cls-5" x="69.97" y="71.24" width="61.39" height="61.39" rx="30.7"/><path class="cls-6" d="M107.45,95.14a6.79,6.79,0,0,0-6.79-6.79h0a6.79,6.79,0,0,0-6.79,6.79h0a6.79,6.79,0,0,0,6.79,6.79h0a6.79,6.79,0,0,1,6.79,6.79h0a6.79,6.79,0,0,1-6.79,6.8h0a6.79,6.79,0,0,1-6.79-6.8"/><line class="cls-6" x1="100.66" y1="88.35" x2="100.66" y2="84.95"/><line class="cls-6" x1="100.66" y1="118.91" x2="100.66" y2="88.35"/><rect class="cls-5" x="62.29" y="160.76" width="76.74" height="76.74" rx="38.37"/><rect class="cls-5" x="159.49" y="160.76" width="76.74" height="76.74" rx="38.37"/><rect class="cls-5" x="159.49" y="63.56" width="76.74" height="76.74" rx="38.37"/><path class="cls-6" d="M211.15,109.61a15.36,15.36,0,1,1,0-15.35"/><line class="cls-6" x1="174.84" y1="105.77" x2="197.86" y2="105.77"/><line class="cls-6" x1="174.84" y1="98.09" x2="197.86" y2="98.09"/><path class="cls-6" d="M110.25,191.46h0a7.66,7.66,0,0,0-7.67-7.67h0a7.66,7.66,0,0,0-7.67,7.67v23h15.34"/><line class="cls-6" x1="98.74" y1="199.13" x2="91.07" y2="199.13"/><line class="cls-6" x1="182.52" y1="211.41" x2="182.52" y2="199.13"/><path class="cls-6" d="M188.66,199.13h-6.14V186.86h6.14a6.13,6.13,0,0,1,6.13,6.14h0A6.12,6.12,0,0,1,188.66,199.13Z"/><line class="cls-6" x1="188.66" y1="199.13" x2="194.79" y2="211.41"/><path class="cls-6" d="M213.21,193h0a6.13,6.13,0,0,0-6.14-6.14h0a6.13,6.13,0,0,0-6.14,6.14h0a6.13,6.13,0,0,0,6.14,6.13h0a6.14,6.14,0,0,1,6.14,6.14h0a6.14,6.14,0,0,1-6.14,6.14h0a6.14,6.14,0,0,1-6.14-6.14h0"/><line class="cls-6" x1="207.07" y1="183.79" x2="207.07" y2="214.48"/><rect class="cls-6" x="167.17" y="168.44" width="61.39" height="61.39" rx="30.7"/><line class="cls-6" x1="594.24" y1="-27.76" x2="594.24" y2="319.41"/><line class="cls-6" x1="890.37" y1="-27.76" x2="890.37" y2="319.41"/><line class="cls-6" x1="297.46" y1="-27.76" x2="297.46" y2="319.41"/><circle class="cls-5" cx="890.37" cy="37.98" r="10.23"/><circle class="cls-5" cx="594.24" cy="193" r="10.23"/><circle class="cls-5" cx="297.46" cy="48.21" r="10.23"/></g></g></svg>