<svg xmlns="http://www.w3.org/2000/svg" xmlns:xlink="http://www.w3.org/1999/xlink" viewBox="0 0 1500 300"><defs><style>.cls-1,.cls-6{fill:none;}.cls-2{clip-path:url(#clip-path);}.cls-3{fill:#f3f6f9;}.cls-4{fill:#ff487c;}.cls-5{fill:#fff;}.cls-5,.cls-6,.cls-7,.cls-8{stroke:#00112c;stroke-linecap:round;stroke-linejoin:round;stroke-width:2.05px;}.cls-7{fill:#00112c;}.cls-8{fill:#0abf53;}</style><clipPath id="clip-path"><rect class="cls-1" x="-0.6" width="1500.6" height="300"/></clipPath></defs><g id="Layer_1" data-name="Layer 1"><g class="cls-2"><rect class="cls-3" x="-0.6" width="1500.6" height="300"/><rect class="cls-4" x="900" width="299.99" height="300"/><rect class="cls-5" x="961.62" y="119.84" width="76.74" height="61.39"/><polygon class="cls-6" points="961.63 181.23 1000 142.86 1038.36 181.23 961.63 181.23"/><polygon class="cls-5" points="1038.36 119.84 1000 158.21 961.63 119.84 1038.36 119.84"/><rect class="cls-5" x="1058.83" y="119.84" width="76.74" height="61.39"/><polygon class="cls-6" points="1058.83 181.23 1097.2 142.86 1135.57 181.23 1058.83 181.23"/><polygon class="cls-5" points="1135.57 119.84 1097.2 158.21 1058.83 119.84 1135.57 119.84"/><rect class="cls-5" x="961.62" y="37.98" width="76.74" height="61.39"/><polygon class="cls-6" points="961.63 99.37 1000 61 1038.36 99.37 961.63 99.37"/><polygon class="cls-5" points="1038.36 37.98 1000 76.35 961.63 37.98 1038.36 37.98"/><rect class="cls-5" x="1058.83" y="37.98" width="76.74" height="61.39"/><polygon class="cls-6" points="1058.83 99.37 1097.2 61 1135.57 99.37 1058.83 99.37"/><polygon class="cls-5" points="1135.57 37.98 1097.2 76.35 1058.83 37.98 1135.57 37.98"/><rect class="cls-5" x="961.62" y="201.69" width="76.74" height="61.39"/><polygon class="cls-6" points="961.63 263.08 1000 224.71 1038.36 263.08 961.63 263.08"/><polygon class="cls-5" points="1038.36 201.69 1000 240.06 961.63 201.69 1038.36 201.69"/><rect class="cls-5" x="1058.83" y="201.69" width="76.74" height="61.39"/><polygon class="cls-6" points="1058.83 263.08 1097.2 224.71 1135.57 263.08 1058.83 263.08"/><polygon class="cls-5" points="1135.57 201.69 1097.2 240.06 1058.83 201.69 1135.57 201.69"/><rect class="cls-1" x="600.01" y="0.46" width="299.99" height="300.14"/><rect class="cls-1" x="300" y="0.46" width="300" height="300.14"/><rect class="cls-5" x="731.24" y="42.58" width="34.1" height="217.09"/><rect class="cls-7" x="775.57" y="181.23" width="34.1" height="78.45"/><rect class="cls-8" x="819.91" y="113.02" width="34.1" height="146.66"/><rect class="cls-7" x="686.9" y="113.02" width="34.1" height="146.66"/><rect class="cls-5" x="642.56" y="150.54" width="34.1" height="109.14"/><rect class="cls-5" x="378.35" y="48.21" width="143.25" height="204.64" rx="2.05"/><line class="cls-5" x1="398.82" y1="68.68" x2="501.14" y2="68.68"/><line class="cls-5" x1="398.82" y1="89.14" x2="501.14" y2="89.14"/><line class="cls-5" x1="398.82" y1="109.61" x2="501.14" y2="109.61"/><line class="cls-5" x1="398.82" y1="130.07" x2="501.14" y2="130.07"/><line class="cls-5" x1="398.82" y1="150.53" x2="501.14" y2="150.53"/><line class="cls-5" x1="398.82" y1="171" x2="501.14" y2="171"/><line class="cls-5" x1="398.82" y1="191.46" x2="501.14" y2="191.46"/><line class="cls-5" x1="398.82" y1="211.92" x2="501.14" y2="211.92"/><line class="cls-5" x1="398.82" y1="232.39" x2="501.14" y2="232.39"/><polygon class="cls-8" points="521.6 89.14 480.67 89.14 480.67 48.21 521.6 89.14"/><polygon class="cls-7" points="480.67 48.21 521.6 48.21 521.6 89.14 480.67 48.21"/><rect class="cls-1" x="1200" y="0.47" width="300" height="300.13"/><path class="cls-8" d="M1351.53,73.79V89.14a61.29,61.29,0,0,0-49.66,25.31l-12.41-9a76.7,76.7,0,0,1,62.07-31.64Z"/><path class="cls-7" d="M1315.46,200.19l-9,12.42a76.74,76.74,0,0,1-31.63-62.07h0a76.33,76.33,0,0,1,14.66-45.1l12.41,9a61.38,61.38,0,0,0,13.59,85.74Z"/><path class="cls-5" d="M1428.28,150.53h0a76.74,76.74,0,0,1-76.74,76.73h0a76.35,76.35,0,0,1-45.1-14.66l9-12.42a61.39,61.39,0,1,0,36.08-111h0V73.79h0a76.76,76.76,0,0,1,76.74,76.74Z"/><rect class="cls-4" y="-0.07" width="300" height="300.13"/><rect class="cls-5" x="64.69" y="63.56" width="76.74" height="76.74" rx="38.37"/><rect class="cls-5" x="72.36" y="71.24" width="61.39" height="61.39" rx="30.7"/><path class="cls-6" d="M109.85,95.14a6.79,6.79,0,0,0-6.79-6.79h0a6.8,6.8,0,0,0-6.8,6.79h0a6.8,6.8,0,0,0,6.8,6.79h0a6.79,6.79,0,0,1,6.79,6.79h0a6.79,6.79,0,0,1-6.79,6.8h0a6.8,6.8,0,0,1-6.8-6.8"/><line class="cls-6" x1="103.06" y1="88.35" x2="103.06" y2="84.95"/><line class="cls-6" x1="103.06" y1="118.91" x2="103.06" y2="88.35"/><rect class="cls-5" x="64.69" y="160.76" width="76.74" height="76.74" rx="38.37"/><rect class="cls-5" x="161.89" y="160.76" width="76.74" height="76.74" rx="38.37"/><rect class="cls-5" x="161.89" y="63.56" width="76.74" height="76.74" rx="38.37"/><path class="cls-6" d="M213.54,109.61a15.36,15.36,0,1,1,0-15.35"/><line class="cls-6" x1="177.24" y1="105.77" x2="200.26" y2="105.77"/><line class="cls-6" x1="177.24" y1="98.09" x2="200.26" y2="98.09"/><path class="cls-6" d="M112.65,191.46h0a7.67,7.67,0,0,0-7.67-7.67h0a7.67,7.67,0,0,0-7.68,7.67v23h15.35"/><line class="cls-6" x1="101.14" y1="199.13" x2="93.46" y2="199.13"/><line class="cls-6" x1="184.91" y1="211.41" x2="184.91" y2="199.13"/><path class="cls-6" d="M191.05,199.13h-6.14V186.86h6.14a6.13,6.13,0,0,1,6.14,6.14h0A6.13,6.13,0,0,1,191.05,199.13Z"/><line class="cls-6" x1="191.05" y1="199.13" x2="197.19" y2="211.41"/><path class="cls-6" d="M215.61,193h0a6.13,6.13,0,0,0-6.14-6.14h0a6.13,6.13,0,0,0-6.14,6.14h0a6.13,6.13,0,0,0,6.14,6.13h0a6.14,6.14,0,0,1,6.14,6.14h0a6.14,6.14,0,0,1-6.14,6.14h0a6.14,6.14,0,0,1-6.14-6.14h0"/><line class="cls-6" x1="209.47" y1="183.79" x2="209.47" y2="214.48"/><rect class="cls-6" x="169.56" y="168.44" width="61.39" height="61.39" rx="30.7"/><line class="cls-6" x1="600.01" y1="-27.76" x2="600.01" y2="319.41"/><line class="cls-6" x1="900" y1="-27.76" x2="900" y2="319.41"/><line class="cls-6" x1="1200" y1="-27.76" x2="1200" y2="319.41"/><line class="cls-6" x1="300" y1="-27.76" x2="300" y2="319.41"/><circle class="cls-5" cx="1200" cy="37.98" r="10.23"/><circle class="cls-5" cx="600.01" cy="193" r="10.23"/><circle class="cls-5" cx="300" cy="48.21" r="10.23"/></g></g></svg>