<svg xmlns="http://www.w3.org/2000/svg" viewBox="0 0 1920 1080"><defs><style>.cls-1,.cls-7{fill:#f3f6f9;}.cls-13,.cls-16,.cls-2{fill:none;}.cls-10,.cls-2,.cls-3,.cls-4,.cls-5,.cls-6,.cls-7,.cls-8{stroke:#00112c;}.cls-11,.cls-13,.cls-2,.cls-3,.cls-4,.cls-5,.cls-6,.cls-7{stroke-linecap:round;}.cls-11,.cls-13,.cls-14,.cls-2,.cls-3,.cls-4,.cls-5,.cls-6,.cls-7{stroke-linejoin:round;}.cls-10,.cls-11,.cls-13,.cls-14,.cls-2,.cls-3,.cls-4,.cls-5,.cls-6,.cls-7,.cls-8{stroke-width:2px;}.cls-3{fill:#ff487c;}.cls-10,.cls-4,.cls-9{fill:#fff;}.cls-11,.cls-12,.cls-14,.cls-5,.cls-8{fill:#00112c;}.cls-15,.cls-6{fill:#0abf53;}.cls-10,.cls-16,.cls-8{stroke-miterlimit:10;}.cls-11,.cls-14{stroke:#fff;}.cls-13{stroke:#e2e6ec;}.cls-16{stroke:#f3f6f9;stroke-width:4.06px;}</style></defs><g id="Layer_1" data-name="Layer 1"><rect class="cls-1" width="1920" height="1080"/><rect class="cls-2" x="960" y="686.67" width="286.67" height="293.33"/><rect class="cls-2" x="960" y="686.67" width="286.67" height="293.33"/><rect class="cls-2" x="100" y="100" width="860" height="586.67"/><rect class="cls-3" x="960" y="100" width="286.67" height="293.33"/><rect class="cls-2" x="1246.67" y="100" width="286.66" height="293.33"/><rect class="cls-2" x="1533.33" y="100" width="286.67" height="293.33"/><rect class="cls-2" x="1533.33" y="393.33" width="286.67" height="293.34"/><rect class="cls-2" x="1246.67" y="393.33" width="286.66" height="293.34"/><rect class="cls-2" x="960" y="393.33" width="286.67" height="293.34"/><rect class="cls-3" x="100" y="686.67" width="286.67" height="293.33"/><rect class="cls-2" x="386.67" y="686.67" width="286.66" height="293.33"/><rect class="cls-2" x="673.33" y="686.67" width="286.67" height="293.33"/><rect class="cls-2" x="1533.33" y="686.67" width="286.67" height="293.33"/><rect class="cls-3" x="1246.67" y="686.67" width="286.66" height="293.33"/><rect class="cls-2" x="960" y="686.67" width="286.67" height="293.33"/><rect class="cls-4" x="1305" y="803.33" width="75" height="60"/><polygon class="cls-2" points="1305 863.34 1342.5 825.84 1380 863.34 1305 863.34"/><polygon class="cls-4" points="1380 803.34 1342.5 840.84 1305 803.34 1380 803.34"/><rect class="cls-4" x="1400" y="803.33" width="75" height="60"/><polygon class="cls-2" points="1400 863.34 1437.5 825.84 1475 863.34 1400 863.34"/><polygon class="cls-4" points="1475 803.34 1437.5 840.84 1400 803.34 1475 803.34"/><rect class="cls-4" x="1305" y="723.33" width="75" height="60"/><polygon class="cls-2" points="1305 783.34 1342.5 745.84 1380 783.34 1305 783.34"/><polygon class="cls-4" points="1380 723.34 1342.5 760.84 1305 723.34 1380 723.34"/><rect class="cls-4" x="1400" y="723.33" width="75" height="60"/><polygon class="cls-2" points="1400 783.34 1437.5 745.84 1475 783.34 1400 783.34"/><polygon class="cls-4" points="1475 723.34 1437.5 760.84 1400 723.34 1475 723.34"/><rect class="cls-4" x="1305" y="883.33" width="75" height="60"/><polygon class="cls-2" points="1305 943.34 1342.5 905.84 1380 943.34 1305 943.34"/><polygon class="cls-4" points="1380 883.34 1342.5 920.84 1305 883.34 1380 883.34"/><rect class="cls-4" x="1400" y="883.33" width="75" height="60"/><polygon class="cls-2" points="1400 943.34 1437.5 905.84 1475 943.34 1400 943.34"/><polygon class="cls-4" points="1475 883.34 1437.5 920.84 1400 883.34 1475 883.34"/><rect class="cls-4" x="1018.33" y="161.67" width="75" height="75" rx="37.5"/><rect class="cls-4" x="1025.83" y="169.17" width="60" height="60" rx="30"/><path class="cls-2" d="M1062.47,192.53a6.64,6.64,0,0,0-6.64-6.64h0a6.63,6.63,0,0,0-6.63,6.64h0a6.64,6.64,0,0,0,6.63,6.64h0a6.63,6.63,0,0,1,6.64,6.63h0a6.64,6.64,0,0,1-6.64,6.64h0a6.63,6.63,0,0,1-6.63-6.64"/><line class="cls-2" x1="1055.83" y1="185.89" x2="1055.83" y2="182.57"/><line class="cls-2" x1="1055.83" y1="215.76" x2="1055.83" y2="185.89"/><rect class="cls-4" x="1018.33" y="256.67" width="75" height="75" rx="37.5"/><rect class="cls-4" x="1113.33" y="256.67" width="75" height="75" rx="37.5"/><rect class="cls-4" x="1113.33" y="161.67" width="75" height="75" rx="37.5"/><path class="cls-2" d="M1163.82,206.67a15,15,0,1,1,0-15"/><line class="cls-2" x1="1128.33" y1="202.92" x2="1150.83" y2="202.92"/><line class="cls-2" x1="1128.33" y1="195.42" x2="1150.83" y2="195.42"/><rect class="cls-4" x="1373.33" y="434.5" width="33.33" height="212.17"/><rect class="cls-5" x="1416.67" y="570" width="33.33" height="76.67"/><rect class="cls-6" x="1460" y="503.33" width="33.33" height="143.33"/><rect class="cls-5" x="1330" y="503.34" width="33.33" height="143.33"/><rect class="cls-4" x="1286.67" y="540" width="33.33" height="106.67"/><rect class="cls-4" x="205.83" y="808.38" width="75" height="49.91"/><rect class="cls-5" x="213.33" y="827.71" width="11.25" height="11.25" transform="translate(437.92 1666.67) rotate(-180)"/><rect class="cls-4" x="205.83" y="878.29" width="75" height="49.91"/><rect class="cls-5" x="213.33" y="897.62" width="11.25" height="11.25" transform="translate(437.92 1806.49) rotate(-180)"/><rect class="cls-4" x="205.83" y="738.47" width="75" height="49.91"/><rect class="cls-5" x="213.33" y="757.8" width="11.25" height="11.25" transform="translate(437.92 1526.85) rotate(-180)"/><rect class="cls-4" x="1033.33" y="440" width="140" height="200" rx="2"/><line class="cls-4" x1="1053.33" y1="460" x2="1153.33" y2="460"/><line class="cls-4" x1="1053.33" y1="480" x2="1153.33" y2="480"/><line class="cls-4" x1="1053.33" y1="500" x2="1153.33" y2="500"/><line class="cls-4" x1="1053.33" y1="520" x2="1153.33" y2="520"/><line class="cls-4" x1="1053.33" y1="540" x2="1153.33" y2="540"/><line class="cls-4" x1="1053.33" y1="560" x2="1153.33" y2="560"/><line class="cls-4" x1="1053.33" y1="580" x2="1153.33" y2="580"/><line class="cls-4" x1="1053.33" y1="600" x2="1153.33" y2="600"/><line class="cls-4" x1="1053.33" y1="620" x2="1153.33" y2="620"/><polygon class="cls-6" points="1173.34 480 1133.34 480 1133.34 440 1173.34 480"/><polygon class="cls-5" points="1133.34 440 1173.34 440 1173.34 480 1133.34 440"/><polygon class="cls-5" points="1103.34 763.96 1138.34 781.46 1138.34 912.71 1103.34 895.21 1103.34 763.96"/><polygon class="cls-4" points="1138.34 781.46 1173.34 763.96 1173.34 895.21 1138.34 912.71 1138.34 781.46"/><polygon class="cls-5" points="1033.34 763.96 1068.34 781.46 1068.34 912.71 1033.34 895.21 1033.34 763.96"/><polygon class="cls-4" points="1068.34 781.46 1103.34 763.96 1103.34 895.21 1068.34 912.71 1068.34 781.46"/><rect class="cls-4" x="1601.67" y="465" width="150" height="150" rx="75"/><line class="cls-7" x1="1676.69" y1="540.35" x2="1640.58" y2="576.46"/><path class="cls-5" d="M1676.69,540.35l2.78,8.34v19.44l-2.78,2.78h0l-2.78-2.78V548.69Z"/><path class="cls-5" d="M1676.69,540.35l4.31-8.94,27.5-27.5h3.92v3.93l-27.5,27.5Z"/><circle class="cls-4" cx="1676.69" cy="540.35" r="2.78"/><path class="cls-6" d="M816.66,758.33v15a60,60,0,0,0-48.54,24.74L756,789.25a75,75,0,0,1,60.67-30.92Z"/><path class="cls-5" d="M781.4,881.87,772.58,894a75,75,0,0,1-30.91-60.67h0A74.62,74.62,0,0,1,756,789.25l12.13,8.82a60,60,0,0,0,13.28,83.8Z"/><path class="cls-4" d="M891.67,833.33h0a75,75,0,0,1-75,75h0A74.62,74.62,0,0,1,772.58,894l8.82-12.14a60,60,0,1,0,35.27-108.54h0v-15h0a75,75,0,0,1,75,75Z"/><polygon class="cls-5" points="1780 758.34 1738.67 780.95 1697.33 838.34 1656 845.67 1614.66 818.34 1573.33 865.67 1573.33 940 1780 940 1780 758.34"/><path class="cls-2" d="M1751.67,246.67a75,75,0,0,1-128,53L1729.7,193.63A74.75,74.75,0,0,1,1751.67,246.67Z"/><line class="cls-2" x1="1676.67" y1="321.67" x2="1676.67" y2="341.67"/><line class="cls-2" x1="1696.67" y1="341.67" x2="1656.67" y2="341.67"/><line class="cls-2" x1="1729.7" y1="193.63" x2="1623.63" y2="299.7"/><circle class="cls-4" cx="1676.67" cy="246.67" r="60"/><circle class="cls-6" cx="1696.67" cy="273.22" r="6.9"/><circle class="cls-1" cx="530" cy="739.36" r="0.76" transform="translate(-367.49 590.79) rotate(-44.97)"/><path class="cls-8" d="M580.36,746.77H479.6v0A13.44,13.44,0,0,1,493,733.33H567a13.4,13.4,0,0,1,13.4,13.44Z"/><path class="cls-8" d="M567,933.33H493a13.39,13.39,0,0,1-13.4-13.43H580.4v0A13.43,13.43,0,0,1,567,933.33Z"/><circle class="cls-9" cx="529.98" cy="740.05" r="1"/><rect class="cls-10" x="479.62" y="746.77" width="100.75" height="173.13"/><line class="cls-11" x1="510.02" y1="926.62" x2="550.02" y2="926.62"/><circle class="cls-4" cx="1533.33" cy="542.78" r="10"/><circle class="cls-4" cx="1246.67" cy="542.78" r="10"/><circle class="cls-4" cx="1103.33" cy="686.67" r="10"/><circle class="cls-4" cx="673.33" cy="833.33" r="10"/><circle class="cls-4" cx="960" cy="833.33" r="10"/><circle class="cls-4" cx="1390" cy="393.33" r="10"/><circle class="cls-4" cx="1676.67" cy="393.33" r="10"/><circle class="cls-4" cx="1676.67" cy="686.67" r="10"/><circle class="cls-4" cx="1533.33" cy="246.67" r="10"/><path class="cls-2" d="M1065.21,286.67h0a7.5,7.5,0,0,0-7.5-7.5h0a7.5,7.5,0,0,0-7.5,7.5v22.5h15"/><line class="cls-2" x1="1053.96" y1="294.17" x2="1046.46" y2="294.17"/><line class="cls-2" x1="1135.83" y1="306.17" x2="1135.83" y2="294.17"/><path class="cls-2" d="M1141.83,294.17h-6v-12h6a6,6,0,0,1,6,6h0A6,6,0,0,1,1141.83,294.17Z"/><line class="cls-2" x1="1141.83" y1="294.17" x2="1147.83" y2="306.17"/><path class="cls-2" d="M1165.83,288.17h0a6,6,0,0,0-6-6h0a6,6,0,0,0-6,6h0a6,6,0,0,0,6,6h0a6,6,0,0,1,6,6h0a6,6,0,0,1-6,6h0a6,6,0,0,1-6-6h0"/><line class="cls-2" x1="1159.83" y1="279.17" x2="1159.83" y2="309.17"/><rect class="cls-2" x="1120.83" y="264.17" width="60" height="60" rx="30"/><rect class="cls-8" x="489.62" y="858.33" width="80.75" height="20"/><rect class="cls-10" x="489.62" y="788.34" width="80.75" height="60"/><polygon class="cls-12" points="1355.91 181.89 1424.09 181.89 1465 222.8 1444.55 243.26 1424.09 222.8 1424.09 311.44 1355.91 311.44 1355.91 222.8 1335.45 243.26 1315 222.8 1355.91 181.89"/><path class="cls-13" d="M1415.57,181.89a25.57,25.57,0,1,1-51.14,0"/><path class="cls-5" d="M413.5,312c0,62.88,41.43,119.57,102.87,119.57S622.05,374.89,622.05,312,580,203.88,507.83,203.88C451.25,203.88,413.5,249.13,413.5,312Z"/><path class="cls-5" d="M547.13,212.8c0,20,13.17,38,32.69,38s33.58-18,33.58-38S600,178.44,577.11,178.44C559.13,178.44,547.13,192.82,547.13,212.8Z"/><path class="cls-5" d="M384.71,244.56c0,20,13.16,38,32.69,38s33.58-18,33.58-38-13.37-34.37-36.29-34.37C396.71,210.19,384.71,224.57,384.71,244.56Z"/><path class="cls-5" d="M568.71,451.65h0c90.56,31.15,152.16,117.26,153.79,215l.34,20H358.3v-32.5c0-88.8,52.43-168.81,132.72-202.52h77.69Z"/><polyline class="cls-4" points="564.26 414.16 568.71 451.65 513.81 480.68 491.02 451.65 491.02 420.02"/><path class="cls-4" d="M445,315.52l17.89,71c8.52,26.89,33,45.09,60.62,45.09h0A63.61,63.61,0,0,0,583,390c8.18-21.8,6.35-54.09,6.35-101.11l-75.49-18.58Z"/><line class="cls-14" x1="513.81" y1="461.97" x2="513.81" y2="686.67"/><circle class="cls-15" cx="892.75" cy="165.08" r="40.6"/><polyline class="cls-16" points="903.51 157.9 889.16 172.26 881.98 165.08"/></g></svg>