<svg id="Layer_1" data-name="Layer 1" xmlns="http://www.w3.org/2000/svg" viewBox="0 0 581 600"><defs><style>.cls-1{fill:#ff487c;}.cls-2{fill:#fff;}.cls-2,.cls-3{stroke:#00112c;stroke-linecap:round;stroke-linejoin:round;stroke-width:4.96px;}.cls-3{fill:none;}</style></defs><rect class="cls-1" width="581" height="600"/><rect class="cls-2" x="79.84" y="89.34" width="185.88" height="185.88" rx="92.94"/><rect class="cls-2" x="98.43" y="107.93" width="148.7" height="148.7" rx="74.35"/><path class="cls-3" d="M189.23,165.82a16.46,16.46,0,0,0-16.45-16.45h0a16.46,16.46,0,0,0-16.46,16.45h0a16.46,16.46,0,0,0,16.46,16.46h0a16.45,16.45,0,0,1,16.45,16.45h0a16.45,16.45,0,0,1-16.45,16.45h0a16.45,16.45,0,0,1-16.46-16.45"/><line class="cls-3" x1="172.78" y1="149.37" x2="172.78" y2="141.14"/><line class="cls-3" x1="172.78" y1="223.41" x2="172.78" y2="149.37"/><rect class="cls-2" x="79.84" y="324.78" width="185.88" height="185.88" rx="92.94"/><rect class="cls-2" x="315.28" y="324.78" width="185.88" height="185.88" rx="92.94"/><rect class="cls-2" x="315.28" y="89.34" width="185.88" height="185.88" rx="92.94"/><path class="cls-3" d="M440.4,200.87a37.18,37.18,0,1,1,0-37.18"/><line class="cls-3" x1="352.46" y1="191.57" x2="408.22" y2="191.57"/><line class="cls-3" x1="352.46" y1="172.98" x2="408.22" y2="172.98"/><path class="cls-3" d="M196,399.13h0a18.58,18.58,0,0,0-18.59-18.58h0a18.58,18.58,0,0,0-18.58,18.58V454.9H196"/><line class="cls-3" x1="168.13" y1="417.72" x2="149.54" y2="417.72"/><line class="cls-3" x1="371.05" y1="447.46" x2="371.05" y2="417.72"/><path class="cls-3" d="M385.92,417.72H371.05V388h14.87a14.87,14.87,0,0,1,14.87,14.87h0A14.87,14.87,0,0,1,385.92,417.72Z"/><line class="cls-3" x1="385.92" y1="417.72" x2="400.79" y2="447.46"/><path class="cls-3" d="M445.4,402.85h0A14.87,14.87,0,0,0,430.53,388h0a14.87,14.87,0,0,0-14.87,14.87h0a14.87,14.87,0,0,0,14.87,14.87h0a14.87,14.87,0,0,1,14.87,14.87h0a14.87,14.87,0,0,1-14.87,14.87h0a14.87,14.87,0,0,1-14.87-14.87h0"/><line class="cls-3" x1="430.53" y1="380.55" x2="430.53" y2="454.9"/><rect class="cls-3" x="333.87" y="343.37" width="148.7" height="148.7" rx="74.35"/></svg>