<svg xmlns="http://www.w3.org/2000/svg" xmlns:xlink="http://www.w3.org/1999/xlink" viewBox="0 0 983 300"><defs><style>.cls-1,.cls-6{fill:none;}.cls-2{clip-path:url(#clip-path);}.cls-3{fill:#f3f6f9;}.cls-4{fill:#ff487c;}.cls-5{fill:#fff;}.cls-5,.cls-6,.cls-7,.cls-8{stroke:#00112c;stroke-linecap:round;stroke-linejoin:round;stroke-width:2.05px;}.cls-7{fill:#00112c;}.cls-8{fill:#0abf53;}</style><clipPath id="clip-path"><rect class="cls-1" y="-0.07" width="983" height="300.07"/></clipPath></defs><g id="Layer_1" data-name="Layer 1"><g class="cls-2"><rect class="cls-3" x="246.13" width="245.24" height="300"/><rect class="cls-3" x="491.7" width="245.24" height="300"/><rect class="cls-4" x="737.38" width="245.62" height="300"/><rect class="cls-5" x="777.64" y="119.84" width="76.74" height="61.39"/><polygon class="cls-6" points="777.64 181.23 816 142.86 854.38 181.23 777.64 181.23"/><polygon class="cls-5" points="854.38 119.84 816 158.21 777.64 119.84 854.38 119.84"/><rect class="cls-5" x="874.84" y="119.84" width="76.74" height="61.39"/><polygon class="cls-6" points="874.84 181.23 913.21 142.86 951.58 181.23 874.84 181.23"/><polygon class="cls-5" points="951.58 119.84 913.21 158.21 874.84 119.84 951.58 119.84"/><rect class="cls-5" x="777.64" y="37.98" width="76.74" height="61.39"/><polygon class="cls-6" points="777.64 99.37 816 61 854.38 99.37 777.64 99.37"/><polygon class="cls-5" points="854.38 37.98 816 76.35 777.64 37.98 854.38 37.98"/><rect class="cls-5" x="874.84" y="37.98" width="76.74" height="61.39"/><polygon class="cls-6" points="874.84 99.37 913.21 61 951.58 99.37 874.84 99.37"/><polygon class="cls-5" points="951.58 37.98 913.21 76.35 874.84 37.98 951.58 37.98"/><rect class="cls-5" x="777.64" y="201.69" width="76.74" height="61.39"/><polygon class="cls-6" points="777.64 263.08 816 224.71 854.38 263.08 777.64 263.08"/><polygon class="cls-5" points="854.38 201.69 816 240.06 777.64 201.69 854.38 201.69"/><rect class="cls-5" x="874.84" y="201.69" width="76.74" height="61.39"/><polygon class="cls-6" points="874.84 263.08 913.21 224.71 951.58 263.08 874.84 263.08"/><polygon class="cls-5" points="951.58 201.69 913.21 240.06 874.84 201.69 951.58 201.69"/><rect class="cls-5" x="576.19" y="42.58" width="34.1" height="217.09"/><rect class="cls-7" x="620.53" y="181.23" width="34.1" height="78.45"/><rect class="cls-8" x="664.86" y="113.02" width="34.1" height="146.66"/><rect class="cls-7" x="531.85" y="113.02" width="34.1" height="146.66"/><rect class="cls-5" x="299.11" y="48.21" width="143.25" height="204.64" rx="2.05"/><line class="cls-5" x1="319.58" y1="68.68" x2="421.89" y2="68.68"/><line class="cls-5" x1="319.58" y1="89.14" x2="421.89" y2="89.14"/><line class="cls-5" x1="319.58" y1="109.61" x2="421.89" y2="109.61"/><line class="cls-5" x1="319.58" y1="130.07" x2="421.89" y2="130.07"/><line class="cls-5" x1="319.58" y1="150.53" x2="421.89" y2="150.53"/><line class="cls-5" x1="319.58" y1="171" x2="421.89" y2="171"/><line class="cls-5" x1="319.58" y1="191.46" x2="421.89" y2="191.46"/><line class="cls-5" x1="319.58" y1="211.92" x2="421.89" y2="211.92"/><line class="cls-5" x1="319.58" y1="232.39" x2="421.89" y2="232.39"/><polygon class="cls-8" points="442.36 89.14 401.43 89.14 401.43 48.21 442.36 89.14"/><polygon class="cls-7" points="401.43 48.21 442.36 48.21 442.36 89.14 401.43 48.21"/><rect class="cls-4" y="-0.07" width="246.13" height="300.13"/><rect class="cls-5" x="37.29" y="63.56" width="76.74" height="76.74" rx="38.37"/><rect class="cls-5" x="44.97" y="71.24" width="61.39" height="61.39" rx="30.7"/><path class="cls-6" d="M82.45,95.14a6.79,6.79,0,0,0-6.79-6.79h0a6.79,6.79,0,0,0-6.79,6.79h0a6.79,6.79,0,0,0,6.79,6.79h0a6.79,6.79,0,0,1,6.79,6.79h0a6.79,6.79,0,0,1-6.79,6.8h0a6.79,6.79,0,0,1-6.79-6.8"/><line class="cls-6" x1="75.66" y1="88.35" x2="75.66" y2="84.95"/><line class="cls-6" x1="75.66" y1="118.91" x2="75.66" y2="88.35"/><rect class="cls-5" x="37.29" y="160.76" width="76.74" height="76.74" rx="38.37"/><rect class="cls-5" x="134.49" y="160.76" width="76.74" height="76.74" rx="38.37"/><rect class="cls-5" x="134.49" y="63.56" width="76.74" height="76.74" rx="38.37"/><path class="cls-6" d="M186.15,109.61a15.36,15.36,0,1,1,0-15.35"/><line class="cls-6" x1="149.84" y1="105.77" x2="172.86" y2="105.77"/><line class="cls-6" x1="149.84" y1="98.09" x2="172.86" y2="98.09"/><path class="cls-6" d="M85.25,191.46h0a7.66,7.66,0,0,0-7.67-7.67h0a7.66,7.66,0,0,0-7.67,7.67v23H85.25"/><line class="cls-6" x1="73.74" y1="199.13" x2="66.07" y2="199.13"/><line class="cls-6" x1="157.52" y1="211.41" x2="157.52" y2="199.13"/><path class="cls-6" d="M163.66,199.13h-6.14V186.86h6.14a6.13,6.13,0,0,1,6.13,6.14h0A6.12,6.12,0,0,1,163.66,199.13Z"/><line class="cls-6" x1="163.66" y1="199.13" x2="169.79" y2="211.41"/><path class="cls-6" d="M188.21,193h0a6.13,6.13,0,0,0-6.14-6.14h0a6.13,6.13,0,0,0-6.14,6.14h0a6.13,6.13,0,0,0,6.14,6.13h0a6.14,6.14,0,0,1,6.14,6.14h0a6.14,6.14,0,0,1-6.14,6.14h0a6.14,6.14,0,0,1-6.14-6.14h0"/><line class="cls-6" x1="182.07" y1="183.79" x2="182.07" y2="214.48"/><rect class="cls-6" x="142.17" y="168.44" width="61.39" height="61.39" rx="30.7"/><line class="cls-6" x1="491.5" y1="-27.76" x2="491.5" y2="319.41"/><line class="cls-6" x1="737.21" y1="-27.76" x2="737.21" y2="319.41"/><line class="cls-6" x1="246.38" y1="-27.76" x2="246.38" y2="319.41"/><circle class="cls-5" cx="737.21" cy="37.98" r="10.23"/><circle class="cls-5" cx="491.5" cy="193" r="10.23"/><circle class="cls-5" cx="246.38" cy="48.21" r="10.23"/></g></g></svg>