<svg xmlns="http://www.w3.org/2000/svg" xmlns:xlink="http://www.w3.org/1999/xlink" viewBox="0 0 1188 300"><defs><style>.cls-1,.cls-7{fill:none;}.cls-2{clip-path:url(#clip-path);}.cls-3{fill:#3967dd;}.cls-4{fill:url(#linear-gradient);}.cls-5{fill:url(#linear-gradient-2);}.cls-6,.cls-8{fill:#fff;}.cls-10,.cls-11,.cls-12,.cls-14,.cls-15,.cls-16,.cls-7,.cls-8,.cls-9{stroke:#02225a;stroke-linecap:round;stroke-linejoin:round;stroke-width:0.89px;}.cls-9{fill:#02225a;}.cls-10{fill:#57bef7;}.cls-11,.cls-13{fill:#fc9f40;}.cls-12{fill:#b9355e;}.cls-14{fill:#f95269;}.cls-15{fill:#5fe0ab;}.cls-16{fill:#fac777;}.cls-17{clip-path:url(#clip-path-2);}.cls-18{fill:url(#linear-gradient-3);}</style><clipPath id="clip-path"><rect class="cls-1" y="0.51" width="1188" height="298.98"/></clipPath><linearGradient id="linear-gradient" x1="982.89" y1="210.24" x2="982.89" y2="2.32" gradientUnits="userSpaceOnUse"><stop offset="0" stop-color="#3967dd" stop-opacity="0"/><stop offset="1" stop-color="#2a57bc"/></linearGradient><linearGradient id="linear-gradient-2" x1="232.19" y1="210.24" x2="232.19" y2="2.32" xlink:href="#linear-gradient"/><clipPath id="clip-path-2"><rect class="cls-1" x="1351.52" y="0.51" width="983" height="298.98"/></clipPath><linearGradient id="linear-gradient-3" x1="1473.24" y1="210.24" x2="1473.24" y2="2.32" xlink:href="#linear-gradient"/></defs><g id="Layer_1" data-name="Layer 1"><g class="cls-2"><rect class="cls-3" x="-146.55" y="-201.37" width="1508.71" height="848.65"/><path class="cls-4" d="M607.5,263.66V116.32h14.32v-5.88l3.61-.59v-13l2.72-4.63c.43.15.87.17,1,.36.69,1.52,1.31,3.07,2.12,5.05l-1,1.56,1.67,2.29h6.88c-.49-3.79,1.14-7.18,3.06-10.67l1.2,2.45,21.15-18.5c-.33-6.07,1.34-11.42,4.5-16.88.67,3.33,1.28,6.3,2,9.71l1.75.58v6.65q5.6,4.75,11.22,9.53c3.58,3.06,6.12,7.3,10.79,9.52v8.86h15c1.19,1.25,2.45,2.8,3.93,4.08s2.16,3.43,5,3.26V73.4c0-3.62-.19-7.25,0-10.84.22-3.25.92-6.47,1.45-10H728c4.36-2.67,1.74-5.68,1-8.54l3.44-5c3.39-2.46,8.27-.73,13-1.28l4.38,4.84v9.66h9.29v5.53l2.48.85V80c6.36,0,12.53.22,18.67-.06,5.82-.27,11.83,1.31,17.63-1.09V69.42l2.21-.46c.11-1.33.22-2.83.35-4.54h6.61l1-2.85,1,2.59h6.74c.08,1.77.15,3.12.23,4.72l3.46.54V80h21.12a3.35,3.35,0,0,1,.43.41,1,1,0,0,1,.19.52c0,6.8,0,13.6,0,20.83l4.58,1.59V82.47L842.22,75l6-7.94L840.15,56.3c4.21-.18,8,1.84,11,6.09l1.49-2.69h3v1.78l-2.53,1,2.45,5.08-3.23,3.23c2.53,3.5-.39,8,2.1,11.63a3.16,3.16,0,0,1-1,4.2c2.12,2.42.87,5.33,1.09,8s0,5.19,0,7.92l2.13.63c.58-7.52.09-14.85.31-22,1.07-1.66,2-3.3,3.13-4.83s2.25-2.71,4-4.81c0,.11.07-.84.17-2h3.3c.12,1,.23,2,.37,3.14h11.64c.44-2.08.95-4.47,1.45-6.85s-1.09-4.82,1.17-6.75l-1.93-2.33,3.25-1,1.32,1.11L884,58.61c.69,4.37,1.42,9,2.19,13.87h11.55c.1-1,.2-1.9.33-3.09h3.22l.37,2.76c4.4.69,3.67,6,7,8.3v22.2H912c-.13.11.15,0,.15-.14q0-8.06,0-16.1l5.08-2.93,3.1,1.89c.27-1.52.45-2.56.67-3.81l2-.72c.11-.9.22-1.85.34-2.87l2.12-.81c.1-.92.2-1.87.33-3h3.08c.22-1.28.41-2.38.62-3.63h4.31v2.88l2.45.84v2.83l2.5.86c.06.85.13,1.8.22,3h3.57c-.42-5.42.07-10.63,3-15.45,2.87,8.83,1.39,17.77,1.71,26.59.12,3.4,0,6.82,0,10.52h5.72c1.15-4.11-.9-8.63,1.21-12.55-.41-2.24-.81-4.48-1.16-6.36l3.26-4.46L959,82.82c-.31,2.67-1.3,5.16-.67,7.12,1.34,4.21.88,8.46,1.08,12.78l2.15.13V58.73l3.47-.65c.53-2.4.6-5,1.7-7.12,1.21-2.28,1-4.49,1.08-6.79,0-2.53,0-5.06,0-8.36l3.74,2.49C971.11,39.6,970,41,970.34,42c1.85,5.34.82,11.4,4.08,16.22l1.91.44V77.16c2.16,1,2.68,0,2.27-2h37.22V62.73l2-2c.39.81.77,1.59,1.29,2.7l6.35-4.1V53.08l2.09-2.09,3,3.93v4.24l5.42,3.72,2.63-1.48c.61,4.36,0,8.32.46,12.89a10.67,10.67,0,0,0,2.22-1.39c1.52-1.72,2.92-3.53,4.74-5.77,3.52,4.26,8,6.69,10.87,11.24V96l3.77,2.52c-1.68,3-1.7,3,.51,5.57h13.24a2.25,2.25,0,0,0,.41-.36,1,1,0,0,0,.22-.51c0-7.2,0-14.4,0-22.21l14.25,2.41v-3l37.37,5.88v3.09l8.74,2q-.75,5.85-1.58,12.45h3.61V74.31l5-5.09h7.59l8-6.06v37h4.9V63.46c1.66-.29,1.88,1.25,2.76,1.73a23,23,0,0,1,2.37,1.55c.94.7,1.83,1.46,2.94,2.34h8.22c1,2.06,1.75,4.55,5.51,3.35v14c0,4.42-.49,8.91.13,13.24s-3.79,8.6.64,13.27c.23-1.86.4-3.25.63-5.07h8.1c.08-1.18.13-2,.17-2.66l-4.85-6.32v-6.1l4.18-4.3h6.83l3.07,1.51a3.72,3.72,0,0,0,.38.78c2,2.84.92,6.08,1.25,9.09l-3.55,3.55v4.14h10.46v-3.81l-4.75-6.63,1.79-6c2.86-3.24,6.88-2.65,11.28-2.57l3.78,5c1.13,5-1.23,8.42-4.54,11.13v2.87h11.9c0-.89.09-1.67.13-2.57l-4.67-4.14v-8.3l4-4c3.12.15,6.63-.73,10.09,1.72,2,2.76,1.37,6.31,1.31,9.78l-4.73,4.72v2.41c2.52,2,4.6-.19,7.07-.88V95.92H1266l2.07-2.51h13V79.72l9.36,7.36h4.12l11.43-4.83.67,1.8-13.65,7c3,2.46,5.25-.25,7.7-.31a51.3,51.3,0,0,0,7.34-1.13,23.85,23.85,0,0,1,8.29-.42l-2.46.69v5.59h14.32V42.7c5.09-.32,10.07.76,14.46-2.07,0-.29,0-.69-.08-1.5H1332c-.07-1-.11-1.51-.16-2.29h17.82c-.09,2.39.81,4.56,3.81,5.14v64.24l4.85.51V263.66Z"/><path class="cls-5" d="M-143.2,263.66V116.32h14.32v-5.88l3.62-.59v-13l2.71-4.63c.43.15.87.17,1,.36.69,1.52,1.31,3.07,2.13,5.05l-1,1.56,1.66,2.29H-112c-.48-3.79,1.14-7.18,3.06-10.67l1.2,2.45,21.15-18.5c-.33-6.07,1.35-11.42,4.5-16.88.68,3.33,1.28,6.3,2,9.71l1.75.58v6.65q5.61,4.75,11.22,9.53c3.58,3.06,6.12,7.3,10.79,9.52v8.86h15a55,55,0,0,0,3.94,4.08c1.39,1.21,2.15,3.43,5,3.26V73.4c0-3.62-.19-7.25.06-10.84.22-3.25.91-6.47,1.44-10h8.11c4.36-2.67,1.74-5.68,1-8.54l3.44-5c3.39-2.46,8.27-.73,13-1.28l4.38,4.84v9.66H8.43v5.53l2.48.85V80c6.36,0,12.53.22,18.67-.06,5.82-.27,11.83,1.31,17.63-1.09V69.42L49.43,69c.1-1.33.21-2.83.34-4.54h6.61l1-2.85,1,2.59h6.74c.08,1.77.15,3.12.23,4.72l3.46.54V80H90a2.8,2.8,0,0,1,.43.41,1,1,0,0,1,.19.52c0,6.8,0,13.6,0,20.83l4.58,1.59V82.47L91.52,75l6-7.94L89.45,56.3c4.21-.18,8,1.84,11,6.09l1.5-2.69h3v1.78l-2.52,1c.82,1.72,1.61,3.36,2.44,5.08l-3.23,3.23c2.54,3.5-.38,8,2.1,11.63a3.16,3.16,0,0,1-1,4.2c2.12,2.42.87,5.33,1.09,8s0,5.19,0,7.92l2.13.63c.59-7.52.1-14.85.32-22,1.06-1.66,2-3.3,3.12-4.83s2.25-2.71,4-4.81c0,.11.07-.84.16-2h3.31c.12,1,.23,2,.36,3.14h11.64c.44-2.08,1-4.47,1.45-6.85s-1.09-4.82,1.17-6.75l-1.93-2.33,3.25-1,1.32,1.11-.86,1.89c.69,4.37,1.42,9,2.2,13.87h11.54c.1-1,.2-1.9.33-3.09h3.22l.37,2.76c4.41.69,3.67,6,7,8.3v22.2h3.3c-.12.11.15,0,.15-.14,0-5.37,0-10.73,0-16.1l5.09-2.93,3.1,1.89c.26-1.52.44-2.56.66-3.81l2-.72c.11-.9.22-1.85.34-2.87l2.12-.81c.1-.92.2-1.87.33-3h3.08c.22-1.28.41-2.38.62-3.63h4.31v2.88l2.45.84v2.83l2.5.86c.06.85.13,1.8.22,3h3.58c-.43-5.42.06-10.63,3-15.45,2.87,8.83,1.39,17.77,1.71,26.59.12,3.4,0,6.82,0,10.52h5.72c1.15-4.11-.9-8.63,1.21-12.55-.4-2.24-.81-4.48-1.15-6.36l3.26-4.46c.86,1.18,1.92,2.62,2.64,3.59-.31,2.67-1.31,5.16-.68,7.12,1.34,4.21.88,8.46,1.08,12.78l2.16.13V58.73l3.46-.65c.53-2.4.6-5,1.71-7.12,1.21-2.28,1-4.49,1.07-6.79,0-2.53,0-5.06,0-8.36l3.73,2.49c-.48,1.3-1.57,2.73-1.24,3.67,1.84,5.34.81,11.4,4.07,16.22l1.91.44V77.16c2.16,1,2.68,0,2.28-2h37.21V62.73l2-2,1.3,2.7,6.34-4.1V53.08L276.86,51c.84,1.09,1.68,2.17,3,3.93v4.24l5.42,3.72,2.63-1.48c.61,4.36.05,8.32.46,12.89a10.4,10.4,0,0,0,2.22-1.39c1.52-1.72,2.93-3.53,4.75-5.77,3.52,4.26,8,6.69,10.87,11.24V96L310,98.5c-1.69,3-1.7,3,.5,5.57h13.24a2.25,2.25,0,0,0,.41-.36,1,1,0,0,0,.22-.51c0-7.2,0-14.4,0-22.21l14.25,2.41v-3L376,86.32v3.09l8.74,2q-.74,5.85-1.58,12.45h3.61V74.31l5-5.09h7.59l8-6.06v37h4.89V63.46c1.66-.29,1.88,1.25,2.76,1.73a21.93,21.93,0,0,1,2.37,1.55c.94.7,1.84,1.46,2.94,2.34h8.22c1,2.06,1.76,4.55,5.51,3.35v14c0,4.42-.49,8.91.14,13.24s-3.8,8.6.63,13.27c.24-1.86.41-3.25.63-5.07h8.1c.08-1.18.13-2,.18-2.66l-4.86-6.32v-6.1c1.45-1.48,2.84-2.92,4.18-4.3h6.83L453,90a3.41,3.41,0,0,0,.39.78c2,2.84.91,6.08,1.24,9.09-1.19,1.19-2.32,2.33-3.55,3.55v4.14h10.46v-3.81l-4.75-6.63,1.79-6c2.86-3.24,6.88-2.65,11.28-2.57l3.78,5c1.13,5-1.23,8.42-4.53,11.13v2.87H481c.05-.89.09-1.67.14-2.57l-4.68-4.14v-8.3l4-4c3.12.15,6.63-.73,10.09,1.72,2,2.76,1.37,6.31,1.31,9.78l-4.72,4.72v2.41c2.51,2,4.6-.19,7.06-.88V95.92h21.1l2.08-2.51h13V79.72l9.36,7.36h4.13l11.42-4.83.68,1.8-13.66,7c3,2.46,5.25-.25,7.7-.31a51.3,51.3,0,0,0,7.34-1.13,23.85,23.85,0,0,1,8.29-.42l-2.46.69v5.59h14.33V42.7c5.08-.32,10.06.76,14.46-2.07,0-.29,0-.69-.09-1.5H581.26c-.06-1-.1-1.51-.16-2.29h17.82c-.09,2.39.82,4.56,3.81,5.14v64.24l4.85.51V263.66Z"/><path class="cls-6" d="M841.61,31.25s-6.82-2.24-12.7-4.68c-6.79-2.81-10.12,1.76-16.66,1.92s-9.72-1.7-14.87-1.24c-7.65.68-8.42,3.18-12,4.32Z"/><path class="cls-6" d="M482.8,28.29s-6.82-2.24-12.7-4.68c-6.79-2.81-10.12,1.76-16.66,1.92s-9.73-1.7-14.87-1.24c-7.65.68-8.42,3.18-12,4.33Z"/><path class="cls-6" d="M372.2,40.9a71.12,71.12,0,0,1-11.36-4.12c-10-4.53-16.77-.28-21.77.95-8.2,2-12.58-2.59-28.82-.4a143.62,143.62,0,0,0-16.49,3.58Z"/><path class="cls-6" d="M785.2,60.19S770,57.43,758,52.26s-19.54,2.25-30.15,4-14-1-22.79,0c-5.88.66-17.26,3.94-17.26,3.94Z"/><line class="cls-7" x1="27.31" y1="275.74" x2="1162.21" y2="275.74"/><path class="cls-8" d="M680.46,275.74c2.55-17.33,22.47-30.83,44.27-30.83,16.58,0,30.92,7.81,37.85,19.18a39,39,0,0,1,17.67-4.29,35.44,35.44,0,0,1,29.93,15.94Z"/><path class="cls-9" d="M254.76,275.69C252,259.56,230.52,247,207,247c-17.88,0-33.34,7.27-40.82,17.84a47.65,47.65,0,0,0-19-4c-13.68,0-25.66,5.94-32.27,14.83Z"/><path class="cls-8" d="M244.17,160.71c0-37.59-21.73-40.73-23.88-75.17-2-31.78,0-59.88-35.47-59.88s-33.48,28.1-35.47,59.88c-2.16,34.44-23.88,37.58-23.88,75.17C125.47,241.44,244.17,241.44,244.17,160.71Z"/><line class="cls-7" x1="184.82" y1="73.42" x2="184.82" y2="275.69"/><line class="cls-7" x1="184.82" y1="195.97" x2="148.1" y2="159.25"/><line class="cls-7" x1="184.82" y1="154.19" x2="208.5" y2="130.51"/><line class="cls-7" x1="184.82" y1="184.08" x2="175.31" y2="174.57"/><line class="cls-7" x1="184.82" y1="92.69" x2="190.61" y2="86.9"/><path class="cls-8" d="M277.28,275.69c-1.84-13.61-16.21-24.21-31.94-24.21-12,0-22.3,6.13-27.3,15a26.39,26.39,0,0,0-12.74-3.36,25.08,25.08,0,0,0-21.59,12.52Z"/><path class="cls-8" d="M1068.93,155.6c0-39.24-22.68-42.53-24.93-78.49-2.08-33.18,0-62.51-37-62.51s-35,29.33-37,62.51c-2.25,36-24.93,39.25-24.93,78.49C945,239.89,1068.93,239.89,1068.93,155.6Z"/><line class="cls-7" x1="1006.97" y1="64.46" x2="1006.97" y2="275.65"/><line class="cls-7" x1="1006.97" y1="192.42" x2="968.62" y2="154.08"/><line class="cls-7" x1="1006.97" y1="148.79" x2="1031.69" y2="124.07"/><line class="cls-7" x1="1006.97" y1="180" x2="997.04" y2="170.07"/><line class="cls-7" x1="1006.97" y1="84.58" x2="1013.01" y2="78.53"/><path class="cls-8" d="M896.85,191.36c0-27.55,15.93-29.86,17.51-55.1,1.46-23.3,0-43.89,26-43.89s24.53,20.59,26,43.89c1.59,25.24,17.51,27.55,17.51,55.1C983.86,250.54,896.85,250.54,896.85,191.36Z"/><line class="cls-7" x1="940.36" y1="127.38" x2="940.36" y2="275.65"/><line class="cls-7" x1="940.36" y1="217.21" x2="967.27" y2="190.29"/><line class="cls-7" x1="940.36" y1="186.58" x2="923" y2="169.22"/><line class="cls-7" x1="940.36" y1="208.49" x2="947.32" y2="201.52"/><line class="cls-7" x1="940.36" y1="141.5" x2="936.11" y2="137.26"/><path class="cls-9" d="M1062.39,275.77c-6.38-7.86-17.74-13.11-29.83-13.11a44.27,44.27,0,0,0-15.19,2.74c-6.15-8.54-18.06-14.35-30.78-14.35-17.38,0-34.32,10.86-36.16,24.72Z"/><path class="cls-8" d="M985,275.77c-1.54-11.39-13.57-20.26-26.73-20.26-10,0-18.67,5.13-22.85,12.6a22,22,0,0,0-10.67-2.81,21,21,0,0,0-18.06,10.47Z"/><line class="cls-7" x1="782.52" y1="286.74" x2="932.66" y2="286.74"/><line class="cls-7" x1="770.05" y1="286.74" x2="756.74" y2="286.74"/><rect class="cls-9" x="424.92" y="100.35" width="64.17" height="172.21"/><polygon class="cls-9" points="489.3 81.73 442.85 81.73 424.92 100.35 489.08 100.35 489.3 81.73"/><rect class="cls-10" x="407.2" y="95.66" width="60.98" height="176.9"/><rect class="cls-8" x="413.18" y="126" width="49.57" height="30.67"/><rect class="cls-9" x="413.18" y="126" width="1.05" height="30.67"/><rect class="cls-9" x="437.94" y="102.29" width="1.05" height="48.47" transform="translate(564.99 -311.94) rotate(90)"/><rect class="cls-9" x="421.34" y="268.53" width="71.72" height="7.21"/><rect class="cls-8" x="403.42" y="268.53" width="67.53" height="7.21"/><rect class="cls-11" x="431.26" y="123.9" width="12.28" height="4.21"/><rect class="cls-9" x="442.73" y="175.05" width="14.06" height="5.13"/><line class="cls-7" x1="439.42" y1="175.05" x2="439.42" y2="180.18"/><line class="cls-12" x1="433.99" y1="238.44" x2="414.55" y2="238.44"/><line class="cls-12" x1="433.99" y1="241.07" x2="414.55" y2="241.07"/><line class="cls-12" x1="433.99" y1="243.71" x2="414.55" y2="243.71"/><line class="cls-12" x1="433.99" y1="246.34" x2="414.55" y2="246.34"/><line class="cls-12" x1="433.99" y1="248.97" x2="414.55" y2="248.97"/><line class="cls-12" x1="433.99" y1="251.61" x2="414.55" y2="251.61"/><line class="cls-12" x1="433.99" y1="254.24" x2="414.55" y2="254.24"/><line class="cls-12" x1="433.99" y1="256.88" x2="414.55" y2="256.88"/><line class="cls-12" x1="460.07" y1="238.44" x2="440.63" y2="238.44"/><line class="cls-12" x1="460.07" y1="241.07" x2="440.63" y2="241.07"/><line class="cls-12" x1="460.07" y1="243.71" x2="440.63" y2="243.71"/><line class="cls-12" x1="460.07" y1="246.34" x2="440.63" y2="246.34"/><line class="cls-12" x1="460.07" y1="248.97" x2="440.63" y2="248.97"/><line class="cls-12" x1="460.07" y1="251.61" x2="440.63" y2="251.61"/><line class="cls-12" x1="460.07" y1="254.24" x2="440.63" y2="254.24"/><line class="cls-12" x1="460.07" y1="256.88" x2="440.63" y2="256.88"/><rect class="cls-13" x="418.52" y="132.85" width="40.05" height="11.39"/><rect class="cls-13" x="418.52" y="145.91" width="19.46" height="5.69"/><rect class="cls-13" x="439.39" y="145.91" width="19.18" height="5.69"/><polygon class="cls-10" points="491.07 77.92 423.27 77.92 404.01 97.92 471.81 97.92 491.07 77.92"/><polygon class="cls-6" points="430.87 87.24 437.66 80.18 426.06 80.18 419.27 87.24 430.87 87.24"/><polygon class="cls-6" points="417.95 88.6 411.16 95.66 422.76 95.66 429.55 88.6 417.95 88.6"/><polygon class="cls-6" points="446.13 87.24 452.92 80.18 441.32 80.18 434.53 87.24 446.13 87.24"/><polygon class="cls-6" points="433.21 88.6 426.42 95.66 438.02 95.66 444.81 88.6 433.21 88.6"/><polygon class="cls-6" points="461.39 87.24 468.18 80.18 456.59 80.18 449.79 87.24 461.39 87.24"/><polygon class="cls-6" points="448.48 88.6 441.68 95.66 453.28 95.66 460.07 88.6 448.48 88.6"/><polygon class="cls-6" points="463.74 88.6 456.94 95.66 468.54 95.66 475.33 88.6 463.74 88.6"/><polygon class="cls-6" points="476.65 87.24 483.44 80.18 471.85 80.18 465.05 87.24 476.65 87.24"/><rect class="cls-11" x="404.01" y="97.92" width="67.8" height="3.18"/><polygon class="cls-11" points="471.81 101.1 471.81 97.92 491.07 77.92 491.07 81.07 471.81 101.1"/><rect class="cls-14" x="412.98" y="104.64" width="49.74" height="15.32"/><line class="cls-7" x1="429.55" y1="108.5" x2="439.42" y2="108.5"/><line class="cls-7" x1="429.55" y1="112.52" x2="450.24" y2="112.52"/><line class="cls-7" x1="429.55" y1="116.55" x2="440.7" y2="116.55"/><line class="cls-7" x1="442.84" y1="108.5" x2="457.7" y2="108.5"/><line class="cls-7" x1="453.04" y1="112.52" x2="457.7" y2="112.52"/><line class="cls-7" x1="443.82" y1="116.55" x2="449.21" y2="116.55"/><line class="cls-7" x1="451.51" y1="116.55" x2="460.04" y2="116.55"/><path class="cls-6" d="M418.34,108.32a2.26,2.26,0,0,0-.13-.54c-.14-.22-.4-.26-1-.28l0-.58c1,0,2.09,0,3.15,0,.69,0,1.4,0,2.09,0,.25,0,.5,0,.74,0a3.13,3.13,0,0,1,2,.87,2.82,2.82,0,0,1,.66,2.05,3.06,3.06,0,0,1-1.49,2.85,4.15,4.15,0,0,1-1.15.3,13.51,13.51,0,0,1-2.63.08v3.2a1.24,1.24,0,0,0,0,.38c.14.44.49.39.91.39h.52v.62h-4.88v-.65a1.33,1.33,0,0,0,.9-.15c.12-.11.16-.25.2-.63Zm2.36,4.2a3.43,3.43,0,0,0,2.13-.33c.77-.6.7-2.21.7-2.27a3.07,3.07,0,0,0-.4-1.9,1,1,0,0,0-.36-.33,4.86,4.86,0,0,0-2.08-.13Z"/><rect class="cls-14" x="418.05" y="159.94" width="38.7" height="12.87"/><rect class="cls-6" x="421.19" y="161.16" width="2" height="2"/><rect class="cls-6" x="423.98" y="161.16" width="2" height="2"/><rect class="cls-6" x="426.77" y="161.16" width="2" height="2"/><rect class="cls-6" x="429.57" y="161.16" width="2" height="2"/><rect class="cls-6" x="432.36" y="161.16" width="2" height="2"/><rect class="cls-6" x="435.15" y="161.16" width="2" height="2"/><rect class="cls-6" x="437.94" y="161.16" width="2" height="2"/><rect class="cls-6" x="440.74" y="161.16" width="2" height="2"/><rect class="cls-6" x="443.53" y="161.16" width="2" height="2"/><rect class="cls-6" x="446.32" y="161.16" width="2" height="2"/><rect class="cls-6" x="449.11" y="161.16" width="2" height="2"/><rect class="cls-6" x="451.91" y="161.16" width="2" height="2"/><rect class="cls-6" x="419.79" y="163.85" width="2" height="2"/><rect class="cls-6" x="422.59" y="163.85" width="2" height="2"/><rect class="cls-6" x="425.38" y="163.85" width="2" height="2"/><rect class="cls-6" x="428.17" y="163.85" width="2" height="2"/><rect class="cls-6" x="430.96" y="163.85" width="2" height="2"/><rect class="cls-6" x="433.75" y="163.85" width="2" height="2"/><rect class="cls-6" x="436.55" y="163.85" width="2" height="2"/><rect class="cls-6" x="439.34" y="163.85" width="2" height="2"/><rect class="cls-6" x="442.13" y="163.85" width="2" height="2"/><rect class="cls-6" x="444.92" y="163.85" width="2" height="2"/><rect class="cls-6" x="447.72" y="163.85" width="2" height="2"/><rect class="cls-6" x="450.51" y="163.85" width="2" height="2"/><rect class="cls-6" x="453.3" y="163.85" width="2" height="2"/><rect class="cls-6" x="421.19" y="166.53" width="2" height="2"/><rect class="cls-6" x="423.98" y="166.53" width="2" height="2"/><rect class="cls-6" x="426.77" y="166.53" width="2" height="2"/><rect class="cls-6" x="429.57" y="166.53" width="2" height="2"/><rect class="cls-6" x="432.36" y="166.53" width="2" height="2"/><rect class="cls-6" x="435.15" y="166.53" width="2" height="2"/><rect class="cls-6" x="437.94" y="166.53" width="2" height="2"/><rect class="cls-6" x="440.74" y="166.53" width="2" height="2"/><rect class="cls-6" x="443.53" y="166.53" width="2" height="2"/><rect class="cls-6" x="446.32" y="166.53" width="2" height="2"/><rect class="cls-6" x="449.11" y="166.53" width="2" height="2"/><rect class="cls-6" x="451.91" y="166.53" width="2" height="2"/><rect class="cls-6" x="419.79" y="169.22" width="2" height="2"/><rect class="cls-6" x="422.59" y="169.22" width="4.8" height="2"/><rect class="cls-6" x="428.17" y="169.22" width="2" height="2"/><rect class="cls-6" x="430.96" y="169.22" width="2" height="2"/><rect class="cls-6" x="433.75" y="169.22" width="2" height="2"/><rect class="cls-6" x="436.55" y="169.22" width="2" height="2"/><rect class="cls-6" x="439.34" y="169.22" width="2" height="2"/><rect class="cls-6" x="442.13" y="169.22" width="4.8" height="2"/><rect class="cls-6" x="447.72" y="169.22" width="4.8" height="2"/><rect class="cls-6" x="453.3" y="169.22" width="2" height="2"/><circle class="cls-8" cx="419.27" cy="177.29" r="1.85"/><circle class="cls-8" cx="425.38" cy="177.29" r="1.85"/><circle class="cls-11" cx="431.48" cy="177.29" r="1.85"/><line class="cls-7" x1="418.15" y1="181.76" x2="420.42" y2="181.76"/><line class="cls-7" x1="424.24" y1="181.76" x2="426.51" y2="181.76"/><line class="cls-7" x1="430.33" y1="181.76" x2="432.6" y2="181.76"/><path class="cls-10" d="M414.55,189.57h45.53a0,0,0,0,1,0,0v38.61a5.06,5.06,0,0,1-5.06,5.06H419.6a5.06,5.06,0,0,1-5.06-5.06V189.57A0,0,0,0,1,414.55,189.57Z"/><circle class="cls-9" cx="437.31" cy="230.83" r="0.77"/><rect class="cls-9" x="420.4" y="189.12" width="5.58" height="0.9"/><rect class="cls-9" x="449.11" y="189.12" width="5.58" height="0.9"/><circle class="cls-9" cx="647.76" cy="245.14" r="30.43"/><circle class="cls-9" cx="487.36" cy="245.14" r="30.43"/><path class="cls-15" d="M771.41,172v70.47H449.89a8.1,8.1,0,0,1-8.1-8.1v-36.2a7.9,7.9,0,0,1,5.76-7.61l64.64-19.83s56.52-72,57.72-71.61,162.31,0,162.31,0Z"/><path class="cls-15" d="M781.33,172v70.47H517.59v-44.3a7.91,7.91,0,0,1,5.76-7.61L588,170.73s56.52-72,57.72-71.61,96.42,0,96.42,0Z"/><circle class="cls-9" cx="718.17" cy="245.14" r="30.43"/><circle class="cls-6" cx="718.17" cy="245.14" r="11.65"/><circle class="cls-9" cx="557.76" cy="245.14" r="30.43"/><polygon class="cls-8" points="762.49 170.29 676.96 170.29 676.96 112.55 733.66 112.55 762.49 170.29"/><polygon class="cls-8" points="662.72 170.29 607.81 170.29 652.14 112.55 662.72 112.55 662.72 170.29"/><polygon class="cls-8" points="559.58 111.13 635.27 111.13 588 170.74 512.19 170.74 559.58 111.13"/><path class="cls-14" d="M755.7,218.84s9.88,15.62,9.88,32.43h18.95V218.84Z"/><line class="cls-16" x1="649.3" y1="186.41" x2="631.68" y2="186.41"/><line class="cls-16" x1="754.11" y1="188.12" x2="736.5" y2="188.12"/><line class="cls-16" x1="663.3" y1="188.83" x2="663.3" y2="229.97"/><path class="cls-6" d="M783.25,199H775v17.48h8.26a5.89,5.89,0,0,0,5.89-5.89v-5.7A5.89,5.89,0,0,0,783.25,199Z"/><path class="cls-6" d="M526.82,199h-7.14a7,7,0,0,0-7,7v3.47a7,7,0,0,0,7,7h7.14Z"/><path class="cls-6" d="M448.86,199h-7.14a7,7,0,0,0-7,7v3.47a7,7,0,0,0,7,7h7.14Z"/><path class="cls-14" d="M441.79,218.84h70.08a5.73,5.73,0,0,1,5.73,5.73v17.89a0,0,0,0,1,0,0H441.79a0,0,0,0,1,0,0V218.84A0,0,0,0,1,441.79,218.84Z" transform="translate(959.38 461.31) rotate(-180)"/><circle class="cls-6" cx="557.76" cy="245.14" r="11.65"/><line class="cls-7" x1="611.93" y1="99.12" x2="626.42" y2="55.33"/><circle class="cls-8" cx="626.42" cy="55.33" r="4.36"/><line class="cls-7" x1="61.24" y1="286.74" x2="144.06" y2="286.74"/></g><g class="cls-17"><rect class="cls-3" x="1094.49" y="-201.37" width="1508.71" height="848.65"/><path class="cls-18" d="M1097.84,263.66V116.32h14.32v-5.88l3.62-.59v-13l2.72-4.63c.42.15.86.17,1,.36.68,1.52,1.3,3.07,2.12,5.05l-1,1.56,1.66,2.29h6.89c-.49-3.79,1.14-7.18,3.06-10.67l1.2,2.45,21.14-18.5c-.32-6.07,1.35-11.42,4.5-16.88.68,3.33,1.28,6.3,2,9.71l1.75.58v6.65c3.73,3.17,7.48,6.34,11.21,9.53,3.58,3.06,6.13,7.3,10.8,9.52v8.86h15a52.82,52.82,0,0,0,3.93,4.08c1.39,1.21,2.15,3.43,5,3.26V73.4c0-3.62-.19-7.25.06-10.84.22-3.25.91-6.47,1.44-10h8.11c4.37-2.67,1.75-5.68,1-8.54l3.44-5c3.4-2.46,8.27-.73,13-1.28l4.39,4.84v9.66h9.28v5.53l2.49.85V80c6.35,0,12.52.22,18.67-.06,5.81-.27,11.82,1.31,17.63-1.09V69.42l2.21-.46c.1-1.33.22-2.83.35-4.54h6.61l1-2.85,1,2.59h6.74c.09,1.77.15,3.12.23,4.72l3.47.54V80H1331a2.8,2.8,0,0,1,.43.41,1,1,0,0,1,.2.52c0,6.8,0,13.6,0,20.83l4.59,1.59V82.47l-3.65-7.5,6-7.94L1330.5,56.3c4.2-.18,8,1.84,10.94,6.09l1.5-2.69h3v1.78l-2.53,1,2.44,5.08-3.23,3.23c2.54,3.5-.38,8,2.1,11.63a3.16,3.16,0,0,1-1,4.2c2.13,2.42.87,5.33,1.09,8s.05,5.19.05,7.92l2.13.63c.59-7.52.1-14.85.32-22,1.06-1.66,2-3.3,3.12-4.83s2.26-2.71,4-4.81c0,.11.07-.84.17-2h3.3c.12,1,.23,2,.36,3.14H1370c.44-2.08,1-4.47,1.45-6.85s-1.08-4.82,1.17-6.75l-1.93-2.33,3.26-1,1.31,1.11-.86,1.89c.69,4.37,1.42,9,2.2,13.87h11.55c.1-1,.2-1.9.32-3.09h3.22l.37,2.76c4.41.69,3.67,6,7,8.3v22.2h3.3c-.12.11.16,0,.16-.14q0-8.06,0-16.1l5.08-2.93,3.1,1.89c.26-1.52.45-2.56.67-3.81l2-.72c.11-.9.22-1.85.34-2.87l2.11-.81c.1-.92.21-1.87.33-3h3.08c.22-1.28.41-2.38.63-3.63h4.3v2.88l2.46.84v2.83l2.5.86c.06.85.12,1.8.21,3h3.58c-.43-5.42.07-10.63,3-15.45,2.87,8.83,1.4,17.77,1.71,26.59.13,3.4,0,6.82,0,10.52h5.73c1.14-4.11-.9-8.63,1.21-12.55-.41-2.24-.82-4.48-1.16-6.36l3.26-4.46,2.64,3.59c-.31,2.67-1.31,5.16-.68,7.12,1.34,4.21.88,8.46,1.09,12.78l2.15.13V58.73l3.46-.65c.53-2.4.6-5,1.71-7.12,1.21-2.28,1-4.49,1.07-6.79.06-2.53,0-5.06,0-8.36l3.73,2.49c-.47,1.3-1.57,2.73-1.24,3.67,1.84,5.34.82,11.4,4.08,16.22l1.9.44V77.16c2.16,1,2.69,0,2.28-2h37.21V62.73l2-2,1.29,2.7,6.34-4.1V53.08l2.1-2.09,3,3.93v4.24l5.41,3.72L1529,61.4c.62,4.36,0,8.32.47,12.89a10.67,10.67,0,0,0,2.22-1.39c1.51-1.72,2.92-3.53,4.74-5.77,3.52,4.26,8,6.69,10.87,11.24V96L1551,98.5c-1.68,3-1.7,3,.5,5.57h13.25a2.64,2.64,0,0,0,.41-.36,1,1,0,0,0,.22-.51c0-7.2,0-14.4,0-22.21l14.24,2.41v-3L1617,86.32v3.09l8.74,2q-.73,5.85-1.58,12.45h3.62V74.31l5-5.09h7.58l8-6.06v37h4.89V63.46c1.66-.29,1.89,1.25,2.76,1.73a21.93,21.93,0,0,1,2.37,1.55c.94.7,1.84,1.46,2.94,2.34h8.22c1,2.06,1.76,4.55,5.51,3.35v14c0,4.42-.49,8.91.14,13.24s-3.79,8.6.64,13.27c.23-1.86.4-3.25.63-5.07h8.09c.08-1.18.13-2,.18-2.66l-4.86-6.32v-6.1c1.45-1.48,2.84-2.92,4.18-4.3h6.84L1694,90a4.55,4.55,0,0,0,.39.78c2,2.84.91,6.08,1.24,9.09l-3.54,3.55v4.14h10.45v-3.81c-1.58-2.21-3.23-4.52-4.75-6.63l1.79-6c2.87-3.24,6.89-2.65,11.28-2.57l3.78,5c1.13,5-1.22,8.42-4.53,11.13v2.87H1722c0-.89.09-1.67.14-2.57l-4.68-4.14v-8.3l4-4c3.12.15,6.62-.73,10.08,1.72,2,2.76,1.38,6.31,1.31,9.78l-4.72,4.72v2.41c2.51,2,4.6-.19,7.07-.88V95.92h21.1l2.07-2.51h13V79.72l9.36,7.36h4.13l11.42-4.83.68,1.8c-4.53,2.33-9,4.62-13.66,7,3,2.46,5.26-.25,7.71-.31a51.38,51.38,0,0,0,7.33-1.13,23.91,23.91,0,0,1,8.3-.42l-2.46.69v5.59h14.32V42.7c5.09-.32,10.06.76,14.46-2.07,0-.29,0-.69-.09-1.5h-10.56c-.07-1-.11-1.51-.17-2.29H1840c-.09,2.39.82,4.56,3.81,5.14v64.24l4.86.51V263.66Z"/><path class="cls-6" d="M1156.94,72.83s-4.92-.85-15.73-6.21-22.67,2.4-30.45.76-15-2.13-21.39.84-11,2-16.79,1.19c-6-.81-9,2.12-19,3.42Z"/><path class="cls-6" d="M1159.22,49.05a100.51,100.51,0,0,1-29.2-8c-14.71-6.59-24.08-1.74-31.49,2.35-10.21,5.64-19.14,2.76-29,3.13a94.79,94.79,0,0,0-18.32,2.51Z"/><path class="cls-9" d="M1234.68,275.59c-5.13-6.33-14.27-10.55-24-10.55a35.49,35.49,0,0,0-12.21,2.2c-5-6.87-14.53-11.54-24.76-11.54-14,0-27.61,8.73-29.09,19.89Z"/></g></g></svg>