<svg xmlns="http://www.w3.org/2000/svg" xmlns:xlink="http://www.w3.org/1999/xlink" viewBox="0 0 1920 1080"><defs><style>.cls-1{fill:#3967dd;}.cls-2{fill:url(#linear-gradient);}.cls-3,.cls-5{fill:#fff;}.cls-4{fill:none;}.cls-11,.cls-12,.cls-13,.cls-4,.cls-5,.cls-6,.cls-7,.cls-8,.cls-9{stroke:#02225a;stroke-linecap:round;stroke-linejoin:round;stroke-width:2px;}.cls-6{fill:#02225a;}.cls-7{fill:#57bef7;}.cls-10,.cls-8{fill:#fc9f40;}.cls-9{fill:#b9355e;}.cls-11{fill:#f95269;}.cls-12{fill:#5fe0ab;}.cls-13{fill:#fac777;}</style><linearGradient id="linear-gradient" x1="974.68" y1="725.86" x2="974.68" y2="257.08" gradientUnits="userSpaceOnUse"><stop offset="0" stop-color="#3967dd" stop-opacity="0"/><stop offset="1" stop-color="#2a57bc"/></linearGradient></defs><g id="Layer_1" data-name="Layer 1"><rect class="cls-1" y="-0.51" width="1920" height="1080"/><path class="cls-2" d="M128.32,846.29V514.11h32.29V500.84l8.15-1.32V470.25l6.12-10.44c1,.34,2,.39,2.15.8,1.55,3.44,2.94,6.94,4.78,11.39l-2.34,3.52,3.75,5.16h15.52c-1.1-8.54,2.57-16.18,6.9-24.05l2.7,5.52L256,420.46c-.73-13.7,3-25.76,10.14-38.08,1.53,7.52,2.89,14.21,4.45,21.91l3.95,1.29v15q12.63,10.74,25.29,21.5c8.08,6.9,13.81,16.45,24.33,21.46v20h33.89c2.68,2.83,5.52,6.31,8.87,9.21,3.14,2.71,4.85,7.73,11.35,7.35V417.33c0-8.15-.43-16.33.12-24.44.5-7.33,2.06-14.58,3.26-22.56H400c9.84-6,3.94-12.8,2.37-19.26,2.22-3.21,4.36-6.31,7.75-11.24,7.66-5.55,18.65-1.66,29.29-2.9l9.89,10.92v21.77h20.94V382.1l5.6,1.92V432.2c14.33,0,28.23.49,42.09-.15,13.11-.6,26.66,3,39.74-2.45V408.36l5-1c.23-3,.49-6.39.79-10.23h14.9c.72-2,1.3-3.55,2.36-6.44.84,2.23,1.32,3.49,2.2,5.84h15.2c.2,4,.35,7,.52,10.64l7.81,1.23V432.2H654a6.12,6.12,0,0,1,1,.93,2.21,2.21,0,0,1,.44,1.16c0,15.33,0,30.65,0,47l10.34,3.58V437.78l-8.24-16.91c4-5.3,8.47-11.12,13.64-17.89l-18.3-24.19c9.48-.41,18,4.14,24.68,13.72,1.38-2.47,2.47-4.45,3.37-6.07h6.87v4l-5.7,2.18c1.87,3.89,3.65,7.58,5.51,11.47l-7.28,7.27c5.72,7.9-.87,18,4.74,26.23a7.12,7.12,0,0,1-2.3,9.45c4.79,5.47,2,12,2.46,18,.48,5.82.1,11.71.1,17.86l4.81,1.41c1.32-16.94.22-33.46.71-49.67,2.4-3.75,4.53-7.45,7-10.89,2.35-3.2,5.09-6.12,9.06-10.84,0,.23.16-1.91.38-4.64h7.44c.27,2.33.52,4.47.83,7.1h26.24c1-4.71,2.13-10.09,3.27-15.47,1.06-5-2.45-10.86,2.63-15.21l-4.35-5.25,7.34-2.25,3,2.5c-.71,1.55-1.23,2.7-1.95,4.26,1.56,9.85,3.21,20.21,5,31.28h26c.22-2.15.44-4.29.72-7h7.26c.19,1.38.47,3.42.85,6.22,9.93,1.56,8.26,13.56,15.84,18.71v50.07h7.45c-.28.24.34,0,.34-.33,0-12.1,0-24.2,0-36.3l11.46-6.59,7,4.26c.6-3.43,1-5.77,1.51-8.59l4.56-1.62.76-6.49,4.77-1.81c.23-2.07.46-4.21.74-6.82h7c.49-2.88.92-5.37,1.41-8.19h9.71v6.5l5.52,1.89v6.39l5.64,1.94c.14,1.92.29,4.06.49,6.8h8.06c-1-12.22.15-24,6.82-34.82,6.47,19.9,3.14,40.05,3.86,59.93.27,7.68,0,15.38,0,23.73h12.9c2.58-9.27-2-19.45,2.74-28.29-.93-5.06-1.85-10.12-2.62-14.34l7.35-10.05,6,8.08c-.69,6-2.94,11.63-1.52,16.06,3,9.48,2,19.08,2.45,28.8l4.85.3V384.26l7.81-1.47c1.19-5.4,1.35-11.33,3.84-16,2.73-5.15,2.3-10.14,2.42-15.32.13-5.7.06-11.41.09-18.85l8.41,5.61c-1.07,2.95-3.53,6.17-2.8,8.29,4.16,12,1.85,25.7,9.19,36.57l4.3,1v41.77c4.88,2.27,6,0,5.13-4.39h83.9V393.27l4.55-4.51,2.91,6.09,14.3-9.24V371.52l4.72-4.72,6.81,8.87v9.57l12.21,8.39,5.93-3.36c1.39,9.85.12,18.77,1.05,29.07,2.21-1.35,3.95-1.94,5-3.14,3.41-3.87,6.58-8,10.68-13,7.94,9.6,18,15.09,24.51,25.34v39.69l8.5,5.7c-3.79,6.66-3.83,6.67,1.13,12.56h29.87a6.23,6.23,0,0,0,.92-.82,2.12,2.12,0,0,0,.5-1.14c0-16.24,0-32.48,0-50.09l32.12,5.44V433.2l84.25,13.27v6.95l19.71,4.63q-1.68,13.2-3.56,28.07h8.14V419.39l11.32-11.47h17.11l18-13.68v83.5h11V394.93c3.74-.67,4.25,2.81,6.23,3.9a48.08,48.08,0,0,1,5.34,3.5c2.12,1.57,4.14,3.28,6.63,5.26h18.53c2.27,4.64,4,10.26,12.42,7.56v31.47c0,10-1.1,20.09.31,29.84s-8.55,19.41,1.44,29.93c.52-4.2.91-7.32,1.42-11.43h18.26c.17-2.66.28-4.39.39-6l-10.95-14.23V461l9.43-9.71h15.4l6.91,3.42a9.58,9.58,0,0,0,.88,1.75c4.54,6.41,2.06,13.71,2.8,20.5l-8,8v9.35h23.58v-8.61c-3.56-5-7.3-10.18-10.71-15l4-13.6c6.45-7.31,15.52-6,25.43-5.8l8.52,11.27c2.55,11.34-2.77,19-10.22,25.1v6.46h26.82c.1-2,.19-3.75.3-5.79-3.57-3.15-7.25-6.42-10.54-9.33V460.31c2.6-2.59,5.48-5.48,9.07-9.07,7,.35,14.94-1.64,22.73,3.89,4.47,6.21,3.1,14.23,3,22l-10.66,10.65v5.42c5.67,4.41,10.37-.42,15.93-2V468.11h47.58l4.67-5.66h29.28V431.58l21.1,16.59h9.3L1703,437.3c.54,1.41,1,2.59,1.53,4.06l-30.78,15.82c6.73,5.53,11.84-.56,17.36-.7s11-1.61,16.54-2.56c5.8-1,11.59-2.06,18.7-.95l-5.55,1.57v12.61h32.3v-119c11.46-.71,22.69,1.71,32.6-4.66,0-.67-.09-1.55-.2-3.4h-23.82c-.16-2.17-.24-3.39-.37-5.16h40.17c-.2,5.4,1.85,10.3,8.6,11.59V491.33l10.94,1.15V846.29Z"/><path class="cls-3" d="M1481.42,322.31s-15.36-5.07-28.63-10.56c-15.3-6.33-22.81,4-37.55,4.33s-21.93-3.83-33.53-2.8c-17.25,1.53-19,7.18-27,9.76Z"/><path class="cls-3" d="M1832.1,252.19s-22.24-4.6-51.38-16.86-69,.76-82,6.9-28,1.91-35.65,1.15-34.12-.39-51,8.81Z"/><path class="cls-3" d="M878.56,79.09S863.19,74,849.93,68.54c-15.31-6.34-22.82,4-37.56,4.33S790.44,69,778.84,70.06c-17.25,1.54-19,7.18-27,9.76Z"/><path class="cls-3" d="M1826.15,81.91s-23-26.74-56.39-14.15-31.88,4.22-48.67,2.88c-14.4-1.15-20.09,9.7-32.42,11.27Z"/><path class="cls-3" d="M334.82,214.63s-11.09-1.92-35.46-14-51.1,5.41-68.65,1.73-33.75-4.82-48.22,1.89-24.78,4.46-37.86,2.69c-13.51-1.83-20.3,4.77-42.92,7.7Z"/><path class="cls-3" d="M452.52,161a226.94,226.94,0,0,1-65.85-18c-33.17-14.86-54.29-3.92-71,5.3-23,12.71-43.15,6.22-65.28,7A213.87,213.87,0,0,0,209.09,161Z"/><path class="cls-3" d="M700,323.32A159.66,159.66,0,0,1,674.34,314c-22.62-10.21-37.81-.63-49.07,2.15-18.49,4.55-28.37-5.85-65-.9-16.45,2.22-37.18,8.06-37.18,8.06Z"/><path class="cls-3" d="M1681,202.16s-34.38-6.24-61.35-17.88-44.07,5.06-68,9-31.62-2.22-51.37,0c-13.27,1.49-38.92,8.9-38.92,8.9Z"/><path class="cls-3" d="M1176.52,174.63s-34.37-6.23-61.34-17.88-44.07,5.07-68,9-31.62-2.21-51.38,0c-13.26,1.49-38.91,8.9-38.91,8.9Z"/><line class="cls-4" x1="62.66" y1="873.53" x2="1872.16" y2="873.53"/><path class="cls-5" d="M1118.09,873.53c5.76-39.08,50.67-69.5,99.82-69.5,37.38,0,69.71,17.6,85.33,43.22a88.09,88.09,0,0,1,39.85-9.66c28.6,0,53.64,14.4,67.47,35.94Z"/><path class="cls-6" d="M425.91,873.42c-6.2-36.37-54.64-64.68-107.63-64.68-40.31,0-75.17,16.38-92,40.22a107.39,107.39,0,0,0-43-9c-30.84,0-57.84,13.4-72.75,33.45Z"/><path class="cls-5" d="M402,614.19c0-84.75-49-91.85-53.83-169.49-4.49-71.65,0-135-80-135s-75.48,63.35-80,135c-4.86,77.64-53.83,84.74-53.83,169.49C134.43,796.2,402,796.2,402,614.19Z"/><line class="cls-4" x1="268.23" y1="417.37" x2="268.23" y2="873.42"/><line class="cls-4" x1="268.23" y1="693.69" x2="185.44" y2="610.9"/><line class="cls-4" x1="268.23" y1="599.47" x2="321.62" y2="546.09"/><line class="cls-4" x1="268.23" y1="666.87" x2="246.8" y2="645.44"/><line class="cls-4" x1="268.23" y1="460.82" x2="281.29" y2="447.76"/><path class="cls-5" d="M476.69,873.42c-4.15-30.7-36.55-54.59-72-54.59-27,0-50.28,13.83-61.55,33.95a59.29,59.29,0,0,0-28.74-7.59,56.52,56.52,0,0,0-48.66,28.23Z"/><path class="cls-5" d="M1828.8,602.66c0-88.48-51.14-95.88-56.22-176.95-4.68-74.81,0-140.95-83.48-140.95s-78.81,66.14-83.49,141c-5.08,81.07-56.21,88.47-56.21,177C1549.4,792.7,1828.8,792.7,1828.8,602.66Z"/><line class="cls-4" x1="1689.1" y1="397.18" x2="1689.1" y2="873.31"/><line class="cls-4" x1="1689.1" y1="685.67" x2="1602.65" y2="599.23"/><line class="cls-4" x1="1689.1" y1="587.3" x2="1744.83" y2="531.57"/><line class="cls-4" x1="1689.1" y1="657.67" x2="1666.72" y2="635.29"/><line class="cls-4" x1="1689.1" y1="442.54" x2="1702.73" y2="428.91"/><path class="cls-5" d="M1440.84,683.29c0-62.12,35.9-67.32,39.46-124.23,3.29-52.52,0-99,58.62-99s55.33,46.44,58.62,99C1601.1,616,1637,621.17,1637,683.29,1637,816.71,1440.84,816.71,1440.84,683.29Z"/><line class="cls-4" x1="1538.92" y1="539.03" x2="1538.92" y2="873.31"/><line class="cls-4" x1="1538.92" y1="741.57" x2="1599.61" y2="680.88"/><line class="cls-4" x1="1538.92" y1="672.51" x2="1499.79" y2="633.38"/><line class="cls-4" x1="1538.92" y1="721.91" x2="1554.63" y2="706.2"/><line class="cls-4" x1="1538.92" y1="570.87" x2="1529.35" y2="561.3"/><path class="cls-6" d="M1814.06,873.6c-14.38-17.72-40-29.56-67.26-29.56a99.64,99.64,0,0,0-34.24,6.18c-13.88-19.26-40.72-32.36-69.39-32.36-39.21,0-77.39,24.49-81.54,55.74Z"/><path class="cls-6" d="M590,1004.24c-11.57-14.25-32.17-23.78-54.1-23.78a79.88,79.88,0,0,0-27.54,5c-11.16-15.5-32.76-26-55.82-26-31.53,0-62.25,19.7-65.59,44.84Z"/><path class="cls-5" d="M1639.45,873.6c-3.47-25.68-30.59-45.68-60.26-45.68-22.56,0-42.08,11.57-51.51,28.41a49.67,49.67,0,0,0-24.06-6.35,47.33,47.33,0,0,0-40.73,23.62Z"/><line class="cls-4" x1="1348.21" y1="920.86" x2="1686.71" y2="920.86"/><line class="cls-4" x1="1320.09" y1="920.86" x2="1290.09" y2="920.86"/><line class="cls-4" x1="642.93" y1="1004.24" x2="251.25" y2="1004.24"/><line class="cls-4" x1="479.17" y1="1034.4" x2="849.31" y2="1034.4"/><path class="cls-5" d="M506.22,1034.4c4.77-32.43,42-57.68,82.84-57.68,31,0,57.85,14.61,70.82,35.87a73.17,73.17,0,0,1,33.07-8c23.73,0,44.51,11.94,56,29.82Z"/><rect class="cls-6" x="541.96" y="478.1" width="144.67" height="388.26"/><polygon class="cls-6" points="687.11 436.12 582.39 436.12 541.96 478.1 686.62 478.1 687.11 436.12"/><rect class="cls-7" x="502.02" y="467.51" width="137.49" height="398.84"/><rect class="cls-5" x="515.49" y="535.93" width="111.75" height="69.16"/><rect class="cls-6" x="515.49" y="535.93" width="2.36" height="69.16"/><rect class="cls-6" x="571.31" y="482.47" width="2.36" height="109.27" transform="translate(1109.6 -35.38) rotate(90)"/><rect class="cls-6" x="533.89" y="857.27" width="161.7" height="16.26"/><rect class="cls-5" x="493.5" y="857.27" width="152.26" height="16.26"/><rect class="cls-8" x="556.26" y="531.18" width="27.68" height="9.49"/><rect class="cls-6" x="582.12" y="646.51" width="31.69" height="11.56"/><line class="cls-4" x1="574.64" y1="646.51" x2="574.64" y2="658.07"/><line class="cls-9" x1="562.41" y1="789.43" x2="518.57" y2="789.43"/><line class="cls-9" x1="562.41" y1="795.37" x2="518.57" y2="795.37"/><line class="cls-9" x1="562.41" y1="801.31" x2="518.57" y2="801.31"/><line class="cls-9" x1="562.41" y1="807.24" x2="518.57" y2="807.24"/><line class="cls-9" x1="562.41" y1="813.18" x2="518.57" y2="813.18"/><line class="cls-9" x1="562.41" y1="819.12" x2="518.57" y2="819.12"/><line class="cls-9" x1="562.41" y1="825.06" x2="518.57" y2="825.06"/><line class="cls-9" x1="562.41" y1="831" x2="518.57" y2="831"/><line class="cls-9" x1="621.22" y1="789.43" x2="577.38" y2="789.43"/><line class="cls-9" x1="621.22" y1="795.37" x2="577.38" y2="795.37"/><line class="cls-9" x1="621.22" y1="801.31" x2="577.38" y2="801.31"/><line class="cls-9" x1="621.22" y1="807.24" x2="577.38" y2="807.24"/><line class="cls-9" x1="621.22" y1="813.18" x2="577.38" y2="813.18"/><line class="cls-9" x1="621.22" y1="819.12" x2="577.38" y2="819.12"/><line class="cls-9" x1="621.22" y1="825.06" x2="577.38" y2="825.06"/><line class="cls-9" x1="621.22" y1="831" x2="577.38" y2="831"/><rect class="cls-10" x="527.54" y="551.37" width="90.31" height="25.68"/><rect class="cls-10" x="527.54" y="580.82" width="43.88" height="12.83"/><rect class="cls-10" x="574.6" y="580.82" width="43.25" height="12.83"/><polygon class="cls-7" points="691.11 427.53 538.25 427.53 494.82 472.61 647.68 472.61 691.11 427.53"/><polygon class="cls-3" points="555.37 448.53 570.69 432.63 544.54 432.63 529.23 448.53 555.37 448.53"/><polygon class="cls-3" points="526.26 451.61 510.94 467.51 537.09 467.51 552.4 451.61 526.26 451.61"/><polygon class="cls-3" points="589.78 448.53 605.1 432.63 578.95 432.63 563.63 448.53 589.78 448.53"/><polygon class="cls-3" points="560.66 451.61 545.35 467.51 571.5 467.51 586.81 451.61 560.66 451.61"/><polygon class="cls-3" points="624.19 448.53 639.5 432.63 613.36 432.63 598.04 448.53 624.19 448.53"/><polygon class="cls-3" points="595.07 451.61 579.76 467.51 605.9 467.51 621.22 451.61 595.07 451.61"/><polygon class="cls-3" points="629.48 451.61 614.16 467.51 640.31 467.51 655.63 451.61 629.48 451.61"/><polygon class="cls-3" points="658.6 448.53 673.91 432.63 647.76 432.63 632.45 448.53 658.6 448.53"/><rect class="cls-8" x="494.82" y="472.61" width="152.86" height="7.18"/><polygon class="cls-8" points="647.68 479.79 647.68 472.61 691.11 427.53 691.11 434.64 647.68 479.79"/><rect class="cls-11" x="515.04" y="487.76" width="112.15" height="34.55"/><line class="cls-4" x1="552.4" y1="496.47" x2="574.64" y2="496.47"/><line class="cls-4" x1="552.4" y1="505.54" x2="599.04" y2="505.54"/><line class="cls-4" x1="552.4" y1="514.62" x2="577.54" y2="514.62"/><line class="cls-4" x1="582.35" y1="496.47" x2="615.86" y2="496.47"/><line class="cls-4" x1="605.37" y1="505.54" x2="615.86" y2="505.54"/><line class="cls-4" x1="584.58" y1="514.62" x2="596.72" y2="514.62"/><line class="cls-4" x1="601.91" y1="514.62" x2="621.14" y2="514.62"/><path class="cls-3" d="M527.12,496.06a4.64,4.64,0,0,0-.28-1.22c-.31-.48-.9-.58-2.19-.62l0-1.32c2.36,0,4.71,0,7.11,0,1.56,0,3.15-.07,4.71,0,.56,0,1.11,0,1.67.07,1.77.31,3.29.56,4.58,2a6.42,6.42,0,0,1,1.49,4.61c0,1-.11,4.82-3.37,6.42a9.17,9.17,0,0,1-2.6.69,32.09,32.09,0,0,1-5.93.17v7.22a2.79,2.79,0,0,0,.07.86c.31,1,1.11.87,2.05.87.41,0,.8,0,1.18,0v1.38h-11v-1.45a3.07,3.07,0,0,0,2-.35c.27-.24.38-.56.45-1.42Zm5.34,9.47c2.49.07,3.85,0,4.78-.73,1.74-1.35,1.6-5,1.6-5.13,0-1.46,0-3.13-.9-4.27a2.37,2.37,0,0,0-.84-.76c-.86-.42-2.42-.42-4.68-.28Z"/><rect class="cls-11" x="526.48" y="612.45" width="87.25" height="29.02"/><rect class="cls-3" x="533.55" y="615.2" width="4.52" height="4.52"/><rect class="cls-3" x="539.85" y="615.2" width="4.52" height="4.52"/><rect class="cls-3" x="546.14" y="615.2" width="4.52" height="4.52"/><rect class="cls-3" x="552.44" y="615.2" width="4.52" height="4.52"/><rect class="cls-3" x="558.73" y="615.2" width="4.52" height="4.52"/><rect class="cls-3" x="565.03" y="615.2" width="4.52" height="4.52"/><rect class="cls-3" x="571.32" y="615.2" width="4.52" height="4.52"/><rect class="cls-3" x="577.62" y="615.2" width="4.52" height="4.52"/><rect class="cls-3" x="583.92" y="615.2" width="4.52" height="4.52"/><rect class="cls-3" x="590.21" y="615.2" width="4.52" height="4.52"/><rect class="cls-3" x="596.51" y="615.2" width="4.52" height="4.52"/><rect class="cls-3" x="602.8" y="615.2" width="4.52" height="4.52"/><rect class="cls-3" x="530.4" y="621.26" width="4.52" height="4.52"/><rect class="cls-3" x="536.7" y="621.26" width="4.52" height="4.52"/><rect class="cls-3" x="542.99" y="621.26" width="4.52" height="4.52"/><rect class="cls-3" x="549.29" y="621.26" width="4.52" height="4.52"/><rect class="cls-3" x="555.58" y="621.26" width="4.52" height="4.52"/><rect class="cls-3" x="561.88" y="621.26" width="4.52" height="4.52"/><rect class="cls-3" x="568.18" y="621.26" width="4.52" height="4.52"/><rect class="cls-3" x="574.47" y="621.26" width="4.52" height="4.52"/><rect class="cls-3" x="580.77" y="621.26" width="4.52" height="4.52"/><rect class="cls-3" x="587.06" y="621.26" width="4.52" height="4.52"/><rect class="cls-3" x="593.36" y="621.26" width="4.52" height="4.52"/><rect class="cls-3" x="599.66" y="621.26" width="4.52" height="4.52"/><rect class="cls-3" x="605.95" y="621.26" width="4.52" height="4.52"/><rect class="cls-3" x="533.55" y="627.31" width="4.52" height="4.52"/><rect class="cls-3" x="539.85" y="627.31" width="4.52" height="4.52"/><rect class="cls-3" x="546.14" y="627.31" width="4.52" height="4.52"/><rect class="cls-3" x="552.44" y="627.31" width="4.52" height="4.52"/><rect class="cls-3" x="558.73" y="627.31" width="4.52" height="4.52"/><rect class="cls-3" x="565.03" y="627.31" width="4.52" height="4.52"/><rect class="cls-3" x="571.32" y="627.31" width="4.52" height="4.52"/><rect class="cls-3" x="577.62" y="627.31" width="4.52" height="4.52"/><rect class="cls-3" x="583.92" y="627.31" width="4.52" height="4.52"/><rect class="cls-3" x="590.21" y="627.31" width="4.52" height="4.52"/><rect class="cls-3" x="596.51" y="627.31" width="4.52" height="4.52"/><rect class="cls-3" x="602.8" y="627.31" width="4.52" height="4.52"/><rect class="cls-3" x="530.4" y="633.36" width="4.52" height="4.52"/><rect class="cls-3" x="536.7" y="633.36" width="10.82" height="4.52"/><rect class="cls-3" x="549.29" y="633.36" width="4.52" height="4.52"/><rect class="cls-3" x="555.58" y="633.36" width="4.52" height="4.52"/><rect class="cls-3" x="561.88" y="633.36" width="4.52" height="4.52"/><rect class="cls-3" x="568.18" y="633.36" width="4.52" height="4.52"/><rect class="cls-3" x="574.47" y="633.36" width="4.52" height="4.52"/><rect class="cls-3" x="580.77" y="633.36" width="10.82" height="4.52"/><rect class="cls-3" x="593.36" y="633.36" width="10.82" height="4.52"/><rect class="cls-3" x="605.95" y="633.36" width="4.52" height="4.52"/><circle class="cls-5" cx="529.23" cy="651.56" r="4.16"/><circle class="cls-5" cx="542.99" cy="651.56" r="4.16"/><circle class="cls-8" cx="556.75" cy="651.56" r="4.16"/><line class="cls-4" x1="526.7" y1="661.64" x2="531.82" y2="661.64"/><line class="cls-4" x1="540.43" y1="661.64" x2="545.55" y2="661.64"/><line class="cls-4" x1="554.17" y1="661.64" x2="559.29" y2="661.64"/><path class="cls-7" d="M518.57,679.25H621.22a0,0,0,0,1,0,0v87a11.4,11.4,0,0,1-11.4,11.4H530a11.4,11.4,0,0,1-11.4-11.4v-87A0,0,0,0,1,518.57,679.25Z"/><circle class="cls-6" cx="569.9" cy="772.28" r="1.73"/><rect class="cls-6" x="531.77" y="678.24" width="12.59" height="2.04"/><rect class="cls-6" x="596.51" y="678.24" width="12.59" height="2.04"/><circle class="cls-6" cx="1044.38" cy="804.53" r="68.61"/><circle class="cls-6" cx="682.73" cy="804.53" r="68.61"/><path class="cls-12" d="M1323.15,639.63V798.51H598.25A18.26,18.26,0,0,1,580,780.25v-81.6a17.83,17.83,0,0,1,13-17.16l145.76-44.7S866.15,474.43,868.86,475.33s365.94,0,365.94,0Z"/><path class="cls-12" d="M1345.51,639.63V798.51H750.9V698.65a17.84,17.84,0,0,1,13-17.16l145.76-44.7s127.42-162.36,130.13-161.46,217.39,0,217.39,0Z"/><circle class="cls-6" cx="1203.11" cy="804.53" r="68.61"/><circle class="cls-3" cx="1203.11" cy="804.53" r="26.26"/><circle class="cls-6" cx="841.47" cy="804.53" r="68.61"/><polygon class="cls-5" points="1303.05 635.78 1110.22 635.78 1110.22 505.6 1238.05 505.6 1303.05 635.78"/><polygon class="cls-5" points="1078.11 635.78 954.31 635.78 1054.26 505.6 1078.11 505.6 1078.11 635.78"/><polygon class="cls-5" points="845.57 502.4 1016.21 502.4 909.65 636.79 738.73 636.79 845.57 502.4"/><path class="cls-11" d="M1287.74,745.25S1310,780.46,1310,818.37h42.73V745.25Z"/><line class="cls-13" x1="1047.84" y1="672.13" x2="1008.12" y2="672.13"/><line class="cls-13" x1="1284.16" y1="675.98" x2="1244.44" y2="675.98"/><line class="cls-13" x1="1079.41" y1="677.59" x2="1079.41" y2="770.33"/><path class="cls-3" d="M1349.85,700.6h-18.61V740h18.61a13.27,13.27,0,0,0,13.28-13.28V713.88A13.28,13.28,0,0,0,1349.85,700.6Z"/><path class="cls-3" d="M771.69,700.59H755.6a15.8,15.8,0,0,0-15.8,15.8v7.81A15.8,15.8,0,0,0,755.6,740h16.09Z"/><path class="cls-3" d="M595.93,700.59H579.84a15.8,15.8,0,0,0-15.8,15.8v7.81A15.8,15.8,0,0,0,579.84,740h16.09Z"/><path class="cls-11" d="M580,745.25H738a12.92,12.92,0,0,1,12.92,12.92v40.34a0,0,0,0,1,0,0H580a0,0,0,0,1,0,0V745.25A0,0,0,0,1,580,745.25Z" transform="translate(1330.89 1543.76) rotate(-180)"/><circle class="cls-3" cx="841.47" cy="804.53" r="26.26"/><line class="cls-4" x1="963.6" y1="475.33" x2="996.27" y2="376.59"/><circle class="cls-5" cx="996.27" cy="376.59" r="9.84"/></g></svg>