<svg id="Layer_1" data-name="Layer 1" xmlns="http://www.w3.org/2000/svg" xmlns:xlink="http://www.w3.org/1999/xlink" viewBox="0 0 581 600"><defs><style>.cls-1,.cls-12,.cls-17,.cls-21,.cls-7{fill:none;}.cls-2{clip-path:url(#clip-path);}.cls-3{fill:#3967dd;}.cls-19,.cls-4,.cls-6,.cls-9{fill:#fff;}.cls-11,.cls-5{fill:#02225a;}.cls-10,.cls-11,.cls-12,.cls-13,.cls-15,.cls-16,.cls-17,.cls-18,.cls-19,.cls-20,.cls-21,.cls-5,.cls-6,.cls-7,.cls-8,.cls-9{stroke:#02225a;stroke-linecap:round;stroke-linejoin:round;}.cls-10,.cls-16,.cls-5,.cls-6,.cls-7,.cls-8{stroke-width:1.34px;}.cls-15,.cls-8{fill:#57bef7;}.cls-9{stroke-width:1.18px;}.cls-10,.cls-14,.cls-20{fill:#fc9f40;}.cls-11,.cls-12{stroke-width:1.05px;}.cls-13{fill:#b9355e;stroke-width:1.12px;}.cls-15{stroke-width:1.43px;}.cls-16,.cls-18{fill:#f95269;}.cls-17{stroke-width:2.01px;}.cls-18{stroke-width:0.96px;}.cls-19,.cls-20,.cls-21{stroke-width:0.99px;}</style><clipPath id="clip-path"><rect class="cls-1" width="581" height="600"/></clipPath></defs><g class="cls-2"><rect class="cls-3" x="-379.42" y="-33.55" width="1343.85" height="683.1"/><path class="cls-4" d="M50.75,149.44S66.12,131.58,88.42,140s21.29,2.82,32.5,1.92c9.62-.76,13.42,6.48,21.65,7.53Z"/><path class="cls-5" d="M277.64,556.66c-3.57-24.33-31.36-43.27-61.77-43.27-23.13,0-43.14,11-52.8,26.91a54.3,54.3,0,0,0-24.66-6,49.34,49.34,0,0,0-41.75,22.37Z"/><path class="cls-6" d="M70.58,351.19c0-67.19,38.83-72.81,42.69-134.37,3.55-56.8,0-107,63.39-107s59.84,50.23,63.4,107c3.85,61.56,42.68,67.18,42.68,134.37C282.74,495.49,70.58,495.49,70.58,351.19Z"/><line class="cls-7" x1="176.66" y1="195.16" x2="176.66" y2="556.7"/><line class="cls-7" x1="176.66" y1="414.22" x2="242.3" y2="348.58"/><line class="cls-7" x1="176.66" y1="339.52" x2="134.34" y2="297.2"/><line class="cls-7" x1="176.66" y1="392.96" x2="193.65" y2="375.96"/><line class="cls-7" x1="176.66" y1="229.6" x2="166.31" y2="219.25"/><line class="cls-7" x1="64.04" y1="556.73" x2="521.15" y2="556.73"/><path class="cls-4" d="M406,149.72s7.4-1.29,23.68-9.37,34.13,3.62,45.85,1.16,22.55-3.22,32.21,1.26,16.55,3,25.29,1.8c9-1.23,13.56,3.19,28.67,5.15Z"/><path class="cls-4" d="M386.08,66.88a107.11,107.11,0,0,0,17.1-6.22c15.11-6.82,25.26-.42,32.78,1.43,12.35,3,19-3.9,43.4-.6a219.72,219.72,0,0,1,24.84,5.39Z"/><path class="cls-4" d="M70.58,91.88s23-4.16,41-11.94,29.43,3.39,45.41,6,21.11-1.48,34.31,0c8.86,1,26,5.94,26,5.94Z"/><rect class="cls-5" x="294.88" y="133.24" width="154.9" height="415.73"/><polygon class="cls-5" points="450.31 88.3 338.17 88.3 294.88 133.24 449.79 133.24 450.31 88.3"/><rect class="cls-8" x="252.12" y="121.91" width="147.22" height="427.07"/><rect class="cls-6" x="266.55" y="195.17" width="119.66" height="74.05"/><rect class="cls-5" x="266.55" y="195.17" width="2.53" height="74.05"/><rect class="cls-5" x="326.32" y="137.93" width="2.53" height="117" transform="translate(524.01 -131.15) rotate(90)"/><rect class="cls-5" x="286.24" y="539.25" width="173.15" height="17.41"/><rect class="cls-9" x="243" y="539.25" width="163.03" height="17.41"/><rect class="cls-10" x="310.2" y="190.09" width="29.64" height="10.16"/><rect class="cls-11" x="337.89" y="313.58" width="33.93" height="12.37"/><line class="cls-12" x1="329.89" y1="313.58" x2="329.89" y2="325.95"/><line class="cls-13" x1="316.79" y1="466.61" x2="269.84" y2="466.61"/><line class="cls-13" x1="316.79" y1="472.97" x2="269.84" y2="472.97"/><line class="cls-13" x1="316.79" y1="479.32" x2="269.84" y2="479.32"/><line class="cls-13" x1="316.79" y1="485.68" x2="269.84" y2="485.68"/><line class="cls-13" x1="316.79" y1="492.04" x2="269.84" y2="492.04"/><line class="cls-13" x1="316.79" y1="498.4" x2="269.84" y2="498.4"/><line class="cls-13" x1="316.79" y1="504.76" x2="269.84" y2="504.76"/><line class="cls-13" x1="316.79" y1="511.12" x2="269.84" y2="511.12"/><line class="cls-13" x1="379.76" y1="466.61" x2="332.81" y2="466.61"/><line class="cls-13" x1="379.76" y1="472.97" x2="332.81" y2="472.97"/><line class="cls-13" x1="379.76" y1="479.32" x2="332.81" y2="479.32"/><line class="cls-13" x1="379.76" y1="485.68" x2="332.81" y2="485.68"/><line class="cls-13" x1="379.76" y1="492.04" x2="332.81" y2="492.04"/><line class="cls-13" x1="379.76" y1="498.4" x2="332.81" y2="498.4"/><line class="cls-13" x1="379.76" y1="504.76" x2="332.81" y2="504.76"/><line class="cls-13" x1="379.76" y1="511.12" x2="332.81" y2="511.12"/><rect class="cls-14" x="279.45" y="211.71" width="96.7" height="27.49"/><rect class="cls-14" x="279.45" y="243.23" width="46.98" height="13.74"/><rect class="cls-14" x="329.83" y="243.23" width="46.31" height="13.74"/><polygon class="cls-15" points="454.59 79.09 290.92 79.09 244.42 127.37 408.09 127.37 454.59 79.09"/><polygon class="cls-4" points="309.25 101.58 325.65 84.56 297.65 84.56 281.25 101.58 309.25 101.58"/><polygon class="cls-4" points="278.07 104.88 261.67 121.91 289.67 121.91 306.07 104.88 278.07 104.88"/><polygon class="cls-4" points="346.09 101.58 362.49 84.56 334.49 84.56 318.09 101.58 346.09 101.58"/><polygon class="cls-4" points="314.92 104.88 298.52 121.91 326.51 121.91 342.91 104.88 314.92 104.88"/><polygon class="cls-4" points="382.94 101.58 399.33 84.56 371.34 84.56 354.94 101.58 382.94 101.58"/><polygon class="cls-4" points="351.76 104.88 335.36 121.91 363.36 121.91 379.76 104.88 351.76 104.88"/><polygon class="cls-4" points="388.6 104.88 372.2 121.91 400.2 121.91 416.6 104.88 388.6 104.88"/><polygon class="cls-4" points="419.78 101.58 436.18 84.56 408.18 84.56 391.78 101.58 419.78 101.58"/><rect class="cls-10" x="244.42" y="127.37" width="163.67" height="7.68"/><polygon class="cls-10" points="408.09 135.06 408.09 127.37 454.59 79.09 454.59 86.71 408.09 135.06"/><rect class="cls-16" x="266.06" y="143.59" width="120.08" height="37"/><line class="cls-17" x1="306.07" y1="152.92" x2="329.89" y2="152.92"/><line class="cls-17" x1="306.07" y1="162.63" x2="356.01" y2="162.63"/><line class="cls-17" x1="306.07" y1="172.35" x2="332.99" y2="172.35"/><line class="cls-17" x1="338.14" y1="152.92" x2="374.02" y2="152.92"/><line class="cls-17" x1="362.79" y1="162.63" x2="374.02" y2="162.63"/><line class="cls-17" x1="340.53" y1="172.35" x2="353.52" y2="172.35"/><line class="cls-17" x1="359.08" y1="172.35" x2="379.67" y2="172.35"/><path class="cls-4" d="M279,152.48a4.42,4.42,0,0,0-.29-1.3c-.34-.52-1-.64-2.34-.67l0-1.41c2.53,0,5.05,0,7.62,0,1.67,0,3.37-.08,5.05,0,.59,0,1.18,0,1.78.07,1.89.33,3.53.59,4.9,2.12a6.83,6.83,0,0,1,1.6,4.94c0,1.11-.11,5.16-3.6,6.87a10.16,10.16,0,0,1-2.79.74,35.62,35.62,0,0,1-6.35.18v7.73a3.28,3.28,0,0,0,.07.93c.34,1,1.19.92,2.2.92.44,0,.85,0,1.26,0v1.49H276.36v-1.56a3.29,3.29,0,0,0,2.15-.37c.3-.26.41-.6.48-1.53Zm5.72,10.13c2.67.08,4.12,0,5.13-.78,1.85-1.45,1.7-5.34,1.7-5.49,0-1.56,0-3.34-1-4.57a2.39,2.39,0,0,0-.89-.82c-.93-.44-2.6-.44-5-.29Z"/><rect class="cls-18" x="278.31" y="277.1" width="93.43" height="31.08"/><rect class="cls-4" x="285.88" y="280.05" width="4.84" height="4.84"/><rect class="cls-4" x="292.62" y="280.05" width="4.84" height="4.84"/><rect class="cls-4" x="299.36" y="280.05" width="4.84" height="4.84"/><rect class="cls-4" x="306.11" y="280.05" width="4.84" height="4.84"/><rect class="cls-4" x="312.85" y="280.05" width="4.84" height="4.84"/><rect class="cls-4" x="319.59" y="280.05" width="4.84" height="4.84"/><rect class="cls-4" x="326.33" y="280.05" width="4.84" height="4.84"/><rect class="cls-4" x="333.07" y="280.05" width="4.84" height="4.84"/><rect class="cls-4" x="339.81" y="280.05" width="4.84" height="4.84"/><rect class="cls-4" x="346.55" y="280.05" width="4.84" height="4.84"/><rect class="cls-4" x="353.3" y="280.05" width="4.84" height="4.84"/><rect class="cls-4" x="360.04" y="280.05" width="4.84" height="4.84"/><rect class="cls-4" x="282.51" y="286.53" width="4.84" height="4.84"/><rect class="cls-4" x="289.25" y="286.53" width="4.84" height="4.84"/><rect class="cls-4" x="295.99" y="286.53" width="4.84" height="4.84"/><rect class="cls-4" x="302.74" y="286.53" width="4.84" height="4.84"/><rect class="cls-4" x="309.48" y="286.53" width="4.84" height="4.84"/><rect class="cls-4" x="316.22" y="286.53" width="4.84" height="4.84"/><rect class="cls-4" x="322.96" y="286.53" width="4.84" height="4.84"/><rect class="cls-4" x="329.7" y="286.53" width="4.84" height="4.84"/><rect class="cls-4" x="336.44" y="286.53" width="4.84" height="4.84"/><rect class="cls-4" x="343.18" y="286.53" width="4.84" height="4.84"/><rect class="cls-4" x="349.92" y="286.53" width="4.84" height="4.84"/><rect class="cls-4" x="356.67" y="286.53" width="4.84" height="4.84"/><rect class="cls-4" x="363.41" y="286.53" width="4.84" height="4.84"/><rect class="cls-4" x="285.88" y="293.01" width="4.84" height="4.84"/><rect class="cls-4" x="292.62" y="293.01" width="4.84" height="4.84"/><rect class="cls-4" x="299.36" y="293.01" width="4.84" height="4.84"/><rect class="cls-4" x="306.11" y="293.01" width="4.84" height="4.84"/><rect class="cls-4" x="312.85" y="293.01" width="4.84" height="4.84"/><rect class="cls-4" x="319.59" y="293.01" width="4.84" height="4.84"/><rect class="cls-4" x="326.33" y="293.01" width="4.84" height="4.84"/><rect class="cls-4" x="333.07" y="293.01" width="4.84" height="4.84"/><rect class="cls-4" x="339.81" y="293.01" width="4.84" height="4.84"/><rect class="cls-4" x="346.55" y="293.01" width="4.84" height="4.84"/><rect class="cls-4" x="353.3" y="293.01" width="4.84" height="4.84"/><rect class="cls-4" x="360.04" y="293.01" width="4.84" height="4.84"/><rect class="cls-4" x="282.51" y="299.5" width="4.84" height="4.84"/><rect class="cls-4" x="289.25" y="299.5" width="11.58" height="4.84"/><rect class="cls-4" x="302.74" y="299.5" width="4.84" height="4.84"/><rect class="cls-4" x="309.48" y="299.5" width="4.84" height="4.84"/><rect class="cls-4" x="316.22" y="299.5" width="4.84" height="4.84"/><rect class="cls-4" x="322.96" y="299.5" width="4.84" height="4.84"/><rect class="cls-4" x="329.7" y="299.5" width="4.84" height="4.84"/><rect class="cls-4" x="336.44" y="299.5" width="11.58" height="4.84"/><rect class="cls-4" x="349.92" y="299.5" width="11.58" height="4.84"/><rect class="cls-4" x="363.41" y="299.5" width="4.84" height="4.84"/><circle class="cls-19" cx="281.26" cy="318.98" r="4.45"/><circle class="cls-19" cx="295.99" cy="318.98" r="4.45"/><circle class="cls-20" cx="310.73" cy="318.98" r="4.45"/><line class="cls-21" x1="278.55" y1="329.77" x2="284.03" y2="329.77"/><line class="cls-21" x1="293.25" y1="329.77" x2="298.74" y2="329.77"/><line class="cls-21" x1="307.96" y1="329.77" x2="313.44" y2="329.77"/><path class="cls-8" d="M269.84,348.63H379.76a0,0,0,0,1,0,0v98.42a7,7,0,0,1-7,7H276.84a7,7,0,0,1-7-7V348.63A0,0,0,0,1,269.84,348.63Z"/><circle class="cls-5" cx="324.8" cy="448.24" r="1.85"/><rect class="cls-5" x="283.98" y="347.54" width="13.48" height="2.18"/><rect class="cls-5" x="353.3" y="347.54" width="13.48" height="2.18"/></g></svg>