<svg xmlns="http://www.w3.org/2000/svg" xmlns:xlink="http://www.w3.org/1999/xlink" viewBox="0 0 503 300"><defs><style>.cls-1,.cls-10{fill:none;}.cls-2{clip-path:url(#clip-path);}.cls-3{fill:#3967dd;}.cls-4{fill:url(#linear-gradient);}.cls-5,.cls-6,.cls-9{fill:#fff;}.cls-10,.cls-12,.cls-13,.cls-14,.cls-15,.cls-17,.cls-18,.cls-19,.cls-6,.cls-9{stroke:#02225a;stroke-linecap:round;stroke-linejoin:round;}.cls-6{stroke-width:0.89px;}.cls-7{clip-path:url(#clip-path-2);}.cls-8{fill:url(#linear-gradient-2);}.cls-10,.cls-12,.cls-13,.cls-14,.cls-15,.cls-17,.cls-18,.cls-19,.cls-9{stroke-width:0.74px;}.cls-11{fill:url(#linear-gradient-3);}.cls-12{fill:#02225a;}.cls-13{fill:#57bef7;}.cls-14,.cls-16{fill:#fc9f40;}.cls-15{fill:#b9355e;}.cls-17{fill:#f95269;}.cls-18{fill:#5fe0ab;}.cls-19{fill:#fac777;}</style><clipPath id="clip-path"><rect class="cls-1" x="-1085.7" y="0.51" width="743" height="298.98"/></clipPath><linearGradient id="linear-gradient" x1="-341.25" y1="210.24" x2="-341.25" y2="2.32" gradientUnits="userSpaceOnUse"><stop offset="0" stop-color="#3967dd" stop-opacity="0"/><stop offset="1" stop-color="#2a57bc"/></linearGradient><clipPath id="clip-path-2"><rect class="cls-1" y="0.51" width="503" height="298.98"/></clipPath><linearGradient id="linear-gradient-2" x1="569.21" y1="199.74" x2="569.21" y2="26.68" xlink:href="#linear-gradient"/><linearGradient id="linear-gradient-3" x1="-55.61" y1="199.74" x2="-55.61" y2="26.68" xlink:href="#linear-gradient"/></defs><g id="Layer_1" data-name="Layer 1"><g class="cls-2"><rect class="cls-3" x="-1470.69" y="-201.37" width="1508.71" height="848.65"/><path class="cls-4" d="M-716.64,263.66V116.32h14.32v-5.88l3.62-.59v-13l2.72-4.63c.42.15.86.17,1,.36.68,1.52,1.3,3.07,2.12,5.05l-1,1.56,1.66,2.29h6.89c-.49-3.79,1.14-7.18,3.06-10.67l1.2,2.45L-660,74.78c-.32-6.07,1.35-11.42,4.5-16.88.68,3.33,1.28,6.3,2,9.71l1.76.58v6.65c3.73,3.17,7.48,6.34,11.21,9.53,3.58,3.06,6.13,7.3,10.79,9.52v8.86h15a52.82,52.82,0,0,0,3.93,4.08c1.39,1.21,2.15,3.43,5,3.26V73.4c0-3.62-.19-7.25.06-10.84.22-3.25.91-6.47,1.44-10h8.11c4.37-2.67,1.75-5.68,1-8.54l3.44-5c3.4-2.46,8.27-.73,13-1.28l4.39,4.84v9.66H-565v5.53l2.49.85V80c6.35,0,12.52.22,18.67-.06,5.81-.27,11.82,1.31,17.63-1.09V69.42L-524,69c.1-1.33.22-2.83.35-4.54H-517l1-2.85,1,2.59h6.74c.09,1.77.15,3.12.23,4.72l3.47.54V80h21.11a2.8,2.8,0,0,1,.43.41,1,1,0,0,1,.2.52c0,6.8,0,13.6,0,20.83l4.59,1.59V82.47l-3.65-7.5,6-7.94L-484,56.3c4.2-.18,8,1.84,10.94,6.09l1.5-2.69h3.05v1.78l-2.53,1,2.44,5.08-3.23,3.23c2.54,3.5-.38,8,2.1,11.63a3.16,3.16,0,0,1-1,4.2c2.13,2.42.87,5.33,1.09,8s.05,5.19.05,7.92l2.13.63c.59-7.52.1-14.85.32-22,1.06-1.66,2-3.3,3.12-4.83s2.26-2.71,4-4.81c0,.11.07-.84.17-2h3.3c.12,1,.23,2,.36,3.14h11.64c.44-2.08.95-4.47,1.45-6.85s-1.08-4.82,1.17-6.75l-1.93-2.33,3.26-1,1.31,1.11-.86,1.89c.69,4.37,1.42,9,2.2,13.87h11.55c.1-1,.2-1.9.32-3.09h3.22l.37,2.76c4.41.69,3.67,6,7,8.3v22.2h3.3c-.12.11.16,0,.16-.14q0-8.06,0-16.1l5.08-2.93,3.1,1.89c.26-1.52.45-2.56.67-3.81l2-.72c.11-.9.22-1.85.34-2.87l2.11-.81c.1-.92.21-1.87.33-3h3.08c.22-1.28.41-2.38.63-3.63h4.3v2.88l2.46.84v2.83l2.5.86c.06.85.12,1.8.21,3h3.58c-.43-5.42.07-10.63,3-15.45,2.87,8.83,1.4,17.77,1.71,26.59.13,3.4,0,6.82,0,10.52h5.73c1.14-4.11-.9-8.63,1.21-12.55-.41-2.24-.82-4.48-1.16-6.36l3.26-4.46,2.64,3.59c-.31,2.67-1.31,5.16-.68,7.12,1.34,4.21.88,8.46,1.09,12.78l2.15.13V58.73l3.46-.65c.53-2.4.6-5,1.71-7.12,1.21-2.28,1-4.49,1.07-6.79.06-2.53,0-5.06,0-8.36l3.73,2.49c-.47,1.3-1.57,2.73-1.24,3.67,1.84,5.34.82,11.4,4.08,16.22l1.9.44V77.16c2.16,1,2.69,0,2.28-2h37.21V62.73l2-2,1.29,2.7,6.34-4.1V53.08l2.1-2.09,3,3.93v4.24l5.41,3.72,2.63-1.48c.62,4.36.05,8.32.47,12.89a10.67,10.67,0,0,0,2.22-1.39c1.51-1.72,2.92-3.53,4.74-5.77,3.52,4.26,8,6.69,10.87,11.24V96l3.77,2.52c-1.68,3-1.7,3,.5,5.57h13.25a2.64,2.64,0,0,0,.41-.36,1,1,0,0,0,.22-.51c0-7.2,0-14.4,0-22.21l14.24,2.41v-3l37.37,5.88v3.09l8.74,2q-.74,5.85-1.58,12.45h3.62V74.31l5-5.09h7.58l8-6.06v37h4.89V63.46c1.66-.29,1.89,1.25,2.76,1.73a21.93,21.93,0,0,1,2.37,1.55c.94.7,1.84,1.46,2.94,2.34h8.22c1,2.06,1.76,4.55,5.51,3.35v14c0,4.42-.49,8.91.14,13.24s-3.79,8.6.64,13.27c.23-1.86.4-3.25.63-5.07h8.09c.08-1.18.13-2,.18-2.66l-4.86-6.32v-6.1c1.45-1.48,2.84-2.92,4.18-4.3h6.84l3.06,1.51a4.55,4.55,0,0,0,.39.78c2,2.84.91,6.08,1.24,9.09l-3.54,3.55v4.14h10.45v-3.81c-1.58-2.21-3.23-4.52-4.75-6.63l1.79-6c2.87-3.24,6.89-2.65,11.28-2.57l3.78,5c1.13,5-1.22,8.42-4.53,11.13v2.87h11.89c0-.89.09-1.67.14-2.57L-97,100.76v-8.3l4-4c3.11.15,6.62-.73,10.08,1.72,2,2.76,1.38,6.31,1.31,9.78-1.56,1.57-3.13,3.13-4.72,4.72v2.41c2.51,2,4.6-.19,7.07-.88V95.92h21.1l2.07-2.51h13V79.72l9.36,7.36h4.13l11.42-4.83.68,1.8c-4.53,2.33-9,4.62-13.66,7,3,2.46,5.26-.25,7.71-.31a51.38,51.38,0,0,0,7.33-1.13,23.91,23.91,0,0,1,8.3-.42l-2.46.69v5.59H4V42.7c5.09-.32,10.06.76,14.46-2.07,0-.29,0-.69-.09-1.5H7.83c-.07-1-.11-1.51-.17-2.29H25.48c-.09,2.39.82,4.56,3.81,5.14v64.24l4.86.51V263.66Z"/><path class="cls-5" d="M34.15,111.62a136.47,136.47,0,0,1-22.79-7.48c-12.92-5.45-30.61.34-36.39,3.06s-12.41.85-15.81.51-15.14-.17-22.62,3.91Z"/><path class="cls-5" d="M11.12,89.42s-15.25-2.76-27.21-7.93-19.55,2.25-30.16,4-14-1-22.79,0c-5.88.66-17.26,3.94-17.26,3.94Z"/><path class="cls-6" d="M-104.59,275.74c2.12-14.38,18.65-25.58,36.74-25.58,13.76,0,25.66,6.48,31.41,15.91a32.45,32.45,0,0,1,14.67-3.56A29.4,29.4,0,0,1,3.07,275.74Z"/></g><g class="cls-7"><rect class="cls-3" x="-370.84" y="-142.85" width="1255.72" height="706.34"/><path class="cls-8" d="M256.76,244.2V121.57h11.92v-4.9l3-.49v-10.8l2.26-3.86c.36.13.73.15.8.3.57,1.27,1.08,2.56,1.76,4.2l-.86,1.3,1.38,1.91h5.73c-.41-3.16.95-6,2.55-8.88l1,2L303.91,87c-.28-5,1.12-9.51,3.74-14L309.29,81l1.46.47V87L320.09,95c3,2.55,5.09,6.08,9,7.92v7.38h12.51c1,1,2,2.33,3.27,3.4s1.8,2.85,4.19,2.71V85.84c0-3-.15-6,0-9,.18-2.71.76-5.38,1.2-8.33H357c3.63-2.22,1.45-4.73.88-7.11l2.86-4.15c2.82-2,6.88-.61,10.81-1.07l3.65,4v8H383v4.61l2.07.7V91.33c5.29,0,10.42.18,15.53,0,4.84-.23,9.85,1.09,14.68-.91V82.53l1.84-.38c.08-1.11.18-2.36.29-3.78h5.5l.87-2.38.82,2.16h5.6l.2,3.93,2.88.45v8.8h17.58a2.26,2.26,0,0,1,.35.34.93.93,0,0,1,.17.43v17.34l3.82,1.32V93.39l-3-6.24,5-6.61-6.76-8.93c3.51-.15,6.64,1.53,9.12,5.07l1.24-2.24h2.54v1.48l-2.11.8,2,4.24-2.69,2.68c2.11,2.92-.32,6.64,1.75,9.69a2.64,2.64,0,0,1-.85,3.49c1.77,2,.72,4.43.91,6.65s0,4.32,0,6.59l1.77.52c.49-6.25.08-12.35.26-18.34.89-1.38,1.68-2.75,2.6-4s1.88-2.27,3.35-4c0,.09.05-.7.14-1.71h2.74c.1.86.2,1.65.31,2.62h9.69c.36-1.74.78-3.72,1.2-5.71s-.9-4,1-5.61l-1.6-1.94,2.71-.83,1.09.92-.71,1.57c.57,3.64,1.18,7.46,1.83,11.55h9.61l.27-2.58h2.68l.31,2.3c3.66.58,3.05,5,5.85,6.91v18.48h2.75c-.11.09.12,0,.12-.12q0-6.7,0-13.4l4.23-2.44,2.58,1.58.55-3.17,1.69-.6c.09-.76.18-1.55.28-2.4l1.76-.66c.08-.77.17-1.56.27-2.52h2.57c.18-1.07.34-2,.52-3h3.58v2.4l2,.7v2.36l2.08.71c0,.72.11,1.5.18,2.52h3c-.36-4.51.06-8.85,2.52-12.86,2.38,7.35,1.16,14.79,1.42,22.13.1,2.83,0,5.67,0,8.76h4.76c1-3.42-.75-7.18,1-10.45-.34-1.86-.68-3.73-1-5.29,1.07-1.46,1.89-2.6,2.71-3.71l2.2,3c-.26,2.23-1.09,4.3-.57,5.93,1.12,3.5.74,7,.91,10.63l1.79.11V73.63l2.88-.54c.44-2,.5-4.18,1.42-5.92,1-1.9.85-3.74.89-5.66.05-2.1,0-4.21,0-7l3.11,2.08c-.39,1.08-1.3,2.27-1,3.06,1.53,4.44.68,9.48,3.39,13.49l1.59.37V89c1.8.84,2.23,0,1.89-1.62h31V77l1.68-1.67,1.08,2.25,5.28-3.41v-5.2l1.74-1.74,2.51,3.27V74l4.51,3.1,2.19-1.24c.51,3.64,0,6.93.39,10.73a8.56,8.56,0,0,0,1.84-1.16c1.27-1.42,2.44-2.94,3.95-4.79,2.93,3.54,6.64,5.56,9.05,9.35v14.65l3.14,2.1c-1.4,2.46-1.42,2.47.41,4.64h11a3,3,0,0,0,.34-.3.78.78,0,0,0,.18-.42c0-6,0-12,0-18.49l11.86,2V91.7l31.1,4.9v2.56l7.28,1.71c-.42,3.25-.85,6.7-1.32,10.36h3V86.6l4.18-4.23h6.31L715,77.32v30.82h4.07V77.57c1.38-.25,1.57,1,2.3,1.44a18.54,18.54,0,0,1,2,1.29c.79.58,1.53,1.21,2.45,2h6.84c.84,1.71,1.46,3.78,4.59,2.79V96.65c0,3.68-.41,7.42.11,11s-3.16,7.16.53,11c.19-1.55.34-2.7.53-4.22h6.74c.06-1,.1-1.62.14-2.22l-4-5.25V102l3.48-3.58h5.69L753,99.63a3.05,3.05,0,0,0,.32.65c1.68,2.36.76,5.06,1,7.56-1,1-1.93,1.94-2.95,3v3.45h8.71v-3.17l-4-5.52,1.49-5c2.39-2.7,5.73-2.21,9.39-2.14,1,1.27,2.11,2.78,3.15,4.16.94,4.18-1,7-3.78,9.26v2.39h9.9c0-.74.08-1.39.12-2.14l-3.89-3.44v-6.91l3.34-3.35c2.6.13,5.52-.61,8.4,1.44,1.65,2.29,1.14,5.25,1.09,8.13l-3.93,3.93v2c2.09,1.63,3.83-.15,5.88-.73v-8.54h17.56c.62-.76,1.15-1.39,1.73-2.09h10.8V91.1l7.79,6.13h3.44l9.5-4,.57,1.5-11.37,5.84c2.49,2,4.38-.21,6.41-.26a42.58,42.58,0,0,0,6.11-.94,19.91,19.91,0,0,1,6.9-.35l-2,.58v4.65h11.92V60.29c4.23-.26,8.37.63,12-1.72,0-.25,0-.57-.07-1.25h-8.79c-.06-.8-.09-1.26-.14-1.91h14.83c-.07,2,.68,3.8,3.17,4.28v53.47l4,.42V244.2Z"/><path class="cls-9" d="M459.8,154.26c0-32.66-18.87-35.4-20.75-65.33-1.73-27.61,0-52-30.82-52s-29.09,24.42-30.82,52c-1.88,29.93-20.75,32.67-20.75,65.33C356.66,224.41,459.8,224.41,459.8,154.26Z"/><line class="cls-10" x1="408.23" y1="78.4" x2="408.23" y2="254.17"/><line class="cls-10" x1="408.23" y1="184.9" x2="376.32" y2="152.99"/><line class="cls-10" x1="408.23" y1="148.59" x2="428.81" y2="128.01"/><line class="cls-10" x1="408.23" y1="174.57" x2="399.97" y2="166.3"/><line class="cls-10" x1="408.23" y1="95.15" x2="413.26" y2="90.12"/><path class="cls-11" d="M-368,244.2V121.57h11.92v-4.9l3-.49v-10.8l2.26-3.86c.35.13.72.15.79.3.57,1.27,1.08,2.56,1.76,4.2l-.86,1.3,1.39,1.91h5.72c-.4-3.16.95-6,2.55-8.88l1,2,17.6-15.4a24.64,24.64,0,0,1,3.74-14l1.65,8.09,1.45.47V87l9.34,7.93c3,2.55,5.1,6.08,9,7.92v7.38h12.51a46.75,46.75,0,0,0,3.28,3.4c1.15,1,1.79,2.85,4.19,2.71V85.84c0-3-.16-6,0-9,.19-2.71.76-5.38,1.21-8.33h6.74c3.63-2.22,1.46-4.73.88-7.11l2.86-4.15c2.83-2,6.88-.61,10.81-1.07l3.65,4v8h7.73v4.61l2.07.7V91.33c5.29,0,10.42.18,15.54,0,4.84-.23,9.84,1.09,14.67-.91V82.53l1.84-.38c.09-1.11.18-2.36.29-3.78h5.5l.87-2.38.82,2.16h5.61l.19,3.93,2.88.45v8.8H-174a2.9,2.9,0,0,1,.36.34.91.91,0,0,1,.16.43c0,5.66,0,11.32,0,17.34l3.82,1.32V93.39l-3-6.24,5-6.61-6.75-8.93c3.5-.15,6.63,1.53,9.11,5.07l1.24-2.24h2.54v1.48l-2.1.8,2,4.24-2.69,2.68c2.11,2.92-.32,6.64,1.75,9.69a2.64,2.64,0,0,1-.85,3.49c1.77,2,.72,4.43.91,6.65s0,4.32,0,6.59l1.77.52c.49-6.25.08-12.35.27-18.34.88-1.38,1.67-2.75,2.6-4s1.87-2.27,3.34-4c0,.09.06-.7.14-1.71h2.75c.1.86.19,1.65.3,2.62h9.69c.37-1.74.79-3.72,1.2-5.71s-.9-4,1-5.61c-.39-.48-.78-1-1.61-1.94l2.71-.83,1.1.92-.72,1.57c.57,3.64,1.18,7.46,1.83,11.55h9.61l.27-2.58h2.68l.31,2.3c3.67.58,3,5,5.85,6.91v18.48h2.75c-.11.09.12,0,.13-.12q0-6.7,0-13.4l4.23-2.44,2.58,1.58c.22-1.27.37-2.13.56-3.17l1.68-.6c.09-.76.18-1.55.28-2.4l1.76-.66c.09-.77.17-1.56.28-2.52h2.56c.18-1.07.34-2,.52-3h3.59v2.4l2,.7v2.36l2.08.71c0,.72.1,1.5.18,2.52h3c-.35-4.51.06-8.85,2.52-12.86,2.39,7.35,1.16,14.79,1.43,22.13.1,2.83,0,5.67,0,8.76h4.76c1-3.42-.75-7.18,1-10.45-.34-1.86-.68-3.73-1-5.29l2.71-3.71,2.2,3c-.26,2.23-1.09,4.3-.56,5.93,1.11,3.5.73,7,.9,10.63l1.79.11V73.63l2.88-.54c.44-2,.5-4.18,1.42-5.92,1-1.9.85-3.74.89-5.66,0-2.1,0-4.21,0-7l3.1,2.08c-.39,1.08-1.3,2.27-1,3.06,1.53,4.44.68,9.48,3.39,13.49l1.59.37V89c1.8.84,2.23,0,1.89-1.62h31V77l1.67-1.67,1.08,2.25,5.28-3.41v-5.2l1.74-1.74c.7.9,1.39,1.81,2.51,3.27V74l4.51,3.1,2.19-1.24c.51,3.64.05,6.93.39,10.73A8.68,8.68,0,0,0-7,85.42C-5.72,84-4.55,82.48-3,80.63-.11,84.17,3.61,86.19,6,90v14.65l3.14,2.1c-1.4,2.46-1.42,2.47.42,4.64h11a2.36,2.36,0,0,0,.34-.3.8.8,0,0,0,.19-.42V92.16l11.86,2V91.7l31.1,4.9v2.56l7.28,1.71q-.61,4.88-1.31,10.36h3V86.6l4.18-4.23h6.32l6.63-5.05v30.82h4.08V77.57c1.38-.25,1.56,1,2.29,1.44a19.75,19.75,0,0,1,2,1.29c.78.58,1.52,1.21,2.44,2h6.84C108.65,84,109.28,86,112.4,85V96.65c0,3.68-.41,7.42.11,11s-3.15,7.16.54,11c.19-1.55.33-2.7.52-4.22h6.74c.06-1,.1-1.62.14-2.22l-4-5.25V102l3.48-3.58h5.69l2.55,1.26a4.54,4.54,0,0,0,.32.65c1.68,2.36.76,5.06,1,7.56l-3,3v3.45h8.7v-3.17l-4-5.52c.55-1.88,1-3.37,1.49-5,2.38-2.7,5.73-2.21,9.39-2.14l3.14,4.16c.94,4.18-1,7-3.77,9.26v2.39h9.9c0-.74.07-1.39.11-2.14l-3.89-3.44v-6.91L151,98.36c2.59.13,5.51-.61,8.39,1.44,1.65,2.29,1.14,5.25,1.09,8.13l-3.93,3.93v2c2.09,1.63,3.83-.15,5.88-.73v-8.54H180c.62-.76,1.15-1.39,1.73-2.09h10.81V91.1l7.79,6.13h3.43l9.51-4,.56,1.5-11.36,5.84c2.48,2,4.37-.21,6.41-.26a42.66,42.66,0,0,0,6.1-.94,20,20,0,0,1,6.91-.35l-2,.58v4.65h11.92V60.29c4.23-.26,8.38.63,12-1.72,0-.25,0-.57-.08-1.25h-8.79c-.06-.8-.09-1.26-.14-1.91h14.83c-.07,2,.68,3.8,3.18,4.28v53.47l4,.42V244.2Z"/><path class="cls-5" d="M460,22.42s-5.67-1.86-10.57-3.89c-5.65-2.34-8.43,1.46-13.87,1.6s-8.09-1.42-12.37-1c-6.37.57-7,2.65-10,3.6Z"/><path class="cls-5" d="M141.59,63.09S135.92,61.23,131,59.2c-5.65-2.34-8.42,1.46-13.86,1.6s-8.1-1.42-12.38-1c-6.37.57-7,2.65-10,3.6Z"/><path class="cls-5" d="M93.56,35.42A59.24,59.24,0,0,1,84.11,32c-8.35-3.77-14-.23-18.12.79-6.82,1.69-10.47-2.15-24-.33a120.67,120.67,0,0,0-13.72,3Z"/><path class="cls-5" d="M363.81,41s-12.69-2.3-22.65-6.6-16.27,1.87-25.1,3.31-11.67-.81-19,0c-4.89.55-14.36,3.29-14.36,3.29Z"/><line class="cls-10" x1="13.98" y1="254.25" x2="484.86" y2="254.25"/><path class="cls-9" d="M297.49,254.25c2.12-14.42,18.7-25.65,36.85-25.65,13.8,0,25.73,6.5,31.5,16A32.59,32.59,0,0,1,380.55,241a29.49,29.49,0,0,1,24.91,13.26Z"/><line class="cls-10" x1="382.44" y1="263.4" x2="444.92" y2="263.4"/><line class="cls-10" x1="372.06" y1="263.4" x2="360.98" y2="263.4"/><rect class="cls-12" x="84.8" y="108.27" width="53.41" height="143.33"/><polygon class="cls-12" points="138.39 92.78 99.72 92.78 84.8 108.27 138.21 108.27 138.39 92.78"/><rect class="cls-13" x="70.06" y="104.37" width="50.76" height="147.24"/><rect class="cls-9" x="75.03" y="129.62" width="41.26" height="25.53"/><rect class="cls-12" x="75.03" y="129.62" width="0.87" height="25.53"/><rect class="cls-12" x="95.64" y="109.89" width="0.87" height="40.34" transform="translate(226.13 33.99) rotate(90)"/><rect class="cls-12" x="81.82" y="248.25" width="59.7" height="6"/><rect class="cls-9" x="66.91" y="248.25" width="56.21" height="6"/><rect class="cls-14" x="90.08" y="127.87" width="10.22" height="3.5"/><rect class="cls-12" x="99.63" y="170.45" width="11.7" height="4.27"/><line class="cls-10" x1="96.87" y1="170.45" x2="96.87" y2="174.71"/><line class="cls-15" x1="92.35" y1="223.21" x2="76.17" y2="223.21"/><line class="cls-15" x1="92.35" y1="225.4" x2="76.17" y2="225.4"/><line class="cls-15" x1="92.35" y1="227.59" x2="76.17" y2="227.59"/><line class="cls-15" x1="92.35" y1="229.78" x2="76.17" y2="229.78"/><line class="cls-15" x1="92.35" y1="231.98" x2="76.17" y2="231.98"/><line class="cls-15" x1="92.35" y1="234.17" x2="76.17" y2="234.17"/><line class="cls-15" x1="92.35" y1="236.36" x2="76.17" y2="236.36"/><line class="cls-15" x1="92.35" y1="238.55" x2="76.17" y2="238.55"/><line class="cls-15" x1="114.06" y1="223.21" x2="97.88" y2="223.21"/><line class="cls-15" x1="114.06" y1="225.4" x2="97.88" y2="225.4"/><line class="cls-15" x1="114.06" y1="227.59" x2="97.88" y2="227.59"/><line class="cls-15" x1="114.06" y1="229.78" x2="97.88" y2="229.78"/><line class="cls-15" x1="114.06" y1="231.98" x2="97.88" y2="231.98"/><line class="cls-15" x1="114.06" y1="234.17" x2="97.88" y2="234.17"/><line class="cls-15" x1="114.06" y1="236.36" x2="97.88" y2="236.36"/><line class="cls-15" x1="114.06" y1="238.55" x2="97.88" y2="238.55"/><rect class="cls-16" x="79.48" y="135.33" width="33.34" height="9.48"/><rect class="cls-16" x="79.48" y="146.19" width="16.2" height="4.74"/><rect class="cls-16" x="96.85" y="146.19" width="15.97" height="4.74"/><polygon class="cls-13" points="139.86 89.61 83.43 89.61 67.4 106.25 123.83 106.25 139.86 89.61"/><polygon class="cls-5" points="89.75 97.36 95.41 91.49 85.75 91.49 80.1 97.36 89.75 97.36"/><polygon class="cls-5" points="79 98.5 73.35 104.37 83 104.37 88.66 98.5 79 98.5"/><polygon class="cls-5" points="102.45 97.36 108.11 91.49 98.46 91.49 92.8 97.36 102.45 97.36"/><polygon class="cls-5" points="91.71 98.5 86.05 104.37 95.7 104.37 101.36 98.5 91.71 98.5"/><polygon class="cls-5" points="115.16 97.36 120.81 91.49 111.16 91.49 105.5 97.36 115.16 97.36"/><polygon class="cls-5" points="104.41 98.5 98.75 104.37 108.41 104.37 114.06 98.5 104.41 98.5"/><polygon class="cls-5" points="117.11 98.5 111.46 104.37 121.11 104.37 126.76 98.5 117.11 98.5"/><polygon class="cls-5" points="127.86 97.36 133.51 91.49 123.86 91.49 118.21 97.36 127.86 97.36"/><rect class="cls-14" x="67.4" y="106.25" width="56.43" height="2.65"/><polygon class="cls-14" points="123.83 108.9 123.83 106.25 139.86 89.61 139.86 92.23 123.83 108.9"/><rect class="cls-17" x="74.86" y="111.84" width="41.4" height="12.75"/><line class="cls-10" x1="88.66" y1="115.06" x2="96.87" y2="115.06"/><line class="cls-10" x1="88.66" y1="118.41" x2="105.87" y2="118.41"/><line class="cls-10" x1="88.66" y1="121.76" x2="97.94" y2="121.76"/><line class="cls-10" x1="99.71" y1="115.06" x2="112.08" y2="115.06"/><line class="cls-10" x1="108.21" y1="118.41" x2="112.08" y2="118.41"/><line class="cls-10" x1="100.54" y1="121.76" x2="105.02" y2="121.76"/><line class="cls-10" x1="106.93" y1="121.76" x2="114.03" y2="121.76"/><path class="cls-5" d="M79.32,114.9a1.37,1.37,0,0,0-.1-.44c-.12-.18-.33-.22-.81-.23v-.49c.88,0,1.75,0,2.63,0,.58,0,1.16,0,1.74,0l.61,0a2.64,2.64,0,0,1,1.69.73,2.39,2.39,0,0,1,.56,1.71,2.55,2.55,0,0,1-1.25,2.37,3.52,3.52,0,0,1-1,.25,12.46,12.46,0,0,1-2.19.07v2.66a.9.9,0,0,0,0,.32c.11.36.41.32.76.32h.43v.51H78.41v-.53a1.14,1.14,0,0,0,.74-.13c.11-.09.15-.21.17-.53Zm2,3.5a2.88,2.88,0,0,0,1.77-.27c.64-.5.59-1.84.59-1.89a2.56,2.56,0,0,0-.33-1.58,1,1,0,0,0-.31-.28,4.21,4.21,0,0,0-1.73-.1Z"/><rect class="cls-17" x="79.09" y="157.87" width="32.21" height="10.71"/><rect class="cls-5" x="81.7" y="158.89" width="1.67" height="1.67"/><rect class="cls-5" x="84.02" y="158.89" width="1.67" height="1.67"/><rect class="cls-5" x="86.34" y="158.89" width="1.67" height="1.67"/><rect class="cls-5" x="88.67" y="158.89" width="1.67" height="1.67"/><rect class="cls-5" x="90.99" y="158.89" width="1.67" height="1.67"/><rect class="cls-5" x="93.32" y="158.89" width="1.67" height="1.67"/><rect class="cls-5" x="95.64" y="158.89" width="1.67" height="1.67"/><rect class="cls-5" x="97.97" y="158.89" width="1.67" height="1.67"/><rect class="cls-5" x="100.29" y="158.89" width="1.67" height="1.67"/><rect class="cls-5" x="102.61" y="158.89" width="1.67" height="1.67"/><rect class="cls-5" x="104.94" y="158.89" width="1.67" height="1.67"/><rect class="cls-5" x="107.26" y="158.89" width="1.67" height="1.67"/><rect class="cls-5" x="80.53" y="161.12" width="1.67" height="1.67"/><rect class="cls-5" x="82.86" y="161.12" width="1.67" height="1.67"/><rect class="cls-5" x="85.18" y="161.12" width="1.67" height="1.67"/><rect class="cls-5" x="87.51" y="161.12" width="1.67" height="1.67"/><rect class="cls-5" x="89.83" y="161.12" width="1.67" height="1.67"/><rect class="cls-5" x="92.15" y="161.12" width="1.67" height="1.67"/><rect class="cls-5" x="94.48" y="161.12" width="1.67" height="1.67"/><rect class="cls-5" x="96.8" y="161.12" width="1.67" height="1.67"/><rect class="cls-5" x="99.13" y="161.12" width="1.67" height="1.67"/><rect class="cls-5" x="101.45" y="161.12" width="1.67" height="1.67"/><rect class="cls-5" x="103.78" y="161.12" width="1.67" height="1.67"/><rect class="cls-5" x="106.1" y="161.12" width="1.67" height="1.67"/><rect class="cls-5" x="108.42" y="161.12" width="1.67" height="1.67"/><rect class="cls-5" x="81.7" y="163.36" width="1.67" height="1.67"/><rect class="cls-5" x="84.02" y="163.36" width="1.67" height="1.67"/><rect class="cls-5" x="86.34" y="163.36" width="1.67" height="1.67"/><rect class="cls-5" x="88.67" y="163.36" width="1.67" height="1.67"/><rect class="cls-5" x="90.99" y="163.36" width="1.67" height="1.67"/><rect class="cls-5" x="93.32" y="163.36" width="1.67" height="1.67"/><rect class="cls-5" x="95.64" y="163.36" width="1.67" height="1.67"/><rect class="cls-5" x="97.97" y="163.36" width="1.67" height="1.67"/><rect class="cls-5" x="100.29" y="163.36" width="1.67" height="1.67"/><rect class="cls-5" x="102.61" y="163.36" width="1.67" height="1.67"/><rect class="cls-5" x="104.94" y="163.36" width="1.67" height="1.67"/><rect class="cls-5" x="107.26" y="163.36" width="1.67" height="1.67"/><rect class="cls-5" x="80.53" y="165.59" width="1.67" height="1.67"/><rect class="cls-5" x="82.86" y="165.59" width="3.99" height="1.67"/><rect class="cls-5" x="87.51" y="165.59" width="1.67" height="1.67"/><rect class="cls-5" x="89.83" y="165.59" width="1.67" height="1.67"/><rect class="cls-5" x="92.15" y="165.59" width="1.67" height="1.67"/><rect class="cls-5" x="94.48" y="165.59" width="1.67" height="1.67"/><rect class="cls-5" x="96.8" y="165.59" width="1.67" height="1.67"/><rect class="cls-5" x="99.13" y="165.59" width="3.99" height="1.67"/><rect class="cls-5" x="103.78" y="165.59" width="3.99" height="1.67"/><rect class="cls-5" x="108.42" y="165.59" width="1.67" height="1.67"/><circle class="cls-9" cx="80.1" cy="172.31" r="1.54"/><circle class="cls-9" cx="85.18" cy="172.31" r="1.54"/><circle class="cls-14" cx="90.26" cy="172.31" r="1.54"/><line class="cls-10" x1="79.17" y1="176.03" x2="81.06" y2="176.03"/><line class="cls-10" x1="84.24" y1="176.03" x2="86.13" y2="176.03"/><line class="cls-10" x1="89.31" y1="176.03" x2="91.2" y2="176.03"/><path class="cls-13" d="M76.17,182.53h37.89a0,0,0,0,1,0,0v32.13a4.21,4.21,0,0,1-4.21,4.21H80.38a4.21,4.21,0,0,1-4.21-4.21V182.53A0,0,0,0,1,76.17,182.53Z"/><circle class="cls-12" cx="95.11" cy="216.87" r="0.64"/><rect class="cls-12" x="81.04" y="182.16" width="4.65" height="0.75"/><rect class="cls-12" x="104.94" y="182.16" width="4.65" height="0.75"/><circle class="cls-12" cx="270.28" cy="228.78" r="25.33"/><circle class="cls-12" cx="136.77" cy="228.78" r="25.33"/><path class="cls-18" d="M373.19,167.91v58.65H105.58a6.74,6.74,0,0,1-6.74-6.74V189.69a6.59,6.59,0,0,1,4.79-6.33l53.81-16.5s47-59.94,48-59.61,135.09,0,135.09,0Z"/><path class="cls-18" d="M381.44,167.91v58.65H161.93V189.69a6.58,6.58,0,0,1,4.8-6.33l53.81-16.5s47-59.94,48-59.61,80.25,0,80.25,0Z"/><circle class="cls-12" cx="328.88" cy="228.78" r="25.33"/><circle class="cls-5" cx="328.88" cy="228.78" r="9.7"/><circle class="cls-12" cx="195.37" cy="228.78" r="25.33"/><polygon class="cls-9" points="365.77 166.49 294.58 166.49 294.58 118.42 341.77 118.42 365.77 166.49"/><polygon class="cls-9" points="282.73 166.49 237.03 166.49 273.92 118.42 282.73 118.42 282.73 166.49"/><polygon class="cls-9" points="196.88 117.25 259.88 117.25 220.54 166.86 157.44 166.86 196.88 117.25"/><path class="cls-17" d="M360.12,206.9s8.22,13,8.22,27h15.77v-27Z"/><line class="cls-19" x1="271.56" y1="179.9" x2="256.89" y2="179.9"/><line class="cls-19" x1="358.79" y1="181.32" x2="344.13" y2="181.32"/><line class="cls-19" x1="283.21" y1="181.92" x2="283.21" y2="216.16"/><path class="cls-5" d="M383.05,190.41h-6.88V205h6.88a4.91,4.91,0,0,0,4.9-4.91v-4.74A4.91,4.91,0,0,0,383.05,190.41Z"/><path class="cls-5" d="M169.61,190.41h-5.94a5.83,5.83,0,0,0-5.83,5.83v2.89a5.83,5.83,0,0,0,5.83,5.83h5.94Z"/><path class="cls-5" d="M104.73,190.41H98.79A5.83,5.83,0,0,0,93,196.24v2.89A5.83,5.83,0,0,0,98.79,205h5.94Z"/><path class="cls-17" d="M98.84,206.9h58.33a4.77,4.77,0,0,1,4.77,4.77v14.89a0,0,0,0,1,0,0H98.84a0,0,0,0,1,0,0V206.9A0,0,0,0,1,98.84,206.9Z" transform="translate(260.77 433.46) rotate(-180)"/><circle class="cls-5" cx="195.37" cy="228.78" r="9.7"/><line class="cls-10" x1="240.45" y1="107.25" x2="252.51" y2="70.8"/><circle class="cls-9" cx="252.51" cy="70.8" r="3.63"/><path class="cls-12" d="M454.36,254.28c-5.31-6.54-14.76-10.91-24.83-10.91a36.75,36.75,0,0,0-12.64,2.28c-5.12-7.11-15-12-25.62-12-14.47,0-28.56,9-30.1,20.58Z"/></g></g></svg>