<svg xmlns="http://www.w3.org/2000/svg" xmlns:xlink="http://www.w3.org/1999/xlink" viewBox="0 0 743 300"><defs><style>.cls-1,.cls-7{fill:none;}.cls-2{clip-path:url(#clip-path);}.cls-3{fill:#3967dd;}.cls-4{fill:url(#linear-gradient);}.cls-5{fill:url(#linear-gradient-2);}.cls-6,.cls-8{fill:#fff;}.cls-10,.cls-11,.cls-12,.cls-14,.cls-15,.cls-16,.cls-7,.cls-8,.cls-9{stroke:#02225a;stroke-linecap:round;stroke-linejoin:round;stroke-width:0.89px;}.cls-9{fill:#02225a;}.cls-10{fill:#57bef7;}.cls-11,.cls-13{fill:#fc9f40;}.cls-12{fill:#b9355e;}.cls-14{fill:#f95269;}.cls-15{fill:#5fe0ab;}.cls-16{fill:#fac777;}.cls-17{clip-path:url(#clip-path-2);}.cls-18{fill:url(#linear-gradient-3);}</style><clipPath id="clip-path"><rect class="cls-1" y="0.51" width="743" height="298.98"/></clipPath><linearGradient id="linear-gradient" x1="744.45" y1="210.24" x2="744.45" y2="2.32" gradientUnits="userSpaceOnUse"><stop offset="0" stop-color="#3967dd" stop-opacity="0"/><stop offset="1" stop-color="#2a57bc"/></linearGradient><linearGradient id="linear-gradient-2" x1="-6.24" y1="210.24" x2="-6.24" y2="2.32" xlink:href="#linear-gradient"/><clipPath id="clip-path-2"><rect class="cls-1" x="1085.7" y="0.51" width="503" height="298.98"/></clipPath><linearGradient id="linear-gradient-3" x1="1030.09" y1="199.74" x2="1030.09" y2="26.68" xlink:href="#linear-gradient"/></defs><g id="Layer_1" data-name="Layer 1"><g class="cls-2"><rect class="cls-3" x="-384.99" y="-201.37" width="1508.71" height="848.65"/><path class="cls-4" d="M369.06,263.66V116.32h14.32v-5.88l3.62-.59v-13l2.71-4.63c.43.15.87.17,1,.36.68,1.52,1.3,3.07,2.12,5.05l-1,1.56,1.66,2.29h6.89c-.49-3.79,1.14-7.18,3.06-10.67l1.2,2.45,21.14-18.5c-.32-6.07,1.35-11.42,4.5-16.88.68,3.33,1.28,6.3,2,9.71l1.75.58v6.65q5.61,4.75,11.22,9.53c3.58,3.06,6.13,7.3,10.79,9.52v8.86h15a55,55,0,0,0,3.94,4.08c1.39,1.21,2.15,3.43,5,3.26V73.4c0-3.62-.19-7.25.06-10.84.22-3.25.91-6.47,1.44-10h8.11c4.36-2.67,1.75-5.68,1-8.54L494,39c3.39-2.46,8.27-.73,13-1.28l4.39,4.84v9.66h9.28v5.53l2.49.85V80c6.35,0,12.52.22,18.67-.06,5.81-.27,11.82,1.31,17.62-1.09V69.42l2.22-.46c.1-1.33.22-2.83.35-4.54h6.6c.33-.87.58-1.57,1.05-2.85l1,2.59h6.74c.09,1.77.15,3.12.23,4.72l3.47.54V80h21.11a2.8,2.8,0,0,1,.43.41,1,1,0,0,1,.2.52v20.83l4.59,1.59V82.47L603.78,75c1.8-2.35,3.76-4.93,6.05-7.94L601.72,56.3c4.2-.18,8,1.84,10.94,6.09l1.5-2.69h3v1.78l-2.52,1,2.44,5.08-3.23,3.23c2.54,3.5-.38,8,2.1,11.63a3.16,3.16,0,0,1-1,4.2c2.13,2.42.87,5.33,1.09,8s.05,5.19.05,7.92l2.13.63c.59-7.52.1-14.85.32-22,1.06-1.66,2-3.3,3.12-4.83s2.26-2.71,4-4.81c0,.11.07-.84.17-2h3.3c.12,1,.23,2,.36,3.14h11.64c.44-2.08,1-4.47,1.45-6.85s-1.09-4.82,1.17-6.75l-1.93-2.33,3.26-1,1.31,1.11-.86,1.89c.69,4.37,1.42,9,2.2,13.87h11.55c.1-1,.19-1.9.32-3.09h3.22l.37,2.76c4.41.69,3.67,6,7,8.3v22.2h3.3c-.12.11.16,0,.16-.14,0-5.37,0-10.73,0-16.1l5.09-2.93,3.1,1.89c.26-1.52.45-2.56.67-3.81l2-.72c.1-.9.22-1.85.34-2.87l2.11-.81c.1-.92.21-1.87.33-3h3.08c.22-1.28.41-2.38.63-3.63h4.3v2.88l2.46.84v2.83l2.49.86c.07.85.13,1.8.22,3h3.58c-.43-5.42.06-10.63,3-15.45,2.87,8.83,1.4,17.77,1.71,26.59.13,3.4,0,6.82,0,10.52h5.72c1.15-4.11-.9-8.63,1.22-12.55-.41-2.24-.82-4.48-1.16-6.36l3.26-4.46,2.64,3.59c-.31,2.67-1.31,5.16-.68,7.12,1.34,4.21.88,8.46,1.09,12.78l2.15.13V58.73l3.46-.65c.53-2.4.6-5,1.71-7.12,1.21-2.28,1-4.49,1.07-6.79.06-2.53,0-5.06,0-8.36l3.73,2.49c-.47,1.3-1.57,2.73-1.24,3.67,1.84,5.34.82,11.4,4.08,16.22l1.9.44V77.16c2.16,1,2.69,0,2.28-2h37.21V62.73l2-2,1.29,2.7,6.34-4.1V53.08l2.1-2.09c.83,1.09,1.67,2.17,3,3.93v4.24l5.42,3.72,2.63-1.48c.62,4.36,0,8.32.47,12.89a10.67,10.67,0,0,0,2.22-1.39c1.51-1.72,2.92-3.53,4.74-5.77,3.52,4.26,8,6.69,10.87,11.24V96l3.77,2.52c-1.68,3-1.7,3,.5,5.57H836a2.64,2.64,0,0,0,.41-.36,1,1,0,0,0,.22-.51c0-7.2,0-14.4,0-22.21l14.24,2.41v-3l37.37,5.88v3.09l8.74,2q-.74,5.85-1.58,12.45H899V74.31l5-5.09h7.58l8-6.06v37h4.89V63.46c1.66-.29,1.88,1.25,2.76,1.73a21.93,21.93,0,0,1,2.37,1.55c.94.7,1.84,1.46,2.94,2.34h8.22c1,2.06,1.76,4.55,5.51,3.35v14c0,4.42-.49,8.91.14,13.24s-3.8,8.6.64,13.27c.23-1.86.4-3.25.62-5.07h8.1c.08-1.18.13-2,.18-2.66l-4.86-6.32v-6.1c1.45-1.48,2.84-2.92,4.18-4.3h6.83L965.21,90a4.55,4.55,0,0,0,.39.78c2,2.84.91,6.08,1.24,9.09l-3.54,3.55v4.14h10.45v-3.81c-1.58-2.21-3.23-4.52-4.75-6.63l1.79-6c2.87-3.24,6.89-2.65,11.28-2.57l3.78,5c1.13,5-1.22,8.42-4.53,11.13v2.87h11.89c0-.89.09-1.67.14-2.57l-4.68-4.14v-8.3l4-4c3.11.15,6.62-.73,10.08,1.72,2,2.76,1.37,6.31,1.31,9.78l-4.72,4.72v2.41c2.51,2,4.6-.19,7.06-.88V95.92h21.1l2.08-2.51h13V79.72l9.36,7.36h4.13l11.42-4.83.68,1.8c-4.53,2.33-9,4.62-13.66,7,3,2.46,5.26-.25,7.71-.31a51.38,51.38,0,0,0,7.33-1.13,23.86,23.86,0,0,1,8.29-.42l-2.45.69v5.59h14.32V42.7c5.08-.32,10.06.76,14.46-2.07,0-.29,0-.69-.09-1.5h-10.56c-.07-1-.11-1.51-.17-2.29h17.82c-.09,2.39.82,4.56,3.81,5.14v64.24l4.86.51V263.66Z"/><path class="cls-5" d="M-381.64,263.66V116.32h14.32v-5.88l3.62-.59v-13l2.72-4.63c.42.15.86.17,1,.36.68,1.52,1.3,3.07,2.12,5.05l-1,1.56,1.67,2.29h6.88c-.49-3.79,1.14-7.18,3.06-10.67l1.2,2.45L-325,74.78c-.32-6.07,1.35-11.42,4.5-16.88.68,3.33,1.28,6.3,2,9.71l1.75.58v6.65c3.73,3.17,7.48,6.34,11.21,9.53s6.13,7.3,10.8,9.52v8.86h15a54.77,54.77,0,0,0,3.93,4.08c1.39,1.21,2.15,3.43,5,3.26V73.4c0-3.62-.18-7.25.06-10.84.22-3.25.91-6.47,1.45-10h8.1c4.37-2.67,1.75-5.68,1.05-8.54,1-1.43,1.94-2.8,3.44-5,3.4-2.46,8.27-.73,13-1.28l4.39,4.84v9.66H-230v5.53l2.49.85V80c6.35,0,12.52.22,18.67-.06,5.81-.27,11.82,1.31,17.63-1.09V69.42L-189,69c.1-1.33.22-2.83.35-4.54H-182l1-2.85,1,2.59h6.74c.09,1.77.16,3.12.23,4.72l3.47.54V80h21.12a3.26,3.26,0,0,1,.42.41,1,1,0,0,1,.2.52c0,6.8,0,13.6,0,20.83l4.58,1.59V82.47l-3.65-7.5,6-7.94L-149,56.3c4.2-.18,8,1.84,10.94,6.09l1.5-2.69h3v1.78l-2.53,1c.83,1.72,1.62,3.36,2.44,5.08l-3.23,3.23c2.54,3.5-.38,8,2.1,11.63a3.17,3.17,0,0,1-1,4.2c2.12,2.42.86,5.33,1.08,8s0,5.19,0,7.92l2.14.63c.58-7.52.09-14.85.31-22,1.06-1.66,2-3.3,3.12-4.83s2.26-2.71,4-4.81c0,.11.07-.84.17-2h3.3c.12,1,.23,2,.37,3.14h11.63c.45-2.08,1-4.47,1.45-6.85s-1.08-4.82,1.17-6.75l-1.93-2.33,3.26-1,1.31,1.11-.86,1.89c.69,4.37,1.42,9,2.2,13.87h11.55c.1-1,.2-1.9.32-3.09h3.22l.38,2.76c4.4.69,3.66,6,7,8.3v22.2h3.31c-.13.11.15,0,.15-.14q0-8.06,0-16.1l5.08-2.93,3.1,1.89c.27-1.52.45-2.56.67-3.81l2-.72c.11-.9.22-1.85.34-2.87l2.11-.81c.1-.92.21-1.87.33-3h3.08c.22-1.28.41-2.38.63-3.63h4.31v2.88l2.45.84v2.83l2.5.86c.06.85.13,1.8.21,3h3.58c-.43-5.42.07-10.63,3-15.45,2.87,8.83,1.4,17.77,1.72,26.59.12,3.4,0,6.82,0,10.52h5.72c1.14-4.11-.9-8.63,1.21-12.55-.41-2.24-.82-4.48-1.16-6.36l3.26-4.46,2.64,3.59c-.31,2.67-1.3,5.16-.68,7.12,1.35,4.21.88,8.46,1.09,12.78l2.15.13V58.73l3.46-.65c.53-2.4.6-5,1.71-7.12,1.21-2.28,1-4.49,1.07-6.79.06-2.53,0-5.06,0-8.36l3.73,2.49C-18,39.6-19.11,41-18.79,42c1.85,5.34.82,11.4,4.08,16.22l1.9.44V77.16c2.17,1,2.69,0,2.28-2H26.68V62.73l2-2L30,63.43l6.34-4.1V53.08L38.43,51l3,3.93v4.24l5.41,3.72,2.63-1.48c.62,4.36.06,8.32.47,12.89a10.67,10.67,0,0,0,2.22-1.39c1.51-1.72,2.92-3.53,4.74-5.77,3.52,4.26,8,6.69,10.87,11.24V96l3.77,2.52c-1.68,3-1.7,3,.5,5.57H85.31a2.64,2.64,0,0,0,.41-.36,1,1,0,0,0,.22-.51C86,96,86,88.8,86,81l14.24,2.41v-3l37.37,5.88v3.09l8.74,2q-.74,5.85-1.57,12.45h3.61V74.31l5-5.09H161l8-6.06v37h4.89V63.46c1.66-.29,1.89,1.25,2.76,1.73a21,21,0,0,1,2.37,1.55c.95.7,1.84,1.46,2.94,2.34h8.22c1,2.06,1.76,4.55,5.51,3.35v14c0,4.42-.48,8.91.14,13.24s-3.79,8.6.64,13.27c.23-1.86.4-3.25.63-5.07h8.1c.07-1.18.12-2,.17-2.66l-4.85-6.32v-6.1l4.18-4.3h6.83L214.51,90a4.55,4.55,0,0,0,.39.78c2,2.84.91,6.08,1.24,9.09l-3.54,3.55v4.14h10.45v-3.81c-1.57-2.21-3.23-4.52-4.75-6.63.67-2.26,1.21-4,1.79-6,2.87-3.24,6.89-2.65,11.29-2.57l3.77,5c1.14,5-1.22,8.42-4.53,11.13v2.87h11.9c0-.89.08-1.67.13-2.57L238,100.76v-8.3l4-4c3.12.15,6.62-.73,10.08,1.72,2,2.76,1.38,6.31,1.32,9.78l-4.73,4.72v2.41c2.52,2,4.6-.19,7.07-.88V95.92h21.1l2.07-2.51h13V79.72l9.35,7.36h4.13l11.42-4.83.68,1.8-13.65,7c3,2.46,5.25-.25,7.7-.31a51.38,51.38,0,0,0,7.33-1.13,23.92,23.92,0,0,1,8.3-.42l-2.46.69v5.59H339V42.7c5.09-.32,10.07.76,14.46-2.07,0-.29,0-.69-.09-1.5H342.83c-.07-1-.11-1.51-.17-2.29h17.82c-.09,2.39.82,4.56,3.82,5.14v64.24l4.85.51V263.66Z"/><path class="cls-6" d="M603.17,31.25s-6.81-2.24-12.7-4.68c-6.78-2.81-10.12,1.76-16.65,1.92s-9.73-1.7-14.88-1.24c-7.65.68-8.42,3.18-12,4.32Z"/><path class="cls-6" d="M244.36,28.29s-6.81-2.24-12.7-4.68c-6.79-2.81-10.12,1.76-16.66,1.92s-9.72-1.7-14.87-1.24c-7.65.68-8.42,3.18-12,4.33Z"/><path class="cls-6" d="M133.76,40.9a71.51,71.51,0,0,1-11.36-4.12c-10-4.53-16.77-.28-21.76.95-8.2,2-12.59-2.59-28.82-.4a144,144,0,0,0-16.5,3.58Z"/><path class="cls-6" d="M546.77,60.19s-15.25-2.76-27.21-7.93-19.55,2.25-30.16,4-14-1-22.79,0c-5.88.66-17.26,3.94-17.26,3.94Z"/><line class="cls-7" x1="-101.16" y1="275.74" x2="823.74" y2="275.74"/><path class="cls-8" d="M442,275.74c2.55-17.33,22.48-30.83,44.27-30.83,16.58,0,30.92,7.81,37.85,19.18a39,39,0,0,1,17.68-4.29,35.42,35.42,0,0,1,29.92,15.94Z"/><path class="cls-9" d="M105,275.69C102.25,259.56,80.77,247,57.26,247c-17.88,0-33.34,7.27-40.81,17.84a47.7,47.7,0,0,0-19.06-4c-13.68,0-25.65,5.94-32.27,14.83Z"/><path class="cls-8" d="M94.41,160.71c0-37.59-21.72-40.73-23.88-75.17-2-31.78,0-59.88-35.47-59.88S1.58,53.76-.41,85.54C-2.56,120-24.29,123.12-24.29,160.71-24.29,241.44,94.41,241.44,94.41,160.71Z"/><line class="cls-7" x1="35.06" y1="73.42" x2="35.06" y2="275.69"/><line class="cls-7" x1="35.06" y1="195.97" x2="-1.66" y2="159.25"/><line class="cls-7" x1="35.06" y1="154.19" x2="58.74" y2="130.51"/><line class="cls-7" x1="35.06" y1="184.08" x2="25.55" y2="174.57"/><line class="cls-7" x1="35.06" y1="92.69" x2="40.85" y2="86.9"/><path class="cls-8" d="M127.52,275.69c-1.84-13.61-16.21-24.21-31.93-24.21-12,0-22.3,6.13-27.3,15a26.46,26.46,0,0,0-12.75-3.36A25.05,25.05,0,0,0,34,275.69Z"/><path class="cls-8" d="M770.49,155.6c0-39.24-22.68-42.53-24.93-78.49-2.08-33.18,0-62.51-37-62.51s-34.95,29.33-37,62.51c-2.25,36-24.93,39.25-24.93,78.49C646.57,239.89,770.49,239.89,770.49,155.6Z"/><line class="cls-7" x1="708.53" y1="64.46" x2="708.53" y2="275.65"/><line class="cls-7" x1="708.53" y1="192.42" x2="670.19" y2="154.08"/><line class="cls-7" x1="708.53" y1="148.79" x2="733.25" y2="124.07"/><line class="cls-7" x1="708.53" y1="180" x2="698.6" y2="170.07"/><line class="cls-7" x1="708.53" y1="84.58" x2="714.58" y2="78.53"/><path class="cls-8" d="M598.42,191.36c0-27.55,15.92-29.86,17.5-55.1,1.46-23.3,0-43.89,26-43.89s24.54,20.59,26,43.89c1.58,25.24,17.5,27.55,17.5,55.1C685.42,250.54,598.42,250.54,598.42,191.36Z"/><line class="cls-7" x1="641.92" y1="127.38" x2="641.92" y2="275.65"/><line class="cls-7" x1="641.92" y1="217.21" x2="668.84" y2="190.29"/><line class="cls-7" x1="641.92" y1="186.58" x2="624.56" y2="169.22"/><line class="cls-7" x1="641.92" y1="208.49" x2="648.89" y2="201.52"/><line class="cls-7" x1="641.92" y1="141.5" x2="637.67" y2="137.26"/><path class="cls-9" d="M764,275.77c-6.37-7.86-17.74-13.11-29.83-13.11a44.22,44.22,0,0,0-15.18,2.74c-6.16-8.54-18.07-14.35-30.78-14.35-17.39,0-34.33,10.86-36.17,24.72Z"/><path class="cls-8" d="M686.51,275.77c-1.54-11.39-13.57-20.26-26.73-20.26-10,0-18.66,5.13-22.85,12.6a22,22,0,0,0-10.67-2.81,21,21,0,0,0-18.06,10.47Z"/><line class="cls-7" x1="544.09" y1="286.74" x2="694.22" y2="286.74"/><line class="cls-7" x1="531.61" y1="286.74" x2="518.31" y2="286.74"/><rect class="cls-9" x="186.48" y="100.35" width="64.17" height="172.21"/><polygon class="cls-9" points="250.86 81.73 204.41 81.73 186.48 100.35 250.65 100.35 250.86 81.73"/><rect class="cls-10" x="168.77" y="95.66" width="60.98" height="176.9"/><rect class="cls-8" x="174.74" y="126" width="49.57" height="30.67"/><rect class="cls-9" x="174.74" y="126" width="1.05" height="30.67"/><rect class="cls-9" x="199.5" y="102.29" width="1.05" height="48.47" transform="translate(326.55 -73.5) rotate(90)"/><rect class="cls-9" x="182.9" y="268.53" width="71.72" height="7.21"/><rect class="cls-8" x="164.99" y="268.53" width="67.53" height="7.21"/><rect class="cls-11" x="192.83" y="123.9" width="12.28" height="4.21"/><rect class="cls-9" x="204.3" y="175.05" width="14.06" height="5.13"/><line class="cls-7" x1="200.98" y1="175.05" x2="200.98" y2="180.18"/><line class="cls-12" x1="195.56" y1="238.44" x2="176.11" y2="238.44"/><line class="cls-12" x1="195.56" y1="241.07" x2="176.11" y2="241.07"/><line class="cls-12" x1="195.56" y1="243.71" x2="176.11" y2="243.71"/><line class="cls-12" x1="195.56" y1="246.34" x2="176.11" y2="246.34"/><line class="cls-12" x1="195.56" y1="248.97" x2="176.11" y2="248.97"/><line class="cls-12" x1="195.56" y1="251.61" x2="176.11" y2="251.61"/><line class="cls-12" x1="195.56" y1="254.24" x2="176.11" y2="254.24"/><line class="cls-12" x1="195.56" y1="256.88" x2="176.11" y2="256.88"/><line class="cls-12" x1="221.64" y1="238.44" x2="202.19" y2="238.44"/><line class="cls-12" x1="221.64" y1="241.07" x2="202.19" y2="241.07"/><line class="cls-12" x1="221.64" y1="243.71" x2="202.19" y2="243.71"/><line class="cls-12" x1="221.64" y1="246.34" x2="202.19" y2="246.34"/><line class="cls-12" x1="221.64" y1="248.97" x2="202.19" y2="248.97"/><line class="cls-12" x1="221.64" y1="251.61" x2="202.19" y2="251.61"/><line class="cls-12" x1="221.64" y1="254.24" x2="202.19" y2="254.24"/><line class="cls-12" x1="221.64" y1="256.88" x2="202.19" y2="256.88"/><rect class="cls-13" x="180.09" y="132.85" width="40.05" height="11.39"/><rect class="cls-13" x="180.09" y="145.91" width="19.46" height="5.69"/><rect class="cls-13" x="200.96" y="145.91" width="19.18" height="5.69"/><polygon class="cls-10" points="252.64 77.92 184.84 77.92 165.58 97.92 233.37 97.92 252.64 77.92"/><polygon class="cls-6" points="192.43 87.24 199.23 80.18 187.63 80.18 180.84 87.24 192.43 87.24"/><polygon class="cls-6" points="179.52 88.6 172.72 95.66 184.32 95.66 191.12 88.6 179.52 88.6"/><polygon class="cls-6" points="207.69 87.24 214.49 80.18 202.89 80.18 196.1 87.24 207.69 87.24"/><polygon class="cls-6" points="194.78 88.6 187.99 95.66 199.58 95.66 206.38 88.6 194.78 88.6"/><polygon class="cls-6" points="222.96 87.24 229.75 80.18 218.15 80.18 211.36 87.24 222.96 87.24"/><polygon class="cls-6" points="210.04 88.6 203.25 95.66 214.84 95.66 221.64 88.6 210.04 88.6"/><polygon class="cls-6" points="225.3 88.6 218.51 95.66 230.11 95.66 236.9 88.6 225.3 88.6"/><polygon class="cls-6" points="238.22 87.24 245.01 80.18 233.41 80.18 226.62 87.24 238.22 87.24"/><rect class="cls-11" x="165.58" y="97.92" width="67.8" height="3.18"/><polygon class="cls-11" points="233.37 101.1 233.37 97.92 252.64 77.92 252.64 81.07 233.37 101.1"/><rect class="cls-14" x="174.54" y="104.64" width="49.74" height="15.32"/><line class="cls-7" x1="191.12" y1="108.5" x2="200.98" y2="108.5"/><line class="cls-7" x1="191.12" y1="112.52" x2="211.8" y2="112.52"/><line class="cls-7" x1="191.12" y1="116.55" x2="202.27" y2="116.55"/><line class="cls-7" x1="204.4" y1="108.5" x2="219.26" y2="108.5"/><line class="cls-7" x1="214.61" y1="112.52" x2="219.26" y2="112.52"/><line class="cls-7" x1="205.39" y1="116.55" x2="210.77" y2="116.55"/><line class="cls-7" x1="213.07" y1="116.55" x2="221.6" y2="116.55"/><path class="cls-6" d="M179.9,108.32a2.14,2.14,0,0,0-.12-.54c-.14-.22-.4-.26-1-.28v-.58c1.05,0,2.09,0,3.16,0,.69,0,1.4,0,2.09,0l.74,0a3.15,3.15,0,0,1,2,.87,2.87,2.87,0,0,1,.66,2.05,3.08,3.08,0,0,1-1.49,2.85,4.25,4.25,0,0,1-1.16.3,13.47,13.47,0,0,1-2.63.08v3.2a1.24,1.24,0,0,0,0,.38c.14.44.49.39.91.39h.52v.62h-4.87v-.65a1.3,1.3,0,0,0,.89-.15c.12-.11.17-.25.2-.63Zm2.37,4.2a3.38,3.38,0,0,0,2.12-.33c.77-.6.71-2.21.71-2.27a3.07,3.07,0,0,0-.4-1.9,1,1,0,0,0-.37-.33,4.86,4.86,0,0,0-2.08-.13Z"/><rect class="cls-14" x="179.62" y="159.94" width="38.7" height="12.87"/><rect class="cls-6" x="182.75" y="161.16" width="2" height="2"/><rect class="cls-6" x="185.55" y="161.16" width="2" height="2"/><rect class="cls-6" x="188.34" y="161.16" width="2" height="2"/><rect class="cls-6" x="191.13" y="161.16" width="2" height="2"/><rect class="cls-6" x="193.92" y="161.16" width="2" height="2"/><rect class="cls-6" x="196.72" y="161.16" width="2" height="2"/><rect class="cls-6" x="199.51" y="161.16" width="2" height="2"/><rect class="cls-6" x="202.3" y="161.16" width="2" height="2"/><rect class="cls-6" x="205.09" y="161.16" width="2" height="2"/><rect class="cls-6" x="207.88" y="161.16" width="2" height="2"/><rect class="cls-6" x="210.68" y="161.16" width="2" height="2"/><rect class="cls-6" x="213.47" y="161.16" width="2" height="2"/><rect class="cls-6" x="181.36" y="163.85" width="2" height="2"/><rect class="cls-6" x="184.15" y="163.85" width="2" height="2"/><rect class="cls-6" x="186.94" y="163.85" width="2" height="2"/><rect class="cls-6" x="189.73" y="163.85" width="2" height="2"/><rect class="cls-6" x="192.53" y="163.85" width="2" height="2"/><rect class="cls-6" x="195.32" y="163.85" width="2" height="2"/><rect class="cls-6" x="198.11" y="163.85" width="2" height="2"/><rect class="cls-6" x="200.9" y="163.85" width="2" height="2"/><rect class="cls-6" x="203.7" y="163.85" width="2" height="2"/><rect class="cls-6" x="206.49" y="163.85" width="2" height="2"/><rect class="cls-6" x="209.28" y="163.85" width="2" height="2"/><rect class="cls-6" x="212.07" y="163.85" width="2" height="2"/><rect class="cls-6" x="214.87" y="163.85" width="2" height="2"/><rect class="cls-6" x="182.75" y="166.53" width="2" height="2"/><rect class="cls-6" x="185.55" y="166.53" width="2" height="2"/><rect class="cls-6" x="188.34" y="166.53" width="2" height="2"/><rect class="cls-6" x="191.13" y="166.53" width="2" height="2"/><rect class="cls-6" x="193.92" y="166.53" width="2" height="2"/><rect class="cls-6" x="196.72" y="166.53" width="2" height="2"/><rect class="cls-6" x="199.51" y="166.53" width="2" height="2"/><rect class="cls-6" x="202.3" y="166.53" width="2" height="2"/><rect class="cls-6" x="205.09" y="166.53" width="2" height="2"/><rect class="cls-6" x="207.88" y="166.53" width="2" height="2"/><rect class="cls-6" x="210.68" y="166.53" width="2" height="2"/><rect class="cls-6" x="213.47" y="166.53" width="2" height="2"/><rect class="cls-6" x="181.36" y="169.22" width="2" height="2"/><rect class="cls-6" x="184.15" y="169.22" width="4.8" height="2"/><rect class="cls-6" x="189.73" y="169.22" width="2" height="2"/><rect class="cls-6" x="192.53" y="169.22" width="2" height="2"/><rect class="cls-6" x="195.32" y="169.22" width="2" height="2"/><rect class="cls-6" x="198.11" y="169.22" width="2" height="2"/><rect class="cls-6" x="200.9" y="169.22" width="2" height="2"/><rect class="cls-6" x="203.7" y="169.22" width="4.8" height="2"/><rect class="cls-6" x="209.28" y="169.22" width="4.8" height="2"/><rect class="cls-6" x="214.87" y="169.22" width="2" height="2"/><circle class="cls-8" cx="180.84" cy="177.29" r="1.85"/><circle class="cls-8" cx="186.94" cy="177.29" r="1.85"/><circle class="cls-11" cx="193.05" cy="177.29" r="1.85"/><line class="cls-7" x1="179.71" y1="181.76" x2="181.99" y2="181.76"/><line class="cls-7" x1="185.81" y1="181.76" x2="188.08" y2="181.76"/><line class="cls-7" x1="191.9" y1="181.76" x2="194.17" y2="181.76"/><path class="cls-10" d="M176.11,189.57h45.53a0,0,0,0,1,0,0v38.61a5.06,5.06,0,0,1-5.06,5.06H181.17a5.06,5.06,0,0,1-5.06-5.06V189.57A0,0,0,0,1,176.11,189.57Z"/><circle class="cls-9" cx="198.87" cy="230.83" r="0.77"/><rect class="cls-9" x="181.97" y="189.12" width="5.58" height="0.9"/><rect class="cls-9" x="210.68" y="189.12" width="5.58" height="0.9"/><circle class="cls-9" cx="409.32" cy="245.14" r="30.43"/><circle class="cls-9" cx="248.92" cy="245.14" r="30.43"/><path class="cls-15" d="M533,172v70.47H211.45a8.1,8.1,0,0,1-8.1-8.1v-36.2a7.9,7.9,0,0,1,5.76-7.61l64.65-19.83s56.51-72,57.72-71.61,162.31,0,162.31,0Z"/><path class="cls-15" d="M542.89,172v70.47H279.16v-44.3a7.9,7.9,0,0,1,5.76-7.61l64.65-19.83s56.51-72,57.71-71.61,96.43,0,96.43,0Z"/><circle class="cls-9" cx="479.73" cy="245.14" r="30.43"/><circle class="cls-6" cx="479.73" cy="245.14" r="11.65"/><circle class="cls-9" cx="319.33" cy="245.14" r="30.43"/><polygon class="cls-8" points="524.06 170.29 438.53 170.29 438.53 112.55 495.23 112.55 524.06 170.29"/><polygon class="cls-8" points="424.29 170.29 369.38 170.29 413.71 112.55 424.29 112.55 424.29 170.29"/><polygon class="cls-8" points="321.15 111.13 396.83 111.13 349.57 170.74 273.76 170.74 321.15 111.13"/><path class="cls-14" d="M517.27,218.84s9.87,15.62,9.87,32.43h19V218.84Z"/><line class="cls-16" x1="410.86" y1="186.41" x2="393.25" y2="186.41"/><line class="cls-16" x1="515.68" y1="188.12" x2="498.06" y2="188.12"/><line class="cls-16" x1="424.87" y1="188.83" x2="424.87" y2="229.97"/><path class="cls-6" d="M544.82,199h-8.26v17.48h8.26a5.89,5.89,0,0,0,5.89-5.89v-5.7A5.89,5.89,0,0,0,544.82,199Z"/><path class="cls-6" d="M288.38,199h-7.14a7,7,0,0,0-7,7v3.47a7,7,0,0,0,7,7h7.14Z"/><path class="cls-6" d="M210.42,199h-7.13a7,7,0,0,0-7,7v3.47a7,7,0,0,0,7,7h7.13Z"/><path class="cls-14" d="M203.35,218.84h70.08a5.73,5.73,0,0,1,5.73,5.73v17.89a0,0,0,0,1,0,0H203.35a0,0,0,0,1,0,0V218.84a0,0,0,0,1,0,0Z" transform="translate(482.51 461.31) rotate(-180)"/><circle class="cls-6" cx="319.33" cy="245.14" r="11.65"/><line class="cls-7" x1="373.5" y1="99.12" x2="387.99" y2="55.33"/><circle class="cls-8" cx="387.99" cy="55.33" r="4.36"/></g><g class="cls-17"><rect class="cls-3" x="714.85" y="-142.85" width="1255.72" height="706.34"/><path class="cls-18" d="M717.65,244.2V121.57h11.92v-4.9l3-.49v-10.8l2.27-3.86c.35.13.72.15.79.3.57,1.27,1.08,2.56,1.76,4.2l-.86,1.3,1.38,1.91h5.73c-.4-3.16,1-6,2.55-8.88l1,2L764.79,87a24.64,24.64,0,0,1,3.74-14L770.18,81l1.45.47V87L781,95c3,2.55,5.09,6.08,9,7.92v7.38h12.51c1,1,2,2.33,3.27,3.4s1.8,2.85,4.19,2.71V85.84c0-3-.15-6,.05-9,.18-2.71.76-5.38,1.2-8.33h6.75c3.63-2.22,1.46-4.73.88-7.11l2.86-4.15c2.82-2,6.88-.61,10.81-1.07l3.65,4v8h7.73v4.61l2.07.7V91.33c5.29,0,10.42.18,15.54,0,4.84-.23,9.84,1.09,14.67-.91V82.53l1.84-.38c.09-1.11.18-2.36.29-3.78h5.5l.87-2.38.82,2.16h5.61l.19,3.93,2.88.45v8.8h17.58a2.26,2.26,0,0,1,.35.34.83.83,0,0,1,.17.43c0,5.66,0,11.32,0,17.34l3.82,1.32V93.39l-3-6.24,5-6.61-6.75-8.93c3.5-.15,6.63,1.53,9.11,5.07l1.24-2.24h2.54v1.48l-2.1.8,2,4.24-2.69,2.68c2.11,2.92-.32,6.64,1.75,9.69a2.64,2.64,0,0,1-.85,3.49c1.77,2,.72,4.43.91,6.65s0,4.32,0,6.59l1.77.52c.49-6.25.08-12.35.27-18.34.88-1.38,1.67-2.75,2.59-4s1.88-2.27,3.35-4c0,.09.06-.7.14-1.71h2.75c.1.86.19,1.65.3,2.62h9.69c.36-1.74.79-3.72,1.2-5.71s-.9-4,1-5.61c-.39-.48-.78-1-1.61-1.94l2.71-.83,1.1.92-.72,1.57c.57,3.64,1.18,7.46,1.83,11.55h9.61l.27-2.58h2.68l.31,2.3c3.67.58,3,5,5.85,6.91v18.48h2.75c-.11.09.12,0,.12-.12q0-6.7,0-13.4l4.23-2.44L978,95.81c.22-1.27.37-2.13.56-3.17l1.68-.6c.09-.76.18-1.55.28-2.4l1.76-.66c.09-.77.17-1.56.28-2.52h2.56c.18-1.07.34-2,.52-3h3.58v2.4l2,.7v2.36l2.08.71c.05.72.1,1.5.17,2.52h3c-.35-4.51.06-8.85,2.52-12.86,2.39,7.35,1.16,14.79,1.42,22.13.11,2.83,0,5.67,0,8.76h4.76c1-3.42-.75-7.18,1-10.45-.34-1.86-.68-3.73-1-5.29L1008,90.7l2.2,3c-.26,2.23-1.09,4.3-.57,5.93,1.12,3.5.74,7,.91,10.63l1.79.11V73.63l2.88-.54c.44-2,.5-4.18,1.42-5.92,1-1.9.85-3.74.89-5.66.05-2.1,0-4.21,0-7l3.1,2.08c-.39,1.08-1.3,2.27-1,3.06,1.53,4.44.68,9.48,3.39,13.49l1.59.37V89c1.8.84,2.23,0,1.89-1.62h31V77l1.67-1.67,1.08,2.25,5.28-3.41v-5.2l1.74-1.74c.7.9,1.39,1.81,2.51,3.27V74l4.51,3.1,2.19-1.24c.51,3.64,0,6.93.39,10.73a8.68,8.68,0,0,0,1.85-1.16c1.26-1.42,2.43-2.94,3.94-4.79,2.93,3.54,6.65,5.56,9,9.35v14.65l3.14,2.1c-1.4,2.46-1.42,2.47.42,4.64h11a2.36,2.36,0,0,0,.34-.3.78.78,0,0,0,.18-.42c0-6,0-12,0-18.49l11.86,2V91.7l31.1,4.9v2.56l7.28,1.71q-.61,4.88-1.32,10.36h3V86.6l4.18-4.23h6.31l6.64-5.05v30.82H1180V77.57c1.39-.25,1.57,1,2.3,1.44a19.75,19.75,0,0,1,2,1.29c.78.58,1.52,1.21,2.44,2h6.84C1194.35,84,1195,86,1198.1,85V96.65c0,3.68-.41,7.42.11,11s-3.15,7.16.53,11c.2-1.55.34-2.7.53-4.22H1206c.06-1,.1-1.62.14-2.22l-4-5.25V102l3.48-3.58h5.69l2.55,1.26a4.54,4.54,0,0,0,.32.65c1.68,2.36.76,5.06,1,7.56l-3,3v3.45h8.7v-3.17c-1.32-1.84-2.69-3.76-4-5.52.56-1.88,1-3.37,1.5-5,2.38-2.7,5.72-2.21,9.38-2.14,1,1.27,2.11,2.78,3.15,4.16.94,4.18-1,7-3.77,9.26v2.39h9.9c0-.74.07-1.39.11-2.14l-3.89-3.44v-6.91l3.35-3.35c2.59.13,5.51-.61,8.39,1.44,1.65,2.29,1.14,5.25,1.09,8.13-1.3,1.31-2.6,2.61-3.93,3.93v2c2.09,1.63,3.83-.15,5.88-.73v-8.54h17.56c.62-.76,1.15-1.39,1.73-2.09h10.81V91.1l7.79,6.13h3.43l9.51-4,.56,1.5-11.36,5.84c2.48,2,4.37-.21,6.41-.26a42.66,42.66,0,0,0,6.1-.94,19.91,19.91,0,0,1,6.9-.35l-2,.58v4.65h11.92V60.29c4.23-.26,8.38.63,12-1.72,0-.25,0-.57-.07-1.25h-8.79c-.06-.8-.09-1.26-.14-1.91h14.83c-.07,2,.68,3.8,3.18,4.28v53.47l4,.42V244.2Z"/><path class="cls-6" d="M766.83,85.37s-4.09-.71-13.09-5.17-18.86,2-25.34.64-12.46-1.78-17.8.69-9.15,1.65-14,1c-5-.68-7.5,1.76-15.85,2.84Z"/><path class="cls-6" d="M768.73,65.57a83.6,83.6,0,0,1-24.3-6.65c-12.25-5.48-20-1.44-26.21,2-8.5,4.69-15.93,2.3-24.1,2.61a78.74,78.74,0,0,0-15.25,2.08Z"/></g></g></svg>