<svg xmlns="http://www.w3.org/2000/svg" xmlns:xlink="http://www.w3.org/1999/xlink" viewBox="0 0 983 300"><defs><style>.cls-1,.cls-9{fill:none;}.cls-2{clip-path:url(#clip-path);}.cls-3{fill:#3967dd;}.cls-4{fill:url(#linear-gradient);}.cls-10,.cls-5{fill:#fff;}.cls-6{clip-path:url(#clip-path-2);}.cls-7{fill:url(#linear-gradient-2);}.cls-8{fill:url(#linear-gradient-3);}.cls-10,.cls-11,.cls-12,.cls-13,.cls-14,.cls-16,.cls-17,.cls-18,.cls-9{stroke:#02225a;stroke-linecap:round;stroke-linejoin:round;stroke-width:0.89px;}.cls-11{fill:#02225a;}.cls-12{fill:#57bef7;}.cls-13,.cls-15{fill:#fc9f40;}.cls-14{fill:#b9355e;}.cls-16{fill:#f95269;}.cls-17{fill:#5fe0ab;}.cls-18{fill:#fac777;}.cls-19{clip-path:url(#clip-path-3);}.cls-20{fill:url(#linear-gradient-4);}</style><clipPath id="clip-path"><rect class="cls-1" x="-1351.52" y="0.51" width="1188" height="298.98"/></clipPath><linearGradient id="linear-gradient" x1="-368.63" y1="210.24" x2="-368.63" y2="2.32" gradientUnits="userSpaceOnUse"><stop offset="0" stop-color="#3967dd" stop-opacity="0"/><stop offset="1" stop-color="#2a57bc"/></linearGradient><clipPath id="clip-path-2"><rect class="cls-1" y="0.51" width="983" height="298.98"/></clipPath><linearGradient id="linear-gradient-2" x1="872.41" y1="210.24" x2="872.41" y2="2.32" xlink:href="#linear-gradient"/><linearGradient id="linear-gradient-3" x1="121.71" y1="210.24" x2="121.71" y2="2.32" xlink:href="#linear-gradient"/><clipPath id="clip-path-3"><rect class="cls-1" x="1334.82" y="0.51" width="743" height="298.98"/></clipPath><linearGradient id="linear-gradient-4" x1="1328.58" y1="210.24" x2="1328.58" y2="2.32" xlink:href="#linear-gradient"/></defs><g id="Layer_1" data-name="Layer 1"><g class="cls-2"><rect class="cls-3" x="-1498.08" y="-201.37" width="1508.71" height="848.65"/><path class="cls-4" d="M-744,263.66V116.32h14.32v-5.88l3.62-.59v-13l2.72-4.63c.42.15.86.17,1,.36.68,1.52,1.3,3.07,2.12,5.05l-1,1.56,1.67,2.29h6.88c-.49-3.79,1.14-7.18,3.06-10.67l1.2,2.45,21.14-18.5c-.32-6.07,1.35-11.42,4.5-16.88.68,3.33,1.28,6.3,2,9.71l1.75.58v6.65c3.73,3.17,7.48,6.34,11.21,9.53s6.13,7.3,10.8,9.52v8.86h15a52.82,52.82,0,0,0,3.93,4.08c1.39,1.21,2.15,3.43,5,3.26V73.4c0-3.62-.18-7.25.06-10.84.22-3.25.91-6.47,1.45-10h8.1c4.37-2.67,1.75-5.68,1-8.54l3.44-5c3.4-2.46,8.27-.73,13-1.28l4.39,4.84v9.66h9.28v5.53l2.49.85V80c6.35,0,12.52.22,18.67-.06,5.81-.27,11.82,1.31,17.63-1.09V69.42l2.21-.46c.1-1.33.22-2.83.35-4.54h6.61l1-2.85,1,2.59h6.74c.09,1.77.15,3.12.23,4.72l3.47.54V80h21.12a3.26,3.26,0,0,1,.42.41,1,1,0,0,1,.2.52c0,6.8,0,13.6,0,20.83l4.58,1.59V82.47L-509.3,75l6-7.94-8.11-10.73c4.2-.18,8,1.84,10.94,6.09l1.5-2.69h3.05v1.78l-2.53,1c.83,1.72,1.62,3.36,2.44,5.08l-3.23,3.23c2.54,3.5-.38,8,2.1,11.63a3.17,3.17,0,0,1-1,4.2c2.12,2.42.86,5.33,1.08,8s0,5.19,0,7.92l2.14.63c.58-7.52.09-14.85.31-22,1.06-1.66,2-3.3,3.12-4.83s2.26-2.71,4-4.81c0,.11.07-.84.17-2h3.3c.12,1,.23,2,.37,3.14h11.63c.45-2.08.95-4.47,1.45-6.85s-1.08-4.82,1.17-6.75l-1.93-2.33,3.26-1,1.31,1.11-.86,1.89c.69,4.37,1.42,9,2.2,13.87h11.55c.1-1,.2-1.9.32-3.09h3.22l.38,2.76c4.4.69,3.66,6,7,8.3v22.2h3.31c-.13.11.15,0,.15-.14q0-8.06,0-16.1l5.08-2.93,3.1,1.89c.27-1.52.45-2.56.67-3.81l2-.72c.11-.9.22-1.85.34-2.87l2.11-.81c.1-.92.21-1.87.33-3h3.08c.22-1.28.41-2.38.63-3.63h4.3v2.88l2.46.84v2.83l2.5.86c.06.85.12,1.8.21,3h3.58c-.43-5.42.07-10.63,3-15.45,2.87,8.83,1.4,17.77,1.72,26.59.12,3.4,0,6.82,0,10.52h5.72c1.14-4.11-.9-8.63,1.21-12.55-.41-2.24-.82-4.48-1.16-6.36l3.26-4.46,2.64,3.59c-.31,2.67-1.3,5.16-.68,7.12,1.34,4.21.88,8.46,1.09,12.78l2.15.13V58.73l3.46-.65c.53-2.4.6-5,1.71-7.12,1.21-2.28,1-4.49,1.07-6.79.06-2.53,0-5.06,0-8.36l3.73,2.49c-.47,1.3-1.56,2.73-1.24,3.67,1.84,5.34.82,11.4,4.08,16.22l1.9.44V77.16c2.17,1,2.69,0,2.28-2h37.21V62.73l2-2,1.29,2.7,6.34-4.1V53.08L-324,51l3,3.93v4.24l5.41,3.72,2.63-1.48c.62,4.36,0,8.32.47,12.89a10.67,10.67,0,0,0,2.22-1.39c1.51-1.72,2.92-3.53,4.74-5.77,3.52,4.26,8,6.69,10.87,11.24V96l3.77,2.52c-1.68,3-1.7,3,.5,5.57h13.25a2.64,2.64,0,0,0,.41-.36,1,1,0,0,0,.22-.51c0-7.2,0-14.4,0-22.21l14.24,2.41v-3l37.37,5.88v3.09l8.74,2q-.74,5.85-1.57,12.45H-214V74.31l5-5.09h7.59l8-6.06v37h4.89V63.46c1.66-.29,1.89,1.25,2.76,1.73a21,21,0,0,1,2.37,1.55c.94.7,1.84,1.46,2.94,2.34h8.22c1,2.06,1.76,4.55,5.51,3.35v14c0,4.42-.49,8.91.14,13.24s-3.79,8.6.64,13.27c.23-1.86.4-3.25.63-5.07h8.1c.07-1.18.12-2,.17-2.66L-162,98.85v-6.1l4.19-4.3h6.83l3.06,1.51a4.55,4.55,0,0,0,.39.78c2,2.84.91,6.08,1.24,9.09l-3.54,3.55v4.14h10.45v-3.81c-1.58-2.21-3.23-4.52-4.75-6.63.67-2.26,1.21-4,1.79-6,2.87-3.24,6.89-2.65,11.29-2.57l3.77,5c1.14,5-1.22,8.42-4.53,11.13v2.87h11.9c0-.89.08-1.67.13-2.57l-4.67-4.14v-8.3l4-4c3.12.15,6.62-.73,10.08,1.72,2,2.76,1.38,6.31,1.32,9.78l-4.73,4.72v2.41c2.52,2,4.6-.19,7.07-.88V95.92h21.1l2.07-2.51h13V79.72l9.35,7.36H-57l11.42-4.83.68,1.8-13.65,7c3,2.46,5.25-.25,7.7-.31a51.38,51.38,0,0,0,7.33-1.13,23.91,23.91,0,0,1,8.3-.42l-2.46.69v5.59h14.32V42.7c5.09-.32,10.07.76,14.46-2.07,0-.29,0-.69-.09-1.5H-19.56c-.07-1-.11-1.51-.17-2.29H-1.91C-2,39.23-1.09,41.4,1.9,42v64.24l4.86.51V263.66Z"/><path class="cls-5" d="M6.76,111.62A136.8,136.8,0,0,1-16,104.14c-12.92-5.45-30.61.34-36.39,3.06s-12.41.85-15.81.51-15.13-.17-22.62,3.91Z"/></g><g class="cls-6"><rect class="cls-3" x="-257.03" y="-201.37" width="1508.71" height="848.65"/><path class="cls-7" d="M497,263.66V116.32h14.32v-5.88l3.61-.59v-13l2.72-4.63c.42.15.87.17,1,.36.69,1.52,1.31,3.07,2.12,5.05l-1,1.56,1.67,2.29h6.88c-.49-3.79,1.14-7.18,3.06-10.67l1.2,2.45,21.15-18.5c-.33-6.07,1.34-11.42,4.5-16.88.67,3.33,1.28,6.3,2,9.71l1.75.58v6.65q5.6,4.75,11.22,9.53c3.58,3.06,6.12,7.3,10.79,9.52v8.86h15c1.19,1.25,2.45,2.8,3.93,4.08s2.16,3.43,5,3.26V73.4c0-3.62-.19-7.25.05-10.84.22-3.25.92-6.47,1.45-10h8.11c4.36-2.67,1.74-5.68,1-8.54L622,39c3.4-2.46,8.28-.73,13-1.28l4.38,4.84v9.66h9.29v5.53l2.48.85V80c6.36,0,12.53.22,18.67-.06,5.82-.27,11.83,1.31,17.63-1.09V69.42l2.21-.46c.1-1.33.22-2.83.35-4.54h6.61l1-2.85,1,2.59h6.74c.09,1.77.16,3.12.24,4.72l3.46.54V80h21.12a3.26,3.26,0,0,1,.42.41,1,1,0,0,1,.2.52c0,6.8,0,13.6,0,20.83l4.58,1.59V82.47L731.74,75l6-7.94L729.67,56.3c4.21-.18,8,1.84,11,6.09l1.49-2.69h3v1.78l-2.53,1,2.45,5.08c-1,.94-2.08,2.08-3.23,3.23,2.53,3.5-.39,8,2.1,11.63a3.17,3.17,0,0,1-1,4.2c2.12,2.42.87,5.33,1.09,8s0,5.19,0,7.92l2.14.63c.58-7.52.09-14.85.31-22,1.07-1.66,2-3.3,3.13-4.83s2.25-2.71,4-4.81c0,.11.07-.84.17-2h3.3c.12,1,.23,2,.37,3.14h11.64c.44-2.08.94-4.47,1.45-6.85s-1.09-4.82,1.16-6.75c-.46-.57-.93-1.13-1.92-2.33l3.25-1,1.32,1.11-.86,1.89c.69,4.37,1.42,9,2.19,13.87h11.55c.1-1,.2-1.9.32-3.09h3.22l.38,2.76c4.4.69,3.67,6,7,8.3v22.2h3.31c-.13.11.15,0,.15-.14q0-8.06,0-16.1l5.08-2.93,3.1,1.89c.27-1.52.45-2.56.67-3.81l2-.72c.11-.9.22-1.85.34-2.87l2.12-.81c.1-.92.2-1.87.33-3h3.08c.22-1.28.41-2.38.62-3.63h4.31v2.88l2.45.84v2.83l2.5.86c.06.85.13,1.8.21,3h3.58c-.43-5.42.07-10.63,3-15.45,2.87,8.83,1.4,17.77,1.72,26.59.12,3.4,0,6.82,0,10.52h5.72c1.14-4.11-.9-8.63,1.21-12.55-.41-2.24-.82-4.48-1.16-6.36l3.26-4.46,2.64,3.59c-.31,2.67-1.3,5.16-.67,7.12,1.34,4.21.88,8.46,1.08,12.78l2.15.13V58.73l3.47-.65c.52-2.4.6-5,1.7-7.12,1.21-2.28,1-4.49,1.07-6.79.06-2.53,0-5.06,0-8.36l3.74,2.49c-.48,1.3-1.57,2.73-1.25,3.67,1.85,5.34.82,11.4,4.08,16.22l1.91.44V77.16c2.16,1,2.68,0,2.27-2h37.22V62.73l2-2c.39.81.77,1.59,1.29,2.7l6.35-4.1V53.08L917.08,51l3,3.93v4.24l5.42,3.72,2.63-1.48c.61,4.36.05,8.32.46,12.89a10.67,10.67,0,0,0,2.22-1.39c1.52-1.72,2.92-3.53,4.74-5.77,3.52,4.26,8,6.69,10.87,11.24V96l3.77,2.52c-1.68,3-1.7,3,.51,5.57H964a2.25,2.25,0,0,0,.41-.36,1,1,0,0,0,.22-.51c0-7.2,0-14.4,0-22.21l14.25,2.41v-3l37.37,5.88v3.09l8.74,2q-.75,5.85-1.58,12.45H1027V74.31l5-5.09h7.59l8-6.06v37h4.9V63.46c1.66-.29,1.88,1.25,2.76,1.73a23,23,0,0,1,2.37,1.55c.94.7,1.83,1.46,2.94,2.34h8.22c1,2.06,1.75,4.55,5.51,3.35v14c0,4.42-.49,8.91.13,13.24s-3.79,8.6.64,13.27c.23-1.86.4-3.25.63-5.07h8.1c.08-1.18.13-2,.17-2.66l-4.85-6.32v-6.1l4.18-4.3h6.83l3.07,1.51a3.72,3.72,0,0,0,.38.78c2,2.84.92,6.08,1.24,9.09l-3.54,3.55v4.14h10.46v-3.81L1097,97.08l1.79-6c2.86-3.24,6.88-2.65,11.28-2.57l3.78,5c1.13,5-1.23,8.42-4.54,11.13v2.87h11.9c0-.89.09-1.67.13-2.57l-4.67-4.14v-8.3l4-4c3.12.15,6.63-.73,10.08,1.72,2,2.76,1.38,6.31,1.32,9.78l-4.73,4.72v2.41c2.52,2,4.6-.19,7.07-.88V95.92h21.1l2.07-2.51h13V79.72l9.36,7.36H1184l11.43-4.83.67,1.8-13.65,7c3,2.46,5.25-.25,7.7-.31a51.73,51.73,0,0,0,7.34-1.13,23.85,23.85,0,0,1,8.29-.42l-2.46.69v5.59h14.32V42.7c5.09-.32,10.07.76,14.46-2.07,0-.29,0-.69-.08-1.5h-10.57c-.07-1-.11-1.51-.16-2.29h17.82c-.09,2.39.81,4.56,3.81,5.14v64.24l4.85.51V263.66Z"/><path class="cls-8" d="M-253.68,263.66V116.32h14.32v-5.88l3.62-.59v-13l2.71-4.63c.43.15.87.17.95.36.69,1.52,1.31,3.07,2.12,5.05l-1,1.56,1.67,2.29h6.88c-.49-3.79,1.14-7.18,3.06-10.67l1.2,2.45L-197,74.78c-.33-6.07,1.34-11.42,4.5-16.88.67,3.33,1.28,6.3,2,9.71l1.75.58v6.65q5.61,4.75,11.22,9.53c3.58,3.06,6.12,7.3,10.79,9.52v8.86h15c1.19,1.25,2.45,2.8,3.93,4.08s2.16,3.43,5,3.26V73.4c0-3.62-.19-7.25.05-10.84.23-3.25.92-6.47,1.45-10h8.11c4.36-2.67,1.74-5.68,1-8.54l3.44-5c3.39-2.46,8.27-.73,13-1.28l4.38,4.84v9.66H-102v5.53l2.48.85V80c6.36,0,12.53.22,18.67-.06,5.82-.27,11.83,1.31,17.63-1.09V69.42l2.21-.46c.11-1.33.22-2.83.35-4.54h6.61L-53,61.57l1,2.59h6.74c.08,1.77.15,3.12.23,4.72l3.46.54V80h21.12a2.8,2.8,0,0,1,.43.41,1,1,0,0,1,.19.52c0,6.8,0,13.6,0,20.83l4.58,1.59V82.47L-19,75-12.91,67-21,56.3c4.21-.18,8,1.84,11,6.09.61-1.1,1.1-2,1.49-2.69h3.05v1.78l-2.53,1,2.45,5.08-3.23,3.23c2.54,3.5-.39,8,2.1,11.63a3.16,3.16,0,0,1-1,4.2c2.12,2.42.87,5.33,1.09,8s0,5.19,0,7.92l2.13.63c.59-7.52.1-14.85.32-22,1.06-1.66,2-3.3,3.12-4.83s2.25-2.71,4-4.81c0,.11.07-.84.17-2H6.43c.12,1,.23,2,.36,3.14H18.43c.44-2.08.95-4.47,1.45-6.85s-1.09-4.82,1.17-6.75l-1.93-2.33,3.25-1,1.32,1.11-.86,1.89c.69,4.37,1.42,9,2.2,13.87H36.57c.1-1,.2-1.9.33-3.09h3.22l.37,2.76c4.4.69,3.67,6,7,8.3v22.2h3.3c-.12.11.15,0,.15-.14q0-8.06,0-16.1l5.08-2.93,3.1,1.89c.27-1.52.45-2.56.67-3.81l2-.72c.11-.9.22-1.85.34-2.87l2.12-.81c.1-.92.2-1.87.33-3h3.08c.22-1.28.41-2.38.62-3.63h4.31v2.88l2.45.84v2.83l2.5.86c.06.85.13,1.8.22,3H81.4c-.42-5.42.07-10.63,3-15.45,2.87,8.83,1.39,17.77,1.71,26.59.12,3.4,0,6.82,0,10.52h5.72C93,98.49,91,94,93.09,90.05c-.4-2.24-.81-4.48-1.15-6.36l3.25-4.46,2.64,3.59c-.3,2.67-1.3,5.16-.67,7.12,1.34,4.21.88,8.46,1.08,12.78l2.16.13V58.73l3.46-.65c.53-2.4.6-5,1.7-7.12,1.22-2.28,1-4.49,1.08-6.79,0-2.53,0-5.06,0-8.36l3.74,2.49c-.48,1.3-1.57,2.73-1.24,3.67,1.84,5.34.81,11.4,4.07,16.22l1.91.44V77.16c2.16,1,2.68,0,2.27-2h37.22V62.73l2-2c.39.81.77,1.59,1.29,2.7l6.35-4.1V53.08L166.38,51l3,3.93v4.24l5.42,3.72,2.63-1.48c.61,4.36.05,8.32.46,12.89a10.67,10.67,0,0,0,2.22-1.39c1.52-1.72,2.92-3.53,4.74-5.77,3.52,4.26,8,6.69,10.88,11.24V96l3.76,2.52c-1.68,3-1.7,3,.51,5.57h13.24a2.25,2.25,0,0,0,.41-.36,1,1,0,0,0,.22-.51c0-7.2,0-14.4,0-22.21l14.25,2.41v-3l37.37,5.88v3.09l8.74,2q-.75,5.85-1.58,12.45h3.61V74.31l5-5.09h7.59l8-6.06v37h4.9V63.46c1.66-.29,1.88,1.25,2.76,1.73a23,23,0,0,1,2.37,1.55c.94.7,1.83,1.46,2.94,2.34h8.22c1,2.06,1.75,4.55,5.51,3.35v14c0,4.42-.49,8.91.14,13.24s-3.8,8.6.63,13.27c.23-1.86.41-3.25.63-5.07h8.1c.08-1.18.13-2,.17-2.66l-4.85-6.32v-6.1l4.18-4.3h6.83L342.47,90a3.41,3.41,0,0,0,.39.78c2,2.84.91,6.08,1.24,9.09l-3.55,3.55v4.14H351v-3.81l-4.75-6.63,1.79-6c2.86-3.24,6.88-2.65,11.28-2.57l3.78,5c1.13,5-1.23,8.42-4.54,11.13v2.87h11.9c0-.89.09-1.67.14-2.57l-4.68-4.14v-8.3l4-4c3.12.15,6.63-.73,10.09,1.72,2,2.76,1.37,6.31,1.31,9.78l-4.73,4.72v2.41c2.52,2,4.61-.19,7.07-.88V95.92h21.1l2.07-2.51h13V79.72l9.36,7.36h4.13l11.42-4.83.67,1.8-13.65,7c3,2.46,5.25-.25,7.7-.31a51.3,51.3,0,0,0,7.34-1.13,23.85,23.85,0,0,1,8.29-.42l-2.46.69v5.59H467V42.7c5.08-.32,10.06.76,14.46-2.07,0-.29,0-.69-.09-1.5H470.78c-.07-1-.1-1.51-.16-2.29h17.82c-.09,2.39.81,4.56,3.81,5.14v64.24l4.85.51V263.66Z"/><path class="cls-5" d="M731.13,31.25s-6.82-2.24-12.7-4.68c-6.79-2.81-10.12,1.76-16.66,1.92s-9.72-1.7-14.87-1.24c-7.65.68-8.42,3.18-12,4.32Z"/><path class="cls-5" d="M372.32,28.29s-6.82-2.24-12.7-4.68c-6.79-2.81-10.12,1.76-16.66,1.92s-9.73-1.7-14.87-1.24c-7.65.68-8.43,3.18-12,4.33Z"/><path class="cls-5" d="M261.72,40.9a71.12,71.12,0,0,1-11.36-4.12c-10-4.53-16.77-.28-21.77.95-8.2,2-12.58-2.59-28.82-.4a143.62,143.62,0,0,0-16.49,3.58Z"/><path class="cls-5" d="M674.72,60.19s-15.25-2.76-27.21-7.93-19.54,2.25-30.15,4-14-1-22.79,0c-5.88.66-17.26,3.94-17.26,3.94Z"/><line class="cls-9" x1="26.8" y1="275.74" x2="951.7" y2="275.74"/><path class="cls-10" d="M570,275.74c2.56-17.33,22.48-30.83,44.28-30.83,16.58,0,30.92,7.81,37.85,19.18a39,39,0,0,1,17.67-4.29,35.42,35.42,0,0,1,29.92,15.94Z"/><path class="cls-11" d="M203,275.69C200.2,259.56,178.72,247,155.21,247c-17.87,0-33.34,7.27-40.81,17.84a47.7,47.7,0,0,0-19.06-4c-13.67,0-25.65,5.94-32.26,14.83Z"/><path class="cls-10" d="M192.36,160.71c0-37.59-21.72-40.73-23.88-75.17-2-31.78,0-59.88-35.46-59.88S99.54,53.76,97.55,85.54C95.39,120,73.67,123.12,73.67,160.71,73.67,241.44,192.36,241.44,192.36,160.71Z"/><line class="cls-9" x1="133.02" y1="73.42" x2="133.02" y2="275.69"/><line class="cls-9" x1="133.02" y1="195.97" x2="96.29" y2="159.25"/><line class="cls-9" x1="133.02" y1="154.19" x2="156.7" y2="130.51"/><line class="cls-9" x1="133.02" y1="184.08" x2="123.51" y2="174.57"/><line class="cls-9" x1="133.02" y1="92.69" x2="138.81" y2="86.9"/><path class="cls-10" d="M225.48,275.69c-1.85-13.61-16.21-24.21-31.94-24.21-12,0-22.3,6.13-27.3,15a26.42,26.42,0,0,0-12.74-3.36,25.08,25.08,0,0,0-21.59,12.52Z"/><path class="cls-10" d="M928.45,155.6c0-39.24-22.68-42.53-24.94-78.49-2.07-33.18,0-62.51-37-62.51s-35,29.33-37,62.51c-2.25,36-24.93,39.25-24.93,78.49C804.52,239.89,928.45,239.89,928.45,155.6Z"/><line class="cls-9" x1="866.48" y1="64.46" x2="866.48" y2="275.65"/><line class="cls-9" x1="866.48" y1="192.42" x2="828.14" y2="154.08"/><line class="cls-9" x1="866.48" y1="148.79" x2="891.21" y2="124.07"/><line class="cls-9" x1="866.48" y1="180" x2="856.56" y2="170.07"/><line class="cls-9" x1="866.48" y1="84.58" x2="872.53" y2="78.53"/><path class="cls-10" d="M756.37,191.36c0-27.55,15.92-29.86,17.51-55.1,1.46-23.3,0-43.89,26-43.89s24.54,20.59,26,43.89c1.58,25.24,17.51,27.55,17.51,55.1C843.38,250.54,756.37,250.54,756.37,191.36Z"/><line class="cls-9" x1="799.87" y1="127.38" x2="799.87" y2="275.65"/><line class="cls-9" x1="799.87" y1="217.21" x2="826.79" y2="190.29"/><line class="cls-9" x1="799.87" y1="186.58" x2="782.52" y2="169.22"/><line class="cls-9" x1="799.87" y1="208.49" x2="806.84" y2="201.52"/><line class="cls-9" x1="799.87" y1="141.5" x2="795.63" y2="137.26"/><path class="cls-11" d="M921.91,275.77c-6.38-7.86-17.74-13.11-29.83-13.11a44.27,44.27,0,0,0-15.19,2.74c-6.15-8.54-18.06-14.35-30.78-14.35-17.39,0-34.32,10.86-36.16,24.72Z"/><path class="cls-10" d="M844.47,275.77c-1.55-11.39-13.57-20.26-26.73-20.26-10,0-18.67,5.13-22.85,12.6a22,22,0,0,0-10.67-2.81,21,21,0,0,0-18.07,10.47Z"/><line class="cls-9" x1="672.04" y1="286.74" x2="822.18" y2="286.74"/><line class="cls-9" x1="659.57" y1="286.74" x2="646.26" y2="286.74"/><rect class="cls-11" x="314.44" y="100.35" width="64.17" height="172.21"/><polygon class="cls-11" points="378.82 81.73 332.37 81.73 314.44 100.35 378.6 100.35 378.82 81.73"/><rect class="cls-12" x="296.72" y="95.66" width="60.98" height="176.9"/><rect class="cls-10" x="302.7" y="126" width="49.57" height="30.67"/><rect class="cls-11" x="302.7" y="126" width="1.05" height="30.67"/><rect class="cls-11" x="327.46" y="102.29" width="1.05" height="48.47" transform="translate(454.5 -201.46) rotate(90)"/><rect class="cls-11" x="310.86" y="268.53" width="71.72" height="7.21"/><rect class="cls-10" x="292.94" y="268.53" width="67.53" height="7.21"/><rect class="cls-13" x="320.78" y="123.9" width="12.28" height="4.21"/><rect class="cls-11" x="332.25" y="175.05" width="14.06" height="5.13"/><line class="cls-9" x1="328.94" y1="175.05" x2="328.94" y2="180.18"/><line class="cls-14" x1="323.51" y1="238.44" x2="304.06" y2="238.44"/><line class="cls-14" x1="323.51" y1="241.07" x2="304.06" y2="241.07"/><line class="cls-14" x1="323.51" y1="243.71" x2="304.06" y2="243.71"/><line class="cls-14" x1="323.51" y1="246.34" x2="304.06" y2="246.34"/><line class="cls-14" x1="323.51" y1="248.97" x2="304.06" y2="248.97"/><line class="cls-14" x1="323.51" y1="251.61" x2="304.06" y2="251.61"/><line class="cls-14" x1="323.51" y1="254.24" x2="304.06" y2="254.24"/><line class="cls-14" x1="323.51" y1="256.88" x2="304.06" y2="256.88"/><line class="cls-14" x1="349.59" y1="238.44" x2="330.15" y2="238.44"/><line class="cls-14" x1="349.59" y1="241.07" x2="330.15" y2="241.07"/><line class="cls-14" x1="349.59" y1="243.71" x2="330.15" y2="243.71"/><line class="cls-14" x1="349.59" y1="246.34" x2="330.15" y2="246.34"/><line class="cls-14" x1="349.59" y1="248.97" x2="330.15" y2="248.97"/><line class="cls-14" x1="349.59" y1="251.61" x2="330.15" y2="251.61"/><line class="cls-14" x1="349.59" y1="254.24" x2="330.15" y2="254.24"/><line class="cls-14" x1="349.59" y1="256.88" x2="330.15" y2="256.88"/><rect class="cls-15" x="308.04" y="132.85" width="40.05" height="11.39"/><rect class="cls-15" x="308.04" y="145.91" width="19.46" height="5.69"/><rect class="cls-15" x="328.91" y="145.91" width="19.18" height="5.69"/><polygon class="cls-12" points="380.59 77.92 312.79 77.92 293.53 97.92 361.33 97.92 380.59 77.92"/><polygon class="cls-5" points="320.39 87.24 327.18 80.18 315.58 80.18 308.79 87.24 320.39 87.24"/><polygon class="cls-5" points="307.47 88.6 300.68 95.66 312.28 95.66 319.07 88.6 307.47 88.6"/><polygon class="cls-5" points="335.65 87.24 342.44 80.18 330.84 80.18 324.05 87.24 335.65 87.24"/><polygon class="cls-5" points="322.73 88.6 315.94 95.66 327.54 95.66 334.33 88.6 322.73 88.6"/><polygon class="cls-5" points="350.91 87.24 357.7 80.18 346.11 80.18 339.31 87.24 350.91 87.24"/><polygon class="cls-5" points="338 88.6 331.2 95.66 342.8 95.66 349.59 88.6 338 88.6"/><polygon class="cls-5" points="353.26 88.6 346.46 95.66 358.06 95.66 364.85 88.6 353.26 88.6"/><polygon class="cls-5" points="366.17 87.24 372.96 80.18 361.37 80.18 354.57 87.24 366.17 87.24"/><rect class="cls-13" x="293.53" y="97.92" width="67.8" height="3.18"/><polygon class="cls-13" points="361.33 101.1 361.33 97.92 380.59 77.92 380.59 81.07 361.33 101.1"/><rect class="cls-16" x="302.5" y="104.64" width="49.74" height="15.32"/><line class="cls-9" x1="319.07" y1="108.5" x2="328.94" y2="108.5"/><line class="cls-9" x1="319.07" y1="112.52" x2="339.76" y2="112.52"/><line class="cls-9" x1="319.07" y1="116.55" x2="330.22" y2="116.55"/><line class="cls-9" x1="332.35" y1="108.5" x2="347.22" y2="108.5"/><line class="cls-9" x1="342.56" y1="112.52" x2="347.22" y2="112.52"/><line class="cls-9" x1="333.34" y1="116.55" x2="338.73" y2="116.55"/><line class="cls-9" x1="341.03" y1="116.55" x2="349.56" y2="116.55"/><path class="cls-5" d="M307.85,108.32a1.78,1.78,0,0,0-.12-.54c-.14-.22-.4-.26-1-.28l0-.58c1,0,2.09,0,3.15,0,.69,0,1.4,0,2.09,0,.25,0,.49,0,.74,0a3.13,3.13,0,0,1,2,.87,2.87,2.87,0,0,1,.66,2.05,3.06,3.06,0,0,1-1.49,2.85,4.15,4.15,0,0,1-1.15.3,13.51,13.51,0,0,1-2.63.08v3.2a1.24,1.24,0,0,0,0,.38c.14.44.49.39.91.39h.52v.62h-4.88v-.65c.45,0,.74,0,.89-.15s.17-.25.2-.63Zm2.37,4.2a3.43,3.43,0,0,0,2.13-.33c.76-.6.7-2.21.7-2.27a3.07,3.07,0,0,0-.4-1.9,1,1,0,0,0-.37-.33,4.8,4.8,0,0,0-2.07-.13Z"/><rect class="cls-16" x="307.57" y="159.94" width="38.7" height="12.87"/><rect class="cls-5" x="310.71" y="161.16" width="2" height="2"/><rect class="cls-5" x="313.5" y="161.16" width="2" height="2"/><rect class="cls-5" x="316.29" y="161.16" width="2" height="2"/><rect class="cls-5" x="319.09" y="161.16" width="2" height="2"/><rect class="cls-5" x="321.88" y="161.16" width="2" height="2"/><rect class="cls-5" x="324.67" y="161.16" width="2" height="2"/><rect class="cls-5" x="327.46" y="161.16" width="2" height="2"/><rect class="cls-5" x="330.25" y="161.16" width="2" height="2"/><rect class="cls-5" x="333.05" y="161.16" width="2" height="2"/><rect class="cls-5" x="335.84" y="161.16" width="2" height="2"/><rect class="cls-5" x="338.63" y="161.16" width="2" height="2"/><rect class="cls-5" x="341.42" y="161.16" width="2" height="2"/><rect class="cls-5" x="309.31" y="163.85" width="2" height="2"/><rect class="cls-5" x="312.1" y="163.85" width="2" height="2"/><rect class="cls-5" x="314.9" y="163.85" width="2" height="2"/><rect class="cls-5" x="317.69" y="163.85" width="2" height="2"/><rect class="cls-5" x="320.48" y="163.85" width="2" height="2"/><rect class="cls-5" x="323.27" y="163.85" width="2" height="2"/><rect class="cls-5" x="326.07" y="163.85" width="2" height="2"/><rect class="cls-5" x="328.86" y="163.85" width="2" height="2"/><rect class="cls-5" x="331.65" y="163.85" width="2" height="2"/><rect class="cls-5" x="334.44" y="163.85" width="2" height="2"/><rect class="cls-5" x="337.24" y="163.85" width="2" height="2"/><rect class="cls-5" x="340.03" y="163.85" width="2" height="2"/><rect class="cls-5" x="342.82" y="163.85" width="2" height="2"/><rect class="cls-5" x="310.71" y="166.53" width="2" height="2"/><rect class="cls-5" x="313.5" y="166.53" width="2" height="2"/><rect class="cls-5" x="316.29" y="166.53" width="2" height="2"/><rect class="cls-5" x="319.09" y="166.53" width="2" height="2"/><rect class="cls-5" x="321.88" y="166.53" width="2" height="2"/><rect class="cls-5" x="324.67" y="166.53" width="2" height="2"/><rect class="cls-5" x="327.46" y="166.53" width="2" height="2"/><rect class="cls-5" x="330.25" y="166.53" width="2" height="2"/><rect class="cls-5" x="333.05" y="166.53" width="2" height="2"/><rect class="cls-5" x="335.84" y="166.53" width="2" height="2"/><rect class="cls-5" x="338.63" y="166.53" width="2" height="2"/><rect class="cls-5" x="341.42" y="166.53" width="2" height="2"/><rect class="cls-5" x="309.31" y="169.22" width="2" height="2"/><rect class="cls-5" x="312.1" y="169.22" width="4.8" height="2"/><rect class="cls-5" x="317.69" y="169.22" width="2" height="2"/><rect class="cls-5" x="320.48" y="169.22" width="2" height="2"/><rect class="cls-5" x="323.27" y="169.22" width="2" height="2"/><rect class="cls-5" x="326.07" y="169.22" width="2" height="2"/><rect class="cls-5" x="328.86" y="169.22" width="2" height="2"/><rect class="cls-5" x="331.65" y="169.22" width="4.8" height="2"/><rect class="cls-5" x="337.24" y="169.22" width="4.8" height="2"/><rect class="cls-5" x="342.82" y="169.22" width="2" height="2"/><circle class="cls-10" cx="308.79" cy="177.29" r="1.85"/><circle class="cls-10" cx="314.9" cy="177.29" r="1.85"/><circle class="cls-13" cx="321" cy="177.29" r="1.85"/><line class="cls-9" x1="307.67" y1="181.76" x2="309.94" y2="181.76"/><line class="cls-9" x1="313.76" y1="181.76" x2="316.03" y2="181.76"/><line class="cls-9" x1="319.85" y1="181.76" x2="322.12" y2="181.76"/><path class="cls-12" d="M304.06,189.57h45.53a0,0,0,0,1,0,0v38.61a5.06,5.06,0,0,1-5.06,5.06H309.12a5.06,5.06,0,0,1-5.06-5.06V189.57A0,0,0,0,1,304.06,189.57Z"/><circle class="cls-11" cx="326.83" cy="230.83" r="0.77"/><rect class="cls-11" x="309.92" y="189.12" width="5.58" height="0.9"/><rect class="cls-11" x="338.63" y="189.12" width="5.58" height="0.9"/><circle class="cls-11" cx="537.28" cy="245.14" r="30.43"/><circle class="cls-11" cx="376.88" cy="245.14" r="30.43"/><path class="cls-17" d="M660.93,172v70.47H339.4a8.1,8.1,0,0,1-8.1-8.1v-36.2a7.91,7.91,0,0,1,5.76-7.61l64.65-19.83s56.52-72,57.72-71.61,162.31,0,162.31,0Z"/><path class="cls-17" d="M670.85,172v70.47H407.11v-44.3a7.91,7.91,0,0,1,5.76-7.61l64.65-19.83s56.52-72,57.72-71.61,96.42,0,96.42,0Z"/><circle class="cls-11" cx="607.69" cy="245.14" r="30.43"/><circle class="cls-5" cx="607.69" cy="245.14" r="11.65"/><circle class="cls-11" cx="447.28" cy="245.14" r="30.43"/><polygon class="cls-10" points="652.01 170.29 566.48 170.29 566.48 112.55 623.18 112.55 652.01 170.29"/><polygon class="cls-10" points="552.24 170.29 497.33 170.29 541.66 112.55 552.24 112.55 552.24 170.29"/><polygon class="cls-10" points="449.1 111.13 524.79 111.13 477.52 170.74 401.71 170.74 449.1 111.13"/><path class="cls-16" d="M645.22,218.84s9.88,15.62,9.88,32.43h18.95V218.84Z"/><line class="cls-18" x1="538.82" y1="186.41" x2="521.2" y2="186.41"/><line class="cls-18" x1="643.63" y1="188.12" x2="626.02" y2="188.12"/><line class="cls-18" x1="552.82" y1="188.83" x2="552.82" y2="229.97"/><path class="cls-5" d="M672.77,199h-8.26v17.48h8.26a5.89,5.89,0,0,0,5.89-5.89v-5.7A5.89,5.89,0,0,0,672.77,199Z"/><path class="cls-5" d="M416.33,199H409.2a7,7,0,0,0-7,7v3.47a7,7,0,0,0,7,7h7.13Z"/><path class="cls-5" d="M338.38,199h-7.14a7,7,0,0,0-7,7v3.47a7,7,0,0,0,7,7h7.14Z"/><path class="cls-16" d="M331.3,218.84h70.08a5.73,5.73,0,0,1,5.73,5.73v17.89a0,0,0,0,1,0,0H331.3a0,0,0,0,1,0,0V218.84a0,0,0,0,1,0,0Z" transform="translate(738.42 461.31) rotate(-180)"/><circle class="cls-5" cx="447.28" cy="245.14" r="11.65"/><line class="cls-9" x1="501.45" y1="99.12" x2="515.94" y2="55.33"/><circle class="cls-10" cx="515.94" cy="55.33" r="4.36"/></g><g class="cls-19"><rect class="cls-3" x="949.83" y="-201.37" width="1508.71" height="848.65"/><path class="cls-20" d="M953.18,263.66V116.32H967.5v-5.88l3.62-.59v-13l2.72-4.63c.42.15.87.17.95.36.68,1.52,1.3,3.07,2.12,5.05l-1,1.56,1.67,2.29h6.88c-.49-3.79,1.14-7.18,3.06-10.67l1.2,2.45,21.14-18.5c-.32-6.07,1.35-11.42,4.5-16.88.68,3.33,1.28,6.3,2,9.71l1.75.58v6.65c3.73,3.17,7.48,6.34,11.21,9.53s6.13,7.3,10.8,9.52v8.86h15a54.77,54.77,0,0,0,3.93,4.08c1.39,1.21,2.15,3.43,5,3.26V73.4c0-3.62-.18-7.25.06-10.84.22-3.25.91-6.47,1.45-10h8.1c4.37-2.67,1.75-5.68,1.06-8.54l3.43-5c3.4-2.46,8.27-.73,13-1.28l4.39,4.84v9.66h9.29v5.53l2.48.85V80c6.35,0,12.52.22,18.67-.06,5.81-.27,11.82,1.31,17.63-1.09V69.42l2.21-.46c.1-1.33.22-2.83.35-4.54h6.61l1-2.85,1,2.59h6.74c.09,1.77.16,3.12.23,4.72l3.47.54V80h21.12a3.26,3.26,0,0,1,.42.41,1,1,0,0,1,.2.52c0,6.8,0,13.6,0,20.83l4.58,1.59V82.47l-3.65-7.5,6-7.94-8.11-10.73c4.2-.18,8,1.84,10.94,6.09l1.5-2.69h3v1.78l-2.53,1c.83,1.72,1.62,3.36,2.44,5.08L1198,70.76c2.54,3.5-.38,8,2.1,11.63a3.17,3.17,0,0,1-1,4.2c2.12,2.42.86,5.33,1.09,8s0,5.19,0,7.92l2.14.63c.58-7.52.09-14.85.31-22,1.06-1.66,2-3.3,3.12-4.83s2.26-2.71,4-4.81c0,.11.07-.84.17-2h3.3c.12,1,.23,2,.37,3.14h11.63c.45-2.08,1-4.47,1.45-6.85s-1.08-4.82,1.17-6.75L1226,56.61l3.26-1,1.32,1.11-.87,1.89c.69,4.37,1.42,9,2.2,13.87h11.55c.1-1,.2-1.9.32-3.09H1247l.38,2.76c4.4.69,3.66,6,7,8.3v22.2h3.31c-.13.11.15,0,.15-.14q0-8.06,0-16.1l5.08-2.93,3.1,1.89c.27-1.52.45-2.56.67-3.81l2-.72c.11-.9.22-1.85.34-2.87l2.11-.81c.1-.92.21-1.87.33-3h3.08c.22-1.28.41-2.38.63-3.63h4.31v2.88l2.45.84v2.83l2.5.86c.06.85.13,1.8.21,3h3.58c-.43-5.42.07-10.63,3-15.45,2.87,8.83,1.4,17.77,1.72,26.59.12,3.4,0,6.82,0,10.52h5.72c1.14-4.11-.9-8.63,1.21-12.55-.41-2.24-.82-4.48-1.16-6.36l3.26-4.46,2.64,3.59c-.31,2.67-1.3,5.16-.68,7.12,1.35,4.21.88,8.46,1.09,12.78l2.15.13V58.73l3.46-.65c.53-2.4.6-5,1.71-7.12,1.21-2.28,1-4.49,1.07-6.79.06-2.53,0-5.06,0-8.36l3.73,2.49c-.47,1.3-1.56,2.73-1.24,3.67,1.85,5.34.82,11.4,4.08,16.22l1.9.44V77.16c2.17,1,2.69,0,2.28-2h37.21V62.73l2-2,1.29,2.7,6.34-4.1V53.08l2.1-2.09,3,3.93v4.24l5.41,3.72,2.63-1.48c.62,4.36.06,8.32.47,12.89A10.67,10.67,0,0,0,1387,72.9c1.51-1.72,2.92-3.53,4.74-5.77,3.52,4.26,8,6.69,10.87,11.24V96l3.77,2.52c-1.68,3-1.7,3,.5,5.57h13.25a2.64,2.64,0,0,0,.41-.36,1,1,0,0,0,.22-.51c0-7.2,0-14.4,0-22.21L1435,83.4v-3l37.37,5.88v3.09l8.74,2q-.73,5.85-1.57,12.45h3.61V74.31l5-5.09h7.59l8-6.06v37h4.89V63.46c1.66-.29,1.89,1.25,2.76,1.73a21,21,0,0,1,2.37,1.55c1,.7,1.84,1.46,2.94,2.34h8.22c1,2.06,1.76,4.55,5.51,3.35v14c0,4.42-.48,8.91.14,13.24s-3.79,8.6.64,13.27c.23-1.86.4-3.25.63-5.07h8.1c.07-1.18.12-2,.17-2.66l-4.85-6.32v-6.1l4.18-4.3h6.83l3.06,1.51a4.55,4.55,0,0,0,.39.78c2,2.84.91,6.08,1.24,9.09l-3.54,3.55v4.14h10.45v-3.81c-1.57-2.21-3.23-4.52-4.75-6.63.67-2.26,1.21-4,1.79-6,2.87-3.24,6.89-2.65,11.29-2.57l3.77,5c1.14,5-1.22,8.42-4.53,11.13v2.87h11.9c0-.89.08-1.67.13-2.57l-4.67-4.14v-8.3l4-4c3.12.15,6.62-.73,10.08,1.72,2,2.76,1.38,6.31,1.32,9.78l-4.73,4.72v2.41c2.52,2,4.6-.19,7.07-.88V95.92h21.1l2.07-2.51h13V79.72l9.35,7.36h4.13l11.42-4.83.68,1.8-13.65,7c3,2.46,5.25-.25,7.7-.31a51.38,51.38,0,0,0,7.33-1.13,23.92,23.92,0,0,1,8.3-.42l-2.46.69v5.59h14.32V42.7c5.09-.32,10.07.76,14.46-2.07,0-.29,0-.69-.09-1.5h-10.56c-.07-1-.11-1.51-.16-2.29h17.81c-.09,2.39.82,4.56,3.82,5.14v64.24l4.85.51V263.66Z"/><path class="cls-5" d="M1012.28,72.83s-4.92-.85-15.73-6.21-22.66,2.4-30.45.76-15-2.13-21.39.84-11,2-16.79,1.19c-6-.81-9,2.12-19,3.42Z"/><path class="cls-5" d="M1014.57,49.05a100.53,100.53,0,0,1-29.21-8c-14.71-6.59-24.08-1.74-31.49,2.35-10.21,5.64-19.14,2.76-29,3.13a94.82,94.82,0,0,0-18.33,2.51Z"/></g></g></svg>