<svg xmlns="http://www.w3.org/2000/svg" xmlns:xlink="http://www.w3.org/1999/xlink" viewBox="0 0 1188 300"><defs><style>.cls-1,.cls-6{fill:none;}.cls-2{clip-path:url(#clip-path);}.cls-3{fill:#8571f1;}.cls-14,.cls-4{fill:#3d2142;}.cls-10,.cls-11,.cls-13,.cls-16,.cls-17,.cls-18,.cls-19,.cls-20,.cls-21,.cls-22,.cls-4,.cls-5,.cls-6,.cls-7,.cls-8,.cls-9{stroke:#3d2142;}.cls-10,.cls-11,.cls-12,.cls-13,.cls-16,.cls-17,.cls-18,.cls-19,.cls-21,.cls-22,.cls-4,.cls-5,.cls-6,.cls-7,.cls-8,.cls-9{stroke-linecap:round;stroke-linejoin:round;}.cls-10,.cls-11,.cls-12,.cls-13,.cls-19,.cls-20,.cls-21,.cls-22,.cls-4,.cls-5,.cls-6,.cls-7,.cls-8,.cls-9{stroke-width:1.5px;}.cls-17,.cls-5{fill:#fff;}.cls-7{fill:#37cca2;}.cls-8{fill:#f2a6f5;}.cls-18,.cls-9{fill:#7fcefc;}.cls-10{fill:#f6cdaf;}.cls-11{fill:#7f3e98;}.cls-12{fill:#6a539b;stroke:#000;}.cls-13{fill:#f96484;}.cls-15{opacity:0.2;fill:url(#linear-gradient);}.cls-16,.cls-19{fill:#f2748a;}.cls-16,.cls-17,.cls-18{stroke-width:1.64px;}.cls-20{stroke-miterlimit:10;}.cls-21{fill:#f596c0;}.cls-22{fill:#fed16c;}.cls-23{clip-path:url(#clip-path-2);}</style><clipPath id="clip-path"><rect class="cls-1" width="1188" height="300"/></clipPath><linearGradient id="linear-gradient" x1="684.38" y1="42.93" x2="715.93" y2="42.93" gradientUnits="userSpaceOnUse"><stop offset="0" stop-color="#fff"/><stop offset="1" stop-color="#fff" stop-opacity="0"/></linearGradient><clipPath id="clip-path-2"><rect class="cls-1" x="1351.52" width="983" height="300"/></clipPath></defs><g id="Layer_1" data-name="Layer 1"><g class="cls-2"><rect class="cls-3" x="-212.85" y="-172.45" width="1575.82" height="588.61"/><path class="cls-4" d="M1051,44.48H887.4A2.45,2.45,0,0,0,885,46.93V105.2a2.45,2.45,0,0,0,2.45,2.45H906l21.06,21.06V107.65H1051a2.45,2.45,0,0,0,2.45-2.45V46.93A2.45,2.45,0,0,0,1051,44.48Z"/><path class="cls-5" d="M1046.4,98.18a2.45,2.45,0,0,1-2.45,2.45H920v21.06L899,100.63h-18.6a2.45,2.45,0,0,1-2.45-2.45V39.91a2.45,2.45,0,0,1,2.45-2.45H1044a2.45,2.45,0,0,1,2.45,2.45Z"/><line class="cls-6" x1="891.97" y1="51.5" x2="936.99" y2="51.5"/><line class="cls-6" x1="1018.32" y1="65.53" x2="1025.34" y2="65.53"/><line class="cls-6" x1="986.16" y1="65.53" x2="1011.3" y2="65.53"/><line class="cls-6" x1="925.76" y1="65.53" x2="979.14" y2="65.53"/><line class="cls-6" x1="891.97" y1="65.53" x2="918.74" y2="65.53"/><line class="cls-6" x1="1006.92" y1="72.55" x2="1032.36" y2="72.55"/><line class="cls-6" x1="971.67" y1="72.55" x2="999.9" y2="72.55"/><line class="cls-6" x1="929.55" y1="72.55" x2="964.8" y2="72.55"/><line class="cls-6" x1="891.97" y1="72.55" x2="922.53" y2="72.55"/><line class="cls-6" x1="984.55" y1="79.57" x2="1024.31" y2="79.57"/><line class="cls-6" x1="941.1" y1="79.57" x2="977.53" y2="79.57"/><line class="cls-6" x1="891.97" y1="79.57" x2="934.08" y2="79.57"/><line class="cls-6" x1="1008.68" y1="86.59" x2="1029.72" y2="86.59"/><line class="cls-6" x1="927.14" y1="86.59" x2="1001.66" y2="86.59"/><line class="cls-6" x1="891.97" y1="86.59" x2="920.12" y2="86.59"/><circle class="cls-7" cx="1046.4" cy="37.46" r="10.63"/><line class="cls-7" x1="1046.4" y1="32.13" x2="1046.4" y2="42.79"/><line class="cls-7" x1="1051.73" y1="37.46" x2="1041.07" y2="37.46"/><path class="cls-4" d="M846.58,98.88V149a6.8,6.8,0,0,1-6.8,6.8h-9.13l-15.92,15.93V155.78H757.82A6.79,6.79,0,0,1,751,149V98.88a6.79,6.79,0,0,1,6.79-6.8h82A6.8,6.8,0,0,1,846.58,98.88Z"/><path class="cls-5" d="M843.31,95.61v50.1a6.8,6.8,0,0,1-6.8,6.8h-9.13l-15.92,15.93V152.51H754.55a6.79,6.79,0,0,1-6.79-6.8V95.61a6.79,6.79,0,0,1,6.79-6.8h82A6.8,6.8,0,0,1,843.31,95.61Z"/><path class="cls-8" d="M838.48,102.55a1.13,1.13,0,0,0-.17-.24L827.45,91.22a6.56,6.56,0,0,1,2.29-10.79,6.08,6.08,0,0,1,6.59,1.37c.69.63,1.32,1.33,2,2a1.38,1.38,0,0,1,.17.25l1-.94c.57-.56,1.1-1.17,1.72-1.67a6.35,6.35,0,0,1,10.19,3.62,6.26,6.26,0,0,1-1.67,6.08c-3.66,3.78-7.37,7.52-11.06,11.27A1.14,1.14,0,0,1,838.48,102.55Z"/><line class="cls-6" x1="755.88" y1="96.77" x2="772.94" y2="96.77"/><line class="cls-6" x1="816.13" y1="110.42" x2="830.49" y2="110.42"/><line class="cls-6" x1="793.18" y1="110.42" x2="809.44" y2="110.42"/><line class="cls-6" x1="755.88" y1="110.42" x2="786.49" y2="110.42"/><line class="cls-6" x1="779.73" y1="117.25" x2="817.2" y2="117.25"/><line class="cls-6" x1="755.88" y1="117.25" x2="773.04" y2="117.25"/><line class="cls-6" x1="802.43" y1="124.07" x2="821.44" y2="124.07"/><line class="cls-6" x1="785.2" y1="124.07" x2="795.74" y2="124.07"/><line class="cls-6" x1="755.88" y1="124.07" x2="778.51" y2="124.07"/><line class="cls-6" x1="793.81" y1="130.9" x2="817.2" y2="130.9"/><line class="cls-6" x1="768.88" y1="130.9" x2="787.12" y2="130.9"/><line class="cls-6" x1="755.88" y1="130.9" x2="762.18" y2="130.9"/><line class="cls-6" x1="785.29" y1="137.72" x2="825.04" y2="137.72"/><line class="cls-6" x1="755.88" y1="137.72" x2="778.6" y2="137.72"/><line class="cls-6" x1="777.09" y1="144.55" x2="786.49" y2="144.55"/><line class="cls-6" x1="755.88" y1="144.55" x2="770.4" y2="144.55"/><path class="cls-9" d="M563.5,131.35a46.64,46.64,0,0,1,93.28,0"/><rect class="cls-10" x="535.9" y="165.06" width="148.47" height="79.6"/><path class="cls-11" d="M609.06,187.3h4.44a14.18,14.18,0,0,1,14.18,14.18v43.18a0,0,0,0,1,0,0h-32.8a0,0,0,0,1,0,0V201.47A14.18,14.18,0,0,1,609.06,187.3Z"/><path class="cls-12" d="M563.86,178h3a9.65,9.65,0,0,1,9.65,9.65v44.08a0,0,0,0,1,0,0H554.2a0,0,0,0,1,0,0V187.65A9.65,9.65,0,0,1,563.86,178Z"/><path class="cls-11" d="M655.27,178h3a9.65,9.65,0,0,1,9.65,9.65v44.08a0,0,0,0,1,0,0H645.61a0,0,0,0,1,0,0V187.65a9.65,9.65,0,0,1,9.65-9.65Z"/><path class="cls-13" d="M716.09,39.9s6.24-9-1.66-14.23-14.31-13.5-14.31-16.54c0,3-6.41,11.31-14.31,16.54s-1.66,14.23-1.66,14.23Z"/><rect class="cls-10" x="684.42" y="39.9" width="31.5" height="204.76"/><rect class="cls-7" x="679.37" y="71.1" width="41.61" height="13.34"/><rect class="cls-7" x="679.37" y="115.64" width="41.61" height="13.34"/><rect class="cls-7" x="557.66" y="131.35" width="104.95" height="13.34"/><rect class="cls-9" x="563.5" y="144.69" width="93.28" height="20.2"/><line class="cls-6" x1="610.14" y1="84.71" x2="610.14" y2="66.85"/><polygon class="cls-14" points="656.78 144.69 563.5 152.63 563.5 144.69 656.78 144.69"/><polygon class="cls-14" points="684.38 165.06 535.9 171.5 535.9 165.06 684.38 165.06"/><polygon class="cls-14" points="715.93 128.98 684.38 128.98 684.38 135.05 715.93 128.98"/><polygon class="cls-14" points="715.93 84.75 684.38 84.75 684.38 90.82 715.93 84.75"/><polygon class="cls-15" points="715.93 39.9 684.38 39.9 684.38 45.97 715.93 39.9"/><line class="cls-6" x1="412.39" y1="217.39" x2="513.6" y2="217.39"/><line class="cls-6" x1="449.9" y1="217.39" x2="449.9" y2="38.79"/><path class="cls-16" d="M374.78,64.62c25-9.55,50.08,10.19,75.12.64V50c-25,9.54-50.08-10.19-75.12-.65Z"/><path class="cls-17" d="M374.78,79.85c25-9.55,50.08,10.18,75.12.64V65.26c-25,9.55-50.08-10.19-75.12-.64Z"/><path class="cls-18" d="M374.78,95.07c25-9.54,50.08,10.19,75.12.65V80.49c-25,9.54-50.08-10.19-75.12-.64Z"/><rect class="cls-9" x="490.08" y="229.61" width="102.7" height="29.86"/><polygon class="cls-14" points="592.79 229.61 490.08 237.01 490.08 229.61 592.79 229.61"/><polygon class="cls-19" points="570.92 89.8 541.43 65.37 511.95 89.8 498.37 122.38 584.5 122.38 570.92 89.8"/><polygon class="cls-8" points="575.94 122.38 506.93 122.38 483.85 229.61 599.02 229.61 575.94 122.38"/><polygon class="cls-14" points="575.94 122.38 506.93 122.38 505 131.35 575.94 122.38"/><rect class="cls-11" x="530.8" y="221.46" width="21.26" height="38.01"/><rect class="cls-11" x="530.8" y="180.07" width="21.26" height="23.07"/><rect class="cls-11" x="530.8" y="140.02" width="21.26" height="23.07"/><circle class="cls-20" cx="541.32" cy="100.6" r="8.99"/><circle class="cls-8" cx="541.32" cy="98.45" r="8.99"/><line class="cls-21" x1="541.02" y1="97.86" x2="610.81" y2="207.4"/><rect class="cls-10" x="528.65" y="162.55" width="94.16" height="23.45" transform="translate(413.37 -404.93) rotate(57.5)"/><rect class="cls-10" x="459.84" y="10.9" width="94.16" height="23.45" transform="translate(760.21 462.31) rotate(-122.5)"/><line class="cls-21" x1="541.52" y1="98.76" x2="513.41" y2="54.64"/><line class="cls-21" x1="541.02" y1="97.86" x2="431.48" y2="167.65"/><polygon class="cls-10" points="498.91 97.67 419.49 148.26 431.49 167.65 510.45 117.34 498.91 97.67"/><rect class="cls-10" x="570.07" y="52.32" width="94.16" height="23.45" transform="translate(62.24 341.63) rotate(-32.5)"/><line class="cls-21" x1="541.02" y1="98.65" x2="585.14" y2="70.54"/><line class="cls-22" x1="516.32" y1="259.47" x2="438.5" y2="259.47"/><path class="cls-6" d="M492.94,280.8c6.37,0,6.37,5.43,12.74,5.43s6.36-5.43,12.73-5.43,6.37,5.43,12.74,5.43,6.37-5.43,12.74-5.43,6.36,5.43,12.73,5.43,6.37-5.43,12.74-5.43,6.37,5.43,12.74,5.43,6.37-5.43,12.74-5.43,6.36,5.43,12.73,5.43,6.37-5.43,12.74-5.43"/><polygon class="cls-19" points="452.3 178.2 460.83 170.56 469.21 178.19 460.83 184.76 452.3 178.2"/><path class="cls-19" d="M476.65,173.22s4.3,25.85-15.16,25.85S445,173.22,445,173.22l15.85,11.54Z"/><line class="cls-21" x1="461.49" y1="199.07" x2="461.49" y2="259.47"/><path class="cls-7" d="M461.49,222.4s1.93-11.63,15.92-12.3C477.41,210.1,477.64,224,461.49,222.4Z"/><path class="cls-7" d="M445.57,224.42s1.93,11.62,15.92,12.3C461.49,236.72,461.72,222.81,445.57,224.42Z"/><circle class="cls-6" cx="643.19" cy="303.59" r="18.75"/><circle class="cls-6" cx="714.39" cy="303.59" r="18.75"/><path class="cls-6" d="M643.19,303.59l14.2-44.31a7.73,7.73,0,0,1,7.34-5.35H671"/><polygon class="cls-6" points="654.01 269.93 698.1 269.93 714.39 303.59 683.28 303.59 654.01 269.93"/><line class="cls-6" x1="683.28" y1="303.59" x2="700.95" y2="263.45"/><line class="cls-6" x1="689.96" y1="261.4" x2="707.72" y2="261.4"/><polygon class="cls-19" points="411.03 198.9 419.56 191.26 427.93 198.89 419.56 205.46 411.03 198.9"/><path class="cls-19" d="M435.38,193.92s4.29,25.85-15.16,25.85-16.52-25.85-16.52-25.85l15.86,11.54Z"/><line class="cls-21" x1="420.22" y1="219.77" x2="420.22" y2="280.17"/><path class="cls-7" d="M420.22,243.09s1.92-11.62,15.92-12.3C436.14,230.79,436.37,244.71,420.22,243.09Z"/><path class="cls-7" d="M404.3,245.12s1.92,11.62,15.92,12.3C420.22,257.42,420.44,243.51,404.3,245.12Z"/><polygon class="cls-19" points="735.17 183.22 743.69 175.58 752.07 183.21 743.69 189.78 735.17 183.22"/><path class="cls-19" d="M759.51,178.24s4.3,25.84-15.15,25.84-16.52-25.84-16.52-25.84l15.85,11.54Z"/><line class="cls-21" x1="744.36" y1="204.08" x2="744.36" y2="267.2"/><path class="cls-7" d="M744.36,227.41s1.92-11.62,15.92-12.3C760.28,215.11,760.5,229,744.36,227.41Z"/><path class="cls-7" d="M728.44,229.44s1.92,11.62,15.92,12.3C744.36,241.74,744.58,227.83,728.44,229.44Z"/><line class="cls-22" x1="477.35" y1="280.84" x2="368.48" y2="280.84"/><line class="cls-6" x1="717.54" y1="267.24" x2="783.21" y2="267.24"/><path class="cls-4" d="M439.22,119.06a2.45,2.45,0,0,0-2.45-2.45H315.32a2.45,2.45,0,0,0-2.45,2.45v58.28a2.45,2.45,0,0,0,2.45,2.45H436.77a2.45,2.45,0,0,0,2.45-2.45V158.73l21.06-21.06H439.22Z"/><path class="cls-5" d="M453.26,130.65,432.2,151.71v18.61a2.45,2.45,0,0,1-2.45,2.45H308.3a2.45,2.45,0,0,1-2.45-2.45V112a2.45,2.45,0,0,1,2.45-2.45H429.75A2.45,2.45,0,0,1,432.2,112v18.61Z"/><line class="cls-6" x1="319.89" y1="123.63" x2="362" y2="123.63"/><line class="cls-6" x1="404.12" y1="137.67" x2="411.14" y2="137.67"/><line class="cls-6" x1="371.96" y1="137.67" x2="397.1" y2="137.67"/><line class="cls-6" x1="319.89" y1="137.67" x2="364.94" y2="137.67"/><line class="cls-6" x1="392.73" y1="144.69" x2="418.16" y2="144.69"/><line class="cls-6" x1="357.47" y1="144.69" x2="385.71" y2="144.69"/><line class="cls-6" x1="319.89" y1="144.69" x2="350.45" y2="144.69"/><line class="cls-6" x1="370.35" y1="151.71" x2="410.11" y2="151.71"/><line class="cls-6" x1="319.89" y1="151.71" x2="363.33" y2="151.71"/><line class="cls-6" x1="394.49" y1="158.73" x2="415.52" y2="158.73"/><line class="cls-6" x1="355.06" y1="158.73" x2="387.47" y2="158.73"/><line class="cls-6" x1="319.89" y1="158.73" x2="348.04" y2="158.73"/><circle class="cls-4" cx="245.16" cy="80.41" r="23.86"/><circle class="cls-10" cx="241.89" cy="77.14" r="23.86"/><path class="cls-14" d="M229.93,83.2a18.11,18.11,0,0,0,2.53,2,18.44,18.44,0,0,0,2.77,1.57,14.07,14.07,0,0,0,6.05,1.34,7.21,7.21,0,0,0,1.54-.1,6.56,6.56,0,0,0,1.53-.28c.5-.14,1-.26,1.51-.41s1-.43,1.45-.63c.24-.11.49-.2.72-.32l.68-.41,1.38-.83c.88-.61,1.71-1.3,2.61-1.93l0,0a.29.29,0,0,1,.4.07.3.3,0,0,1,0,.36c-.78.79-1.57,1.59-2.4,2.34l-1.37,1-.69.49c-.24.16-.5.27-.75.41-.51.26-1,.52-1.54.77s-1.09.35-1.64.53a8,8,0,0,1-1.7.34,7.68,7.68,0,0,1-1.73.13,13.56,13.56,0,0,1-6.62-1.7,16.61,16.61,0,0,1-5.17-4.32.3.3,0,0,1,0-.4.3.3,0,0,1,.37,0Z"/><path class="cls-4" d="M230.76,76.28s-.83-7.47,3.67-7.52S238,76.28,238,76.28s-1.14-3.44-3.6-3.44S230.76,76.28,230.76,76.28Z"/><path class="cls-4" d="M245,76.28s-.83-7.47,3.68-7.52,3.55,7.52,3.55,7.52-1.15-3.44-3.6-3.44S245,76.28,245,76.28Z"/><path class="cls-19" d="M304.24,125.74a3.33,3.33,0,0,1,.24-.34L319.55,110a9.11,9.11,0,0,0-3.17-15,8.43,8.43,0,0,0-9.14,1.9c-1,.88-1.84,1.85-2.75,2.78a2.7,2.7,0,0,0-.25.34l-1.34-1.3a30.76,30.76,0,0,0-2.39-2.32,8.81,8.81,0,0,0-14.14,5,8.7,8.7,0,0,0,2.31,8.43c5.09,5.24,10.23,10.44,15.35,15.65Z"/><path class="cls-8" d="M322.32,86.82a1.66,1.66,0,0,1,.24-.18l13.59-7.46a6.56,6.56,0,0,0,.94-11,6.09,6.09,0,0,0-6.7-.6c-.84.41-1.65.89-2.47,1.34a2.23,2.23,0,0,0-.24.19L327,68c-.39-.7-.72-1.44-1.17-2.1a6.34,6.34,0,0,0-10.79.52,6.24,6.24,0,0,0-.16,6.29c2.41,4.68,4.87,9.33,7.31,14C322.23,86.68,322.26,86.71,322.32,86.82Z"/><path class="cls-8" d="M157.8,134.07a1.66,1.66,0,0,1,.24-.18l13.59-7.46a6.55,6.55,0,0,0,.94-11,6.09,6.09,0,0,0-6.7-.6c-.84.41-1.65.89-2.47,1.35a1.37,1.37,0,0,0-.24.18l-.65-1.18c-.39-.7-.71-1.44-1.16-2.09a6.35,6.35,0,0,0-10.8.51,6.26,6.26,0,0,0-.16,6.29c2.41,4.68,4.87,9.33,7.31,14Z"/><path class="cls-19" d="M303.27,61.28a1,1,0,0,1,.06-.2l4.52-9.74a4.54,4.54,0,0,0-4-6.51,4.21,4.21,0,0,0-4,2.42c-.31.57-.56,1.17-.83,1.76a1.52,1.52,0,0,0-.06.2l-.85-.39c-.5-.23-1-.51-1.51-.69a4.4,4.4,0,0,0-5.81,4.71,4.34,4.34,0,0,0,2.49,3.58c3.27,1.62,6.55,3.21,9.82,4.81Z"/><path class="cls-19" d="M1071.39,72.79a1,1,0,0,1,.06-.2q2.27-4.87,4.52-9.74a4.54,4.54,0,0,0-4-6.51,4.23,4.23,0,0,0-4,2.41c-.3.58-.56,1.18-.83,1.77a1.17,1.17,0,0,0-.06.2l-.84-.39c-.51-.23-1-.51-1.51-.69a4.39,4.39,0,0,0-5.81,4.71,4.32,4.32,0,0,0,2.49,3.58c3.26,1.62,6.54,3.2,9.81,4.8Z"/><circle class="cls-4" cx="349.24" cy="211.49" r="17.54"/><circle class="cls-10" cx="346.84" cy="209.09" r="17.54"/><path class="cls-14" d="M338.1,213.49A16.39,16.39,0,0,0,342,216a10.31,10.31,0,0,0,4.37.95,9.55,9.55,0,0,0,2.21-.27c.36-.1.73-.18,1.09-.29s.7-.31,1.05-.45a5,5,0,0,0,1-.52l1-.58c.66-.42,1.28-.92,2-1.36l0,0a.28.28,0,0,1,.39.09.29.29,0,0,1,0,.34c-.55.61-1.13,1.2-1.73,1.78l-1,.75a5.62,5.62,0,0,1-1.06.68,9.92,9.92,0,0,1-9.89.06,11.82,11.82,0,0,1-3.77-3.29.28.28,0,0,1,.06-.4.27.27,0,0,1,.35,0Z"/><path class="cls-4" d="M338.65,208.45s-.61-5.49,2.7-5.53,2.62,5.53,2.62,5.53-.85-2.53-2.65-2.53S338.65,208.45,338.65,208.45Z"/><path class="cls-4" d="M349.1,208.45s-.61-5.49,2.7-5.53,2.61,5.53,2.61,5.53-.84-2.53-2.65-2.53S349.1,208.45,349.1,208.45Z"/><path class="cls-4" d="M246.68,28.12H168.17a1.51,1.51,0,0,0-1.5,1.51v29a1.5,1.5,0,0,0,1.5,1.5h11.4l12.91,12.9V60.15h54.2a1.5,1.5,0,0,0,1.5-1.5v-29A1.51,1.51,0,0,0,246.68,28.12Z"/><path class="cls-5" d="M243.88,54.35a1.5,1.5,0,0,1-1.5,1.5h-54.2v12.9l-12.91-12.9h-11.4a1.5,1.5,0,0,1-1.5-1.5v-29a1.51,1.51,0,0,1,1.5-1.51h78.51a1.51,1.51,0,0,1,1.5,1.51Z"/><path class="cls-14" d="M178.39,43.81h-4.27L173.45,46h-3.73l4.83-13.3H178L182.78,46h-3.73Zm-.93-3L176.27,37h0L175,40.82Z"/><path class="cls-14" d="M182.92,41.38a4.69,4.69,0,0,1,5-4.78,5,5,0,0,1,4,1.89l-2.22,1.9a2.12,2.12,0,0,0-1.7-.83,1.69,1.69,0,0,0-1.75,1.79,1.73,1.73,0,0,0,1.78,1.83,2.09,2.09,0,0,0,1.66-.75l2.28,2a5.41,5.41,0,0,1-4.27,1.73A4.62,4.62,0,0,1,182.92,41.38Z"/><path class="cls-14" d="M193.36,43.08V39.44h-1V36.79h1V33.91l3.34-.34v3.22h2v2.65h-2v2.92c0,.43.05.93.6.93a1.86,1.86,0,0,0,.68-.14l.81,2.33a4.81,4.81,0,0,1-2.68.67C194.55,46.15,193.36,45.18,193.36,43.08Z"/><path class="cls-14" d="M209.08,36.79V46h-3.36V45h0a3.13,3.13,0,0,1-2.5,1.17c-1.87,0-3.24-1-3.24-4V36.79h3.33v4.56c0,1.31.35,1.85,1.2,1.85s1.24-.55,1.24-1.8V36.79Z"/><path class="cls-14" d="M219.57,42.19h-6a1.72,1.72,0,0,0,1.9,1.32,2.8,2.8,0,0,0,2.11-1l1.73,1.9a5.33,5.33,0,0,1-4.19,1.75A4.78,4.78,0,1,1,215,36.6a4.51,4.51,0,0,1,4.62,4.71A5.15,5.15,0,0,1,219.57,42.19Zm-6-1.81h2.85A1.38,1.38,0,0,0,215,39.15,1.43,1.43,0,0,0,213.56,40.38Z"/><path class="cls-14" d="M229.77,42.19h-6a1.71,1.71,0,0,0,1.9,1.32,2.82,2.82,0,0,0,2.11-1l1.73,1.9a5.34,5.34,0,0,1-4.2,1.75,4.78,4.78,0,1,1-.05-9.55,4.5,4.5,0,0,1,4.61,4.71A4.31,4.31,0,0,1,229.77,42.19Zm-6-1.81h2.85a1.4,1.4,0,0,0-1.39-1.23A1.42,1.42,0,0,0,223.77,40.38Z"/><path class="cls-14" d="M231.17,32.18h3.34V46h-3.34Z"/><path class="cls-4" d="M369.76,240.65H265.64a1.51,1.51,0,0,0-1.5,1.51v29a1.5,1.5,0,0,0,1.5,1.5H277l12.9,12.9v-12.9h79.82a1.5,1.5,0,0,0,1.5-1.5v-29A1.51,1.51,0,0,0,369.76,240.65Z"/><path class="cls-5" d="M367,266.88a1.5,1.5,0,0,1-1.5,1.5H285.64v12.9l-12.9-12.9h-11.4a1.51,1.51,0,0,1-1.51-1.5v-29a1.52,1.52,0,0,1,1.51-1.51H365.46a1.51,1.51,0,0,1,1.5,1.51Z"/><path class="cls-14" d="M268.29,245.19h3.61v13.3h-3.61Z"/><path class="cls-14" d="M283,252.94v5.55h-3.34v-4.74c0-1.3-.37-1.66-1.2-1.66s-1.34.55-1.34,1.8v4.6H273.8v-9.17h3.34v1h0a3.39,3.39,0,0,1,2.61-1.2C281.63,249.13,283,250,283,252.94Z"/><path class="cls-14" d="M285,255.61V252h-1v-2.65h1v-2.88l3.33-.34v3.22h2V252h-2v2.92c0,.43.06.93.6.93a1.86,1.86,0,0,0,.68-.14l.81,2.33a4.8,4.8,0,0,1-2.67.67C286.14,258.68,285,257.71,285,255.61Z"/><path class="cls-14" d="M300,254.73h-6a1.71,1.71,0,0,0,1.9,1.31,2.82,2.82,0,0,0,2.11-1l1.73,1.9a5.34,5.34,0,0,1-4.2,1.75,4.78,4.78,0,1,1-.05-9.55,4.5,4.5,0,0,1,4.61,4.71A5.37,5.37,0,0,1,300,254.73Zm-6-1.82h2.86a1.4,1.4,0,0,0-1.39-1.23A1.43,1.43,0,0,0,294,252.91Z"/><path class="cls-14" d="M307.31,249.13v3.58c-.27,0-.57,0-.7,0a1.69,1.69,0,0,0-1.9,1.8v4h-3.35v-9.17h3.35v1.26h0a3.11,3.11,0,0,1,2.56-1.45Z"/><path class="cls-14" d="M317.65,249.32v9.17h-3.17v-.86h0a2.8,2.8,0,0,1-2.36,1.05c-2.51,0-4.25-1.94-4.25-4.78s1.76-4.77,4.05-4.77a3.08,3.08,0,0,1,2.38,1.1h0v-.91Zm-3.21,4.59a1.63,1.63,0,1,0-3.23,0,1.63,1.63,0,1,0,3.23,0Z"/><path class="cls-14" d="M318.87,253.91a4.69,4.69,0,0,1,5-4.78,5,5,0,0,1,4,1.89l-2.22,1.9a2.12,2.12,0,0,0-1.7-.83,1.69,1.69,0,0,0-1.74,1.8,1.72,1.72,0,0,0,1.78,1.82,2.07,2.07,0,0,0,1.65-.75l2.28,2a5.41,5.41,0,0,1-4.27,1.73A4.62,4.62,0,0,1,318.87,253.91Z"/><path class="cls-14" d="M329.32,255.61V252h-1v-2.65h1v-2.88l3.33-.34v3.22h2V252h-2v2.92c0,.43.06.93.61.93a1.85,1.85,0,0,0,.67-.14l.81,2.33a4.8,4.8,0,0,1-2.67.67C330.5,258.68,329.32,257.71,329.32,255.61Z"/><path class="cls-14" d="M335.69,246.47a1.92,1.92,0,1,1,1.92,1.81A1.81,1.81,0,0,1,335.69,246.47Zm.25,2.85h3.33v9.17h-3.33Z"/><path class="cls-14" d="M349.89,254.73h-6a1.72,1.72,0,0,0,1.9,1.31,2.82,2.82,0,0,0,2.11-1l1.73,1.9a5.33,5.33,0,0,1-4.19,1.75,4.78,4.78,0,1,1-.06-9.55,4.64,4.64,0,0,1,4.52,5.6Zm-6-1.82h2.85a1.39,1.39,0,0,0-1.39-1.23A1.43,1.43,0,0,0,343.89,252.91Z"/><path class="cls-14" d="M351.45,252h-.83v-2.65h.83V248c0-2.38,1.29-3.5,3.15-3.5a4.44,4.44,0,0,1,2.55.75l-.58,2.26a2.59,2.59,0,0,0-1-.24c-.44,0-.79.15-.79.77v1.26h1.5V252h-1.5v6.52h-3.36Z"/><path class="cls-4" d="M123.4,87H25.27a1.51,1.51,0,0,0-1.5,1.51v47a1.5,1.5,0,0,0,1.5,1.51h11.4l12.9,12.9V137H123.4a1.5,1.5,0,0,0,1.5-1.51v-47A1.51,1.51,0,0,0,123.4,87Z"/><path class="cls-5" d="M120.6,131.22a1.5,1.5,0,0,1-1.51,1.51H45.27v12.9l-12.9-12.9H21a1.5,1.5,0,0,1-1.5-1.51v-47A1.51,1.51,0,0,1,21,82.71h98.12a1.51,1.51,0,0,1,1.51,1.51Z"/><path class="cls-14" d="M27.84,91.55h4.79c4.2,0,6.9,2.74,6.9,6.67s-2.53,6.63-6.84,6.63H27.84Zm4.62,10.14a3.3,3.3,0,0,0,3.34-3.47,3.26,3.26,0,0,0-3.1-3.5H31.3v7Z"/><path class="cls-14" d="M49.92,95.68v9.17H46.57v-1h0A3.13,3.13,0,0,1,44,105c-1.87,0-3.24-1-3.24-4V95.68h3.34v4.56c0,1.31.34,1.85,1.19,1.85s1.25-.55,1.25-1.8V95.68Z"/><path class="cls-14" d="M51.36,92.83a1.92,1.92,0,1,1,1.92,1.81A1.81,1.81,0,0,1,51.36,92.83Zm.25,2.85h3.33v9.17H51.61Z"/><path class="cls-14" d="M66.17,91.07v13.78H63V104h0A2.91,2.91,0,0,1,60.53,105c-2.51,0-4.26-1.94-4.26-4.78s1.77-4.77,4.06-4.77a3.23,3.23,0,0,1,2.46,1.11h0V91.07ZM63,100.27a1.7,1.7,0,0,0-1.69-1.84A1.85,1.85,0,1,0,63,100.27Z"/><path class="cls-14" d="M76.7,101.09h-6a1.72,1.72,0,0,0,1.9,1.31,2.82,2.82,0,0,0,2.11-1l1.73,1.9A5.33,5.33,0,0,1,72.24,105a4.78,4.78,0,1,1-.06-9.55,4.64,4.64,0,0,1,4.52,5.6Zm-6-1.82h2.85A1.39,1.39,0,0,0,72.16,98,1.43,1.43,0,0,0,70.7,99.27Z"/><path class="cls-14" d="M78.11,91.07h3.33v13.78H78.11Z"/><path class="cls-14" d="M83,92.83a1.92,1.92,0,1,1,1.92,1.81A1.81,1.81,0,0,1,83,92.83Zm.24,2.85H86.6v9.17H83.26Z"/><path class="cls-14" d="M86.39,108.4l.55-2.58a2.55,2.55,0,0,0,.77.14c.59,0,.64-.41.64-1.1V95.68h3.34v9.55c0,2.36-1,3.51-3,3.51A6.56,6.56,0,0,1,86.39,108.4Zm1.73-15.57A1.92,1.92,0,1,1,90,94.64,1.81,1.81,0,0,1,88.12,92.83Z"/><path class="cls-14" d="M97.38,101.73l-.69.8v2.32H93.34V91.07h3.35v7.09h0l2.12-2.48h3.84L99.6,99.19l3.17,5.66H99.09l-1.67-3.12Z"/><path class="cls-14" d="M111.83,101.09h-6a1.73,1.73,0,0,0,1.91,1.31,2.84,2.84,0,0,0,2.11-1l1.72,1.9a5.3,5.3,0,0,1-4.19,1.75,4.78,4.78,0,1,1-.06-9.55,4.51,4.51,0,0,1,4.62,4.71A5.37,5.37,0,0,1,111.83,101.09Zm-6-1.82h2.85A1.38,1.38,0,0,0,107.29,98,1.43,1.43,0,0,0,105.82,99.27Z"/><path class="cls-14" d="M27,121.79l1.52-2.07a3.61,3.61,0,0,0,2.29,1c.46,0,.68-.14.68-.37s-.12-.39-1.25-.72c-1.56-.44-2.91-1.24-2.91-3,0-2,1.61-3.08,3.52-3.08a5.72,5.72,0,0,1,3.58,1.17L32.89,117a2.94,2.94,0,0,0-1.93-.94c-.29,0-.58.11-.58.37s.22.35,1.14.64c2.08.67,3.09,1.27,3.09,3.06s-1.27,3-3.86,3A5.47,5.47,0,0,1,27,121.79Z"/><path class="cls-14" d="M36.19,120.09v-3.64h-1V113.8h1v-2.88l3.34-.35v3.23h2v2.65h-2v2.91c0,.43,0,.94.6.94a1.91,1.91,0,0,0,.68-.15l.81,2.33a4.83,4.83,0,0,1-2.68.68C37.38,123.16,36.19,122.19,36.19,120.09Z"/><path class="cls-14" d="M48.85,113.6v3.58c-.27,0-.56,0-.7,0a1.69,1.69,0,0,0-1.9,1.8v4H42.9V113.8h3.35v1.25h0a3.08,3.08,0,0,1,2.55-1.45Z"/><path class="cls-14" d="M58.88,113.8V123H55.53v-1h0A3.16,3.16,0,0,1,53,123.16c-1.88,0-3.25-1-3.25-4V113.8h3.34v4.56c0,1.31.35,1.84,1.19,1.84s1.25-.54,1.25-1.8v-4.6Z"/><path class="cls-14" d="M60.09,118.39a4.69,4.69,0,0,1,5-4.78,5,5,0,0,1,4,1.89l-2.22,1.89a2.14,2.14,0,0,0-1.7-.82,1.68,1.68,0,0,0-1.74,1.79,1.73,1.73,0,0,0,1.78,1.83,2.1,2.1,0,0,0,1.65-.75l2.28,2a5.42,5.42,0,0,1-4.27,1.74A4.63,4.63,0,0,1,60.09,118.39Z"/><path class="cls-14" d="M70.54,120.09v-3.64h-1V113.8h1v-2.88l3.33-.35v3.23h2v2.65h-2v2.91c0,.43.06.94.61.94a1.82,1.82,0,0,0,.67-.15l.82,2.33a4.85,4.85,0,0,1-2.68.68C71.73,123.16,70.54,122.19,70.54,120.09Z"/><path class="cls-14" d="M86.25,113.8V123H82.9v-1h0a3.16,3.16,0,0,1-2.49,1.17c-1.88,0-3.25-1-3.25-4V113.8h3.34v4.56c0,1.31.35,1.84,1.19,1.84s1.25-.54,1.25-1.8v-4.6Z"/><path class="cls-14" d="M96.86,113.8V123H93.51v-1h0a3.16,3.16,0,0,1-2.5,1.17c-1.87,0-3.24-1-3.24-4V113.8h3.34v4.56c0,1.31.34,1.84,1.19,1.84s1.25-.54,1.25-1.8v-4.6Z"/><path class="cls-14" d="M104.41,113.6v3.58c-.27,0-.56,0-.7,0a1.69,1.69,0,0,0-1.9,1.8v4H98.46V113.8h3.35v1.25h0a3.1,3.1,0,0,1,2.56-1.45Z"/><path class="cls-4" d="M972.5,243.13H860.75a1.5,1.5,0,0,0-1.5,1.5v29a1.5,1.5,0,0,0,1.5,1.5h11.4l12.9,12.9v-12.9H972.5a1.5,1.5,0,0,0,1.51-1.5v-29A1.51,1.51,0,0,0,972.5,243.13Z"/><path class="cls-5" d="M969.71,269.36a1.51,1.51,0,0,1-1.51,1.5H880.75v12.9l-12.9-12.9h-11.4a1.5,1.5,0,0,1-1.5-1.5v-29a1.5,1.5,0,0,1,1.5-1.5H968.2a1.51,1.51,0,0,1,1.51,1.5Z"/><path class="cls-14" d="M875.17,247.67,870.34,261h-3.13l-4.86-13.3h3.86l2.53,8.23h0l2.56-8.23Z"/><path class="cls-14" d="M883.5,257.2h-6a1.71,1.71,0,0,0,1.9,1.32,2.85,2.85,0,0,0,2.11-1l1.73,1.9a5.34,5.34,0,0,1-4.2,1.75,4.78,4.78,0,0,1,0-9.55,4.5,4.5,0,0,1,4.61,4.71A4.38,4.38,0,0,1,883.5,257.2Zm-6-1.81h2.85a1.4,1.4,0,0,0-1.39-1.23A1.42,1.42,0,0,0,877.5,255.39Z"/><path class="cls-14" d="M884.91,247.19h3.33V261h-3.33Z"/><path class="cls-14" d="M898.86,257.2h-6a1.72,1.72,0,0,0,1.9,1.32,2.85,2.85,0,0,0,2.11-1l1.73,1.9a5.33,5.33,0,0,1-4.19,1.75,4.78,4.78,0,1,1-.06-9.55,4.51,4.51,0,0,1,4.62,4.71A4.4,4.4,0,0,1,898.86,257.2Zm-6-1.81h2.85a1.39,1.39,0,0,0-1.39-1.23A1.43,1.43,0,0,0,892.86,255.39Z"/><path class="cls-14" d="M913.37,257.2h-6a1.73,1.73,0,0,0,1.91,1.32,2.87,2.87,0,0,0,2.11-1l1.72,1.9a5.31,5.31,0,0,1-4.19,1.75,4.78,4.78,0,1,1-.06-9.55,4.51,4.51,0,0,1,4.62,4.71A5.25,5.25,0,0,1,913.37,257.2Zm-6-1.81h2.85a1.38,1.38,0,0,0-1.38-1.23A1.43,1.43,0,0,0,907.36,255.39Z"/><path class="cls-14" d="M918.28,259h0l-1.29,2H913.4l3-4.74-3-4.43h3.72l1.06,1.95h0l1.08-1.95h3.7l-3,4.43,3,4.74h-3.57Z"/><path class="cls-14" d="M924.35,258.09v-3.64h-1V251.8h1v-2.88l3.34-.34v3.22h2v2.65h-2v2.92c0,.43.06.93.6.93a1.91,1.91,0,0,0,.68-.15l.81,2.33a4.71,4.71,0,0,1-2.67.68C925.54,261.16,924.35,260.19,924.35,258.09Z"/><path class="cls-14" d="M937,251.61v3.57h-.71a1.69,1.69,0,0,0-1.9,1.8v4h-3.34V251.8h3.34v1.25h0a3.09,3.09,0,0,1,2.56-1.44Z"/><path class="cls-14" d="M947.36,251.8V261h-3.17v-.86h0a2.83,2.83,0,0,1-2.36,1.05c-2.51,0-4.26-2-4.26-4.78s1.77-4.77,4.06-4.77a3.08,3.08,0,0,1,2.38,1.1h0v-.91Zm-3.21,4.59a1.63,1.63,0,1,0-1.61,1.85A1.69,1.69,0,0,0,944.15,256.39Z"/><path class="cls-14" d="M949.18,247.67h3.21L951,252.89h-2.39Z"/><path class="cls-14" d="M952.85,259.79l1.52-2.07a3.63,3.63,0,0,0,2.29,1c.46,0,.68-.14.68-.38s-.12-.38-1.25-.71c-1.56-.45-2.91-1.24-2.91-3,0-2,1.61-3.08,3.52-3.08a5.71,5.71,0,0,1,3.58,1.16L958.74,255a3,3,0,0,0-1.93-.94c-.3,0-.58.11-.58.38s.22.34,1.13.63c2.09.67,3.1,1.28,3.1,3.07s-1.27,3-3.86,3A5.47,5.47,0,0,1,952.85,259.79Z"/><path class="cls-4" d="M807,187.08h117.8a1.51,1.51,0,0,1,1.5,1.51v29a1.5,1.5,0,0,1-1.5,1.5h-11.4L900.51,232v-12.9H807a1.5,1.5,0,0,1-1.5-1.5v-29A1.51,1.51,0,0,1,807,187.08Z"/><path class="cls-5" d="M809.81,213.31a1.5,1.5,0,0,0,1.5,1.5h93.5v12.9l12.9-12.9h11.4a1.5,1.5,0,0,0,1.5-1.5v-29a1.51,1.51,0,0,0-1.5-1.51H811.31a1.51,1.51,0,0,0-1.5,1.51Z"/><path class="cls-14" d="M818,191.62h3.6v5.3h4v-5.3h3.6v13.3h-3.6v-4.84h-4v4.84H818Z"/><path class="cls-14" d="M840,201.15h-6a1.72,1.72,0,0,0,1.9,1.32,2.87,2.87,0,0,0,2.12-1l1.72,1.9a5.31,5.31,0,0,1-4.19,1.75,4.78,4.78,0,1,1-.06-9.55,4.51,4.51,0,0,1,4.62,4.71A5.15,5.15,0,0,1,840,201.15Zm-6-1.81h2.85a1.38,1.38,0,0,0-1.39-1.23A1.43,1.43,0,0,0,833.94,199.34Z"/><path class="cls-14" d="M841.35,191.14h3.34v13.78h-3.34Z"/><path class="cls-14" d="M855.91,191.14v13.78h-3.17v-.86h0a2.94,2.94,0,0,1-2.43,1.05c-2.51,0-4.26-1.94-4.26-4.78s1.77-4.77,4.06-4.77a3.23,3.23,0,0,1,2.46,1.11h0v-5.53Zm-3.21,9.2A1.7,1.7,0,0,0,851,198.5a1.85,1.85,0,1,0,1.69,1.84Z"/><path class="cls-14" d="M866.45,201.15h-6a1.72,1.72,0,0,0,1.9,1.32,2.87,2.87,0,0,0,2.12-1l1.72,1.9a5.31,5.31,0,0,1-4.19,1.75,4.78,4.78,0,1,1-.06-9.55,4.51,4.51,0,0,1,4.62,4.71A5.15,5.15,0,0,1,866.45,201.15Zm-6-1.81h2.85a1.38,1.38,0,0,0-1.39-1.23A1.43,1.43,0,0,0,860.44,199.34Z"/><path class="cls-14" d="M873.72,195.56v3.58c-.28,0-.57,0-.7,0a1.69,1.69,0,0,0-1.91,1.8v4h-3.34v-9.17h3.34V197h0a3.1,3.1,0,0,1,2.56-1.45Z"/><path class="cls-14" d="M883.46,201.15h-6a1.72,1.72,0,0,0,1.9,1.32,2.84,2.84,0,0,0,2.11-1l1.73,1.9a5.33,5.33,0,0,1-4.19,1.75,4.78,4.78,0,1,1-.06-9.55,4.51,4.51,0,0,1,4.62,4.71A5.15,5.15,0,0,1,883.46,201.15Zm-6-1.81h2.85a1.38,1.38,0,0,0-1.39-1.23A1.43,1.43,0,0,0,877.45,199.34Z"/><path class="cls-14" d="M889.44,202V198.4h-1v-2.65h1v-2.88l3.34-.34v3.22h2v2.65h-2v2.92c0,.43.05.93.6.93a1.71,1.71,0,0,0,.68-.15l.81,2.34a4.83,4.83,0,0,1-2.68.67C890.63,205.11,889.44,204.14,889.44,202Z"/><path class="cls-14" d="M905.12,195.75v9.17H902v-.86h0a2.83,2.83,0,0,1-2.36,1.05c-2.51,0-4.26-1.94-4.26-4.78s1.77-4.77,4.06-4.77a3.08,3.08,0,0,1,2.38,1.1h0v-.91Zm-3.21,4.59a1.63,1.63,0,1,0-3.23,0,1.63,1.63,0,1,0,3.23,0Z"/><path class="cls-14" d="M916.13,195.75v9.17H913v-.86h0a2.83,2.83,0,0,1-2.36,1.05c-2.51,0-4.26-1.94-4.26-4.78s1.77-4.77,4.06-4.77a3.08,3.08,0,0,1,2.38,1.1h0v-.91Zm-3.21,4.59a1.63,1.63,0,1,0-3.23,0,1.63,1.63,0,1,0,3.23,0Z"/><path class="cls-14" d="M917.82,191.14h3.34v13.78h-3.34Z"/><path class="cls-4" d="M183.14,149.67h98.18a1.5,1.5,0,0,1,1.5,1.5v29a1.5,1.5,0,0,1-1.5,1.5h-11.4L257,194.6V181.7H183.14a1.5,1.5,0,0,1-1.5-1.5v-29A1.5,1.5,0,0,1,183.14,149.67Z"/><path class="cls-5" d="M185.94,175.9a1.5,1.5,0,0,0,1.5,1.5h73.88v12.9l12.9-12.9h11.4a1.5,1.5,0,0,0,1.5-1.5v-29a1.5,1.5,0,0,0-1.5-1.5H187.44a1.5,1.5,0,0,0-1.5,1.5Z"/><path class="cls-14" d="M193.19,160.89a6.55,6.55,0,0,1,6.94-6.87,7.12,7.12,0,0,1,5.42,2.57l-2.61,2.23a3.91,3.91,0,0,0-2.81-1.37,3.42,3.42,0,0,0,0,6.82,3.79,3.79,0,0,0,2.81-1.35l2.61,2.24a7,7,0,0,1-5.42,2.54C196.42,167.7,193.19,165.32,193.19,160.89Z"/><path class="cls-14" d="M206.19,162.93a5,5,0,1,1,5,4.77A4.69,4.69,0,0,1,206.19,162.93Zm6.69,0a1.67,1.67,0,1,0-3.32,0,1.67,1.67,0,1,0,3.32,0Z"/><path class="cls-14" d="M232.23,162.14v5.37h-3.34V162.9c0-1-.22-1.79-1.1-1.79-.68,0-1.22.55-1.22,1.79v4.61h-3.34V162.9c0-1-.23-1.79-1.11-1.79s-1.27.55-1.27,1.79v4.61H217.5v-9.17h3.35v1h0a3.08,3.08,0,0,1,2.46-1.23,2.86,2.86,0,0,1,2.63,1.3h0a3.7,3.7,0,0,1,3-1.3C230.86,158.15,232.23,159.17,232.23,162.14Z"/><path class="cls-14" d="M243.71,162.92c0,2.83-1.75,4.78-4.26,4.78a2.9,2.9,0,0,1-2.28-1h0v4.5h-3.34V158.34h3.35v.92h0a3.18,3.18,0,0,1,2.46-1.11C241.94,158.15,243.71,160.1,243.71,162.92Zm-3.37,0a1.68,1.68,0,0,0-1.63-1.84,1.85,1.85,0,0,0,0,3.69A1.67,1.67,0,0,0,240.34,162.93Z"/><path class="cls-14" d="M245.05,153.73h3.33v13.78h-3.33Z"/><path class="cls-14" d="M259,163.74h-6a1.72,1.72,0,0,0,1.9,1.32,2.85,2.85,0,0,0,2.12-1l1.72,1.91a5.31,5.31,0,0,1-4.19,1.75,4.78,4.78,0,1,1-.06-9.55,4.51,4.51,0,0,1,4.62,4.71A5.25,5.25,0,0,1,259,163.74Zm-6-1.82h2.85a1.38,1.38,0,0,0-1.39-1.22A1.42,1.42,0,0,0,253,161.92Z"/><path class="cls-14" d="M269.21,163.74h-6a1.71,1.71,0,0,0,1.9,1.32,2.83,2.83,0,0,0,2.11-1l1.73,1.91a5.34,5.34,0,0,1-4.2,1.75,4.78,4.78,0,1,1-.05-9.55,4.5,4.5,0,0,1,4.61,4.71A4.38,4.38,0,0,1,269.21,163.74Zm-6-1.82h2.85a1.39,1.39,0,0,0-1.39-1.22A1.42,1.42,0,0,0,263.21,161.92Z"/><path class="cls-14" d="M270.9,164.63V161h-1v-2.65h1v-2.88l3.33-.35v3.23h2V161h-2v2.92c0,.43.06.93.61.93a1.82,1.82,0,0,0,.67-.15l.82,2.33a4.77,4.77,0,0,1-2.68.68C272.09,167.7,270.9,166.73,270.9,164.63Z"/><path class="cls-4" d="M1077.58,91.9h93.28a1.5,1.5,0,0,1,1.5,1.5v29a1.5,1.5,0,0,1-1.5,1.5h-11.4l-12.9,12.9v-12.9h-69a1.5,1.5,0,0,1-1.5-1.5v-29A1.5,1.5,0,0,1,1077.58,91.9Z"/><path class="cls-5" d="M1080.38,118.12a1.5,1.5,0,0,0,1.5,1.5h69v12.9l12.9-12.9h11.4a1.5,1.5,0,0,0,1.5-1.5v-29a1.51,1.51,0,0,0-1.5-1.51h-93.28a1.51,1.51,0,0,0-1.5,1.51Z"/><path class="cls-14" d="M1087.63,103.12a6.55,6.55,0,0,1,6.94-6.88,7.12,7.12,0,0,1,5.42,2.57l-2.61,2.23a4,4,0,0,0-2.81-1.37,3.42,3.42,0,0,0,0,6.83,3.8,3.8,0,0,0,2.81-1.36l2.61,2.24a7,7,0,0,1-5.42,2.54C1090.86,109.92,1087.63,107.55,1087.63,103.12Z"/><path class="cls-14" d="M1100.63,105.15a5,5,0,1,1,5,4.77A4.69,4.69,0,0,1,1100.63,105.15Zm6.69,0a1.67,1.67,0,1,0-3.32,0,1.67,1.67,0,1,0,3.32,0Z"/><path class="cls-14" d="M1126.67,104.37v5.36h-3.34v-4.6c0-1-.22-1.8-1.1-1.8-.68,0-1.22.55-1.22,1.8v4.6h-3.34v-4.6c0-1-.23-1.8-1.11-1.8-.73,0-1.27.55-1.27,1.8v4.6h-3.35v-9.17h3.35v1h0a3.08,3.08,0,0,1,2.46-1.24,2.88,2.88,0,0,1,2.63,1.3h0a3.7,3.7,0,0,1,3-1.3C1125.3,100.37,1126.67,101.4,1126.67,104.37Z"/><path class="cls-14" d="M1138.15,105.14c0,2.84-1.75,4.78-4.26,4.78a2.92,2.92,0,0,1-2.28-1h0v4.49h-3.34V100.56h3.35v.93h0a3.19,3.19,0,0,1,2.46-1.12C1136.38,100.37,1138.15,102.33,1138.15,105.14Zm-3.37,0a1.67,1.67,0,0,0-1.63-1.83,1.85,1.85,0,0,0,0,3.68A1.66,1.66,0,0,0,1134.78,105.15Z"/><path class="cls-14" d="M1148.8,100.56v9.17h-3.17v-.86h0a2.8,2.8,0,0,1-2.36,1c-2.51,0-4.25-1.94-4.25-4.78s1.76-4.77,4-4.77a3.08,3.08,0,0,1,2.38,1.1h0v-.91Zm-3.21,4.59a1.63,1.63,0,1,0-3.23,0,1.63,1.63,0,1,0,3.23,0Z"/><path class="cls-14" d="M1150,105.15a4.69,4.69,0,0,1,5-4.78,5,5,0,0,1,4,1.89l-2.22,1.9a2.12,2.12,0,0,0-1.7-.83,1.69,1.69,0,0,0-1.74,1.8,1.72,1.72,0,0,0,1.78,1.82,2.07,2.07,0,0,0,1.65-.75l2.28,2a5.41,5.41,0,0,1-4.27,1.73A4.62,4.62,0,0,1,1150,105.15Z"/><path class="cls-14" d="M1160.47,106.85v-3.63h-1v-2.66h1V97.69l3.33-.35v3.22h2v2.66h-2v2.91c0,.43.06.93.61.93a1.85,1.85,0,0,0,.67-.14l.81,2.33a4.8,4.8,0,0,1-2.67.67C1161.65,109.92,1160.47,109,1160.47,106.85Z"/><path class="cls-4" d="M102.61,208.52H235.67a1.52,1.52,0,0,1,1.51,1.51v29a1.51,1.51,0,0,1-1.51,1.5h-11.4l-12.9,12.9v-12.9H102.61a1.5,1.5,0,0,1-1.5-1.5V210A1.51,1.51,0,0,1,102.61,208.52Z"/><path class="cls-5" d="M105.41,234.75a1.5,1.5,0,0,0,1.5,1.5H215.67v12.9l12.9-12.9H240a1.51,1.51,0,0,0,1.51-1.5v-29a1.52,1.52,0,0,0-1.51-1.51H106.91a1.51,1.51,0,0,0-1.5,1.51Z"/><path class="cls-14" d="M113.06,213.06h8.84v3.17h-5.39v2h4.22v3.09h-4.22v1.87h5.78v3.16h-9.23Z"/><path class="cls-14" d="M123.93,219.85h-.83v-2.66h.83v-1.3c0-2.38,1.29-3.5,3.15-3.5a4.44,4.44,0,0,1,2.55.75l-.58,2.26a2.59,2.59,0,0,0-1-.24c-.44,0-.79.15-.79.77v1.26h1.5v2.66h-1.5v6.51h-3.36Z"/><path class="cls-14" d="M130.47,219.85h-.83v-2.66h.83v-1.3c0-2.38,1.29-3.5,3.15-3.5a4.47,4.47,0,0,1,2.55.75l-.58,2.26a2.59,2.59,0,0,0-1-.24c-.45,0-.79.15-.79.77v1.26h1.5v2.66h-1.5v6.51h-3.36Z"/><path class="cls-14" d="M145,222.6h-6a1.71,1.71,0,0,0,1.9,1.31,2.82,2.82,0,0,0,2.11-1l1.73,1.9a5.34,5.34,0,0,1-4.2,1.75,4.78,4.78,0,1,1,0-9.55,4.69,4.69,0,0,1,4.52,5.6Zm-6-1.82h2.86a1.4,1.4,0,0,0-1.39-1.23A1.43,1.43,0,0,0,139,220.78Z"/><path class="cls-14" d="M145.91,221.78a4.69,4.69,0,0,1,5-4.78,5,5,0,0,1,4,1.89l-2.22,1.9A2.12,2.12,0,0,0,151,220a1.69,1.69,0,0,0-1.75,1.8,1.72,1.72,0,0,0,1.78,1.82,2.09,2.09,0,0,0,1.66-.75l2.27,2a5.37,5.37,0,0,1-4.26,1.73A4.62,4.62,0,0,1,145.91,221.78Z"/><path class="cls-14" d="M156.35,223.48v-3.63h-1v-2.66h1v-2.87l3.34-.35v3.22h2v2.66h-2v2.91c0,.43.05.93.6.93a1.86,1.86,0,0,0,.68-.14l.81,2.33a4.83,4.83,0,0,1-2.68.67C157.54,226.55,156.35,225.59,156.35,223.48Z"/><path class="cls-14" d="M162.73,214.34a1.92,1.92,0,1,1,1.91,1.81A1.8,1.8,0,0,1,162.73,214.34Zm.24,2.85h3.34v9.17H163Z"/><path class="cls-14" d="M176.93,222.6h-6a1.71,1.71,0,0,0,1.9,1.31,2.82,2.82,0,0,0,2.11-1l1.73,1.9a5.34,5.34,0,0,1-4.2,1.75,4.78,4.78,0,1,1-.05-9.55,4.69,4.69,0,0,1,4.52,5.6Zm-6-1.82h2.85a1.4,1.4,0,0,0-1.39-1.23A1.42,1.42,0,0,0,170.93,220.78Z"/><path class="cls-14" d="M178.49,219.85h-.83v-2.66h.83v-1.3c0-2.38,1.29-3.5,3.14-3.5a4.41,4.41,0,0,1,2.55.75l-.57,2.26a2.59,2.59,0,0,0-1-.24c-.45,0-.8.15-.8.77v1.26h1.5v2.66h-1.5v6.51h-3.35Z"/><path class="cls-14" d="M189.09,212.58h3.33v13.78h-3.33Z"/><path class="cls-14" d="M203.05,222.6h-6a1.73,1.73,0,0,0,1.9,1.31,2.84,2.84,0,0,0,2.12-1l1.72,1.9a5.31,5.31,0,0,1-4.19,1.75,4.78,4.78,0,1,1-.06-9.55,4.51,4.51,0,0,1,4.62,4.71A5.37,5.37,0,0,1,203.05,222.6Zm-6-1.82h2.85a1.38,1.38,0,0,0-1.38-1.23A1.43,1.43,0,0,0,197,220.78Z"/><path class="cls-14" d="M210.32,217v3.58c-.27,0-.57,0-.7,0a1.69,1.69,0,0,0-1.91,1.8v4h-3.34v-9.17h3.34v1.26h0A3.1,3.1,0,0,1,210.3,217Z"/><path class="cls-14" d="M220.06,222.6h-6a1.72,1.72,0,0,0,1.9,1.31,2.8,2.8,0,0,0,2.11-1l1.73,1.9a5.31,5.31,0,0,1-4.19,1.75,4.78,4.78,0,1,1-.06-9.55,4.51,4.51,0,0,1,4.62,4.71A5.37,5.37,0,0,1,220.06,222.6Zm-6-1.82h2.85a1.38,1.38,0,0,0-1.39-1.23A1.43,1.43,0,0,0,214.05,220.78Z"/><path class="cls-14" d="M230.6,220.81v5.55h-3.34v-4.74c0-1.3-.37-1.66-1.2-1.66s-1.34.55-1.34,1.8v4.6h-3.34v-9.17h3.34v1h0a3.39,3.39,0,0,1,2.61-1.2C229.21,217,230.6,217.84,230.6,220.81Z"/><path class="cls-4" d="M947.87,152.34h149.95a1.51,1.51,0,0,1,1.51,1.5v48.64a1.51,1.51,0,0,1-1.51,1.5h-11.4l-12.9,12.91V204H947.87a1.51,1.51,0,0,1-1.51-1.5V153.84A1.51,1.51,0,0,1,947.87,152.34Z"/><path class="cls-5" d="M950.66,198.18a1.51,1.51,0,0,0,1.51,1.5h125.65v12.91l12.9-12.91h11.4a1.51,1.51,0,0,0,1.51-1.5V149.54a1.51,1.51,0,0,0-1.51-1.5H952.17a1.51,1.51,0,0,0-1.51,1.5Z"/><path class="cls-14" d="M957.5,168.24l2-2.48a4.47,4.47,0,0,0,3,1.47c.83,0,1.14-.44,1.14-.86s-.26-.8-1.68-1.28c-2-.67-4-1.66-4-4.38,0-2.25,1.88-4,4.43-4a6.93,6.93,0,0,1,4.71,1.78l-2,2.54a4.24,4.24,0,0,0-2.53-1.2c-.63,0-.93.31-.93.79s.28.8,1.64,1.32c2.35.91,4.12,1.48,4.12,4,0,3.33-2.78,4.41-5,4.41A6.91,6.91,0,0,1,957.5,168.24Z"/><path class="cls-14" d="M968.71,156.39h3.34v13.78h-3.34Z"/><path class="cls-14" d="M982.79,161v9.16h-3.35v-1h0a3.16,3.16,0,0,1-2.49,1.17c-1.88,0-3.25-1-3.25-4V161H977v4.56c0,1.31.34,1.84,1.19,1.84s1.25-.54,1.25-1.8V161Z"/><path class="cls-14" d="M984.23,158.16a1.92,1.92,0,1,1,1.92,1.81A1.81,1.81,0,0,1,984.23,158.16Zm.25,2.85h3.33v9.16h-3.33Z"/><path class="cls-14" d="M989.92,167.3v-3.64h-1V161h1v-2.88l3.34-.35V161h2v2.65h-2v2.91c0,.43,0,.94.6.94a1.82,1.82,0,0,0,.67-.15l.82,2.33a4.83,4.83,0,0,1-2.68.68C991.11,170.37,989.92,169.4,989.92,167.3Z"/><path class="cls-14" d="M1010.32,161v9.16h-3.17v-.86h0a2.82,2.82,0,0,1-2.36,1.06c-2.52,0-4.26-2-4.26-4.78s1.76-4.78,4.06-4.78a3.08,3.08,0,0,1,2.37,1.1h0V161Zm-3.2,4.59a1.63,1.63,0,1,0-3.24,0,1.63,1.63,0,1,0,3.24,0Z"/><path class="cls-14" d="M1021.33,161v9.16h-3.17v-.86h0a2.82,2.82,0,0,1-2.36,1.06c-2.52,0-4.26-2-4.26-4.78s1.76-4.78,4.06-4.78a3.08,3.08,0,0,1,2.37,1.1h0V161Zm-3.2,4.59a1.63,1.63,0,1,0-3.24,0,1.63,1.63,0,1,0,3.24,0Z"/><path class="cls-14" d="M1032.17,164.63v5.54h-3.34v-4.74c0-1.3-.37-1.65-1.2-1.65s-1.34.54-1.34,1.79v4.6H1023V161h3.34v1h0a3.42,3.42,0,0,1,2.61-1.2C1030.78,160.81,1032.17,161.66,1032.17,164.63Z"/><path class="cls-14" d="M1047.94,165.59c0,2.83-1.75,4.78-4.26,4.78a2.94,2.94,0,0,1-2.43-1.05h0v.85H1038V156.39h3.35v5.53h0a3.23,3.23,0,0,1,2.46-1.11C1046.17,160.81,1047.94,162.77,1047.94,165.59Zm-3.38,0a1.67,1.67,0,0,0-1.62-1.84,1.85,1.85,0,0,0,0,3.68A1.65,1.65,0,0,0,1044.56,165.6Z"/><path class="cls-14" d="M1049,158.16A1.92,1.92,0,1,1,1051,160,1.81,1.81,0,0,1,1049,158.16Zm.25,2.85h3.33v9.16h-3.33Z"/><path class="cls-14" d="M1052.4,173.72l.55-2.58a2.28,2.28,0,0,0,.77.14c.59,0,.64-.41.64-1.1V161h3.34v9.54c0,2.37-1,3.51-3,3.51A6.56,6.56,0,0,1,1052.4,173.72Zm1.73-15.56a1.92,1.92,0,1,1,1.92,1.81A1.81,1.81,0,0,1,1054.13,158.16Z"/><path class="cls-14" d="M1073.14,156.39v13.78H1070v-.85h0a3,3,0,0,1-2.43,1.05c-2.51,0-4.26-2-4.26-4.78s1.76-4.78,4.06-4.78a3.23,3.23,0,0,1,2.46,1.11h0v-5.53Zm-3.21,9.21a1.7,1.7,0,0,0-1.69-1.84,1.85,1.85,0,1,0,1.69,1.84Z"/><path class="cls-14" d="M1083.67,166.41h-6a1.71,1.71,0,0,0,1.9,1.31,2.82,2.82,0,0,0,2.11-1l1.73,1.9a5.34,5.34,0,0,1-4.2,1.76,4.78,4.78,0,0,1,0-9.56,4.69,4.69,0,0,1,4.52,5.6Zm-6-1.82h2.85a1.39,1.39,0,0,0-1.39-1.22A1.41,1.41,0,0,0,1077.67,164.59Z"/><path class="cls-14" d="M968.07,184.79c0,2.83-1.75,4.78-4.26,4.78a3,3,0,0,1-2.43-1h0v.86h-3.17V175.6h3.35v5.52h0A3.22,3.22,0,0,1,964,180C966.3,180,968.07,182,968.07,184.79Zm-3.37,0a1.68,1.68,0,0,0-1.63-1.84,1.85,1.85,0,0,0,0,3.69A1.67,1.67,0,0,0,964.7,184.8Z"/><path class="cls-14" d="M978.21,185.61h-6a1.71,1.71,0,0,0,1.9,1.32,2.83,2.83,0,0,0,2.11-1l1.73,1.9a5.34,5.34,0,0,1-4.2,1.76,4.78,4.78,0,1,1,0-9.55,4.5,4.5,0,0,1,4.61,4.71A4.38,4.38,0,0,1,978.21,185.61Zm-6-1.82h2.85a1.39,1.39,0,0,0-1.39-1.22A1.42,1.42,0,0,0,972.21,183.79Z"/><path class="cls-14" d="M979.61,175.6H983v13.78h-3.34Z"/><path class="cls-14" d="M993.57,185.61h-6a1.71,1.71,0,0,0,1.9,1.32,2.83,2.83,0,0,0,2.11-1l1.73,1.9a5.34,5.34,0,0,1-4.2,1.76,4.78,4.78,0,0,1-.05-9.55,4.5,4.5,0,0,1,4.61,4.71A4.38,4.38,0,0,1,993.57,185.61Zm-6-1.82h2.85a1.39,1.39,0,0,0-1.39-1.22A1.42,1.42,0,0,0,987.57,183.79Z"/><path class="cls-14" d="M1003.57,180.21l-3.5,9.17h-3l-3.51-9.17H997l1.54,5.2h0l1.49-5.2Z"/><path class="cls-14" d="M1004.3,177.36a1.92,1.92,0,1,1,1.92,1.81A1.81,1.81,0,0,1,1004.3,177.36Zm.25,2.85h3.34v9.17h-3.34Z"/><path class="cls-14" d="M1018.85,183.83v5.55h-3.35v-4.74c0-1.3-.36-1.66-1.2-1.66s-1.33.55-1.33,1.79v4.61h-3.34v-9.17H1013v1h0a3.37,3.37,0,0,1,2.6-1.2C1017.46,180,1018.85,180.86,1018.85,183.83Z"/><path class="cls-14" d="M1029.81,180.21V188c0,3.08-1.21,5.23-5.07,5.23a7.51,7.51,0,0,1-3.8-.84l.74-2.63a5.6,5.6,0,0,0,2.64.74c1.47,0,2.23-.67,2.23-1.48v-.83h0a3.11,3.11,0,0,1-2.42,1,4.17,4.17,0,0,1-4.1-4.48c0-2.74,1.71-4.69,3.93-4.69a3.28,3.28,0,0,1,2.51,1.09h0v-.9Zm-3.2,4.41a1.62,1.62,0,1,0-1.61,1.62A1.56,1.56,0,0,0,1026.61,184.62Z"/><path class="cls-14" d="M1030.75,188.2l1.52-2.07a3.63,3.63,0,0,0,2.29,1.05c.46,0,.68-.14.68-.38s-.12-.38-1.25-.71c-1.56-.45-2.91-1.24-2.91-3,0-2,1.61-3.08,3.52-3.08a5.71,5.71,0,0,1,3.58,1.16l-1.54,2.22a3,3,0,0,0-1.93-.94c-.29,0-.58.11-.58.37s.22.35,1.13.64c2.09.67,3.1,1.27,3.1,3.07s-1.27,3-3.86,3A5.47,5.47,0,0,1,1030.75,188.2Z"/><path class="cls-14" d="M1052.85,180.21l-3.08,9.17h-2.59l-1.36-5.17h0l-1.31,5.17h-2.65l-3.08-9.17h3.3l1.29,4.4h0l1.16-4.4h2.54l1.18,4.4h0l1.29-4.4Z"/><path class="cls-14" d="M1062.06,185.61h-6a1.72,1.72,0,0,0,1.9,1.32,2.83,2.83,0,0,0,2.11-1l1.73,1.9a5.33,5.33,0,0,1-4.19,1.76,4.78,4.78,0,1,1-.06-9.55,4.51,4.51,0,0,1,4.62,4.71A4.4,4.4,0,0,1,1062.06,185.61Zm-6-1.82h2.85a1.39,1.39,0,0,0-1.39-1.22A1.42,1.42,0,0,0,1056.06,183.79Z"/><path class="cls-14" d="M1069.34,180v3.57c-.28,0-.57,0-.71,0a1.69,1.69,0,0,0-1.9,1.8v4h-3.34v-9.17h3.34v1.25h0a3.09,3.09,0,0,1,2.56-1.44Z"/><path class="cls-14" d="M1079.07,185.61h-6a1.72,1.72,0,0,0,1.9,1.32,2.83,2.83,0,0,0,2.11-1l1.73,1.9a5.33,5.33,0,0,1-4.19,1.76,4.78,4.78,0,1,1-.06-9.55,4.51,4.51,0,0,1,4.62,4.71A4.4,4.4,0,0,1,1079.07,185.61Zm-6-1.82h2.85a1.39,1.39,0,0,0-1.39-1.22A1.42,1.42,0,0,0,1073.07,183.79Z"/><path class="cls-14" d="M1080.48,175.6h3.33v13.78h-3.33Z"/><path class="cls-14" d="M1095,175.6v13.78h-3.17v-.86h0a2.94,2.94,0,0,1-2.43,1c-2.51,0-4.26-1.95-4.26-4.78s1.77-4.77,4.06-4.77a3.22,3.22,0,0,1,2.46,1.1h0V175.6Zm-3.21,9.2a1.7,1.7,0,0,0-1.69-1.84,1.85,1.85,0,1,0,1.69,1.84Z"/><path class="cls-19" d="M126,90.94a1,1,0,0,1,.06-.2q2.27-4.87,4.52-9.74a4.54,4.54,0,0,0-4-6.51,4.23,4.23,0,0,0-4,2.41c-.3.58-.55,1.18-.83,1.77a1.17,1.17,0,0,0-.06.2l-.84-.39c-.5-.23-1-.51-1.51-.69a4.39,4.39,0,0,0-5.81,4.71A4.32,4.32,0,0,0,116,86.08c3.26,1.62,6.54,3.21,9.82,4.8C125.87,90.9,125.89,90.9,126,90.94Z"/><circle class="cls-4" cx="1125.17" cy="232.19" r="17.54"/><circle class="cls-10" cx="1122.76" cy="229.79" r="17.54"/><path class="cls-14" d="M1114,234.19a16.54,16.54,0,0,0,3.91,2.5,10.36,10.36,0,0,0,4.38.95,5.18,5.18,0,0,0,1.11-.07,4.63,4.63,0,0,0,1.1-.2c.36-.1.72-.18,1.09-.29s.69-.3,1.05-.45a5.16,5.16,0,0,0,1-.52l1-.58c.66-.42,1.27-.92,2-1.36l0,0a.29.29,0,0,1,.39.09.27.27,0,0,1,0,.34c-.55.61-1.13,1.2-1.74,1.78l-1,.75a5.39,5.39,0,0,1-1.07.68,9.9,9.9,0,0,1-9.88.06,11.84,11.84,0,0,1-3.78-3.29.3.3,0,0,1,.06-.4.29.29,0,0,1,.36,0Z"/><path class="cls-4" d="M1114.58,229.15s-.61-5.49,2.7-5.52,2.61,5.52,2.61,5.52-.84-2.53-2.65-2.53S1114.58,229.15,1114.58,229.15Z"/><path class="cls-4" d="M1125,229.15s-.62-5.49,2.69-5.52,2.62,5.52,2.62,5.52-.85-2.53-2.65-2.53S1125,229.15,1125,229.15Z"/></g><g class="cls-23"><rect class="cls-3" x="1028.19" y="-168.45" width="1575.82" height="588.61"/></g></g></svg>