<svg xmlns="http://www.w3.org/2000/svg" xmlns:xlink="http://www.w3.org/1999/xlink" viewBox="0 0 1500 300"><defs><style>.cls-1,.cls-6{fill:none;}.cls-2{clip-path:url(#clip-path);}.cls-3{fill:#8571f1;}.cls-14,.cls-4{fill:#3d2142;}.cls-10,.cls-11,.cls-13,.cls-16,.cls-17,.cls-18,.cls-19,.cls-20,.cls-21,.cls-22,.cls-4,.cls-5,.cls-6,.cls-7,.cls-8,.cls-9{stroke:#3d2142;}.cls-10,.cls-11,.cls-12,.cls-13,.cls-16,.cls-17,.cls-18,.cls-19,.cls-21,.cls-22,.cls-4,.cls-5,.cls-6,.cls-7,.cls-8,.cls-9{stroke-linecap:round;stroke-linejoin:round;}.cls-10,.cls-11,.cls-12,.cls-13,.cls-19,.cls-20,.cls-21,.cls-22,.cls-4,.cls-5,.cls-6,.cls-7,.cls-8,.cls-9{stroke-width:1.5px;}.cls-17,.cls-5{fill:#fff;}.cls-7{fill:#37cca2;}.cls-8{fill:#f2a6f5;}.cls-18,.cls-9{fill:#7fcefc;}.cls-10{fill:#f6cdaf;}.cls-11{fill:#7f3e98;}.cls-12{fill:#6a539b;stroke:#000;}.cls-13{fill:#f96484;}.cls-15{opacity:0.2;fill:url(#linear-gradient);}.cls-16,.cls-19{fill:#f2748a;}.cls-16,.cls-17,.cls-18{stroke-width:1.64px;}.cls-20{stroke-miterlimit:10;}.cls-21{fill:#f596c0;}.cls-22{fill:#fed16c;}</style><clipPath id="clip-path"><rect class="cls-1" x="-0.6" width="1500.6" height="300"/></clipPath><linearGradient id="linear-gradient" x1="866.99" y1="42.93" x2="898.54" y2="42.93" gradientUnits="userSpaceOnUse"><stop offset="0" stop-color="#fff"/><stop offset="1" stop-color="#fff" stop-opacity="0"/></linearGradient></defs><g id="Layer_1" data-name="Layer 1"><g class="cls-2"><rect class="cls-3" x="-38.21" y="-168.45" width="1575.82" height="588.61"/><path class="cls-4" d="M1233.58,44.48H1070a2.46,2.46,0,0,0-2.46,2.45V105.2a2.45,2.45,0,0,0,2.46,2.45h18.6l21.06,21.06V107.65h123.9a2.45,2.45,0,0,0,2.46-2.45V46.93A2.46,2.46,0,0,0,1233.58,44.48Z"/><path class="cls-5" d="M1229,98.18a2.45,2.45,0,0,1-2.46,2.45h-123.9v21.06l-21.06-21.06H1063a2.45,2.45,0,0,1-2.46-2.45V39.91a2.46,2.46,0,0,1,2.46-2.45h163.56a2.46,2.46,0,0,1,2.46,2.45Z"/><line class="cls-6" x1="1074.58" y1="51.5" x2="1119.61" y2="51.5"/><line class="cls-6" x1="1200.94" y1="65.53" x2="1207.96" y2="65.53"/><line class="cls-6" x1="1168.78" y1="65.53" x2="1193.92" y2="65.53"/><line class="cls-6" x1="1108.38" y1="65.53" x2="1161.76" y2="65.53"/><line class="cls-6" x1="1074.58" y1="65.53" x2="1101.36" y2="65.53"/><line class="cls-6" x1="1189.54" y1="72.55" x2="1214.98" y2="72.55"/><line class="cls-6" x1="1154.29" y1="72.55" x2="1182.52" y2="72.55"/><line class="cls-6" x1="1112.17" y1="72.55" x2="1147.42" y2="72.55"/><line class="cls-6" x1="1074.58" y1="72.55" x2="1105.15" y2="72.55"/><line class="cls-6" x1="1167.17" y1="79.57" x2="1206.93" y2="79.57"/><line class="cls-6" x1="1123.72" y1="79.57" x2="1160.15" y2="79.57"/><line class="cls-6" x1="1074.58" y1="79.57" x2="1116.7" y2="79.57"/><line class="cls-6" x1="1191.3" y1="86.59" x2="1212.34" y2="86.59"/><line class="cls-6" x1="1109.76" y1="86.59" x2="1184.28" y2="86.59"/><line class="cls-6" x1="1074.58" y1="86.59" x2="1102.74" y2="86.59"/><circle class="cls-7" cx="1229.02" cy="37.46" r="10.63"/><line class="cls-7" x1="1229.02" y1="32.13" x2="1229.02" y2="42.79"/><line class="cls-7" x1="1234.35" y1="37.46" x2="1223.69" y2="37.46"/><path class="cls-4" d="M1029.2,98.88V149a6.8,6.8,0,0,1-6.8,6.8h-9.13l-15.92,15.93V155.78H940.44a6.8,6.8,0,0,1-6.8-6.8V98.88a6.8,6.8,0,0,1,6.8-6.8h82A6.8,6.8,0,0,1,1029.2,98.88Z"/><path class="cls-5" d="M1025.93,95.61v50.1a6.8,6.8,0,0,1-6.8,6.8H1010l-15.93,15.93V152.51h-56.9a6.8,6.8,0,0,1-6.8-6.8V95.61a6.8,6.8,0,0,1,6.8-6.8h82A6.8,6.8,0,0,1,1025.93,95.61Z"/><path class="cls-8" d="M1021.1,102.55a1.66,1.66,0,0,0-.17-.24l-10.86-11.09a6.56,6.56,0,0,1,2.29-10.79,6.06,6.06,0,0,1,6.58,1.37c.7.63,1.33,1.33,2,2a1.44,1.44,0,0,1,.18.25l1-.94c.57-.56,1.1-1.17,1.72-1.67A6.35,6.35,0,0,1,1034,85.06a6.26,6.26,0,0,1-1.67,6.08c-3.67,3.78-7.37,7.52-11.06,11.27A1.14,1.14,0,0,1,1021.1,102.55Z"/><line class="cls-6" x1="938.49" y1="96.77" x2="955.55" y2="96.77"/><line class="cls-6" x1="998.75" y1="110.42" x2="1013.11" y2="110.42"/><line class="cls-6" x1="975.8" y1="110.42" x2="992.06" y2="110.42"/><line class="cls-6" x1="938.49" y1="110.42" x2="969.11" y2="110.42"/><line class="cls-6" x1="962.35" y1="117.25" x2="999.82" y2="117.25"/><line class="cls-6" x1="938.49" y1="117.25" x2="955.66" y2="117.25"/><line class="cls-6" x1="985.05" y1="124.07" x2="1004.06" y2="124.07"/><line class="cls-6" x1="967.82" y1="124.07" x2="978.35" y2="124.07"/><line class="cls-6" x1="938.49" y1="124.07" x2="961.12" y2="124.07"/><line class="cls-6" x1="976.43" y1="130.9" x2="999.82" y2="130.9"/><line class="cls-6" x1="951.49" y1="130.9" x2="969.74" y2="130.9"/><line class="cls-6" x1="938.49" y1="130.9" x2="944.8" y2="130.9"/><line class="cls-6" x1="967.91" y1="137.72" x2="1007.66" y2="137.72"/><line class="cls-6" x1="938.49" y1="137.72" x2="961.22" y2="137.72"/><line class="cls-6" x1="959.71" y1="144.55" x2="969.11" y2="144.55"/><line class="cls-6" x1="938.49" y1="144.55" x2="953.02" y2="144.55"/><path class="cls-9" d="M746.12,131.35a46.64,46.64,0,1,1,93.28,0"/><rect class="cls-10" x="718.52" y="165.06" width="148.47" height="79.6"/><path class="cls-11" d="M791.68,187.3h4.44a14.18,14.18,0,0,1,14.18,14.18v43.18a0,0,0,0,1,0,0H777.5a0,0,0,0,1,0,0V201.47a14.18,14.18,0,0,1,14.18-14.18Z"/><path class="cls-12" d="M746.47,178h3a9.65,9.65,0,0,1,9.65,9.65v44.08a0,0,0,0,1,0,0H736.82a0,0,0,0,1,0,0V187.65A9.65,9.65,0,0,1,746.47,178Z"/><path class="cls-11" d="M837.89,178h3a9.65,9.65,0,0,1,9.65,9.65v44.08a0,0,0,0,1,0,0H828.23a0,0,0,0,1,0,0V187.65A9.65,9.65,0,0,1,837.89,178Z"/><path class="cls-13" d="M898.71,39.9s6.24-9-1.67-14.23-14.31-13.5-14.31-16.54c0,3-6.4,11.31-14.3,16.54s-1.67,14.23-1.67,14.23Z"/><rect class="cls-10" x="867.04" y="39.9" width="31.5" height="204.76"/><rect class="cls-7" x="861.99" y="71.1" width="41.61" height="13.34"/><rect class="cls-7" x="861.99" y="115.64" width="41.61" height="13.34"/><rect class="cls-7" x="740.28" y="131.35" width="104.95" height="13.34"/><rect class="cls-9" x="746.12" y="144.69" width="93.28" height="20.2"/><line class="cls-6" x1="792.76" y1="84.71" x2="792.76" y2="66.85"/><polygon class="cls-14" points="839.4 144.69 746.12 152.63 746.12 144.69 839.4 144.69"/><polygon class="cls-14" points="866.99 165.06 718.52 171.5 718.52 165.06 866.99 165.06"/><polygon class="cls-14" points="898.54 128.98 866.99 128.98 866.99 135.05 898.54 128.98"/><polygon class="cls-14" points="898.54 84.75 866.99 84.75 866.99 90.82 898.54 84.75"/><polygon class="cls-15" points="898.54 39.9 866.99 39.9 866.99 45.97 898.54 39.9"/><line class="cls-6" x1="595.01" y1="217.39" x2="696.22" y2="217.39"/><line class="cls-6" x1="632.52" y1="217.39" x2="632.52" y2="38.79"/><path class="cls-16" d="M557.4,64.62c25-9.55,50.08,10.19,75.12.64V50c-25,9.54-50.08-10.19-75.12-.65Z"/><path class="cls-17" d="M557.4,79.85c25-9.55,50.08,10.18,75.12.64V65.26c-25,9.55-50.08-10.19-75.12-.64Z"/><path class="cls-18" d="M557.4,95.07c25-9.54,50.08,10.19,75.12.65V80.49c-25,9.54-50.08-10.19-75.12-.64Z"/><rect class="cls-9" x="672.7" y="229.61" width="102.7" height="29.86"/><polygon class="cls-14" points="775.4 229.61 672.7 237.01 672.7 229.61 775.4 229.61"/><polygon class="cls-19" points="753.54 89.8 724.05 65.37 694.56 89.8 680.99 122.38 767.11 122.38 753.54 89.8"/><polygon class="cls-8" points="758.56 122.38 689.54 122.38 666.47 229.61 781.64 229.61 758.56 122.38"/><polygon class="cls-14" points="758.56 122.38 689.54 122.38 687.61 131.35 758.56 122.38"/><rect class="cls-11" x="713.42" y="221.46" width="21.26" height="38.01"/><rect class="cls-11" x="713.42" y="180.07" width="21.26" height="23.07"/><rect class="cls-11" x="713.42" y="140.02" width="21.26" height="23.07"/><circle class="cls-20" cx="723.94" cy="100.6" r="8.99"/><circle class="cls-8" cx="723.94" cy="98.45" r="8.99"/><line class="cls-21" x1="723.64" y1="97.86" x2="793.42" y2="207.4"/><rect class="cls-10" x="711.27" y="162.55" width="94.16" height="23.45" transform="translate(497.86 -558.94) rotate(57.5)"/><rect class="cls-10" x="642.46" y="10.9" width="94.16" height="23.45" transform="translate(1040.95 616.33) rotate(-122.5)"/><line class="cls-21" x1="724.14" y1="98.76" x2="696.03" y2="54.64"/><line class="cls-21" x1="723.64" y1="97.86" x2="614.1" y2="167.65"/><polygon class="cls-10" points="681.52 97.67 602.11 148.26 614.1 167.65 693.07 117.34 681.52 97.67"/><rect class="cls-10" x="752.69" y="52.32" width="94.16" height="23.45" transform="translate(90.84 439.75) rotate(-32.5)"/><line class="cls-21" x1="723.64" y1="98.65" x2="767.76" y2="70.54"/><line class="cls-22" x1="698.94" y1="259.47" x2="621.12" y2="259.47"/><path class="cls-6" d="M675.56,280.8c6.37,0,6.37,5.43,12.73,5.43s6.37-5.43,12.74-5.43,6.37,5.43,12.74,5.43,6.36-5.43,12.73-5.43,6.37,5.43,12.74,5.43,6.37-5.43,12.74-5.43,6.37,5.43,12.73,5.43,6.37-5.43,12.74-5.43,6.37,5.43,12.74,5.43,6.37-5.43,12.74-5.43"/><polygon class="cls-19" points="634.92 178.2 643.45 170.56 651.82 178.19 643.45 184.76 634.92 178.2"/><path class="cls-19" d="M659.27,173.22s4.3,25.85-15.16,25.85-16.51-25.85-16.51-25.85l15.85,11.54Z"/><line class="cls-21" x1="644.11" y1="199.07" x2="644.11" y2="259.47"/><path class="cls-7" d="M644.11,222.4S646,210.77,660,210.1C660,210.1,660.26,224,644.11,222.4Z"/><path class="cls-7" d="M628.19,224.42s1.92,11.62,15.92,12.3C644.11,236.72,644.34,222.81,628.19,224.42Z"/><circle class="cls-6" cx="825.8" cy="303.59" r="18.75"/><circle class="cls-6" cx="897.01" cy="303.59" r="18.75"/><path class="cls-6" d="M825.8,303.59,840,259.28a7.72,7.72,0,0,1,7.34-5.35h6.26"/><polygon class="cls-6" points="836.63 269.93 880.72 269.93 897.01 303.59 865.9 303.59 836.63 269.93"/><line class="cls-6" x1="865.9" y1="303.59" x2="883.57" y2="263.45"/><line class="cls-6" x1="872.58" y1="261.4" x2="890.33" y2="261.4"/><polygon class="cls-19" points="593.65 198.9 602.17 191.26 610.55 198.89 602.17 205.46 593.65 198.9"/><path class="cls-19" d="M618,193.92s4.3,25.85-15.15,25.85-16.52-25.85-16.52-25.85l15.85,11.54Z"/><line class="cls-21" x1="602.84" y1="219.77" x2="602.84" y2="280.17"/><path class="cls-7" d="M602.84,243.09s1.92-11.62,15.92-12.3C618.76,230.79,619,244.71,602.84,243.09Z"/><path class="cls-7" d="M586.92,245.12s1.92,11.62,15.92,12.3C602.84,257.42,603.06,243.51,586.92,245.12Z"/><polygon class="cls-19" points="917.78 183.22 926.31 175.58 934.69 183.21 926.31 189.78 917.78 183.22"/><path class="cls-19" d="M942.13,178.24s4.3,25.84-15.15,25.84-16.52-25.84-16.52-25.84l15.85,11.54Z"/><line class="cls-21" x1="926.98" y1="204.08" x2="926.98" y2="267.2"/><path class="cls-7" d="M927,227.41s1.92-11.62,15.92-12.3C942.9,215.11,943.12,229,927,227.41Z"/><path class="cls-7" d="M911.06,229.44S913,241.06,927,241.74C927,241.74,927.2,227.83,911.06,229.44Z"/><line class="cls-22" x1="659.97" y1="280.84" x2="551.09" y2="280.84"/><line class="cls-6" x1="900.16" y1="267.24" x2="965.83" y2="267.24"/><path class="cls-4" d="M621.84,119.06a2.45,2.45,0,0,0-2.45-2.45H497.94a2.46,2.46,0,0,0-2.46,2.45v58.28a2.46,2.46,0,0,0,2.46,2.45H619.39a2.45,2.45,0,0,0,2.45-2.45V158.73l21.06-21.06H621.84Z"/><path class="cls-5" d="M635.88,130.65l-21.06,21.06v18.61a2.45,2.45,0,0,1-2.45,2.45H490.92a2.46,2.46,0,0,1-2.46-2.45V112a2.46,2.46,0,0,1,2.46-2.45H612.37a2.45,2.45,0,0,1,2.45,2.45v18.61Z"/><line class="cls-6" x1="502.5" y1="123.63" x2="544.62" y2="123.63"/><line class="cls-6" x1="586.74" y1="137.67" x2="593.76" y2="137.67"/><line class="cls-6" x1="554.58" y1="137.67" x2="579.72" y2="137.67"/><line class="cls-6" x1="502.5" y1="137.67" x2="547.56" y2="137.67"/><line class="cls-6" x1="575.34" y1="144.69" x2="600.78" y2="144.69"/><line class="cls-6" x1="540.09" y1="144.69" x2="568.32" y2="144.69"/><line class="cls-6" x1="502.5" y1="144.69" x2="533.07" y2="144.69"/><line class="cls-6" x1="552.97" y1="151.71" x2="592.73" y2="151.71"/><line class="cls-6" x1="502.5" y1="151.71" x2="545.95" y2="151.71"/><line class="cls-6" x1="577.1" y1="158.73" x2="598.14" y2="158.73"/><line class="cls-6" x1="537.68" y1="158.73" x2="570.08" y2="158.73"/><line class="cls-6" x1="502.5" y1="158.73" x2="530.66" y2="158.73"/><circle class="cls-4" cx="427.77" cy="80.41" r="23.86"/><circle class="cls-10" cx="424.5" cy="77.14" r="23.86"/><path class="cls-14" d="M412.54,83.2a22.08,22.08,0,0,0,5.3,3.55,14.15,14.15,0,0,0,6.06,1.34,7.21,7.21,0,0,0,1.54-.1,6.65,6.65,0,0,0,1.53-.28c.5-.14,1-.26,1.51-.41s1-.43,1.44-.63c.24-.11.5-.2.73-.32l.68-.41,1.38-.83c.88-.61,1.71-1.3,2.61-1.93l0,0a.28.28,0,0,1,.36.43c-.77.79-1.56,1.59-2.39,2.34l-1.37,1-.7.49c-.23.16-.5.27-.75.41-.5.26-1,.52-1.53.77s-1.09.35-1.64.53a8,8,0,0,1-1.7.34,7.72,7.72,0,0,1-1.73.13,13.56,13.56,0,0,1-6.62-1.7,16.61,16.61,0,0,1-5.17-4.32.3.3,0,0,1,.05-.4.3.3,0,0,1,.37,0Z"/><path class="cls-4" d="M413.38,76.28s-.83-7.47,3.67-7.52,3.55,7.52,3.55,7.52-1.14-3.44-3.6-3.44S413.38,76.28,413.38,76.28Z"/><path class="cls-4" d="M427.58,76.28s-.83-7.47,3.67-7.52,3.56,7.52,3.56,7.52-1.15-3.44-3.61-3.44S427.58,76.28,427.58,76.28Z"/><path class="cls-19" d="M486.86,125.74a3.33,3.33,0,0,1,.24-.34L502.17,110A9.11,9.11,0,0,0,499,95a8.43,8.43,0,0,0-9.14,1.9c-1,.88-1.84,1.85-2.75,2.78a2.7,2.7,0,0,0-.25.34l-1.34-1.3a32.65,32.65,0,0,0-2.39-2.32,8.81,8.81,0,0,0-14.14,5,8.67,8.67,0,0,0,2.31,8.43c5.09,5.24,10.23,10.44,15.35,15.65Z"/><path class="cls-8" d="M504.94,86.82a1.62,1.62,0,0,1,.23-.18l13.6-7.46a6.56,6.56,0,0,0,.94-11,6.09,6.09,0,0,0-6.7-.6c-.85.41-1.65.89-2.47,1.34a2.35,2.35,0,0,0-.25.19c-.24-.44-.44-.81-.65-1.18a23.81,23.81,0,0,0-1.16-2.1,6.34,6.34,0,0,0-10.79.52,6.24,6.24,0,0,0-.16,6.29c2.41,4.68,4.87,9.33,7.31,14A1,1,0,0,0,504.94,86.82Z"/><path class="cls-8" d="M340.42,134.07a1.66,1.66,0,0,1,.24-.18l13.59-7.46a6.56,6.56,0,0,0,.94-11,6.09,6.09,0,0,0-6.7-.6c-.84.41-1.65.89-2.47,1.35a1.37,1.37,0,0,0-.24.18l-.65-1.18c-.39-.7-.72-1.44-1.17-2.09a6.34,6.34,0,0,0-10.79.51,6.24,6.24,0,0,0-.16,6.29c2.41,4.68,4.87,9.33,7.31,14C340.33,133.93,340.36,134,340.42,134.07Z"/><path class="cls-19" d="M485.89,61.28c0-.08,0-.14.05-.2l4.53-9.74a4.54,4.54,0,0,0-4-6.51,4.2,4.2,0,0,0-4,2.42c-.31.57-.56,1.17-.83,1.76a1.52,1.52,0,0,0-.06.2l-.85-.39c-.5-.23-1-.51-1.51-.69a4.39,4.39,0,0,0-5.81,4.71,4.34,4.34,0,0,0,2.49,3.58c3.27,1.62,6.55,3.21,9.82,4.81Z"/><path class="cls-19" d="M1254,72.79a1,1,0,0,1,.06-.2c1.5-3.25,3-6.49,4.52-9.74a4.54,4.54,0,0,0-4-6.51,4.22,4.22,0,0,0-4,2.41c-.31.58-.56,1.18-.83,1.77a1.17,1.17,0,0,0-.06.2l-.85-.39c-.5-.23-1-.51-1.5-.69a4.39,4.39,0,0,0-5.81,4.71,4.31,4.31,0,0,0,2.49,3.58c3.26,1.62,6.54,3.2,9.81,4.8Z"/><circle class="cls-4" cx="531.86" cy="211.49" r="17.54"/><circle class="cls-10" cx="529.45" cy="209.09" r="17.54"/><path class="cls-14" d="M520.72,213.49a16.39,16.39,0,0,0,3.92,2.5,10.28,10.28,0,0,0,4.37.95,9.55,9.55,0,0,0,2.21-.27c.36-.1.73-.18,1.09-.29s.69-.31,1.05-.45a5.24,5.24,0,0,0,1-.52l1-.58c.66-.42,1.27-.92,2-1.36l0,0a.28.28,0,0,1,.39.09.29.29,0,0,1,0,.34c-.55.61-1.13,1.2-1.73,1.78l-1,.75a5.39,5.39,0,0,1-1.07.68,9.9,9.9,0,0,1-9.88.06,11.82,11.82,0,0,1-3.77-3.29.28.28,0,0,1,.06-.4.27.27,0,0,1,.35,0Z"/><path class="cls-4" d="M521.27,208.45s-.61-5.49,2.7-5.53,2.61,5.53,2.61,5.53-.84-2.53-2.64-2.53S521.27,208.45,521.27,208.45Z"/><path class="cls-4" d="M531.72,208.45s-.61-5.49,2.7-5.53,2.61,5.53,2.61,5.53-.84-2.53-2.65-2.53S531.72,208.45,531.72,208.45Z"/><path class="cls-4" d="M429.3,28.12H350.79a1.51,1.51,0,0,0-1.5,1.51v29a1.5,1.5,0,0,0,1.5,1.5h11.4l12.9,12.9V60.15H429.3a1.5,1.5,0,0,0,1.5-1.5v-29A1.51,1.51,0,0,0,429.3,28.12Z"/><path class="cls-5" d="M426.5,54.35a1.5,1.5,0,0,1-1.5,1.5H370.79v12.9l-12.9-12.9h-11.4a1.5,1.5,0,0,1-1.5-1.5v-29a1.51,1.51,0,0,1,1.5-1.51H425a1.51,1.51,0,0,1,1.5,1.51Z"/><path class="cls-14" d="M361,43.81h-4.27L356.07,46h-3.73l4.83-13.3h3.4L365.39,46h-3.72Zm-.94-3L358.89,37h0l-1.19,3.82Z"/><path class="cls-14" d="M365.54,41.38a4.69,4.69,0,0,1,5-4.78,5,5,0,0,1,4,1.89l-2.22,1.9a2.15,2.15,0,0,0-1.7-.83,1.69,1.69,0,0,0-1.75,1.79,1.72,1.72,0,0,0,1.78,1.83,2.1,2.1,0,0,0,1.66-.75l2.27,2a5.4,5.4,0,0,1-4.27,1.73A4.61,4.61,0,0,1,365.54,41.38Z"/><path class="cls-14" d="M376,43.08V39.44h-1V36.79h1V33.91l3.34-.34v3.22h2v2.65h-2v2.92c0,.43.05.93.6.93a2.09,2.09,0,0,0,.68-.14l.81,2.33a4.83,4.83,0,0,1-2.68.67C377.17,46.15,376,45.18,376,43.08Z"/><path class="cls-14" d="M391.69,36.79V46h-3.35V45h0a3.11,3.11,0,0,1-2.49,1.17c-1.87,0-3.25-1-3.25-4V36.79h3.34v4.56c0,1.31.35,1.85,1.2,1.85.7,0,1.24-.55,1.24-1.8V36.79Z"/><path class="cls-14" d="M402.18,42.2h-6a1.71,1.71,0,0,0,1.9,1.31,2.82,2.82,0,0,0,2.11-1l1.73,1.9a5.34,5.34,0,0,1-4.2,1.75,4.78,4.78,0,0,1,0-9.55,4.69,4.69,0,0,1,4.52,5.6Zm-6-1.82H399a1.39,1.39,0,0,0-1.39-1.23A1.42,1.42,0,0,0,396.18,40.38Z"/><path class="cls-14" d="M412.39,42.2h-6a1.73,1.73,0,0,0,1.91,1.31,2.82,2.82,0,0,0,2.11-1l1.72,1.9a5.3,5.3,0,0,1-4.19,1.75,4.78,4.78,0,1,1-.06-9.55,4.5,4.5,0,0,1,4.62,4.71A5.37,5.37,0,0,1,412.39,42.2Zm-6-1.82h2.85a1.38,1.38,0,0,0-1.38-1.23A1.43,1.43,0,0,0,406.38,40.38Z"/><path class="cls-14" d="M413.79,32.18h3.34V46h-3.34Z"/><path class="cls-4" d="M552.38,240.65H448.26a1.52,1.52,0,0,0-1.51,1.51v29a1.51,1.51,0,0,0,1.51,1.5h11.4l12.9,12.9v-12.9h79.82a1.5,1.5,0,0,0,1.5-1.5v-29A1.51,1.51,0,0,0,552.38,240.65Z"/><path class="cls-5" d="M549.58,266.88a1.5,1.5,0,0,1-1.5,1.5H468.26v12.9l-12.91-12.9H444a1.51,1.51,0,0,1-1.51-1.5v-29a1.52,1.52,0,0,1,1.51-1.51H548.08a1.51,1.51,0,0,1,1.5,1.51Z"/><path class="cls-14" d="M450.91,245.19h3.61v13.3h-3.61Z"/><path class="cls-14" d="M465.64,252.94v5.55h-3.35v-4.74c0-1.3-.36-1.66-1.19-1.66s-1.34.55-1.34,1.79v4.61h-3.34v-9.17h3.34v1h0a3.37,3.37,0,0,1,2.6-1.2C464.25,249.13,465.64,250,465.64,252.94Z"/><path class="cls-14" d="M467.57,255.61V252h-1v-2.65h1v-2.88l3.34-.34v3.22h2V252h-2v2.92c0,.43,0,.93.6.93a1.86,1.86,0,0,0,.68-.14L473,258a4.81,4.81,0,0,1-2.68.67C468.76,258.68,467.57,257.71,467.57,255.61Z"/><path class="cls-14" d="M482.66,254.73h-6a1.73,1.73,0,0,0,1.9,1.31,2.84,2.84,0,0,0,2.12-1l1.72,1.9a5.31,5.31,0,0,1-4.19,1.75,4.78,4.78,0,1,1-.06-9.55,4.51,4.51,0,0,1,4.62,4.71A5.37,5.37,0,0,1,482.66,254.73Zm-6-1.82h2.85a1.38,1.38,0,0,0-1.39-1.23A1.43,1.43,0,0,0,476.65,252.91Z"/><path class="cls-14" d="M489.93,249.13v3.58c-.28,0-.57,0-.7,0a1.69,1.69,0,0,0-1.91,1.8v4H484v-9.17h3.34v1.26h0a3.1,3.1,0,0,1,2.56-1.45Z"/><path class="cls-14" d="M500.27,249.32v9.17H497.1v-.86h0a2.8,2.8,0,0,1-2.36,1.05c-2.51,0-4.26-1.94-4.26-4.78s1.77-4.77,4.06-4.77a3.08,3.08,0,0,1,2.38,1.1h0v-.91Zm-3.21,4.59a1.63,1.63,0,1,0-3.24,0,1.63,1.63,0,1,0,3.24,0Z"/><path class="cls-14" d="M501.49,253.91a4.69,4.69,0,0,1,5-4.78,5,5,0,0,1,4,1.89l-2.22,1.9a2.12,2.12,0,0,0-1.7-.83,1.69,1.69,0,0,0-1.75,1.79,1.73,1.73,0,0,0,1.79,1.83,2.08,2.08,0,0,0,1.65-.75l2.28,2a5.41,5.41,0,0,1-4.27,1.73A4.62,4.62,0,0,1,501.49,253.91Z"/><path class="cls-14" d="M511.93,255.61V252h-1v-2.65h1v-2.88l3.34-.34v3.22h2V252h-2v2.92c0,.43.05.93.6.93a1.86,1.86,0,0,0,.68-.14l.81,2.33a4.81,4.81,0,0,1-2.68.67C513.12,258.68,511.93,257.71,511.93,255.61Z"/><path class="cls-14" d="M518.31,246.47a1.92,1.92,0,1,1,1.92,1.81A1.81,1.81,0,0,1,518.31,246.47Zm.24,2.85h3.34v9.17h-3.34Z"/><path class="cls-14" d="M532.51,254.73h-6a1.71,1.71,0,0,0,1.9,1.31,2.82,2.82,0,0,0,2.11-1l1.73,1.9a5.34,5.34,0,0,1-4.2,1.75,4.78,4.78,0,0,1,0-9.55,4.69,4.69,0,0,1,4.52,5.6Zm-6-1.82h2.85a1.4,1.4,0,0,0-1.39-1.23A1.42,1.42,0,0,0,526.51,252.91Z"/><path class="cls-14" d="M534.07,252h-.83v-2.65h.83V248c0-2.38,1.29-3.5,3.15-3.5a4.47,4.47,0,0,1,2.55.75l-.58,2.26a2.59,2.59,0,0,0-1-.24c-.45,0-.79.15-.79.77v1.26h1.5V252h-1.5v6.52h-3.36Z"/><path class="cls-4" d="M306,87H207.89a1.52,1.52,0,0,0-1.51,1.51v47a1.51,1.51,0,0,0,1.51,1.51h11.4l12.9,12.9V137H306a1.5,1.5,0,0,0,1.51-1.51v-47A1.51,1.51,0,0,0,306,87Z"/><path class="cls-5" d="M303.22,131.22a1.51,1.51,0,0,1-1.51,1.51H227.89v12.9L215,132.73h-11.4a1.51,1.51,0,0,1-1.51-1.51v-47a1.52,1.52,0,0,1,1.51-1.51h98.12a1.52,1.52,0,0,1,1.51,1.51Z"/><path class="cls-14" d="M210.46,91.55h4.79c4.2,0,6.9,2.74,6.9,6.67s-2.53,6.63-6.85,6.63h-4.84Zm4.61,10.14a3.31,3.31,0,0,0,3.35-3.47,3.26,3.26,0,0,0-3.1-3.5h-1.41v7Z"/><path class="cls-14" d="M232.54,95.68v9.17h-3.36v-1h0a3.13,3.13,0,0,1-2.5,1.17c-1.87,0-3.24-1-3.24-4V95.68h3.33v4.56c0,1.31.35,1.85,1.2,1.85s1.24-.55,1.24-1.8V95.68Z"/><path class="cls-14" d="M234,92.83a1.92,1.92,0,1,1,1.92,1.81A1.81,1.81,0,0,1,234,92.83Zm.25,2.85h3.33v9.17h-3.33Z"/><path class="cls-14" d="M248.79,91.07v13.78h-3.17V104h0a2.93,2.93,0,0,1-2.43,1.05c-2.51,0-4.26-1.94-4.26-4.78s1.76-4.77,4.06-4.77a3.23,3.23,0,0,1,2.46,1.11h0V91.07Zm-3.21,9.2a1.7,1.7,0,0,0-1.69-1.84,1.85,1.85,0,1,0,1.69,1.84Z"/><path class="cls-14" d="M259.32,101.09h-6a1.71,1.71,0,0,0,1.9,1.31,2.82,2.82,0,0,0,2.11-1l1.73,1.9a5.34,5.34,0,0,1-4.2,1.75,4.78,4.78,0,0,1,0-9.55,4.69,4.69,0,0,1,4.52,5.6Zm-6-1.82h2.85A1.4,1.4,0,0,0,254.78,98,1.42,1.42,0,0,0,253.32,99.27Z"/><path class="cls-14" d="M260.73,91.07h3.33v13.78h-3.33Z"/><path class="cls-14" d="M265.64,92.83a1.92,1.92,0,1,1,1.92,1.81A1.81,1.81,0,0,1,265.64,92.83Zm.24,2.85h3.34v9.17h-3.34Z"/><path class="cls-14" d="M271.26,108.74a6.56,6.56,0,0,1-2.25-.34l.55-2.58a2.55,2.55,0,0,0,.77.14c.59,0,.64-.41.64-1.1V95.68h3.33v9.55c0,2.36-1,3.51-3,3.51Zm-.52-15.91a1.92,1.92,0,1,1,1.92,1.81A1.81,1.81,0,0,1,270.74,92.83Z"/><path class="cls-14" d="M280,101.73l-.69.8v2.32H276V91.07h3.35v7.09h0l2.12-2.48h3.84l-3.07,3.51,3.17,5.66h-3.68L280,101.73Z"/><path class="cls-14" d="M294.45,101.09h-6a1.73,1.73,0,0,0,1.9,1.31,2.8,2.8,0,0,0,2.11-1l1.73,1.9A5.31,5.31,0,0,1,290,105a4.78,4.78,0,1,1-.06-9.55,4.51,4.51,0,0,1,4.62,4.71A5.37,5.37,0,0,1,294.45,101.09Zm-6-1.82h2.85A1.38,1.38,0,0,0,289.9,98,1.43,1.43,0,0,0,288.44,99.27Z"/><path class="cls-14" d="M209.62,121.79l1.52-2.07a3.59,3.59,0,0,0,2.29,1c.46,0,.68-.13.68-.37s-.12-.39-1.26-.72c-1.55-.44-2.9-1.24-2.9-3,0-2,1.61-3.08,3.52-3.08a5.71,5.71,0,0,1,3.58,1.16L215.5,117a2.9,2.9,0,0,0-1.92-.94c-.3,0-.58.11-.58.37s.22.35,1.13.64c2.09.67,3.1,1.27,3.1,3.06s-1.27,3-3.86,3A5.47,5.47,0,0,1,209.62,121.79Z"/><path class="cls-14" d="M218.81,120.09v-3.64h-1V113.8h1v-2.88l3.33-.35v3.23h2v2.65h-2v2.91c0,.43.06.94.61.94a1.82,1.82,0,0,0,.67-.15l.82,2.33a4.85,4.85,0,0,1-2.68.68C220,123.16,218.81,122.19,218.81,120.09Z"/><path class="cls-14" d="M231.47,113.61v3.57c-.27,0-.57,0-.7,0a1.69,1.69,0,0,0-1.9,1.8v4h-3.35V113.8h3.35v1.25h0a3.1,3.1,0,0,1,2.56-1.44Z"/><path class="cls-14" d="M241.5,113.8V123h-3.35v-1h0a3.16,3.16,0,0,1-2.5,1.17c-1.87,0-3.24-1-3.24-4V113.8h3.34v4.56c0,1.31.34,1.84,1.19,1.84s1.25-.54,1.25-1.8v-4.6Z"/><path class="cls-14" d="M242.71,118.39a4.69,4.69,0,0,1,5-4.78,5,5,0,0,1,4,1.89l-2.22,1.89a2.14,2.14,0,0,0-1.7-.82,1.68,1.68,0,0,0-1.74,1.79,1.73,1.73,0,0,0,1.78,1.83,2.1,2.1,0,0,0,1.65-.75l2.28,2a5.42,5.42,0,0,1-4.27,1.74A4.63,4.63,0,0,1,242.71,118.39Z"/><path class="cls-14" d="M253.16,120.09v-3.64h-1V113.8h1v-2.88l3.33-.35v3.23h2v2.65h-2v2.91c0,.43.06.94.61.94a1.91,1.91,0,0,0,.67-.15l.81,2.33a4.79,4.79,0,0,1-2.67.68C254.34,123.16,253.16,122.19,253.16,120.09Z"/><path class="cls-14" d="M268.87,113.8V123h-3.35v-1h0a3.16,3.16,0,0,1-2.5,1.17c-1.87,0-3.24-1-3.24-4V113.8h3.34v4.56c0,1.31.34,1.84,1.19,1.84s1.25-.54,1.25-1.8v-4.6Z"/><path class="cls-14" d="M279.48,113.8V123h-3.36v-1h0a3.16,3.16,0,0,1-2.5,1.17c-1.87,0-3.24-1-3.24-4V113.8h3.33v4.56c0,1.31.35,1.84,1.2,1.84.7,0,1.24-.54,1.24-1.8v-4.6Z"/><path class="cls-14" d="M287,113.61v3.57c-.27,0-.56,0-.7,0a1.69,1.69,0,0,0-1.9,1.8v4h-3.35V113.8h3.35v1.25h0a3.07,3.07,0,0,1,2.55-1.44Z"/><path class="cls-4" d="M1155.12,243.13H1043.37a1.5,1.5,0,0,0-1.5,1.5v29a1.5,1.5,0,0,0,1.5,1.5h11.4l12.9,12.9v-12.9h87.45a1.5,1.5,0,0,0,1.5-1.5v-29A1.5,1.5,0,0,0,1155.12,243.13Z"/><path class="cls-5" d="M1152.32,269.36a1.5,1.5,0,0,1-1.5,1.5h-87.45v12.9l-12.9-12.9h-11.4a1.5,1.5,0,0,1-1.5-1.5v-29a1.5,1.5,0,0,1,1.5-1.5h111.75a1.5,1.5,0,0,1,1.5,1.5Z"/><path class="cls-14" d="M1057.79,247.67,1053,261h-3.12l-4.86-13.3h3.86l2.52,8.23h.05l2.56-8.23Z"/><path class="cls-14" d="M1066.12,257.2h-6a1.71,1.71,0,0,0,1.9,1.32,2.85,2.85,0,0,0,2.11-1l1.73,1.9a5.34,5.34,0,0,1-4.2,1.75,4.78,4.78,0,1,1-.05-9.55,4.5,4.5,0,0,1,4.61,4.71A4.38,4.38,0,0,1,1066.12,257.2Zm-6-1.82H1063a1.39,1.39,0,0,0-1.39-1.22A1.42,1.42,0,0,0,1060.12,255.38Z"/><path class="cls-14" d="M1067.52,247.19h3.34V261h-3.34Z"/><path class="cls-14" d="M1081.48,257.2h-6a1.71,1.71,0,0,0,1.9,1.32,2.85,2.85,0,0,0,2.11-1l1.73,1.9a5.34,5.34,0,0,1-4.2,1.75,4.78,4.78,0,0,1,0-9.55,4.5,4.5,0,0,1,4.61,4.71A4.38,4.38,0,0,1,1081.48,257.2Zm-6-1.82h2.85a1.39,1.39,0,0,0-1.39-1.22A1.42,1.42,0,0,0,1075.48,255.38Z"/><path class="cls-14" d="M1096,257.2h-6a1.72,1.72,0,0,0,1.9,1.32,2.84,2.84,0,0,0,2.11-1l1.73,1.9a5.31,5.31,0,0,1-4.19,1.75,4.78,4.78,0,1,1-.06-9.55,4.51,4.51,0,0,1,4.62,4.71A5.25,5.25,0,0,1,1096,257.2Zm-6-1.82h2.85a1.38,1.38,0,0,0-1.39-1.22A1.42,1.42,0,0,0,1090,255.38Z"/><path class="cls-14" d="M1100.9,259h-.05l-1.29,2H1096l3-4.74-3-4.43h3.71l1.07,1.95h0l1.08-1.95h3.7l-3,4.43,3,4.74h-3.56Z"/><path class="cls-14" d="M1107,258.09v-3.64h-1V251.8h1v-2.88l3.34-.34v3.22h2v2.65h-2v2.92c0,.43,0,.93.6.93a1.91,1.91,0,0,0,.68-.15l.81,2.33a4.72,4.72,0,0,1-2.68.68C1108.16,261.16,1107,260.19,1107,258.09Z"/><path class="cls-14" d="M1119.64,251.61v3.57h-.71a1.69,1.69,0,0,0-1.9,1.8v4h-3.34V251.8H1117v1.25h0a3.09,3.09,0,0,1,2.56-1.44Z"/><path class="cls-14" d="M1130,251.8V261h-3.17v-.86h0a2.84,2.84,0,0,1-2.36,1.05c-2.51,0-4.26-2-4.26-4.78s1.76-4.77,4.06-4.77a3.11,3.11,0,0,1,2.38,1.1h0v-.91Zm-3.21,4.59a1.63,1.63,0,1,0-1.61,1.85A1.69,1.69,0,0,0,1126.77,256.39Z"/><path class="cls-14" d="M1131.8,247.67H1135l-1.36,5.22h-2.39Z"/><path class="cls-14" d="M1135.47,259.79l1.51-2.06a3.68,3.68,0,0,0,2.3,1c.46,0,.68-.14.68-.38s-.12-.38-1.26-.71c-1.55-.45-2.9-1.24-2.9-3,0-2,1.61-3.08,3.52-3.08a5.71,5.71,0,0,1,3.58,1.16l-1.55,2.22a3,3,0,0,0-1.92-.94c-.3,0-.58.11-.58.38s.22.34,1.13.64c2.09.66,3.1,1.27,3.1,3.06s-1.27,3-3.86,3A5.47,5.47,0,0,1,1135.47,259.79Z"/><path class="cls-4" d="M989.63,187.08h117.8a1.51,1.51,0,0,1,1.5,1.51v29a1.5,1.5,0,0,1-1.5,1.5H1096l-12.9,12.9v-12.9h-93.5a1.51,1.51,0,0,1-1.51-1.5v-29A1.52,1.52,0,0,1,989.63,187.08Z"/><path class="cls-5" d="M992.43,213.31a1.5,1.5,0,0,0,1.5,1.5h93.5v12.9l12.9-12.9h11.4a1.5,1.5,0,0,0,1.5-1.5v-29a1.51,1.51,0,0,0-1.5-1.51H993.93a1.51,1.51,0,0,0-1.5,1.51Z"/><path class="cls-14" d="M1000.64,191.62h3.6v5.3h4v-5.3h3.61v13.3h-3.61v-4.84h-4v4.84h-3.6Z"/><path class="cls-14" d="M1022.57,201.15h-6a1.72,1.72,0,0,0,1.9,1.32,2.82,2.82,0,0,0,2.11-1l1.73,1.9a5.33,5.33,0,0,1-4.19,1.75,4.78,4.78,0,1,1-.06-9.55,4.51,4.51,0,0,1,4.62,4.71A5.15,5.15,0,0,1,1022.57,201.15Zm-6-1.81h2.85a1.39,1.39,0,0,0-1.39-1.23A1.43,1.43,0,0,0,1016.56,199.34Z"/><path class="cls-14" d="M1024,191.14h3.34v13.78H1024Z"/><path class="cls-14" d="M1038.53,191.14v13.78h-3.17v-.86h0a2.91,2.91,0,0,1-2.43,1.05c-2.51,0-4.26-1.94-4.26-4.78s1.77-4.77,4.06-4.77a3.23,3.23,0,0,1,2.46,1.11h0v-5.53Zm-3.21,9.2a1.7,1.7,0,0,0-1.69-1.84,1.85,1.85,0,1,0,1.69,1.84Z"/><path class="cls-14" d="M1049.07,201.15h-6a1.72,1.72,0,0,0,1.9,1.32,2.82,2.82,0,0,0,2.11-1l1.73,1.9a5.33,5.33,0,0,1-4.19,1.75,4.78,4.78,0,1,1-.06-9.55,4.51,4.51,0,0,1,4.62,4.71A5.15,5.15,0,0,1,1049.07,201.15Zm-6-1.81h2.85a1.39,1.39,0,0,0-1.39-1.23A1.43,1.43,0,0,0,1043.06,199.34Z"/><path class="cls-14" d="M1056.34,195.56v3.57h-.71a1.69,1.69,0,0,0-1.9,1.8v4h-3.34v-9.17h3.34V197h0a3.07,3.07,0,0,1,2.56-1.45Z"/><path class="cls-14" d="M1066.07,201.15h-6a1.72,1.72,0,0,0,1.9,1.32,2.82,2.82,0,0,0,2.11-1l1.73,1.9a5.33,5.33,0,0,1-4.19,1.75,4.78,4.78,0,1,1-.06-9.55,4.51,4.51,0,0,1,4.62,4.71A4.32,4.32,0,0,1,1066.07,201.15Zm-6-1.81h2.85a1.39,1.39,0,0,0-1.39-1.23A1.43,1.43,0,0,0,1060.07,199.34Z"/><path class="cls-14" d="M1072.06,202V198.4h-1v-2.65h1v-2.88l3.34-.34v3.22h2v2.65h-2v2.92c0,.43,0,.93.6.93a2,2,0,0,0,.67-.14l.82,2.33a4.83,4.83,0,0,1-2.68.67C1073.25,205.11,1072.06,204.14,1072.06,202Z"/><path class="cls-14" d="M1087.74,195.75v9.17h-3.17v-.86h0a2.81,2.81,0,0,1-2.36,1.05c-2.51,0-4.26-1.94-4.26-4.78s1.77-4.77,4.06-4.77a3.1,3.1,0,0,1,2.38,1.1h0v-.91Zm-3.21,4.59a1.63,1.63,0,1,0-3.24,0,1.63,1.63,0,1,0,3.24,0Z"/><path class="cls-14" d="M1098.75,195.75v9.17h-3.17v-.86h0a2.81,2.81,0,0,1-2.36,1.05c-2.51,0-4.26-1.94-4.26-4.78s1.76-4.77,4.06-4.77a3.11,3.11,0,0,1,2.38,1.1h0v-.91Zm-3.21,4.59a1.63,1.63,0,1,0-3.24,0,1.63,1.63,0,1,0,3.24,0Z"/><path class="cls-14" d="M1100.44,191.14h3.34v13.78h-3.34Z"/><path class="cls-4" d="M365.76,149.67h98.18a1.5,1.5,0,0,1,1.5,1.5v29a1.5,1.5,0,0,1-1.5,1.5h-11.4l-12.9,12.9V181.7H365.76a1.5,1.5,0,0,1-1.5-1.5v-29A1.5,1.5,0,0,1,365.76,149.67Z"/><path class="cls-5" d="M368.56,175.9a1.5,1.5,0,0,0,1.5,1.5h73.88v12.9l12.9-12.9h11.4a1.5,1.5,0,0,0,1.5-1.5v-29a1.5,1.5,0,0,0-1.5-1.5H370.06a1.5,1.5,0,0,0-1.5,1.5Z"/><path class="cls-14" d="M375.81,160.89a6.55,6.55,0,0,1,6.93-6.87,7.11,7.11,0,0,1,5.42,2.57l-2.6,2.23a4,4,0,0,0-2.82-1.37,3.42,3.42,0,0,0,0,6.82,3.81,3.81,0,0,0,2.82-1.35l2.6,2.24a7,7,0,0,1-5.42,2.54C379,167.7,375.81,165.32,375.81,160.89Z"/><path class="cls-14" d="M388.81,162.93a5,5,0,1,1,5,4.77A4.69,4.69,0,0,1,388.81,162.93Zm6.69,0a1.67,1.67,0,1,0-3.33,0,1.67,1.67,0,1,0,3.33,0Z"/><path class="cls-14" d="M414.85,162.14v5.37h-3.34V162.9c0-1-.22-1.79-1.11-1.79-.67,0-1.21.55-1.21,1.79v4.61h-3.35V162.9c0-1-.23-1.79-1.1-1.79s-1.27.55-1.27,1.79v4.61h-3.35v-9.17h3.35v1h0a3.06,3.06,0,0,1,2.45-1.23,2.89,2.89,0,0,1,2.64,1.3h0a3.73,3.73,0,0,1,3-1.3C413.48,158.15,414.85,159.17,414.85,162.14Z"/><path class="cls-14" d="M426.32,162.92c0,2.83-1.74,4.78-4.25,4.78a2.93,2.93,0,0,1-2.28-1h0v4.5h-3.33V158.34h3.35v.92h0a3.18,3.18,0,0,1,2.46-1.11C424.56,158.15,426.32,160.11,426.32,162.92Zm-3.37,0a1.67,1.67,0,0,0-1.62-1.84,1.85,1.85,0,0,0,0,3.69A1.66,1.66,0,0,0,423,162.93Z"/><path class="cls-14" d="M427.66,153.73H431v13.78h-3.34Z"/><path class="cls-14" d="M441.62,163.74h-6a1.72,1.72,0,0,0,1.9,1.32,2.83,2.83,0,0,0,2.11-1l1.73,1.91a5.34,5.34,0,0,1-4.2,1.75,4.78,4.78,0,0,1,0-9.55,4.51,4.51,0,0,1,4.62,4.71A4.4,4.4,0,0,1,441.62,163.74Zm-6-1.82h2.85a1.39,1.39,0,0,0-1.39-1.22A1.42,1.42,0,0,0,435.62,161.92Z"/><path class="cls-14" d="M451.83,163.74h-6a1.71,1.71,0,0,0,1.9,1.32,2.83,2.83,0,0,0,2.11-1l1.73,1.91a5.34,5.34,0,0,1-4.2,1.75,4.78,4.78,0,1,1-.05-9.55,4.5,4.5,0,0,1,4.61,4.71A5.25,5.25,0,0,1,451.83,163.74Zm-6-1.82h2.86a1.39,1.39,0,0,0-1.39-1.22A1.43,1.43,0,0,0,445.82,161.92Z"/><path class="cls-14" d="M453.52,164.63V161h-1v-2.65h1v-2.88l3.33-.34v3.22h2V161h-2v2.92c0,.43.06.93.61.93a1.91,1.91,0,0,0,.67-.15l.81,2.33a4.71,4.71,0,0,1-2.67.68C454.7,167.7,453.52,166.73,453.52,164.63Z"/><path class="cls-4" d="M1260.2,91.9h93.27a1.51,1.51,0,0,1,1.51,1.5v29a1.51,1.51,0,0,1-1.51,1.5h-11.39l-12.91,12.9v-12.9h-69a1.5,1.5,0,0,1-1.5-1.5v-29A1.5,1.5,0,0,1,1260.2,91.9Z"/><path class="cls-5" d="M1263,118.12a1.5,1.5,0,0,0,1.5,1.5h69v12.9l12.91-12.9h11.4a1.5,1.5,0,0,0,1.5-1.5v-29a1.51,1.51,0,0,0-1.5-1.51H1264.5a1.51,1.51,0,0,0-1.5,1.51Z"/><path class="cls-14" d="M1270.25,103.12a6.55,6.55,0,0,1,6.94-6.88,7.12,7.12,0,0,1,5.42,2.57L1280,101a4,4,0,0,0-2.81-1.37,3.42,3.42,0,0,0,0,6.83,3.8,3.8,0,0,0,2.81-1.36l2.61,2.24a7,7,0,0,1-5.42,2.54C1273.48,109.92,1270.25,107.55,1270.25,103.12Z"/><path class="cls-14" d="M1283.25,105.15a5,5,0,1,1,5,4.77A4.69,4.69,0,0,1,1283.25,105.15Zm6.69,0a1.67,1.67,0,1,0-3.33,0,1.67,1.67,0,1,0,3.33,0Z"/><path class="cls-14" d="M1309.29,104.37v5.36H1306v-4.6c0-1-.22-1.8-1.1-1.8-.68,0-1.22.55-1.22,1.8v4.6h-3.35v-4.6c0-1-.22-1.8-1.1-1.8s-1.27.55-1.27,1.8v4.6h-3.35v-9.16h3.35v1h0a3.06,3.06,0,0,1,2.46-1.24,2.88,2.88,0,0,1,2.63,1.3h0a3.7,3.7,0,0,1,3-1.3C1307.92,100.37,1309.29,101.4,1309.29,104.37Z"/><path class="cls-14" d="M1320.77,105.14c0,2.84-1.75,4.78-4.26,4.78a2.92,2.92,0,0,1-2.28-1h0v4.49h-3.33V100.57h3.35v.92h0a3.19,3.19,0,0,1,2.46-1.12C1319,100.37,1320.77,102.33,1320.77,105.14Zm-3.38,0a1.67,1.67,0,0,0-1.62-1.83,1.85,1.85,0,0,0,0,3.68A1.66,1.66,0,0,0,1317.39,105.15Z"/><path class="cls-14" d="M1331.42,100.57v9.16h-3.17v-.86h0a2.8,2.8,0,0,1-2.36,1c-2.51,0-4.26-1.94-4.26-4.78s1.77-4.77,4.06-4.77a3.08,3.08,0,0,1,2.38,1.1h0v-.9Zm-3.21,4.58a1.63,1.63,0,1,0-3.23,0,1.63,1.63,0,1,0,3.23,0Z"/><path class="cls-14" d="M1332.64,105.15a4.69,4.69,0,0,1,5-4.78,5,5,0,0,1,4,1.9l-2.22,1.89a2.12,2.12,0,0,0-1.7-.83,1.69,1.69,0,0,0-1.75,1.8,1.73,1.73,0,0,0,1.79,1.82,2.07,2.07,0,0,0,1.65-.75l2.28,2a5.41,5.41,0,0,1-4.27,1.73A4.62,4.62,0,0,1,1332.64,105.15Z"/><path class="cls-14" d="M1343.08,106.85v-3.63h-1v-2.65h1V97.69l3.34-.35v3.23h2v2.65h-2v2.91c0,.43.06.93.6.93a1.86,1.86,0,0,0,.68-.14l.81,2.33a4.8,4.8,0,0,1-2.67.67C1344.27,109.92,1343.08,109,1343.08,106.85Z"/><path class="cls-4" d="M285.23,208.52H418.29a1.51,1.51,0,0,1,1.5,1.51v29a1.5,1.5,0,0,1-1.5,1.5h-11.4L394,253.45v-12.9H285.23a1.5,1.5,0,0,1-1.5-1.5V210A1.51,1.51,0,0,1,285.23,208.52Z"/><path class="cls-5" d="M288,234.75a1.5,1.5,0,0,0,1.5,1.5H398.29v12.9l12.9-12.9h11.4a1.5,1.5,0,0,0,1.5-1.5v-29a1.51,1.51,0,0,0-1.5-1.51H289.53a1.51,1.51,0,0,0-1.5,1.51Z"/><path class="cls-14" d="M295.68,213.06h8.84v3.17h-5.4v2h4.23v3.09h-4.23v1.87h5.79v3.16h-9.23Z"/><path class="cls-14" d="M306.55,219.85h-.83v-2.66h.83v-1.3c0-2.38,1.29-3.5,3.15-3.5a4.55,4.55,0,0,1,2.55.75l-.58,2.26a2.59,2.59,0,0,0-1-.24c-.45,0-.79.15-.79.77v1.26h1.5v2.66h-1.5v6.51h-3.36Z"/><path class="cls-14" d="M313.09,219.85h-.83v-2.66h.83v-1.3c0-2.38,1.29-3.5,3.14-3.5a4.49,4.49,0,0,1,2.55.75l-.57,2.26a2.59,2.59,0,0,0-1-.24c-.45,0-.8.15-.8.77v1.26h1.5v2.66h-1.5v6.51h-3.35Z"/><path class="cls-14" d="M327.6,222.6h-6a1.73,1.73,0,0,0,1.9,1.31,2.84,2.84,0,0,0,2.12-1l1.72,1.9a5.31,5.31,0,0,1-4.19,1.75,4.78,4.78,0,1,1-.06-9.55,4.51,4.51,0,0,1,4.62,4.71A5.37,5.37,0,0,1,327.6,222.6Zm-6-1.82h2.85a1.38,1.38,0,0,0-1.38-1.23A1.43,1.43,0,0,0,321.59,220.78Z"/><path class="cls-14" d="M328.53,221.78a4.69,4.69,0,0,1,5-4.78,5,5,0,0,1,4,1.89l-2.22,1.9a2.15,2.15,0,0,0-1.7-.83,1.69,1.69,0,0,0-1.75,1.8,1.72,1.72,0,0,0,1.78,1.82,2.1,2.1,0,0,0,1.66-.75l2.27,2a5.4,5.4,0,0,1-4.27,1.73A4.61,4.61,0,0,1,328.53,221.78Z"/><path class="cls-14" d="M339,223.48v-3.63h-1v-2.66h1v-2.87l3.34-.35v3.22h2v2.66h-2v2.91c0,.43.05.93.6.93a1.78,1.78,0,0,0,.67-.14l.82,2.33a4.83,4.83,0,0,1-2.68.67C340.16,226.55,339,225.59,339,223.48Z"/><path class="cls-14" d="M345.34,214.34a1.92,1.92,0,1,1,1.92,1.81A1.81,1.81,0,0,1,345.34,214.34Zm.25,2.85h3.34v9.17h-3.34Z"/><path class="cls-14" d="M359.55,222.6h-6a1.73,1.73,0,0,0,1.91,1.31,2.82,2.82,0,0,0,2.11-1l1.72,1.9a5.3,5.3,0,0,1-4.19,1.75A4.78,4.78,0,1,1,355,217a4.5,4.5,0,0,1,4.62,4.71A5.37,5.37,0,0,1,359.55,222.6Zm-6-1.82h2.86a1.4,1.4,0,0,0-1.39-1.23A1.43,1.43,0,0,0,353.54,220.78Z"/><path class="cls-14" d="M361.11,219.85h-.83v-2.66h.83v-1.3c0-2.38,1.29-3.5,3.14-3.5a4.52,4.52,0,0,1,2.55.75l-.57,2.26a2.64,2.64,0,0,0-1-.24c-.45,0-.8.15-.8.77v1.26H366v2.66h-1.5v6.51h-3.35Z"/><path class="cls-14" d="M371.71,212.58H375v13.78h-3.33Z"/><path class="cls-14" d="M385.66,222.6h-6a1.72,1.72,0,0,0,1.9,1.31,2.82,2.82,0,0,0,2.11-1l1.73,1.9a5.33,5.33,0,0,1-4.19,1.75,4.78,4.78,0,1,1-.06-9.55,4.64,4.64,0,0,1,4.52,5.6Zm-6-1.82h2.85a1.39,1.39,0,0,0-1.39-1.23A1.43,1.43,0,0,0,379.66,220.78Z"/><path class="cls-14" d="M392.94,217v3.58c-.28,0-.57,0-.71,0a1.69,1.69,0,0,0-1.9,1.8v4H387v-9.17h3.34v1.26h0a3.1,3.1,0,0,1,2.56-1.45Z"/><path class="cls-14" d="M402.67,222.6h-6a1.72,1.72,0,0,0,1.9,1.31,2.82,2.82,0,0,0,2.11-1l1.73,1.9a5.34,5.34,0,0,1-4.2,1.75,4.78,4.78,0,0,1-.05-9.55,4.64,4.64,0,0,1,4.52,5.6Zm-6-1.82h2.85a1.39,1.39,0,0,0-1.39-1.23A1.43,1.43,0,0,0,396.67,220.78Z"/><path class="cls-14" d="M413.22,220.81v5.55h-3.35v-4.74c0-1.3-.36-1.66-1.2-1.66s-1.33.55-1.33,1.8v4.6H404v-9.17h3.35v1h0A3.37,3.37,0,0,1,410,217C411.83,217,413.22,217.84,413.22,220.81Z"/><path class="cls-4" d="M1130.48,152.34h150a1.5,1.5,0,0,1,1.5,1.5v48.64a1.5,1.5,0,0,1-1.5,1.5H1269l-12.9,12.91V204H1130.48a1.5,1.5,0,0,1-1.5-1.5V153.84A1.5,1.5,0,0,1,1130.48,152.34Z"/><path class="cls-5" d="M1133.28,198.18a1.5,1.5,0,0,0,1.51,1.5h125.65v12.91l12.9-12.91h11.4a1.5,1.5,0,0,0,1.5-1.5V149.54a1.5,1.5,0,0,0-1.5-1.5h-150a1.5,1.5,0,0,0-1.51,1.5Z"/><path class="cls-14" d="M1140.12,168.24l2-2.48a4.47,4.47,0,0,0,3,1.47c.83,0,1.14-.44,1.14-.86s-.26-.8-1.68-1.28c-2-.67-4-1.66-4-4.38,0-2.25,1.88-4,4.43-4a6.93,6.93,0,0,1,4.71,1.78l-2,2.54a4.24,4.24,0,0,0-2.53-1.2c-.63,0-.93.31-.93.79s.28.8,1.64,1.32c2.34.91,4.12,1.48,4.12,4,0,3.33-2.78,4.41-5,4.41A6.91,6.91,0,0,1,1140.12,168.24Z"/><path class="cls-14" d="M1151.33,156.39h3.34v13.78h-3.34Z"/><path class="cls-14" d="M1165.41,161v9.16h-3.35v-1h0a3.16,3.16,0,0,1-2.5,1.17c-1.87,0-3.24-1-3.24-4V161h3.33v4.56c0,1.31.35,1.84,1.2,1.84s1.25-.54,1.25-1.8V161Z"/><path class="cls-14" d="M1166.85,158.16a1.92,1.92,0,1,1,1.92,1.8A1.81,1.81,0,0,1,1166.85,158.16Zm.25,2.85h3.33v9.16h-3.33Z"/><path class="cls-14" d="M1172.54,167.3v-3.64h-1V161h1v-2.88l3.33-.35V161h2v2.65h-2v2.91c0,.43.06.94.61.94a1.82,1.82,0,0,0,.67-.15l.82,2.33a4.85,4.85,0,0,1-2.68.68C1173.73,170.37,1172.54,169.4,1172.54,167.3Z"/><path class="cls-14" d="M1192.94,161v9.16h-3.17v-.85h0a2.81,2.81,0,0,1-2.35,1.05c-2.52,0-4.26-2-4.26-4.78s1.76-4.77,4.06-4.77a3.07,3.07,0,0,1,2.37,1.09h0V161Zm-3.2,4.59a1.63,1.63,0,1,0-3.24,0,1.63,1.63,0,1,0,3.24,0Z"/><path class="cls-14" d="M1204,161v9.16h-3.17v-.85h0a2.81,2.81,0,0,1-2.35,1.05c-2.52,0-4.26-2-4.26-4.78s1.76-4.77,4-4.77a3.07,3.07,0,0,1,2.38,1.09h0V161Zm-3.2,4.59a1.69,1.69,0,0,0-1.61-1.84,1.86,1.86,0,1,0,1.61,1.84Z"/><path class="cls-14" d="M1214.79,164.63v5.54h-3.35v-4.74c0-1.3-.36-1.65-1.19-1.65s-1.34.54-1.34,1.79v4.6h-3.34V161h3.34v1h0a3.41,3.41,0,0,1,2.61-1.19C1213.4,160.82,1214.79,161.66,1214.79,164.63Z"/><path class="cls-14" d="M1230.56,165.59c0,2.83-1.75,4.78-4.26,4.78a3,3,0,0,1-2.44-1.05h0v.85h-3.17V156.39H1224v5.53h0a3.22,3.22,0,0,1,2.46-1.1C1228.79,160.82,1230.56,162.77,1230.56,165.59Zm-3.38,0a1.67,1.67,0,0,0-1.62-1.84,1.85,1.85,0,0,0,0,3.68A1.65,1.65,0,0,0,1227.18,165.6Z"/><path class="cls-14" d="M1231.65,158.16a1.92,1.92,0,1,1,1.92,1.8A1.81,1.81,0,0,1,1231.65,158.16Zm.24,2.85h3.34v9.16h-3.34Z"/><path class="cls-14" d="M1237.27,174.06a6.56,6.56,0,0,1-2.25-.34l.55-2.58a2.28,2.28,0,0,0,.77.14c.59,0,.64-.41.64-1.1V161h3.34v9.54c0,2.37-1,3.51-3,3.51Zm-.52-15.9a1.92,1.92,0,1,1,1.92,1.8A1.81,1.81,0,0,1,1236.75,158.16Z"/><path class="cls-14" d="M1255.76,156.39v13.78h-3.17v-.85h0a3,3,0,0,1-2.43,1.05c-2.52,0-4.26-2-4.26-4.78s1.76-4.77,4.06-4.77a3.18,3.18,0,0,1,2.45,1.1h0v-5.53Zm-3.21,9.21a1.7,1.7,0,0,0-1.69-1.84,1.85,1.85,0,1,0,1.69,1.84Z"/><path class="cls-14" d="M1266.29,166.41h-6a1.71,1.71,0,0,0,1.9,1.32,2.83,2.83,0,0,0,2.11-1l1.73,1.9a5.34,5.34,0,0,1-4.2,1.76,4.78,4.78,0,1,1,0-9.55,4.68,4.68,0,0,1,4.52,5.59Zm-6-1.82h2.85a1.39,1.39,0,0,0-1.39-1.22A1.41,1.41,0,0,0,1260.29,164.59Z"/><path class="cls-14" d="M1150.69,184.79c0,2.83-1.75,4.78-4.26,4.78a2.94,2.94,0,0,1-2.43-1h0v.86h-3.17V175.6h3.35v5.52h0a3.22,3.22,0,0,1,2.46-1.1C1148.92,180,1150.69,182,1150.69,184.79Zm-3.37,0a1.68,1.68,0,0,0-1.63-1.84,1.85,1.85,0,0,0,0,3.69A1.67,1.67,0,0,0,1147.32,184.8Z"/><path class="cls-14" d="M1160.83,185.61h-6a1.71,1.71,0,0,0,1.9,1.32,2.83,2.83,0,0,0,2.11-1l1.73,1.91a5.37,5.37,0,0,1-4.2,1.75,4.78,4.78,0,1,1,0-9.55,4.5,4.5,0,0,1,4.61,4.71A5.25,5.25,0,0,1,1160.83,185.61Zm-6-1.82h2.86a1.39,1.39,0,0,0-1.39-1.22A1.43,1.43,0,0,0,1154.82,183.79Z"/><path class="cls-14" d="M1162.23,175.6h3.34v13.78h-3.34Z"/><path class="cls-14" d="M1176.19,185.61h-6a1.71,1.71,0,0,0,1.9,1.32,2.83,2.83,0,0,0,2.11-1l1.73,1.91a5.37,5.37,0,0,1-4.2,1.75,4.78,4.78,0,1,1,0-9.55,4.5,4.5,0,0,1,4.61,4.71A4.38,4.38,0,0,1,1176.19,185.61Zm-6-1.82H1173a1.39,1.39,0,0,0-1.39-1.22A1.42,1.42,0,0,0,1170.19,183.79Z"/><path class="cls-14" d="M1186.19,180.21l-3.5,9.17h-3l-3.51-9.17h3.46l1.54,5.2h0l1.49-5.2Z"/><path class="cls-14" d="M1186.92,177.36a1.92,1.92,0,1,1,1.92,1.81A1.81,1.81,0,0,1,1186.92,177.36Zm.25,2.85h3.34v9.17h-3.34Z"/><path class="cls-14" d="M1201.47,183.83v5.55h-3.35v-4.75c0-1.29-.36-1.65-1.2-1.65s-1.33.55-1.33,1.79v4.61h-3.35v-9.17h3.35v1h0a3.37,3.37,0,0,1,2.6-1.2C1200.08,180,1201.47,180.86,1201.47,183.83Z"/><path class="cls-14" d="M1212.43,180.21V188c0,3.08-1.21,5.23-5.07,5.23a7.46,7.46,0,0,1-3.8-.84l.74-2.63a5.57,5.57,0,0,0,2.64.74c1.47,0,2.23-.67,2.23-1.48v-.83h0a3.11,3.11,0,0,1-2.42,1,4.18,4.18,0,0,1-4.11-4.48c0-2.74,1.72-4.69,3.93-4.69a3.29,3.29,0,0,1,2.52,1.09h0v-.9Zm-3.2,4.41a1.62,1.62,0,1,0-1.62,1.62A1.57,1.57,0,0,0,1209.23,184.62Z"/><path class="cls-14" d="M1213.37,188.2l1.52-2.07a3.6,3.6,0,0,0,2.29,1.05c.46,0,.68-.14.68-.38s-.12-.38-1.26-.71c-1.55-.45-2.9-1.25-2.9-3,0-2,1.61-3.08,3.52-3.08a5.71,5.71,0,0,1,3.58,1.16l-1.55,2.22a3,3,0,0,0-1.92-.94c-.3,0-.58.11-.58.37s.22.35,1.13.64c2.09.67,3.1,1.27,3.1,3.07s-1.27,3-3.86,3A5.47,5.47,0,0,1,1213.37,188.2Z"/><path class="cls-14" d="M1235.47,180.21l-3.08,9.17h-2.59l-1.36-5.17h0l-1.31,5.17h-2.65l-3.08-9.17h3.3l1.29,4.4h0l1.16-4.4h2.54l1.18,4.4h0l1.3-4.4Z"/><path class="cls-14" d="M1244.68,185.61h-6a1.71,1.71,0,0,0,1.9,1.32,2.83,2.83,0,0,0,2.11-1l1.73,1.91a5.37,5.37,0,0,1-4.2,1.75,4.78,4.78,0,0,1,0-9.55,4.5,4.5,0,0,1,4.61,4.71A4.38,4.38,0,0,1,1244.68,185.61Zm-6-1.82h2.85a1.39,1.39,0,0,0-1.39-1.22A1.42,1.42,0,0,0,1238.68,183.79Z"/><path class="cls-14" d="M1252,180v3.57c-.27,0-.56,0-.7,0a1.69,1.69,0,0,0-1.9,1.8v4H1246v-9.17h3.35v1.25h0a3.09,3.09,0,0,1,2.56-1.44Z"/><path class="cls-14" d="M1261.69,185.61h-6a1.71,1.71,0,0,0,1.9,1.32,2.83,2.83,0,0,0,2.11-1l1.73,1.91a5.37,5.37,0,0,1-4.2,1.75,4.78,4.78,0,0,1,0-9.55,4.5,4.5,0,0,1,4.61,4.71A4.38,4.38,0,0,1,1261.69,185.61Zm-6-1.82h2.85a1.39,1.39,0,0,0-1.39-1.22A1.42,1.42,0,0,0,1255.69,183.79Z"/><path class="cls-14" d="M1263.1,175.6h3.33v13.78h-3.33Z"/><path class="cls-14" d="M1277.66,175.59v13.79h-3.17v-.86h0a3,3,0,0,1-2.43,1c-2.51,0-4.26-1.95-4.26-4.78s1.76-4.77,4.06-4.77a3.22,3.22,0,0,1,2.46,1.1h0V175.6Zm-3.21,9.21a1.7,1.7,0,0,0-1.69-1.84,1.85,1.85,0,1,0,1.69,1.84Z"/><path class="cls-19" d="M308.59,90.94a1,1,0,0,1,.06-.2q2.27-4.87,4.52-9.74a4.54,4.54,0,0,0-4-6.51,4.23,4.23,0,0,0-4,2.41c-.31.58-.56,1.18-.83,1.77a1.17,1.17,0,0,0-.06.2l-.85-.39c-.5-.23-1-.51-1.5-.69a4.39,4.39,0,0,0-5.81,4.71,4.32,4.32,0,0,0,2.49,3.58c3.26,1.62,6.54,3.21,9.81,4.8Z"/><circle class="cls-4" cx="1307.78" cy="232.19" r="17.54"/><circle class="cls-10" cx="1305.38" cy="229.79" r="17.54"/><path class="cls-14" d="M1296.64,234.19a16.8,16.8,0,0,0,3.92,2.5,10.34,10.34,0,0,0,4.37.95,5.14,5.14,0,0,0,1.11-.07,4.54,4.54,0,0,0,1.1-.2c.37-.1.73-.18,1.09-.29s.7-.3,1.06-.45a5.16,5.16,0,0,0,1-.52l1-.58c.66-.42,1.27-.92,2-1.36l0,0a.29.29,0,0,1,.39.09.27.27,0,0,1,0,.34c-.55.61-1.12,1.2-1.73,1.78l-1,.75a5.39,5.39,0,0,1-1.07.68,9.9,9.9,0,0,1-9.88.06,11.74,11.74,0,0,1-3.78-3.29.3.3,0,0,1,.06-.4.29.29,0,0,1,.36,0Z"/><path class="cls-4" d="M1297.2,229.15s-.61-5.49,2.7-5.52,2.61,5.52,2.61,5.52-.84-2.53-2.65-2.53S1297.2,229.15,1297.2,229.15Z"/><path class="cls-4" d="M1307.64,229.15s-.61-5.49,2.7-5.52,2.62,5.52,2.62,5.52-.85-2.53-2.65-2.53S1307.64,229.15,1307.64,229.15Z"/></g></g></svg>