<svg xmlns="http://www.w3.org/2000/svg" xmlns:xlink="http://www.w3.org/1999/xlink" viewBox="0 0 1920 1080"><defs><style>.cls-1{fill:#8571f1;}.cls-12,.cls-2{fill:#3d2142;}.cls-11,.cls-14,.cls-15,.cls-16,.cls-17,.cls-18,.cls-19,.cls-2,.cls-20,.cls-3,.cls-4,.cls-5,.cls-6,.cls-7,.cls-8,.cls-9{stroke:#3d2142;}.cls-10,.cls-11,.cls-14,.cls-15,.cls-16,.cls-17,.cls-19,.cls-2,.cls-20,.cls-3,.cls-4,.cls-5,.cls-6,.cls-7,.cls-8,.cls-9{stroke-linecap:round;stroke-linejoin:round;}.cls-10,.cls-11,.cls-17,.cls-18,.cls-19,.cls-2,.cls-20,.cls-3,.cls-4,.cls-5,.cls-6,.cls-7,.cls-8,.cls-9{stroke-width:2px;}.cls-15,.cls-3{fill:#fff;}.cls-4{fill:none;}.cls-5{fill:#37cca2;}.cls-6{fill:#f2a6f5;}.cls-16,.cls-7{fill:#7fcefc;}.cls-8{fill:#f6cdaf;}.cls-9{fill:#7f3e98;}.cls-10{fill:#6a539b;stroke:#000;}.cls-11{fill:#f96484;}.cls-13{opacity:0.2;fill:url(#linear-gradient);}.cls-14,.cls-17{fill:#f2748a;}.cls-14,.cls-15,.cls-16{stroke-width:3px;}.cls-18{stroke-miterlimit:10;}.cls-19{fill:#f596c0;}.cls-20{fill:#fed16c;}</style><linearGradient id="linear-gradient" x1="1175.22" y1="416.87" x2="1233.11" y2="416.87" gradientUnits="userSpaceOnUse"><stop offset="0" stop-color="#fff"/><stop offset="1" stop-color="#fff" stop-opacity="0"/></linearGradient></defs><g id="Layer_1" data-name="Layer 1"><rect class="cls-1" width="1920" height="1080"/><path class="cls-2" d="M1357.28,190.72H1057.16a4.51,4.51,0,0,0-4.5,4.5V302.14a4.5,4.5,0,0,0,4.5,4.5h34.14l38.64,38.64V306.64h227.34a4.49,4.49,0,0,0,4.5-4.5V195.22A4.5,4.5,0,0,0,1357.28,190.72Z"/><path class="cls-3" d="M1348.9,289.26a4.49,4.49,0,0,1-4.5,4.5H1117.06V332.4l-38.64-38.64h-34.14a4.5,4.5,0,0,1-4.5-4.5V182.34a4.51,4.51,0,0,1,4.5-4.5H1344.4a4.5,4.5,0,0,1,4.5,4.5Z"/><line class="cls-4" x1="1065.54" y1="203.6" x2="1148.15" y2="203.6"/><line class="cls-4" x1="1297.38" y1="229.36" x2="1310.26" y2="229.36"/><line class="cls-4" x1="1238.37" y1="229.36" x2="1284.5" y2="229.36"/><line class="cls-4" x1="1127.55" y1="229.36" x2="1225.49" y2="229.36"/><line class="cls-4" x1="1065.54" y1="229.36" x2="1114.67" y2="229.36"/><line class="cls-4" x1="1276.47" y1="242.24" x2="1323.14" y2="242.24"/><line class="cls-4" x1="1211.78" y1="242.24" x2="1263.59" y2="242.24"/><line class="cls-4" x1="1134.5" y1="242.24" x2="1199.19" y2="242.24"/><line class="cls-4" x1="1065.54" y1="242.24" x2="1121.62" y2="242.24"/><line class="cls-4" x1="1235.41" y1="255.12" x2="1308.37" y2="255.12"/><line class="cls-4" x1="1155.7" y1="255.12" x2="1222.53" y2="255.12"/><line class="cls-4" x1="1065.54" y1="255.12" x2="1142.82" y2="255.12"/><line class="cls-4" x1="1279.7" y1="268" x2="1318.3" y2="268"/><line class="cls-4" x1="1130.07" y1="268" x2="1266.82" y2="268"/><line class="cls-4" x1="1065.54" y1="268" x2="1117.19" y2="268"/><circle class="cls-5" cx="1348.9" cy="177.84" r="19.51"/><line class="cls-5" x1="1348.9" y1="168.06" x2="1348.9" y2="187.62"/><line class="cls-5" x1="1358.68" y1="177.84" x2="1339.12" y2="177.84"/><path class="cls-2" d="M1447.87,529.22v91.94a12.47,12.47,0,0,1-12.47,12.47h-16.75l-29.22,29.22V633.63H1285a12.47,12.47,0,0,1-12.47-12.47V529.22A12.47,12.47,0,0,1,1285,516.75H1435.4A12.47,12.47,0,0,1,1447.87,529.22Z"/><path class="cls-3" d="M1441.87,523.22v91.94a12.47,12.47,0,0,1-12.47,12.47h-16.75l-29.22,29.22V627.63H1279a12.47,12.47,0,0,1-12.47-12.47V523.22A12.47,12.47,0,0,1,1279,510.75H1429.4A12.47,12.47,0,0,1,1441.87,523.22Z"/><path class="cls-6" d="M1433,536a3.35,3.35,0,0,0-.32-.44q-10-10.18-19.92-20.34c-6.17-6.32-4-16.81,4.19-19.81a11.17,11.17,0,0,1,12.09,2.51c1.27,1.17,2.43,2.45,3.63,3.68a4.84,4.84,0,0,1,.33.46l1.77-1.73a43.37,43.37,0,0,1,3.16-3.06,11.65,11.65,0,0,1,18.7,6.64,11.48,11.48,0,0,1-3.07,11.15c-6.72,6.93-13.52,13.8-20.29,20.69C1433.25,535.76,1433.19,535.8,1433,536Z"/><line class="cls-4" x1="1281.45" y1="525.36" x2="1312.75" y2="525.36"/><line class="cls-4" x1="1392.01" y1="550.41" x2="1418.35" y2="550.41"/><line class="cls-4" x1="1349.9" y1="550.41" x2="1379.73" y2="550.41"/><line class="cls-4" x1="1281.45" y1="550.41" x2="1337.62" y2="550.41"/><line class="cls-4" x1="1325.22" y1="562.93" x2="1393.97" y2="562.93"/><line class="cls-4" x1="1281.45" y1="562.93" x2="1312.94" y2="562.93"/><line class="cls-4" x1="1366.86" y1="575.45" x2="1401.75" y2="575.45"/><line class="cls-4" x1="1335.25" y1="575.45" x2="1354.58" y2="575.45"/><line class="cls-4" x1="1281.45" y1="575.45" x2="1322.97" y2="575.45"/><line class="cls-4" x1="1351.06" y1="587.97" x2="1393.97" y2="587.97"/><line class="cls-4" x1="1305.3" y1="587.97" x2="1338.78" y2="587.97"/><line class="cls-4" x1="1281.45" y1="587.97" x2="1293.02" y2="587.97"/><line class="cls-4" x1="1335.42" y1="600.5" x2="1408.36" y2="600.5"/><line class="cls-4" x1="1281.45" y1="600.5" x2="1323.14" y2="600.5"/><line class="cls-4" x1="1320.38" y1="613.02" x2="1337.62" y2="613.02"/><line class="cls-4" x1="1281.45" y1="613.02" x2="1308.1" y2="613.02"/><path class="cls-7" d="M953.43,579.09a85.58,85.58,0,1,1,171.16,0"/><rect class="cls-8" x="902.8" y="640.94" width="272.42" height="146.05"/><path class="cls-9" d="M1037,681.75h8.16a26,26,0,0,1,26,26V787a0,0,0,0,1,0,0H1011a0,0,0,0,1,0,0V707.76A26,26,0,0,1,1037,681.75Z"/><path class="cls-10" d="M954.08,664.68h5.55a17.71,17.71,0,0,1,17.71,17.71v80.87a0,0,0,0,1,0,0h-41a0,0,0,0,1,0,0V682.39a17.71,17.71,0,0,1,17.71-17.71Z"/><path class="cls-9" d="M1121.81,664.68h5.55a17.71,17.71,0,0,1,17.71,17.71v80.87a0,0,0,0,1,0,0h-41a0,0,0,0,1,0,0V682.39a17.71,17.71,0,0,1,17.71-17.71Z"/><path class="cls-11" d="M1233.4,411.3s11.46-16.51-3.05-26.11-26.25-24.77-26.25-30.34c0,5.57-11.75,20.75-26.25,30.34s-3,26.11-3,26.11Z"/><rect class="cls-8" x="1175.31" y="411.3" width="57.8" height="375.7"/><rect class="cls-5" x="1166.04" y="468.54" width="76.34" height="24.48"/><rect class="cls-5" x="1166.04" y="550.27" width="76.34" height="24.48"/><rect class="cls-5" x="942.72" y="579.09" width="192.57" height="24.48"/><rect class="cls-7" x="953.43" y="603.57" width="171.15" height="37.06"/><line class="cls-4" x1="1039.01" y1="493.51" x2="1039.01" y2="460.76"/><polygon class="cls-12" points="1124.59 603.57 953.43 618.14 953.43 603.57 1124.59 603.57"/><polygon class="cls-12" points="1175.22 640.94 902.8 652.76 902.8 640.94 1175.22 640.94"/><polygon class="cls-12" points="1233.11 574.75 1175.22 574.75 1175.22 585.89 1233.11 574.75"/><polygon class="cls-12" points="1233.11 493.59 1175.22 493.59 1175.22 504.72 1233.11 493.59"/><polygon class="cls-13" points="1233.11 411.3 1175.22 411.3 1175.22 422.43 1233.11 411.3"/><line class="cls-4" x1="676.17" y1="736.97" x2="861.88" y2="736.97"/><line class="cls-4" x1="744.99" y1="736.97" x2="744.99" y2="409.27"/><path class="cls-14" d="M607.17,456.66c45.94-17.52,91.88,18.69,137.82,1.18V429.9c-45.94,17.51-91.88-18.69-137.82-1.18Z"/><path class="cls-15" d="M607.17,484.59c45.94-17.51,91.88,18.7,137.82,1.19V457.84c-45.94,17.51-91.88-18.7-137.82-1.18Z"/><path class="cls-16" d="M607.17,512.53c45.94-17.51,91.88,18.7,137.82,1.19V485.78c-45.94,17.51-91.88-18.7-137.82-1.19Z"/><rect class="cls-7" x="818.72" y="759.38" width="188.45" height="54.79"/><polygon class="cls-12" points="1007.17 759.38 818.72 772.97 818.72 759.38 1007.17 759.38"/><polygon class="cls-17" points="967.05 502.87 912.95 458.04 858.84 502.87 833.93 562.64 991.96 562.64 967.05 502.87"/><polygon class="cls-6" points="976.26 562.64 849.63 562.64 807.29 759.38 1018.6 759.38 976.26 562.64"/><polygon class="cls-12" points="976.26 562.64 849.63 562.64 846.09 579.09 976.26 562.64"/><rect class="cls-9" x="893.44" y="744.44" width="39.02" height="69.73"/><rect class="cls-9" x="893.44" y="668.48" width="39.02" height="42.34"/><rect class="cls-9" x="893.44" y="595.01" width="39.02" height="42.34"/><circle class="cls-18" cx="912.74" cy="522.68" r="16.5"/><circle class="cls-6" cx="912.74" cy="518.74" r="16.5"/><line class="cls-19" x1="912.19" y1="517.65" x2="1040.23" y2="718.63"/><rect class="cls-8" x="889.49" y="636.35" width="172.77" height="43.03" transform="translate(1006.36 -518.65) rotate(57.5)"/><rect class="cls-8" x="763.23" y="358.1" width="172.77" height="43.03" transform="translate(985.97 1300.13) rotate(-122.5)"/><line class="cls-19" x1="913.1" y1="519.29" x2="861.53" y2="438.34"/><line class="cls-19" x1="912.19" y1="517.65" x2="711.21" y2="645.69"/><polygon class="cls-8" points="834.91 517.3 689.2 610.13 711.21 645.69 856.09 553.39 834.91 517.3"/><rect class="cls-8" x="965.49" y="434.09" width="172.77" height="43.03" transform="translate(-80.06 636.53) rotate(-32.5)"/><line class="cls-19" x1="912.19" y1="519.09" x2="993.14" y2="467.52"/><line class="cls-20" x1="866.87" y1="814.17" x2="724.08" y2="814.17"/><path class="cls-4" d="M824,853.31c11.68,0,11.68,10,23.37,10s11.68-10,23.36-10,11.69,10,23.37,10,11.69-10,23.37-10,11.69,10,23.37,10,11.69-10,23.37-10,11.69,10,23.37,10,11.69-10,23.38-10,11.68,10,23.37,10,11.68-10,23.37-10"/><path class="cls-4" d="M684.48,880.7c11.68,0,11.68,10,23.37,10s11.68-10,23.36-10,11.69,10,23.37,10,11.69-10,23.37-10,11.69,10,23.37,10,11.69-10,23.37-10,11.69,10,23.37,10,11.69-10,23.38-10,11.68,10,23.37,10,11.68-10,23.37-10,11.69,10,23.38,10,11.69-10,23.38-10,11.69,10,23.38,10"/><polygon class="cls-17" points="749.4 665.06 765.05 651.05 780.42 665.04 765.05 677.1 749.4 665.06"/><path class="cls-17" d="M794.08,655.93s7.88,47.42-27.81,47.42S736,655.93,736,655.93l29.09,21.16Z"/><line class="cls-19" x1="766.27" y1="703.35" x2="766.27" y2="814.17"/><path class="cls-5" d="M766.27,746.15s3.52-21.32,29.21-22.57C795.48,723.58,795.89,749.11,766.27,746.15Z"/><path class="cls-5" d="M737.05,749.87s3.53,21.32,29.22,22.57C766.27,772.44,766.68,746.91,737.05,749.87Z"/><circle class="cls-4" cx="1099.64" cy="895.13" r="34.4"/><circle class="cls-4" cx="1230.29" cy="895.13" r="34.4"/><path class="cls-4" d="M1099.64,895.13l26.07-81.3a14.16,14.16,0,0,1,13.47-9.81h11.48"/><polygon class="cls-4" points="1119.5 833.36 1200.4 833.36 1230.29 895.13 1173.22 895.13 1119.5 833.36"/><line class="cls-4" x1="1173.22" y1="895.13" x2="1205.64" y2="821.47"/><line class="cls-4" x1="1185.46" y1="817.72" x2="1218.04" y2="817.72"/><polygon class="cls-17" points="673.67 703.03 689.32 689.02 704.68 703.01 689.32 715.07 673.67 703.03"/><path class="cls-17" d="M718.34,693.9s7.89,47.43-27.81,47.43-30.3-47.43-30.3-47.43l29.09,21.17Z"/><line class="cls-19" x1="690.53" y1="741.33" x2="690.53" y2="852.15"/><path class="cls-5" d="M690.53,784.13s3.53-21.32,29.22-22.57C719.75,761.56,720.16,787.09,690.53,784.13Z"/><path class="cls-5" d="M661.32,787.84s3.53,21.33,29.21,22.57C690.53,810.41,691,784.89,661.32,787.84Z"/><polygon class="cls-17" points="1268.41 674.26 1284.06 660.25 1299.43 674.24 1284.06 686.3 1268.41 674.26"/><path class="cls-17" d="M1313.09,665.13s7.88,47.42-27.81,47.42S1255,665.13,1255,665.13l29.09,21.17Z"/><line class="cls-19" x1="1285.28" y1="712.55" x2="1285.28" y2="828.36"/><path class="cls-5" d="M1285.28,755.36s3.52-21.33,29.21-22.57C1314.49,732.79,1314.9,758.32,1285.28,755.36Z"/><path class="cls-5" d="M1256.06,759.07s3.53,21.33,29.22,22.57C1285.28,781.64,1285.69,756.11,1256.06,759.07Z"/><line class="cls-20" x1="795.36" y1="853.39" x2="595.6" y2="853.39"/><line class="cls-4" x1="1040.66" y1="929.61" x2="1288.73" y2="929.61"/><line class="cls-4" x1="1190.33" y1="950.4" x2="1256.86" y2="950.4"/><line class="cls-4" x1="1236.07" y1="828.44" x2="1356.56" y2="828.44"/><path class="cls-2" d="M725.4,556.55a4.5,4.5,0,0,0-4.5-4.5H498.06a4.51,4.51,0,0,0-4.5,4.5V663.47a4.5,4.5,0,0,0,4.5,4.5H720.9a4.49,4.49,0,0,0,4.5-4.5V629.33L764,590.69H725.4Z"/><path class="cls-3" d="M751.16,577.81l-38.64,38.64v34.14a4.49,4.49,0,0,1-4.5,4.5H485.18a4.5,4.5,0,0,1-4.5-4.5V543.67a4.51,4.51,0,0,1,4.5-4.5H708a4.5,4.5,0,0,1,4.5,4.5v34.14Z"/><line class="cls-4" x1="506.44" y1="564.93" x2="583.72" y2="564.93"/><line class="cls-4" x1="661" y1="590.69" x2="673.88" y2="590.69"/><line class="cls-4" x1="601.99" y1="590.69" x2="648.12" y2="590.69"/><line class="cls-4" x1="506.44" y1="590.69" x2="589.11" y2="590.69"/><line class="cls-4" x1="640.09" y1="603.57" x2="686.76" y2="603.57"/><line class="cls-4" x1="575.41" y1="603.57" x2="627.21" y2="603.57"/><line class="cls-4" x1="506.44" y1="603.57" x2="562.53" y2="603.57"/><line class="cls-4" x1="599.03" y1="616.45" x2="671.99" y2="616.45"/><line class="cls-4" x1="506.44" y1="616.45" x2="586.15" y2="616.45"/><line class="cls-4" x1="643.32" y1="629.33" x2="681.92" y2="629.33"/><line class="cls-4" x1="570.97" y1="629.33" x2="630.44" y2="629.33"/><line class="cls-4" x1="506.44" y1="629.33" x2="558.09" y2="629.33"/><circle class="cls-2" cx="696.05" cy="348.39" r="43.78"/><circle class="cls-8" cx="690.05" cy="342.39" r="43.78"/><path class="cls-12" d="M668,353.6a35.25,35.25,0,0,0,4.59,3.75,33.33,33.33,0,0,0,5.1,3,26.2,26.2,0,0,0,11.25,2.59,22.3,22.3,0,0,0,5.74-.72,25.49,25.49,0,0,0,2.79-.84c.89-.38,1.82-.69,2.69-1.14a34.81,34.81,0,0,0,5.1-3c.82-.55,1.61-1.17,2.41-1.75l2.32-1.9h0a.38.38,0,0,1,.51.55c-.7.74-1.41,1.47-2.14,2.18s-1.51,1.38-2.3,2a36.36,36.36,0,0,1-5.14,3.41,25.23,25.23,0,0,1-5.78,2.32,23.2,23.2,0,0,1-6.21.85,25.47,25.47,0,0,1-12-3.07,30.75,30.75,0,0,1-9.51-7.74.38.38,0,0,1,.56-.51Z"/><path class="cls-2" d="M669.63,340.8s-1.52-13.69,6.74-13.79,6.52,13.79,6.52,13.79-2.1-6.31-6.61-6.31S669.63,340.8,669.63,340.8Z"/><path class="cls-2" d="M695.7,340.8s-1.53-13.69,6.74-13.79S709,340.8,709,340.8s-2.11-6.31-6.61-6.31S695.7,340.8,695.7,340.8Z"/><path class="cls-17" d="M477.74,568.8a4.6,4.6,0,0,1,.43-.61Q492,554.07,505.83,540c8.56-8.77,5.52-23.33-5.82-27.49-6.23-2.29-11.9-1-16.78,3.49-1.76,1.61-3.37,3.39-5,5.1a4,4,0,0,0-.45.63l-2.46-2.4c-1.46-1.42-2.8-3-4.39-4.25a16.18,16.18,0,0,0-25.95,9.23,15.94,15.94,0,0,0,4.25,15.47c9.34,9.62,18.77,19.15,28.17,28.72A4.91,4.91,0,0,0,477.74,568.8Z"/><path class="cls-6" d="M510.91,497.39a2.91,2.91,0,0,1,.43-.33l24.94-13.69A12,12,0,0,0,538,463.22a11.14,11.14,0,0,0-12.28-1.09c-1.55.74-3,1.63-4.54,2.46a3.79,3.79,0,0,0-.45.34l-1.19-2.16c-.7-1.29-1.31-2.64-2.13-3.85a11.65,11.65,0,0,0-19.81.95,11.48,11.48,0,0,0-.3,11.54c4.43,8.58,8.94,17.11,13.42,25.66Z"/><path class="cls-6" d="M971.37,251.94a3.82,3.82,0,0,1,.43-.33q12.47-6.84,24.94-13.68c7.73-4.25,8.67-14.92,1.73-20.15a11.16,11.16,0,0,0-12.29-1.1c-1.55.75-3,1.64-4.54,2.47a2.87,2.87,0,0,0-.44.34l-1.2-2.17a42.18,42.18,0,0,0-2.13-3.84,11.64,11.64,0,0,0-19.8.94,11.47,11.47,0,0,0-.3,11.55c4.42,8.57,8.93,17.11,13.41,25.66C971.21,251.69,971.25,251.74,971.37,251.94Z"/><path class="cls-17" d="M476,450.53c0-.14.06-.26.1-.36q4.15-8.94,8.3-17.87a8.33,8.33,0,0,0-7.3-11.95,7.72,7.72,0,0,0-7.3,4.43c-.56,1.05-1,2.16-1.53,3.24a2.24,2.24,0,0,0-.1.37l-1.56-.72a29.78,29.78,0,0,0-2.76-1.27,8.07,8.07,0,0,0-10.67,8.65,8,8,0,0,0,4.57,6.57c6,3,12,5.88,18,8.81Z"/><path class="cls-17" d="M1394.76,242.66c0-.13.06-.25.1-.36q4.16-8.93,8.3-17.86a8.33,8.33,0,0,0-7.3-11.95,7.72,7.72,0,0,0-7.3,4.43c-.56,1.05-1,2.15-1.53,3.24a2,2,0,0,0-.1.37l-1.56-.72a29.78,29.78,0,0,0-2.76-1.27,8.07,8.07,0,0,0-10.67,8.65,7.94,7.94,0,0,0,4.57,6.56c6,3,12,5.89,18,8.82Z"/><circle class="cls-2" cx="612.44" cy="725.79" r="32.18"/><circle class="cls-8" cx="608.03" cy="721.38" r="32.18"/><path class="cls-12" d="M591.89,729.55a27.9,27.9,0,0,0,7.15,4.79,19.18,19.18,0,0,0,8.17,1.85,16.16,16.16,0,0,0,4.15-.51,20.48,20.48,0,0,0,2-.59c.65-.28,1.33-.5,2-.83a35.26,35.26,0,0,0,7.27-4.73.37.37,0,0,1,.53.05.38.38,0,0,1,0,.49,25.5,25.5,0,0,1-7,5.73,18.39,18.39,0,0,1-8.91,2.39,18.71,18.71,0,0,1-8.94-2.31,22,22,0,0,1-7-5.84.37.37,0,0,1,.07-.53.39.39,0,0,1,.49,0Z"/><path class="cls-2" d="M593,720.21s-1.12-10.07,5-10.14,4.79,10.14,4.79,10.14-1.54-4.64-4.86-4.64S593,720.21,593,720.21Z"/><path class="cls-2" d="M612.18,720.21s-1.12-10.07,5-10.14,4.79,10.14,4.79,10.14-1.54-4.64-4.86-4.64S612.18,720.21,612.18,720.21Z"/><path class="cls-2" d="M698.85,252.45H554.8a2.75,2.75,0,0,0-2.75,2.75v53.26a2.75,2.75,0,0,0,2.75,2.75h20.92l23.67,23.68V311.21h99.46a2.76,2.76,0,0,0,2.76-2.75V255.2A2.76,2.76,0,0,0,698.85,252.45Z"/><path class="cls-3" d="M693.72,300.56a2.76,2.76,0,0,1-2.76,2.76H591.5V327l-23.67-23.67H546.91a2.75,2.75,0,0,1-2.75-2.76V247.31a2.75,2.75,0,0,1,2.75-2.75H691a2.76,2.76,0,0,1,2.76,2.75Z"/><path class="cls-12" d="M573.56,281.23h-7.84l-1.23,3.94h-6.85l8.87-24.42h6.24l8.86,24.42h-6.83Zm-1.72-5.49-2.18-7h-.07l-2.18,7Z"/><path class="cls-12" d="M590.69,285.53a8.49,8.49,0,0,1-8.83-8.76c0-5.19,3.79-8.78,9.23-8.78a9.13,9.13,0,0,1,7.35,3.47l-4.08,3.48a3.91,3.91,0,0,0-3.12-1.51,3.1,3.1,0,0,0-3.21,3.29,3.18,3.18,0,0,0,3.28,3.35,3.82,3.82,0,0,0,3-1.37l4.18,3.64c-1.44,1.76-4.13,3.19-7.83,3.19Z"/><path class="cls-12" d="M606.07,285.53c-2.87,0-5.05-1.78-5.05-5.64v-6.68h-1.83v-4.87H601v-5.29l6.12-.64v5.93h3.66v4.87h-3.66v5.35c0,.79.11,1.71,1.11,1.71a3.23,3.23,0,0,0,1.24-.27l1.5,4.28a8.76,8.76,0,0,1-4.92,1.25Z"/><path class="cls-12" d="M629.87,268.34v16.83h-6.16v-1.79h-.07a5.75,5.75,0,0,1-4.58,2.15c-3.44,0-6-1.87-6-7.34v-9.85h6.12v8.38c0,2.4.64,3.39,2.2,3.39,1.3,0,2.29-1,2.29-3.31v-8.46Z"/><path class="cls-12" d="M649.11,278.26h-11c.28,1.61,1.69,2.42,3.49,2.42a5.23,5.23,0,0,0,3.88-1.87l3.17,3.49a9.77,9.77,0,0,1-7.71,3.23,8.77,8.77,0,1,1-.1-17.54,8.27,8.27,0,0,1,8.48,8.64A9,9,0,0,1,649.11,278.26Zm-11-3.34h5.24a2.54,2.54,0,0,0-2.55-2.25A2.62,2.62,0,0,0,638.08,274.92Z"/><path class="cls-12" d="M667.84,278.26H656.79c.29,1.61,1.7,2.42,3.49,2.42a5.21,5.21,0,0,0,3.88-1.87l3.17,3.49a9.75,9.75,0,0,1-7.7,3.23,8.77,8.77,0,1,1-.1-17.54,8.26,8.26,0,0,1,8.47,8.64A9,9,0,0,1,667.84,278.26Zm-11-3.34h5.24a2.56,2.56,0,0,0-2.56-2.25A2.61,2.61,0,0,0,656.81,274.92Z"/><path class="cls-12" d="M670.4,259.86h6.12v25.31H670.4Z"/><path class="cls-2" d="M700.17,761.74h-191a2.76,2.76,0,0,0-2.76,2.75v53.26a2.76,2.76,0,0,0,2.76,2.75H530l23.68,23.67V820.5H700.17a2.75,2.75,0,0,0,2.76-2.75V764.49A2.75,2.75,0,0,0,700.17,761.74Z"/><path class="cls-3" d="M695,809.85a2.75,2.75,0,0,1-2.76,2.76H545.83v23.67l-23.68-23.67H501.24a2.76,2.76,0,0,1-2.76-2.76V756.6a2.76,2.76,0,0,1,2.76-2.75h191A2.75,2.75,0,0,1,695,756.6Z"/><path class="cls-12" d="M514,770h6.63v24.42H514Z"/><path class="cls-12" d="M535.06,777.28c3.43,0,6,1.54,6,7v10.18h-6.15v-8.71c0-2.38-.67-3-2.19-3s-2.45,1-2.45,3.29v8.45H524.1V777.63h6.15v1.85h0a6.22,6.22,0,0,1,4.78-2.2Z"/><path class="cls-12" d="M549.62,794.82c-2.87,0-5-1.78-5-5.64V782.5h-1.83v-4.87h1.83v-5.29l6.13-.64v5.93h3.66v4.87H550.7v5.35c0,.79.1,1.71,1.11,1.71a3.3,3.3,0,0,0,1.24-.27l1.49,4.28a8.74,8.74,0,0,1-4.92,1.25Z"/><path class="cls-12" d="M572.26,787.55h-11c.28,1.61,1.69,2.42,3.49,2.42a5.21,5.21,0,0,0,3.88-1.87l3.17,3.49a9.76,9.76,0,0,1-7.7,3.23,8.77,8.77,0,1,1-.11-17.54,8.27,8.27,0,0,1,8.48,8.64A9,9,0,0,1,572.26,787.55Zm-11-3.34h5.23a2.54,2.54,0,0,0-2.55-2.25A2.61,2.61,0,0,0,561.24,784.21Z"/><path class="cls-12" d="M585.6,777.28v6.56c-.5,0-1,0-1.29,0-2.37,0-3.49,1.36-3.49,3.3v7.35h-6.15V777.63h6.15v2.3h0a5.65,5.65,0,0,1,4.7-2.65Z"/><path class="cls-12" d="M604.58,777.63v16.83h-5.83v-1.57h0a5.17,5.17,0,0,1-4.33,1.93c-4.61,0-7.82-3.58-7.82-8.78s3.24-8.76,7.45-8.76a5.66,5.66,0,0,1,4.37,2h0v-1.66Zm-5.89,8.43a3.1,3.1,0,0,0-3-3.38,3.07,3.07,0,0,0-3,3.38c0,2.06,1.25,3.39,3,3.39S598.69,788.12,598.69,786.06Z"/><path class="cls-12" d="M615.63,794.82a8.5,8.5,0,0,1-8.83-8.76c0-5.19,3.8-8.78,9.24-8.78a9.13,9.13,0,0,1,7.35,3.47l-4.08,3.48a3.92,3.92,0,0,0-3.12-1.51A3.1,3.1,0,0,0,613,786a3.18,3.18,0,0,0,3.27,3.35,3.84,3.84,0,0,0,3-1.37l4.18,3.64c-1.44,1.76-4.13,3.19-7.84,3.19Z"/><path class="cls-12" d="M631,794.82c-2.87,0-5-1.78-5-5.64V782.5h-1.83v-4.87H626v-5.29l6.12-.64v5.93h3.66v4.87h-3.66v5.35c0,.79.1,1.71,1.11,1.71a3.23,3.23,0,0,0,1.24-.27l1.5,4.28a8.79,8.79,0,0,1-4.92,1.25Z"/><path class="cls-12" d="M637.66,772.39a3.53,3.53,0,1,1,3.53,3.33A3.32,3.32,0,0,1,637.66,772.39Zm.45,5.24h6.13v16.83h-6.13Z"/><path class="cls-12" d="M663.74,787.55h-11c.28,1.61,1.69,2.42,3.49,2.42a5.23,5.23,0,0,0,3.88-1.87l3.17,3.49a9.77,9.77,0,0,1-7.71,3.23,8.77,8.77,0,1,1-.1-17.54,8.27,8.27,0,0,1,8.48,8.64A9,9,0,0,1,663.74,787.55Zm-11-3.34H658A2.55,2.55,0,0,0,655.4,782,2.62,2.62,0,0,0,652.71,784.21Z"/><path class="cls-12" d="M666.59,782.5h-1.53v-4.87h1.53v-2.4c0-4.36,2.36-6.43,5.77-6.43a8.24,8.24,0,0,1,4.68,1.38l-1,4.16a4.57,4.57,0,0,0-1.78-.45c-.83,0-1.46.28-1.46,1.42v2.32h2.75v4.87h-2.75v12h-6.16Z"/><path class="cls-2" d="M926,221.77h-180a2.77,2.77,0,0,0-2.76,2.76v86.25a2.77,2.77,0,0,0,2.76,2.76h20.92l23.67,23.67V313.54H926a2.76,2.76,0,0,0,2.75-2.76V224.53A2.76,2.76,0,0,0,926,221.77Z"/><path class="cls-3" d="M920.85,302.89a2.76,2.76,0,0,1-2.75,2.76H782.64v23.67L759,305.65H738.05a2.77,2.77,0,0,1-2.76-2.76V216.64a2.77,2.77,0,0,1,2.76-2.76H918.1a2.76,2.76,0,0,1,2.75,2.76Z"/><path class="cls-12" d="M750.66,230.08h8.8c7.72,0,12.67,5,12.67,12.25s-4.65,12.17-12.57,12.17h-8.9Zm8.48,18.61a6.06,6.06,0,0,0,6.14-6.36c0-3.64-2.48-6.43-5.69-6.43H757v12.79Z"/><path class="cls-12" d="M791.19,237.66V254.5H785v-1.8H785a5.75,5.75,0,0,1-4.58,2.15c-3.44,0-6-1.86-6-7.33v-9.86h6.13V246c0,2.4.63,3.39,2.2,3.39,1.29,0,2.28-1,2.28-3.31v-8.46Z"/><path class="cls-12" d="M793.82,232.43a3.53,3.53,0,1,1,3.52,3.32A3.32,3.32,0,0,1,793.82,232.43Zm.45,5.23h6.13V254.5h-6.13Z"/><path class="cls-12" d="M821,229.19V254.5h-5.83v-1.58h-.07a5.4,5.4,0,0,1-4.46,1.93c-4.62,0-7.82-3.57-7.82-8.78s3.24-8.76,7.45-8.76a5.89,5.89,0,0,1,4.51,2h.05V229.19Zm-5.9,16.9a3.11,3.11,0,0,0-3.1-3.37,3.07,3.07,0,0,0-3,3.37c0,2.06,1.26,3.39,3,3.39A3.1,3.1,0,0,0,815.11,246.09Z"/><path class="cls-12" d="M840.33,247.58h-11c.28,1.61,1.69,2.42,3.49,2.42a5.2,5.2,0,0,0,3.88-1.86l3.17,3.49a9.79,9.79,0,0,1-7.7,3.22,8.77,8.77,0,1,1-.1-17.54A8.27,8.27,0,0,1,840.5,246,8.91,8.91,0,0,1,840.33,247.58Zm-11-3.34h5.23A2.54,2.54,0,0,0,832,242,2.61,2.61,0,0,0,829.31,244.24Z"/><path class="cls-12" d="M842.89,229.19H849V254.5h-6.13Z"/><path class="cls-12" d="M851.9,232.43a3.53,3.53,0,1,1,3.53,3.32A3.33,3.33,0,0,1,851.9,232.43Zm.46,5.23h6.13V254.5h-6.13Z"/><path class="cls-12" d="M862.22,261.63a11.91,11.91,0,0,1-4.12-.62l1-4.73a4.6,4.6,0,0,0,1.41.25c1.09,0,1.18-.76,1.18-2V237.66h6.12v17.53c0,4.34-1.84,6.44-5.59,6.44Zm-1-29.2a3.53,3.53,0,1,1,3.52,3.32A3.32,3.32,0,0,1,861.27,232.43Z"/><path class="cls-12" d="M878.27,248.77,877,250.24v4.26h-6.14V229.19H877v13h0l3.9-4.55h7l-5.64,6.45,5.82,10.39h-6.76l-3.08-5.73Z"/><path class="cls-12" d="M904.78,247.58h-11c.28,1.61,1.69,2.42,3.49,2.42a5.22,5.22,0,0,0,3.88-1.86l3.17,3.49a9.8,9.8,0,0,1-7.71,3.22,8.77,8.77,0,1,1-.1-17.54A8.28,8.28,0,0,1,905,246,8.91,8.91,0,0,1,904.78,247.58Zm-11-3.34H899a2.54,2.54,0,0,0-2.55-2.25A2.62,2.62,0,0,0,893.75,244.24Z"/><path class="cls-12" d="M756,288.09a10,10,0,0,1-6.88-2.52l2.78-3.79a6.73,6.73,0,0,0,4.22,1.91c.84,0,1.24-.25,1.24-.69s-.22-.7-2.3-1.31c-2.85-.82-5.34-2.28-5.34-5.49,0-3.69,3-5.65,6.46-5.65a10.51,10.51,0,0,1,6.58,2.13l-2.83,4.08a5.42,5.42,0,0,0-3.54-1.73c-.54,0-1.06.2-1.06.69,0,.33.4.63,2.08,1.17,3.83,1.23,5.69,2.33,5.69,5.62s-2.33,5.58-7.1,5.58Z"/><path class="cls-12" d="M771,288.09c-2.87,0-5-1.78-5-5.64v-6.68h-1.83V270.9H766v-5.29l6.13-.64v5.93h3.66v4.87h-3.66v5.35c0,.79.1,1.71,1.1,1.71a3.31,3.31,0,0,0,1.25-.27l1.49,4.28a8.74,8.74,0,0,1-4.92,1.25Z"/><path class="cls-12" d="M789.22,270.55v6.56c-.5,0-1,0-1.29,0-2.37,0-3.49,1.36-3.49,3.3v7.35H778.3V270.9h6.14v2.3h0a5.67,5.67,0,0,1,4.7-2.65Z"/><path class="cls-12" d="M807.63,270.9v16.83h-6.16v-1.79h-.07a5.73,5.73,0,0,1-4.58,2.15c-3.44,0-6-1.87-6-7.34V270.9H797v8.38c0,2.4.64,3.39,2.2,3.39,1.29,0,2.28-1,2.28-3.31V270.9Z"/><path class="cls-12" d="M818.67,288.09a8.49,8.49,0,0,1-8.83-8.76c0-5.19,3.79-8.78,9.23-8.78a9.12,9.12,0,0,1,7.35,3.47l-4.08,3.48a3.89,3.89,0,0,0-3.12-1.51,3.09,3.09,0,0,0-3.2,3.29,3.17,3.17,0,0,0,3.27,3.35,3.84,3.84,0,0,0,3-1.37l4.18,3.64c-1.45,1.76-4.13,3.19-7.84,3.19Z"/><path class="cls-12" d="M834.05,288.09c-2.87,0-5-1.78-5-5.64v-6.68h-1.83V270.9H829v-5.29l6.13-.64v5.93h3.66v4.87h-3.66v5.35c0,.79.1,1.71,1.11,1.71a3.3,3.3,0,0,0,1.24-.27l1.49,4.28a8.74,8.74,0,0,1-4.92,1.25Z"/><path class="cls-12" d="M857.85,270.9v16.83h-6.16v-1.79h-.07a5.74,5.74,0,0,1-4.58,2.15c-3.44,0-6-1.87-6-7.34V270.9h6.13v8.38c0,2.4.64,3.39,2.2,3.39,1.29,0,2.28-1,2.28-3.31V270.9Z"/><path class="cls-12" d="M877.31,270.9v16.83h-6.16v-1.79h-.06a5.76,5.76,0,0,1-4.59,2.15c-3.44,0-6-1.87-6-7.34V270.9h6.12v8.38c0,2.4.64,3.39,2.2,3.39,1.29,0,2.28-1,2.28-3.31V270.9Z"/><path class="cls-12" d="M891.17,270.55v6.56c-.5,0-1,0-1.29,0-2.37,0-3.49,1.36-3.49,3.3v7.35h-6.15V270.9h6.15v2.3h.05a5.65,5.65,0,0,1,4.7-2.65Z"/><path class="cls-2" d="M1185.45,799H980.4a2.76,2.76,0,0,0-2.75,2.76V855a2.76,2.76,0,0,0,2.75,2.76h20.92L1025,881.45V857.78h160.46a2.76,2.76,0,0,0,2.76-2.76V801.77A2.76,2.76,0,0,0,1185.45,799Z"/><path class="cls-3" d="M1180.32,847.13a2.75,2.75,0,0,1-2.76,2.75H1017.1v23.68l-23.67-23.68H972.51a2.75,2.75,0,0,1-2.75-2.75V793.88a2.76,2.76,0,0,1,2.75-2.76h205a2.76,2.76,0,0,1,2.76,2.76Z"/><path class="cls-12" d="M1006.88,807.32,998,831.74h-5.74l-8.93-24.42h7.1l4.63,15.1h.09l4.7-15.1Z"/><path class="cls-12" d="M1022.16,824.82h-11c.28,1.62,1.69,2.42,3.49,2.42a5.2,5.2,0,0,0,3.88-1.86l3.17,3.49a9.79,9.79,0,0,1-7.7,3.22,8.77,8.77,0,1,1-.11-17.54,8.28,8.28,0,0,1,8.48,8.65A8.91,8.91,0,0,1,1022.16,824.82Zm-11-3.34h5.23a2.54,2.54,0,0,0-2.55-2.25A2.61,2.61,0,0,0,1011.14,821.48Z"/><path class="cls-12" d="M1024.72,806.43h6.13v25.31h-6.13Z"/><path class="cls-12" d="M1050.35,824.82h-11c.28,1.62,1.69,2.42,3.49,2.42a5.22,5.22,0,0,0,3.88-1.86l3.17,3.49a9.8,9.8,0,0,1-7.71,3.22,8.77,8.77,0,0,1-.1-17.54,8.28,8.28,0,0,1,8.48,8.65A8.91,8.91,0,0,1,1050.35,824.82Zm-11-3.34h5.24a2.54,2.54,0,0,0-2.55-2.25A2.62,2.62,0,0,0,1039.32,821.48Z"/><path class="cls-12" d="M1077,824.82h-11c.28,1.62,1.69,2.42,3.49,2.42a5.2,5.2,0,0,0,3.88-1.86l3.17,3.49a9.79,9.79,0,0,1-7.7,3.22,8.77,8.77,0,1,1-.11-17.54,8.28,8.28,0,0,1,8.48,8.65A8.91,8.91,0,0,1,1077,824.82Zm-11-3.34h5.23a2.54,2.54,0,0,0-2.55-2.25A2.61,2.61,0,0,0,1065.94,821.48Z"/><path class="cls-12" d="M1086,828.11h-.08l-2.39,3.63H1077l5.52-8.71-5.42-8.13h6.81l2,3.58h.06l2-3.58h6.8l-5.45,8.14,5.57,8.7h-6.55Z"/><path class="cls-12" d="M1102.16,832.09c-2.87,0-5.05-1.78-5.05-5.64v-6.68h-1.83V814.9h1.83v-5.28l6.13-.64v5.92h3.65v4.87h-3.65v5.36c0,.78.1,1.71,1.1,1.71a3.52,3.52,0,0,0,1.25-.27l1.49,4.28a8.83,8.83,0,0,1-4.92,1.24Z"/><path class="cls-12" d="M1120.35,814.55v6.56c-.5,0-1,0-1.29,0-2.37,0-3.49,1.36-3.49,3.31v7.35h-6.15V814.9h6.15v2.3h0a5.69,5.69,0,0,1,4.7-2.65Z"/><path class="cls-12" d="M1139.33,814.9v16.84h-5.82v-1.58h0a5.19,5.19,0,0,1-4.33,1.93c-4.62,0-7.83-3.57-7.83-8.78s3.24-8.76,7.46-8.76a5.63,5.63,0,0,1,4.36,2h.05V814.9Zm-5.89,8.43a3,3,0,1,0-5.94,0c0,2.06,1.26,3.39,3,3.39S1133.44,825.39,1133.44,823.33Z"/><path class="cls-12" d="M1142.66,807.32h5.89l-2.5,9.58h-4.38Z"/><path class="cls-12" d="M1156.27,832.09a10,10,0,0,1-6.88-2.52l2.79-3.79a6.66,6.66,0,0,0,4.21,1.91c.84,0,1.24-.25,1.24-.68s-.22-.71-2.3-1.31c-2.85-.83-5.33-2.29-5.33-5.49,0-3.69,3-5.66,6.46-5.66a10.55,10.55,0,0,1,6.58,2.13l-2.84,4.08a5.4,5.4,0,0,0-3.54-1.73c-.54,0-1.06.2-1.06.69,0,.34.4.64,2.08,1.18,3.83,1.22,5.69,2.33,5.69,5.62s-2.33,5.57-7.1,5.57Z"/><path class="cls-2" d="M1269.74,691.21h216.14a2.76,2.76,0,0,1,2.76,2.75v53.26a2.76,2.76,0,0,1-2.76,2.75H1465l-23.68,23.68V750H1269.74a2.75,2.75,0,0,1-2.76-2.75V694A2.76,2.76,0,0,1,1269.74,691.21Z"/><path class="cls-3" d="M1274.87,739.32a2.75,2.75,0,0,0,2.76,2.76h171.55v23.67l23.68-23.67h20.91a2.76,2.76,0,0,0,2.76-2.76V686.07a2.76,2.76,0,0,0-2.76-2.75H1277.63a2.75,2.75,0,0,0-2.76,2.75Z"/><path class="cls-12" d="M1290,699.51h6.61v9.74h7.37v-9.74h6.61v24.43h-6.61V715h-7.37v8.9H1290Z"/><path class="cls-12" d="M1330.19,717h-11c.29,1.61,1.7,2.42,3.49,2.42a5.18,5.18,0,0,0,3.88-1.87l3.17,3.5a9.78,9.78,0,0,1-7.7,3.22,8.77,8.77,0,1,1-.1-17.54,8.26,8.26,0,0,1,8.47,8.64A8.92,8.92,0,0,1,1330.19,717Zm-11-3.34h5.24a2.56,2.56,0,0,0-2.56-2.25A2.61,2.61,0,0,0,1319.16,713.68Z"/><path class="cls-12" d="M1332.75,698.63h6.13v25.31h-6.13Z"/><path class="cls-12" d="M1359.48,698.63v25.31h-5.82v-1.58h-.07a5.4,5.4,0,0,1-4.46,1.93c-4.62,0-7.82-3.58-7.82-8.78s3.24-8.76,7.45-8.76a5.9,5.9,0,0,1,4.51,2h0V698.63Zm-5.89,16.9a3.12,3.12,0,0,0-3.1-3.38,3.08,3.08,0,0,0-3,3.38c0,2.06,1.26,3.39,3,3.39A3.1,3.1,0,0,0,1353.59,715.53Z"/><path class="cls-12" d="M1378.81,717h-11c.28,1.61,1.69,2.42,3.49,2.42a5.19,5.19,0,0,0,3.88-1.87l3.17,3.5a9.8,9.8,0,0,1-7.71,3.22,8.77,8.77,0,0,1-.1-17.54,8.27,8.27,0,0,1,8.48,8.64A8.93,8.93,0,0,1,1378.81,717Zm-11-3.34H1373a2.54,2.54,0,0,0-2.55-2.25A2.62,2.62,0,0,0,1367.78,713.68Z"/><path class="cls-12" d="M1392.15,706.75v6.56c-.5,0-1,0-1.29,0-2.37,0-3.49,1.36-3.49,3.3v7.36h-6.15V707.1h6.15v2.3h.05a5.64,5.64,0,0,1,4.7-2.65Z"/><path class="cls-12" d="M1410,717h-11c.28,1.61,1.69,2.42,3.49,2.42a5.16,5.16,0,0,0,3.87-1.87l3.18,3.5a9.81,9.81,0,0,1-7.71,3.22,8.77,8.77,0,1,1-.1-17.54,8.27,8.27,0,0,1,8.48,8.64A8.93,8.93,0,0,1,1410,717Zm-11-3.34h5.24a2.55,2.55,0,0,0-2.55-2.25A2.62,2.62,0,0,0,1399,713.68Z"/><path class="cls-12" d="M1426,724.29c-2.87,0-5-1.78-5-5.64V712h-1.83V707.1H1421v-5.29l6.12-.63v5.92h3.66V712h-3.66v5.35c0,.79.11,1.72,1.11,1.72a3.43,3.43,0,0,0,1.24-.27l1.5,4.28a8.85,8.85,0,0,1-4.92,1.24Z"/><path class="cls-12" d="M1449.77,707.1v16.84H1444v-1.58h0a5.19,5.19,0,0,1-4.33,1.93c-4.62,0-7.83-3.58-7.83-8.78s3.24-8.76,7.46-8.76a5.65,5.65,0,0,1,4.36,2h0V707.1Zm-5.89,8.43a3,3,0,1,0-5.94,0c0,2.06,1.26,3.39,3,3.39S1443.88,717.59,1443.88,715.53Z"/><path class="cls-12" d="M1470,707.1v16.84h-5.82v-1.58h-.05a5.19,5.19,0,0,1-4.33,1.93c-4.62,0-7.83-3.58-7.83-8.78s3.24-8.76,7.46-8.76a5.65,5.65,0,0,1,4.36,2h0V707.1Zm-5.89,8.43a3,3,0,1,0-5.94,0c0,2.06,1.26,3.39,3,3.39S1464.08,717.59,1464.08,715.53Z"/><path class="cls-12" d="M1473.07,698.63h6.13v25.31h-6.13Z"/><path class="cls-2" d="M412.42,650H592.57a2.76,2.76,0,0,1,2.75,2.76V706a2.75,2.75,0,0,1-2.75,2.75H571.65L548,732.43V708.75H412.42a2.76,2.76,0,0,1-2.76-2.75V652.75A2.77,2.77,0,0,1,412.42,650Z"/><path class="cls-3" d="M417.56,698.11a2.75,2.75,0,0,0,2.75,2.75H555.87v23.68l23.67-23.68h20.92a2.76,2.76,0,0,0,2.76-2.75V644.85a2.76,2.76,0,0,0-2.76-2.75H420.31a2.75,2.75,0,0,0-2.75,2.75Z"/><path class="cls-12" d="M443.6,683.07c-6.8,0-12.74-4.36-12.74-12.51,0-7,4.6-12.62,12.74-12.62a13,13,0,0,1,9.95,4.72l-4.78,4.09a7.24,7.24,0,0,0-5.17-2.51c-3,0-5.86,2.18-5.86,6.32,0,3.31,2.2,6.21,5.86,6.21a7,7,0,0,0,5.17-2.48l4.78,4.11a12.79,12.79,0,0,1-9.95,4.67Z"/><path class="cls-12" d="M454.72,674.31c0-5.19,3.79-8.78,9.23-8.78s9.23,3.59,9.23,8.78-3.81,8.76-9.23,8.76S454.72,679.49,454.72,674.31Zm9.23,3.34a3.13,3.13,0,0,0,3.06-3.34,3.07,3.07,0,1,0-6.11,0,3.12,3.12,0,0,0,3.05,3.34Z"/><path class="cls-12" d="M502.52,672.86v9.86h-6.13v-8.46c0-1.82-.4-3.29-2-3.29-1.24,0-2.23,1-2.23,3.29v8.46H486v-8.46c0-1.82-.42-3.29-2-3.29-1.34,0-2.33,1-2.33,3.29v8.46h-6.14V665.88h6.14v1.91h0a5.67,5.67,0,0,1,4.52-2.26,5.28,5.28,0,0,1,4.83,2.38h.05a6.82,6.82,0,0,1,5.46-2.38C500,665.53,502.52,667.41,502.52,672.86Z"/><path class="cls-12" d="M523.57,674.29c0,5.2-3.21,8.78-7.82,8.78a5.37,5.37,0,0,1-4.18-1.81h-.05v8.25h-6.13V665.88h6.16v1.7h.05a5.85,5.85,0,0,1,4.52-2.05C520.33,665.53,523.57,669.12,523.57,674.29Zm-6.19,0a3.08,3.08,0,0,0-3-3.38,3.4,3.4,0,0,0,0,6.77C516.12,677.7,517.38,676.37,517.38,674.31Z"/><path class="cls-12" d="M526,657.41h6.13v25.31H526Z"/><path class="cls-12" d="M551.64,675.8h-11c.28,1.61,1.69,2.42,3.49,2.42a5.2,5.2,0,0,0,3.87-1.86l3.18,3.49a9.81,9.81,0,0,1-7.71,3.22,8.77,8.77,0,1,1-.1-17.54,8.27,8.27,0,0,1,8.48,8.64A8.93,8.93,0,0,1,551.64,675.8Zm-11-3.34h5.24a2.55,2.55,0,0,0-2.55-2.25A2.62,2.62,0,0,0,540.61,672.46Z"/><path class="cls-12" d="M570.37,675.8h-11c.29,1.61,1.7,2.42,3.49,2.42a5.2,5.2,0,0,0,3.88-1.86l3.17,3.49a9.78,9.78,0,0,1-7.7,3.22,8.77,8.77,0,1,1-.1-17.54,8.27,8.27,0,0,1,8.47,8.64A8.92,8.92,0,0,1,570.37,675.8Zm-11-3.34h5.23a2.54,2.54,0,0,0-2.55-2.25A2.61,2.61,0,0,0,559.34,672.46Z"/><path class="cls-12" d="M578.5,683.07c-2.87,0-5-1.78-5-5.64v-6.68h-1.83v-4.87h1.83v-5.29l6.12-.63v5.92h3.66v4.87h-3.66v5.35c0,.79.1,1.72,1.11,1.72a3.43,3.43,0,0,0,1.24-.27l1.5,4.28a8.88,8.88,0,0,1-4.92,1.24Z"/><path class="cls-2" d="M1110.19,479.48h171.15a2.75,2.75,0,0,1,2.75,2.75v53.25a2.75,2.75,0,0,1-2.75,2.76h-20.92l-23.67,23.67V538.24H1110.19a2.75,2.75,0,0,1-2.76-2.76V482.23A2.75,2.75,0,0,1,1110.19,479.48Z"/><path class="cls-3" d="M1115.32,527.59a2.76,2.76,0,0,0,2.76,2.76h126.56V554l23.67-23.67h20.92a2.75,2.75,0,0,0,2.75-2.76V474.34a2.75,2.75,0,0,0-2.75-2.75H1118.08a2.76,2.76,0,0,0-2.76,2.75Z"/><path class="cls-12" d="M1141.37,512.56c-6.8,0-12.74-4.37-12.74-12.51,0-7,4.6-12.62,12.74-12.62a13,13,0,0,1,10,4.72l-4.78,4.09a7.26,7.26,0,0,0-5.17-2.51c-3,0-5.86,2.18-5.86,6.32,0,3.31,2.2,6.21,5.86,6.21a7,7,0,0,0,5.17-2.48l4.78,4.11a12.81,12.81,0,0,1-10,4.67Z"/><path class="cls-12" d="M1152.49,503.8c0-5.19,3.79-8.78,9.23-8.78s9.23,3.59,9.23,8.78-3.81,8.76-9.23,8.76S1152.49,509,1152.49,503.8Zm9.23,3.34a3.12,3.12,0,0,0,3-3.34,3.07,3.07,0,1,0-6.11,0,3.13,3.13,0,0,0,3.06,3.34Z"/><path class="cls-12" d="M1200.28,502.35v9.86h-6.12v-8.46c0-1.82-.41-3.29-2-3.29-1.25,0-2.24,1-2.24,3.29v8.46h-6.14v-8.46c0-1.82-.42-3.29-2-3.29-1.34,0-2.33,1-2.33,3.29v8.46h-6.15V495.37h6.15v1.91h0a5.66,5.66,0,0,1,4.52-2.26,5.28,5.28,0,0,1,4.83,2.38h0a6.81,6.81,0,0,1,5.45-2.38C1197.77,495,1200.28,496.9,1200.28,502.35Z"/><path class="cls-12" d="M1221.34,503.78c0,5.2-3.21,8.78-7.82,8.78a5.36,5.36,0,0,1-4.18-1.81h0V519h-6.13V495.37h6.16v1.7h0a5.83,5.83,0,0,1,4.51-2.05C1218.1,495,1221.34,498.61,1221.34,503.78Zm-6.2,0a3.07,3.07,0,0,0-3-3.38,3.4,3.4,0,0,0,0,6.77C1213.88,507.19,1215.14,505.86,1215.14,503.8Z"/><path class="cls-12" d="M1240.88,495.37v16.84h-5.82v-1.58h0a5.19,5.19,0,0,1-4.33,1.93c-4.62,0-7.82-3.58-7.82-8.78s3.24-8.76,7.45-8.76a5.64,5.64,0,0,1,4.36,2h0v-1.66ZM1235,503.8a3,3,0,1,0-5.94,0c0,2.06,1.26,3.39,3,3.39S1235,505.86,1235,503.8Z"/><path class="cls-12" d="M1251.94,512.56a8.49,8.49,0,0,1-8.83-8.76c0-5.19,3.79-8.78,9.23-8.78a9.13,9.13,0,0,1,7.35,3.47l-4.08,3.48a3.89,3.89,0,0,0-3.12-1.51,3.09,3.09,0,0,0-3.2,3.29,3.17,3.17,0,0,0,3.27,3.35,3.84,3.84,0,0,0,3-1.37l4.18,3.64c-1.45,1.76-4.13,3.19-7.84,3.19Z"/><path class="cls-12" d="M1267.32,512.56c-2.87,0-5-1.78-5-5.64v-6.68h-1.83v-4.87h1.83v-5.29l6.13-.63v5.92h3.66v4.87h-3.66v5.35c0,.79.1,1.71,1.11,1.71a3.46,3.46,0,0,0,1.24-.26l1.49,4.28a8.83,8.83,0,0,1-4.92,1.24Z"/><path class="cls-2" d="M822.48,342.34h244.14a2.76,2.76,0,0,1,2.76,2.75v53.25a2.76,2.76,0,0,1-2.76,2.76h-20.91L1022,424.77V401.1H822.48a2.75,2.75,0,0,1-2.76-2.76V345.09A2.75,2.75,0,0,1,822.48,342.34Z"/><path class="cls-3" d="M827.61,390.45a2.75,2.75,0,0,0,2.76,2.76h199.55v23.67l23.68-23.67h20.91a2.76,2.76,0,0,0,2.76-2.76V337.2a2.77,2.77,0,0,0-2.76-2.76H830.37a2.76,2.76,0,0,0-2.76,2.76Z"/><path class="cls-12" d="M841.65,350.64h16.23v5.83H848v3.67h7.76v5.68H848v3.44h10.63v5.8h-17Z"/><path class="cls-12" d="M861.6,363.1h-1.52v-4.87h1.52v-2.4c0-4.37,2.37-6.43,5.78-6.43a8.28,8.28,0,0,1,4.68,1.38L871,354.94a4.51,4.51,0,0,0-1.78-.46c-.82,0-1.46.29-1.46,1.43v2.32h2.76v4.87h-2.76v12H861.6Z"/><path class="cls-12" d="M873.6,363.1h-1.53v-4.87h1.53v-2.4c0-4.37,2.37-6.43,5.77-6.43a8.32,8.32,0,0,1,4.69,1.38L883,354.94a4.6,4.6,0,0,0-1.78-.46c-.82,0-1.46.29-1.46,1.43v2.32h2.75v4.87h-2.75v12H873.6Z"/><path class="cls-12" d="M900.23,368.15h-11c.29,1.61,1.7,2.42,3.49,2.42a5.21,5.21,0,0,0,3.88-1.87l3.17,3.49a9.76,9.76,0,0,1-7.7,3.23,8.77,8.77,0,1,1-.1-17.54,8.57,8.57,0,0,1,8.3,10.27Zm-11-3.34h5.23a2.54,2.54,0,0,0-2.55-2.25A2.61,2.61,0,0,0,889.21,364.81Z"/><path class="cls-12" d="M910.75,375.42a8.5,8.5,0,0,1-8.83-8.77c0-5.18,3.8-8.77,9.23-8.77a9.15,9.15,0,0,1,7.36,3.47l-4.08,3.47a4,4,0,0,0-3.12-1.51,3.1,3.1,0,0,0-3.21,3.29,3.18,3.18,0,0,0,3.27,3.36,3.81,3.81,0,0,0,3-1.38l4.18,3.65c-1.44,1.76-4.13,3.19-7.84,3.19Z"/><path class="cls-12" d="M926.14,375.42c-2.87,0-5.06-1.78-5.06-5.64V363.1h-1.82v-4.87h1.82v-5.29l6.13-.64v5.93h3.66v4.87h-3.66v5.35c0,.79.1,1.71,1.11,1.71a3.51,3.51,0,0,0,1.24-.27l1.49,4.28a8.73,8.73,0,0,1-4.91,1.25Z"/><path class="cls-12" d="M932.78,353a3.53,3.53,0,1,1,3.52,3.32A3.32,3.32,0,0,1,932.78,353Zm.45,5.24h6.13v16.83h-6.13Z"/><path class="cls-12" d="M958.86,368.15h-11c.28,1.61,1.69,2.42,3.49,2.42a5.21,5.21,0,0,0,3.87-1.87l3.18,3.49a9.79,9.79,0,0,1-7.71,3.23,8.77,8.77,0,1,1-.1-17.54,8.27,8.27,0,0,1,8.48,8.64A9,9,0,0,1,958.86,368.15Zm-11-3.34h5.24a2.55,2.55,0,0,0-2.55-2.25A2.61,2.61,0,0,0,947.83,364.81Z"/><path class="cls-12" d="M961.71,363.1h-1.53v-4.87h1.53v-2.4c0-4.37,2.36-6.43,5.77-6.43a8.24,8.24,0,0,1,4.68,1.38l-1,4.16a4.6,4.6,0,0,0-1.78-.46c-.83,0-1.46.29-1.46,1.43v2.32h2.75v4.87h-2.75v12h-6.16Z"/><path class="cls-12" d="M981.15,349.75h6.13v25.31h-6.13Z"/><path class="cls-12" d="M1006.78,368.15h-11c.28,1.61,1.69,2.42,3.49,2.42a5.19,5.19,0,0,0,3.87-1.87l3.18,3.49a9.79,9.79,0,0,1-7.71,3.23,8.77,8.77,0,1,1-.1-17.54,8.27,8.27,0,0,1,8.48,8.64A9,9,0,0,1,1006.78,368.15Zm-11-3.34H1001a2.55,2.55,0,0,0-2.55-2.25A2.62,2.62,0,0,0,995.75,364.81Z"/><path class="cls-12" d="M1020.12,357.88v6.56c-.51,0-1,0-1.29,0-2.37,0-3.5,1.36-3.5,3.31v7.35h-6.14V358.23h6.14v2.3h0a5.67,5.67,0,0,1,4.7-2.65Z"/><path class="cls-12" d="M1038,368.15h-11c.29,1.61,1.7,2.42,3.5,2.42a5.21,5.21,0,0,0,3.87-1.87l3.18,3.49a9.79,9.79,0,0,1-7.71,3.23,8.77,8.77,0,1,1-.1-17.54,8.27,8.27,0,0,1,8.48,8.64A9,9,0,0,1,1038,368.15Zm-11-3.34h5.24a2.55,2.55,0,0,0-2.55-2.25A2.61,2.61,0,0,0,1027,364.81Z"/><path class="cls-12" d="M1051.36,357.88c3.42,0,6,1.54,6,7v10.18h-6.15v-8.71c0-2.38-.67-3-2.2-3s-2.45,1-2.45,3.29v8.46h-6.14V358.23h6.14v1.84h0a6.21,6.21,0,0,1,4.78-2.19Z"/><path class="cls-2" d="M1203.4,333.47h275.14a2.77,2.77,0,0,1,2.76,2.76v89.25a2.76,2.76,0,0,1-2.76,2.75h-20.91L1434,451.91V428.23H1203.4a2.75,2.75,0,0,1-2.76-2.75V336.23A2.76,2.76,0,0,1,1203.4,333.47Z"/><path class="cls-3" d="M1208.53,417.59a2.75,2.75,0,0,0,2.76,2.75h230.56V444l23.67-23.68h20.91a2.76,2.76,0,0,0,2.76-2.75V328.33a2.76,2.76,0,0,0-2.76-2.75H1211.29a2.76,2.76,0,0,0-2.76,2.75Z"/><path class="cls-12" d="M1221.08,362.64l3.69-4.55a8.25,8.25,0,0,0,5.58,2.7c1.52,0,2.09-.8,2.09-1.58,0-1-.47-1.47-3.09-2.35-3.7-1.24-7.41-3.05-7.41-8,0-4.14,3.45-7.28,8.14-7.38a12.65,12.65,0,0,1,8.64,3.26l-3.63,4.66c-2.11-1.64-3.44-2.2-4.64-2.2s-1.72.57-1.72,1.45.52,1.47,3,2.43c4.31,1.66,7.57,2.72,7.57,7.42,0,6.11-5.1,8.09-9.2,8.09A12.66,12.66,0,0,1,1221.08,362.64Z"/><path class="cls-12" d="M1241.65,340.89h6.13V366.2h-6.13Z"/><path class="cls-12" d="M1267.5,349.36V366.2h-6.16v-1.8h-.07a5.75,5.75,0,0,1-4.58,2.15c-3.44,0-6-1.86-6-7.34v-9.85h6.12v8.38c0,2.4.64,3.39,2.2,3.39,1.3,0,2.29-1,2.29-3.31v-8.46Z"/><path class="cls-12" d="M1270.12,344.13a3.53,3.53,0,1,1,3.53,3.32A3.33,3.33,0,0,1,1270.12,344.13Zm.46,5.23h6.12V366.2h-6.12Z"/><path class="cls-12" d="M1285.61,366.55c-2.87,0-5-1.78-5-5.64v-6.68h-1.83v-4.87h1.83v-5.29l6.13-.63v5.92h3.66v4.87h-3.66v5.35c0,.79.1,1.72,1.11,1.72A3.51,3.51,0,0,0,1289,361l1.49,4.28a8.83,8.83,0,0,1-4.92,1.24Z"/><path class="cls-12" d="M1318,349.36V366.2h-5.83v-1.58h0a5.17,5.17,0,0,1-4.33,1.93c-4.61,0-7.82-3.58-7.82-8.78s3.24-8.76,7.45-8.76a5.66,5.66,0,0,1,4.37,2h0v-1.66Zm-5.89,8.43a3,3,0,1,0-6,0c0,2.06,1.26,3.39,3,3.39S1312.13,359.85,1312.13,357.79Z"/><path class="cls-12" d="M1338.22,349.36V366.2h-5.83v-1.58h-.05a5.17,5.17,0,0,1-4.33,1.93c-4.61,0-7.82-3.58-7.82-8.78s3.24-8.76,7.46-8.76a5.65,5.65,0,0,1,4.36,2h0v-1.66Zm-5.89,8.43a3.1,3.1,0,0,0-3-3.38,3.07,3.07,0,0,0-3,3.38c0,2.06,1.25,3.39,3,3.39S1332.33,359.85,1332.33,357.79Z"/><path class="cls-12" d="M1352.13,349c3.42,0,6,1.54,6,7V366.2H1352v-8.71c0-2.39-.67-3-2.2-3s-2.45,1-2.45,3.29v8.46h-6.14V349.36h6.14v1.85h0a6.23,6.23,0,0,1,4.79-2.2Z"/><path class="cls-12" d="M1379.58,349c4.21,0,7.45,3.59,7.45,8.76s-3.21,8.78-7.82,8.78a5.42,5.42,0,0,1-4.47-1.93h-.06v1.58h-5.83V340.89H1375V351h0a5.91,5.91,0,0,1,4.52-2Zm1.26,8.78a3.08,3.08,0,0,0-3-3.38,3.4,3.4,0,0,0,0,6.77C1379.58,361.18,1380.84,359.85,1380.84,357.79Z"/><path class="cls-12" d="M1389,344.13a3.53,3.53,0,1,1,3.52,3.32A3.32,3.32,0,0,1,1389,344.13Zm.45,5.23h6.13V366.2h-6.13Z"/><path class="cls-12" d="M1399.34,373.33a12,12,0,0,1-4.13-.62l1-4.73a4.5,4.5,0,0,0,1.41.25c1.09,0,1.17-.76,1.17-2V349.36h6.13v17.53c0,4.34-1.85,6.44-5.59,6.44Zm-1-29.2a3.53,3.53,0,1,1,3.53,3.32A3.33,3.33,0,0,1,1398.38,344.13Z"/><path class="cls-12" d="M1433.27,340.89V366.2h-5.82v-1.58h-.07a5.4,5.4,0,0,1-4.46,1.93c-4.62,0-7.83-3.58-7.83-8.78s3.24-8.76,7.46-8.76a5.9,5.9,0,0,1,4.51,2h0V340.89Zm-5.89,16.9a3.12,3.12,0,0,0-3.1-3.38,3.08,3.08,0,0,0-3,3.38c0,2.06,1.26,3.39,3,3.39A3.1,3.1,0,0,0,1427.38,357.79Z"/><path class="cls-12" d="M1452.6,359.28h-11c.28,1.61,1.69,2.42,3.49,2.42a5.18,5.18,0,0,0,3.87-1.86l3.18,3.49a9.8,9.8,0,0,1-7.71,3.22,8.77,8.77,0,1,1-.1-17.54,8.27,8.27,0,0,1,8.48,8.64A8.93,8.93,0,0,1,1452.6,359.28Zm-11-3.34h5.24a2.55,2.55,0,0,0-2.55-2.25A2.62,2.62,0,0,0,1441.57,355.94Z"/><path class="cls-12" d="M1233,384.25c4.21,0,7.45,3.59,7.45,8.76s-3.2,8.78-7.82,8.78a5.4,5.4,0,0,1-4.46-1.93h-.07v1.57h-5.82V376.12h6.15v10.16h.06a5.85,5.85,0,0,1,4.51-2Zm1.26,8.77a3.07,3.07,0,0,0-3-3.37,3.39,3.39,0,0,0,0,6.76C1233,396.41,1234.29,395.09,1234.29,393Z"/><path class="cls-12" d="M1259.09,394.52h-11c.28,1.61,1.69,2.41,3.49,2.41a5.2,5.2,0,0,0,3.87-1.86l3.18,3.49a9.81,9.81,0,0,1-7.71,3.22,8.77,8.77,0,1,1-.1-17.53,8.27,8.27,0,0,1,8.48,8.64A9.11,9.11,0,0,1,1259.09,394.52Zm-11-3.34h5.24a2.55,2.55,0,0,0-2.55-2.25A2.61,2.61,0,0,0,1248.06,391.18Z"/><path class="cls-12" d="M1261.65,376.12h6.13v25.31h-6.13Z"/><path class="cls-12" d="M1287.28,394.52h-11c.29,1.61,1.7,2.41,3.5,2.41a5.2,5.2,0,0,0,3.87-1.86l3.18,3.49a9.81,9.81,0,0,1-7.71,3.22,8.77,8.77,0,1,1-.1-17.53,8.27,8.27,0,0,1,8.48,8.64A9.11,9.11,0,0,1,1287.28,394.52Zm-11-3.34h5.24a2.55,2.55,0,0,0-2.55-2.25A2.61,2.61,0,0,0,1276.25,391.18Z"/><path class="cls-12" d="M1305.62,384.6l-6.43,16.83h-5.52l-6.45-16.83h6.36l2.82,9.55h.07l2.74-9.55Z"/><path class="cls-12" d="M1307,379.36a3.53,3.53,0,1,1,3.53,3.32A3.32,3.32,0,0,1,1307,379.36Zm.46,5.24h6.12v16.83h-6.12Z"/><path class="cls-12" d="M1327.68,384.25c3.42,0,6,1.54,6,7v10.19h-6.15v-8.71c0-2.38-.67-3-2.2-3s-2.45,1-2.45,3.29v8.46h-6.14V384.6h6.14v1.84h0a6.21,6.21,0,0,1,4.78-2.19Z"/><path class="cls-12" d="M1353.77,384.6V399c0,5.66-2.23,9.6-9.31,9.6a13.73,13.73,0,0,1-7-1.54l1.35-4.84a10.26,10.26,0,0,0,4.86,1.36c2.7,0,4.09-1.22,4.09-2.71v-1.53h0a5.72,5.72,0,0,1-4.45,1.76c-4.45,0-7.53-3.57-7.53-8.22,0-5,3.15-8.61,7.21-8.61a6,6,0,0,1,4.62,2h.05V384.6Zm-5.87,8.09a3,3,0,1,0-3,3A2.91,2.91,0,0,0,1347.9,392.69Z"/><path class="cls-12" d="M1362.36,401.79a10,10,0,0,1-6.88-2.52l2.78-3.8a6.7,6.7,0,0,0,4.22,1.92c.84,0,1.24-.25,1.24-.69s-.22-.71-2.3-1.31c-2.85-.82-5.34-2.28-5.34-5.49,0-3.69,3-5.65,6.46-5.65a10.45,10.45,0,0,1,6.58,2.13l-2.83,4.08a5.42,5.42,0,0,0-3.54-1.73c-.54,0-1.06.2-1.06.69,0,.33.4.63,2.08,1.17,3.83,1.23,5.69,2.33,5.69,5.62s-2.33,5.58-7.1,5.58Z"/><path class="cls-12" d="M1396.06,384.6l-5.66,16.83h-4.77l-2.5-9.48h0l-2.4,9.48h-4.87l-5.65-16.83h6.06l2.36,8.07h0l2.13-8.07h4.66l2.17,8.07h0l2.39-8.07Z"/><path class="cls-12" d="M1413,394.52h-11c.28,1.61,1.69,2.41,3.49,2.41a5.22,5.22,0,0,0,3.88-1.86l3.17,3.49a9.8,9.8,0,0,1-7.71,3.22,8.77,8.77,0,1,1-.1-17.53,8.27,8.27,0,0,1,8.48,8.64A9.11,9.11,0,0,1,1413,394.52Zm-11-3.34h5.24a2.54,2.54,0,0,0-2.55-2.25A2.62,2.62,0,0,0,1401.92,391.18Z"/><path class="cls-12" d="M1426.29,384.25v6.56c-.5,0-1,0-1.29,0-2.37,0-3.49,1.36-3.49,3.31v7.35h-6.15V384.6h6.15v2.3h0a5.64,5.64,0,0,1,4.7-2.65Z"/><path class="cls-12" d="M1444.16,394.52h-11c.28,1.61,1.69,2.41,3.49,2.41a5.2,5.2,0,0,0,3.87-1.86l3.18,3.49a9.81,9.81,0,0,1-7.71,3.22,8.77,8.77,0,1,1-.1-17.53,8.27,8.27,0,0,1,8.48,8.64A9.11,9.11,0,0,1,1444.16,394.52Zm-11-3.34h5.24a2.55,2.55,0,0,0-2.55-2.25A2.62,2.62,0,0,0,1433.13,391.18Z"/><path class="cls-12" d="M1446.72,376.12h6.13v25.31h-6.13Z"/><path class="cls-12" d="M1473.46,376.12v25.31h-5.83v-1.57h-.06a5.43,5.43,0,0,1-4.47,1.93c-4.62,0-7.82-3.58-7.82-8.78s3.24-8.76,7.45-8.76a5.89,5.89,0,0,1,4.52,2h0V376.12Zm-5.89,16.9a3.12,3.12,0,0,0-3.11-3.37,3.07,3.07,0,0,0-3,3.37c0,2.07,1.26,3.39,3,3.39A3.09,3.09,0,0,0,1467.57,393Z"/><path class="cls-17" d="M930.72,229a1.55,1.55,0,0,1,.1-.36q4.15-8.94,8.3-17.87a8.33,8.33,0,0,0-7.3-12,7.73,7.73,0,0,0-7.31,4.43c-.56,1.05-1,2.16-1.52,3.24,0,.12-.07.25-.11.37l-1.55-.72a28.79,28.79,0,0,0-2.77-1.27,8.07,8.07,0,0,0-10.66,8.65,8,8,0,0,0,4.57,6.57c6,3,12,5.88,18,8.81Z"/><circle class="cls-2" cx="1498.73" cy="451.65" r="32.18"/><circle class="cls-8" cx="1494.32" cy="447.24" r="32.18"/><path class="cls-12" d="M1478.19,455.41a28,28,0,0,0,7.15,4.79,19.15,19.15,0,0,0,8.17,1.85,16.21,16.21,0,0,0,4.15-.51c.69-.13,1.35-.39,2-.59s1.32-.5,2-.83a35.19,35.19,0,0,0,7.26-4.73.38.38,0,0,1,.53.54,25.5,25.5,0,0,1-7,5.73,18.42,18.42,0,0,1-8.92,2.39,18.77,18.77,0,0,1-8.94-2.31,22.05,22.05,0,0,1-7-5.84.38.38,0,0,1,.06-.53.39.39,0,0,1,.49,0Z"/><path class="cls-2" d="M1479.31,446.07s-1.12-10.07,5-10.14,4.8,10.14,4.8,10.14-1.55-4.64-4.86-4.64S1479.31,446.07,1479.31,446.07Z"/><path class="cls-2" d="M1498.48,446.07s-1.13-10.07,5-10.14,4.79,10.14,4.79,10.14-1.54-4.64-4.86-4.64S1498.48,446.07,1498.48,446.07Z"/></g></svg>