<svg xmlns="http://www.w3.org/2000/svg" xmlns:xlink="http://www.w3.org/1999/xlink" viewBox="0 0 581 600"><defs><style>.cls-1{fill:#8571f1;}.cls-2{fill:#7fcefc;}.cls-11,.cls-12,.cls-13,.cls-14,.cls-15,.cls-16,.cls-2,.cls-3,.cls-4,.cls-6,.cls-7,.cls-8{stroke:#3d2142;}.cls-11,.cls-12,.cls-13,.cls-15,.cls-16,.cls-2,.cls-3,.cls-4,.cls-5,.cls-6,.cls-7,.cls-8{stroke-linecap:round;stroke-linejoin:round;}.cls-11,.cls-12,.cls-13,.cls-14,.cls-15,.cls-16,.cls-2,.cls-3,.cls-4,.cls-5,.cls-6,.cls-7,.cls-8{stroke-width:3px;}.cls-3{fill:#f6cdaf;}.cls-4{fill:#7f3e98;}.cls-5{fill:#6a539b;stroke:#000;}.cls-6{fill:#f96484;}.cls-7{fill:#37cca2;}.cls-8{fill:none;}.cls-9{fill:#3d2142;}.cls-10{opacity:0.2;fill:url(#linear-gradient);}.cls-11{fill:#f2748a;}.cls-12{fill:#fff;}.cls-13{fill:#f2a6f5;}.cls-14{stroke-miterlimit:10;}.cls-15{fill:#f596c0;}.cls-16{fill:#fed16c;}</style><linearGradient id="linear-gradient" x1="432.61" y1="149.19" x2="474.72" y2="149.19" gradientUnits="userSpaceOnUse"><stop offset="0" stop-color="#fff"/><stop offset="1" stop-color="#fff" stop-opacity="0"/></linearGradient></defs><g id="Layer_1" data-name="Layer 1"><rect class="cls-1" y="0.08" width="581" height="599.84"/><path class="cls-2" d="M271.29,267.18a62.25,62.25,0,0,1,124.49,0"/><rect class="cls-3" x="234.46" y="312.17" width="198.15" height="106.23"/><path class="cls-4" d="M332.09,341.85H338A18.92,18.92,0,0,1,357,360.77v57.63a0,0,0,0,1,0,0H313.17a0,0,0,0,1,0,0V360.77A18.92,18.92,0,0,1,332.09,341.85Z"/><path class="cls-5" d="M271.76,329.44h4a12.88,12.88,0,0,1,12.88,12.88v58.83a0,0,0,0,1,0,0h-29.8a0,0,0,0,1,0,0V342.32a12.88,12.88,0,0,1,12.88-12.88Z"/><path class="cls-4" d="M393.76,329.44h4a12.88,12.88,0,0,1,12.88,12.88v58.83a0,0,0,0,1,0,0h-29.8a0,0,0,0,1,0,0V342.32a12.88,12.88,0,0,1,12.88-12.88Z"/><path class="cls-6" d="M474.93,145.14s8.33-12-2.22-19-19.09-18-19.09-22.08c0,4.06-8.55,15.1-19.1,22.08s-2.22,19-2.22,19Z"/><rect class="cls-3" x="432.68" y="145.14" width="42.04" height="273.27"/><rect class="cls-7" x="425.93" y="186.77" width="55.53" height="17.81"/><rect class="cls-7" x="425.93" y="246.22" width="55.53" height="17.81"/><rect class="cls-7" x="263.5" y="267.18" width="140.07" height="17.81"/><rect class="cls-2" x="271.29" y="284.99" width="124.49" height="26.96"/><line class="cls-8" x1="333.54" y1="204.94" x2="333.54" y2="181.11"/><polygon class="cls-9" points="395.78 284.99 271.29 295.59 271.29 284.99 395.78 284.99"/><polygon class="cls-9" points="432.61 312.17 234.46 320.76 234.46 312.17 432.61 312.17"/><polygon class="cls-9" points="474.72 264.03 432.61 264.03 432.61 272.13 474.72 264.03"/><polygon class="cls-9" points="474.72 204.99 432.61 204.99 432.61 213.09 474.72 204.99"/><polygon class="cls-10" points="474.72 145.14 432.61 145.14 432.61 153.24 474.72 145.14"/><line class="cls-8" x1="69.62" y1="382.02" x2="204.7" y2="382.02"/><line class="cls-8" x1="119.68" y1="382.02" x2="119.68" y2="143.66"/><path class="cls-11" d="M19.43,178c33.42-12.49,66.83,13.66,100.25,1.17V158.82c-33.42,12.49-66.83-13.66-100.25-1.17Z"/><path class="cls-12" d="M19.43,198.29C52.85,185.8,86.26,212,119.68,199.47V179.14C86.26,191.63,52.85,165.48,19.43,178Z"/><path class="cls-2" d="M19.43,218.61c33.42-12.49,66.83,13.67,100.25,1.18V199.47C86.26,212,52.85,185.8,19.43,198.29Z"/><rect class="cls-2" x="173.31" y="398.32" width="137.07" height="39.85"/><polygon class="cls-9" points="310.38 398.32 173.31 408.2 173.31 398.32 310.38 398.32"/><polygon class="cls-11" points="281.2 211.74 241.84 179.13 202.49 211.74 184.37 255.21 299.31 255.21 281.2 211.74"/><polygon class="cls-13" points="287.9 255.21 195.79 255.21 164.99 398.32 318.69 398.32 287.9 255.21"/><polygon class="cls-9" points="287.9 255.21 195.79 255.21 193.21 267.18 287.9 255.21"/><rect class="cls-4" x="227.65" y="387.45" width="28.38" height="50.72"/><rect class="cls-4" x="227.65" y="332.2" width="28.38" height="30.8"/><rect class="cls-4" x="227.65" y="278.76" width="28.38" height="30.8"/><circle class="cls-14" cx="241.7" cy="226.15" r="12"/><circle class="cls-13" cx="241.7" cy="223.28" r="12"/><line class="cls-15" x1="241.29" y1="222.49" x2="334.42" y2="368.68"/><rect class="cls-3" x="224.78" y="308.83" width="125.67" height="31.3" transform="translate(406.73 -92.43) rotate(57.5)"/><rect class="cls-3" x="132.95" y="106.44" width="125.67" height="31.3" transform="translate(198.01 352.8) rotate(-122.5)"/><line class="cls-15" x1="241.95" y1="223.69" x2="204.44" y2="164.81"/><line class="cls-15" x1="241.29" y1="222.49" x2="95.1" y2="315.63"/><polygon class="cls-3" points="185.08 222.24 79.1 289.76 95.1 315.63 200.49 248.49 185.08 222.24"/><rect class="cls-3" x="280.06" y="161.72" width="125.67" height="31.3" transform="translate(-41.6 212.02) rotate(-32.5)"/><line class="cls-15" x1="241.29" y1="223.54" x2="300.17" y2="186.03"/><line class="cls-16" x1="208.33" y1="438.17" x2="104.47" y2="438.17"/><path class="cls-8" d="M177.12,466.64c8.5,0,8.5,7.25,17,7.25s8.5-7.25,17-7.25,8.49,7.25,17,7.25,8.5-7.25,17-7.25,8.5,7.25,17,7.25,8.5-7.25,17-7.25,8.5,7.25,17,7.25,8.5-7.25,17-7.25,8.5,7.25,17,7.25,8.5-7.25,17-7.25"/><path class="cls-8" d="M75.67,486.57c8.49,0,8.49,7.24,17,7.24s8.5-7.24,17-7.24,8.49,7.24,17,7.24,8.5-7.24,17-7.24,8.5,7.24,17,7.24,8.5-7.24,17-7.24,8.5,7.24,17,7.24,8.5-7.24,17-7.24,8.5,7.24,17,7.24,8.5-7.24,17-7.24,8.5,7.24,17,7.24,8.51-7.24,17-7.24,8.5,7.24,17,7.24"/><polygon class="cls-11" points="122.89 329.71 134.27 319.52 145.45 329.7 134.27 338.47 122.89 329.71"/><path class="cls-11" d="M155.38,323.07s5.74,34.49-20.23,34.49-22-34.49-22-34.49l21.16,15.4Z"/><line class="cls-15" x1="135.15" y1="357.56" x2="135.15" y2="438.17"/><path class="cls-7" d="M135.15,388.7s2.57-15.51,21.25-16.42C156.4,372.28,156.7,390.85,135.15,388.7Z"/><path class="cls-7" d="M113.91,391.4s2.56,15.51,21.24,16.42C135.15,407.82,135.45,389.25,113.91,391.4Z"/><circle class="cls-8" cx="377.64" cy="497.06" r="25.02"/><circle class="cls-8" cx="472.67" cy="497.06" r="25.02"/><path class="cls-8" d="M377.64,497.06l19-59.13a10.29,10.29,0,0,1,9.8-7.14h8.35"/><polygon class="cls-8" points="392.08 452.13 450.93 452.13 472.67 497.06 431.15 497.06 392.08 452.13"/><line class="cls-8" x1="431.15" y1="497.06" x2="454.74" y2="443.48"/><line class="cls-8" x1="440.06" y1="440.75" x2="463.76" y2="440.75"/><polygon class="cls-11" points="67.8 357.33 79.18 347.14 90.36 357.32 79.18 366.09 67.8 357.33"/><path class="cls-11" d="M100.3,350.69s5.73,34.5-20.23,34.5-22-34.5-22-34.5l21.15,15.4Z"/><line class="cls-15" x1="80.07" y1="385.19" x2="80.07" y2="465.8"/><path class="cls-7" d="M80.07,416.32s2.56-15.51,21.25-16.42C101.32,399.9,101.62,418.47,80.07,416.32Z"/><path class="cls-7" d="M58.82,419s2.57,15.51,21.25,16.42C80.07,435.44,80.37,416.87,58.82,419Z"/><polygon class="cls-11" points="500.4 336.41 511.78 326.22 522.96 336.39 511.78 345.16 500.4 336.41"/><path class="cls-11" d="M532.89,329.76s5.74,34.5-20.23,34.5-22-34.5-22-34.5l21.16,15.4Z"/><line class="cls-15" x1="512.66" y1="364.26" x2="512.66" y2="448.49"/><path class="cls-7" d="M512.66,395.39s2.57-15.51,21.25-16.41C533.91,379,534.21,397.54,512.66,395.39Z"/><path class="cls-7" d="M491.41,398.09s2.57,15.51,21.25,16.42C512.66,414.51,513,395.94,491.41,398.09Z"/><line class="cls-16" x1="156.31" y1="466.69" x2="11.01" y2="466.69"/><line class="cls-8" x1="334.74" y1="522.14" x2="515.18" y2="522.14"/><line class="cls-8" x1="443.6" y1="537.26" x2="491.99" y2="537.26"/><line class="cls-8" x1="476.87" y1="448.55" x2="564.51" y2="448.55"/></g></svg>