<svg xmlns="http://www.w3.org/2000/svg" xmlns:xlink="http://www.w3.org/1999/xlink" viewBox="0 0 503 300"><defs><style>.cls-1,.cls-7{fill:none;}.cls-2{clip-path:url(#clip-path);}.cls-3{fill:#8571f1;}.cls-4{clip-path:url(#clip-path-2);}.cls-14,.cls-5{fill:#3d2142;}.cls-10,.cls-12,.cls-13,.cls-16,.cls-17,.cls-18,.cls-19,.cls-20,.cls-21,.cls-22,.cls-23,.cls-5,.cls-6,.cls-7,.cls-8,.cls-9{stroke:#3d2142;}.cls-10,.cls-11,.cls-12,.cls-13,.cls-16,.cls-17,.cls-18,.cls-19,.cls-20,.cls-22,.cls-23,.cls-5,.cls-6,.cls-7,.cls-8,.cls-9{stroke-linecap:round;stroke-linejoin:round;}.cls-10,.cls-11,.cls-12,.cls-13,.cls-19,.cls-20,.cls-21,.cls-22,.cls-23,.cls-5,.cls-6,.cls-7,.cls-8,.cls-9{stroke-width:1.5px;}.cls-17,.cls-6{fill:#fff;}.cls-18,.cls-8{fill:#7fcefc;}.cls-9{fill:#f6cdaf;}.cls-10{fill:#7f3e98;}.cls-11{fill:#6a539b;stroke:#000;}.cls-12{fill:#f96484;}.cls-13{fill:#37cca2;}.cls-15{opacity:0.2;fill:url(#linear-gradient);}.cls-16,.cls-19{fill:#f2748a;}.cls-16,.cls-17,.cls-18{stroke-width:1.82px;}.cls-20{fill:#f2a6f5;}.cls-21{stroke-miterlimit:10;}.cls-22{fill:#f596c0;}.cls-23{fill:#fed16c;}</style><clipPath id="clip-path"><rect class="cls-1" x="-1085.7" width="743" height="300"/></clipPath><clipPath id="clip-path-2"><rect class="cls-1" width="503" height="300"/></clipPath><linearGradient id="linear-gradient" x1="392.32" y1="48.3" x2="427.51" y2="48.3" gradientUnits="userSpaceOnUse"><stop offset="0" stop-color="#fff"/><stop offset="1" stop-color="#fff" stop-opacity="0"/></linearGradient></defs><g id="Layer_1" data-name="Layer 1"><g class="cls-2"><rect class="cls-3" x="-1521.9" y="-168.45" width="1575.82" height="588.61"/></g><g class="cls-4"><rect class="cls-3" x="-322.02" y="-205.09" width="1167.05" height="656.46"/><path class="cls-5" d="M503-89.16H320.56a2.74,2.74,0,0,0-2.74,2.74v65a2.74,2.74,0,0,0,2.74,2.73h20.75L364.8,4.79V-18.7H503a2.74,2.74,0,0,0,2.74-2.73v-65A2.74,2.74,0,0,0,503-89.16Z"/><path class="cls-5" d="M558,116.59v55.89a7.58,7.58,0,0,1-7.58,7.58H540.28l-17.76,17.76V180.06H459.06a7.58,7.58,0,0,1-7.58-7.58V116.59a7.58,7.58,0,0,1,7.58-7.58h91.4A7.58,7.58,0,0,1,558,116.59Z"/><path class="cls-6" d="M554.4,113v55.88a7.58,7.58,0,0,1-7.58,7.58H536.64l-17.76,17.76V176.41H455.41a7.58,7.58,0,0,1-7.58-7.58V113a7.58,7.58,0,0,1,7.58-7.58h91.41A7.58,7.58,0,0,1,554.4,113Z"/><line class="cls-7" x1="456.89" y1="114.25" x2="475.91" y2="114.25"/><line class="cls-7" x1="498.49" y1="129.47" x2="516.63" y2="129.47"/><line class="cls-7" x1="456.89" y1="129.47" x2="491.03" y2="129.47"/><line class="cls-7" x1="483.49" y1="137.08" x2="525.28" y2="137.08"/><line class="cls-7" x1="456.89" y1="137.08" x2="476.03" y2="137.08"/><line class="cls-7" x1="489.59" y1="144.69" x2="501.34" y2="144.69"/><line class="cls-7" x1="456.89" y1="144.69" x2="482.13" y2="144.69"/><line class="cls-7" x1="499.2" y1="152.31" x2="525.28" y2="152.31"/><line class="cls-7" x1="471.39" y1="152.31" x2="491.73" y2="152.31"/><line class="cls-7" x1="456.89" y1="152.31" x2="463.92" y2="152.31"/><line class="cls-7" x1="489.7" y1="159.92" x2="534.03" y2="159.92"/><line class="cls-7" x1="456.89" y1="159.92" x2="482.23" y2="159.92"/><line class="cls-7" x1="480.55" y1="167.53" x2="491.03" y2="167.53"/><line class="cls-7" x1="456.89" y1="167.53" x2="473.09" y2="167.53"/><path class="cls-8" d="M257.51,146.91a52,52,0,1,1,104,0"/><rect class="cls-9" x="226.73" y="184.5" width="165.59" height="88.78"/><path class="cls-10" d="M308.32,209.31h5a15.81,15.81,0,0,1,15.81,15.81v48.16a0,0,0,0,1,0,0H292.51a0,0,0,0,1,0,0V225.12a15.81,15.81,0,0,1,15.81-15.81Z"/><path class="cls-11" d="M257.9,198.93h3.37A10.77,10.77,0,0,1,272,209.7v49.16a0,0,0,0,1,0,0H247.14a0,0,0,0,1,0,0V209.7A10.77,10.77,0,0,1,257.9,198.93Z"/><path class="cls-10" d="M359.85,198.93h3.37A10.77,10.77,0,0,1,374,209.7v49.16a0,0,0,0,1,0,0H349.09a0,0,0,0,1,0,0V209.7a10.77,10.77,0,0,1,10.77-10.77Z"/><path class="cls-12" d="M427.69,44.92s7-10-1.86-15.87-16-15.06-16-18.45c0,3.39-7.14,12.62-16,18.45s-1.85,15.87-1.85,15.87Z"/><rect class="cls-9" x="392.37" y="44.92" width="35.13" height="228.36"/><rect class="cls-13" x="386.74" y="79.71" width="46.4" height="14.88"/><rect class="cls-13" x="386.74" y="129.39" width="46.4" height="14.88"/><rect class="cls-13" x="251" y="146.91" width="117.05" height="14.88"/><rect class="cls-8" x="257.51" y="161.79" width="104.03" height="22.53"/><line class="cls-7" x1="309.52" y1="94.89" x2="309.52" y2="74.98"/><polygon class="cls-14" points="361.54 161.79 257.51 170.64 257.51 161.79 361.54 161.79"/><polygon class="cls-14" points="392.32 184.5 226.73 191.68 226.73 184.5 392.32 184.5"/><polygon class="cls-14" points="427.5 144.27 392.32 144.27 392.32 151.04 427.5 144.27"/><polygon class="cls-14" points="427.5 94.94 392.32 94.94 392.32 101.7 427.5 94.94"/><polygon class="cls-15" points="427.5 44.92 392.32 44.92 392.32 51.69 427.5 44.92"/><line class="cls-7" x1="88.98" y1="242.87" x2="201.86" y2="242.87"/><line class="cls-7" x1="130.81" y1="242.87" x2="130.81" y2="43.68"/><path class="cls-16" d="M47,72.49c27.92-10.65,55.84,11.36,83.77.71v-17C102.88,66.87,75,44.86,47,55.5Z"/><path class="cls-17" d="M47,89.47c27.92-10.65,55.84,11.36,83.77.72v-17C102.88,83.85,75,61.84,47,72.49Z"/><path class="cls-18" d="M47,106.45c27.92-10.64,55.84,11.36,83.77.72v-17C102.88,100.83,75,78.83,47,89.47Z"/><rect class="cls-8" x="175.63" y="256.5" width="114.54" height="33.3"/><polygon class="cls-14" points="290.17 256.5 175.63 264.75 175.63 256.5 290.17 256.5"/><polygon class="cls-19" points="265.79 100.57 232.9 73.33 200.01 100.57 184.87 136.91 280.92 136.91 265.79 100.57"/><polygon class="cls-20" points="271.39 136.91 194.41 136.91 168.68 256.5 297.12 256.5 271.39 136.91"/><polygon class="cls-14" points="271.39 136.91 194.41 136.91 192.26 146.91 271.39 136.91"/><rect class="cls-10" x="221.04" y="247.41" width="23.72" height="42.39"/><rect class="cls-10" x="221.04" y="201.24" width="23.72" height="25.73"/><rect class="cls-10" x="221.04" y="156.58" width="23.72" height="25.73"/><circle class="cls-21" cx="232.78" cy="112.62" r="10.03"/><circle class="cls-20" cx="232.78" cy="110.22" r="10.03"/><line class="cls-22" x1="232.44" y1="109.56" x2="310.27" y2="231.73"/><rect class="cls-9" x="218.64" y="181.71" width="105.02" height="26.15" transform="translate(289.74 -138.56) rotate(57.5)"/><rect class="cls-9" x="141.9" y="12.58" width="105.02" height="26.15" transform="translate(277.22 203.4) rotate(-122.5)"/><line class="cls-22" x1="232.99" y1="110.56" x2="201.64" y2="61.36"/><line class="cls-22" x1="232.44" y1="109.56" x2="110.27" y2="187.39"/><polygon class="cls-9" points="185.47 109.35 96.9 165.78 110.27 187.39 198.34 131.29 185.47 109.35"/><rect class="cls-9" x="264.83" y="58.77" width="105.02" height="26.15" transform="translate(11.09 181.76) rotate(-32.5)"/><line class="cls-22" x1="232.44" y1="110.44" x2="281.64" y2="79.09"/><line class="cls-23" x1="204.89" y1="289.8" x2="118.1" y2="289.8"/><polygon class="cls-19" points="133.49 199.16 143 190.65 152.34 199.15 143 206.48 133.49 199.16"/><path class="cls-19" d="M160.65,193.61s4.79,28.83-16.91,28.83-18.42-28.83-18.42-28.83L143,206.48Z"/><line class="cls-22" x1="143.74" y1="222.44" x2="143.74" y2="289.8"/><path class="cls-13" d="M143.74,248.45s2.15-13,17.76-13.72C161.5,234.73,161.75,250.25,143.74,248.45Z"/><path class="cls-13" d="M126,250.71s2.14,13,17.75,13.72C143.74,264.43,144,248.91,126,250.71Z"/><path class="cls-7" d="M346.38,339l15.85-49.42a8.59,8.59,0,0,1,8.18-6h7"/><line class="cls-7" x1="391.1" y1="339.01" x2="410.81" y2="294.24"/><line class="cls-7" x1="398.54" y1="291.95" x2="418.35" y2="291.95"/><polygon class="cls-19" points="87.46 222.24 96.97 213.73 106.31 222.23 96.97 229.56 87.46 222.24"/><path class="cls-19" d="M114.61,216.69s4.8,28.83-16.9,28.83-18.42-28.83-18.42-28.83L97,229.56Z"/><line class="cls-22" x1="97.71" y1="245.52" x2="97.71" y2="312.88"/><path class="cls-13" d="M97.71,271.54s2.14-13,17.75-13.72C115.46,257.82,115.72,273.34,97.71,271.54Z"/><path class="cls-13" d="M80,273.8s2.15,13,17.76,13.71C97.71,287.51,98,272,80,273.8Z"/><polygon class="cls-19" points="448.96 204.75 458.48 196.24 467.82 204.74 458.48 212.07 448.96 204.75"/><path class="cls-19" d="M476.12,199.2S480.91,228,459.21,228,440.8,199.2,440.8,199.2l17.67,12.87Z"/><line class="cls-22" x1="459.21" y1="228.03" x2="459.21" y2="298.42"/><path class="cls-13" d="M459.21,254.05s2.15-13,17.76-13.72C477,240.33,477.22,255.85,459.21,254.05Z"/><path class="cls-13" d="M441.46,256.31s2.14,13,17.75,13.71C459.21,270,459.47,254.51,441.46,256.31Z"/><line class="cls-7" x1="429.3" y1="298.47" x2="502.55" y2="298.47"/><path class="cls-5" d="M118.9,133.21a2.74,2.74,0,0,0-2.73-2.74H-19.28A2.74,2.74,0,0,0-22,133.21v65a2.74,2.74,0,0,0,2.74,2.73H116.17a2.73,2.73,0,0,0,2.73-2.73V177.45L142.39,154H118.9Z"/><path class="cls-6" d="M134.56,146.13l-23.49,23.49v20.75a2.73,2.73,0,0,1-2.73,2.73H-27.11a2.74,2.74,0,0,1-2.74-2.73v-65a2.74,2.74,0,0,1,2.74-2.74H108.34a2.74,2.74,0,0,1,2.73,2.74v20.75Z"/><line class="cls-7" x1="-14.19" y1="138.3" x2="32.78" y2="138.3"/><line class="cls-7" x1="79.76" y1="153.96" x2="87.58" y2="153.96"/><line class="cls-7" x1="43.89" y1="153.96" x2="71.93" y2="153.96"/><line class="cls-7" x1="-14.19" y1="153.96" x2="36.06" y2="153.96"/><line class="cls-7" x1="67.05" y1="161.79" x2="95.41" y2="161.79"/><line class="cls-7" x1="27.73" y1="161.79" x2="59.22" y2="161.79"/><line class="cls-7" x1="-14.19" y1="161.79" x2="19.9" y2="161.79"/><line class="cls-7" x1="42.09" y1="169.62" x2="86.44" y2="169.62"/><line class="cls-7" x1="-14.19" y1="169.62" x2="34.26" y2="169.62"/><line class="cls-7" x1="69.01" y1="177.45" x2="92.47" y2="177.45"/><line class="cls-7" x1="25.04" y1="177.45" x2="61.18" y2="177.45"/><line class="cls-7" x1="-14.19" y1="177.45" x2="17.21" y2="177.45"/><circle class="cls-5" cx="101.06" cy="16.68" r="26.61"/><circle class="cls-9" cx="97.42" cy="13.03" r="26.61"/><path class="cls-14" d="M84.05,19.81a21.74,21.74,0,0,0,2.81,2.24A20.24,20.24,0,0,0,90,23.81a16.11,16.11,0,0,0,6.78,1.55,13.88,13.88,0,0,0,3.45-.43,16.85,16.85,0,0,0,3.32-1.18,28.79,28.79,0,0,0,6-4,.29.29,0,0,1,.4.41,21.52,21.52,0,0,1-5.81,4.69,15.27,15.27,0,0,1-7.34,2A15.5,15.5,0,0,1,89.39,25a18.53,18.53,0,0,1-5.77-4.78.28.28,0,0,1,0-.4.29.29,0,0,1,.37,0Z"/><path class="cls-5" d="M85,12.07s-.93-8.33,4.09-8.39,4,8.39,4,8.39-1.27-3.84-4-3.84S85,12.07,85,12.07Z"/><path class="cls-5" d="M100.85,12.07s-.93-8.33,4.09-8.39,4,8.39,4,8.39-1.28-3.84-4-3.84S100.85,12.07,100.85,12.07Z"/><path class="cls-20" d="M-11.47,97.24a2.26,2.26,0,0,1,.26-.2L4,88.73A7.32,7.32,0,0,0,5,76.48a6.79,6.79,0,0,0-7.47-.67c-.95.45-1.85,1-2.76,1.5a1.78,1.78,0,0,0-.27.21l-.73-1.32c-.43-.78-.79-1.6-1.29-2.34a7.08,7.08,0,0,0-12,.58,7,7,0,0,0-.18,7c2.69,5.21,5.43,10.4,8.15,15.59Z"/><circle class="cls-5" cx="50.24" cy="236.08" r="19.56"/><circle class="cls-9" cx="47.56" cy="233.39" r="19.56"/><path class="cls-14" d="M37.79,238.33a17.82,17.82,0,0,0,4.36,2.83,11.58,11.58,0,0,0,4.91,1.08,5.84,5.84,0,0,0,1.25-.08,5.89,5.89,0,0,0,1.24-.23c.4-.11.81-.2,1.22-.33l1.18-.5c.19-.09.4-.16.59-.26l.55-.33,1.14-.66c.73-.48,1.41-1,2.16-1.54l0,0a.28.28,0,0,1,.39.08.27.27,0,0,1,0,.35c-.62.66-1.26,1.32-1.94,1.95l-1.12.84a6.07,6.07,0,0,1-1.19.74,11.05,11.05,0,0,1-5.47,1.49,11.3,11.3,0,0,1-5.48-1.42,13.16,13.16,0,0,1-4.22-3.62.28.28,0,0,1,0-.4.3.3,0,0,1,.36,0Z"/><path class="cls-5" d="M38.43,232.68s-.68-6.12,3-6.16,2.92,6.16,2.92,6.16-.94-2.81-3-2.81S38.43,232.68,38.43,232.68Z"/><path class="cls-5" d="M50.08,232.68s-.68-6.12,3-6.16S56,232.68,56,232.68s-.94-2.81-3-2.81S50.08,232.68,50.08,232.68Z"/><path class="cls-5" d="M103.57,257.93H-12.56a1.67,1.67,0,0,0-1.67,1.67V292a1.68,1.68,0,0,0,1.67,1.68H.16L14.55,308V293.65h89a1.67,1.67,0,0,0,1.67-1.68V259.6A1.67,1.67,0,0,0,103.57,257.93Z"/><path class="cls-6" d="M100.45,287.17a1.68,1.68,0,0,1-1.68,1.68h-89v14.39L-4.64,288.85H-17.35A1.68,1.68,0,0,1-19,287.17V254.81a1.68,1.68,0,0,1,1.68-1.68H98.77a1.68,1.68,0,0,1,1.68,1.68Z"/><path class="cls-14" d="M6.83,271.63v6.19H3.1v-5.29c0-1.45-.41-1.85-1.34-1.85s-1.48.62-1.48,2v5.14H-3.46V267.6H.28v1.12h0a3.76,3.76,0,0,1,2.9-1.34C5.28,267.38,6.83,268.32,6.83,271.63Z"/><path class="cls-14" d="M9,274.61v-4.06H7.88V267.6H9v-3.21l3.72-.39v3.6h2.22v2.95H12.71v3.25c0,.48.06,1,.67,1a2.1,2.1,0,0,0,.75-.16l.91,2.6a5.33,5.33,0,0,1-3,.75C10.31,278,9,277,9,274.61Z"/><path class="cls-14" d="M25.81,273.62H19.1a1.92,1.92,0,0,0,2.12,1.47A3.19,3.19,0,0,0,23.58,274l1.92,2.12A5.92,5.92,0,0,1,20.82,278a5.33,5.33,0,1,1-.06-10.65,5,5,0,0,1,5.15,5.25A5.45,5.45,0,0,1,25.81,273.62Zm-6.7-2h3.18a1.54,1.54,0,0,0-1.55-1.36A1.6,1.6,0,0,0,19.11,271.59Z"/><path class="cls-14" d="M33.92,267.38v4c-.31,0-.63,0-.79,0a1.88,1.88,0,0,0-2.12,2v4.47H27.28V267.6H31V269h0a3.46,3.46,0,0,1,2.86-1.61Z"/><path class="cls-14" d="M45.45,267.6v10.22H41.91v-1h0A3.12,3.12,0,0,1,39.25,278c-2.8,0-4.75-2.17-4.75-5.33s2-5.32,4.53-5.32a3.42,3.42,0,0,1,2.65,1.23h0v-1Zm-3.58,5.11a1.82,1.82,0,1,0-3.61,0,1.82,1.82,0,1,0,3.61,0Z"/><path class="cls-14" d="M46.81,272.71c0-3.15,2.31-5.33,5.61-5.33a5.56,5.56,0,0,1,4.46,2.11l-2.47,2.11a2.38,2.38,0,0,0-1.9-.92,1.89,1.89,0,0,0-1.95,2,1.94,1.94,0,0,0,2,2,2.36,2.36,0,0,0,1.85-.83l2.54,2.21A6,6,0,0,1,52.18,278,5.16,5.16,0,0,1,46.81,272.71Z"/><path class="cls-14" d="M58.46,274.61v-4.06H57.35V267.6h1.11v-3.21l3.72-.39v3.6H64.4v2.95H62.18v3.25c0,.48.06,1,.67,1a2.15,2.15,0,0,0,.76-.16l.91,2.6a5.35,5.35,0,0,1-3,.75C59.79,278,58.46,277,58.46,274.61Z"/><path class="cls-14" d="M65.57,264.42a2.14,2.14,0,1,1,2.14,2A2,2,0,0,1,65.57,264.42Zm.27,3.18h3.73v10.22H65.84Z"/><path class="cls-14" d="M81.41,273.62h-6.7a1.91,1.91,0,0,0,2.12,1.47A3.17,3.17,0,0,0,79.18,274l1.93,2.12A6,6,0,0,1,76.43,278a5.33,5.33,0,1,1-.06-10.65,5,5,0,0,1,5.14,5.25A5.45,5.45,0,0,1,81.41,273.62Zm-6.69-2H77.9a1.56,1.56,0,0,0-1.55-1.36A1.58,1.58,0,0,0,74.72,271.59Z"/><path class="cls-14" d="M83.15,270.55h-.93V267.6h.93v-1.46c0-2.65,1.44-3.91,3.51-3.91a5.05,5.05,0,0,1,2.84.84l-.64,2.53a2.93,2.93,0,0,0-1.08-.28c-.5,0-.89.18-.89.87v1.41h1.67v2.95H86.89v7.27H83.15Z"/><path class="cls-5" d="M240.83-70.29H131.39a1.68,1.68,0,0,0-1.68,1.68v52.43a1.68,1.68,0,0,0,1.68,1.67H144.1L158.49-.12V-14.51h82.34a1.67,1.67,0,0,0,1.67-1.67V-68.61A1.68,1.68,0,0,0,240.83-70.29Z"/><path class="cls-5" d="M398.54,280.58H273.9a1.68,1.68,0,0,0-1.67,1.68v32.37a1.67,1.67,0,0,0,1.67,1.67h12.72L301,330.69V316.3h97.53a1.67,1.67,0,0,0,1.67-1.67V282.26A1.68,1.68,0,0,0,398.54,280.58Z"/><path class="cls-6" d="M395.42,309.83a1.68,1.68,0,0,1-1.68,1.68H296.21v14.38l-14.39-14.38H269.11a1.68,1.68,0,0,1-1.68-1.68V277.46a1.68,1.68,0,0,1,1.68-1.67H393.74a1.68,1.68,0,0,1,1.68,1.67Z"/><path class="cls-14" d="M290,285.65l-5.39,14.83H281.1l-5.42-14.83H280l2.82,9.17h.05l2.85-9.17Z"/><path class="cls-14" d="M299.27,296.28h-6.7a1.91,1.91,0,0,0,2.12,1.46,3.12,3.12,0,0,0,2.35-1.13l1.93,2.12a6,6,0,0,1-4.68,2,5.33,5.33,0,1,1-.06-10.65,5,5,0,0,1,5.15,5.25A4.84,4.84,0,0,1,299.27,296.28Zm-6.69-2h3.18a1.56,1.56,0,0,0-1.55-1.37A1.58,1.58,0,0,0,292.58,294.25Z"/><path class="cls-14" d="M300.84,285.1h3.72v15.38h-3.72Z"/><path class="cls-14" d="M316.41,296.28H309.7a1.91,1.91,0,0,0,2.12,1.46,3.15,3.15,0,0,0,2.36-1.13l1.92,2.12a5.92,5.92,0,0,1-4.68,2,5.33,5.33,0,1,1-.06-10.65,5,5,0,0,1,5.15,5.25A5.63,5.63,0,0,1,316.41,296.28Zm-6.7-2h3.18a1.54,1.54,0,0,0-1.55-1.37A1.59,1.59,0,0,0,309.71,294.25Z"/><path class="cls-14" d="M332.58,296.28h-6.7a1.91,1.91,0,0,0,2.12,1.46,3.13,3.13,0,0,0,2.35-1.13l1.93,2.12a6,6,0,0,1-4.68,2,5.33,5.33,0,1,1-.06-10.65,5,5,0,0,1,5.15,5.25A5.66,5.66,0,0,1,332.58,296.28Zm-6.69-2h3.18a1.56,1.56,0,0,0-1.55-1.37A1.58,1.58,0,0,0,325.89,294.25Z"/><path class="cls-14" d="M338.06,298.27H338l-1.45,2.21h-3.94l3.35-5.29-3.29-4.94h4.14l1.19,2.17h0l1.21-2.17h4.12l-3.31,4.95,3.38,5.28h-4Z"/><path class="cls-14" d="M344.84,297.26v-4.05h-1.11v-3h1.11V287l3.72-.39v3.6h2.22v3h-2.22v3.25c0,.48.06,1,.67,1a2.19,2.19,0,0,0,.76-.16l.9,2.6a5.41,5.41,0,0,1-3,.75C346.16,300.69,344.84,299.61,344.84,297.26Z"/><path class="cls-14" d="M359,290v4c-.31,0-.63,0-.79,0a1.89,1.89,0,0,0-2.12,2v4.47h-3.73V290.25h3.73v1.4h0a3.46,3.46,0,0,1,2.86-1.61Z"/><path class="cls-14" d="M370.49,290.25v10.23H367v-1h0a3.14,3.14,0,0,1-2.63,1.17c-2.8,0-4.75-2.17-4.75-5.33s2-5.32,4.53-5.32a3.44,3.44,0,0,1,2.65,1.22h0v-1Zm-3.58,5.12a1.82,1.82,0,1,0-3.61,0,1.82,1.82,0,1,0,3.61,0Z"/><path class="cls-14" d="M372.53,285.65h3.57l-1.51,5.82h-2.66Z"/><path class="cls-14" d="M376.62,299.16l1.69-2.3a4.09,4.09,0,0,0,2.56,1.16c.51,0,.75-.15.75-.42s-.13-.43-1.39-.79c-1.74-.5-3.25-1.39-3.25-3.34,0-2.24,1.8-3.43,3.93-3.43a6.4,6.4,0,0,1,4,1.29l-1.72,2.48a3.3,3.3,0,0,0-2.15-1.05c-.33,0-.64.12-.64.42s.24.38,1.26.71c2.33.75,3.46,1.42,3.46,3.42s-1.42,3.38-4.31,3.38A6.09,6.09,0,0,1,376.62,299.16Z"/><path class="cls-5" d="M449.77,215.06H581.15a1.68,1.68,0,0,1,1.68,1.67V249.1a1.68,1.68,0,0,1-1.68,1.68H568.44l-14.39,14.38V250.78H449.77a1.68,1.68,0,0,1-1.68-1.68V216.73A1.68,1.68,0,0,1,449.77,215.06Z"/><path class="cls-6" d="M452.89,244.3a1.68,1.68,0,0,0,1.67,1.68H558.84v14.39L573.23,246H586a1.68,1.68,0,0,0,1.67-1.68V211.93a1.67,1.67,0,0,0-1.67-1.67H454.56a1.67,1.67,0,0,0-1.67,1.67Z"/><path class="cls-14" d="M462.05,220.12h4V226h4.47v-5.91h4V235h-4v-5.4h-4.47V235h-4Z"/><path class="cls-14" d="M486.5,230.75h-6.71a1.92,1.92,0,0,0,2.12,1.47,3.17,3.17,0,0,0,2.36-1.13l1.93,2.12a6,6,0,0,1-4.68,1.95,5.33,5.33,0,1,1-.06-10.65,5,5,0,0,1,5.14,5.25A5.54,5.54,0,0,1,486.5,230.75Zm-6.7-2H483a1.54,1.54,0,0,0-1.54-1.37A1.6,1.6,0,0,0,479.8,228.72Z"/><path class="cls-14" d="M488.07,219.58h3.72V235h-3.72Z"/><path class="cls-14" d="M504.31,219.58V235h-3.54v-1h0a3.26,3.26,0,0,1-2.71,1.17c-2.8,0-4.75-2.17-4.75-5.33s2-5.32,4.52-5.32a3.61,3.61,0,0,1,2.75,1.23h0v-6.16Zm-3.58,10.26a1.89,1.89,0,0,0-1.89-2.05,2.06,2.06,0,1,0,1.89,2.05Z"/><path class="cls-5" d="M-71.34,190H38.16a1.68,1.68,0,0,1,1.68,1.68V224a1.68,1.68,0,0,1-1.68,1.68H25.45L11.06,240.11V225.72h-82.4A1.67,1.67,0,0,1-73,224V191.68A1.67,1.67,0,0,1-71.34,190Z"/><path class="cls-6" d="M-68.22,219.25a1.67,1.67,0,0,0,1.68,1.67h82.4v14.39l14.38-14.39H43a1.67,1.67,0,0,0,1.67-1.67V186.88A1.68,1.68,0,0,0,43,185.2H-66.54a1.68,1.68,0,0,0-1.68,1.68Z"/><path class="cls-14" d="M-2.3,194.52H1.43V209.9H-2.3Z"/><path class="cls-14" d="M13.27,205.7H6.57a1.91,1.91,0,0,0,2.12,1.46A3.13,3.13,0,0,0,11,206L13,208.15a6,6,0,0,1-4.68,2,5.33,5.33,0,1,1-.06-10.65,5,5,0,0,1,5.14,5.25A5.63,5.63,0,0,1,13.27,205.7Zm-6.69-2H9.76a1.56,1.56,0,0,0-1.55-1.37A1.58,1.58,0,0,0,6.58,203.67Z"/><path class="cls-14" d="M24.65,205.7H18a1.91,1.91,0,0,0,2.12,1.46A3.12,3.12,0,0,0,22.42,206l1.93,2.12a6,6,0,0,1-4.68,2,5.33,5.33,0,1,1-.06-10.65,5,5,0,0,1,5.15,5.25A4.84,4.84,0,0,1,24.65,205.7Zm-6.69-2h3.18a1.56,1.56,0,0,0-1.55-1.37A1.58,1.58,0,0,0,18,203.67Z"/><path class="cls-14" d="M26.54,206.68v-4.05H25.43v-3h1.11v-3.21l3.72-.39v3.6h2.22v3H30.26v3.25c0,.48.06,1,.67,1a2.1,2.1,0,0,0,.75-.16l.91,2.6a5.41,5.41,0,0,1-3,.75C27.86,210.11,26.54,209,26.54,206.68Z"/><path class="cls-5" d="M352.79,86.36h104A1.68,1.68,0,0,1,458.5,88V120.4a1.68,1.68,0,0,1-1.68,1.68H444.11l-14.39,14.39V122.08H352.79a1.67,1.67,0,0,1-1.67-1.68V88A1.67,1.67,0,0,1,352.79,86.36Z"/><path class="cls-6" d="M355.91,115.61a1.68,1.68,0,0,0,1.68,1.67h76.92v14.39l14.39-14.39h12.72a1.67,1.67,0,0,0,1.67-1.67V83.24a1.68,1.68,0,0,0-1.67-1.68h-104a1.68,1.68,0,0,0-1.68,1.68Z"/><path class="cls-14" d="M364,98.87a7.3,7.3,0,0,1,7.73-7.66,7.92,7.92,0,0,1,6,2.86l-2.91,2.49A4.36,4.36,0,0,0,371.73,95a3.81,3.81,0,0,0,0,7.61,4.27,4.27,0,0,0,3.14-1.5l2.91,2.49a7.81,7.81,0,0,1-6,2.84C367.61,106.47,364,103.82,364,98.87Z"/><path class="cls-14" d="M378.5,101.14c0-3.14,2.3-5.33,5.61-5.33a5.24,5.24,0,0,1,5.6,5.33c0,3.15-2.31,5.33-5.6,5.33S378.5,104.29,378.5,101.14Zm7.46,0a1.86,1.86,0,1,0-3.71,0,1.86,1.86,0,1,0,3.71,0Z"/><path class="cls-14" d="M407.54,100.27v6h-3.72v-5.14c0-1.1-.25-2-1.24-2-.75,0-1.35.61-1.35,2v5.14H397.5v-5.14c0-1.1-.26-2-1.24-2-.81,0-1.41.61-1.41,2v5.14h-3.74V96h3.74v1.16h0a3.43,3.43,0,0,1,2.74-1.38,3.2,3.2,0,0,1,2.93,1.45h0a4.15,4.15,0,0,1,3.32-1.45C406,95.81,407.54,97,407.54,100.27Z"/><path class="cls-14" d="M420.34,101.14c0,3.15-1.95,5.33-4.75,5.33a3.24,3.24,0,0,1-2.54-1.11h0v5H409.3V96H413v1h0a3.53,3.53,0,0,1,2.74-1.25C418.37,95.81,420.34,98,420.34,101.14Zm-3.76,0a1.86,1.86,0,0,0-1.82-2,2.06,2.06,0,0,0,0,4.1A1.85,1.85,0,0,0,416.58,101.14Z"/><path class="cls-14" d="M432.22,96v10.22h-3.54v-1h0a3.14,3.14,0,0,1-2.63,1.18c-2.8,0-4.75-2.18-4.75-5.34s2-5.32,4.53-5.32A3.42,3.42,0,0,1,428.45,97h0V96Zm-3.58,5.11a1.82,1.82,0,1,0-1.79,2.06A1.87,1.87,0,0,0,428.64,101.14Z"/><path class="cls-14" d="M433.58,101.14c0-3.14,2.31-5.33,5.61-5.33a5.56,5.56,0,0,1,4.46,2.11L441.18,100a2.38,2.38,0,0,0-1.9-.91,1.88,1.88,0,0,0-1.95,2,1.93,1.93,0,0,0,2,2,2.36,2.36,0,0,0,1.85-.83l2.53,2.21a6,6,0,0,1-4.76,1.94A5.17,5.17,0,0,1,433.58,101.14Z"/><path class="cls-14" d="M445.23,103V99h-1.11V96h1.11V92.82l3.72-.39V96h2.22v3H449v3.26c0,.47.06,1,.67,1a2.15,2.15,0,0,0,.76-.16l.9,2.6a5.28,5.28,0,0,1-3,.76C446.56,106.47,445.23,105.39,445.23,103Z"/><path class="cls-5" d="M177.91,3h148.4A1.67,1.67,0,0,1,328,4.67V37a1.68,1.68,0,0,1-1.67,1.68H313.6L299.21,53.11V38.72H177.91A1.68,1.68,0,0,1,176.23,37V4.67A1.68,1.68,0,0,1,177.91,3Z"/><path class="cls-6" d="M181,32.25a1.67,1.67,0,0,0,1.67,1.67H304V48.31l14.39-14.39h12.72a1.67,1.67,0,0,0,1.67-1.67V-.12a1.68,1.68,0,0,0-1.67-1.68H182.7A1.68,1.68,0,0,0,181-.12Z"/><path class="cls-14" d="M189.56,8.06h9.86V11.6h-6v2.23h4.71v3.45H193.4v2.09h6.46v3.52h-10.3Z"/><path class="cls-14" d="M201.69,15.62h-.93V12.67h.93V11.21c0-2.65,1.44-3.9,3.5-3.9a5.11,5.11,0,0,1,2.85.83l-.64,2.53a2.89,2.89,0,0,0-1.08-.27c-.5,0-.89.17-.89.86v1.41h1.67v2.95h-1.67v7.27h-3.74Z"/><path class="cls-14" d="M209,15.62h-.93V12.67H209V11.21c0-2.65,1.44-3.9,3.51-3.9a5.07,5.07,0,0,1,2.84.83l-.64,2.53a2.89,2.89,0,0,0-1.08-.27c-.5,0-.89.17-.89.86v1.41h1.67v2.95h-1.67v7.27H209Z"/><path class="cls-14" d="M225.16,18.69h-6.71a1.92,1.92,0,0,0,2.12,1.47A3.17,3.17,0,0,0,222.93,19l1.93,2.12a6,6,0,0,1-4.68,2,5.16,5.16,0,0,1-5.36-5.34,5.13,5.13,0,0,1,5.3-5.32,5,5,0,0,1,5.14,5.25A5.45,5.45,0,0,1,225.16,18.69Zm-6.7-2h3.18a1.54,1.54,0,0,0-1.54-1.36A1.6,1.6,0,0,0,218.46,16.66Z"/><path class="cls-14" d="M226.2,17.79a5.23,5.23,0,0,1,5.6-5.34,5.57,5.57,0,0,1,4.47,2.11l-2.48,2.11a2.37,2.37,0,0,0-1.89-.91,1.88,1.88,0,0,0-2,2,1.92,1.92,0,0,0,2,2,2.36,2.36,0,0,0,1.84-.83l2.54,2.21a6,6,0,0,1-4.76,1.94A5.16,5.16,0,0,1,226.2,17.79Z"/><path class="cls-14" d="M237.84,19.68V15.62h-1.11V12.67h1.11V9.46l3.72-.39v3.6h2.23v2.95h-2.23v3.26c0,.47.07,1,.68,1a2.15,2.15,0,0,0,.75-.17l.91,2.6a5.35,5.35,0,0,1-3,.76C239.17,23.11,237.84,22,237.84,19.68Z"/><path class="cls-14" d="M245,9.49a2.14,2.14,0,1,1,2.14,2A2,2,0,0,1,245,9.49Zm.28,3.18H249V22.89h-3.72Z"/><path class="cls-14" d="M260.79,18.69h-6.7a1.91,1.91,0,0,0,2.12,1.47A3.15,3.15,0,0,0,258.56,19l1.93,2.12a6,6,0,0,1-4.68,2,5.16,5.16,0,0,1-5.36-5.34,5.13,5.13,0,0,1,5.3-5.32,5,5,0,0,1,5.15,5.25A4.69,4.69,0,0,1,260.79,18.69Zm-6.69-2h3.18a1.56,1.56,0,0,0-1.55-1.36A1.58,1.58,0,0,0,254.1,16.66Z"/><path class="cls-14" d="M262.53,15.62h-.92V12.67h.92V11.21c0-2.65,1.44-3.9,3.51-3.9a5,5,0,0,1,2.84.83l-.64,2.53a2.81,2.81,0,0,0-1.08-.27c-.5,0-.88.17-.88.86v1.41H268v2.95h-1.67v7.27h-3.75Z"/><path class="cls-14" d="M274.35,7.52h3.72V22.89h-3.72Z"/><path class="cls-14" d="M289.92,18.69h-6.7a1.91,1.91,0,0,0,2.12,1.47A3.17,3.17,0,0,0,287.69,19l1.93,2.12a6,6,0,0,1-4.68,2,5.16,5.16,0,0,1-5.36-5.34,5.13,5.13,0,0,1,5.3-5.32A5,5,0,0,1,290,17.7,5.45,5.45,0,0,1,289.92,18.69Zm-6.69-2h3.17a1.54,1.54,0,0,0-1.54-1.36A1.58,1.58,0,0,0,283.23,16.66Z"/><path class="cls-14" d="M298,12.45v4c-.3,0-.63,0-.78,0a1.88,1.88,0,0,0-2.12,2v4.46H291.4V12.67h3.73v1.39h0A3.46,3.46,0,0,1,298,12.45Z"/><path class="cls-14" d="M308.89,18.69h-6.7a1.91,1.91,0,0,0,2.12,1.47A3.17,3.17,0,0,0,306.66,19l1.93,2.12a6,6,0,0,1-4.68,2,5.16,5.16,0,0,1-5.36-5.34,5.13,5.13,0,0,1,5.3-5.32A5,5,0,0,1,309,17.7,5.45,5.45,0,0,1,308.89,18.69Zm-6.7-2h3.18a1.54,1.54,0,0,0-1.54-1.36A1.6,1.6,0,0,0,302.19,16.66Z"/><path class="cls-14" d="M320.65,16.71v6.18h-3.73V17.6c0-1.45-.41-1.84-1.34-1.84s-1.48.61-1.48,2v5.13h-3.73V12.67h3.73v1.12h0a3.76,3.76,0,0,1,2.9-1.34C319.1,12.45,320.65,13.39,320.65,16.71Z"/><path class="cls-5" d="M409.45-2.39H576.69a1.68,1.68,0,0,1,1.68,1.67V53.53a1.68,1.68,0,0,1-1.68,1.68H564L549.59,69.6V55.21H409.45a1.68,1.68,0,0,1-1.68-1.68V-.72A1.68,1.68,0,0,1,409.45-2.39Z"/><path class="cls-6" d="M412.57,48.74a1.66,1.66,0,0,0,1.67,1.67H554.38V64.8l14.39-14.39h12.72a1.67,1.67,0,0,0,1.67-1.67V-5.51a1.68,1.68,0,0,0-1.67-1.68H414.24a1.67,1.67,0,0,0-1.67,1.68Z"/><path class="cls-14" d="M420.19,15.34l2.25-2.76a5,5,0,0,0,3.38,1.64c.93,0,1.27-.49,1.27-1s-.28-.89-1.87-1.42C423,11.08,420.71,10,420.71,7c0-2.51,2.1-4.42,5-4.48a7.7,7.7,0,0,1,5.25,2L428.7,7.28a4.77,4.77,0,0,0-2.82-1.34c-.7,0-1,.35-1,.88s.32.9,1.83,1.48c2.62,1,4.59,1.65,4.59,4.51,0,3.7-3.1,4.91-5.58,4.91A7.69,7.69,0,0,1,420.19,15.34Z"/><path class="cls-14" d="M432.7,2.13h3.72V17.5H432.7Z"/><path class="cls-14" d="M448.4,7.28V17.5h-3.74V16.41h-.05a3.48,3.48,0,0,1-2.78,1.31c-2.09,0-3.62-1.13-3.62-4.46v-6h3.72v5.09c0,1.45.39,2.06,1.34,2.06.78,0,1.39-.62,1.39-2V7.28Z"/><path class="cls-14" d="M450,4.1a2.14,2.14,0,1,1,2.14,2A2,2,0,0,1,450,4.1Zm.28,3.18H454V17.5h-3.72Z"/><path class="cls-14" d="M456.35,14.29v-4h-1.11v-3h1.11V4.07l3.72-.39v3.6h2.22v3h-2.22v3.25c0,.48.06,1,.67,1a2,2,0,0,0,.75-.17l.91,2.6a5.32,5.32,0,0,1-3,.76C457.67,17.72,456.35,16.64,456.35,14.29Z"/><path class="cls-14" d="M479.1,7.28V17.5h-3.53v-.95h0a3.16,3.16,0,0,1-2.63,1.17c-2.81,0-4.75-2.17-4.75-5.33s2-5.32,4.52-5.32a3.41,3.41,0,0,1,2.65,1.22h0v-1Zm-3.57,5.12a1.88,1.88,0,0,0-1.8-2.05,1.86,1.86,0,0,0-1.81,2.05,1.85,1.85,0,0,0,1.81,2.06A1.87,1.87,0,0,0,475.53,12.4Z"/><path class="cls-14" d="M491.38,7.28V17.5h-3.53v-.95h0a3.17,3.17,0,0,1-2.63,1.17c-2.81,0-4.75-2.17-4.75-5.33s2-5.32,4.52-5.32a3.41,3.41,0,0,1,2.65,1.22h0v-1Zm-3.57,5.12a1.88,1.88,0,0,0-1.8-2.05,1.86,1.86,0,0,0-1.81,2.05A1.85,1.85,0,0,0,486,14.46,1.87,1.87,0,0,0,487.81,12.4Z"/><path class="cls-14" d="M503.47,11.32V17.5h-3.73V12.21c0-1.44-.41-1.84-1.34-1.84s-1.49.61-1.49,2V17.5h-3.73V7.28h3.73V8.4h0a3.75,3.75,0,0,1,2.9-1.33C501.92,7.07,503.47,8,503.47,11.32Z"/><path class="cls-14" d="M432,33.81c0,3.15-2,5.33-4.75,5.33A3.26,3.26,0,0,1,424.52,38h0v1h-3.53V23.55h3.74v6.17h0a3.56,3.56,0,0,1,2.74-1.24C430,28.48,432,30.67,432,33.81Zm-3.76,0a1.86,1.86,0,0,0-1.82-2,1.88,1.88,0,0,0-1.88,2,1.87,1.87,0,0,0,1.88,2.06A1.85,1.85,0,0,0,428.22,33.81Z"/><path class="cls-14" d="M443.29,34.72h-6.71a1.91,1.91,0,0,0,2.12,1.47,3.19,3.19,0,0,0,2.36-1.13L443,37.18a6,6,0,0,1-4.68,2,5.17,5.17,0,0,1-5.36-5.34,5.13,5.13,0,0,1,5.3-5.32,5,5,0,0,1,5.15,5.25A5.45,5.45,0,0,1,443.29,34.72Zm-6.7-2h3.18a1.54,1.54,0,0,0-1.55-1.36A1.59,1.59,0,0,0,436.59,32.69Z"/><path class="cls-14" d="M444.85,23.55h3.72V38.92h-3.72Z"/><path class="cls-14" d="M460.42,34.72h-6.71a1.92,1.92,0,0,0,2.12,1.47,3.17,3.17,0,0,0,2.36-1.13l1.93,2.12a6,6,0,0,1-4.68,2,5.18,5.18,0,0,1-5.37-5.34,5.14,5.14,0,0,1,5.31-5.32,5,5,0,0,1,5.14,5.25A5.45,5.45,0,0,1,460.42,34.72Zm-6.7-2h3.18a1.54,1.54,0,0,0-1.54-1.36A1.6,1.6,0,0,0,453.72,32.69Z"/><path class="cls-14" d="M471.57,28.7l-3.91,10.22h-3.35L460.4,28.7h3.86L466,34.5h0l1.66-5.8Z"/><path class="cls-14" d="M472.39,25.52a2.14,2.14,0,1,1,2.14,2A2,2,0,0,1,472.39,25.52Zm.27,3.18h3.73V38.92h-3.73Z"/><path class="cls-14" d="M488.61,32.73v6.19h-3.73V33.63c0-1.45-.41-1.84-1.34-1.84s-1.48.61-1.48,2v5.14h-3.74V28.7h3.74v1.12h0a3.76,3.76,0,0,1,2.9-1.34C487.06,28.48,488.61,29.42,488.61,32.73Z"/><path class="cls-14" d="M500.84,28.7v8.73c0,3.44-1.36,5.83-5.66,5.83a8.4,8.4,0,0,1-4.24-.93l.83-2.94a6.18,6.18,0,0,0,2.94.83c1.64,0,2.49-.75,2.49-1.66v-.92h0a3.49,3.49,0,0,1-2.7,1.07c-2.7,0-4.58-2.17-4.58-5,0-3,1.92-5.23,4.38-5.23a3.66,3.66,0,0,1,2.81,1.22h0v-1Zm-3.57,4.91a1.81,1.81,0,1,0-1.8,1.82A1.75,1.75,0,0,0,497.27,33.61Z"/><path class="cls-14" d="M501.88,37.61l1.7-2.31a4,4,0,0,0,2.55,1.17c.51,0,.76-.16.76-.42s-.13-.43-1.4-.8c-1.73-.5-3.24-1.38-3.24-3.33,0-2.24,1.8-3.44,3.93-3.44a6.35,6.35,0,0,1,4,1.3l-1.72,2.48a3.25,3.25,0,0,0-2.15-1c-.33,0-.64.12-.64.41s.24.39,1.26.72c2.32.74,3.45,1.41,3.45,3.41s-1.41,3.39-4.31,3.39A6.11,6.11,0,0,1,501.88,37.61Z"/></g></g></svg>