<svg xmlns="http://www.w3.org/2000/svg" xmlns:xlink="http://www.w3.org/1999/xlink" viewBox="0 0 743 300"><defs><style>.cls-1,.cls-7{fill:none;}.cls-2{clip-path:url(#clip-path);}.cls-3{fill:#8571f1;}.cls-14,.cls-4{fill:#3d2142;}.cls-10,.cls-12,.cls-13,.cls-16,.cls-17,.cls-18,.cls-19,.cls-20,.cls-21,.cls-22,.cls-4,.cls-5,.cls-6,.cls-7,.cls-8,.cls-9{stroke:#3d2142;}.cls-10,.cls-11,.cls-12,.cls-13,.cls-16,.cls-17,.cls-18,.cls-19,.cls-21,.cls-22,.cls-4,.cls-5,.cls-6,.cls-7,.cls-8,.cls-9{stroke-linecap:round;stroke-linejoin:round;}.cls-10,.cls-11,.cls-12,.cls-13,.cls-19,.cls-20,.cls-21,.cls-22,.cls-4,.cls-5,.cls-6,.cls-7,.cls-8,.cls-9{stroke-width:1.5px;}.cls-17,.cls-5{fill:#fff;}.cls-6{fill:#f2a6f5;}.cls-18,.cls-8{fill:#7fcefc;}.cls-9{fill:#f6cdaf;}.cls-10{fill:#7f3e98;}.cls-11{fill:#6a539b;stroke:#000;}.cls-12{fill:#f96484;}.cls-13{fill:#37cca2;}.cls-15{opacity:0.2;fill:url(#linear-gradient);}.cls-16,.cls-19{fill:#f2748a;}.cls-16,.cls-17,.cls-18{stroke-width:1.64px;}.cls-20{stroke-miterlimit:10;}.cls-21{fill:#f596c0;}.cls-22{fill:#fed16c;}</style><clipPath id="clip-path"><rect class="cls-1" width="743" height="300"/></clipPath><linearGradient id="linear-gradient" x1="469.01" y1="42.93" x2="500.56" y2="42.93" gradientUnits="userSpaceOnUse"><stop offset="0" stop-color="#fff"/><stop offset="1" stop-color="#fff" stop-opacity="0"/></linearGradient></defs><g id="Layer_1" data-name="Layer 1"><g class="cls-2"><rect class="cls-3" x="-436.2" y="-168.45" width="1575.82" height="588.61"/><path class="cls-4" d="M648.75,113.05v50.11A6.79,6.79,0,0,1,642,170h-9.13L616.9,185.88V170H560a6.79,6.79,0,0,1-6.8-6.79V113.05a6.8,6.8,0,0,1,6.8-6.8h82A6.8,6.8,0,0,1,648.75,113.05Z"/><path class="cls-5" d="M645.48,109.78v50.11a6.79,6.79,0,0,1-6.8,6.79h-9.13l-15.92,15.93V166.68h-56.9a6.79,6.79,0,0,1-6.8-6.79V109.78a6.8,6.8,0,0,1,6.8-6.8h81.95A6.8,6.8,0,0,1,645.48,109.78Z"/><path class="cls-6" d="M640.66,116.72a2.5,2.5,0,0,0-.18-.24L629.63,105.4a6.57,6.57,0,0,1,2.28-10.8A6.09,6.09,0,0,1,638.5,96c.69.64,1.32,1.33,2,2a1.6,1.6,0,0,1,.18.25l1-1c.57-.56,1.1-1.17,1.72-1.67a6.35,6.35,0,0,1,10.19,3.63,6.25,6.25,0,0,1-1.67,6.07c-3.66,3.78-7.37,7.52-11.05,11.28Z"/><line class="cls-7" x1="558.05" y1="110.95" x2="575.11" y2="110.95"/><line class="cls-7" x1="618.3" y1="124.6" x2="632.66" y2="124.6"/><line class="cls-7" x1="595.35" y1="124.6" x2="611.61" y2="124.6"/><line class="cls-7" x1="558.05" y1="124.6" x2="588.66" y2="124.6"/><line class="cls-7" x1="581.9" y1="131.42" x2="619.37" y2="131.42"/><line class="cls-7" x1="558.05" y1="131.42" x2="575.21" y2="131.42"/><line class="cls-7" x1="604.6" y1="138.25" x2="623.62" y2="138.25"/><line class="cls-7" x1="587.37" y1="138.25" x2="597.91" y2="138.25"/><line class="cls-7" x1="558.05" y1="138.25" x2="580.68" y2="138.25"/><line class="cls-7" x1="595.99" y1="145.07" x2="619.37" y2="145.07"/><line class="cls-7" x1="571.05" y1="145.07" x2="589.29" y2="145.07"/><line class="cls-7" x1="558.05" y1="145.07" x2="564.36" y2="145.07"/><line class="cls-7" x1="587.47" y1="151.9" x2="627.22" y2="151.9"/><line class="cls-7" x1="558.05" y1="151.9" x2="580.77" y2="151.9"/><line class="cls-7" x1="579.27" y1="158.72" x2="588.66" y2="158.72"/><line class="cls-7" x1="558.05" y1="158.72" x2="572.57" y2="158.72"/><path class="cls-8" d="M348.13,131.35a46.64,46.64,0,0,1,93.28,0"/><rect class="cls-9" x="320.54" y="165.06" width="148.47" height="79.6"/><path class="cls-10" d="M393.69,187.3h4.44a14.18,14.18,0,0,1,14.18,14.18v43.18a0,0,0,0,1,0,0h-32.8a0,0,0,0,1,0,0V201.47A14.18,14.18,0,0,1,393.69,187.3Z"/><path class="cls-11" d="M348.49,178h3a9.65,9.65,0,0,1,9.65,9.65v44.08a0,0,0,0,1,0,0H338.83a0,0,0,0,1,0,0V187.65A9.65,9.65,0,0,1,348.49,178Z"/><path class="cls-10" d="M439.9,178h3a9.65,9.65,0,0,1,9.65,9.65v44.08a0,0,0,0,1,0,0H430.24a0,0,0,0,1,0,0V187.65A9.65,9.65,0,0,1,439.9,178Z"/><path class="cls-12" d="M500.72,39.9s6.24-9-1.66-14.23-14.31-13.5-14.31-16.54c0,3-6.41,11.31-14.31,16.54s-1.66,14.23-1.66,14.23Z"/><rect class="cls-9" x="469.06" y="39.9" width="31.5" height="204.76"/><rect class="cls-13" x="464" y="71.1" width="41.61" height="13.34"/><rect class="cls-13" x="464" y="115.64" width="41.61" height="13.34"/><rect class="cls-13" x="342.29" y="131.35" width="104.95" height="13.34"/><rect class="cls-8" x="348.13" y="144.69" width="93.28" height="20.2"/><line class="cls-7" x1="394.77" y1="84.71" x2="394.77" y2="66.85"/><polygon class="cls-14" points="441.41 144.69 348.13 152.63 348.13 144.69 441.41 144.69"/><polygon class="cls-14" points="469.01 165.06 320.54 171.5 320.54 165.06 469.01 165.06"/><polygon class="cls-14" points="500.56 128.98 469.01 128.98 469.01 135.05 500.56 128.98"/><polygon class="cls-14" points="500.56 84.75 469.01 84.75 469.01 90.82 500.56 84.75"/><polygon class="cls-15" points="500.56 39.9 469.01 39.9 469.01 45.97 500.56 39.9"/><line class="cls-7" x1="197.02" y1="217.39" x2="298.24" y2="217.39"/><line class="cls-7" x1="234.53" y1="217.39" x2="234.53" y2="38.79"/><path class="cls-16" d="M159.41,64.62c25-9.55,50.08,10.19,75.12.64V50c-25,9.54-50.08-10.19-75.12-.65Z"/><path class="cls-17" d="M159.41,79.85c25-9.55,50.08,10.18,75.12.64V65.26c-25,9.55-50.08-10.19-75.12-.64Z"/><path class="cls-18" d="M159.41,95.07c25-9.54,50.08,10.19,75.12.65V80.49c-25,9.54-50.08-10.19-75.12-.64Z"/><rect class="cls-8" x="274.71" y="229.61" width="102.7" height="29.86"/><polygon class="cls-14" points="377.42 229.61 274.71 237.01 274.71 229.61 377.42 229.61"/><polygon class="cls-19" points="355.55 89.8 326.06 65.37 296.58 89.8 283 122.38 369.13 122.38 355.55 89.8"/><polygon class="cls-6" points="360.57 122.38 291.56 122.38 268.48 229.61 383.65 229.61 360.57 122.38"/><polygon class="cls-14" points="360.57 122.38 291.56 122.38 289.63 131.35 360.57 122.38"/><rect class="cls-10" x="315.43" y="221.46" width="21.26" height="38.01"/><rect class="cls-10" x="315.43" y="180.07" width="21.26" height="23.07"/><rect class="cls-10" x="315.43" y="140.02" width="21.26" height="23.07"/><circle class="cls-20" cx="325.96" cy="100.6" r="8.99"/><circle class="cls-6" cx="325.96" cy="98.45" r="8.99"/><line class="cls-21" x1="325.65" y1="97.86" x2="395.44" y2="207.4"/><rect class="cls-9" x="313.28" y="162.55" width="94.16" height="23.45" transform="translate(313.72 -223.29) rotate(57.5)"/><rect class="cls-9" x="244.47" y="10.9" width="94.16" height="23.45" transform="translate(429.12 280.67) rotate(-122.5)"/><line class="cls-21" x1="326.15" y1="98.76" x2="298.04" y2="54.64"/><line class="cls-21" x1="325.65" y1="97.86" x2="216.12" y2="167.65"/><polygon class="cls-9" points="283.54 97.67 204.12 148.26 216.12 167.65 295.08 117.34 283.54 97.67"/><rect class="cls-9" x="354.7" y="52.32" width="94.16" height="23.45" transform="translate(28.51 225.91) rotate(-32.5)"/><line class="cls-21" x1="325.65" y1="98.65" x2="369.77" y2="70.54"/><line class="cls-22" x1="300.95" y1="259.47" x2="223.13" y2="259.47"/><path class="cls-7" d="M277.57,280.8c6.37,0,6.37,5.43,12.74,5.43s6.36-5.43,12.73-5.43,6.37,5.43,12.74,5.43,6.37-5.43,12.74-5.43,6.36,5.43,12.73,5.43,6.37-5.43,12.74-5.43,6.37,5.43,12.74,5.43,6.37-5.43,12.74-5.43,6.36,5.43,12.73,5.43,6.37-5.43,12.74-5.43"/><polygon class="cls-19" points="236.93 178.2 245.46 170.56 253.84 178.19 245.46 184.76 236.93 178.2"/><path class="cls-19" d="M261.28,173.22s4.3,25.85-15.16,25.85-16.51-25.85-16.51-25.85l15.85,11.54Z"/><line class="cls-21" x1="246.12" y1="199.07" x2="246.12" y2="259.47"/><path class="cls-13" d="M246.12,222.4s1.93-11.63,15.92-12.3C262,210.1,262.27,224,246.12,222.4Z"/><path class="cls-13" d="M230.2,224.42s1.93,11.62,15.92,12.3C246.12,236.72,246.35,222.81,230.2,224.42Z"/><circle class="cls-7" cx="427.82" cy="303.59" r="18.75"/><circle class="cls-7" cx="499.02" cy="303.59" r="18.75"/><path class="cls-7" d="M427.82,303.59,442,259.28a7.71,7.71,0,0,1,7.33-5.35h6.26"/><polygon class="cls-7" points="438.64 269.93 482.73 269.93 499.02 303.59 467.92 303.59 438.64 269.93"/><line class="cls-7" x1="467.91" y1="303.59" x2="485.58" y2="263.45"/><line class="cls-7" x1="474.59" y1="261.4" x2="492.35" y2="261.4"/><polygon class="cls-19" points="195.66 198.9 204.19 191.26 212.56 198.89 204.19 205.46 195.66 198.9"/><path class="cls-19" d="M220,193.92s4.29,25.85-15.16,25.85-16.51-25.85-16.51-25.85l15.85,11.54Z"/><line class="cls-21" x1="204.85" y1="219.77" x2="204.85" y2="280.17"/><path class="cls-13" d="M204.85,243.09s1.92-11.62,15.92-12.3C220.77,230.79,221,244.71,204.85,243.09Z"/><path class="cls-13" d="M188.93,245.12s1.92,11.62,15.92,12.3C204.85,257.42,205.08,243.51,188.93,245.12Z"/><polygon class="cls-19" points="519.8 183.22 528.33 175.58 536.7 183.21 528.33 189.78 519.8 183.22"/><path class="cls-19" d="M544.15,178.24s4.29,25.84-15.16,25.84-16.52-25.84-16.52-25.84l15.86,11.54Z"/><line class="cls-21" x1="528.99" y1="204.08" x2="528.99" y2="267.2"/><path class="cls-13" d="M529,227.41s1.92-11.62,15.92-12.3C544.91,215.11,545.13,229,529,227.41Z"/><path class="cls-13" d="M513.07,229.44S515,241.06,529,241.74C529,241.74,529.21,227.83,513.07,229.44Z"/><line class="cls-22" x1="261.98" y1="280.84" x2="153.11" y2="280.84"/><line class="cls-7" x1="502.17" y1="267.24" x2="567.84" y2="267.24"/><path class="cls-4" d="M223.85,119.06a2.45,2.45,0,0,0-2.45-2.45H100a2.45,2.45,0,0,0-2.45,2.45v58.28a2.45,2.45,0,0,0,2.45,2.45H221.4a2.45,2.45,0,0,0,2.45-2.45V158.73l21.06-21.06H223.85Z"/><path class="cls-5" d="M237.89,130.65l-21.06,21.06v18.61a2.45,2.45,0,0,1-2.45,2.45H92.93a2.45,2.45,0,0,1-2.45-2.45V112a2.45,2.45,0,0,1,2.45-2.45H214.38a2.45,2.45,0,0,1,2.45,2.45v18.61Z"/><line class="cls-7" x1="104.52" y1="123.63" x2="146.64" y2="123.63"/><line class="cls-7" x1="188.75" y1="137.67" x2="195.77" y2="137.67"/><line class="cls-7" x1="156.59" y1="137.67" x2="181.73" y2="137.67"/><line class="cls-7" x1="104.52" y1="137.67" x2="149.57" y2="137.67"/><line class="cls-7" x1="177.36" y1="144.69" x2="202.79" y2="144.69"/><line class="cls-7" x1="142.1" y1="144.69" x2="170.34" y2="144.69"/><line class="cls-7" x1="104.52" y1="144.69" x2="135.08" y2="144.69"/><line class="cls-7" x1="154.98" y1="151.71" x2="194.74" y2="151.71"/><line class="cls-7" x1="104.52" y1="151.71" x2="147.96" y2="151.71"/><line class="cls-7" x1="179.12" y1="158.73" x2="200.15" y2="158.73"/><line class="cls-7" x1="139.69" y1="158.73" x2="172.1" y2="158.73"/><line class="cls-7" x1="104.52" y1="158.73" x2="132.67" y2="158.73"/><path class="cls-19" d="M88.87,125.74a3.33,3.33,0,0,1,.24-.34L104.18,110A9.11,9.11,0,0,0,101,95a8.43,8.43,0,0,0-9.14,1.9c-1,.88-1.84,1.85-2.75,2.78a2.7,2.7,0,0,0-.25.34l-1.34-1.3a30.76,30.76,0,0,0-2.39-2.32,8.81,8.81,0,0,0-14.14,5,8.68,8.68,0,0,0,2.32,8.43c5.08,5.24,10.23,10.44,15.35,15.65A2.05,2.05,0,0,0,88.87,125.74Z"/><path class="cls-6" d="M70.79,211.57a1.66,1.66,0,0,1,.24-.18l13.59-7.46a6.56,6.56,0,0,0,.94-11,6.09,6.09,0,0,0-6.7-.6c-.84.41-1.65.89-2.47,1.35a1.37,1.37,0,0,0-.24.18l-.65-1.18c-.39-.7-.72-1.44-1.17-2.09a6.34,6.34,0,0,0-10.79.51,6.24,6.24,0,0,0-.16,6.29c2.41,4.68,4.87,9.33,7.31,14C70.7,211.43,70.73,211.46,70.79,211.57Z"/><path class="cls-19" d="M51.74,186a1.17,1.17,0,0,1,.06-.2c1.5-3.24,3-6.49,4.52-9.73a4.55,4.55,0,0,0-4-6.52,4.21,4.21,0,0,0-4,2.42c-.31.57-.56,1.17-.83,1.76,0,.07,0,.14-.06.2l-.85-.39c-.5-.23-1-.51-1.5-.69a4.4,4.4,0,0,0-5.82,4.72,4.32,4.32,0,0,0,2.5,3.57c3.26,1.62,6.54,3.21,9.81,4.81Z"/><path class="cls-19" d="M684.28,176.5c0-.07,0-.14.05-.2l4.53-9.73a4.55,4.55,0,0,0-4-6.52,4.22,4.22,0,0,0-4,2.42c-.3.57-.55,1.17-.83,1.76a.84.84,0,0,0,0,.2l-.85-.39c-.5-.23-1-.51-1.51-.69a4.4,4.4,0,0,0-5.81,4.72,4.31,4.31,0,0,0,2.49,3.57c3.26,1.62,6.54,3.21,9.82,4.81Z"/><circle class="cls-4" cx="133.87" cy="216.31" r="17.54"/><circle class="cls-9" cx="131.47" cy="213.91" r="17.54"/><path class="cls-14" d="M122.73,218.32a16.71,16.71,0,0,0,3.92,2.5,10.45,10.45,0,0,0,4.37.94,9.55,9.55,0,0,0,2.21-.27c.36-.09.73-.18,1.09-.29l1.05-.44a5,5,0,0,0,1-.53l1-.57c.65-.43,1.27-.93,2-1.36l0,0a.28.28,0,0,1,.39.08.29.29,0,0,1,0,.34c-.55.61-1.13,1.2-1.73,1.78l-1,.76a5.57,5.57,0,0,1-1.06.67,9.92,9.92,0,0,1-9.89.06,11.7,11.7,0,0,1-3.77-3.29.28.28,0,0,1,.06-.39.29.29,0,0,1,.35,0Z"/><path class="cls-4" d="M123.29,213.27s-.62-5.48,2.69-5.52,2.62,5.52,2.62,5.52-.85-2.52-2.65-2.52S123.29,213.27,123.29,213.27Z"/><path class="cls-4" d="M133.73,213.27s-.61-5.48,2.7-5.52,2.61,5.52,2.61,5.52-.84-2.52-2.65-2.52S133.73,213.27,133.73,213.27Z"/><path class="cls-4" d="M169.32,233.62H65.2a1.51,1.51,0,0,0-1.51,1.5v29a1.51,1.51,0,0,0,1.51,1.51H76.6l12.9,12.9v-12.9h79.82a1.5,1.5,0,0,0,1.5-1.51v-29A1.5,1.5,0,0,0,169.32,233.62Z"/><path class="cls-5" d="M166.52,259.84a1.5,1.5,0,0,1-1.5,1.51H85.2v12.9l-12.91-12.9H60.9a1.51,1.51,0,0,1-1.51-1.51v-29a1.51,1.51,0,0,1,1.51-1.5H165a1.5,1.5,0,0,1,1.5,1.5Z"/><path class="cls-14" d="M67.85,238.16h3.61v13.3H67.85Z"/><path class="cls-14" d="M82.58,245.91v5.55H79.23v-4.75c0-1.3-.36-1.65-1.19-1.65s-1.34.55-1.34,1.79v4.61H73.36v-9.17H76.7v1h0a3.39,3.39,0,0,1,2.6-1.19C81.19,242.1,82.58,242.94,82.58,245.91Z"/><path class="cls-14" d="M84.51,248.58v-3.64h-1v-2.65h1v-2.88l3.34-.35v3.23h2v2.65h-2v2.91c0,.43.05.94.6.94a1.91,1.91,0,0,0,.68-.15l.81,2.33a4.72,4.72,0,0,1-2.68.68C85.7,251.65,84.51,250.68,84.51,248.58Z"/><path class="cls-14" d="M99.6,247.69h-6a1.72,1.72,0,0,0,1.9,1.32,2.85,2.85,0,0,0,2.12-1l1.72,1.9a5.32,5.32,0,0,1-4.19,1.76,4.78,4.78,0,1,1-.06-9.55,4.5,4.5,0,0,1,4.62,4.7A5.37,5.37,0,0,1,99.6,247.69Zm-6-1.82h2.85a1.37,1.37,0,0,0-1.38-1.22A1.43,1.43,0,0,0,93.59,245.87Z"/><path class="cls-14" d="M106.87,242.1v3.57c-.27,0-.57,0-.7,0a1.69,1.69,0,0,0-1.91,1.8v4h-3.34v-9.17h3.34v1.25h0a3.09,3.09,0,0,1,2.56-1.44Z"/><path class="cls-14" d="M117.21,242.29v9.17H114v-.86h0a2.83,2.83,0,0,1-2.36,1.05c-2.51,0-4.26-2-4.26-4.78s1.77-4.77,4.06-4.77a3.07,3.07,0,0,1,2.38,1.09h0v-.9ZM114,246.88a1.63,1.63,0,1,0-3.23,0,1.63,1.63,0,1,0,3.23,0Z"/><path class="cls-14" d="M118.43,246.88a4.69,4.69,0,0,1,5-4.78,5,5,0,0,1,4,1.89l-2.22,1.89a2.14,2.14,0,0,0-1.7-.82,1.69,1.69,0,0,0-1.75,1.79,1.74,1.74,0,0,0,1.79,1.83,2.07,2.07,0,0,0,1.65-.75l2.28,2a5.42,5.42,0,0,1-4.27,1.74A4.63,4.63,0,0,1,118.43,246.88Z"/><path class="cls-14" d="M128.87,248.58v-3.64h-1v-2.65h1v-2.88l3.34-.35v3.23h2v2.65h-2v2.91c0,.43,0,.94.6.94a1.91,1.91,0,0,0,.68-.15l.81,2.33a4.72,4.72,0,0,1-2.68.68C130.06,251.65,128.87,250.68,128.87,248.58Z"/><path class="cls-14" d="M135.25,239.44a1.92,1.92,0,1,1,1.92,1.81A1.81,1.81,0,0,1,135.25,239.44Zm.24,2.85h3.34v9.17h-3.34Z"/><path class="cls-14" d="M149.45,247.69h-6a1.71,1.71,0,0,0,1.9,1.32,2.83,2.83,0,0,0,2.11-1l1.73,1.9a5.34,5.34,0,0,1-4.2,1.76,4.78,4.78,0,0,1,0-9.55,4.68,4.68,0,0,1,4.52,5.59Zm-6-1.82h2.85a1.38,1.38,0,0,0-1.39-1.22A1.42,1.42,0,0,0,143.45,245.87Z"/><path class="cls-14" d="M151,244.94h-.83v-2.65H151V241c0-2.38,1.29-3.5,3.15-3.5a4.55,4.55,0,0,1,2.55.75l-.58,2.27a2.44,2.44,0,0,0-1-.25c-.45,0-.79.16-.79.78v1.26h1.5v2.65h-1.5v6.52H151Z"/><path class="cls-4" d="M690.69,37H578.93a1.51,1.51,0,0,0-1.5,1.51v29a1.5,1.5,0,0,0,1.5,1.5h11.4l12.91,12.9V69h87.45a1.5,1.5,0,0,0,1.5-1.5v-29A1.51,1.51,0,0,0,690.69,37Z"/><path class="cls-5" d="M687.89,63.24a1.5,1.5,0,0,1-1.5,1.5H598.93v12.9L586,64.74h-11.4a1.5,1.5,0,0,1-1.5-1.5v-29a1.51,1.51,0,0,1,1.5-1.5H686.39a1.5,1.5,0,0,1,1.5,1.5Z"/><path class="cls-14" d="M593.35,41.55l-4.83,13.3h-3.13l-4.86-13.3h3.87l2.52,8.23h0l2.56-8.23Z"/><path class="cls-14" d="M601.68,51.08h-6a1.72,1.72,0,0,0,1.9,1.32,2.85,2.85,0,0,0,2.11-1l1.73,1.9A5.33,5.33,0,0,1,597.22,55a4.78,4.78,0,1,1-.06-9.55,4.51,4.51,0,0,1,4.62,4.71A4.32,4.32,0,0,1,601.68,51.08Zm-6-1.81h2.85A1.39,1.39,0,0,0,597.14,48,1.43,1.43,0,0,0,595.68,49.27Z"/><path class="cls-14" d="M603.09,41.07h3.33V54.85h-3.33Z"/><path class="cls-14" d="M617.05,51.08h-6a1.72,1.72,0,0,0,1.9,1.32,2.87,2.87,0,0,0,2.12-1l1.72,1.9A5.31,5.31,0,0,1,612.58,55a4.78,4.78,0,1,1-.06-9.55,4.51,4.51,0,0,1,4.62,4.71A5.15,5.15,0,0,1,617.05,51.08Zm-6-1.81h2.85A1.38,1.38,0,0,0,612.5,48,1.43,1.43,0,0,0,611,49.27Z"/><path class="cls-14" d="M631.55,51.08h-6a1.71,1.71,0,0,0,1.9,1.32,2.85,2.85,0,0,0,2.11-1l1.73,1.9a5.34,5.34,0,0,1-4.2,1.75,4.78,4.78,0,1,1-.05-9.55,4.5,4.5,0,0,1,4.61,4.71A4.31,4.31,0,0,1,631.55,51.08Zm-6-1.81h2.86A1.4,1.4,0,0,0,627,48,1.43,1.43,0,0,0,625.54,49.27Z"/><path class="cls-14" d="M636.46,52.88h0l-1.3,2h-3.54l3-4.74-3-4.43h3.71l1.07,2h0l1.08-2h3.7l-3,4.44,3,4.73h-3.57Z"/><path class="cls-14" d="M642.54,52V48.33h-1V45.68h1V42.8l3.33-.34v3.22h2v2.65h-2v2.92c0,.43.06.93.61.93a1.91,1.91,0,0,0,.67-.15l.82,2.34a4.86,4.86,0,0,1-2.68.67C643.72,55,642.54,54.07,642.54,52Z"/><path class="cls-14" d="M655.2,45.49v3.57h-.7a1.69,1.69,0,0,0-1.91,1.8v4h-3.34V45.68h3.34v1.25h0a3.09,3.09,0,0,1,2.56-1.44Z"/><path class="cls-14" d="M665.54,45.68v9.17h-3.17V54h0A2.83,2.83,0,0,1,660,55c-2.51,0-4.26-1.94-4.26-4.78s1.77-4.77,4.06-4.77a3.08,3.08,0,0,1,2.38,1.1h0v-.91Zm-3.21,4.59a1.63,1.63,0,1,0-3.23,0,1.63,1.63,0,1,0,3.23,0Z"/><path class="cls-14" d="M667.36,41.55h3.21l-1.36,5.22h-2.39Z"/><path class="cls-14" d="M671,53.67l1.52-2.06a3.66,3.66,0,0,0,2.29,1c.46,0,.68-.14.68-.38s-.12-.38-1.25-.71c-1.56-.45-2.91-1.24-2.91-3,0-2,1.61-3.08,3.52-3.08a5.71,5.71,0,0,1,3.58,1.16l-1.54,2.22a3,3,0,0,0-1.93-.94c-.29,0-.58.11-.58.38s.22.34,1.14.64c2.08.66,3.1,1.27,3.1,3.06s-1.28,3-3.87,3A5.47,5.47,0,0,1,671,53.67Z"/><path class="cls-4" d="M584.93,221.42H702.74a1.51,1.51,0,0,1,1.5,1.51v29a1.5,1.5,0,0,1-1.5,1.5h-11.4l-12.9,12.9v-12.9H584.93a1.5,1.5,0,0,1-1.5-1.5v-29A1.51,1.51,0,0,1,584.93,221.42Z"/><path class="cls-5" d="M587.73,247.65a1.5,1.5,0,0,0,1.51,1.5h93.5v12.9l12.9-12.9H707a1.5,1.5,0,0,0,1.5-1.5v-29a1.51,1.51,0,0,0-1.5-1.51H589.24a1.51,1.51,0,0,0-1.51,1.51Z"/><path class="cls-14" d="M596,226h3.6v5.3h4V226h3.6v13.3h-3.6v-4.84h-4v4.84H596Z"/><path class="cls-14" d="M617.87,235.5h-6a1.71,1.71,0,0,0,1.9,1.31,2.85,2.85,0,0,0,2.11-1l1.73,1.9a5.34,5.34,0,0,1-4.2,1.75,4.78,4.78,0,0,1,0-9.55,4.69,4.69,0,0,1,4.52,5.6Zm-6-1.82h2.85a1.39,1.39,0,0,0-1.39-1.23A1.42,1.42,0,0,0,611.87,233.68Z"/><path class="cls-14" d="M619.28,225.48h3.33v13.78h-3.33Z"/><path class="cls-14" d="M633.84,225.48v13.78h-3.17v-.86h0a3,3,0,0,1-2.43,1c-2.51,0-4.26-1.94-4.26-4.78s1.76-4.77,4.06-4.77a3.23,3.23,0,0,1,2.46,1.11h0v-5.53Zm-3.21,9.2a1.7,1.7,0,0,0-1.69-1.84,1.85,1.85,0,1,0,1.69,1.84Z"/><path class="cls-14" d="M644.37,235.5h-6a1.71,1.71,0,0,0,1.9,1.31,2.85,2.85,0,0,0,2.11-1l1.73,1.9a5.34,5.34,0,0,1-4.2,1.75,4.78,4.78,0,0,1,0-9.55,4.69,4.69,0,0,1,4.52,5.6Zm-6-1.82h2.85a1.39,1.39,0,0,0-1.39-1.23A1.42,1.42,0,0,0,638.37,233.68Z"/><path class="cls-14" d="M651.64,229.9v3.57h-.7a1.69,1.69,0,0,0-1.9,1.8v4h-3.35v-9.17H649v1.26h0a3.07,3.07,0,0,1,2.56-1.45Z"/><path class="cls-14" d="M661.38,235.5h-6a1.71,1.71,0,0,0,1.9,1.31,2.85,2.85,0,0,0,2.11-1l1.73,1.9a5.34,5.34,0,0,1-4.2,1.75,4.78,4.78,0,0,1,0-9.55,4.69,4.69,0,0,1,4.52,5.6Zm-6-1.82h2.85a1.4,1.4,0,0,0-1.39-1.23A1.42,1.42,0,0,0,655.38,233.68Z"/><path class="cls-14" d="M667.37,236.38v-3.64h-1v-2.65h1v-2.88l3.33-.34v3.22h2v2.65h-2v2.92c0,.43.06.93.61.93a1.7,1.7,0,0,0,.67-.15l.82,2.34a4.86,4.86,0,0,1-2.68.67C668.55,239.45,667.37,238.48,667.37,236.38Z"/><path class="cls-14" d="M683,230.09v9.17h-3.17v-.86h0a2.84,2.84,0,0,1-2.36,1c-2.52,0-4.26-1.94-4.26-4.78s1.76-4.77,4.06-4.77a3.08,3.08,0,0,1,2.37,1.1h0v-.91Zm-3.2,4.59a1.63,1.63,0,1,0-3.24,0,1.63,1.63,0,1,0,3.24,0Z"/><path class="cls-14" d="M694.05,230.09v9.17h-3.17v-.86h0a2.84,2.84,0,0,1-2.36,1c-2.52,0-4.26-1.94-4.26-4.78s1.76-4.77,4.06-4.77a3.08,3.08,0,0,1,2.37,1.1h0v-.91Zm-3.2,4.59a1.63,1.63,0,1,0-3.24,0,1.63,1.63,0,1,0,3.24,0Z"/><path class="cls-14" d="M695.75,225.48h3.34v13.78h-3.34Z"/><path class="cls-4" d="M39.32,37H132.6a1.51,1.51,0,0,1,1.5,1.51v29a1.5,1.5,0,0,1-1.5,1.5H121.2l-12.9,12.9V69h-69a1.5,1.5,0,0,1-1.5-1.5v-29A1.51,1.51,0,0,1,39.32,37Z"/><path class="cls-5" d="M42.12,63.24a1.5,1.5,0,0,0,1.5,1.5h69v12.9l12.9-12.9h11.4a1.5,1.5,0,0,0,1.5-1.5v-29a1.5,1.5,0,0,0-1.5-1.5H43.62a1.5,1.5,0,0,0-1.5,1.5Z"/><path class="cls-14" d="M49.37,48.23a6.56,6.56,0,0,1,6.94-6.87,7.11,7.11,0,0,1,5.42,2.57l-2.61,2.23a3.93,3.93,0,0,0-2.81-1.37,3.42,3.42,0,0,0,0,6.82,3.77,3.77,0,0,0,2.81-1.35l2.61,2.24A7,7,0,0,1,56.31,55C52.61,55,49.37,52.67,49.37,48.23Z"/><path class="cls-14" d="M62.38,50.27a5,5,0,0,1,10.05,0,4.69,4.69,0,0,1-5,4.77A4.67,4.67,0,0,1,62.38,50.27Zm6.69,0a1.67,1.67,0,1,0-3.33,0,1.67,1.67,0,1,0,3.33,0Z"/><path class="cls-14" d="M88.41,49.48v5.37H85.08V50.24c0-1-.22-1.79-1.11-1.79-.68,0-1.22.55-1.22,1.79v4.61H79.41V50.24c0-1-.23-1.79-1.11-1.79-.73,0-1.27.55-1.27,1.79v4.61H73.69V45.68H77v1h0a3.09,3.09,0,0,1,2.46-1.23,2.87,2.87,0,0,1,2.63,1.3h0a3.7,3.7,0,0,1,3-1.3C87,45.49,88.41,46.51,88.41,49.48Z"/><path class="cls-14" d="M99.89,50.26c0,2.84-1.74,4.78-4.26,4.78a2.89,2.89,0,0,1-2.27-1h0v4.49H90V45.68h3.36v.93h0a3.19,3.19,0,0,1,2.46-1.12C98.13,45.49,99.89,47.45,99.89,50.26Zm-3.37,0a1.68,1.68,0,0,0-1.63-1.84,1.85,1.85,0,0,0,0,3.69A1.66,1.66,0,0,0,96.52,50.27Z"/><path class="cls-14" d="M110.54,45.68v9.17h-3.17V54h0A2.84,2.84,0,0,1,105,55c-2.52,0-4.26-1.94-4.26-4.78s1.76-4.77,4.06-4.77a3.08,3.08,0,0,1,2.37,1.1h0v-.91Zm-3.2,4.59a1.63,1.63,0,1,0-3.24,0,1.63,1.63,0,1,0,3.24,0Z"/><path class="cls-14" d="M111.77,50.27a4.69,4.69,0,0,1,5-4.78,5,5,0,0,1,4,1.89l-2.23,1.89a2.14,2.14,0,0,0-1.7-.82,1.68,1.68,0,0,0-1.74,1.79,1.73,1.73,0,0,0,1.78,1.83,2.1,2.1,0,0,0,1.66-.75l2.27,2A5.43,5.43,0,0,1,116.57,55,4.61,4.61,0,0,1,111.77,50.27Z"/><path class="cls-14" d="M122.21,52V48.33h-1V45.68h1V42.8l3.33-.34v3.22h2v2.65h-2v2.92c0,.43.06.93.61.93a1.82,1.82,0,0,0,.67-.15l.82,2.34A4.86,4.86,0,0,1,125,55C123.4,55,122.21,54.07,122.21,52Z"/><circle class="cls-4" cx="690.5" cy="119.05" r="17.54"/><circle class="cls-9" cx="688.09" cy="116.64" r="17.54"/><path class="cls-14" d="M679.36,121.05a16.39,16.39,0,0,0,3.92,2.5,10.28,10.28,0,0,0,4.37,1,9.55,9.55,0,0,0,2.21-.27c.36-.1.73-.18,1.09-.29s.69-.31,1-.45a6.22,6.22,0,0,0,1-.52l1-.58c.66-.42,1.27-.92,2-1.36l0,0a.29.29,0,0,1,.4.08.3.3,0,0,1,0,.35c-.55.6-1.13,1.2-1.73,1.77l-1,.76a5.39,5.39,0,0,1-1.07.68,9.87,9.87,0,0,1-9.88,0,11.81,11.81,0,0,1-3.78-3.28.3.3,0,0,1,.06-.4.3.3,0,0,1,.36,0Z"/><path class="cls-4" d="M679.91,116s-.61-5.49,2.7-5.53,2.61,5.53,2.61,5.53-.84-2.53-2.64-2.53S679.91,116,679.91,116Z"/><path class="cls-4" d="M690.36,116s-.61-5.49,2.7-5.53,2.61,5.53,2.61,5.53-.84-2.53-2.65-2.53S690.36,116,690.36,116Z"/></g></g></svg>