<svg xmlns="http://www.w3.org/2000/svg" xmlns:xlink="http://www.w3.org/1999/xlink" viewBox="0 0 983 300"><defs><style>.cls-1,.cls-7{fill:none;}.cls-2{clip-path:url(#clip-path);}.cls-3{fill:#8571f1;}.cls-4{clip-path:url(#clip-path-2);}.cls-15,.cls-5{fill:#3d2142;}.cls-10,.cls-11,.cls-12,.cls-14,.cls-17,.cls-18,.cls-19,.cls-20,.cls-21,.cls-22,.cls-23,.cls-5,.cls-6,.cls-7,.cls-8,.cls-9{stroke:#3d2142;}.cls-10,.cls-11,.cls-12,.cls-13,.cls-14,.cls-17,.cls-18,.cls-19,.cls-20,.cls-22,.cls-23,.cls-5,.cls-6,.cls-7,.cls-8,.cls-9{stroke-linecap:round;stroke-linejoin:round;}.cls-10,.cls-11,.cls-12,.cls-13,.cls-14,.cls-20,.cls-21,.cls-22,.cls-23,.cls-5,.cls-6,.cls-7,.cls-8,.cls-9{stroke-width:1.5px;}.cls-18,.cls-6{fill:#fff;}.cls-8{fill:#37cca2;}.cls-9{fill:#f2a6f5;}.cls-10,.cls-19{fill:#7fcefc;}.cls-11{fill:#f6cdaf;}.cls-12{fill:#7f3e98;}.cls-13{fill:#6a539b;stroke:#000;}.cls-14{fill:#f96484;}.cls-16{opacity:0.2;fill:url(#linear-gradient);}.cls-17,.cls-20{fill:#f2748a;}.cls-17,.cls-18,.cls-19{stroke-width:1.64px;}.cls-21{stroke-miterlimit:10;}.cls-22{fill:#f596c0;}.cls-23{fill:#fed16c;}.cls-24{clip-path:url(#clip-path-3);}</style><clipPath id="clip-path"><rect class="cls-1" x="-1351.52" width="1188" height="300"/></clipPath><clipPath id="clip-path-2"><rect class="cls-1" width="983" height="300"/></clipPath><linearGradient id="linear-gradient" x1="581.88" y1="42.93" x2="613.43" y2="42.93" gradientUnits="userSpaceOnUse"><stop offset="0" stop-color="#fff"/><stop offset="1" stop-color="#fff" stop-opacity="0"/></linearGradient><clipPath id="clip-path-3"><rect class="cls-1" x="1334.82" width="743" height="300"/></clipPath></defs><g id="Layer_1" data-name="Layer 1"><g class="cls-2"><rect class="cls-3" x="-1564.37" y="-172.45" width="1575.82" height="588.61"/></g><g class="cls-4"><rect class="cls-3" x="-323.33" y="-168.45" width="1575.82" height="588.61"/><path class="cls-5" d="M948.47,44.48H784.9a2.45,2.45,0,0,0-2.45,2.45V105.2a2.45,2.45,0,0,0,2.45,2.45h18.6l21.06,21.06V107.65H948.47a2.45,2.45,0,0,0,2.45-2.45V46.93A2.45,2.45,0,0,0,948.47,44.48Z"/><path class="cls-6" d="M943.9,98.18a2.45,2.45,0,0,1-2.45,2.45H817.54v21.06l-21.06-21.06h-18.6a2.45,2.45,0,0,1-2.45-2.45V39.91a2.45,2.45,0,0,1,2.45-2.45H941.45a2.45,2.45,0,0,1,2.45,2.45Z"/><line class="cls-7" x1="789.47" y1="51.5" x2="834.49" y2="51.5"/><line class="cls-7" x1="915.82" y1="65.53" x2="922.84" y2="65.53"/><line class="cls-7" x1="883.66" y1="65.53" x2="908.8" y2="65.53"/><line class="cls-7" x1="823.26" y1="65.53" x2="876.64" y2="65.53"/><line class="cls-7" x1="789.47" y1="65.53" x2="816.24" y2="65.53"/><line class="cls-7" x1="904.42" y1="72.55" x2="929.86" y2="72.55"/><line class="cls-7" x1="869.17" y1="72.55" x2="897.4" y2="72.55"/><line class="cls-7" x1="827.05" y1="72.55" x2="862.3" y2="72.55"/><line class="cls-7" x1="789.47" y1="72.55" x2="820.03" y2="72.55"/><line class="cls-7" x1="882.05" y1="79.57" x2="921.81" y2="79.57"/><line class="cls-7" x1="838.6" y1="79.57" x2="875.03" y2="79.57"/><line class="cls-7" x1="789.47" y1="79.57" x2="831.58" y2="79.57"/><line class="cls-7" x1="906.18" y1="86.59" x2="927.22" y2="86.59"/><line class="cls-7" x1="824.64" y1="86.59" x2="899.16" y2="86.59"/><line class="cls-7" x1="789.47" y1="86.59" x2="817.62" y2="86.59"/><circle class="cls-8" cx="943.9" cy="37.46" r="10.63"/><line class="cls-8" x1="943.9" y1="32.13" x2="943.9" y2="42.79"/><line class="cls-8" x1="949.23" y1="37.46" x2="938.57" y2="37.46"/><path class="cls-5" d="M744.08,98.88V149a6.8,6.8,0,0,1-6.8,6.8h-9.13l-15.92,15.93V155.78H655.32a6.79,6.79,0,0,1-6.79-6.8V98.88a6.79,6.79,0,0,1,6.79-6.8h82A6.8,6.8,0,0,1,744.08,98.88Z"/><path class="cls-6" d="M740.81,95.61v50.1a6.8,6.8,0,0,1-6.8,6.8h-9.13L709,168.44V152.51H652.05a6.79,6.79,0,0,1-6.79-6.8V95.61a6.79,6.79,0,0,1,6.79-6.8h82A6.8,6.8,0,0,1,740.81,95.61Z"/><path class="cls-9" d="M736,102.55a1.13,1.13,0,0,0-.17-.24L725,91.22a6.56,6.56,0,0,1,2.29-10.79,6.08,6.08,0,0,1,6.59,1.37c.69.63,1.32,1.33,2,2a1.38,1.38,0,0,1,.17.25l1-.94c.57-.56,1.1-1.17,1.72-1.67a6.35,6.35,0,0,1,10.19,3.62,6.26,6.26,0,0,1-1.67,6.08c-3.66,3.78-7.37,7.52-11.06,11.27A1.14,1.14,0,0,1,736,102.55Z"/><line class="cls-7" x1="653.38" y1="96.77" x2="670.44" y2="96.77"/><line class="cls-7" x1="713.63" y1="110.42" x2="727.99" y2="110.42"/><line class="cls-7" x1="690.68" y1="110.42" x2="706.94" y2="110.42"/><line class="cls-7" x1="653.38" y1="110.42" x2="683.99" y2="110.42"/><line class="cls-7" x1="677.23" y1="117.25" x2="714.7" y2="117.25"/><line class="cls-7" x1="653.38" y1="117.25" x2="670.54" y2="117.25"/><line class="cls-7" x1="699.93" y1="124.07" x2="718.94" y2="124.07"/><line class="cls-7" x1="682.7" y1="124.07" x2="693.24" y2="124.07"/><line class="cls-7" x1="653.38" y1="124.07" x2="676.01" y2="124.07"/><line class="cls-7" x1="691.31" y1="130.9" x2="714.7" y2="130.9"/><line class="cls-7" x1="666.38" y1="130.9" x2="684.62" y2="130.9"/><line class="cls-7" x1="653.38" y1="130.9" x2="659.68" y2="130.9"/><line class="cls-7" x1="682.79" y1="137.72" x2="722.54" y2="137.72"/><line class="cls-7" x1="653.38" y1="137.72" x2="676.1" y2="137.72"/><line class="cls-7" x1="674.59" y1="144.55" x2="683.99" y2="144.55"/><line class="cls-7" x1="653.38" y1="144.55" x2="667.9" y2="144.55"/><path class="cls-10" d="M461,131.35a46.64,46.64,0,1,1,93.28,0"/><rect class="cls-11" x="433.4" y="165.06" width="148.47" height="79.6"/><path class="cls-12" d="M506.56,187.3H511a14.18,14.18,0,0,1,14.18,14.18v43.18a0,0,0,0,1,0,0h-32.8a0,0,0,0,1,0,0V201.47A14.18,14.18,0,0,1,506.56,187.3Z"/><path class="cls-13" d="M461.36,178h3a9.65,9.65,0,0,1,9.65,9.65v44.08a0,0,0,0,1,0,0H451.7a0,0,0,0,1,0,0V187.65A9.65,9.65,0,0,1,461.36,178Z"/><path class="cls-12" d="M552.77,178h3a9.65,9.65,0,0,1,9.65,9.65v44.08a0,0,0,0,1,0,0H543.11a0,0,0,0,1,0,0V187.65a9.65,9.65,0,0,1,9.65-9.65Z"/><path class="cls-14" d="M613.59,39.9s6.24-9-1.66-14.23-14.31-13.5-14.31-16.54c0,3-6.41,11.31-14.31,16.54s-1.66,14.23-1.66,14.23Z"/><rect class="cls-11" x="581.92" y="39.9" width="31.5" height="204.76"/><rect class="cls-8" x="576.87" y="71.1" width="41.61" height="13.34"/><rect class="cls-8" x="576.87" y="115.64" width="41.61" height="13.34"/><rect class="cls-8" x="455.16" y="131.35" width="104.95" height="13.34"/><rect class="cls-10" x="461" y="144.69" width="93.28" height="20.2"/><line class="cls-7" x1="507.64" y1="84.71" x2="507.64" y2="66.85"/><polygon class="cls-15" points="554.28 144.69 461 152.63 461 144.69 554.28 144.69"/><polygon class="cls-15" points="581.88 165.06 433.4 171.5 433.4 165.06 581.88 165.06"/><polygon class="cls-15" points="613.43 128.98 581.88 128.98 581.88 135.05 613.43 128.98"/><polygon class="cls-15" points="613.43 84.75 581.88 84.75 581.88 90.82 613.43 84.75"/><polygon class="cls-16" points="613.43 39.9 581.88 39.9 581.88 45.97 613.43 39.9"/><line class="cls-7" x1="309.89" y1="217.39" x2="411.1" y2="217.39"/><line class="cls-7" x1="347.4" y1="217.39" x2="347.4" y2="38.79"/><path class="cls-17" d="M272.28,64.62c25-9.55,50.08,10.19,75.12.64V50c-25,9.54-50.08-10.19-75.12-.65Z"/><path class="cls-18" d="M272.28,79.85c25-9.55,50.08,10.18,75.12.64V65.26c-25,9.55-50.08-10.19-75.12-.64Z"/><path class="cls-19" d="M272.28,95.07c25-9.54,50.08,10.19,75.12.65V80.49c-25,9.54-50.08-10.19-75.12-.64Z"/><rect class="cls-10" x="387.58" y="229.61" width="102.7" height="29.86"/><polygon class="cls-15" points="490.29 229.61 387.58 237.01 387.58 229.61 490.29 229.61"/><polygon class="cls-20" points="468.42 89.8 438.93 65.37 409.45 89.8 395.87 122.38 482 122.38 468.42 89.8"/><polygon class="cls-9" points="473.44 122.38 404.43 122.38 381.35 229.61 496.52 229.61 473.44 122.38"/><polygon class="cls-15" points="473.44 122.38 404.43 122.38 402.5 131.35 473.44 122.38"/><rect class="cls-12" x="428.3" y="221.46" width="21.26" height="38.01"/><rect class="cls-12" x="428.3" y="180.07" width="21.26" height="23.07"/><rect class="cls-12" x="428.3" y="140.02" width="21.26" height="23.07"/><circle class="cls-21" cx="438.82" cy="100.6" r="8.99"/><circle class="cls-9" cx="438.82" cy="98.45" r="8.99"/><line class="cls-22" x1="438.52" y1="97.86" x2="508.31" y2="207.4"/><rect class="cls-11" x="426.15" y="162.55" width="94.16" height="23.45" transform="translate(365.94 -318.48) rotate(57.5)"/><rect class="cls-11" x="357.34" y="10.9" width="94.16" height="23.45" transform="translate(602.63 375.87) rotate(-122.5)"/><line class="cls-22" x1="439.02" y1="98.76" x2="410.91" y2="54.64"/><line class="cls-22" x1="438.52" y1="97.86" x2="328.98" y2="167.65"/><polygon class="cls-11" points="396.41 97.67 316.99 148.26 328.99 167.65 407.95 117.34 396.41 97.67"/><rect class="cls-11" x="467.57" y="52.32" width="94.16" height="23.45" transform="translate(46.19 286.56) rotate(-32.5)"/><line class="cls-22" x1="438.52" y1="98.65" x2="482.64" y2="70.54"/><line class="cls-23" x1="413.82" y1="259.47" x2="336" y2="259.47"/><path class="cls-7" d="M390.44,280.8c6.37,0,6.37,5.43,12.74,5.43s6.36-5.43,12.73-5.43,6.37,5.43,12.74,5.43,6.37-5.43,12.74-5.43,6.36,5.43,12.73,5.43,6.37-5.43,12.74-5.43,6.37,5.43,12.74,5.43,6.37-5.43,12.74-5.43,6.36,5.43,12.73,5.43,6.37-5.43,12.74-5.43"/><polygon class="cls-20" points="349.8 178.2 358.33 170.56 366.71 178.19 358.33 184.76 349.8 178.2"/><path class="cls-20" d="M374.15,173.22s4.3,25.85-15.16,25.85-16.51-25.85-16.51-25.85l15.85,11.54Z"/><line class="cls-22" x1="358.99" y1="199.07" x2="358.99" y2="259.47"/><path class="cls-8" d="M359,222.4s1.93-11.63,15.92-12.3C374.91,210.1,375.14,224,359,222.4Z"/><path class="cls-8" d="M343.07,224.42S345,236,359,236.72C359,236.72,359.22,222.81,343.07,224.42Z"/><circle class="cls-7" cx="540.69" cy="303.59" r="18.75"/><circle class="cls-7" cx="611.89" cy="303.59" r="18.75"/><path class="cls-7" d="M540.69,303.59l14.2-44.31a7.73,7.73,0,0,1,7.34-5.35h6.26"/><polygon class="cls-7" points="551.51 269.93 595.6 269.93 611.89 303.59 580.78 303.59 551.51 269.93"/><line class="cls-7" x1="580.78" y1="303.59" x2="598.45" y2="263.45"/><line class="cls-7" x1="587.46" y1="261.4" x2="605.22" y2="261.4"/><polygon class="cls-20" points="308.53 198.9 317.06 191.26 325.43 198.89 317.06 205.46 308.53 198.9"/><path class="cls-20" d="M332.88,193.92s4.29,25.85-15.16,25.85-16.52-25.85-16.52-25.85l15.86,11.54Z"/><line class="cls-22" x1="317.72" y1="219.77" x2="317.72" y2="280.17"/><path class="cls-8" d="M317.72,243.09s1.92-11.62,15.92-12.3C333.64,230.79,333.87,244.71,317.72,243.09Z"/><path class="cls-8" d="M301.8,245.12s1.92,11.62,15.92,12.3C317.72,257.42,317.94,243.51,301.8,245.12Z"/><polygon class="cls-20" points="632.67 183.22 641.19 175.58 649.57 183.21 641.19 189.78 632.67 183.22"/><path class="cls-20" d="M657,178.24s4.3,25.84-15.15,25.84-16.52-25.84-16.52-25.84l15.85,11.54Z"/><line class="cls-22" x1="641.86" y1="204.08" x2="641.86" y2="267.2"/><path class="cls-8" d="M641.86,227.41s1.92-11.62,15.92-12.3C657.78,215.11,658,229,641.86,227.41Z"/><path class="cls-8" d="M625.94,229.44s1.92,11.62,15.92,12.3C641.86,241.74,642.08,227.83,625.94,229.44Z"/><line class="cls-23" x1="374.85" y1="280.84" x2="265.98" y2="280.84"/><line class="cls-7" x1="615.04" y1="267.24" x2="680.71" y2="267.24"/><path class="cls-5" d="M336.72,119.06a2.45,2.45,0,0,0-2.45-2.45H212.82a2.45,2.45,0,0,0-2.45,2.45v58.28a2.45,2.45,0,0,0,2.45,2.45H334.27a2.45,2.45,0,0,0,2.45-2.45V158.73l21.06-21.06H336.72Z"/><path class="cls-6" d="M350.76,130.65,329.7,151.71v18.61a2.45,2.45,0,0,1-2.45,2.45H205.8a2.45,2.45,0,0,1-2.45-2.45V112a2.45,2.45,0,0,1,2.45-2.45H327.25A2.45,2.45,0,0,1,329.7,112v18.61Z"/><line class="cls-7" x1="217.39" y1="123.63" x2="259.5" y2="123.63"/><line class="cls-7" x1="301.62" y1="137.67" x2="308.64" y2="137.67"/><line class="cls-7" x1="269.46" y1="137.67" x2="294.6" y2="137.67"/><line class="cls-7" x1="217.39" y1="137.67" x2="262.44" y2="137.67"/><line class="cls-7" x1="290.23" y1="144.69" x2="315.66" y2="144.69"/><line class="cls-7" x1="254.97" y1="144.69" x2="283.21" y2="144.69"/><line class="cls-7" x1="217.39" y1="144.69" x2="247.95" y2="144.69"/><line class="cls-7" x1="267.85" y1="151.71" x2="307.61" y2="151.71"/><line class="cls-7" x1="217.39" y1="151.71" x2="260.83" y2="151.71"/><line class="cls-7" x1="291.99" y1="158.73" x2="313.02" y2="158.73"/><line class="cls-7" x1="252.56" y1="158.73" x2="284.97" y2="158.73"/><line class="cls-7" x1="217.39" y1="158.73" x2="245.54" y2="158.73"/><circle class="cls-5" cx="142.66" cy="80.41" r="23.86"/><circle class="cls-11" cx="139.39" cy="77.14" r="23.86"/><path class="cls-15" d="M127.43,83.2a18.11,18.11,0,0,0,2.53,2,18.44,18.44,0,0,0,2.77,1.57,14.07,14.07,0,0,0,6.05,1.34,7.21,7.21,0,0,0,1.54-.1,6.56,6.56,0,0,0,1.53-.28c.5-.14,1-.26,1.51-.41s1-.43,1.45-.63c.24-.11.49-.2.72-.32l.68-.41,1.38-.83c.88-.61,1.71-1.3,2.61-1.93l0,0a.29.29,0,0,1,.4.07.3.3,0,0,1,0,.36c-.78.79-1.57,1.59-2.4,2.34l-1.37,1-.69.49c-.24.16-.5.27-.75.41-.51.26-1,.52-1.54.77s-1.09.35-1.64.53a8,8,0,0,1-1.7.34,7.68,7.68,0,0,1-1.73.13,13.56,13.56,0,0,1-6.62-1.7A16.61,16.61,0,0,1,127,83.57a.3.3,0,0,1,.05-.4.3.3,0,0,1,.37,0Z"/><path class="cls-5" d="M128.26,76.28s-.83-7.47,3.67-7.52,3.55,7.52,3.55,7.52-1.14-3.44-3.6-3.44S128.26,76.28,128.26,76.28Z"/><path class="cls-5" d="M142.46,76.28s-.83-7.47,3.68-7.52,3.55,7.52,3.55,7.52-1.15-3.44-3.6-3.44S142.46,76.28,142.46,76.28Z"/><path class="cls-20" d="M201.74,125.74a3.33,3.33,0,0,1,.24-.34L217.05,110a9.11,9.11,0,0,0-3.17-15,8.43,8.43,0,0,0-9.14,1.9c-1,.88-1.84,1.85-2.75,2.78a2.7,2.7,0,0,0-.25.34l-1.34-1.3A30.76,30.76,0,0,0,198,96.44a8.81,8.81,0,0,0-14.14,5,8.7,8.7,0,0,0,2.31,8.43c5.09,5.24,10.23,10.44,15.35,15.65Z"/><path class="cls-9" d="M219.82,86.82a1.66,1.66,0,0,1,.24-.18l13.59-7.46a6.56,6.56,0,0,0,.94-11,6.09,6.09,0,0,0-6.7-.6c-.84.41-1.65.89-2.47,1.34a2.23,2.23,0,0,0-.24.19L224.53,68c-.39-.7-.72-1.44-1.17-2.1a6.34,6.34,0,0,0-10.79.52,6.24,6.24,0,0,0-.16,6.29c2.41,4.68,4.87,9.33,7.31,14C219.73,86.68,219.76,86.71,219.82,86.82Z"/><path class="cls-9" d="M55.3,134.07a1.66,1.66,0,0,1,.24-.18l13.59-7.46a6.55,6.55,0,0,0,.94-11,6.09,6.09,0,0,0-6.7-.6c-.84.41-1.65.89-2.47,1.35a1.37,1.37,0,0,0-.24.18L60,115.2c-.39-.7-.71-1.44-1.16-2.09a6.35,6.35,0,0,0-10.8.51,6.26,6.26,0,0,0-.16,6.29c2.41,4.68,4.87,9.33,7.31,14Z"/><path class="cls-20" d="M200.77,61.28a1,1,0,0,1,.06-.2l4.52-9.74a4.54,4.54,0,0,0-4-6.51,4.21,4.21,0,0,0-4,2.42c-.31.57-.56,1.17-.83,1.76a1.52,1.52,0,0,0-.06.2l-.85-.39c-.5-.23-1-.51-1.51-.69a4.4,4.4,0,0,0-5.81,4.71,4.34,4.34,0,0,0,2.49,3.58c3.27,1.62,6.55,3.21,9.82,4.81Z"/><path class="cls-20" d="M805.89,152.77c0-.07,0-.14.05-.2l4.53-9.73a4.54,4.54,0,0,0-4-6.51,4.18,4.18,0,0,0-4,2.41c-.31.57-.56,1.17-.83,1.76a1.66,1.66,0,0,0-.06.21l-.85-.4c-.5-.23-1-.51-1.51-.69a4.48,4.48,0,0,0-3.32,8.3c3.27,1.61,6.55,3.2,9.82,4.8Z"/><circle class="cls-5" cx="246.74" cy="216.31" r="17.54"/><circle class="cls-11" cx="244.34" cy="213.91" r="17.54"/><path class="cls-15" d="M235.6,218.32a16.71,16.71,0,0,0,3.92,2.5,10.45,10.45,0,0,0,4.37.94,9.55,9.55,0,0,0,2.21-.27c.36-.09.73-.18,1.09-.29l1.05-.44a5,5,0,0,0,1-.53l1-.57c.66-.43,1.28-.93,1.95-1.36l0,0a.28.28,0,0,1,.39.08.29.29,0,0,1,0,.34c-.55.61-1.13,1.2-1.73,1.78l-1,.76a5.57,5.57,0,0,1-1.06.67,9.92,9.92,0,0,1-9.89.06,11.7,11.7,0,0,1-3.77-3.29.27.27,0,0,1,.06-.39.29.29,0,0,1,.35,0Z"/><path class="cls-5" d="M236.15,213.27s-.61-5.48,2.7-5.52,2.62,5.52,2.62,5.52-.85-2.52-2.65-2.52S236.15,213.27,236.15,213.27Z"/><path class="cls-5" d="M246.6,213.27s-.61-5.48,2.7-5.52,2.61,5.52,2.61,5.52-.84-2.52-2.65-2.52S246.6,213.27,246.6,213.27Z"/><path class="cls-5" d="M144.18,28.12H65.67a1.51,1.51,0,0,0-1.5,1.51v29a1.5,1.5,0,0,0,1.5,1.5h11.4L90,73.05V60.15h54.2a1.5,1.5,0,0,0,1.5-1.5v-29A1.51,1.51,0,0,0,144.18,28.12Z"/><path class="cls-6" d="M141.38,54.35a1.5,1.5,0,0,1-1.5,1.5H85.68v12.9L72.77,55.85H61.37a1.5,1.5,0,0,1-1.5-1.5v-29a1.51,1.51,0,0,1,1.5-1.51h78.51a1.51,1.51,0,0,1,1.5,1.51Z"/><path class="cls-15" d="M75.89,43.81H71.62L71,46H67.22l4.83-13.3h3.4L80.28,46H76.55Zm-.93-3L73.77,37h0l-1.19,3.82Z"/><path class="cls-15" d="M80.42,41.38a4.69,4.69,0,0,1,5-4.78,5,5,0,0,1,4,1.89l-2.22,1.9a2.12,2.12,0,0,0-1.7-.83,1.69,1.69,0,0,0-1.75,1.79,1.72,1.72,0,0,0,1.78,1.83,2.09,2.09,0,0,0,1.66-.75l2.28,2a5.41,5.41,0,0,1-4.27,1.73A4.62,4.62,0,0,1,80.42,41.38Z"/><path class="cls-15" d="M90.86,43.08V39.44h-1V36.79h1V33.91l3.34-.34v3.22h2v2.65h-2v2.92c0,.43,0,.93.6.93a1.86,1.86,0,0,0,.68-.14l.81,2.33a4.81,4.81,0,0,1-2.68.67C92.05,46.15,90.86,45.18,90.86,43.08Z"/><path class="cls-15" d="M106.58,36.79V46h-3.36V45h0a3.13,3.13,0,0,1-2.5,1.17c-1.87,0-3.24-1-3.24-4V36.79h3.33v4.56c0,1.31.35,1.85,1.2,1.85.7,0,1.24-.55,1.24-1.8V36.79Z"/><path class="cls-15" d="M117.07,42.19h-6a1.72,1.72,0,0,0,1.9,1.32,2.8,2.8,0,0,0,2.11-1l1.73,1.9a5.33,5.33,0,0,1-4.19,1.75,4.78,4.78,0,1,1-.06-9.55,4.51,4.51,0,0,1,4.62,4.71A5.15,5.15,0,0,1,117.07,42.19Zm-6-1.81h2.85a1.38,1.38,0,0,0-1.39-1.23A1.43,1.43,0,0,0,111.06,40.38Z"/><path class="cls-15" d="M127.27,42.19h-6a1.71,1.71,0,0,0,1.9,1.32,2.82,2.82,0,0,0,2.11-1L127,44.4a5.34,5.34,0,0,1-4.2,1.75,4.78,4.78,0,1,1,0-9.55,4.5,4.5,0,0,1,4.61,4.71A4.31,4.31,0,0,1,127.27,42.19Zm-6-1.81h2.85a1.4,1.4,0,0,0-1.39-1.23A1.42,1.42,0,0,0,121.27,40.38Z"/><path class="cls-15" d="M128.67,32.18H132V46h-3.34Z"/><path class="cls-5" d="M282.19,233.62H178.07a1.51,1.51,0,0,0-1.51,1.5v29a1.51,1.51,0,0,0,1.51,1.51h11.39l12.91,12.9v-12.9h79.82a1.5,1.5,0,0,0,1.5-1.51v-29A1.5,1.5,0,0,0,282.19,233.62Z"/><path class="cls-6" d="M279.39,259.84a1.5,1.5,0,0,1-1.5,1.51H198.07v12.9l-12.91-12.9h-11.4a1.51,1.51,0,0,1-1.5-1.51v-29a1.5,1.5,0,0,1,1.5-1.5H277.89a1.5,1.5,0,0,1,1.5,1.5Z"/><path class="cls-15" d="M180.72,238.16h3.61v13.3h-3.61Z"/><path class="cls-15" d="M195.45,245.91v5.55H192.1v-4.75c0-1.3-.36-1.65-1.2-1.65s-1.33.55-1.33,1.79v4.61h-3.34v-9.17h3.34v1h0a3.39,3.39,0,0,1,2.6-1.19C194.06,242.1,195.45,242.94,195.45,245.91Z"/><path class="cls-15" d="M197.38,248.58v-3.64h-1v-2.65h1v-2.88l3.34-.35v3.23h2v2.65h-2v2.91c0,.43.05.94.6.94a1.91,1.91,0,0,0,.68-.15l.81,2.33a4.72,4.72,0,0,1-2.68.68C198.57,251.65,197.38,250.68,197.38,248.58Z"/><path class="cls-15" d="M212.47,247.69h-6a1.72,1.72,0,0,0,1.9,1.32,2.85,2.85,0,0,0,2.12-1l1.72,1.9a5.32,5.32,0,0,1-4.19,1.76,4.78,4.78,0,1,1-.06-9.55,4.5,4.5,0,0,1,4.62,4.7A5.37,5.37,0,0,1,212.47,247.69Zm-6-1.82h2.85a1.37,1.37,0,0,0-1.39-1.22A1.42,1.42,0,0,0,206.46,245.87Z"/><path class="cls-15" d="M219.74,242.1v3.57c-.28,0-.57,0-.71,0a1.69,1.69,0,0,0-1.9,1.8v4h-3.34v-9.17h3.34v1.25h0a3.09,3.09,0,0,1,2.56-1.44Z"/><path class="cls-15" d="M230.08,242.29v9.17h-3.17v-.86h0a2.83,2.83,0,0,1-2.36,1.05c-2.51,0-4.26-2-4.26-4.78s1.77-4.77,4.06-4.77a3.07,3.07,0,0,1,2.38,1.09h0v-.9Zm-3.21,4.59a1.63,1.63,0,1,0-3.24,0,1.63,1.63,0,1,0,3.24,0Z"/><path class="cls-15" d="M231.3,246.88a4.68,4.68,0,0,1,5-4.78,5,5,0,0,1,4,1.89l-2.22,1.89a2.14,2.14,0,0,0-1.7-.82,1.69,1.69,0,0,0-1.75,1.79,1.74,1.74,0,0,0,1.78,1.83,2.09,2.09,0,0,0,1.66-.75l2.28,2a5.42,5.42,0,0,1-4.27,1.74A4.62,4.62,0,0,1,231.3,246.88Z"/><path class="cls-15" d="M241.74,248.58v-3.64h-1v-2.65h1v-2.88l3.34-.35v3.23h2v2.65h-2v2.91c0,.43,0,.94.6.94a1.91,1.91,0,0,0,.68-.15l.81,2.33a4.74,4.74,0,0,1-2.68.68C242.93,251.65,241.74,250.68,241.74,248.58Z"/><path class="cls-15" d="M248.12,239.44a1.92,1.92,0,1,1,1.92,1.81A1.81,1.81,0,0,1,248.12,239.44Zm.24,2.85h3.34v9.17h-3.34Z"/><path class="cls-15" d="M262.32,247.69h-6a1.71,1.71,0,0,0,1.9,1.32,2.83,2.83,0,0,0,2.11-1l1.73,1.9a5.34,5.34,0,0,1-4.2,1.76,4.78,4.78,0,0,1-.05-9.55,4.68,4.68,0,0,1,4.52,5.59Zm-6-1.82h2.85a1.39,1.39,0,0,0-1.39-1.22A1.42,1.42,0,0,0,256.32,245.87Z"/><path class="cls-15" d="M263.88,244.94h-.83v-2.65h.83V241c0-2.38,1.29-3.5,3.14-3.5a4.56,4.56,0,0,1,2.56.75L269,240.5a2.44,2.44,0,0,0-1-.25c-.45,0-.79.16-.79.78v1.26h1.49v2.65h-1.49v6.52h-3.36Z"/><path class="cls-5" d="M901.33,243.13H789.58a1.5,1.5,0,0,0-1.5,1.5v29a1.5,1.5,0,0,0,1.5,1.5H801l12.9,12.9v-12.9h87.45a1.5,1.5,0,0,0,1.51-1.5v-29A1.51,1.51,0,0,0,901.33,243.13Z"/><path class="cls-6" d="M898.54,269.36a1.51,1.51,0,0,1-1.51,1.5H809.58v12.9l-12.9-12.9h-11.4a1.5,1.5,0,0,1-1.5-1.5v-29a1.5,1.5,0,0,1,1.5-1.5H897a1.51,1.51,0,0,1,1.51,1.5Z"/><path class="cls-15" d="M804,247.67,799.17,261H796l-4.86-13.3H795l2.53,8.23h0l2.56-8.23Z"/><path class="cls-15" d="M812.33,257.2h-6a1.71,1.71,0,0,0,1.9,1.32,2.85,2.85,0,0,0,2.11-1l1.73,1.9a5.34,5.34,0,0,1-4.2,1.75,4.78,4.78,0,0,1-.05-9.55,4.5,4.5,0,0,1,4.61,4.71A4.38,4.38,0,0,1,812.33,257.2Zm-6-1.81h2.85a1.39,1.39,0,0,0-1.39-1.23A1.42,1.42,0,0,0,806.33,255.39Z"/><path class="cls-15" d="M813.74,247.19h3.33V261h-3.33Z"/><path class="cls-15" d="M827.69,257.2h-6a1.72,1.72,0,0,0,1.9,1.32,2.85,2.85,0,0,0,2.11-1l1.73,1.9a5.33,5.33,0,0,1-4.19,1.75,4.78,4.78,0,1,1-.06-9.55,4.51,4.51,0,0,1,4.62,4.71A4.4,4.4,0,0,1,827.69,257.2Zm-6-1.81h2.85a1.39,1.39,0,0,0-1.39-1.23A1.43,1.43,0,0,0,821.69,255.39Z"/><path class="cls-15" d="M842.2,257.2h-6a1.73,1.73,0,0,0,1.91,1.32,2.87,2.87,0,0,0,2.11-1l1.72,1.9a5.3,5.3,0,0,1-4.19,1.75,4.78,4.78,0,1,1-.06-9.55,4.51,4.51,0,0,1,4.62,4.71A5.25,5.25,0,0,1,842.2,257.2Zm-6-1.81H839a1.38,1.38,0,0,0-1.38-1.23A1.43,1.43,0,0,0,836.19,255.39Z"/><path class="cls-15" d="M847.11,259h-.05l-1.29,2h-3.54l3-4.74-3-4.43H846l1.06,1.95h0l1.08-1.95h3.7l-3,4.43,3,4.74h-3.57Z"/><path class="cls-15" d="M853.19,258.09v-3.64h-1V251.8h1v-2.88l3.33-.34v3.22h2v2.65h-2v2.92c0,.43.06.93.6.93a1.91,1.91,0,0,0,.68-.15l.81,2.33a4.71,4.71,0,0,1-2.67.68C854.37,261.16,853.19,260.19,853.19,258.09Z"/><path class="cls-15" d="M865.85,251.61v3.57h-.71a1.69,1.69,0,0,0-1.9,1.8v4H859.9V251.8h3.34v1.25h0a3.09,3.09,0,0,1,2.56-1.44Z"/><path class="cls-15" d="M876.19,251.8V261H873v-.86h0a2.83,2.83,0,0,1-2.36,1.05c-2.51,0-4.26-2-4.26-4.78s1.77-4.77,4.06-4.77a3.08,3.08,0,0,1,2.38,1.1h0v-.91ZM873,256.39a1.63,1.63,0,1,0-1.61,1.85A1.69,1.69,0,0,0,873,256.39Z"/><path class="cls-15" d="M878,247.67h3.21l-1.36,5.22h-2.39Z"/><path class="cls-15" d="M881.68,259.79l1.52-2.07a3.63,3.63,0,0,0,2.29,1c.46,0,.68-.14.68-.38s-.12-.38-1.25-.71c-1.56-.45-2.91-1.24-2.91-3,0-2,1.61-3.08,3.52-3.08a5.71,5.71,0,0,1,3.58,1.16L887.57,255a3,3,0,0,0-1.93-.94c-.29,0-.58.11-.58.38s.22.34,1.13.63c2.09.67,3.1,1.28,3.1,3.07s-1.27,3-3.86,3A5.47,5.47,0,0,1,881.68,259.79Z"/><path class="cls-5" d="M688,187.08h117.8a1.51,1.51,0,0,1,1.5,1.51v29a1.5,1.5,0,0,1-1.5,1.5h-11.4L781.51,232v-12.9H688a1.5,1.5,0,0,1-1.5-1.5v-29A1.51,1.51,0,0,1,688,187.08Z"/><path class="cls-6" d="M690.81,213.31a1.5,1.5,0,0,0,1.5,1.5h93.5v12.9l12.9-12.9h11.4a1.5,1.5,0,0,0,1.5-1.5v-29a1.51,1.51,0,0,0-1.5-1.51H692.31a1.51,1.51,0,0,0-1.5,1.51Z"/><path class="cls-15" d="M699,191.62h3.6v5.3h4v-5.3h3.6v13.3h-3.6v-4.84h-4v4.84H699Z"/><path class="cls-15" d="M721,201.15h-6a1.72,1.72,0,0,0,1.9,1.32,2.87,2.87,0,0,0,2.12-1l1.72,1.9a5.31,5.31,0,0,1-4.19,1.75,4.78,4.78,0,1,1-.06-9.55,4.51,4.51,0,0,1,4.62,4.71A5.15,5.15,0,0,1,721,201.15Zm-6-1.81h2.85a1.38,1.38,0,0,0-1.39-1.23A1.43,1.43,0,0,0,714.94,199.34Z"/><path class="cls-15" d="M722.35,191.14h3.34v13.78h-3.34Z"/><path class="cls-15" d="M736.91,191.14v13.78h-3.17v-.86h0a2.94,2.94,0,0,1-2.43,1.05c-2.51,0-4.26-1.94-4.26-4.78s1.77-4.77,4.06-4.77a3.23,3.23,0,0,1,2.46,1.11h0v-5.53Zm-3.21,9.2A1.7,1.7,0,0,0,732,198.5a1.85,1.85,0,1,0,1.69,1.84Z"/><path class="cls-15" d="M747.45,201.15h-6a1.72,1.72,0,0,0,1.9,1.32,2.87,2.87,0,0,0,2.12-1l1.72,1.9a5.31,5.31,0,0,1-4.19,1.75,4.78,4.78,0,1,1-.06-9.55,4.51,4.51,0,0,1,4.62,4.71A5.15,5.15,0,0,1,747.45,201.15Zm-6-1.81h2.85a1.38,1.38,0,0,0-1.39-1.23A1.43,1.43,0,0,0,741.44,199.34Z"/><path class="cls-15" d="M754.72,195.56v3.58c-.28,0-.57,0-.7,0a1.69,1.69,0,0,0-1.91,1.8v4h-3.34v-9.17h3.34V197h0a3.1,3.1,0,0,1,2.56-1.45Z"/><path class="cls-15" d="M764.46,201.15h-6a1.72,1.72,0,0,0,1.9,1.32,2.84,2.84,0,0,0,2.11-1l1.73,1.9a5.33,5.33,0,0,1-4.19,1.75,4.78,4.78,0,1,1-.06-9.55,4.51,4.51,0,0,1,4.62,4.71A5.15,5.15,0,0,1,764.46,201.15Zm-6-1.81h2.85a1.38,1.38,0,0,0-1.39-1.23A1.43,1.43,0,0,0,758.45,199.34Z"/><path class="cls-15" d="M770.44,202V198.4h-1v-2.65h1v-2.88l3.34-.34v3.22h2v2.65h-2v2.92c0,.43.05.93.6.93a1.71,1.71,0,0,0,.68-.15l.81,2.34a4.83,4.83,0,0,1-2.68.67C771.63,205.11,770.44,204.14,770.44,202Z"/><path class="cls-15" d="M786.12,195.75v9.17H783v-.86h0a2.83,2.83,0,0,1-2.36,1.05c-2.51,0-4.26-1.94-4.26-4.78s1.77-4.77,4.06-4.77a3.08,3.08,0,0,1,2.38,1.1h0v-.91Zm-3.21,4.59a1.63,1.63,0,1,0-3.23,0,1.63,1.63,0,1,0,3.23,0Z"/><path class="cls-15" d="M797.13,195.75v9.17H794v-.86h0a2.83,2.83,0,0,1-2.36,1.05c-2.51,0-4.26-1.94-4.26-4.78s1.77-4.77,4.06-4.77a3.08,3.08,0,0,1,2.38,1.1h0v-.91Zm-3.21,4.59a1.63,1.63,0,1,0-3.23,0,1.63,1.63,0,1,0,3.23,0Z"/><path class="cls-15" d="M798.82,191.14h3.34v13.78h-3.34Z"/><path class="cls-5" d="M84.32,144.74H182.5a1.52,1.52,0,0,1,1.51,1.51v29a1.51,1.51,0,0,1-1.51,1.5H171.1l-12.9,12.9v-12.9H84.32a1.5,1.5,0,0,1-1.5-1.5v-29A1.51,1.51,0,0,1,84.32,144.74Z"/><path class="cls-6" d="M87.12,171a1.5,1.5,0,0,0,1.5,1.5H162.5v12.9l12.9-12.9h11.4a1.51,1.51,0,0,0,1.51-1.5v-29a1.51,1.51,0,0,0-1.51-1.5H88.62a1.5,1.5,0,0,0-1.5,1.5Z"/><path class="cls-15" d="M94.37,156a6.56,6.56,0,0,1,6.94-6.87,7.11,7.11,0,0,1,5.42,2.57l-2.61,2.23a3.93,3.93,0,0,0-2.81-1.37,3.42,3.42,0,0,0,0,6.82,3.79,3.79,0,0,0,2.81-1.35l2.61,2.24a7,7,0,0,1-5.42,2.54C97.61,162.77,94.37,160.4,94.37,156Z"/><path class="cls-15" d="M107.37,158a5,5,0,1,1,5,4.77A4.69,4.69,0,0,1,107.37,158Zm6.7,0a1.67,1.67,0,1,0-3.33,0,1.67,1.67,0,1,0,3.33,0Z"/><path class="cls-15" d="M133.41,157.21v5.37h-3.33V158c0-1-.22-1.79-1.11-1.79-.68,0-1.22.55-1.22,1.79v4.61h-3.34V158c0-1-.23-1.79-1.11-1.79-.73,0-1.27.55-1.27,1.79v4.61h-3.34v-9.17H122v1h0a3.09,3.09,0,0,1,2.46-1.23,2.87,2.87,0,0,1,2.63,1.3h0a3.7,3.7,0,0,1,3-1.3C132,153.22,133.41,154.24,133.41,157.21Z"/><path class="cls-15" d="M144.89,158c0,2.83-1.75,4.78-4.26,4.78a2.86,2.86,0,0,1-2.27-1h0v4.5H135V153.41h3.36v.93h0a3.19,3.19,0,0,1,2.46-1.12C143.13,153.22,144.89,155.18,144.89,158Zm-3.37,0a1.68,1.68,0,0,0-1.63-1.84,1.85,1.85,0,0,0,0,3.69A1.66,1.66,0,0,0,141.52,158Z"/><path class="cls-15" d="M146.23,148.8h3.34v13.78h-3.34Z"/><path class="cls-15" d="M160.19,158.81h-6a1.73,1.73,0,0,0,1.91,1.32,2.85,2.85,0,0,0,2.11-1l1.72,1.9a5.3,5.3,0,0,1-4.19,1.75,4.78,4.78,0,1,1-.06-9.55,4.5,4.5,0,0,1,4.62,4.71A5.15,5.15,0,0,1,160.19,158.81Zm-6-1.81H157a1.4,1.4,0,0,0-1.39-1.23A1.43,1.43,0,0,0,154.18,157Z"/><path class="cls-15" d="M170.39,158.81h-6a1.72,1.72,0,0,0,1.9,1.32,2.85,2.85,0,0,0,2.11-1l1.73,1.9a5.34,5.34,0,0,1-4.2,1.75,4.78,4.78,0,0,1,0-9.55,4.51,4.51,0,0,1,4.62,4.71A4.32,4.32,0,0,1,170.39,158.81Zm-6-1.81h2.85a1.39,1.39,0,0,0-1.39-1.23A1.43,1.43,0,0,0,164.39,157Z"/><path class="cls-15" d="M172.08,159.7v-3.64h-1v-2.65h1v-2.88l3.34-.34v3.22h2v2.65h-2V159c0,.43.05.93.6.93a1.91,1.91,0,0,0,.68-.15l.81,2.34a4.83,4.83,0,0,1-2.68.67C173.27,162.77,172.08,161.8,172.08,159.7Z"/><path class="cls-5" d="M844.81,151.39h93.28a1.51,1.51,0,0,1,1.5,1.5v29a1.5,1.5,0,0,1-1.5,1.5h-11.4l-12.9,12.9v-12.9h-69a1.5,1.5,0,0,1-1.5-1.5v-29A1.5,1.5,0,0,1,844.81,151.39Z"/><path class="cls-6" d="M847.61,177.62a1.5,1.5,0,0,0,1.5,1.5h69V192l12.9-12.9h11.4a1.5,1.5,0,0,0,1.5-1.5v-29a1.5,1.5,0,0,0-1.5-1.5H849.11a1.5,1.5,0,0,0-1.5,1.5Z"/><path class="cls-15" d="M854.86,162.61a6.55,6.55,0,0,1,6.94-6.87,7.12,7.12,0,0,1,5.42,2.57l-2.61,2.23a3.91,3.91,0,0,0-2.81-1.37,3.42,3.42,0,0,0,0,6.82,3.83,3.83,0,0,0,2.81-1.35l2.61,2.24a7,7,0,0,1-5.42,2.54C858.09,169.42,854.86,167,854.86,162.61Z"/><path class="cls-15" d="M867.86,164.65a5,5,0,1,1,5,4.77A4.69,4.69,0,0,1,867.86,164.65Zm6.69,0a1.67,1.67,0,1,0-3.32,0,1.67,1.67,0,1,0,3.32,0Z"/><path class="cls-15" d="M893.9,163.86v5.37h-3.34v-4.61c0-1-.22-1.79-1.1-1.79-.68,0-1.22.55-1.22,1.79v4.61H884.9v-4.61c0-1-.23-1.79-1.11-1.79s-1.27.55-1.27,1.79v4.61h-3.35v-9.17h3.35v1h0a3.08,3.08,0,0,1,2.46-1.23,2.86,2.86,0,0,1,2.63,1.3h0a3.7,3.7,0,0,1,3-1.3C892.53,159.87,893.9,160.89,893.9,163.86Z"/><path class="cls-15" d="M905.38,164.64c0,2.83-1.75,4.78-4.26,4.78a2.93,2.93,0,0,1-2.28-1h0v4.5h-3.34V160.06h3.35V161h0a3.18,3.18,0,0,1,2.46-1.11C903.61,159.87,905.38,161.82,905.38,164.64Zm-3.37,0a1.68,1.68,0,0,0-1.63-1.84,1.85,1.85,0,0,0,0,3.69A1.67,1.67,0,0,0,902,164.65Z"/><path class="cls-15" d="M916,160.06v9.17h-3.17v-.86h0a2.83,2.83,0,0,1-2.36,1c-2.51,0-4.25-1.95-4.25-4.78s1.76-4.77,4-4.77a3.05,3.05,0,0,1,2.38,1.1h0v-.91Zm-3.21,4.59a1.63,1.63,0,1,0-3.23,0,1.63,1.63,0,1,0,3.23,0Z"/><path class="cls-15" d="M917.25,164.65a4.69,4.69,0,0,1,5-4.78,5,5,0,0,1,4,1.89l-2.22,1.89a2.14,2.14,0,0,0-1.7-.82,1.68,1.68,0,0,0-1.74,1.79,1.73,1.73,0,0,0,1.78,1.83,2.07,2.07,0,0,0,1.65-.75l2.28,2a5.42,5.42,0,0,1-4.27,1.74A4.63,4.63,0,0,1,917.25,164.65Z"/><path class="cls-15" d="M927.7,166.35v-3.64h-1v-2.65h1v-2.88l3.33-.35v3.23h2v2.65h-2v2.92c0,.43.06.93.61.93a1.91,1.91,0,0,0,.67-.15l.81,2.33a4.71,4.71,0,0,1-2.67.68C928.88,169.42,927.7,168.45,927.7,166.35Z"/><path class="cls-5" d="M22,207.45H155.07a1.51,1.51,0,0,1,1.5,1.51v29a1.5,1.5,0,0,1-1.5,1.5h-11.4l-12.9,12.9v-12.9H22A1.51,1.51,0,0,1,20.5,238V209A1.52,1.52,0,0,1,22,207.45Z"/><path class="cls-6" d="M24.81,233.68a1.5,1.5,0,0,0,1.5,1.5H135.07v12.9l12.9-12.9h11.4a1.5,1.5,0,0,0,1.5-1.5v-29a1.51,1.51,0,0,0-1.5-1.51H26.31a1.51,1.51,0,0,0-1.5,1.51Z"/><path class="cls-15" d="M32.46,212H41.3v3.18H35.9v2h4.23v3.09H35.9v1.87h5.79v3.16H32.46Z"/><path class="cls-15" d="M43.33,218.78H42.5v-2.66h.83v-1.3c0-2.38,1.29-3.5,3.14-3.5a4.56,4.56,0,0,1,2.56.75l-.58,2.26a2.59,2.59,0,0,0-1-.24c-.45,0-.79.15-.79.77v1.26h1.49v2.66H46.69v6.51H43.33Z"/><path class="cls-15" d="M49.87,218.78H49v-2.66h.83v-1.3c0-2.38,1.29-3.5,3.14-3.5a4.49,4.49,0,0,1,2.55.75L55,214.33a2.64,2.64,0,0,0-1-.24c-.45,0-.8.15-.8.77v1.26h1.5v2.66h-1.5v6.51H49.87Z"/><path class="cls-15" d="M64.38,221.53h-6a1.73,1.73,0,0,0,1.9,1.31,2.8,2.8,0,0,0,2.11-1l1.73,1.9a5.31,5.31,0,0,1-4.19,1.75,4.78,4.78,0,1,1-.06-9.55,4.51,4.51,0,0,1,4.62,4.71A5.37,5.37,0,0,1,64.38,221.53Zm-6-1.82h2.85a1.38,1.38,0,0,0-1.39-1.23A1.43,1.43,0,0,0,58.37,219.71Z"/><path class="cls-15" d="M65.3,220.71a4.69,4.69,0,0,1,5-4.78,5,5,0,0,1,4,1.89l-2.22,1.9a2.12,2.12,0,0,0-1.7-.83,1.69,1.69,0,0,0-1.74,1.8,1.72,1.72,0,0,0,1.78,1.82,2.07,2.07,0,0,0,1.65-.75l2.28,2a5.41,5.41,0,0,1-4.27,1.73A4.62,4.62,0,0,1,65.3,220.71Z"/><path class="cls-15" d="M75.75,222.41v-3.63h-1v-2.66h1v-2.87l3.33-.35v3.22h2v2.66h-2v2.91c0,.43.06.93.61.93a1.78,1.78,0,0,0,.67-.14l.82,2.33a4.86,4.86,0,0,1-2.68.67C76.94,225.48,75.75,224.51,75.75,222.41Z"/><path class="cls-15" d="M82.12,213.27A1.92,1.92,0,1,1,84,215.08,1.81,1.81,0,0,1,82.12,213.27Zm.25,2.85h3.34v9.17H82.37Z"/><path class="cls-15" d="M96.33,221.53h-6a1.73,1.73,0,0,0,1.9,1.31,2.84,2.84,0,0,0,2.12-1l1.72,1.9a5.31,5.31,0,0,1-4.19,1.75,4.78,4.78,0,1,1-.06-9.55,4.51,4.51,0,0,1,4.62,4.71A5.37,5.37,0,0,1,96.33,221.53Zm-6-1.82h2.85a1.38,1.38,0,0,0-1.38-1.23A1.43,1.43,0,0,0,90.32,219.71Z"/><path class="cls-15" d="M97.89,218.78h-.84v-2.66h.84v-1.3c0-2.38,1.28-3.5,3.14-3.5a4.52,4.52,0,0,1,2.55.75l-.58,2.26a2.55,2.55,0,0,0-1-.24c-.45,0-.8.15-.8.77v1.26h1.5v2.66h-1.5v6.51H97.89Z"/><path class="cls-15" d="M108.48,211.51h3.34v13.78h-3.34Z"/><path class="cls-15" d="M122.44,221.53h-6a1.71,1.71,0,0,0,1.9,1.31,2.82,2.82,0,0,0,2.11-1l1.73,1.9a5.34,5.34,0,0,1-4.2,1.75,4.78,4.78,0,0,1,0-9.55,4.64,4.64,0,0,1,4.52,5.6Zm-6-1.82h2.85a1.39,1.39,0,0,0-1.39-1.23A1.42,1.42,0,0,0,116.44,219.71Z"/><path class="cls-15" d="M129.71,215.93v3.58c-.27,0-.56,0-.7,0a1.69,1.69,0,0,0-1.9,1.8v4h-3.35v-9.17h3.35v1.26h0a3.1,3.1,0,0,1,2.56-1.45Z"/><path class="cls-15" d="M139.45,221.53h-6a1.71,1.71,0,0,0,1.9,1.31,2.82,2.82,0,0,0,2.11-1l1.73,1.9a5.34,5.34,0,0,1-4.2,1.75,4.78,4.78,0,0,1,0-9.55,4.69,4.69,0,0,1,4.52,5.6Zm-6-1.82h2.85a1.4,1.4,0,0,0-1.39-1.23A1.42,1.42,0,0,0,133.45,219.71Z"/><path class="cls-15" d="M150,219.74v5.55h-3.35v-4.74c0-1.3-.36-1.66-1.2-1.66s-1.33.55-1.33,1.8v4.6h-3.35v-9.17h3.35v1h0a3.38,3.38,0,0,1,2.6-1.2C148.61,215.93,150,216.77,150,219.74Z"/><path class="cls-20" d="M41.07,93c0-.07,0-.14,0-.2L45.65,83a4.55,4.55,0,0,0-4-6.52,4.2,4.2,0,0,0-4,2.42c-.31.57-.56,1.17-.83,1.76a1.66,1.66,0,0,0-.06.21l-.85-.4c-.5-.23-1-.51-1.51-.69a4.4,4.4,0,0,0-5.81,4.72,4.33,4.33,0,0,0,2.49,3.57c3.27,1.62,6.55,3.21,9.82,4.81Z"/><circle class="cls-5" cx="931.06" cy="230.81" r="17.54"/><circle class="cls-11" cx="928.66" cy="228.41" r="17.54"/><path class="cls-15" d="M919.92,232.81a16.39,16.39,0,0,0,3.92,2.5,10.28,10.28,0,0,0,4.37.95,9.55,9.55,0,0,0,2.21-.27c.36-.1.73-.18,1.09-.29l1-.45a5.24,5.24,0,0,0,1-.52l1-.58c.66-.42,1.27-.92,1.95-1.36l0,0a.28.28,0,0,1,.39.09.29.29,0,0,1,0,.34c-.55.61-1.13,1.2-1.73,1.78l-1,.75a5.39,5.39,0,0,1-1.07.68,9.9,9.9,0,0,1-9.88.06,11.82,11.82,0,0,1-3.77-3.29.28.28,0,0,1,.06-.4.27.27,0,0,1,.35,0Z"/><path class="cls-5" d="M920.47,227.77s-.61-5.49,2.7-5.53,2.62,5.53,2.62,5.53-.85-2.53-2.65-2.53S920.47,227.77,920.47,227.77Z"/><path class="cls-5" d="M930.92,227.77s-.61-5.49,2.7-5.53,2.61,5.53,2.61,5.53-.84-2.53-2.65-2.53S930.92,227.77,930.92,227.77Z"/></g><g class="cls-24"><rect class="cls-3" x="898.62" y="-168.45" width="1575.82" height="588.61"/></g></g></svg>